M48
; DRILL file KiCad 10.0.3 date 2026-07-08T18:41:43
; FORMAT={-:-/ absolute / metric / decimal}
; #@! TF.CreationDate,2026-07-08T18:41:43-07:00
; #@! TF.GenerationSoftware,Kicad,Pcbnew,10.0.3
; #@! TF.FileFunction,MixedPlating,1,4
FMAT,2
METRIC
; #@! TA.AperFunction,Plated,PTH,ViaDrill
T1C0.400
; #@! TA.AperFunction,Plated,PTH,ComponentDrill
T2C0.400
; #@! TA.AperFunction,Plated,PTH,ComponentDrill
T3C0.700
; #@! TA.AperFunction,Plated,PTH,ComponentDrill
T4C0.800
; #@! TA.AperFunction,Plated,PTH,ComponentDrill
T5C1.000
; #@! TA.AperFunction,Plated,PTH,ComponentDrill
T6C1.050
; #@! TA.AperFunction,Plated,PTH,ComponentDrill
T7C1.067
; #@! TA.AperFunction,Plated,PTH,ComponentDrill
T8C1.100
; #@! TA.AperFunction,Plated,PTH,ComponentDrill
T9C2.200
; #@! TA.AperFunction,Plated,PTH,ComponentDrill
T10C3.050
; #@! TA.AperFunction,NonPlated,NPTH,ComponentDrill
T11C1.100
; #@! TA.AperFunction,NonPlated,NPTH,ComponentDrill
T12C1.600
%
G90
G05
T1
X112.461Y-50.103
X115.461Y-72.103
X119.861Y-51.077
X119.861Y-52.855
X119.961Y-75.603
X123.163Y-38.377
X123.163Y-50.175
X123.5Y-108.0
X124.564Y-42.083
X125.195Y-39.139
X125.449Y-47.521
X126.961Y-105.103
X127.011Y-93.553
X127.787Y-38.713
X129.0Y-37.5
X130.529Y-52.855
X130.783Y-47.267
X131.461Y-103.103
X132.815Y-76.731
X134.961Y-95.603
X136.371Y-43.711
X136.461Y-81.103
X137.961Y-83.103
X139.411Y-93.553
X139.411Y-105.153
X141.197Y-52.855
X142.768Y-82.881
X143.991Y-34.821
X144.412Y-101.007
X145.007Y-86.129
X145.461Y-108.103
X145.515Y-78.763
X149.05Y-99.845
X150.341Y-38.885
X150.461Y-106.103
X150.849Y-99.337
X150.961Y-93.603
X151.611Y-82.319
X151.865Y-52.855
X152.119Y-40.917
X152.461Y-95.603
X153.135Y-93.749
X153.449Y-107.116
X155.167Y-43.711
X155.762Y-101.007
X158.739Y-105.654
X159.144Y-100.974
X159.961Y-32.603
X162.461Y-110.603
X162.533Y-52.855
X163.041Y-78.98
X164.12Y-78.98
X164.194Y-100.099
X164.461Y-111.603
X165.444Y-100.236
X165.581Y-91.971
X165.581Y-107.211
X168.883Y-95.527
X170.153Y-87.653
X170.494Y-100.974
X170.494Y-105.951
X171.38Y-71.633
X171.461Y-72.921
X172.19Y-70.639
X172.223Y-74.471
X172.947Y-75.461
X173.023Y-67.681
X173.672Y-68.857
X173.672Y-76.409
X173.779Y-74.699
X174.371Y-70.381
X175.233Y-32.281
X175.461Y-104.103
X175.961Y-35.603
X177.461Y-33.103
X178.961Y-28.103
X180.461Y-85.603
X181.461Y-98.603
X182.461Y-85.603
X182.961Y-91.603
X182.961Y-93.103
X182.961Y-94.603
X183.461Y-84.603
X184.461Y-83.603
X185.961Y-98.103
X186.15Y-23.65
X186.961Y-38.603
X186.961Y-64.603
X187.961Y-66.603
X188.5Y-96.0
X188.961Y-69.103
X189.5Y-94.5
T2
X113.35Y-112.0
X113.385Y-38.631
X113.833Y-110.833
X113.833Y-113.167
X113.869Y-37.464
X113.869Y-39.798
X115.0Y-110.35
X115.0Y-113.65
X115.035Y-36.981
X115.035Y-40.281
X116.167Y-110.833
X116.167Y-113.167
X116.202Y-37.464
X116.202Y-39.798
X116.65Y-112.0
X116.685Y-38.631
X183.85Y-112.5
X184.333Y-111.333
X184.333Y-113.667
X185.5Y-110.85
X185.5Y-114.15
X186.667Y-111.333
X186.667Y-113.667
X187.15Y-112.5
T3
X132.5Y-37.0
T4
X123.905Y-36.345
X126.445Y-36.345
X134.003Y-40.3
X134.003Y-42.84
T5
X120.283Y-31.773
X121.668Y-28.933
X123.053Y-31.773
X124.438Y-28.933
X125.823Y-31.773
X127.208Y-28.933
X128.593Y-31.773
X129.978Y-28.933
X131.363Y-31.773
X132.748Y-28.933
X134.133Y-31.773
X135.518Y-28.933
X136.903Y-31.773
X138.288Y-28.933
X139.673Y-31.773
T6
X115.675Y-52.0
X115.675Y-58.0
X115.836Y-74.603
X115.836Y-80.603
X126.375Y-52.0
X126.375Y-58.0
X137.075Y-52.0
X137.075Y-58.0
X147.775Y-52.0
X147.775Y-58.0
X158.475Y-52.0
X158.475Y-58.0
T7
X151.357Y-71.905
X153.897Y-71.905
X156.437Y-71.905
X158.977Y-71.905
X161.517Y-71.905
T8
X114.0Y-86.96
X114.0Y-89.5
X114.04Y-94.0
X114.04Y-96.54
X114.04Y-101.0
X114.04Y-103.54
X114.659Y-65.16
X114.659Y-67.7
X125.359Y-65.16
X125.359Y-67.7
X125.5Y-75.5
X125.5Y-78.04
X136.059Y-65.16
X136.059Y-67.7
X146.759Y-65.16
X146.759Y-67.7
X157.459Y-65.16
X157.459Y-67.7
T9
X115.0Y-112.0
X115.035Y-38.631
X185.5Y-112.5
T10
X113.328Y-30.353
X146.628Y-30.353
T11
X111.46Y-86.96
X111.46Y-89.5
X111.5Y-94.0
X111.5Y-96.54
X111.5Y-101.0
X111.5Y-103.54
T12
X157.707Y-21.613
T5
X153.207Y-24.363G85X153.207Y-22.863
G05
X157.057Y-24.613G85X158.357Y-24.613
G05
X156.707Y-30.613G85X158.707Y-30.613
G05
X162.207Y-24.363G85X162.207Y-22.863
G05
M30
