%TF.GenerationSoftware,KiCad,Pcbnew,10.0.3*%
%TF.CreationDate,2026-09-08T22:32:03-07:00*%
%TF.ProjectId,fluidics-v3,666c7569-6469-4637-932d-76332e6b6963,rev?*%
%TF.SameCoordinates,Original*%
%TF.FileFunction,Copper,L2,Inr*%
%TF.FilePolarity,Positive*%
%FSLAX46Y46*%
G04 Gerber Fmt 4.6, Leading zero omitted, Abs format (unit mm)*
G04 Created by KiCad (PCBNEW 10.0.3) date 2026-09-08 22:32:03*
%MOMM*%
%LPD*%
G01*
G04 APERTURE LIST*
G04 Aperture macros list*
%AMRoundRect*
0 Rectangle with rounded corners*
0 $1 Rounding radius*
0 $2 $3 $4 $5 $6 $7 $8 $9 X,Y pos of 4 corners*
0 Add a 4 corners polygon primitive as box body*
4,1,4,$2,$3,$4,$5,$6,$7,$8,$9,$2,$3,0*
0 Add four circle primitives for the rounded corners*
1,1,$1+$1,$2,$3*
1,1,$1+$1,$4,$5*
1,1,$1+$1,$6,$7*
1,1,$1+$1,$8,$9*
0 Add four rect primitives between the rounded corners*
20,1,$1+$1,$2,$3,$4,$5,0*
20,1,$1+$1,$4,$5,$6,$7,0*
20,1,$1+$1,$6,$7,$8,$9,0*
20,1,$1+$1,$8,$9,$2,$3,0*%
G04 Aperture macros list end*
%ADD10C,0.300000*%
%TA.AperFunction,NonConductor*%
%ADD11C,0.300000*%
%TD*%
%TA.AperFunction,ComponentPad*%
%ADD12R,1.650000X1.650000*%
%TD*%
%TA.AperFunction,ComponentPad*%
%ADD13C,1.650000*%
%TD*%
%TA.AperFunction,ComponentPad*%
%ADD14C,0.800000*%
%TD*%
%TA.AperFunction,ComponentPad*%
%ADD15C,6.400000*%
%TD*%
%TA.AperFunction,ComponentPad*%
%ADD16O,4.500000X2.250000*%
%TD*%
%TA.AperFunction,ComponentPad*%
%ADD17O,4.000000X2.000000*%
%TD*%
%TA.AperFunction,ComponentPad*%
%ADD18O,2.000000X4.000000*%
%TD*%
%TA.AperFunction,ComponentPad*%
%ADD19C,1.400000*%
%TD*%
%TA.AperFunction,ComponentPad*%
%ADD20R,1.905000X2.000000*%
%TD*%
%TA.AperFunction,ComponentPad*%
%ADD21O,1.905000X2.000000*%
%TD*%
%TA.AperFunction,ComponentPad*%
%ADD22RoundRect,0.250000X-0.750000X0.750000X-0.750000X-0.750000X0.750000X-0.750000X0.750000X0.750000X0*%
%TD*%
%TA.AperFunction,ComponentPad*%
%ADD23C,2.000000*%
%TD*%
%TA.AperFunction,ComponentPad*%
%ADD24RoundRect,0.250000X0.750000X-0.750000X0.750000X0.750000X-0.750000X0.750000X-0.750000X-0.750000X0*%
%TD*%
%TA.AperFunction,ComponentPad*%
%ADD25R,1.500000X1.500000*%
%TD*%
%TA.AperFunction,ComponentPad*%
%ADD26C,1.500000*%
%TD*%
%TA.AperFunction,ComponentPad*%
%ADD27C,4.575000*%
%TD*%
%TA.AperFunction,ComponentPad*%
%ADD28RoundRect,0.250001X0.499999X-0.499999X0.499999X0.499999X-0.499999X0.499999X-0.499999X-0.499999X0*%
%TD*%
%TA.AperFunction,ViaPad*%
%ADD29C,0.800000*%
%TD*%
%TA.AperFunction,ViaPad*%
%ADD30C,0.600000*%
%TD*%
%TA.AperFunction,ViaPad*%
%ADD31C,0.450000*%
%TD*%
G04 APERTURE END LIST*
D10*
D11*
X232961505Y-25223828D02*
X232104362Y-25223828D01*
X232532933Y-25223828D02*
X232532933Y-23723828D01*
X232532933Y-23723828D02*
X232390076Y-23938114D01*
X232390076Y-23938114D02*
X232247219Y-24080971D01*
X232247219Y-24080971D02*
X232104362Y-24152400D01*
D12*
%TO.N,GND*%
%TO.C,J22*%
X152500000Y-60460000D03*
D13*
%TO.N,+24V*%
X152500000Y-63000000D03*
%TD*%
D12*
%TO.N,GND*%
%TO.C,J24*%
X161500000Y-60460000D03*
D13*
%TO.N,+24V*%
X161500000Y-63000000D03*
%TD*%
D14*
%TO.N,GND*%
%TO.C,H2*%
X114000000Y-41031000D03*
X112302944Y-40328056D03*
X115697056Y-40328056D03*
X111600000Y-38631000D03*
D15*
X114000000Y-38631000D03*
D14*
X116400000Y-38631000D03*
X112302944Y-36933944D03*
X115697056Y-36933944D03*
X114000000Y-36231000D03*
%TD*%
D16*
%TO.N,+24V*%
%TO.C,J1*%
X157707280Y-30613000D03*
D17*
%TO.N,/GND1*%
X157707280Y-24613000D03*
D18*
X153207280Y-23613000D03*
X162207280Y-23613000D03*
%TD*%
D12*
%TO.N,GND*%
%TO.C,J11*%
X114875000Y-60460000D03*
D13*
%TO.N,+24V*%
X114875000Y-63000000D03*
%TD*%
D14*
%TO.N,GND*%
%TO.C,H4*%
X111600000Y-112000000D03*
X112302944Y-110302944D03*
X112302944Y-113697056D03*
X114000000Y-109600000D03*
D15*
X114000000Y-112000000D03*
D14*
X114000000Y-114400000D03*
X115697056Y-110302944D03*
X115697056Y-113697056D03*
X116400000Y-112000000D03*
%TD*%
D19*
%TO.N,/Selector Valves/SDA 5V*%
%TO.C,TP2*%
X114460000Y-45000000D03*
%TO.N,/Selector Valves/SCL 5V*%
X117000000Y-45000000D03*
%TD*%
D12*
%TO.N,GND*%
%TO.C,J19*%
X143000000Y-60460000D03*
D13*
%TO.N,+24V*%
X143000000Y-63000000D03*
%TD*%
D20*
%TO.N,Net-(Q1-G)*%
%TO.C,Q1*%
X159000000Y-37000000D03*
D21*
%TO.N,GND*%
X156460000Y-37000000D03*
%TO.N,/GND1*%
X153920000Y-37000000D03*
%TD*%
D19*
%TO.N,/SCL*%
%TO.C,TP1*%
X132503280Y-39800000D03*
%TO.N,/SDA*%
X132503280Y-42340000D03*
%TD*%
D22*
%TO.N,Net-(J5-Pin_1)*%
%TO.C,J5*%
X116000000Y-89960000D03*
D23*
%TO.N,+24V*%
X116000000Y-92500000D03*
%TO.N,Net-(J5-Pin_3)*%
X116000000Y-95040000D03*
%TO.N,+24V*%
X116000000Y-97580000D03*
%TO.N,Net-(J5-Pin_5)*%
X116000000Y-100120000D03*
%TO.N,+24V*%
X116000000Y-102660000D03*
%TD*%
D24*
%TO.N,+24V*%
%TO.C,C12*%
X127500000Y-74000000D03*
D23*
%TO.N,GND*%
X127500000Y-69000000D03*
%TD*%
D25*
%TO.N,GND*%
%TO.C,TP3*%
X131000000Y-36500000D03*
%TD*%
D26*
%TO.N,+24V*%
%TO.C,J3*%
X139673280Y-31773000D03*
%TO.N,/Syringe Pump/232_TX*%
X136903280Y-31773000D03*
%TO.N,/Syringe Pump/232_RX*%
X134133280Y-31773000D03*
%TO.N,unconnected-(J3-Pad4)*%
X131363280Y-31773000D03*
%TO.N,unconnected-(J3-Pad5)*%
X128593280Y-31773000D03*
%TO.N,unconnected-(J3-Pad6)*%
X125823280Y-31773000D03*
%TO.N,unconnected-(J3-Pad7)*%
X123053280Y-31773000D03*
%TO.N,unconnected-(J3-Pad8)*%
X120283280Y-31773000D03*
%TO.N,GND*%
X138288280Y-28933000D03*
X135518280Y-28933000D03*
%TO.N,unconnected-(J3-Pad11)*%
X132748280Y-28933000D03*
%TO.N,unconnected-(J3-Pad12)*%
X129978280Y-28933000D03*
%TO.N,unconnected-(J3-Pad13)*%
X127208280Y-28933000D03*
%TO.N,unconnected-(J3-Pad14)*%
X124438280Y-28933000D03*
%TO.N,unconnected-(J3-Pad15)*%
X121668280Y-28933000D03*
D27*
%TO.N,GND*%
X113328280Y-30353000D03*
X146628280Y-30353000D03*
%TD*%
D12*
%TO.N,GND*%
%TO.C,J16*%
X133375000Y-60460000D03*
D13*
%TO.N,+24V*%
X133375000Y-63000000D03*
%TD*%
D28*
%TO.N,+24V*%
%TO.C,U4*%
X156437280Y-71905000D03*
D26*
%TO.N,GND*%
X158977280Y-71905000D03*
%TO.N,+5V*%
X161517280Y-71905000D03*
%TD*%
D12*
%TO.N,GND*%
%TO.C,J13*%
X123875000Y-60460000D03*
D13*
%TO.N,+24V*%
X123875000Y-63000000D03*
%TD*%
D14*
%TO.N,GND*%
%TO.C,H3*%
X186297056Y-112000000D03*
X187000000Y-110302944D03*
X187000000Y-113697056D03*
X188697056Y-109600000D03*
D15*
X188697056Y-112000000D03*
D14*
X188697056Y-114400000D03*
X190394112Y-110302944D03*
X190394112Y-113697056D03*
X191097056Y-112000000D03*
%TD*%
D29*
%TO.N,/Selector Valves/SDA 5V*%
X119000000Y-40000000D03*
%TO.N,/Selector Valves/SCL 5V*%
X121000000Y-40000000D03*
%TO.N,GND*%
X148525780Y-76408769D03*
X157500000Y-52500000D03*
X136461280Y-81103000D03*
X134000000Y-71500000D03*
X119500000Y-52500000D03*
X154076666Y-96925500D03*
X181461280Y-98603000D03*
X144412280Y-101007500D03*
X164194280Y-100099000D03*
X159144280Y-100973500D03*
X138500000Y-52500000D03*
X126961280Y-105103000D03*
X148000000Y-52500000D03*
X129000000Y-52500000D03*
X145860065Y-41027499D03*
X149050030Y-99845000D03*
X142768280Y-82881000D03*
X155762280Y-101007500D03*
X127011279Y-93553000D03*
X145007280Y-86129000D03*
X165581280Y-107211000D03*
D30*
X184700000Y-101425000D03*
D29*
X139411281Y-93553000D03*
D30*
X165000000Y-28600000D03*
D29*
X170494280Y-105951000D03*
X170494280Y-100973500D03*
D31*
X155670999Y-32477000D03*
D29*
X139411281Y-105153002D03*
X158738565Y-105653812D03*
%TO.N,+3.3V*%
X131000000Y-47000000D03*
X148500000Y-64000000D03*
X165500000Y-101000000D03*
X145515280Y-78763000D03*
X149466300Y-95613000D03*
X163500000Y-106500000D03*
X145966300Y-105583000D03*
X151611280Y-82319000D03*
X165000000Y-95603000D03*
X139000000Y-44500000D03*
X149458800Y-84284000D03*
X150849280Y-99337000D03*
X164005000Y-95603000D03*
X155000000Y-90000000D03*
%TO.N,/SDA*%
X177500000Y-68500000D03*
X177500000Y-44000000D03*
X166000000Y-45000000D03*
%TO.N,/SCL*%
X166000000Y-42000000D03*
X176500000Y-67500000D03*
X176500000Y-42000000D03*
%TO.N,+5V*%
X125449280Y-47521000D03*
X178102000Y-32280000D03*
X130000000Y-83975000D03*
X151357280Y-71905000D03*
X131461280Y-103103000D03*
X124000000Y-38000000D03*
X134961280Y-95603000D03*
X121000000Y-44000000D03*
X137961280Y-83103000D03*
%TO.N,+24V*%
X175461280Y-104103000D03*
X159961280Y-32603000D03*
D30*
X157700000Y-40800000D03*
D29*
X185961280Y-98103000D03*
X114000000Y-73525000D03*
%TO.N,/SDA1*%
X150961280Y-93603000D03*
X175000000Y-58500000D03*
X152461280Y-95603000D03*
X164119933Y-78979500D03*
%TO.N,/GPIO_6*%
X190830000Y-66602000D03*
X182961280Y-93103000D03*
%TO.N,/SCL2*%
X153448627Y-107115653D03*
X164461280Y-111603000D03*
%TO.N,/SDA2*%
X145461280Y-108103000D03*
X150461280Y-106103000D03*
X162461280Y-110603000D03*
%TO.N,/GPIO_5*%
X182961280Y-91603000D03*
X189830000Y-64602000D03*
%TO.N,/GPIO_7*%
X182961280Y-94603000D03*
X191830000Y-69102000D03*
%TO.N,Net-(J5-Pin_5)*%
X188500000Y-96000000D03*
%TO.N,Net-(J5-Pin_3)*%
X189500000Y-94500000D03*
X123500000Y-108000000D03*
%TO.N,Net-(J5-Pin_1)*%
X120500000Y-108500000D03*
%TO.N,/Syringe Pump/232_TX*%
X143991280Y-34821000D03*
%TO.N,/~{INVALID}_SYRPUMP*%
X151000000Y-34000000D03*
X166000000Y-37000000D03*
%TO.N,/SCL1*%
X163041280Y-78979500D03*
X175725000Y-59500000D03*
%TD*%
%TA.AperFunction,Conductor*%
%TO.N,GND*%
G36*
X152581150Y-21021772D02*
G01*
X152630595Y-21078834D01*
X152641340Y-21153570D01*
X152609974Y-21222251D01*
X152569538Y-21253895D01*
X152420847Y-21329656D01*
X152229775Y-21468477D01*
X152229765Y-21468486D01*
X152062766Y-21635485D01*
X152062757Y-21635495D01*
X151923937Y-21826564D01*
X151816711Y-22037009D01*
X151792801Y-22110597D01*
X151743727Y-22261632D01*
X151743726Y-22261635D01*
X151743725Y-22261640D01*
X151706780Y-22494904D01*
X151706780Y-24731095D01*
X151743725Y-24964359D01*
X151743726Y-24964362D01*
X151743727Y-24964368D01*
X151796657Y-25127271D01*
X151816711Y-25188990D01*
X151923937Y-25399435D01*
X152062757Y-25590504D01*
X152062766Y-25590514D01*
X152229765Y-25757513D01*
X152229775Y-25757522D01*
X152420844Y-25896342D01*
X152527997Y-25950938D01*
X152631288Y-26003568D01*
X152855912Y-26076553D01*
X153089186Y-26113499D01*
X153089187Y-26113500D01*
X153089188Y-26113500D01*
X153325373Y-26113500D01*
X153325373Y-26113499D01*
X153558648Y-26076553D01*
X153783272Y-26003568D01*
X153993713Y-25896343D01*
X153993712Y-25896343D01*
X153993715Y-25896342D01*
X154184784Y-25757522D01*
X154184794Y-25757513D01*
X154351793Y-25590514D01*
X154351802Y-25590504D01*
X154490622Y-25399435D01*
X154492589Y-25395573D01*
X154597848Y-25188992D01*
X154670833Y-24964368D01*
X154707780Y-24731092D01*
X154707780Y-24494904D01*
X155206780Y-24494904D01*
X155206780Y-24731095D01*
X155243725Y-24964359D01*
X155243726Y-24964362D01*
X155243727Y-24964368D01*
X155296657Y-25127271D01*
X155316711Y-25188990D01*
X155423937Y-25399435D01*
X155562757Y-25590504D01*
X155562766Y-25590514D01*
X155729765Y-25757513D01*
X155729775Y-25757522D01*
X155920844Y-25896342D01*
X156027997Y-25950938D01*
X156131288Y-26003568D01*
X156355912Y-26076553D01*
X156589186Y-26113499D01*
X156589187Y-26113500D01*
X156589188Y-26113500D01*
X158825373Y-26113500D01*
X158825373Y-26113499D01*
X159058648Y-26076553D01*
X159283272Y-26003568D01*
X159493713Y-25896343D01*
X159493712Y-25896343D01*
X159493715Y-25896342D01*
X159684784Y-25757522D01*
X159684794Y-25757513D01*
X159851793Y-25590514D01*
X159851802Y-25590504D01*
X159990622Y-25399435D01*
X159992589Y-25395573D01*
X160097848Y-25188992D01*
X160170833Y-24964368D01*
X160207780Y-24731092D01*
X160207780Y-24494908D01*
X160170833Y-24261632D01*
X160097848Y-24037008D01*
X160045218Y-23933717D01*
X159990622Y-23826564D01*
X159851802Y-23635495D01*
X159851793Y-23635485D01*
X159684794Y-23468486D01*
X159684784Y-23468477D01*
X159493715Y-23329657D01*
X159283270Y-23222431D01*
X159221551Y-23202377D01*
X159058648Y-23149447D01*
X159058642Y-23149446D01*
X159058639Y-23149445D01*
X158825375Y-23112500D01*
X158825372Y-23112500D01*
X156589188Y-23112500D01*
X156589184Y-23112500D01*
X156355920Y-23149445D01*
X156355915Y-23149446D01*
X156355912Y-23149447D01*
X156250277Y-23183769D01*
X156131289Y-23222431D01*
X155920844Y-23329657D01*
X155729775Y-23468477D01*
X155729765Y-23468486D01*
X155562766Y-23635485D01*
X155562757Y-23635495D01*
X155423937Y-23826564D01*
X155316711Y-24037009D01*
X155278049Y-24155997D01*
X155243727Y-24261632D01*
X155243726Y-24261635D01*
X155243725Y-24261640D01*
X155206780Y-24494904D01*
X154707780Y-24494904D01*
X154707780Y-22494908D01*
X154670833Y-22261632D01*
X154597848Y-22037008D01*
X154537934Y-21919420D01*
X154490622Y-21826564D01*
X154351802Y-21635495D01*
X154351793Y-21635485D01*
X154184794Y-21468486D01*
X154184784Y-21468477D01*
X153993712Y-21329656D01*
X153845022Y-21253895D01*
X153790129Y-21202052D01*
X153771979Y-21128762D01*
X153796334Y-21057293D01*
X153855461Y-21010337D01*
X153905856Y-21000500D01*
X156623387Y-21000500D01*
X156695833Y-21021772D01*
X156745278Y-21078834D01*
X156756023Y-21153570D01*
X156747187Y-21185779D01*
X156697151Y-21306577D01*
X156697148Y-21306585D01*
X156656780Y-21509531D01*
X156656780Y-21716468D01*
X156697148Y-21919414D01*
X156697149Y-21919419D01*
X156776338Y-22110597D01*
X156891299Y-22282651D01*
X157037628Y-22428980D01*
X157209682Y-22543941D01*
X157400860Y-22623130D01*
X157400865Y-22623131D01*
X157603812Y-22663500D01*
X157603815Y-22663500D01*
X157810748Y-22663500D01*
X157964006Y-22633014D01*
X158013700Y-22623130D01*
X158204878Y-22543941D01*
X158376935Y-22428977D01*
X158523257Y-22282655D01*
X158638221Y-22110598D01*
X158717410Y-21919420D01*
X158727294Y-21869726D01*
X158757780Y-21716468D01*
X158757780Y-21509531D01*
X158717411Y-21306585D01*
X158717410Y-21306584D01*
X158717410Y-21306580D01*
X158674113Y-21202052D01*
X158667373Y-21185779D01*
X158659302Y-21110708D01*
X158693099Y-21043190D01*
X158758034Y-21004662D01*
X158791173Y-21000500D01*
X161508704Y-21000500D01*
X161581150Y-21021772D01*
X161630595Y-21078834D01*
X161641340Y-21153570D01*
X161609974Y-21222251D01*
X161569538Y-21253895D01*
X161420847Y-21329656D01*
X161229775Y-21468477D01*
X161229765Y-21468486D01*
X161062766Y-21635485D01*
X161062757Y-21635495D01*
X160923937Y-21826564D01*
X160816711Y-22037009D01*
X160792801Y-22110597D01*
X160743727Y-22261632D01*
X160743726Y-22261635D01*
X160743725Y-22261640D01*
X160706780Y-22494904D01*
X160706780Y-24731095D01*
X160743725Y-24964359D01*
X160743726Y-24964362D01*
X160743727Y-24964368D01*
X160796657Y-25127271D01*
X160816711Y-25188990D01*
X160923937Y-25399435D01*
X161062757Y-25590504D01*
X161062766Y-25590514D01*
X161229765Y-25757513D01*
X161229775Y-25757522D01*
X161420844Y-25896342D01*
X161527997Y-25950938D01*
X161631288Y-26003568D01*
X161855912Y-26076553D01*
X162089186Y-26113499D01*
X162089187Y-26113500D01*
X162089188Y-26113500D01*
X162325373Y-26113500D01*
X162325373Y-26113499D01*
X162558648Y-26076553D01*
X162783272Y-26003568D01*
X162993713Y-25896343D01*
X162993712Y-25896343D01*
X162993715Y-25896342D01*
X163184784Y-25757522D01*
X163184794Y-25757513D01*
X163351793Y-25590514D01*
X163351802Y-25590504D01*
X163490622Y-25399435D01*
X163492589Y-25395573D01*
X163597848Y-25188992D01*
X163670833Y-24964368D01*
X163707780Y-24731092D01*
X163707780Y-22494908D01*
X163670833Y-22261632D01*
X163597848Y-22037008D01*
X163537934Y-21919420D01*
X163490622Y-21826564D01*
X163351802Y-21635495D01*
X163351793Y-21635485D01*
X163184794Y-21468486D01*
X163184784Y-21468477D01*
X162993712Y-21329656D01*
X162845022Y-21253895D01*
X162790129Y-21202052D01*
X162771979Y-21128762D01*
X162796334Y-21057293D01*
X162855461Y-21010337D01*
X162905856Y-21000500D01*
X194365500Y-21000500D01*
X194437946Y-21021772D01*
X194487391Y-21078834D01*
X194499500Y-21134500D01*
X194499500Y-116365500D01*
X194478228Y-116437946D01*
X194421166Y-116487391D01*
X194365500Y-116499500D01*
X109634500Y-116499500D01*
X109562054Y-116478228D01*
X109512609Y-116421166D01*
X109500500Y-116365500D01*
X109500500Y-111514309D01*
X163560780Y-111514309D01*
X163560780Y-111691690D01*
X163595384Y-111865660D01*
X163595386Y-111865666D01*
X163663267Y-112029547D01*
X163761816Y-112177035D01*
X163761818Y-112177037D01*
X163761821Y-112177041D01*
X163887238Y-112302458D01*
X163887241Y-112302460D01*
X163887245Y-112302464D01*
X164034733Y-112401013D01*
X164198614Y-112468894D01*
X164372589Y-112503500D01*
X164372590Y-112503500D01*
X164549970Y-112503500D01*
X164549971Y-112503500D01*
X164723946Y-112468894D01*
X164887827Y-112401013D01*
X165035315Y-112302464D01*
X165160744Y-112177035D01*
X165259293Y-112029547D01*
X165327174Y-111865666D01*
X165361780Y-111691691D01*
X165361780Y-111514309D01*
X165327174Y-111340334D01*
X165259293Y-111176453D01*
X165160744Y-111028965D01*
X165160740Y-111028961D01*
X165160738Y-111028958D01*
X165035321Y-110903541D01*
X165035317Y-110903538D01*
X165035315Y-110903536D01*
X164887827Y-110804987D01*
X164887824Y-110804985D01*
X164887823Y-110804985D01*
X164723946Y-110737106D01*
X164723940Y-110737104D01*
X164584388Y-110709346D01*
X164549971Y-110702500D01*
X164372589Y-110702500D01*
X164343856Y-110708215D01*
X164198619Y-110737104D01*
X164198613Y-110737106D01*
X164034736Y-110804985D01*
X163887238Y-110903541D01*
X163761821Y-111028958D01*
X163663265Y-111176456D01*
X163595386Y-111340333D01*
X163595384Y-111340339D01*
X163560780Y-111514309D01*
X109500500Y-111514309D01*
X109500500Y-110514309D01*
X161560780Y-110514309D01*
X161560780Y-110691690D01*
X161595384Y-110865660D01*
X161595386Y-110865666D01*
X161663267Y-111029547D01*
X161761816Y-111177035D01*
X161761818Y-111177037D01*
X161761821Y-111177041D01*
X161887238Y-111302458D01*
X161887241Y-111302460D01*
X161887245Y-111302464D01*
X162034733Y-111401013D01*
X162198614Y-111468894D01*
X162372589Y-111503500D01*
X162372590Y-111503500D01*
X162549970Y-111503500D01*
X162549971Y-111503500D01*
X162723946Y-111468894D01*
X162887827Y-111401013D01*
X163035315Y-111302464D01*
X163160744Y-111177035D01*
X163259293Y-111029547D01*
X163327174Y-110865666D01*
X163361780Y-110691691D01*
X163361780Y-110514309D01*
X163327174Y-110340334D01*
X163259293Y-110176453D01*
X163160744Y-110028965D01*
X163160740Y-110028961D01*
X163160738Y-110028958D01*
X163035321Y-109903541D01*
X163035317Y-109903538D01*
X163035315Y-109903536D01*
X162887827Y-109804987D01*
X162887824Y-109804985D01*
X162887823Y-109804985D01*
X162723946Y-109737106D01*
X162723940Y-109737104D01*
X162584388Y-109709346D01*
X162549971Y-109702500D01*
X162372589Y-109702500D01*
X162343856Y-109708215D01*
X162198619Y-109737104D01*
X162198613Y-109737106D01*
X162034736Y-109804985D01*
X161887238Y-109903541D01*
X161761821Y-110028958D01*
X161663265Y-110176456D01*
X161595386Y-110340333D01*
X161595384Y-110340339D01*
X161560780Y-110514309D01*
X109500500Y-110514309D01*
X109500500Y-108411309D01*
X119599500Y-108411309D01*
X119599500Y-108588690D01*
X119634104Y-108762660D01*
X119634106Y-108762666D01*
X119691410Y-108901013D01*
X119701987Y-108926547D01*
X119800536Y-109074035D01*
X119800538Y-109074037D01*
X119800541Y-109074041D01*
X119925958Y-109199458D01*
X119925961Y-109199460D01*
X119925965Y-109199464D01*
X120073453Y-109298013D01*
X120237334Y-109365894D01*
X120411309Y-109400500D01*
X120411310Y-109400500D01*
X120588690Y-109400500D01*
X120588691Y-109400500D01*
X120762666Y-109365894D01*
X120926547Y-109298013D01*
X121074035Y-109199464D01*
X121199464Y-109074035D01*
X121298013Y-108926547D01*
X121365894Y-108762666D01*
X121400500Y-108588691D01*
X121400500Y-108411309D01*
X121365894Y-108237334D01*
X121298013Y-108073453D01*
X121199464Y-107925965D01*
X121199459Y-107925959D01*
X121184809Y-107911309D01*
X122599500Y-107911309D01*
X122599500Y-108088690D01*
X122634104Y-108262660D01*
X122634106Y-108262666D01*
X122676769Y-108365666D01*
X122701987Y-108426547D01*
X122800536Y-108574035D01*
X122800538Y-108574037D01*
X122800541Y-108574041D01*
X122925958Y-108699458D01*
X122925961Y-108699460D01*
X122925965Y-108699464D01*
X123073453Y-108798013D01*
X123237334Y-108865894D01*
X123411309Y-108900500D01*
X123411310Y-108900500D01*
X123588690Y-108900500D01*
X123588691Y-108900500D01*
X123762666Y-108865894D01*
X123926547Y-108798013D01*
X124074035Y-108699464D01*
X124199464Y-108574035D01*
X124298013Y-108426547D01*
X124365894Y-108262666D01*
X124400500Y-108088691D01*
X124400500Y-108014309D01*
X144560780Y-108014309D01*
X144560780Y-108191690D01*
X144595384Y-108365660D01*
X144595386Y-108365666D01*
X144663267Y-108529547D01*
X144761816Y-108677035D01*
X144761818Y-108677037D01*
X144761821Y-108677041D01*
X144887238Y-108802458D01*
X144887241Y-108802460D01*
X144887245Y-108802464D01*
X145034733Y-108901013D01*
X145198614Y-108968894D01*
X145372589Y-109003500D01*
X145372590Y-109003500D01*
X145549970Y-109003500D01*
X145549971Y-109003500D01*
X145723946Y-108968894D01*
X145887827Y-108901013D01*
X146035315Y-108802464D01*
X146160744Y-108677035D01*
X146259293Y-108529547D01*
X146327174Y-108365666D01*
X146361780Y-108191691D01*
X146361780Y-108014309D01*
X146327174Y-107840334D01*
X146259293Y-107676453D01*
X146160744Y-107528965D01*
X146160740Y-107528961D01*
X146160738Y-107528958D01*
X146035321Y-107403541D01*
X146035317Y-107403538D01*
X146035315Y-107403536D01*
X145887827Y-107304987D01*
X145887824Y-107304985D01*
X145887823Y-107304985D01*
X145723946Y-107237106D01*
X145723940Y-107237104D01*
X145559236Y-107204343D01*
X145549971Y-107202500D01*
X145372589Y-107202500D01*
X145363324Y-107204343D01*
X145198619Y-107237104D01*
X145198613Y-107237106D01*
X145034736Y-107304985D01*
X145034733Y-107304986D01*
X145034733Y-107304987D01*
X144943579Y-107365895D01*
X144887238Y-107403541D01*
X144761821Y-107528958D01*
X144761816Y-107528964D01*
X144761816Y-107528965D01*
X144752973Y-107542200D01*
X144663265Y-107676456D01*
X144595386Y-107840333D01*
X144595384Y-107840339D01*
X144560780Y-108014309D01*
X124400500Y-108014309D01*
X124400500Y-107911309D01*
X124365894Y-107737334D01*
X124298013Y-107573453D01*
X124199464Y-107425965D01*
X124199460Y-107425961D01*
X124199458Y-107425958D01*
X124074041Y-107300541D01*
X124074037Y-107300538D01*
X124074035Y-107300536D01*
X123926547Y-107201987D01*
X123926544Y-107201985D01*
X123926543Y-107201985D01*
X123762666Y-107134106D01*
X123762660Y-107134104D01*
X123623108Y-107106346D01*
X123588691Y-107099500D01*
X123411309Y-107099500D01*
X123382576Y-107105215D01*
X123237339Y-107134104D01*
X123237333Y-107134106D01*
X123073456Y-107201985D01*
X123073453Y-107201986D01*
X123073453Y-107201987D01*
X122929740Y-107298014D01*
X122925958Y-107300541D01*
X122800541Y-107425958D01*
X122701985Y-107573456D01*
X122634106Y-107737333D01*
X122634104Y-107737339D01*
X122599500Y-107911309D01*
X121184809Y-107911309D01*
X121074041Y-107800541D01*
X121074037Y-107800538D01*
X121074035Y-107800536D01*
X120926547Y-107701987D01*
X120926544Y-107701985D01*
X120926543Y-107701985D01*
X120762666Y-107634106D01*
X120762660Y-107634104D01*
X120623108Y-107606346D01*
X120588691Y-107599500D01*
X120411309Y-107599500D01*
X120382576Y-107605215D01*
X120237339Y-107634104D01*
X120237333Y-107634106D01*
X120073456Y-107701985D01*
X120073453Y-107701986D01*
X120073453Y-107701987D01*
X120020546Y-107737339D01*
X119925958Y-107800541D01*
X119800541Y-107925958D01*
X119800536Y-107925964D01*
X119800536Y-107925965D01*
X119741506Y-108014309D01*
X119701985Y-108073456D01*
X119634106Y-108237333D01*
X119634104Y-108237339D01*
X119599500Y-108411309D01*
X109500500Y-108411309D01*
X109500500Y-107026962D01*
X152548127Y-107026962D01*
X152548127Y-107204343D01*
X152582731Y-107378313D01*
X152582733Y-107378319D01*
X152602465Y-107425958D01*
X152650614Y-107542200D01*
X152749163Y-107689688D01*
X152749165Y-107689690D01*
X152749168Y-107689694D01*
X152874585Y-107815111D01*
X152874588Y-107815113D01*
X152874592Y-107815117D01*
X153022080Y-107913666D01*
X153185961Y-107981547D01*
X153359936Y-108016153D01*
X153359937Y-108016153D01*
X153537317Y-108016153D01*
X153537318Y-108016153D01*
X153711293Y-107981547D01*
X153875174Y-107913666D01*
X154022662Y-107815117D01*
X154148091Y-107689688D01*
X154246640Y-107542200D01*
X154314521Y-107378319D01*
X154349127Y-107204344D01*
X154349127Y-107026962D01*
X154314521Y-106852987D01*
X154246640Y-106689106D01*
X154148091Y-106541618D01*
X154148087Y-106541614D01*
X154148085Y-106541611D01*
X154022668Y-106416194D01*
X154022664Y-106416191D01*
X154022662Y-106416189D01*
X154015359Y-106411309D01*
X162599500Y-106411309D01*
X162599500Y-106588690D01*
X162634104Y-106762660D01*
X162634106Y-106762666D01*
X162691410Y-106901013D01*
X162701987Y-106926547D01*
X162800536Y-107074035D01*
X162800538Y-107074037D01*
X162800541Y-107074041D01*
X162925958Y-107199458D01*
X162925961Y-107199460D01*
X162925965Y-107199464D01*
X163073453Y-107298013D01*
X163237334Y-107365894D01*
X163411309Y-107400500D01*
X163411310Y-107400500D01*
X163588690Y-107400500D01*
X163588691Y-107400500D01*
X163762666Y-107365894D01*
X163926547Y-107298013D01*
X164074035Y-107199464D01*
X164199464Y-107074035D01*
X164298013Y-106926547D01*
X164365894Y-106762666D01*
X164400500Y-106588691D01*
X164400500Y-106411309D01*
X164365894Y-106237334D01*
X164298013Y-106073453D01*
X164199464Y-105925965D01*
X164199460Y-105925961D01*
X164199458Y-105925958D01*
X164074041Y-105800541D01*
X164074037Y-105800538D01*
X164074035Y-105800536D01*
X163926547Y-105701987D01*
X163926544Y-105701985D01*
X163926543Y-105701985D01*
X163762666Y-105634106D01*
X163762660Y-105634104D01*
X163623108Y-105606346D01*
X163588691Y-105599500D01*
X163411309Y-105599500D01*
X163382576Y-105605215D01*
X163237339Y-105634104D01*
X163237333Y-105634106D01*
X163073456Y-105701985D01*
X162925958Y-105800541D01*
X162800541Y-105925958D01*
X162701985Y-106073456D01*
X162634106Y-106237333D01*
X162634104Y-106237339D01*
X162599500Y-106411309D01*
X154015359Y-106411309D01*
X153875174Y-106317640D01*
X153875171Y-106317638D01*
X153875170Y-106317638D01*
X153711293Y-106249759D01*
X153711287Y-106249757D01*
X153571735Y-106221999D01*
X153537318Y-106215153D01*
X153359936Y-106215153D01*
X153331203Y-106220868D01*
X153185966Y-106249757D01*
X153185960Y-106249759D01*
X153022083Y-106317638D01*
X153022080Y-106317639D01*
X153022080Y-106317640D01*
X152881896Y-106411309D01*
X152874585Y-106416194D01*
X152749168Y-106541611D01*
X152749163Y-106541617D01*
X152749163Y-106541618D01*
X152717710Y-106588691D01*
X152650612Y-106689109D01*
X152582733Y-106852986D01*
X152582731Y-106852992D01*
X152548127Y-107026962D01*
X109500500Y-107026962D01*
X109500500Y-105494309D01*
X145065800Y-105494309D01*
X145065800Y-105671690D01*
X145100404Y-105845660D01*
X145100406Y-105845666D01*
X145133666Y-105925965D01*
X145168287Y-106009547D01*
X145266836Y-106157035D01*
X145266838Y-106157037D01*
X145266841Y-106157041D01*
X145392258Y-106282458D01*
X145392261Y-106282460D01*
X145392265Y-106282464D01*
X145539753Y-106381013D01*
X145703634Y-106448894D01*
X145877609Y-106483500D01*
X145877610Y-106483500D01*
X146054990Y-106483500D01*
X146054991Y-106483500D01*
X146228966Y-106448894D01*
X146392847Y-106381013D01*
X146540335Y-106282464D01*
X146665764Y-106157035D01*
X146761131Y-106014309D01*
X149560780Y-106014309D01*
X149560780Y-106191690D01*
X149595384Y-106365660D01*
X149595386Y-106365666D01*
X149663267Y-106529547D01*
X149761816Y-106677035D01*
X149761818Y-106677037D01*
X149761821Y-106677041D01*
X149887238Y-106802458D01*
X149887241Y-106802460D01*
X149887245Y-106802464D01*
X150034733Y-106901013D01*
X150198614Y-106968894D01*
X150372589Y-107003500D01*
X150372590Y-107003500D01*
X150549970Y-107003500D01*
X150549971Y-107003500D01*
X150723946Y-106968894D01*
X150887827Y-106901013D01*
X151035315Y-106802464D01*
X151160744Y-106677035D01*
X151259293Y-106529547D01*
X151327174Y-106365666D01*
X151361780Y-106191691D01*
X151361780Y-106014309D01*
X151327174Y-105840334D01*
X151259293Y-105676453D01*
X151160744Y-105528965D01*
X151160740Y-105528961D01*
X151160738Y-105528958D01*
X151035321Y-105403541D01*
X151035317Y-105403538D01*
X151035315Y-105403536D01*
X150887827Y-105304987D01*
X150887824Y-105304985D01*
X150887823Y-105304985D01*
X150723946Y-105237106D01*
X150723940Y-105237104D01*
X150584388Y-105209346D01*
X150549971Y-105202500D01*
X150372589Y-105202500D01*
X150343856Y-105208215D01*
X150198619Y-105237104D01*
X150198613Y-105237106D01*
X150034736Y-105304985D01*
X149887238Y-105403541D01*
X149761821Y-105528958D01*
X149663265Y-105676456D01*
X149595386Y-105840333D01*
X149595384Y-105840339D01*
X149560780Y-106014309D01*
X146761131Y-106014309D01*
X146764313Y-106009547D01*
X146832194Y-105845666D01*
X146866800Y-105671691D01*
X146866800Y-105494309D01*
X146832194Y-105320334D01*
X146764313Y-105156453D01*
X146665764Y-105008965D01*
X146665760Y-105008961D01*
X146665758Y-105008958D01*
X146540341Y-104883541D01*
X146540337Y-104883538D01*
X146540335Y-104883536D01*
X146392847Y-104784987D01*
X146392844Y-104784985D01*
X146392843Y-104784985D01*
X146228966Y-104717106D01*
X146228960Y-104717104D01*
X146089408Y-104689346D01*
X146054991Y-104682500D01*
X145877609Y-104682500D01*
X145848876Y-104688215D01*
X145703639Y-104717104D01*
X145703633Y-104717106D01*
X145539756Y-104784985D01*
X145392258Y-104883541D01*
X145266841Y-105008958D01*
X145168285Y-105156456D01*
X145100406Y-105320333D01*
X145100404Y-105320339D01*
X145065800Y-105494309D01*
X109500500Y-105494309D01*
X109500500Y-89159997D01*
X114499500Y-89159997D01*
X114499500Y-90759999D01*
X114499502Y-90760024D01*
X114510000Y-90862794D01*
X114510001Y-90862800D01*
X114565183Y-91029330D01*
X114565184Y-91029331D01*
X114657285Y-91178652D01*
X114657288Y-91178656D01*
X114781343Y-91302711D01*
X114781347Y-91302714D01*
X114819784Y-91326422D01*
X114870277Y-91382559D01*
X114882405Y-91457083D01*
X114857846Y-91519235D01*
X114716657Y-91713564D01*
X114609431Y-91924009D01*
X114575141Y-92029543D01*
X114536447Y-92148632D01*
X114536446Y-92148635D01*
X114536445Y-92148640D01*
X114499500Y-92381904D01*
X114499500Y-92618095D01*
X114536445Y-92851359D01*
X114536446Y-92851362D01*
X114536447Y-92851368D01*
X114589377Y-93014271D01*
X114609431Y-93075990D01*
X114716657Y-93286435D01*
X114855477Y-93477504D01*
X114855486Y-93477514D01*
X115022487Y-93644515D01*
X115045992Y-93661593D01*
X115092098Y-93721385D01*
X115098559Y-93796613D01*
X115063323Y-93863391D01*
X115045992Y-93878407D01*
X115022487Y-93895484D01*
X114855486Y-94062485D01*
X114855477Y-94062495D01*
X114716657Y-94253564D01*
X114609431Y-94464009D01*
X114596600Y-94503500D01*
X114536447Y-94688632D01*
X114536446Y-94688635D01*
X114536445Y-94688640D01*
X114499500Y-94921904D01*
X114499500Y-95158095D01*
X114536445Y-95391359D01*
X114536446Y-95391362D01*
X114536447Y-95391368D01*
X114572881Y-95503500D01*
X114609431Y-95615990D01*
X114716657Y-95826435D01*
X114855477Y-96017504D01*
X114855486Y-96017514D01*
X115022487Y-96184515D01*
X115045992Y-96201593D01*
X115092098Y-96261385D01*
X115098559Y-96336613D01*
X115063323Y-96403391D01*
X115045992Y-96418407D01*
X115022487Y-96435484D01*
X114855486Y-96602485D01*
X114855477Y-96602495D01*
X114716657Y-96793564D01*
X114609431Y-97004009D01*
X114570769Y-97122997D01*
X114536447Y-97228632D01*
X114536446Y-97228635D01*
X114536445Y-97228640D01*
X114499500Y-97461904D01*
X114499500Y-97698095D01*
X114536445Y-97931359D01*
X114536446Y-97931362D01*
X114536447Y-97931368D01*
X114589377Y-98094271D01*
X114609431Y-98155990D01*
X114716657Y-98366435D01*
X114855477Y-98557504D01*
X114855486Y-98557514D01*
X115022487Y-98724515D01*
X115045992Y-98741593D01*
X115092098Y-98801385D01*
X115098559Y-98876613D01*
X115063323Y-98943391D01*
X115045992Y-98958407D01*
X115022487Y-98975484D01*
X114855486Y-99142485D01*
X114855477Y-99142495D01*
X114716657Y-99333564D01*
X114609431Y-99544009D01*
X114570769Y-99662997D01*
X114536447Y-99768632D01*
X114536446Y-99768635D01*
X114536445Y-99768640D01*
X114499500Y-100001904D01*
X114499500Y-100238095D01*
X114536445Y-100471359D01*
X114536446Y-100471362D01*
X114536447Y-100471368D01*
X114569617Y-100573453D01*
X114609431Y-100695990D01*
X114716657Y-100906435D01*
X114855477Y-101097504D01*
X114855486Y-101097514D01*
X115022487Y-101264515D01*
X115045992Y-101281593D01*
X115092098Y-101341385D01*
X115098559Y-101416613D01*
X115063323Y-101483391D01*
X115045992Y-101498407D01*
X115022487Y-101515484D01*
X114855486Y-101682485D01*
X114855477Y-101682495D01*
X114716657Y-101873564D01*
X114609431Y-102084009D01*
X114570931Y-102202500D01*
X114536447Y-102308632D01*
X114536446Y-102308635D01*
X114536445Y-102308640D01*
X114499500Y-102541904D01*
X114499500Y-102778095D01*
X114536445Y-103011359D01*
X114536446Y-103011362D01*
X114536447Y-103011368D01*
X114537403Y-103014309D01*
X114609431Y-103235990D01*
X114716657Y-103446435D01*
X114855477Y-103637504D01*
X114855486Y-103637514D01*
X115022485Y-103804513D01*
X115022495Y-103804522D01*
X115213564Y-103943342D01*
X115320717Y-103997938D01*
X115424008Y-104050568D01*
X115648632Y-104123553D01*
X115881906Y-104160499D01*
X115881907Y-104160500D01*
X115881908Y-104160500D01*
X116118093Y-104160500D01*
X116118093Y-104160499D01*
X116351368Y-104123553D01*
X116575992Y-104050568D01*
X116647154Y-104014309D01*
X174560780Y-104014309D01*
X174560780Y-104191690D01*
X174595384Y-104365660D01*
X174595386Y-104365666D01*
X174663267Y-104529547D01*
X174761816Y-104677035D01*
X174761818Y-104677037D01*
X174761821Y-104677041D01*
X174887238Y-104802458D01*
X174887241Y-104802460D01*
X174887245Y-104802464D01*
X175034733Y-104901013D01*
X175198614Y-104968894D01*
X175372589Y-105003500D01*
X175372590Y-105003500D01*
X175549970Y-105003500D01*
X175549971Y-105003500D01*
X175723946Y-104968894D01*
X175887827Y-104901013D01*
X176035315Y-104802464D01*
X176160744Y-104677035D01*
X176259293Y-104529547D01*
X176327174Y-104365666D01*
X176361780Y-104191691D01*
X176361780Y-104014309D01*
X176327174Y-103840334D01*
X176259293Y-103676453D01*
X176160744Y-103528965D01*
X176160740Y-103528961D01*
X176160738Y-103528958D01*
X176035321Y-103403541D01*
X176035317Y-103403538D01*
X176035315Y-103403536D01*
X175887827Y-103304987D01*
X175887824Y-103304985D01*
X175887823Y-103304985D01*
X175723946Y-103237106D01*
X175723940Y-103237104D01*
X175584388Y-103209346D01*
X175549971Y-103202500D01*
X175372589Y-103202500D01*
X175343856Y-103208215D01*
X175198619Y-103237104D01*
X175198613Y-103237106D01*
X175034736Y-103304985D01*
X174887238Y-103403541D01*
X174761821Y-103528958D01*
X174663265Y-103676456D01*
X174595386Y-103840333D01*
X174595384Y-103840339D01*
X174560780Y-104014309D01*
X116647154Y-104014309D01*
X116786433Y-103943343D01*
X116786432Y-103943343D01*
X116786435Y-103943342D01*
X116977504Y-103804522D01*
X116977514Y-103804513D01*
X117144513Y-103637514D01*
X117144522Y-103637504D01*
X117283342Y-103446435D01*
X117285309Y-103442573D01*
X117390568Y-103235992D01*
X117462597Y-103014309D01*
X130560780Y-103014309D01*
X130560780Y-103191690D01*
X130595384Y-103365660D01*
X130595386Y-103365666D01*
X130663267Y-103529547D01*
X130761816Y-103677035D01*
X130761818Y-103677037D01*
X130761821Y-103677041D01*
X130887238Y-103802458D01*
X130887241Y-103802460D01*
X130887245Y-103802464D01*
X131034733Y-103901013D01*
X131198614Y-103968894D01*
X131372589Y-104003500D01*
X131372590Y-104003500D01*
X131549970Y-104003500D01*
X131549971Y-104003500D01*
X131723946Y-103968894D01*
X131887827Y-103901013D01*
X132035315Y-103802464D01*
X132160744Y-103677035D01*
X132259293Y-103529547D01*
X132327174Y-103365666D01*
X132361780Y-103191691D01*
X132361780Y-103014309D01*
X132327174Y-102840334D01*
X132259293Y-102676453D01*
X132160744Y-102528965D01*
X132160740Y-102528961D01*
X132160738Y-102528958D01*
X132035321Y-102403541D01*
X132035317Y-102403538D01*
X132035315Y-102403536D01*
X131887827Y-102304987D01*
X131887824Y-102304985D01*
X131887823Y-102304985D01*
X131723946Y-102237106D01*
X131723940Y-102237104D01*
X131584388Y-102209346D01*
X131549971Y-102202500D01*
X131372589Y-102202500D01*
X131343856Y-102208215D01*
X131198619Y-102237104D01*
X131198613Y-102237106D01*
X131034736Y-102304985D01*
X130887238Y-102403541D01*
X130761821Y-102528958D01*
X130761816Y-102528964D01*
X130761816Y-102528965D01*
X130753169Y-102541906D01*
X130663265Y-102676456D01*
X130595386Y-102840333D01*
X130595384Y-102840339D01*
X130560780Y-103014309D01*
X117462597Y-103014309D01*
X117463553Y-103011368D01*
X117500500Y-102778092D01*
X117500500Y-102541908D01*
X117463553Y-102308632D01*
X117390568Y-102084008D01*
X117297066Y-101900500D01*
X117283342Y-101873564D01*
X117144522Y-101682495D01*
X117144513Y-101682485D01*
X116977514Y-101515486D01*
X116977507Y-101515480D01*
X116954010Y-101498409D01*
X116907903Y-101438618D01*
X116901441Y-101363391D01*
X116936675Y-101296612D01*
X116954010Y-101281591D01*
X116977507Y-101264519D01*
X116977510Y-101264517D01*
X117144517Y-101097510D01*
X117144518Y-101097507D01*
X117144522Y-101097504D01*
X117279801Y-100911309D01*
X164599500Y-100911309D01*
X164599500Y-101088690D01*
X164634104Y-101262660D01*
X164634106Y-101262666D01*
X164701987Y-101426547D01*
X164800536Y-101574035D01*
X164800538Y-101574037D01*
X164800541Y-101574041D01*
X164925958Y-101699458D01*
X164925961Y-101699460D01*
X164925965Y-101699464D01*
X165073453Y-101798013D01*
X165237334Y-101865894D01*
X165411309Y-101900500D01*
X165411310Y-101900500D01*
X165588690Y-101900500D01*
X165588691Y-101900500D01*
X165762666Y-101865894D01*
X165926547Y-101798013D01*
X166074035Y-101699464D01*
X166199464Y-101574035D01*
X166298013Y-101426547D01*
X166365894Y-101262666D01*
X166400500Y-101088691D01*
X166400500Y-100911309D01*
X166365894Y-100737334D01*
X166298013Y-100573453D01*
X166199464Y-100425965D01*
X166199460Y-100425961D01*
X166199458Y-100425958D01*
X166074041Y-100300541D01*
X166074037Y-100300538D01*
X166074035Y-100300536D01*
X165926547Y-100201987D01*
X165926544Y-100201985D01*
X165926543Y-100201985D01*
X165762666Y-100134106D01*
X165762660Y-100134104D01*
X165623108Y-100106346D01*
X165588691Y-100099500D01*
X165411309Y-100099500D01*
X165382576Y-100105215D01*
X165237339Y-100134104D01*
X165237333Y-100134106D01*
X165073456Y-100201985D01*
X165073453Y-100201986D01*
X165073453Y-100201987D01*
X165019419Y-100238092D01*
X164925958Y-100300541D01*
X164800541Y-100425958D01*
X164800536Y-100425964D01*
X164800536Y-100425965D01*
X164701987Y-100573453D01*
X164701985Y-100573456D01*
X164634106Y-100737333D01*
X164634104Y-100737339D01*
X164599500Y-100911309D01*
X117279801Y-100911309D01*
X117283342Y-100906435D01*
X117315210Y-100843891D01*
X117315211Y-100843889D01*
X117330459Y-100813960D01*
X117390568Y-100695992D01*
X117463553Y-100471368D01*
X117500500Y-100238092D01*
X117500500Y-100001908D01*
X117463553Y-99768632D01*
X117390568Y-99544008D01*
X117330282Y-99425690D01*
X117283342Y-99333564D01*
X117273842Y-99320489D01*
X117221400Y-99248309D01*
X149948780Y-99248309D01*
X149948780Y-99425690D01*
X149983384Y-99599660D01*
X149983386Y-99599666D01*
X150051267Y-99763547D01*
X150149816Y-99911035D01*
X150149818Y-99911037D01*
X150149821Y-99911041D01*
X150275238Y-100036458D01*
X150275241Y-100036460D01*
X150275245Y-100036464D01*
X150422733Y-100135013D01*
X150586614Y-100202894D01*
X150760589Y-100237500D01*
X150760590Y-100237500D01*
X150937970Y-100237500D01*
X150937971Y-100237500D01*
X151111946Y-100202894D01*
X151275827Y-100135013D01*
X151423315Y-100036464D01*
X151548744Y-99911035D01*
X151647293Y-99763547D01*
X151715174Y-99599666D01*
X151749780Y-99425691D01*
X151749780Y-99248309D01*
X151715174Y-99074334D01*
X151647293Y-98910453D01*
X151548744Y-98762965D01*
X151548740Y-98762961D01*
X151548738Y-98762958D01*
X151423321Y-98637541D01*
X151423317Y-98637538D01*
X151423315Y-98637536D01*
X151275827Y-98538987D01*
X151275824Y-98538985D01*
X151275823Y-98538985D01*
X151111946Y-98471106D01*
X151111940Y-98471104D01*
X150972388Y-98443346D01*
X150937971Y-98436500D01*
X150760589Y-98436500D01*
X150731856Y-98442215D01*
X150586619Y-98471104D01*
X150586613Y-98471106D01*
X150422736Y-98538985D01*
X150275238Y-98637541D01*
X150149821Y-98762958D01*
X150149816Y-98762964D01*
X150149816Y-98762965D01*
X150091661Y-98850000D01*
X150051265Y-98910456D01*
X149983386Y-99074333D01*
X149983384Y-99074339D01*
X149948780Y-99248309D01*
X117221400Y-99248309D01*
X117144522Y-99142495D01*
X117144513Y-99142485D01*
X116977514Y-98975486D01*
X116977507Y-98975480D01*
X116954010Y-98958409D01*
X116907903Y-98898618D01*
X116901441Y-98823391D01*
X116936675Y-98756612D01*
X116954010Y-98741591D01*
X116977507Y-98724519D01*
X116977510Y-98724517D01*
X117144517Y-98557510D01*
X117144518Y-98557507D01*
X117144522Y-98557504D01*
X117283342Y-98366435D01*
X117372378Y-98191691D01*
X117390568Y-98155992D01*
X117436604Y-98014309D01*
X185060780Y-98014309D01*
X185060780Y-98191690D01*
X185095384Y-98365660D01*
X185095386Y-98365666D01*
X185163267Y-98529547D01*
X185261816Y-98677035D01*
X185261818Y-98677037D01*
X185261821Y-98677041D01*
X185387238Y-98802458D01*
X185387241Y-98802460D01*
X185387245Y-98802464D01*
X185534733Y-98901013D01*
X185698614Y-98968894D01*
X185872589Y-99003500D01*
X185872590Y-99003500D01*
X186049970Y-99003500D01*
X186049971Y-99003500D01*
X186223946Y-98968894D01*
X186387827Y-98901013D01*
X186535315Y-98802464D01*
X186660744Y-98677035D01*
X186759293Y-98529547D01*
X186827174Y-98365666D01*
X186861780Y-98191691D01*
X186861780Y-98014309D01*
X186827174Y-97840334D01*
X186759293Y-97676453D01*
X186660744Y-97528965D01*
X186660740Y-97528961D01*
X186660738Y-97528958D01*
X186535321Y-97403541D01*
X186535317Y-97403538D01*
X186535315Y-97403536D01*
X186387827Y-97304987D01*
X186387824Y-97304985D01*
X186387823Y-97304985D01*
X186223946Y-97237106D01*
X186223940Y-97237104D01*
X186084388Y-97209346D01*
X186049971Y-97202500D01*
X185872589Y-97202500D01*
X185843856Y-97208215D01*
X185698619Y-97237104D01*
X185698613Y-97237106D01*
X185534736Y-97304985D01*
X185387238Y-97403541D01*
X185261821Y-97528958D01*
X185163265Y-97676456D01*
X185095386Y-97840333D01*
X185095384Y-97840339D01*
X185060780Y-98014309D01*
X117436604Y-98014309D01*
X117463553Y-97931368D01*
X117500500Y-97698092D01*
X117500500Y-97461908D01*
X117463553Y-97228632D01*
X117390568Y-97004008D01*
X117320196Y-96865895D01*
X117283342Y-96793564D01*
X117144522Y-96602495D01*
X117144513Y-96602485D01*
X116977514Y-96435486D01*
X116977507Y-96435480D01*
X116954010Y-96418409D01*
X116907903Y-96358618D01*
X116901441Y-96283391D01*
X116936675Y-96216612D01*
X116954010Y-96201591D01*
X116977507Y-96184519D01*
X116977510Y-96184517D01*
X117144517Y-96017510D01*
X117144518Y-96017507D01*
X117144522Y-96017504D01*
X117283342Y-95826435D01*
X117285309Y-95822573D01*
X117390568Y-95615992D01*
X117423607Y-95514309D01*
X134060780Y-95514309D01*
X134060780Y-95691690D01*
X134095384Y-95865660D01*
X134095386Y-95865666D01*
X134158278Y-96017504D01*
X134163267Y-96029547D01*
X134261816Y-96177035D01*
X134261818Y-96177037D01*
X134261821Y-96177041D01*
X134387238Y-96302458D01*
X134387241Y-96302460D01*
X134387245Y-96302464D01*
X134534733Y-96401013D01*
X134698614Y-96468894D01*
X134872589Y-96503500D01*
X134872590Y-96503500D01*
X135049970Y-96503500D01*
X135049971Y-96503500D01*
X135223946Y-96468894D01*
X135387827Y-96401013D01*
X135535315Y-96302464D01*
X135660744Y-96177035D01*
X135759293Y-96029547D01*
X135827174Y-95865666D01*
X135861780Y-95691691D01*
X135861780Y-95524309D01*
X148565800Y-95524309D01*
X148565800Y-95701690D01*
X148600404Y-95875660D01*
X148600406Y-95875666D01*
X148659160Y-96017514D01*
X148668287Y-96039547D01*
X148766836Y-96187035D01*
X148766838Y-96187037D01*
X148766841Y-96187041D01*
X148892258Y-96312458D01*
X148892261Y-96312460D01*
X148892265Y-96312464D01*
X149039753Y-96411013D01*
X149203634Y-96478894D01*
X149377609Y-96513500D01*
X149377610Y-96513500D01*
X149554990Y-96513500D01*
X149554991Y-96513500D01*
X149728966Y-96478894D01*
X149892847Y-96411013D01*
X150040335Y-96312464D01*
X150165764Y-96187035D01*
X150264313Y-96039547D01*
X150332194Y-95875666D01*
X150366800Y-95701691D01*
X150366800Y-95524309D01*
X150364811Y-95514309D01*
X151560780Y-95514309D01*
X151560780Y-95691690D01*
X151595384Y-95865660D01*
X151595386Y-95865666D01*
X151658278Y-96017504D01*
X151663267Y-96029547D01*
X151761816Y-96177035D01*
X151761818Y-96177037D01*
X151761821Y-96177041D01*
X151887238Y-96302458D01*
X151887241Y-96302460D01*
X151887245Y-96302464D01*
X152034733Y-96401013D01*
X152198614Y-96468894D01*
X152372589Y-96503500D01*
X152372590Y-96503500D01*
X152549970Y-96503500D01*
X152549971Y-96503500D01*
X152723946Y-96468894D01*
X152887827Y-96401013D01*
X153035315Y-96302464D01*
X153160744Y-96177035D01*
X153259293Y-96029547D01*
X153327174Y-95865666D01*
X153361780Y-95691691D01*
X153361780Y-95514309D01*
X163104500Y-95514309D01*
X163104500Y-95691690D01*
X163139104Y-95865660D01*
X163139106Y-95865666D01*
X163201998Y-96017504D01*
X163206987Y-96029547D01*
X163305536Y-96177035D01*
X163305538Y-96177037D01*
X163305541Y-96177041D01*
X163430958Y-96302458D01*
X163430961Y-96302460D01*
X163430965Y-96302464D01*
X163578453Y-96401013D01*
X163742334Y-96468894D01*
X163916309Y-96503500D01*
X163916310Y-96503500D01*
X164093690Y-96503500D01*
X164093691Y-96503500D01*
X164267666Y-96468894D01*
X164431547Y-96401013D01*
X164431550Y-96401010D01*
X164437351Y-96397911D01*
X164438511Y-96400081D01*
X164500061Y-96380785D01*
X164567000Y-96399123D01*
X164567649Y-96397911D01*
X164573451Y-96401012D01*
X164573452Y-96401012D01*
X164573453Y-96401013D01*
X164737334Y-96468894D01*
X164911309Y-96503500D01*
X164911310Y-96503500D01*
X165088690Y-96503500D01*
X165088691Y-96503500D01*
X165262666Y-96468894D01*
X165426547Y-96401013D01*
X165574035Y-96302464D01*
X165699464Y-96177035D01*
X165798013Y-96029547D01*
X165846988Y-95911309D01*
X187599500Y-95911309D01*
X187599500Y-96088690D01*
X187634104Y-96262660D01*
X187634106Y-96262666D01*
X187695552Y-96411013D01*
X187701987Y-96426547D01*
X187800536Y-96574035D01*
X187800538Y-96574037D01*
X187800541Y-96574041D01*
X187925958Y-96699458D01*
X187925961Y-96699460D01*
X187925965Y-96699464D01*
X188073453Y-96798013D01*
X188237334Y-96865894D01*
X188411309Y-96900500D01*
X188411310Y-96900500D01*
X188588690Y-96900500D01*
X188588691Y-96900500D01*
X188762666Y-96865894D01*
X188926547Y-96798013D01*
X189074035Y-96699464D01*
X189199464Y-96574035D01*
X189298013Y-96426547D01*
X189365894Y-96262666D01*
X189400500Y-96088691D01*
X189400500Y-95911309D01*
X189365894Y-95737334D01*
X189303119Y-95585779D01*
X189295048Y-95510707D01*
X189328846Y-95443189D01*
X189393781Y-95404662D01*
X189426919Y-95400500D01*
X189588690Y-95400500D01*
X189588691Y-95400500D01*
X189762666Y-95365894D01*
X189926547Y-95298013D01*
X190074035Y-95199464D01*
X190199464Y-95074035D01*
X190298013Y-94926547D01*
X190365894Y-94762666D01*
X190400500Y-94588691D01*
X190400500Y-94411309D01*
X190365894Y-94237334D01*
X190298013Y-94073453D01*
X190199464Y-93925965D01*
X190199460Y-93925961D01*
X190199458Y-93925958D01*
X190074041Y-93800541D01*
X190074037Y-93800538D01*
X190074035Y-93800536D01*
X189926547Y-93701987D01*
X189926544Y-93701985D01*
X189926543Y-93701985D01*
X189762666Y-93634106D01*
X189762660Y-93634104D01*
X189623108Y-93606346D01*
X189588691Y-93599500D01*
X189411309Y-93599500D01*
X189382576Y-93605215D01*
X189237339Y-93634104D01*
X189237333Y-93634106D01*
X189073456Y-93701985D01*
X189073453Y-93701986D01*
X189073453Y-93701987D01*
X188931837Y-93796613D01*
X188925958Y-93800541D01*
X188800541Y-93925958D01*
X188800536Y-93925964D01*
X188800536Y-93925965D01*
X188785978Y-93947753D01*
X188701985Y-94073456D01*
X188634106Y-94237333D01*
X188634104Y-94237339D01*
X188599500Y-94411309D01*
X188599500Y-94588690D01*
X188634104Y-94762660D01*
X188634106Y-94762666D01*
X188696881Y-94914221D01*
X188704952Y-94989293D01*
X188671154Y-95056811D01*
X188606219Y-95095338D01*
X188573081Y-95099500D01*
X188411309Y-95099500D01*
X188382576Y-95105215D01*
X188237339Y-95134104D01*
X188237333Y-95134106D01*
X188073456Y-95201985D01*
X188073453Y-95201986D01*
X188073453Y-95201987D01*
X187929740Y-95298014D01*
X187925958Y-95300541D01*
X187800541Y-95425958D01*
X187800536Y-95425964D01*
X187800536Y-95425965D01*
X187743913Y-95510707D01*
X187701985Y-95573456D01*
X187634106Y-95737333D01*
X187634104Y-95737339D01*
X187599500Y-95911309D01*
X165846988Y-95911309D01*
X165865894Y-95865666D01*
X165900500Y-95691691D01*
X165900500Y-95514309D01*
X165865894Y-95340334D01*
X165798013Y-95176453D01*
X165699464Y-95028965D01*
X165699460Y-95028961D01*
X165699458Y-95028958D01*
X165574041Y-94903541D01*
X165574037Y-94903538D01*
X165574035Y-94903536D01*
X165426547Y-94804987D01*
X165426544Y-94804985D01*
X165426543Y-94804985D01*
X165262666Y-94737106D01*
X165262660Y-94737104D01*
X165123108Y-94709346D01*
X165088691Y-94702500D01*
X164911309Y-94702500D01*
X164882576Y-94708215D01*
X164737339Y-94737104D01*
X164737333Y-94737106D01*
X164573451Y-94804987D01*
X164567649Y-94808089D01*
X164566496Y-94805933D01*
X164504845Y-94825214D01*
X164438010Y-94806854D01*
X164437351Y-94808089D01*
X164431548Y-94804987D01*
X164267666Y-94737106D01*
X164267660Y-94737104D01*
X164128108Y-94709346D01*
X164093691Y-94702500D01*
X163916309Y-94702500D01*
X163887576Y-94708215D01*
X163742339Y-94737104D01*
X163742333Y-94737106D01*
X163578456Y-94804985D01*
X163430958Y-94903541D01*
X163305541Y-95028958D01*
X163206985Y-95176456D01*
X163139106Y-95340333D01*
X163139104Y-95340339D01*
X163104500Y-95514309D01*
X153361780Y-95514309D01*
X153327174Y-95340334D01*
X153259293Y-95176453D01*
X153160744Y-95028965D01*
X153160740Y-95028961D01*
X153160738Y-95028958D01*
X153035321Y-94903541D01*
X153035317Y-94903538D01*
X153035315Y-94903536D01*
X152887827Y-94804987D01*
X152887824Y-94804985D01*
X152887823Y-94804985D01*
X152723946Y-94737106D01*
X152723940Y-94737104D01*
X152584388Y-94709346D01*
X152549971Y-94702500D01*
X152372589Y-94702500D01*
X152343856Y-94708215D01*
X152198619Y-94737104D01*
X152198613Y-94737106D01*
X152034736Y-94804985D01*
X151887238Y-94903541D01*
X151761821Y-95028958D01*
X151663265Y-95176456D01*
X151595386Y-95340333D01*
X151595384Y-95340339D01*
X151560780Y-95514309D01*
X150364811Y-95514309D01*
X150332194Y-95350334D01*
X150264313Y-95186453D01*
X150165764Y-95038965D01*
X150165760Y-95038961D01*
X150165758Y-95038958D01*
X150040341Y-94913541D01*
X150040337Y-94913538D01*
X150040335Y-94913536D01*
X149892847Y-94814987D01*
X149892844Y-94814985D01*
X149892843Y-94814985D01*
X149728966Y-94747106D01*
X149728960Y-94747104D01*
X149589408Y-94719346D01*
X149554991Y-94712500D01*
X149377609Y-94712500D01*
X149348876Y-94718215D01*
X149203639Y-94747104D01*
X149203633Y-94747106D01*
X149039756Y-94814985D01*
X149039753Y-94814986D01*
X149039753Y-94814987D01*
X148907224Y-94903541D01*
X148892258Y-94913541D01*
X148766841Y-95038958D01*
X148766836Y-95038964D01*
X148766836Y-95038965D01*
X148687237Y-95158092D01*
X148668285Y-95186456D01*
X148600406Y-95350333D01*
X148600404Y-95350339D01*
X148565800Y-95524309D01*
X135861780Y-95524309D01*
X135861780Y-95514309D01*
X135827174Y-95340334D01*
X135759293Y-95176453D01*
X135660744Y-95028965D01*
X135660740Y-95028961D01*
X135660738Y-95028958D01*
X135535321Y-94903541D01*
X135535317Y-94903538D01*
X135535315Y-94903536D01*
X135387827Y-94804987D01*
X135387824Y-94804985D01*
X135387823Y-94804985D01*
X135223946Y-94737106D01*
X135223940Y-94737104D01*
X135084388Y-94709346D01*
X135049971Y-94702500D01*
X134872589Y-94702500D01*
X134843856Y-94708215D01*
X134698619Y-94737104D01*
X134698613Y-94737106D01*
X134534736Y-94804985D01*
X134387238Y-94903541D01*
X134261821Y-95028958D01*
X134163265Y-95176456D01*
X134095386Y-95340333D01*
X134095384Y-95340339D01*
X134060780Y-95514309D01*
X117423607Y-95514309D01*
X117463553Y-95391368D01*
X117500500Y-95158092D01*
X117500500Y-94921908D01*
X117463553Y-94688632D01*
X117390568Y-94464008D01*
X117327553Y-94340334D01*
X117283342Y-94253564D01*
X117144522Y-94062495D01*
X117144513Y-94062485D01*
X116977514Y-93895486D01*
X116977507Y-93895480D01*
X116954010Y-93878409D01*
X116907903Y-93818618D01*
X116901441Y-93743391D01*
X116936675Y-93676612D01*
X116954010Y-93661591D01*
X116977507Y-93644519D01*
X116977510Y-93644517D01*
X117107718Y-93514309D01*
X150060780Y-93514309D01*
X150060780Y-93691690D01*
X150095384Y-93865660D01*
X150095386Y-93865666D01*
X150163024Y-94028962D01*
X150163267Y-94029547D01*
X150261816Y-94177035D01*
X150261818Y-94177037D01*
X150261821Y-94177041D01*
X150387238Y-94302458D01*
X150387241Y-94302460D01*
X150387245Y-94302464D01*
X150534733Y-94401013D01*
X150698614Y-94468894D01*
X150872589Y-94503500D01*
X150872590Y-94503500D01*
X151049970Y-94503500D01*
X151049971Y-94503500D01*
X151223946Y-94468894D01*
X151387827Y-94401013D01*
X151535315Y-94302464D01*
X151660744Y-94177035D01*
X151759293Y-94029547D01*
X151827174Y-93865666D01*
X151861780Y-93691691D01*
X151861780Y-93514309D01*
X151827174Y-93340334D01*
X151759293Y-93176453D01*
X151660744Y-93028965D01*
X151660740Y-93028961D01*
X151660738Y-93028958D01*
X151535321Y-92903541D01*
X151535317Y-92903538D01*
X151535315Y-92903536D01*
X151387827Y-92804987D01*
X151387824Y-92804985D01*
X151387823Y-92804985D01*
X151223946Y-92737106D01*
X151223940Y-92737104D01*
X151084388Y-92709346D01*
X151049971Y-92702500D01*
X150872589Y-92702500D01*
X150843856Y-92708215D01*
X150698619Y-92737104D01*
X150698613Y-92737106D01*
X150534736Y-92804985D01*
X150534733Y-92804986D01*
X150534733Y-92804987D01*
X150465320Y-92851368D01*
X150387238Y-92903541D01*
X150261821Y-93028958D01*
X150261816Y-93028964D01*
X150261816Y-93028965D01*
X150163267Y-93176453D01*
X150163265Y-93176456D01*
X150095386Y-93340333D01*
X150095384Y-93340339D01*
X150060780Y-93514309D01*
X117107718Y-93514309D01*
X117144517Y-93477510D01*
X117162440Y-93452839D01*
X117179790Y-93428962D01*
X117179791Y-93428960D01*
X117283342Y-93286435D01*
X117339379Y-93176456D01*
X117390568Y-93075992D01*
X117463553Y-92851368D01*
X117500500Y-92618092D01*
X117500500Y-92381908D01*
X117463553Y-92148632D01*
X117390568Y-91924008D01*
X117337938Y-91820717D01*
X117283342Y-91713564D01*
X117191016Y-91586489D01*
X117142153Y-91519235D01*
X117140395Y-91514309D01*
X182060780Y-91514309D01*
X182060780Y-91691691D01*
X182067626Y-91726108D01*
X182095384Y-91865660D01*
X182095386Y-91865666D01*
X182163267Y-92029547D01*
X182261816Y-92177035D01*
X182261818Y-92177037D01*
X182261821Y-92177041D01*
X182343028Y-92258248D01*
X182379214Y-92324516D01*
X182373827Y-92399828D01*
X182343028Y-92447752D01*
X182261821Y-92528958D01*
X182163265Y-92676456D01*
X182095386Y-92840333D01*
X182095384Y-92840339D01*
X182060780Y-93014309D01*
X182060780Y-93191690D01*
X182095384Y-93365660D01*
X182095386Y-93365666D01*
X182163267Y-93529547D01*
X182261816Y-93677035D01*
X182261818Y-93677037D01*
X182261821Y-93677041D01*
X182343028Y-93758248D01*
X182379214Y-93824516D01*
X182373827Y-93899828D01*
X182343028Y-93947752D01*
X182261821Y-94028958D01*
X182163265Y-94176456D01*
X182095386Y-94340333D01*
X182095384Y-94340339D01*
X182060780Y-94514309D01*
X182060780Y-94691690D01*
X182095384Y-94865660D01*
X182095386Y-94865666D01*
X182163267Y-95029547D01*
X182261816Y-95177035D01*
X182261818Y-95177037D01*
X182261821Y-95177041D01*
X182387238Y-95302458D01*
X182387241Y-95302460D01*
X182387245Y-95302464D01*
X182534733Y-95401013D01*
X182698614Y-95468894D01*
X182872589Y-95503500D01*
X182872590Y-95503500D01*
X183049970Y-95503500D01*
X183049971Y-95503500D01*
X183223946Y-95468894D01*
X183387827Y-95401013D01*
X183535315Y-95302464D01*
X183660744Y-95177035D01*
X183759293Y-95029547D01*
X183827174Y-94865666D01*
X183861780Y-94691691D01*
X183861780Y-94514309D01*
X183827174Y-94340334D01*
X183759293Y-94176453D01*
X183660744Y-94028965D01*
X183579529Y-93947750D01*
X183543345Y-93881485D01*
X183548731Y-93806173D01*
X183579529Y-93758249D01*
X183660744Y-93677035D01*
X183759293Y-93529547D01*
X183827174Y-93365666D01*
X183861780Y-93191691D01*
X183861780Y-93014309D01*
X183827174Y-92840334D01*
X183759293Y-92676453D01*
X183660744Y-92528965D01*
X183579529Y-92447750D01*
X183543345Y-92381485D01*
X183548731Y-92306173D01*
X183579529Y-92258249D01*
X183660744Y-92177035D01*
X183759293Y-92029547D01*
X183827174Y-91865666D01*
X183861780Y-91691691D01*
X183861780Y-91514309D01*
X183827174Y-91340334D01*
X183759293Y-91176453D01*
X183660744Y-91028965D01*
X183660740Y-91028961D01*
X183660738Y-91028958D01*
X183535321Y-90903541D01*
X183535317Y-90903538D01*
X183535315Y-90903536D01*
X183387827Y-90804987D01*
X183387824Y-90804985D01*
X183387823Y-90804985D01*
X183223946Y-90737106D01*
X183223940Y-90737104D01*
X183084388Y-90709346D01*
X183049971Y-90702500D01*
X182872589Y-90702500D01*
X182843856Y-90708215D01*
X182698619Y-90737104D01*
X182698613Y-90737106D01*
X182534736Y-90804985D01*
X182534733Y-90804986D01*
X182534733Y-90804987D01*
X182443579Y-90865895D01*
X182387238Y-90903541D01*
X182261821Y-91028958D01*
X182261816Y-91028964D01*
X182261816Y-91028965D01*
X182163267Y-91176453D01*
X182163265Y-91176456D01*
X182095386Y-91340333D01*
X182095384Y-91340339D01*
X182081950Y-91407879D01*
X182060780Y-91514309D01*
X117140395Y-91514309D01*
X117116780Y-91448122D01*
X117133881Y-91374580D01*
X117180214Y-91326423D01*
X117218656Y-91302712D01*
X117342712Y-91178656D01*
X117434814Y-91029334D01*
X117434815Y-91029331D01*
X117434816Y-91029330D01*
X117489998Y-90862801D01*
X117489999Y-90862795D01*
X117500498Y-90760024D01*
X117500500Y-90760009D01*
X117500499Y-89911309D01*
X154099500Y-89911309D01*
X154099500Y-90088690D01*
X154134104Y-90262660D01*
X154134106Y-90262666D01*
X154201987Y-90426547D01*
X154300536Y-90574035D01*
X154300538Y-90574037D01*
X154300541Y-90574041D01*
X154425958Y-90699458D01*
X154425961Y-90699460D01*
X154425965Y-90699464D01*
X154573453Y-90798013D01*
X154737334Y-90865894D01*
X154911309Y-90900500D01*
X154911310Y-90900500D01*
X155088690Y-90900500D01*
X155088691Y-90900500D01*
X155262666Y-90865894D01*
X155426547Y-90798013D01*
X155574035Y-90699464D01*
X155699464Y-90574035D01*
X155798013Y-90426547D01*
X155865894Y-90262666D01*
X155900500Y-90088691D01*
X155900500Y-89911309D01*
X155865894Y-89737334D01*
X155798013Y-89573453D01*
X155699464Y-89425965D01*
X155699460Y-89425961D01*
X155699458Y-89425958D01*
X155574041Y-89300541D01*
X155574037Y-89300538D01*
X155574035Y-89300536D01*
X155426547Y-89201987D01*
X155426544Y-89201985D01*
X155426543Y-89201985D01*
X155262666Y-89134106D01*
X155262660Y-89134104D01*
X155123108Y-89106346D01*
X155088691Y-89099500D01*
X154911309Y-89099500D01*
X154882576Y-89105215D01*
X154737339Y-89134104D01*
X154737333Y-89134106D01*
X154573456Y-89201985D01*
X154425958Y-89300541D01*
X154300541Y-89425958D01*
X154201985Y-89573456D01*
X154134106Y-89737333D01*
X154134104Y-89737339D01*
X154099500Y-89911309D01*
X117500499Y-89911309D01*
X117500499Y-89159992D01*
X117489999Y-89057203D01*
X117489998Y-89057199D01*
X117434816Y-88890669D01*
X117434815Y-88890668D01*
X117342714Y-88741347D01*
X117342711Y-88741343D01*
X117218656Y-88617288D01*
X117218652Y-88617285D01*
X117069331Y-88525184D01*
X117069330Y-88525183D01*
X116902801Y-88470001D01*
X116902795Y-88470000D01*
X116800023Y-88459501D01*
X116800015Y-88459500D01*
X116800009Y-88459500D01*
X116800002Y-88459500D01*
X115200000Y-88459500D01*
X115199975Y-88459502D01*
X115097205Y-88470000D01*
X115097199Y-88470001D01*
X114930669Y-88525183D01*
X114930668Y-88525184D01*
X114781347Y-88617285D01*
X114781343Y-88617288D01*
X114657288Y-88741343D01*
X114657285Y-88741347D01*
X114565184Y-88890668D01*
X114565183Y-88890669D01*
X114510001Y-89057198D01*
X114510000Y-89057204D01*
X114499501Y-89159976D01*
X114499500Y-89159997D01*
X109500500Y-89159997D01*
X109500500Y-83886309D01*
X129099500Y-83886309D01*
X129099500Y-84063690D01*
X129134104Y-84237660D01*
X129134106Y-84237666D01*
X129190034Y-84372691D01*
X129201987Y-84401547D01*
X129300536Y-84549035D01*
X129300538Y-84549037D01*
X129300541Y-84549041D01*
X129425958Y-84674458D01*
X129425961Y-84674460D01*
X129425965Y-84674464D01*
X129573453Y-84773013D01*
X129737334Y-84840894D01*
X129911309Y-84875500D01*
X129911310Y-84875500D01*
X130088690Y-84875500D01*
X130088691Y-84875500D01*
X130262666Y-84840894D01*
X130426547Y-84773013D01*
X130574035Y-84674464D01*
X130699464Y-84549035D01*
X130798013Y-84401547D01*
X130865894Y-84237666D01*
X130874319Y-84195309D01*
X148558300Y-84195309D01*
X148558300Y-84372690D01*
X148592904Y-84546660D01*
X148592906Y-84546666D01*
X148645838Y-84674458D01*
X148660787Y-84710547D01*
X148759336Y-84858035D01*
X148759338Y-84858037D01*
X148759341Y-84858041D01*
X148884758Y-84983458D01*
X148884761Y-84983460D01*
X148884765Y-84983464D01*
X149032253Y-85082013D01*
X149196134Y-85149894D01*
X149370109Y-85184500D01*
X149370110Y-85184500D01*
X149547490Y-85184500D01*
X149547491Y-85184500D01*
X149721466Y-85149894D01*
X149885347Y-85082013D01*
X150032835Y-84983464D01*
X150158264Y-84858035D01*
X150256813Y-84710547D01*
X150324694Y-84546666D01*
X150359300Y-84372691D01*
X150359300Y-84195309D01*
X150324694Y-84021334D01*
X150256813Y-83857453D01*
X150158264Y-83709965D01*
X150158260Y-83709961D01*
X150158258Y-83709958D01*
X150032841Y-83584541D01*
X150032837Y-83584538D01*
X150032835Y-83584536D01*
X149885347Y-83485987D01*
X149885344Y-83485985D01*
X149885343Y-83485985D01*
X149721466Y-83418106D01*
X149721460Y-83418104D01*
X149581908Y-83390346D01*
X149547491Y-83383500D01*
X149370109Y-83383500D01*
X149341376Y-83389215D01*
X149196139Y-83418104D01*
X149196133Y-83418106D01*
X149032256Y-83485985D01*
X149032253Y-83485986D01*
X149032253Y-83485987D01*
X148967062Y-83529547D01*
X148884758Y-83584541D01*
X148759341Y-83709958D01*
X148660785Y-83857456D01*
X148592906Y-84021333D01*
X148592904Y-84021339D01*
X148558300Y-84195309D01*
X130874319Y-84195309D01*
X130900500Y-84063691D01*
X130900500Y-83886309D01*
X130865894Y-83712334D01*
X130798013Y-83548453D01*
X130699464Y-83400965D01*
X130699460Y-83400961D01*
X130699458Y-83400958D01*
X130574041Y-83275541D01*
X130574037Y-83275538D01*
X130574035Y-83275536D01*
X130426547Y-83176987D01*
X130426544Y-83176985D01*
X130426543Y-83176985D01*
X130316793Y-83131526D01*
X130262666Y-83109106D01*
X130262660Y-83109104D01*
X130123108Y-83081346D01*
X130088691Y-83074500D01*
X129911309Y-83074500D01*
X129882576Y-83080215D01*
X129737339Y-83109104D01*
X129737333Y-83109106D01*
X129573456Y-83176985D01*
X129425958Y-83275541D01*
X129300541Y-83400958D01*
X129201985Y-83548456D01*
X129134106Y-83712333D01*
X129134104Y-83712339D01*
X129099500Y-83886309D01*
X109500500Y-83886309D01*
X109500500Y-83014309D01*
X137060780Y-83014309D01*
X137060780Y-83191690D01*
X137095384Y-83365660D01*
X137095386Y-83365666D01*
X137163267Y-83529547D01*
X137261816Y-83677035D01*
X137261818Y-83677037D01*
X137261821Y-83677041D01*
X137387238Y-83802458D01*
X137387241Y-83802460D01*
X137387245Y-83802464D01*
X137534733Y-83901013D01*
X137698614Y-83968894D01*
X137872589Y-84003500D01*
X137872590Y-84003500D01*
X138049970Y-84003500D01*
X138049971Y-84003500D01*
X138223946Y-83968894D01*
X138387827Y-83901013D01*
X138535315Y-83802464D01*
X138660744Y-83677035D01*
X138759293Y-83529547D01*
X138827174Y-83365666D01*
X138861780Y-83191691D01*
X138861780Y-83014309D01*
X138827174Y-82840334D01*
X138759293Y-82676453D01*
X138660744Y-82528965D01*
X138660740Y-82528961D01*
X138660738Y-82528958D01*
X138535321Y-82403541D01*
X138535317Y-82403538D01*
X138535315Y-82403536D01*
X138432955Y-82335141D01*
X138432955Y-82335140D01*
X138387827Y-82304987D01*
X138223946Y-82237106D01*
X138223940Y-82237104D01*
X138189778Y-82230309D01*
X150710780Y-82230309D01*
X150710780Y-82407690D01*
X150745384Y-82581660D01*
X150745386Y-82581666D01*
X150784647Y-82676453D01*
X150813267Y-82745547D01*
X150911816Y-82893035D01*
X150911818Y-82893037D01*
X150911821Y-82893041D01*
X151037238Y-83018458D01*
X151037241Y-83018460D01*
X151037245Y-83018464D01*
X151184733Y-83117013D01*
X151348614Y-83184894D01*
X151522589Y-83219500D01*
X151522590Y-83219500D01*
X151699970Y-83219500D01*
X151699971Y-83219500D01*
X151873946Y-83184894D01*
X152037827Y-83117013D01*
X152185315Y-83018464D01*
X152310744Y-82893035D01*
X152409293Y-82745547D01*
X152477174Y-82581666D01*
X152511780Y-82407691D01*
X152511780Y-82230309D01*
X152477174Y-82056334D01*
X152409293Y-81892453D01*
X152310744Y-81744965D01*
X152310740Y-81744961D01*
X152310738Y-81744958D01*
X152185321Y-81619541D01*
X152185317Y-81619538D01*
X152185315Y-81619536D01*
X152037827Y-81520987D01*
X152037824Y-81520985D01*
X152037823Y-81520985D01*
X151873946Y-81453106D01*
X151873940Y-81453104D01*
X151734388Y-81425346D01*
X151699971Y-81418500D01*
X151522589Y-81418500D01*
X151493856Y-81424215D01*
X151348619Y-81453104D01*
X151348613Y-81453106D01*
X151184736Y-81520985D01*
X151037238Y-81619541D01*
X150911821Y-81744958D01*
X150813265Y-81892456D01*
X150745386Y-82056333D01*
X150745384Y-82056339D01*
X150710780Y-82230309D01*
X138189778Y-82230309D01*
X138084388Y-82209346D01*
X138049971Y-82202500D01*
X137872589Y-82202500D01*
X137843856Y-82208215D01*
X137698619Y-82237104D01*
X137698613Y-82237106D01*
X137534736Y-82304985D01*
X137387238Y-82403541D01*
X137261821Y-82528958D01*
X137163265Y-82676456D01*
X137095386Y-82840333D01*
X137095384Y-82840339D01*
X137060780Y-83014309D01*
X109500500Y-83014309D01*
X109500500Y-78674309D01*
X144614780Y-78674309D01*
X144614780Y-78851690D01*
X144649384Y-79025660D01*
X144649386Y-79025666D01*
X144717267Y-79189547D01*
X144815816Y-79337035D01*
X144815818Y-79337037D01*
X144815821Y-79337041D01*
X144941238Y-79462458D01*
X144941241Y-79462460D01*
X144941245Y-79462464D01*
X145088733Y-79561013D01*
X145252614Y-79628894D01*
X145426589Y-79663500D01*
X145426590Y-79663500D01*
X145603970Y-79663500D01*
X145603971Y-79663500D01*
X145777946Y-79628894D01*
X145941827Y-79561013D01*
X146089315Y-79462464D01*
X146214744Y-79337035D01*
X146313293Y-79189547D01*
X146381174Y-79025666D01*
X146407999Y-78890809D01*
X162140780Y-78890809D01*
X162140780Y-79068190D01*
X162175384Y-79242160D01*
X162175386Y-79242166D01*
X162214681Y-79337035D01*
X162243267Y-79406047D01*
X162341816Y-79553535D01*
X162341818Y-79553537D01*
X162341821Y-79553541D01*
X162467238Y-79678958D01*
X162467241Y-79678960D01*
X162467245Y-79678964D01*
X162614733Y-79777513D01*
X162778614Y-79845394D01*
X162952589Y-79880000D01*
X162952590Y-79880000D01*
X163129970Y-79880000D01*
X163129971Y-79880000D01*
X163303946Y-79845394D01*
X163467827Y-79777513D01*
X163467830Y-79777510D01*
X163467832Y-79777510D01*
X163506157Y-79751901D01*
X163578211Y-79729337D01*
X163651026Y-79749311D01*
X163655036Y-79751888D01*
X163693386Y-79777513D01*
X163857267Y-79845394D01*
X164031242Y-79880000D01*
X164031243Y-79880000D01*
X164208623Y-79880000D01*
X164208624Y-79880000D01*
X164382599Y-79845394D01*
X164546480Y-79777513D01*
X164693968Y-79678964D01*
X164819397Y-79553535D01*
X164917946Y-79406047D01*
X164985827Y-79242166D01*
X165020433Y-79068191D01*
X165020433Y-78890809D01*
X164985827Y-78716834D01*
X164917946Y-78552953D01*
X164819397Y-78405465D01*
X164819393Y-78405461D01*
X164819391Y-78405458D01*
X164693974Y-78280041D01*
X164693970Y-78280038D01*
X164693968Y-78280036D01*
X164546480Y-78181487D01*
X164546477Y-78181485D01*
X164546476Y-78181485D01*
X164382599Y-78113606D01*
X164382593Y-78113604D01*
X164243041Y-78085846D01*
X164208624Y-78079000D01*
X164031242Y-78079000D01*
X164002509Y-78084715D01*
X163857272Y-78113604D01*
X163857266Y-78113606D01*
X163693387Y-78181486D01*
X163655051Y-78207101D01*
X163582996Y-78229662D01*
X163510182Y-78209685D01*
X163506160Y-78207100D01*
X163467826Y-78181486D01*
X163303946Y-78113606D01*
X163303940Y-78113604D01*
X163164388Y-78085846D01*
X163129971Y-78079000D01*
X162952589Y-78079000D01*
X162923856Y-78084715D01*
X162778619Y-78113604D01*
X162778613Y-78113606D01*
X162614736Y-78181485D01*
X162614733Y-78181486D01*
X162614733Y-78181487D01*
X162603542Y-78188965D01*
X162467238Y-78280041D01*
X162341821Y-78405458D01*
X162243265Y-78552956D01*
X162175386Y-78716833D01*
X162175384Y-78716839D01*
X162140780Y-78890809D01*
X146407999Y-78890809D01*
X146415780Y-78851691D01*
X146415780Y-78674309D01*
X146381174Y-78500334D01*
X146313293Y-78336453D01*
X146214744Y-78188965D01*
X146214740Y-78188961D01*
X146214738Y-78188958D01*
X146089321Y-78063541D01*
X146089317Y-78063538D01*
X146089315Y-78063536D01*
X145941827Y-77964987D01*
X145941824Y-77964985D01*
X145941823Y-77964985D01*
X145777946Y-77897106D01*
X145777940Y-77897104D01*
X145638388Y-77869346D01*
X145603971Y-77862500D01*
X145426589Y-77862500D01*
X145397856Y-77868215D01*
X145252619Y-77897104D01*
X145252613Y-77897106D01*
X145088736Y-77964985D01*
X144941238Y-78063541D01*
X144815821Y-78188958D01*
X144815816Y-78188964D01*
X144815816Y-78188965D01*
X144754964Y-78280036D01*
X144717265Y-78336456D01*
X144649386Y-78500333D01*
X144649384Y-78500339D01*
X144614780Y-78674309D01*
X109500500Y-78674309D01*
X109500500Y-73436309D01*
X113099500Y-73436309D01*
X113099500Y-73613690D01*
X113134104Y-73787660D01*
X113134106Y-73787666D01*
X113201987Y-73951547D01*
X113300536Y-74099035D01*
X113300538Y-74099037D01*
X113300541Y-74099041D01*
X113425958Y-74224458D01*
X113425961Y-74224460D01*
X113425965Y-74224464D01*
X113573453Y-74323013D01*
X113737334Y-74390894D01*
X113911309Y-74425500D01*
X113911310Y-74425500D01*
X114088690Y-74425500D01*
X114088691Y-74425500D01*
X114262666Y-74390894D01*
X114426547Y-74323013D01*
X114574035Y-74224464D01*
X114699464Y-74099035D01*
X114798013Y-73951547D01*
X114865894Y-73787666D01*
X114900500Y-73613691D01*
X114900500Y-73436309D01*
X114865894Y-73262334D01*
X114840073Y-73199997D01*
X125999500Y-73199997D01*
X125999500Y-74799999D01*
X125999502Y-74800024D01*
X126010000Y-74902794D01*
X126010001Y-74902800D01*
X126065183Y-75069330D01*
X126065184Y-75069331D01*
X126157285Y-75218652D01*
X126157288Y-75218656D01*
X126281343Y-75342711D01*
X126281347Y-75342714D01*
X126430668Y-75434815D01*
X126430669Y-75434816D01*
X126597198Y-75489998D01*
X126597201Y-75489998D01*
X126597203Y-75489999D01*
X126699991Y-75500500D01*
X128300008Y-75500499D01*
X128402797Y-75489999D01*
X128404243Y-75489519D01*
X128569330Y-75434816D01*
X128569331Y-75434815D01*
X128569331Y-75434814D01*
X128569334Y-75434814D01*
X128718656Y-75342712D01*
X128842712Y-75218656D01*
X128934814Y-75069334D01*
X128934815Y-75069331D01*
X128934816Y-75069330D01*
X128989998Y-74902801D01*
X128989999Y-74902795D01*
X129000498Y-74800024D01*
X129000500Y-74800009D01*
X129000499Y-73199992D01*
X128989999Y-73097203D01*
X128989998Y-73097199D01*
X128934816Y-72930669D01*
X128934815Y-72930668D01*
X128899649Y-72873655D01*
X128869970Y-72825536D01*
X128842714Y-72781347D01*
X128842711Y-72781343D01*
X128718656Y-72657288D01*
X128718652Y-72657285D01*
X128569331Y-72565184D01*
X128569330Y-72565183D01*
X128402801Y-72510001D01*
X128402795Y-72510000D01*
X128300023Y-72499501D01*
X128300015Y-72499500D01*
X128300009Y-72499500D01*
X128300002Y-72499500D01*
X126700000Y-72499500D01*
X126699975Y-72499502D01*
X126597205Y-72510000D01*
X126597199Y-72510001D01*
X126430669Y-72565183D01*
X126430668Y-72565184D01*
X126281347Y-72657285D01*
X126281343Y-72657288D01*
X126157288Y-72781343D01*
X126157285Y-72781347D01*
X126065184Y-72930668D01*
X126065183Y-72930669D01*
X126010001Y-73097198D01*
X126010000Y-73097204D01*
X125999501Y-73199976D01*
X125999500Y-73199997D01*
X114840073Y-73199997D01*
X114798013Y-73098453D01*
X114699464Y-72950965D01*
X114699460Y-72950961D01*
X114699458Y-72950958D01*
X114574041Y-72825541D01*
X114574037Y-72825538D01*
X114574035Y-72825536D01*
X114426547Y-72726987D01*
X114426544Y-72726985D01*
X114426543Y-72726985D01*
X114262666Y-72659106D01*
X114262660Y-72659104D01*
X114123108Y-72631346D01*
X114088691Y-72624500D01*
X113911309Y-72624500D01*
X113882576Y-72630215D01*
X113737339Y-72659104D01*
X113737333Y-72659106D01*
X113573456Y-72726985D01*
X113573453Y-72726986D01*
X113573453Y-72726987D01*
X113507741Y-72770895D01*
X113425958Y-72825541D01*
X113300541Y-72950958D01*
X113300536Y-72950964D01*
X113300536Y-72950965D01*
X113207762Y-73089810D01*
X113201985Y-73098456D01*
X113134106Y-73262333D01*
X113134104Y-73262339D01*
X113099500Y-73436309D01*
X109500500Y-73436309D01*
X109500500Y-71816309D01*
X150456780Y-71816309D01*
X150456780Y-71993690D01*
X150491384Y-72167660D01*
X150491386Y-72167666D01*
X150503878Y-72197826D01*
X150559267Y-72331547D01*
X150657816Y-72479035D01*
X150657818Y-72479037D01*
X150657821Y-72479041D01*
X150783238Y-72604458D01*
X150783241Y-72604460D01*
X150783245Y-72604464D01*
X150930733Y-72703013D01*
X151094614Y-72770894D01*
X151268589Y-72805500D01*
X151268590Y-72805500D01*
X151445970Y-72805500D01*
X151445971Y-72805500D01*
X151619946Y-72770894D01*
X151783827Y-72703013D01*
X151931315Y-72604464D01*
X152056744Y-72479035D01*
X152155293Y-72331547D01*
X152223174Y-72167666D01*
X152257780Y-71993691D01*
X152257780Y-71816309D01*
X152223174Y-71642334D01*
X152155293Y-71478453D01*
X152120262Y-71426026D01*
X152120262Y-71426025D01*
X152072803Y-71354998D01*
X155186780Y-71354998D01*
X155186780Y-72455001D01*
X155186781Y-72455022D01*
X155197280Y-72557796D01*
X155197280Y-72557797D01*
X155252466Y-72724335D01*
X155252469Y-72724341D01*
X155344566Y-72873652D01*
X155344572Y-72873659D01*
X155468620Y-72997707D01*
X155468627Y-72997713D01*
X155617938Y-73089810D01*
X155617944Y-73089813D01*
X155617946Y-73089814D01*
X155640248Y-73097204D01*
X155784482Y-73144999D01*
X155802910Y-73146881D01*
X155887272Y-73155500D01*
X155887279Y-73155500D01*
X156987281Y-73155500D01*
X156987288Y-73155500D01*
X157090077Y-73144999D01*
X157256614Y-73089814D01*
X157256618Y-73089811D01*
X157256621Y-73089810D01*
X157405932Y-72997713D01*
X157405932Y-72997712D01*
X157405935Y-72997711D01*
X157529991Y-72873655D01*
X157546550Y-72846808D01*
X157558608Y-72827261D01*
X157622090Y-72724341D01*
X157622094Y-72724333D01*
X157623646Y-72719651D01*
X157667080Y-72588576D01*
X157710060Y-72526498D01*
X157779778Y-72497512D01*
X157854101Y-72510820D01*
X157904070Y-72556624D01*
X157905089Y-72555884D01*
X157933599Y-72595124D01*
X157933601Y-72595125D01*
X158494317Y-72034408D01*
X158511355Y-72097993D01*
X158577181Y-72212007D01*
X158670273Y-72305099D01*
X158784287Y-72370925D01*
X158847869Y-72387962D01*
X158287154Y-72948678D01*
X158287154Y-72948679D01*
X158322136Y-72974096D01*
X158322135Y-72974096D01*
X158497444Y-73063418D01*
X158497453Y-73063422D01*
X158684579Y-73124222D01*
X158878899Y-73154999D01*
X158878902Y-73155000D01*
X159075658Y-73155000D01*
X159075660Y-73154999D01*
X159269980Y-73124222D01*
X159457106Y-73063422D01*
X159457115Y-73063418D01*
X159632417Y-72974099D01*
X159632420Y-72974097D01*
X159667405Y-72948678D01*
X159106690Y-72387962D01*
X159170273Y-72370925D01*
X159284287Y-72305099D01*
X159377379Y-72212007D01*
X159443205Y-72097993D01*
X159460242Y-72034409D01*
X160020958Y-72595125D01*
X160046376Y-72560141D01*
X160127602Y-72400723D01*
X160179445Y-72345830D01*
X160252735Y-72327679D01*
X160324204Y-72352033D01*
X160366393Y-72400721D01*
X160422074Y-72510001D01*
X160447756Y-72560405D01*
X160551368Y-72703014D01*
X160563456Y-72719651D01*
X160702628Y-72858823D01*
X160702631Y-72858825D01*
X160702634Y-72858828D01*
X160861290Y-72974099D01*
X160861878Y-72974526D01*
X160907374Y-72997707D01*
X161037255Y-73063884D01*
X161224454Y-73124709D01*
X161418861Y-73155499D01*
X161418862Y-73155500D01*
X161418863Y-73155500D01*
X161615698Y-73155500D01*
X161615698Y-73155499D01*
X161810106Y-73124709D01*
X161997305Y-73063884D01*
X162172685Y-72974524D01*
X162331926Y-72858828D01*
X162471108Y-72719646D01*
X162586804Y-72560405D01*
X162676164Y-72385025D01*
X162736989Y-72197826D01*
X162767780Y-72003417D01*
X162767780Y-71806583D01*
X162736989Y-71612174D01*
X162676164Y-71424975D01*
X162628260Y-71330958D01*
X162586806Y-71249598D01*
X162586804Y-71249595D01*
X162471108Y-71090354D01*
X162471105Y-71090351D01*
X162471103Y-71090348D01*
X162331931Y-70951176D01*
X162331927Y-70951173D01*
X162331926Y-70951172D01*
X162172685Y-70835476D01*
X162172681Y-70835473D01*
X161997305Y-70746116D01*
X161810106Y-70685291D01*
X161810100Y-70685290D01*
X161810097Y-70685289D01*
X161615700Y-70654500D01*
X161615697Y-70654500D01*
X161418863Y-70654500D01*
X161418859Y-70654500D01*
X161224462Y-70685289D01*
X161224457Y-70685290D01*
X161224454Y-70685291D01*
X161117059Y-70720186D01*
X161037254Y-70746116D01*
X160861878Y-70835473D01*
X160702628Y-70951176D01*
X160563456Y-71090348D01*
X160447755Y-71249596D01*
X160366393Y-71409278D01*
X160314549Y-71464170D01*
X160241259Y-71482320D01*
X160169791Y-71457965D01*
X160127602Y-71409276D01*
X160046374Y-71249853D01*
X160020959Y-71214874D01*
X160020958Y-71214874D01*
X159460242Y-71775589D01*
X159443205Y-71712007D01*
X159377379Y-71597993D01*
X159284287Y-71504901D01*
X159170273Y-71439075D01*
X159106689Y-71422037D01*
X159667405Y-70861321D01*
X159667404Y-70861319D01*
X159632432Y-70835910D01*
X159632416Y-70835900D01*
X159457115Y-70746581D01*
X159457106Y-70746577D01*
X159269980Y-70685777D01*
X159075660Y-70655000D01*
X158878899Y-70655000D01*
X158684579Y-70685777D01*
X158497453Y-70746577D01*
X158497444Y-70746581D01*
X158322136Y-70835903D01*
X158322132Y-70835906D01*
X158287154Y-70861319D01*
X158287153Y-70861320D01*
X158847870Y-71422037D01*
X158784287Y-71439075D01*
X158670273Y-71504901D01*
X158577181Y-71597993D01*
X158511355Y-71712007D01*
X158494317Y-71775590D01*
X157933600Y-71214873D01*
X157933599Y-71214874D01*
X157905089Y-71254116D01*
X157904040Y-71253354D01*
X157852532Y-71299948D01*
X157778042Y-71312286D01*
X157708708Y-71282393D01*
X157667080Y-71221423D01*
X157622093Y-71085664D01*
X157622092Y-71085663D01*
X157593374Y-71039104D01*
X157529991Y-70936345D01*
X157529989Y-70936343D01*
X157529988Y-70936341D01*
X157405939Y-70812292D01*
X157405932Y-70812286D01*
X157256621Y-70720189D01*
X157256615Y-70720186D01*
X157090077Y-70665000D01*
X156987302Y-70654501D01*
X156987294Y-70654500D01*
X156987288Y-70654500D01*
X155887272Y-70654500D01*
X155887266Y-70654500D01*
X155887257Y-70654501D01*
X155784483Y-70665000D01*
X155784482Y-70665000D01*
X155617944Y-70720186D01*
X155617938Y-70720189D01*
X155468627Y-70812286D01*
X155468620Y-70812292D01*
X155344572Y-70936340D01*
X155344566Y-70936347D01*
X155252469Y-71085658D01*
X155252466Y-71085664D01*
X155197280Y-71252202D01*
X155197280Y-71252203D01*
X155186781Y-71354977D01*
X155186780Y-71354998D01*
X152072803Y-71354998D01*
X152056744Y-71330965D01*
X152056739Y-71330959D01*
X151931321Y-71205541D01*
X151931317Y-71205538D01*
X151931315Y-71205536D01*
X151783827Y-71106987D01*
X151783824Y-71106985D01*
X151783823Y-71106985D01*
X151619946Y-71039106D01*
X151619940Y-71039104D01*
X151480388Y-71011346D01*
X151445971Y-71004500D01*
X151268589Y-71004500D01*
X151239856Y-71010215D01*
X151094619Y-71039104D01*
X151094613Y-71039106D01*
X150930736Y-71106985D01*
X150783238Y-71205541D01*
X150657821Y-71330958D01*
X150559265Y-71478456D01*
X150491386Y-71642333D01*
X150491384Y-71642339D01*
X150456780Y-71816309D01*
X109500500Y-71816309D01*
X109500500Y-68881943D01*
X126000000Y-68881943D01*
X126000000Y-69118056D01*
X126036933Y-69351242D01*
X126109896Y-69575800D01*
X126217084Y-69786170D01*
X126277339Y-69869104D01*
X126277341Y-69869105D01*
X127017037Y-69129408D01*
X127034075Y-69192993D01*
X127099901Y-69307007D01*
X127192993Y-69400099D01*
X127307007Y-69465925D01*
X127370590Y-69482962D01*
X126630893Y-70222658D01*
X126630894Y-70222659D01*
X126713829Y-70282915D01*
X126924199Y-70390103D01*
X127148757Y-70463066D01*
X127381943Y-70499999D01*
X127381946Y-70500000D01*
X127618054Y-70500000D01*
X127618056Y-70499999D01*
X127851242Y-70463066D01*
X128075800Y-70390103D01*
X128286171Y-70282915D01*
X128369104Y-70222659D01*
X128369105Y-70222658D01*
X127629409Y-69482962D01*
X127692993Y-69465925D01*
X127807007Y-69400099D01*
X127900099Y-69307007D01*
X127965925Y-69192993D01*
X127982962Y-69129409D01*
X128722658Y-69869105D01*
X128722659Y-69869104D01*
X128782915Y-69786171D01*
X128890103Y-69575800D01*
X128963066Y-69351242D01*
X128999999Y-69118056D01*
X129000000Y-69118054D01*
X129000000Y-68881945D01*
X128999999Y-68881943D01*
X128963066Y-68648757D01*
X128890103Y-68424199D01*
X128782915Y-68213829D01*
X128722659Y-68130894D01*
X128722658Y-68130893D01*
X127982962Y-68870589D01*
X127965925Y-68807007D01*
X127900099Y-68692993D01*
X127807007Y-68599901D01*
X127692993Y-68534075D01*
X127629409Y-68517037D01*
X128369105Y-67777341D01*
X128369104Y-67777339D01*
X128286170Y-67717084D01*
X128075800Y-67609896D01*
X127851242Y-67536933D01*
X127618056Y-67500000D01*
X127381943Y-67500000D01*
X127148757Y-67536933D01*
X126924201Y-67609895D01*
X126713828Y-67717085D01*
X126630894Y-67777339D01*
X126630893Y-67777340D01*
X127370590Y-68517037D01*
X127307007Y-68534075D01*
X127192993Y-68599901D01*
X127099901Y-68692993D01*
X127034075Y-68807007D01*
X127017037Y-68870590D01*
X126277340Y-68130893D01*
X126277339Y-68130894D01*
X126217085Y-68213828D01*
X126109895Y-68424201D01*
X126036933Y-68648757D01*
X126000000Y-68881943D01*
X109500500Y-68881943D01*
X109500500Y-67411309D01*
X175599500Y-67411309D01*
X175599500Y-67588690D01*
X175634104Y-67762660D01*
X175634106Y-67762666D01*
X175640184Y-67777341D01*
X175701987Y-67926547D01*
X175800536Y-68074035D01*
X175800538Y-68074037D01*
X175800541Y-68074041D01*
X175925958Y-68199458D01*
X175925961Y-68199460D01*
X175925965Y-68199464D01*
X176073453Y-68298013D01*
X176237334Y-68365894D01*
X176411309Y-68400500D01*
X176411310Y-68400500D01*
X176465500Y-68400500D01*
X176537946Y-68421772D01*
X176587391Y-68478834D01*
X176599500Y-68534500D01*
X176599500Y-68588690D01*
X176634104Y-68762660D01*
X176634106Y-68762666D01*
X176683511Y-68881943D01*
X176701987Y-68926547D01*
X176800536Y-69074035D01*
X176800538Y-69074037D01*
X176800541Y-69074041D01*
X176925958Y-69199458D01*
X176925961Y-69199460D01*
X176925965Y-69199464D01*
X177073453Y-69298013D01*
X177237334Y-69365894D01*
X177411309Y-69400500D01*
X177411310Y-69400500D01*
X177588690Y-69400500D01*
X177588691Y-69400500D01*
X177762666Y-69365894D01*
X177926547Y-69298013D01*
X178074035Y-69199464D01*
X178199464Y-69074035D01*
X178240040Y-69013309D01*
X190929500Y-69013309D01*
X190929500Y-69190690D01*
X190964104Y-69364660D01*
X190964106Y-69364666D01*
X191020162Y-69500000D01*
X191031987Y-69528547D01*
X191130536Y-69676035D01*
X191130538Y-69676037D01*
X191130541Y-69676041D01*
X191255958Y-69801458D01*
X191255961Y-69801460D01*
X191255965Y-69801464D01*
X191403453Y-69900013D01*
X191567334Y-69967894D01*
X191741309Y-70002500D01*
X191741310Y-70002500D01*
X191918690Y-70002500D01*
X191918691Y-70002500D01*
X192092666Y-69967894D01*
X192256547Y-69900013D01*
X192404035Y-69801464D01*
X192529464Y-69676035D01*
X192628013Y-69528547D01*
X192695894Y-69364666D01*
X192730500Y-69190691D01*
X192730500Y-69013309D01*
X192695894Y-68839334D01*
X192628013Y-68675453D01*
X192529464Y-68527965D01*
X192529460Y-68527961D01*
X192529458Y-68527958D01*
X192404041Y-68402541D01*
X192404037Y-68402538D01*
X192404035Y-68402536D01*
X192256547Y-68303987D01*
X192256544Y-68303985D01*
X192256543Y-68303985D01*
X192092666Y-68236106D01*
X192092660Y-68236104D01*
X191953108Y-68208346D01*
X191918691Y-68201500D01*
X191741309Y-68201500D01*
X191712576Y-68207215D01*
X191567339Y-68236104D01*
X191567333Y-68236106D01*
X191403456Y-68303985D01*
X191403453Y-68303986D01*
X191403453Y-68303987D01*
X191259013Y-68400500D01*
X191255958Y-68402541D01*
X191130541Y-68527958D01*
X191130536Y-68527964D01*
X191130536Y-68527965D01*
X191089961Y-68588690D01*
X191031985Y-68675456D01*
X190964106Y-68839333D01*
X190964104Y-68839339D01*
X190929500Y-69013309D01*
X178240040Y-69013309D01*
X178298013Y-68926547D01*
X178365894Y-68762666D01*
X178400500Y-68588691D01*
X178400500Y-68411309D01*
X178365894Y-68237334D01*
X178298013Y-68073453D01*
X178199464Y-67925965D01*
X178199460Y-67925961D01*
X178199458Y-67925958D01*
X178074041Y-67800541D01*
X178074037Y-67800538D01*
X178074035Y-67800536D01*
X177926547Y-67701987D01*
X177926544Y-67701985D01*
X177926543Y-67701985D01*
X177762666Y-67634106D01*
X177762660Y-67634104D01*
X177602179Y-67602183D01*
X177588691Y-67599500D01*
X177534500Y-67599500D01*
X177462054Y-67578228D01*
X177412609Y-67521166D01*
X177400500Y-67465500D01*
X177400500Y-67411309D01*
X177365895Y-67237339D01*
X177365894Y-67237338D01*
X177365894Y-67237334D01*
X177298013Y-67073453D01*
X177199464Y-66925965D01*
X177199460Y-66925961D01*
X177199458Y-66925958D01*
X177074041Y-66800541D01*
X177074037Y-66800538D01*
X177074035Y-66800536D01*
X176926547Y-66701987D01*
X176926544Y-66701985D01*
X176926543Y-66701985D01*
X176830540Y-66662220D01*
X176762666Y-66634106D01*
X176762664Y-66634105D01*
X176762663Y-66634105D01*
X176646157Y-66610930D01*
X176588691Y-66599500D01*
X176411309Y-66599500D01*
X176382576Y-66605215D01*
X176237339Y-66634104D01*
X176237333Y-66634106D01*
X176073456Y-66701985D01*
X175925958Y-66800541D01*
X175800541Y-66925958D01*
X175800536Y-66925964D01*
X175800536Y-66925965D01*
X175701987Y-67073453D01*
X175701985Y-67073456D01*
X175634106Y-67237333D01*
X175634104Y-67237339D01*
X175599500Y-67411309D01*
X109500500Y-67411309D01*
X109500500Y-66513309D01*
X189929500Y-66513309D01*
X189929500Y-66690690D01*
X189964104Y-66864660D01*
X189964106Y-66864666D01*
X189989496Y-66925965D01*
X190031987Y-67028547D01*
X190130536Y-67176035D01*
X190130538Y-67176037D01*
X190130541Y-67176041D01*
X190255958Y-67301458D01*
X190255961Y-67301460D01*
X190255965Y-67301464D01*
X190403453Y-67400013D01*
X190567334Y-67467894D01*
X190741309Y-67502500D01*
X190741310Y-67502500D01*
X190918690Y-67502500D01*
X190918691Y-67502500D01*
X191092666Y-67467894D01*
X191256547Y-67400013D01*
X191404035Y-67301464D01*
X191529464Y-67176035D01*
X191628013Y-67028547D01*
X191695894Y-66864666D01*
X191730500Y-66690691D01*
X191730500Y-66513309D01*
X191695894Y-66339334D01*
X191628013Y-66175453D01*
X191529464Y-66027965D01*
X191529460Y-66027961D01*
X191529458Y-66027958D01*
X191404041Y-65902541D01*
X191404037Y-65902538D01*
X191404035Y-65902536D01*
X191256547Y-65803987D01*
X191256544Y-65803985D01*
X191256543Y-65803985D01*
X191092666Y-65736106D01*
X191092660Y-65736104D01*
X190953108Y-65708346D01*
X190918691Y-65701500D01*
X190741309Y-65701500D01*
X190712576Y-65707215D01*
X190567339Y-65736104D01*
X190567333Y-65736106D01*
X190403456Y-65803985D01*
X190255958Y-65902541D01*
X190130541Y-66027958D01*
X190031985Y-66175456D01*
X189964106Y-66339333D01*
X189964104Y-66339339D01*
X189929500Y-66513309D01*
X109500500Y-66513309D01*
X109500500Y-62895677D01*
X113549500Y-62895677D01*
X113549500Y-63104322D01*
X113582136Y-63310386D01*
X113582138Y-63310394D01*
X113646609Y-63508812D01*
X113741327Y-63694710D01*
X113863969Y-63863510D01*
X114011489Y-64011030D01*
X114011492Y-64011032D01*
X114011495Y-64011035D01*
X114180286Y-64133670D01*
X114180289Y-64133672D01*
X114262290Y-64175453D01*
X114366184Y-64228389D01*
X114366186Y-64228389D01*
X114366187Y-64228390D01*
X114564605Y-64292861D01*
X114564613Y-64292863D01*
X114698736Y-64314105D01*
X114770679Y-64325499D01*
X114770680Y-64325500D01*
X114770681Y-64325500D01*
X114979320Y-64325500D01*
X114979320Y-64325499D01*
X115082354Y-64309181D01*
X115185386Y-64292863D01*
X115185394Y-64292861D01*
X115319478Y-64249293D01*
X115383816Y-64228389D01*
X115569714Y-64133670D01*
X115738505Y-64011035D01*
X115886035Y-63863505D01*
X116008670Y-63694714D01*
X116103389Y-63508816D01*
X116130311Y-63425958D01*
X116167861Y-63310394D01*
X116167863Y-63310386D01*
X116195782Y-63134106D01*
X116200500Y-63104319D01*
X116200500Y-62895681D01*
X116200499Y-62895677D01*
X122549500Y-62895677D01*
X122549500Y-63104322D01*
X122582136Y-63310386D01*
X122582138Y-63310394D01*
X122646609Y-63508812D01*
X122741327Y-63694710D01*
X122863969Y-63863510D01*
X123011489Y-64011030D01*
X123011492Y-64011032D01*
X123011495Y-64011035D01*
X123180286Y-64133670D01*
X123180289Y-64133672D01*
X123262290Y-64175453D01*
X123366184Y-64228389D01*
X123366186Y-64228389D01*
X123366187Y-64228390D01*
X123564605Y-64292861D01*
X123564613Y-64292863D01*
X123698736Y-64314105D01*
X123770679Y-64325499D01*
X123770680Y-64325500D01*
X123770681Y-64325500D01*
X123979320Y-64325500D01*
X123979320Y-64325499D01*
X124082354Y-64309181D01*
X124185386Y-64292863D01*
X124185394Y-64292861D01*
X124319478Y-64249293D01*
X124383816Y-64228389D01*
X124569714Y-64133670D01*
X124738505Y-64011035D01*
X124886035Y-63863505D01*
X125008670Y-63694714D01*
X125103389Y-63508816D01*
X125130311Y-63425958D01*
X125167861Y-63310394D01*
X125167863Y-63310386D01*
X125195782Y-63134106D01*
X125200500Y-63104319D01*
X125200500Y-62895681D01*
X125200499Y-62895677D01*
X132049500Y-62895677D01*
X132049500Y-63104322D01*
X132082136Y-63310386D01*
X132082138Y-63310394D01*
X132146609Y-63508812D01*
X132241327Y-63694710D01*
X132363969Y-63863510D01*
X132511489Y-64011030D01*
X132511492Y-64011032D01*
X132511495Y-64011035D01*
X132680286Y-64133670D01*
X132680289Y-64133672D01*
X132762290Y-64175453D01*
X132866184Y-64228389D01*
X132866186Y-64228389D01*
X132866187Y-64228390D01*
X133064605Y-64292861D01*
X133064613Y-64292863D01*
X133198736Y-64314105D01*
X133270679Y-64325499D01*
X133270680Y-64325500D01*
X133270681Y-64325500D01*
X133479320Y-64325500D01*
X133479320Y-64325499D01*
X133582354Y-64309181D01*
X133685386Y-64292863D01*
X133685394Y-64292861D01*
X133819478Y-64249293D01*
X133883816Y-64228389D01*
X134069714Y-64133670D01*
X134238505Y-64011035D01*
X134386035Y-63863505D01*
X134508670Y-63694714D01*
X134603389Y-63508816D01*
X134630311Y-63425958D01*
X134667861Y-63310394D01*
X134667863Y-63310386D01*
X134695782Y-63134106D01*
X134700500Y-63104319D01*
X134700500Y-62895681D01*
X134700499Y-62895677D01*
X141674500Y-62895677D01*
X141674500Y-63104322D01*
X141707136Y-63310386D01*
X141707138Y-63310394D01*
X141771609Y-63508812D01*
X141866327Y-63694710D01*
X141988969Y-63863510D01*
X142136489Y-64011030D01*
X142136492Y-64011032D01*
X142136495Y-64011035D01*
X142305286Y-64133670D01*
X142305289Y-64133672D01*
X142387290Y-64175453D01*
X142491184Y-64228389D01*
X142491186Y-64228389D01*
X142491187Y-64228390D01*
X142689605Y-64292861D01*
X142689613Y-64292863D01*
X142823736Y-64314105D01*
X142895679Y-64325499D01*
X142895680Y-64325500D01*
X142895681Y-64325500D01*
X143104320Y-64325500D01*
X143104320Y-64325499D01*
X143207354Y-64309181D01*
X143310386Y-64292863D01*
X143310394Y-64292861D01*
X143444478Y-64249293D01*
X143508816Y-64228389D01*
X143694714Y-64133670D01*
X143863505Y-64011035D01*
X143963231Y-63911309D01*
X147599500Y-63911309D01*
X147599500Y-64088690D01*
X147634104Y-64262660D01*
X147634106Y-64262666D01*
X147665864Y-64339339D01*
X147701987Y-64426547D01*
X147800536Y-64574035D01*
X147800538Y-64574037D01*
X147800541Y-64574041D01*
X147925958Y-64699458D01*
X147925961Y-64699460D01*
X147925965Y-64699464D01*
X148073453Y-64798013D01*
X148237334Y-64865894D01*
X148411309Y-64900500D01*
X148411310Y-64900500D01*
X148588690Y-64900500D01*
X148588691Y-64900500D01*
X148762666Y-64865894D01*
X148926547Y-64798013D01*
X149074035Y-64699464D01*
X149199464Y-64574035D01*
X149240040Y-64513309D01*
X188929500Y-64513309D01*
X188929500Y-64690690D01*
X188964104Y-64864660D01*
X188964106Y-64864666D01*
X189031987Y-65028547D01*
X189130536Y-65176035D01*
X189130538Y-65176037D01*
X189130541Y-65176041D01*
X189255958Y-65301458D01*
X189255961Y-65301460D01*
X189255965Y-65301464D01*
X189403453Y-65400013D01*
X189567334Y-65467894D01*
X189741309Y-65502500D01*
X189741310Y-65502500D01*
X189918690Y-65502500D01*
X189918691Y-65502500D01*
X190092666Y-65467894D01*
X190256547Y-65400013D01*
X190404035Y-65301464D01*
X190529464Y-65176035D01*
X190628013Y-65028547D01*
X190695894Y-64864666D01*
X190730500Y-64690691D01*
X190730500Y-64513309D01*
X190695894Y-64339334D01*
X190628013Y-64175453D01*
X190529464Y-64027965D01*
X190529460Y-64027961D01*
X190529458Y-64027958D01*
X190404041Y-63902541D01*
X190404037Y-63902538D01*
X190404035Y-63902536D01*
X190256547Y-63803987D01*
X190256544Y-63803985D01*
X190256543Y-63803985D01*
X190092666Y-63736106D01*
X190092660Y-63736104D01*
X189953108Y-63708346D01*
X189918691Y-63701500D01*
X189741309Y-63701500D01*
X189712576Y-63707215D01*
X189567339Y-63736104D01*
X189567333Y-63736106D01*
X189403456Y-63803985D01*
X189255958Y-63902541D01*
X189130541Y-64027958D01*
X189031985Y-64175456D01*
X188964106Y-64339333D01*
X188964104Y-64339339D01*
X188929500Y-64513309D01*
X149240040Y-64513309D01*
X149298013Y-64426547D01*
X149365894Y-64262666D01*
X149400500Y-64088691D01*
X149400500Y-63911309D01*
X149365894Y-63737334D01*
X149298013Y-63573453D01*
X149199464Y-63425965D01*
X149199460Y-63425961D01*
X149199458Y-63425958D01*
X149074041Y-63300541D01*
X149074037Y-63300538D01*
X149074035Y-63300536D01*
X148926547Y-63201987D01*
X148926544Y-63201985D01*
X148926543Y-63201985D01*
X148762666Y-63134106D01*
X148762660Y-63134104D01*
X148623108Y-63106346D01*
X148588691Y-63099500D01*
X148411309Y-63099500D01*
X148387067Y-63104322D01*
X148237339Y-63134104D01*
X148237333Y-63134106D01*
X148073456Y-63201985D01*
X147925958Y-63300541D01*
X147800541Y-63425958D01*
X147701985Y-63573456D01*
X147634106Y-63737333D01*
X147634104Y-63737339D01*
X147599500Y-63911309D01*
X143963231Y-63911309D01*
X144011035Y-63863505D01*
X144133670Y-63694714D01*
X144228389Y-63508816D01*
X144255311Y-63425958D01*
X144292861Y-63310394D01*
X144292863Y-63310386D01*
X144320782Y-63134106D01*
X144325500Y-63104319D01*
X144325500Y-62895681D01*
X144325499Y-62895677D01*
X151174500Y-62895677D01*
X151174500Y-63104322D01*
X151207136Y-63310386D01*
X151207138Y-63310394D01*
X151271609Y-63508812D01*
X151366327Y-63694710D01*
X151488969Y-63863510D01*
X151636489Y-64011030D01*
X151636492Y-64011032D01*
X151636495Y-64011035D01*
X151805286Y-64133670D01*
X151805289Y-64133672D01*
X151887290Y-64175453D01*
X151991184Y-64228389D01*
X151991186Y-64228389D01*
X151991187Y-64228390D01*
X152189605Y-64292861D01*
X152189613Y-64292863D01*
X152323736Y-64314105D01*
X152395679Y-64325499D01*
X152395680Y-64325500D01*
X152395681Y-64325500D01*
X152604320Y-64325500D01*
X152604320Y-64325499D01*
X152707354Y-64309181D01*
X152810386Y-64292863D01*
X152810394Y-64292861D01*
X152944478Y-64249293D01*
X153008816Y-64228389D01*
X153194714Y-64133670D01*
X153363505Y-64011035D01*
X153511035Y-63863505D01*
X153633670Y-63694714D01*
X153728389Y-63508816D01*
X153755311Y-63425958D01*
X153792861Y-63310394D01*
X153792863Y-63310386D01*
X153820782Y-63134106D01*
X153825500Y-63104319D01*
X153825500Y-62895681D01*
X153825499Y-62895677D01*
X160174500Y-62895677D01*
X160174500Y-63104322D01*
X160207136Y-63310386D01*
X160207138Y-63310394D01*
X160271609Y-63508812D01*
X160366327Y-63694710D01*
X160488969Y-63863510D01*
X160636489Y-64011030D01*
X160636492Y-64011032D01*
X160636495Y-64011035D01*
X160805286Y-64133670D01*
X160805289Y-64133672D01*
X160887290Y-64175453D01*
X160991184Y-64228389D01*
X160991186Y-64228389D01*
X160991187Y-64228390D01*
X161189605Y-64292861D01*
X161189613Y-64292863D01*
X161323736Y-64314105D01*
X161395679Y-64325499D01*
X161395680Y-64325500D01*
X161395681Y-64325500D01*
X161604320Y-64325500D01*
X161604320Y-64325499D01*
X161707354Y-64309181D01*
X161810386Y-64292863D01*
X161810394Y-64292861D01*
X161944478Y-64249293D01*
X162008816Y-64228389D01*
X162194714Y-64133670D01*
X162363505Y-64011035D01*
X162511035Y-63863505D01*
X162633670Y-63694714D01*
X162728389Y-63508816D01*
X162755311Y-63425958D01*
X162792861Y-63310394D01*
X162792863Y-63310386D01*
X162820782Y-63134106D01*
X162825500Y-63104319D01*
X162825500Y-62895681D01*
X162814105Y-62823736D01*
X162792863Y-62689613D01*
X162792861Y-62689605D01*
X162728390Y-62491187D01*
X162728389Y-62491186D01*
X162728389Y-62491184D01*
X162633670Y-62305286D01*
X162511035Y-62136495D01*
X162511032Y-62136492D01*
X162511030Y-62136489D01*
X162376415Y-62001874D01*
X162340229Y-61935606D01*
X162345616Y-61860294D01*
X162390864Y-61799849D01*
X162425351Y-61783752D01*
X162424522Y-61781528D01*
X162567088Y-61728353D01*
X162682189Y-61642189D01*
X162768353Y-61527088D01*
X162818597Y-61392378D01*
X162825000Y-61332830D01*
X162825000Y-60710000D01*
X161990748Y-60710000D01*
X162012518Y-60672292D01*
X162050000Y-60532409D01*
X162050000Y-60387591D01*
X162012518Y-60247708D01*
X161990748Y-60210000D01*
X162825000Y-60210000D01*
X162825000Y-59587169D01*
X162818597Y-59527621D01*
X162768353Y-59392911D01*
X162682189Y-59277810D01*
X162567088Y-59191646D01*
X162432378Y-59141402D01*
X162372831Y-59135000D01*
X161750000Y-59135000D01*
X161750000Y-59969252D01*
X161712292Y-59947482D01*
X161572409Y-59910000D01*
X161427591Y-59910000D01*
X161287708Y-59947482D01*
X161250000Y-59969252D01*
X161250000Y-59135000D01*
X160627169Y-59135000D01*
X160567621Y-59141402D01*
X160432911Y-59191646D01*
X160317810Y-59277810D01*
X160231646Y-59392911D01*
X160181402Y-59527621D01*
X160175000Y-59587169D01*
X160175000Y-60210000D01*
X161009252Y-60210000D01*
X160987482Y-60247708D01*
X160950000Y-60387591D01*
X160950000Y-60532409D01*
X160987482Y-60672292D01*
X161009252Y-60710000D01*
X160175000Y-60710000D01*
X160175000Y-61332830D01*
X160181402Y-61392378D01*
X160231646Y-61527088D01*
X160317810Y-61642189D01*
X160432911Y-61728353D01*
X160575478Y-61781528D01*
X160574185Y-61784992D01*
X160625257Y-61814072D01*
X160660256Y-61880975D01*
X160653529Y-61956179D01*
X160623585Y-62001874D01*
X160488967Y-62136492D01*
X160366327Y-62305289D01*
X160271609Y-62491187D01*
X160207138Y-62689605D01*
X160207136Y-62689613D01*
X160174500Y-62895677D01*
X153825499Y-62895677D01*
X153814105Y-62823736D01*
X153792863Y-62689613D01*
X153792861Y-62689605D01*
X153728390Y-62491187D01*
X153728389Y-62491186D01*
X153728389Y-62491184D01*
X153633670Y-62305286D01*
X153511035Y-62136495D01*
X153511032Y-62136492D01*
X153511030Y-62136489D01*
X153376415Y-62001874D01*
X153340229Y-61935606D01*
X153345616Y-61860294D01*
X153390864Y-61799849D01*
X153425351Y-61783752D01*
X153424522Y-61781528D01*
X153567088Y-61728353D01*
X153682189Y-61642189D01*
X153768353Y-61527088D01*
X153818597Y-61392378D01*
X153825000Y-61332830D01*
X153825000Y-60710000D01*
X152990748Y-60710000D01*
X153012518Y-60672292D01*
X153050000Y-60532409D01*
X153050000Y-60387591D01*
X153012518Y-60247708D01*
X152990748Y-60210000D01*
X153825000Y-60210000D01*
X153825000Y-59587169D01*
X153818597Y-59527621D01*
X153768353Y-59392911D01*
X153682189Y-59277810D01*
X153567088Y-59191646D01*
X153432378Y-59141402D01*
X153372831Y-59135000D01*
X152750000Y-59135000D01*
X152750000Y-59969252D01*
X152712292Y-59947482D01*
X152572409Y-59910000D01*
X152427591Y-59910000D01*
X152287708Y-59947482D01*
X152250000Y-59969252D01*
X152250000Y-59135000D01*
X151627169Y-59135000D01*
X151567621Y-59141402D01*
X151432911Y-59191646D01*
X151317810Y-59277810D01*
X151231646Y-59392911D01*
X151181402Y-59527621D01*
X151175000Y-59587169D01*
X151175000Y-60210000D01*
X152009252Y-60210000D01*
X151987482Y-60247708D01*
X151950000Y-60387591D01*
X151950000Y-60532409D01*
X151987482Y-60672292D01*
X152009252Y-60710000D01*
X151175000Y-60710000D01*
X151175000Y-61332830D01*
X151181402Y-61392378D01*
X151231646Y-61527088D01*
X151317810Y-61642189D01*
X151432911Y-61728353D01*
X151575478Y-61781528D01*
X151574185Y-61784992D01*
X151625257Y-61814072D01*
X151660256Y-61880975D01*
X151653529Y-61956179D01*
X151623585Y-62001874D01*
X151488967Y-62136492D01*
X151366327Y-62305289D01*
X151271609Y-62491187D01*
X151207138Y-62689605D01*
X151207136Y-62689613D01*
X151174500Y-62895677D01*
X144325499Y-62895677D01*
X144314105Y-62823736D01*
X144292863Y-62689613D01*
X144292861Y-62689605D01*
X144228390Y-62491187D01*
X144228389Y-62491186D01*
X144228389Y-62491184D01*
X144133670Y-62305286D01*
X144011035Y-62136495D01*
X144011032Y-62136492D01*
X144011030Y-62136489D01*
X143876415Y-62001874D01*
X143840229Y-61935606D01*
X143845616Y-61860294D01*
X143890864Y-61799849D01*
X143925351Y-61783752D01*
X143924522Y-61781528D01*
X144067088Y-61728353D01*
X144182189Y-61642189D01*
X144268353Y-61527088D01*
X144318597Y-61392378D01*
X144325000Y-61332830D01*
X144325000Y-60710000D01*
X143490748Y-60710000D01*
X143512518Y-60672292D01*
X143550000Y-60532409D01*
X143550000Y-60387591D01*
X143512518Y-60247708D01*
X143490748Y-60210000D01*
X144325000Y-60210000D01*
X144325000Y-59587169D01*
X144318597Y-59527621D01*
X144268353Y-59392911D01*
X144182189Y-59277810D01*
X144067088Y-59191646D01*
X143932378Y-59141402D01*
X143872831Y-59135000D01*
X143250000Y-59135000D01*
X143250000Y-59969252D01*
X143212292Y-59947482D01*
X143072409Y-59910000D01*
X142927591Y-59910000D01*
X142787708Y-59947482D01*
X142750000Y-59969252D01*
X142750000Y-59135000D01*
X142127169Y-59135000D01*
X142067621Y-59141402D01*
X141932911Y-59191646D01*
X141817810Y-59277810D01*
X141731646Y-59392911D01*
X141681402Y-59527621D01*
X141675000Y-59587169D01*
X141675000Y-60210000D01*
X142509252Y-60210000D01*
X142487482Y-60247708D01*
X142450000Y-60387591D01*
X142450000Y-60532409D01*
X142487482Y-60672292D01*
X142509252Y-60710000D01*
X141675000Y-60710000D01*
X141675000Y-61332830D01*
X141681402Y-61392378D01*
X141731646Y-61527088D01*
X141817810Y-61642189D01*
X141932911Y-61728353D01*
X142075478Y-61781528D01*
X142074185Y-61784992D01*
X142125257Y-61814072D01*
X142160256Y-61880975D01*
X142153529Y-61956179D01*
X142123585Y-62001874D01*
X141988967Y-62136492D01*
X141866327Y-62305289D01*
X141771609Y-62491187D01*
X141707138Y-62689605D01*
X141707136Y-62689613D01*
X141674500Y-62895677D01*
X134700499Y-62895677D01*
X134689105Y-62823736D01*
X134667863Y-62689613D01*
X134667861Y-62689605D01*
X134603390Y-62491187D01*
X134603389Y-62491186D01*
X134603389Y-62491184D01*
X134508670Y-62305286D01*
X134386035Y-62136495D01*
X134386032Y-62136492D01*
X134386030Y-62136489D01*
X134251415Y-62001874D01*
X134215229Y-61935606D01*
X134220616Y-61860294D01*
X134265864Y-61799849D01*
X134300351Y-61783752D01*
X134299522Y-61781528D01*
X134442088Y-61728353D01*
X134557189Y-61642189D01*
X134643353Y-61527088D01*
X134693597Y-61392378D01*
X134700000Y-61332830D01*
X134700000Y-60710000D01*
X133865748Y-60710000D01*
X133887518Y-60672292D01*
X133925000Y-60532409D01*
X133925000Y-60387591D01*
X133887518Y-60247708D01*
X133865748Y-60210000D01*
X134700000Y-60210000D01*
X134700000Y-59587169D01*
X134693597Y-59527621D01*
X134643353Y-59392911D01*
X134557189Y-59277810D01*
X134442088Y-59191646D01*
X134307378Y-59141402D01*
X134247831Y-59135000D01*
X133625000Y-59135000D01*
X133625000Y-59969252D01*
X133587292Y-59947482D01*
X133447409Y-59910000D01*
X133302591Y-59910000D01*
X133162708Y-59947482D01*
X133125000Y-59969252D01*
X133125000Y-59135000D01*
X132502169Y-59135000D01*
X132442621Y-59141402D01*
X132307911Y-59191646D01*
X132192810Y-59277810D01*
X132106646Y-59392911D01*
X132056402Y-59527621D01*
X132050000Y-59587169D01*
X132050000Y-60210000D01*
X132884252Y-60210000D01*
X132862482Y-60247708D01*
X132825000Y-60387591D01*
X132825000Y-60532409D01*
X132862482Y-60672292D01*
X132884252Y-60710000D01*
X132050000Y-60710000D01*
X132050000Y-61332830D01*
X132056402Y-61392378D01*
X132106646Y-61527088D01*
X132192810Y-61642189D01*
X132307911Y-61728353D01*
X132450478Y-61781528D01*
X132449185Y-61784992D01*
X132500257Y-61814072D01*
X132535256Y-61880975D01*
X132528529Y-61956179D01*
X132498585Y-62001874D01*
X132363967Y-62136492D01*
X132241327Y-62305289D01*
X132146609Y-62491187D01*
X132082138Y-62689605D01*
X132082136Y-62689613D01*
X132049500Y-62895677D01*
X125200499Y-62895677D01*
X125189105Y-62823736D01*
X125167863Y-62689613D01*
X125167861Y-62689605D01*
X125103390Y-62491187D01*
X125103389Y-62491186D01*
X125103389Y-62491184D01*
X125008670Y-62305286D01*
X124886035Y-62136495D01*
X124886032Y-62136492D01*
X124886030Y-62136489D01*
X124751415Y-62001874D01*
X124715229Y-61935606D01*
X124720616Y-61860294D01*
X124765864Y-61799849D01*
X124800351Y-61783752D01*
X124799522Y-61781528D01*
X124942088Y-61728353D01*
X125057189Y-61642189D01*
X125143353Y-61527088D01*
X125193597Y-61392378D01*
X125200000Y-61332830D01*
X125200000Y-60710000D01*
X124365748Y-60710000D01*
X124387518Y-60672292D01*
X124425000Y-60532409D01*
X124425000Y-60387591D01*
X124387518Y-60247708D01*
X124365748Y-60210000D01*
X125200000Y-60210000D01*
X125200000Y-59587169D01*
X125193597Y-59527621D01*
X125143353Y-59392911D01*
X125057189Y-59277810D01*
X124942088Y-59191646D01*
X124807378Y-59141402D01*
X124747831Y-59135000D01*
X124125000Y-59135000D01*
X124125000Y-59969252D01*
X124087292Y-59947482D01*
X123947409Y-59910000D01*
X123802591Y-59910000D01*
X123662708Y-59947482D01*
X123625000Y-59969252D01*
X123625000Y-59135000D01*
X123002169Y-59135000D01*
X122942621Y-59141402D01*
X122807911Y-59191646D01*
X122692810Y-59277810D01*
X122606646Y-59392911D01*
X122556402Y-59527621D01*
X122550000Y-59587169D01*
X122550000Y-60210000D01*
X123384252Y-60210000D01*
X123362482Y-60247708D01*
X123325000Y-60387591D01*
X123325000Y-60532409D01*
X123362482Y-60672292D01*
X123384252Y-60710000D01*
X122550000Y-60710000D01*
X122550000Y-61332830D01*
X122556402Y-61392378D01*
X122606646Y-61527088D01*
X122692810Y-61642189D01*
X122807911Y-61728353D01*
X122950478Y-61781528D01*
X122949185Y-61784992D01*
X123000257Y-61814072D01*
X123035256Y-61880975D01*
X123028529Y-61956179D01*
X122998585Y-62001874D01*
X122863967Y-62136492D01*
X122741327Y-62305289D01*
X122646609Y-62491187D01*
X122582138Y-62689605D01*
X122582136Y-62689613D01*
X122549500Y-62895677D01*
X116200499Y-62895677D01*
X116189105Y-62823736D01*
X116167863Y-62689613D01*
X116167861Y-62689605D01*
X116103390Y-62491187D01*
X116103389Y-62491186D01*
X116103389Y-62491184D01*
X116008670Y-62305286D01*
X115886035Y-62136495D01*
X115886032Y-62136492D01*
X115886030Y-62136489D01*
X115751415Y-62001874D01*
X115715229Y-61935606D01*
X115720616Y-61860294D01*
X115765864Y-61799849D01*
X115800351Y-61783752D01*
X115799522Y-61781528D01*
X115942088Y-61728353D01*
X116057189Y-61642189D01*
X116143353Y-61527088D01*
X116193597Y-61392378D01*
X116200000Y-61332830D01*
X116200000Y-60710000D01*
X115365748Y-60710000D01*
X115387518Y-60672292D01*
X115425000Y-60532409D01*
X115425000Y-60387591D01*
X115387518Y-60247708D01*
X115365748Y-60210000D01*
X116200000Y-60210000D01*
X116200000Y-59587169D01*
X116193597Y-59527621D01*
X116143353Y-59392911D01*
X116057189Y-59277810D01*
X115942088Y-59191646D01*
X115807378Y-59141402D01*
X115747831Y-59135000D01*
X115125000Y-59135000D01*
X115125000Y-59969252D01*
X115087292Y-59947482D01*
X114947409Y-59910000D01*
X114802591Y-59910000D01*
X114662708Y-59947482D01*
X114625000Y-59969252D01*
X114625000Y-59135000D01*
X114002169Y-59135000D01*
X113942621Y-59141402D01*
X113807911Y-59191646D01*
X113692810Y-59277810D01*
X113606646Y-59392911D01*
X113556402Y-59527621D01*
X113550000Y-59587169D01*
X113550000Y-60210000D01*
X114384252Y-60210000D01*
X114362482Y-60247708D01*
X114325000Y-60387591D01*
X114325000Y-60532409D01*
X114362482Y-60672292D01*
X114384252Y-60710000D01*
X113550000Y-60710000D01*
X113550000Y-61332830D01*
X113556402Y-61392378D01*
X113606646Y-61527088D01*
X113692810Y-61642189D01*
X113807911Y-61728353D01*
X113950478Y-61781528D01*
X113949185Y-61784992D01*
X114000257Y-61814072D01*
X114035256Y-61880975D01*
X114028529Y-61956179D01*
X113998585Y-62001874D01*
X113863967Y-62136492D01*
X113741327Y-62305289D01*
X113646609Y-62491187D01*
X113582138Y-62689605D01*
X113582136Y-62689613D01*
X113549500Y-62895677D01*
X109500500Y-62895677D01*
X109500500Y-58411309D01*
X174099500Y-58411309D01*
X174099500Y-58588690D01*
X174134104Y-58762660D01*
X174134106Y-58762666D01*
X174201987Y-58926547D01*
X174300536Y-59074035D01*
X174300538Y-59074037D01*
X174300541Y-59074041D01*
X174425958Y-59199458D01*
X174425961Y-59199460D01*
X174425965Y-59199464D01*
X174573453Y-59298013D01*
X174573455Y-59298014D01*
X174573457Y-59298015D01*
X174626529Y-59319997D01*
X174737334Y-59365894D01*
X174737337Y-59365894D01*
X174741778Y-59367734D01*
X174800570Y-59415110D01*
X174824415Y-59486750D01*
X174824500Y-59491534D01*
X174824500Y-59588690D01*
X174859104Y-59762660D01*
X174859106Y-59762666D01*
X174926987Y-59926547D01*
X175025536Y-60074035D01*
X175025538Y-60074037D01*
X175025541Y-60074041D01*
X175150958Y-60199458D01*
X175150961Y-60199460D01*
X175150965Y-60199464D01*
X175298453Y-60298013D01*
X175462334Y-60365894D01*
X175636309Y-60400500D01*
X175636310Y-60400500D01*
X175813690Y-60400500D01*
X175813691Y-60400500D01*
X175987666Y-60365894D01*
X176151547Y-60298013D01*
X176299035Y-60199464D01*
X176424464Y-60074035D01*
X176523013Y-59926547D01*
X176590894Y-59762666D01*
X176625500Y-59588691D01*
X176625500Y-59411309D01*
X176590894Y-59237334D01*
X176523013Y-59073453D01*
X176424464Y-58925965D01*
X176424460Y-58925961D01*
X176424458Y-58925958D01*
X176299041Y-58800541D01*
X176299037Y-58800538D01*
X176299035Y-58800536D01*
X176151547Y-58701987D01*
X176151544Y-58701985D01*
X176151543Y-58701985D01*
X175983221Y-58632264D01*
X175924430Y-58584887D01*
X175900585Y-58513247D01*
X175900500Y-58508464D01*
X175900500Y-58411309D01*
X175865895Y-58237339D01*
X175865894Y-58237338D01*
X175865894Y-58237334D01*
X175798013Y-58073453D01*
X175699464Y-57925965D01*
X175699460Y-57925961D01*
X175699458Y-57925958D01*
X175574041Y-57800541D01*
X175574037Y-57800538D01*
X175574035Y-57800536D01*
X175426547Y-57701987D01*
X175426544Y-57701985D01*
X175426543Y-57701985D01*
X175262666Y-57634106D01*
X175262660Y-57634104D01*
X175123108Y-57606346D01*
X175088691Y-57599500D01*
X174911309Y-57599500D01*
X174882576Y-57605215D01*
X174737339Y-57634104D01*
X174737333Y-57634106D01*
X174573456Y-57701985D01*
X174425958Y-57800541D01*
X174300541Y-57925958D01*
X174201985Y-58073456D01*
X174134106Y-58237333D01*
X174134104Y-58237339D01*
X174099500Y-58411309D01*
X109500500Y-58411309D01*
X109500500Y-47432309D01*
X124548780Y-47432309D01*
X124548780Y-47609690D01*
X124583384Y-47783660D01*
X124583386Y-47783666D01*
X124631779Y-47900500D01*
X124651267Y-47947547D01*
X124749816Y-48095035D01*
X124749818Y-48095037D01*
X124749821Y-48095041D01*
X124875238Y-48220458D01*
X124875241Y-48220460D01*
X124875245Y-48220464D01*
X125022733Y-48319013D01*
X125186614Y-48386894D01*
X125360589Y-48421500D01*
X125360590Y-48421500D01*
X125537970Y-48421500D01*
X125537971Y-48421500D01*
X125711946Y-48386894D01*
X125875827Y-48319013D01*
X126023315Y-48220464D01*
X126148744Y-48095035D01*
X126247293Y-47947547D01*
X126315174Y-47783666D01*
X126349780Y-47609691D01*
X126349780Y-47432309D01*
X126315174Y-47258334D01*
X126247293Y-47094453D01*
X126148744Y-46946965D01*
X126148739Y-46946959D01*
X126113089Y-46911309D01*
X130099500Y-46911309D01*
X130099500Y-47088690D01*
X130134104Y-47262660D01*
X130134106Y-47262666D01*
X130201987Y-47426547D01*
X130300536Y-47574035D01*
X130300538Y-47574037D01*
X130300541Y-47574041D01*
X130425958Y-47699458D01*
X130425961Y-47699460D01*
X130425965Y-47699464D01*
X130573453Y-47798013D01*
X130737334Y-47865894D01*
X130911309Y-47900500D01*
X130911310Y-47900500D01*
X131088690Y-47900500D01*
X131088691Y-47900500D01*
X131262666Y-47865894D01*
X131426547Y-47798013D01*
X131574035Y-47699464D01*
X131699464Y-47574035D01*
X131798013Y-47426547D01*
X131865894Y-47262666D01*
X131900500Y-47088691D01*
X131900500Y-46911309D01*
X131865894Y-46737334D01*
X131798013Y-46573453D01*
X131699464Y-46425965D01*
X131699460Y-46425961D01*
X131699458Y-46425958D01*
X131574041Y-46300541D01*
X131574037Y-46300538D01*
X131574035Y-46300536D01*
X131426547Y-46201987D01*
X131426544Y-46201985D01*
X131426543Y-46201985D01*
X131262666Y-46134106D01*
X131262660Y-46134104D01*
X131123108Y-46106346D01*
X131088691Y-46099500D01*
X130911309Y-46099500D01*
X130882576Y-46105215D01*
X130737339Y-46134104D01*
X130737333Y-46134106D01*
X130573456Y-46201985D01*
X130425958Y-46300541D01*
X130300541Y-46425958D01*
X130201985Y-46573456D01*
X130134106Y-46737333D01*
X130134104Y-46737339D01*
X130099500Y-46911309D01*
X126113089Y-46911309D01*
X126023321Y-46821541D01*
X126023317Y-46821538D01*
X126023315Y-46821536D01*
X125875827Y-46722987D01*
X125875824Y-46722985D01*
X125875823Y-46722985D01*
X125711946Y-46655106D01*
X125711940Y-46655104D01*
X125572388Y-46627346D01*
X125537971Y-46620500D01*
X125360589Y-46620500D01*
X125331856Y-46626215D01*
X125186619Y-46655104D01*
X125186613Y-46655106D01*
X125022736Y-46722985D01*
X124875238Y-46821541D01*
X124749821Y-46946958D01*
X124651265Y-47094456D01*
X124583386Y-47258333D01*
X124583384Y-47258339D01*
X124548780Y-47432309D01*
X109500500Y-47432309D01*
X109500500Y-44905515D01*
X113259500Y-44905515D01*
X113259500Y-45094484D01*
X113289058Y-45281109D01*
X113289059Y-45281112D01*
X113289060Y-45281118D01*
X113316606Y-45365894D01*
X113347453Y-45460832D01*
X113433239Y-45629198D01*
X113544304Y-45782067D01*
X113544313Y-45782077D01*
X113677922Y-45915686D01*
X113677932Y-45915695D01*
X113830801Y-46026760D01*
X113999168Y-46112547D01*
X114178882Y-46170940D01*
X114365517Y-46200499D01*
X114365518Y-46200500D01*
X114365519Y-46200500D01*
X114554482Y-46200500D01*
X114554482Y-46200499D01*
X114741118Y-46170940D01*
X114920832Y-46112547D01*
X115089199Y-46026760D01*
X115170430Y-45967741D01*
X115242067Y-45915695D01*
X115242077Y-45915686D01*
X115375686Y-45782077D01*
X115375695Y-45782067D01*
X115435714Y-45699458D01*
X115486760Y-45629199D01*
X115572547Y-45460832D01*
X115602558Y-45368465D01*
X115645176Y-45306140D01*
X115714725Y-45276749D01*
X115789123Y-45289623D01*
X115844751Y-45340677D01*
X115857442Y-45368467D01*
X115887453Y-45460832D01*
X115973239Y-45629198D01*
X116084304Y-45782067D01*
X116084313Y-45782077D01*
X116217922Y-45915686D01*
X116217932Y-45915695D01*
X116370801Y-46026760D01*
X116539168Y-46112547D01*
X116718882Y-46170940D01*
X116905517Y-46200499D01*
X116905518Y-46200500D01*
X116905519Y-46200500D01*
X117094482Y-46200500D01*
X117094482Y-46200499D01*
X117281118Y-46170940D01*
X117460832Y-46112547D01*
X117629199Y-46026760D01*
X117710430Y-45967741D01*
X117782067Y-45915695D01*
X117782077Y-45915686D01*
X117915686Y-45782077D01*
X117915695Y-45782067D01*
X117975714Y-45699458D01*
X118026760Y-45629199D01*
X118112547Y-45460832D01*
X118170940Y-45281118D01*
X118200500Y-45094481D01*
X118200500Y-44905519D01*
X118170940Y-44718882D01*
X118112547Y-44539168D01*
X118026760Y-44370801D01*
X118014152Y-44353447D01*
X117915695Y-44217932D01*
X117915686Y-44217922D01*
X117782077Y-44084313D01*
X117782067Y-44084304D01*
X117684109Y-44013134D01*
X117629198Y-43973239D01*
X117507652Y-43911309D01*
X120099500Y-43911309D01*
X120099500Y-44088690D01*
X120134104Y-44262660D01*
X120134106Y-44262666D01*
X120178896Y-44370801D01*
X120201987Y-44426547D01*
X120300536Y-44574035D01*
X120300538Y-44574037D01*
X120300541Y-44574041D01*
X120425958Y-44699458D01*
X120425961Y-44699460D01*
X120425965Y-44699464D01*
X120573453Y-44798013D01*
X120737334Y-44865894D01*
X120911309Y-44900500D01*
X120911310Y-44900500D01*
X121088690Y-44900500D01*
X121088691Y-44900500D01*
X121262666Y-44865894D01*
X121426547Y-44798013D01*
X121574035Y-44699464D01*
X121699464Y-44574035D01*
X121798013Y-44426547D01*
X121804325Y-44411309D01*
X138099500Y-44411309D01*
X138099500Y-44588690D01*
X138134104Y-44762660D01*
X138134106Y-44762666D01*
X138176863Y-44865893D01*
X138201987Y-44926547D01*
X138300536Y-45074035D01*
X138300538Y-45074037D01*
X138300541Y-45074041D01*
X138425958Y-45199458D01*
X138425961Y-45199460D01*
X138425965Y-45199464D01*
X138573453Y-45298013D01*
X138737334Y-45365894D01*
X138911309Y-45400500D01*
X138911310Y-45400500D01*
X139088690Y-45400500D01*
X139088691Y-45400500D01*
X139262666Y-45365894D01*
X139426547Y-45298013D01*
X139574035Y-45199464D01*
X139699464Y-45074035D01*
X139798013Y-44926547D01*
X139804325Y-44911309D01*
X165099500Y-44911309D01*
X165099500Y-45088690D01*
X165134104Y-45262660D01*
X165134106Y-45262666D01*
X165176863Y-45365893D01*
X165201987Y-45426547D01*
X165300536Y-45574035D01*
X165300538Y-45574037D01*
X165300541Y-45574041D01*
X165425958Y-45699458D01*
X165425961Y-45699460D01*
X165425965Y-45699464D01*
X165573453Y-45798013D01*
X165737334Y-45865894D01*
X165911309Y-45900500D01*
X165911310Y-45900500D01*
X166088690Y-45900500D01*
X166088691Y-45900500D01*
X166262666Y-45865894D01*
X166426547Y-45798013D01*
X166574035Y-45699464D01*
X166699464Y-45574035D01*
X166798013Y-45426547D01*
X166865894Y-45262666D01*
X166900500Y-45088691D01*
X166900500Y-44911309D01*
X166865894Y-44737334D01*
X166798013Y-44573453D01*
X166699464Y-44425965D01*
X166699460Y-44425961D01*
X166699458Y-44425958D01*
X166574041Y-44300541D01*
X166574037Y-44300538D01*
X166574035Y-44300536D01*
X166426547Y-44201987D01*
X166426544Y-44201985D01*
X166426543Y-44201985D01*
X166262666Y-44134106D01*
X166262660Y-44134104D01*
X166123108Y-44106346D01*
X166088691Y-44099500D01*
X165911309Y-44099500D01*
X165882576Y-44105215D01*
X165737339Y-44134104D01*
X165737333Y-44134106D01*
X165573456Y-44201985D01*
X165573453Y-44201986D01*
X165573453Y-44201987D01*
X165520546Y-44237339D01*
X165425958Y-44300541D01*
X165300541Y-44425958D01*
X165201985Y-44573456D01*
X165134106Y-44737333D01*
X165134104Y-44737339D01*
X165099500Y-44911309D01*
X139804325Y-44911309D01*
X139823136Y-44865894D01*
X139828292Y-44853447D01*
X139837309Y-44831676D01*
X139865894Y-44762666D01*
X139900500Y-44588691D01*
X139900500Y-44411309D01*
X139865894Y-44237334D01*
X139798013Y-44073453D01*
X139731052Y-43973240D01*
X139699464Y-43925965D01*
X139699459Y-43925959D01*
X139684809Y-43911309D01*
X176599500Y-43911309D01*
X176599500Y-44088690D01*
X176634104Y-44262660D01*
X176634106Y-44262666D01*
X176678896Y-44370801D01*
X176701987Y-44426547D01*
X176800536Y-44574035D01*
X176800538Y-44574037D01*
X176800541Y-44574041D01*
X176925958Y-44699458D01*
X176925961Y-44699460D01*
X176925965Y-44699464D01*
X177073453Y-44798013D01*
X177237334Y-44865894D01*
X177411309Y-44900500D01*
X177411310Y-44900500D01*
X177588690Y-44900500D01*
X177588691Y-44900500D01*
X177762666Y-44865894D01*
X177926547Y-44798013D01*
X178074035Y-44699464D01*
X178199464Y-44574035D01*
X178298013Y-44426547D01*
X178365894Y-44262666D01*
X178400500Y-44088691D01*
X178400500Y-43911309D01*
X178365894Y-43737334D01*
X178298013Y-43573453D01*
X178199464Y-43425965D01*
X178199460Y-43425961D01*
X178199458Y-43425958D01*
X178074041Y-43300541D01*
X178074037Y-43300538D01*
X178074035Y-43300536D01*
X177926547Y-43201987D01*
X177926544Y-43201985D01*
X177926543Y-43201985D01*
X177762666Y-43134106D01*
X177762660Y-43134104D01*
X177623108Y-43106346D01*
X177588691Y-43099500D01*
X177411309Y-43099500D01*
X177382576Y-43105215D01*
X177237339Y-43134104D01*
X177237333Y-43134106D01*
X177073456Y-43201985D01*
X177073453Y-43201986D01*
X177073453Y-43201987D01*
X176993082Y-43255690D01*
X176925958Y-43300541D01*
X176800541Y-43425958D01*
X176800536Y-43425964D01*
X176800536Y-43425965D01*
X176724006Y-43540499D01*
X176701985Y-43573456D01*
X176634106Y-43737333D01*
X176634104Y-43737339D01*
X176599500Y-43911309D01*
X139684809Y-43911309D01*
X139574041Y-43800541D01*
X139574037Y-43800538D01*
X139574035Y-43800536D01*
X139426547Y-43701987D01*
X139426544Y-43701985D01*
X139426543Y-43701985D01*
X139262666Y-43634106D01*
X139262660Y-43634104D01*
X139123108Y-43606346D01*
X139088691Y-43599500D01*
X138911309Y-43599500D01*
X138882576Y-43605215D01*
X138737339Y-43634104D01*
X138737333Y-43634106D01*
X138573456Y-43701985D01*
X138573453Y-43701986D01*
X138573453Y-43701987D01*
X138427516Y-43799500D01*
X138425958Y-43800541D01*
X138300541Y-43925958D01*
X138300536Y-43925964D01*
X138300536Y-43925965D01*
X138242291Y-44013134D01*
X138201985Y-44073456D01*
X138134106Y-44237333D01*
X138134104Y-44237339D01*
X138099500Y-44411309D01*
X121804325Y-44411309D01*
X121818468Y-44377163D01*
X121828292Y-44353447D01*
X121837309Y-44331676D01*
X121865894Y-44262666D01*
X121900500Y-44088691D01*
X121900500Y-43911309D01*
X121865894Y-43737334D01*
X121798013Y-43573453D01*
X121699464Y-43425965D01*
X121699460Y-43425961D01*
X121699458Y-43425958D01*
X121574041Y-43300541D01*
X121574037Y-43300538D01*
X121574035Y-43300536D01*
X121426547Y-43201987D01*
X121426544Y-43201985D01*
X121426543Y-43201985D01*
X121262666Y-43134106D01*
X121262660Y-43134104D01*
X121123108Y-43106346D01*
X121088691Y-43099500D01*
X120911309Y-43099500D01*
X120882576Y-43105215D01*
X120737339Y-43134104D01*
X120737333Y-43134106D01*
X120573456Y-43201985D01*
X120573453Y-43201986D01*
X120573453Y-43201987D01*
X120493082Y-43255690D01*
X120425958Y-43300541D01*
X120300541Y-43425958D01*
X120300536Y-43425964D01*
X120300536Y-43425965D01*
X120224006Y-43540499D01*
X120201985Y-43573456D01*
X120134106Y-43737333D01*
X120134104Y-43737339D01*
X120099500Y-43911309D01*
X117507652Y-43911309D01*
X117460832Y-43887453D01*
X117281118Y-43829060D01*
X117281112Y-43829059D01*
X117281109Y-43829058D01*
X117094484Y-43799500D01*
X117094481Y-43799500D01*
X116905519Y-43799500D01*
X116905515Y-43799500D01*
X116718890Y-43829058D01*
X116718885Y-43829059D01*
X116718882Y-43829060D01*
X116602345Y-43866925D01*
X116539167Y-43887453D01*
X116370801Y-43973239D01*
X116217932Y-44084304D01*
X116217922Y-44084313D01*
X116084313Y-44217922D01*
X116084304Y-44217932D01*
X115973239Y-44370801D01*
X115887453Y-44539167D01*
X115857442Y-44631532D01*
X115814824Y-44693859D01*
X115745275Y-44723251D01*
X115670876Y-44710375D01*
X115615249Y-44659321D01*
X115602558Y-44631532D01*
X115588638Y-44588691D01*
X115572547Y-44539168D01*
X115486760Y-44370801D01*
X115474152Y-44353447D01*
X115375695Y-44217932D01*
X115375686Y-44217922D01*
X115242077Y-44084313D01*
X115242067Y-44084304D01*
X115089198Y-43973239D01*
X114920832Y-43887453D01*
X114741118Y-43829060D01*
X114741112Y-43829059D01*
X114741109Y-43829058D01*
X114554484Y-43799500D01*
X114554481Y-43799500D01*
X114365519Y-43799500D01*
X114365515Y-43799500D01*
X114178890Y-43829058D01*
X114178885Y-43829059D01*
X114178882Y-43829060D01*
X114062345Y-43866925D01*
X113999167Y-43887453D01*
X113830801Y-43973239D01*
X113677932Y-44084304D01*
X113677922Y-44084313D01*
X113544313Y-44217922D01*
X113544304Y-44217932D01*
X113433239Y-44370801D01*
X113347453Y-44539167D01*
X113347453Y-44539168D01*
X113289060Y-44718882D01*
X113289059Y-44718885D01*
X113289058Y-44718890D01*
X113259500Y-44905515D01*
X109500500Y-44905515D01*
X109500500Y-39911309D01*
X118099500Y-39911309D01*
X118099500Y-40088690D01*
X118134104Y-40262660D01*
X118134106Y-40262666D01*
X118145309Y-40289714D01*
X118201987Y-40426547D01*
X118300536Y-40574035D01*
X118300538Y-40574037D01*
X118300541Y-40574041D01*
X118425958Y-40699458D01*
X118425961Y-40699460D01*
X118425965Y-40699464D01*
X118573453Y-40798013D01*
X118737334Y-40865894D01*
X118911309Y-40900500D01*
X118911310Y-40900500D01*
X119088690Y-40900500D01*
X119088691Y-40900500D01*
X119262666Y-40865894D01*
X119426547Y-40798013D01*
X119574035Y-40699464D01*
X119699464Y-40574035D01*
X119798013Y-40426547D01*
X119865894Y-40262666D01*
X119868575Y-40249190D01*
X119903571Y-40182286D01*
X119969183Y-40144923D01*
X120044579Y-40148964D01*
X120105822Y-40193125D01*
X120131425Y-40249190D01*
X120134104Y-40262658D01*
X120134106Y-40262666D01*
X120145309Y-40289714D01*
X120201987Y-40426547D01*
X120300536Y-40574035D01*
X120300538Y-40574037D01*
X120300541Y-40574041D01*
X120425958Y-40699458D01*
X120425961Y-40699460D01*
X120425965Y-40699464D01*
X120573453Y-40798013D01*
X120737334Y-40865894D01*
X120911309Y-40900500D01*
X120911310Y-40900500D01*
X121088690Y-40900500D01*
X121088691Y-40900500D01*
X121262666Y-40865894D01*
X121426547Y-40798013D01*
X121574035Y-40699464D01*
X121699464Y-40574035D01*
X121798013Y-40426547D01*
X121865894Y-40262666D01*
X121900500Y-40088691D01*
X121900500Y-39911309D01*
X121865894Y-39737334D01*
X121852714Y-39705515D01*
X131302780Y-39705515D01*
X131302780Y-39894484D01*
X131332338Y-40081109D01*
X131332339Y-40081112D01*
X131332340Y-40081118D01*
X131363888Y-40178211D01*
X131390733Y-40260832D01*
X131476519Y-40429198D01*
X131587584Y-40582067D01*
X131587593Y-40582077D01*
X131721202Y-40715686D01*
X131721212Y-40715695D01*
X131874081Y-40826760D01*
X132042448Y-40912547D01*
X132134812Y-40942558D01*
X132197139Y-40985176D01*
X132226531Y-41054725D01*
X132213655Y-41129124D01*
X132162601Y-41184751D01*
X132134812Y-41197442D01*
X132042447Y-41227453D01*
X131874081Y-41313239D01*
X131721212Y-41424304D01*
X131721202Y-41424313D01*
X131587593Y-41557922D01*
X131587584Y-41557932D01*
X131476519Y-41710801D01*
X131390733Y-41879167D01*
X131390733Y-41879168D01*
X131332340Y-42058882D01*
X131332339Y-42058885D01*
X131332338Y-42058890D01*
X131302780Y-42245515D01*
X131302780Y-42434484D01*
X131332338Y-42621109D01*
X131332339Y-42621112D01*
X131332340Y-42621118D01*
X131389817Y-42798013D01*
X131390733Y-42800832D01*
X131476519Y-42969198D01*
X131587584Y-43122067D01*
X131587593Y-43122077D01*
X131721202Y-43255686D01*
X131721212Y-43255695D01*
X131874081Y-43366760D01*
X132042448Y-43452547D01*
X132222162Y-43510940D01*
X132408797Y-43540499D01*
X132408798Y-43540500D01*
X132408799Y-43540500D01*
X132597762Y-43540500D01*
X132597762Y-43540499D01*
X132784398Y-43510940D01*
X132964112Y-43452547D01*
X133132479Y-43366760D01*
X133223628Y-43300536D01*
X133285347Y-43255695D01*
X133285357Y-43255686D01*
X133418966Y-43122077D01*
X133418975Y-43122067D01*
X133471021Y-43050430D01*
X133530040Y-42969199D01*
X133615827Y-42800832D01*
X133674220Y-42621118D01*
X133703780Y-42434481D01*
X133703780Y-42245519D01*
X133674220Y-42058882D01*
X133655691Y-42001857D01*
X133637586Y-41946133D01*
X133637585Y-41946131D01*
X133626271Y-41911309D01*
X165099500Y-41911309D01*
X165099500Y-42088690D01*
X165134104Y-42262660D01*
X165134106Y-42262666D01*
X165201987Y-42426547D01*
X165300536Y-42574035D01*
X165300538Y-42574037D01*
X165300541Y-42574041D01*
X165425958Y-42699458D01*
X165425961Y-42699460D01*
X165425965Y-42699464D01*
X165573453Y-42798013D01*
X165737334Y-42865894D01*
X165911309Y-42900500D01*
X165911310Y-42900500D01*
X166088690Y-42900500D01*
X166088691Y-42900500D01*
X166262666Y-42865894D01*
X166426547Y-42798013D01*
X166574035Y-42699464D01*
X166699464Y-42574035D01*
X166798013Y-42426547D01*
X166865894Y-42262666D01*
X166900500Y-42088691D01*
X166900500Y-41911309D01*
X175599500Y-41911309D01*
X175599500Y-42088690D01*
X175634104Y-42262660D01*
X175634106Y-42262666D01*
X175701987Y-42426547D01*
X175800536Y-42574035D01*
X175800538Y-42574037D01*
X175800541Y-42574041D01*
X175925958Y-42699458D01*
X175925961Y-42699460D01*
X175925965Y-42699464D01*
X176073453Y-42798013D01*
X176237334Y-42865894D01*
X176411309Y-42900500D01*
X176411310Y-42900500D01*
X176588690Y-42900500D01*
X176588691Y-42900500D01*
X176762666Y-42865894D01*
X176926547Y-42798013D01*
X177074035Y-42699464D01*
X177199464Y-42574035D01*
X177298013Y-42426547D01*
X177365894Y-42262666D01*
X177400500Y-42088691D01*
X177400500Y-41911309D01*
X177365894Y-41737334D01*
X177298013Y-41573453D01*
X177199464Y-41425965D01*
X177199460Y-41425961D01*
X177199458Y-41425958D01*
X177074041Y-41300541D01*
X177074037Y-41300538D01*
X177074035Y-41300536D01*
X176926547Y-41201987D01*
X176926544Y-41201985D01*
X176926543Y-41201985D01*
X176762666Y-41134106D01*
X176762660Y-41134104D01*
X176623108Y-41106346D01*
X176588691Y-41099500D01*
X176411309Y-41099500D01*
X176382576Y-41105215D01*
X176237339Y-41134104D01*
X176237333Y-41134106D01*
X176073456Y-41201985D01*
X175925958Y-41300541D01*
X175800541Y-41425958D01*
X175701985Y-41573456D01*
X175634106Y-41737333D01*
X175634104Y-41737339D01*
X175599500Y-41911309D01*
X166900500Y-41911309D01*
X166865894Y-41737334D01*
X166798013Y-41573453D01*
X166699464Y-41425965D01*
X166699460Y-41425961D01*
X166699458Y-41425958D01*
X166574041Y-41300541D01*
X166574037Y-41300538D01*
X166574035Y-41300536D01*
X166426547Y-41201987D01*
X166426544Y-41201985D01*
X166426543Y-41201985D01*
X166262666Y-41134106D01*
X166262660Y-41134104D01*
X166123108Y-41106346D01*
X166088691Y-41099500D01*
X165911309Y-41099500D01*
X165882576Y-41105215D01*
X165737339Y-41134104D01*
X165737333Y-41134106D01*
X165573456Y-41201985D01*
X165425958Y-41300541D01*
X165300541Y-41425958D01*
X165201985Y-41573456D01*
X165134106Y-41737333D01*
X165134104Y-41737339D01*
X165099500Y-41911309D01*
X133626271Y-41911309D01*
X133615828Y-41879170D01*
X133530040Y-41710801D01*
X133418975Y-41557932D01*
X133418966Y-41557922D01*
X133285357Y-41424313D01*
X133285347Y-41424304D01*
X133132478Y-41313239D01*
X132964112Y-41227453D01*
X132871745Y-41197441D01*
X132809420Y-41154824D01*
X132780029Y-41085275D01*
X132792903Y-41010877D01*
X132843957Y-40955249D01*
X132871743Y-40942559D01*
X132964112Y-40912547D01*
X133132479Y-40826760D01*
X133213710Y-40767741D01*
X133277828Y-40721158D01*
X156899500Y-40721158D01*
X156899500Y-40878841D01*
X156930261Y-41033491D01*
X156930263Y-41033497D01*
X156990605Y-41179178D01*
X157078207Y-41310285D01*
X157189714Y-41421792D01*
X157320821Y-41509394D01*
X157466503Y-41569737D01*
X157621158Y-41600500D01*
X157621159Y-41600500D01*
X157778841Y-41600500D01*
X157778842Y-41600500D01*
X157933497Y-41569737D01*
X158079179Y-41509394D01*
X158167180Y-41450593D01*
X158210285Y-41421792D01*
X158210285Y-41421791D01*
X158210289Y-41421789D01*
X158321789Y-41310289D01*
X158328303Y-41300541D01*
X158394154Y-41201987D01*
X158409394Y-41179179D01*
X158469737Y-41033497D01*
X158500500Y-40878842D01*
X158500500Y-40721158D01*
X158469737Y-40566503D01*
X158409394Y-40420821D01*
X158321792Y-40289714D01*
X158210285Y-40178207D01*
X158079178Y-40090605D01*
X157933497Y-40030263D01*
X157933491Y-40030261D01*
X157809436Y-40005585D01*
X157778842Y-39999500D01*
X157621158Y-39999500D01*
X157595616Y-40004580D01*
X157466508Y-40030261D01*
X157466502Y-40030263D01*
X157320821Y-40090605D01*
X157189714Y-40178207D01*
X157078207Y-40289714D01*
X156990605Y-40420821D01*
X156930263Y-40566502D01*
X156930261Y-40566508D01*
X156899500Y-40721158D01*
X133277828Y-40721158D01*
X133285347Y-40715695D01*
X133285357Y-40715686D01*
X133381221Y-40619823D01*
X133418966Y-40582077D01*
X133418975Y-40582067D01*
X133471021Y-40510430D01*
X133530040Y-40429199D01*
X133615827Y-40260832D01*
X133674220Y-40081118D01*
X133703780Y-39894481D01*
X133703780Y-39705519D01*
X133674220Y-39518882D01*
X133615827Y-39339168D01*
X133530040Y-39170801D01*
X133418975Y-39017932D01*
X133418966Y-39017922D01*
X133285357Y-38884313D01*
X133285347Y-38884304D01*
X133132478Y-38773239D01*
X132964112Y-38687453D01*
X132784398Y-38629060D01*
X132784392Y-38629059D01*
X132784389Y-38629058D01*
X132597764Y-38599500D01*
X132597761Y-38599500D01*
X132408799Y-38599500D01*
X132408795Y-38599500D01*
X132222170Y-38629058D01*
X132222165Y-38629059D01*
X132222162Y-38629060D01*
X132105625Y-38666925D01*
X132042447Y-38687453D01*
X131874081Y-38773239D01*
X131721212Y-38884304D01*
X131721202Y-38884313D01*
X131587593Y-39017922D01*
X131587584Y-39017932D01*
X131476519Y-39170801D01*
X131390733Y-39339167D01*
X131390733Y-39339168D01*
X131332340Y-39518882D01*
X131332339Y-39518885D01*
X131332338Y-39518890D01*
X131302780Y-39705515D01*
X121852714Y-39705515D01*
X121798013Y-39573453D01*
X121699464Y-39425965D01*
X121699460Y-39425961D01*
X121699458Y-39425958D01*
X121574041Y-39300541D01*
X121574037Y-39300538D01*
X121574035Y-39300536D01*
X121426547Y-39201987D01*
X121426544Y-39201985D01*
X121426543Y-39201985D01*
X121262666Y-39134106D01*
X121262660Y-39134104D01*
X121123108Y-39106346D01*
X121088691Y-39099500D01*
X120911309Y-39099500D01*
X120882576Y-39105215D01*
X120737339Y-39134104D01*
X120737333Y-39134106D01*
X120573456Y-39201985D01*
X120425958Y-39300541D01*
X120300541Y-39425958D01*
X120300536Y-39425964D01*
X120300536Y-39425965D01*
X120238445Y-39518890D01*
X120201985Y-39573456D01*
X120134106Y-39737333D01*
X120134105Y-39737337D01*
X120131425Y-39750811D01*
X120096428Y-39817714D01*
X120030816Y-39855077D01*
X119955420Y-39851035D01*
X119894178Y-39806873D01*
X119868575Y-39750811D01*
X119867803Y-39746935D01*
X119865894Y-39737334D01*
X119798013Y-39573453D01*
X119699464Y-39425965D01*
X119699460Y-39425961D01*
X119699458Y-39425958D01*
X119574041Y-39300541D01*
X119574037Y-39300538D01*
X119574035Y-39300536D01*
X119426547Y-39201987D01*
X119426544Y-39201985D01*
X119426543Y-39201985D01*
X119262666Y-39134106D01*
X119262660Y-39134104D01*
X119123108Y-39106346D01*
X119088691Y-39099500D01*
X118911309Y-39099500D01*
X118882576Y-39105215D01*
X118737339Y-39134104D01*
X118737333Y-39134106D01*
X118573456Y-39201985D01*
X118425958Y-39300541D01*
X118300541Y-39425958D01*
X118300536Y-39425964D01*
X118300536Y-39425965D01*
X118238445Y-39518890D01*
X118201985Y-39573456D01*
X118134106Y-39737333D01*
X118134104Y-39737339D01*
X118099500Y-39911309D01*
X109500500Y-39911309D01*
X109500500Y-37911309D01*
X123099500Y-37911309D01*
X123099500Y-38088690D01*
X123134104Y-38262660D01*
X123134106Y-38262666D01*
X123188525Y-38394048D01*
X123201987Y-38426547D01*
X123300536Y-38574035D01*
X123300538Y-38574037D01*
X123300541Y-38574041D01*
X123425958Y-38699458D01*
X123425961Y-38699460D01*
X123425965Y-38699464D01*
X123573453Y-38798013D01*
X123737334Y-38865894D01*
X123911309Y-38900500D01*
X123911310Y-38900500D01*
X124088690Y-38900500D01*
X124088691Y-38900500D01*
X124262666Y-38865894D01*
X124426547Y-38798013D01*
X124574035Y-38699464D01*
X124699464Y-38574035D01*
X124798013Y-38426547D01*
X124865894Y-38262666D01*
X124900500Y-38088691D01*
X124900500Y-37911309D01*
X124865894Y-37737334D01*
X124798013Y-37573453D01*
X124699464Y-37425965D01*
X124699460Y-37425961D01*
X124699458Y-37425958D01*
X124574041Y-37300541D01*
X124574037Y-37300538D01*
X124574035Y-37300536D01*
X124569985Y-37297830D01*
X129750000Y-37297830D01*
X129756402Y-37357378D01*
X129806646Y-37492088D01*
X129892810Y-37607189D01*
X130007911Y-37693353D01*
X130142621Y-37743597D01*
X130202169Y-37750000D01*
X130750000Y-37750000D01*
X131250000Y-37750000D01*
X131797831Y-37750000D01*
X131857378Y-37743597D01*
X131992088Y-37693353D01*
X132107189Y-37607189D01*
X132193353Y-37492088D01*
X132243597Y-37357378D01*
X132250000Y-37297830D01*
X132250000Y-36838142D01*
X152467000Y-36838142D01*
X152467000Y-37161857D01*
X152502776Y-37387742D01*
X152515385Y-37426547D01*
X152573452Y-37605258D01*
X152574436Y-37607189D01*
X152677283Y-37809040D01*
X152811708Y-37994060D01*
X152811717Y-37994070D01*
X152973429Y-38155782D01*
X152973439Y-38155791D01*
X153158459Y-38290216D01*
X153228926Y-38326120D01*
X153362242Y-38394048D01*
X153515351Y-38443796D01*
X153579757Y-38464723D01*
X153726783Y-38488009D01*
X153805644Y-38500499D01*
X153805645Y-38500500D01*
X153805646Y-38500500D01*
X154034355Y-38500500D01*
X154034355Y-38500499D01*
X154147299Y-38482611D01*
X154260242Y-38464723D01*
X154264308Y-38463401D01*
X154477758Y-38394048D01*
X154681538Y-38290217D01*
X154681537Y-38290217D01*
X154681540Y-38290216D01*
X154866560Y-38155791D01*
X154866570Y-38155782D01*
X155028282Y-37994070D01*
X155028286Y-37994066D01*
X155081900Y-37920271D01*
X155141690Y-37874166D01*
X155216917Y-37867704D01*
X155283696Y-37902938D01*
X155298716Y-37920272D01*
X155352086Y-37993730D01*
X155352096Y-37993741D01*
X155513758Y-38155403D01*
X155513769Y-38155413D01*
X155698724Y-38289789D01*
X155902431Y-38393583D01*
X156119880Y-38464235D01*
X156210000Y-38478509D01*
X156210000Y-37490747D01*
X156247708Y-37512518D01*
X156387591Y-37550000D01*
X156532409Y-37550000D01*
X156672292Y-37512518D01*
X156710000Y-37490747D01*
X156710000Y-38478508D01*
X156800119Y-38464235D01*
X157017568Y-38393583D01*
X157221275Y-38289789D01*
X157393412Y-38164725D01*
X157464525Y-38139352D01*
X157538067Y-38156453D01*
X157590689Y-38210599D01*
X157597726Y-38226304D01*
X157603703Y-38242330D01*
X157689953Y-38357546D01*
X157738093Y-38393583D01*
X157805169Y-38443796D01*
X157940013Y-38494090D01*
X157940016Y-38494091D01*
X157948180Y-38494968D01*
X157999627Y-38500500D01*
X160000372Y-38500499D01*
X160059983Y-38494091D01*
X160194831Y-38443796D01*
X160310046Y-38357546D01*
X160396296Y-38242331D01*
X160446591Y-38107483D01*
X160453000Y-38047873D01*
X160452999Y-36911309D01*
X165099500Y-36911309D01*
X165099500Y-37088690D01*
X165134104Y-37262660D01*
X165134106Y-37262666D01*
X165185913Y-37387742D01*
X165201987Y-37426547D01*
X165300536Y-37574035D01*
X165300538Y-37574037D01*
X165300541Y-37574041D01*
X165425958Y-37699458D01*
X165425961Y-37699460D01*
X165425965Y-37699464D01*
X165573453Y-37798013D01*
X165737334Y-37865894D01*
X165911309Y-37900500D01*
X165911310Y-37900500D01*
X166088690Y-37900500D01*
X166088691Y-37900500D01*
X166262666Y-37865894D01*
X166426547Y-37798013D01*
X166574035Y-37699464D01*
X166699464Y-37574035D01*
X166798013Y-37426547D01*
X166865894Y-37262666D01*
X166900500Y-37088691D01*
X166900500Y-36911309D01*
X166865894Y-36737334D01*
X166798013Y-36573453D01*
X166699464Y-36425965D01*
X166699460Y-36425961D01*
X166699458Y-36425958D01*
X166574041Y-36300541D01*
X166574037Y-36300538D01*
X166574035Y-36300536D01*
X166426547Y-36201987D01*
X166426544Y-36201985D01*
X166426543Y-36201985D01*
X166262666Y-36134106D01*
X166262660Y-36134104D01*
X166123108Y-36106346D01*
X166088691Y-36099500D01*
X165911309Y-36099500D01*
X165882576Y-36105215D01*
X165737339Y-36134104D01*
X165737333Y-36134106D01*
X165573456Y-36201985D01*
X165425958Y-36300541D01*
X165300541Y-36425958D01*
X165300536Y-36425964D01*
X165300536Y-36425965D01*
X165220279Y-36546078D01*
X165201985Y-36573456D01*
X165134106Y-36737333D01*
X165134104Y-36737339D01*
X165099500Y-36911309D01*
X160452999Y-36911309D01*
X160452999Y-35952128D01*
X160446591Y-35892517D01*
X160396296Y-35757669D01*
X160343314Y-35686894D01*
X160310046Y-35642453D01*
X160233091Y-35584845D01*
X160194831Y-35556204D01*
X160194829Y-35556203D01*
X160194830Y-35556203D01*
X160059986Y-35505909D01*
X160059983Y-35505908D01*
X160000375Y-35499500D01*
X157999627Y-35499500D01*
X157999623Y-35499501D01*
X157940015Y-35505909D01*
X157805169Y-35556203D01*
X157689953Y-35642453D01*
X157603703Y-35757670D01*
X157597725Y-35773697D01*
X157552476Y-35834140D01*
X157481732Y-35860525D01*
X157407953Y-35844474D01*
X157393412Y-35835274D01*
X157221275Y-35710210D01*
X157017568Y-35606416D01*
X156800128Y-35535766D01*
X156710000Y-35521490D01*
X156710000Y-36509252D01*
X156672292Y-36487482D01*
X156532409Y-36450000D01*
X156387591Y-36450000D01*
X156247708Y-36487482D01*
X156210000Y-36509252D01*
X156210000Y-35521490D01*
X156119871Y-35535766D01*
X155902431Y-35606416D01*
X155698724Y-35710210D01*
X155513769Y-35844586D01*
X155513758Y-35844596D01*
X155352096Y-36006258D01*
X155352086Y-36006269D01*
X155298717Y-36079727D01*
X155238925Y-36125834D01*
X155163698Y-36132295D01*
X155096919Y-36097060D01*
X155081901Y-36079727D01*
X155028291Y-36005939D01*
X155028282Y-36005929D01*
X154866570Y-35844217D01*
X154866560Y-35844208D01*
X154681540Y-35709783D01*
X154545684Y-35640562D01*
X154477758Y-35605952D01*
X154425411Y-35588943D01*
X154260242Y-35535276D01*
X154034357Y-35499500D01*
X154034354Y-35499500D01*
X153805646Y-35499500D01*
X153805642Y-35499500D01*
X153579757Y-35535276D01*
X153362242Y-35605952D01*
X153158459Y-35709783D01*
X152973439Y-35844208D01*
X152973429Y-35844217D01*
X152811717Y-36005929D01*
X152811708Y-36005939D01*
X152677283Y-36190959D01*
X152573452Y-36394742D01*
X152502776Y-36612257D01*
X152467000Y-36838142D01*
X132250000Y-36838142D01*
X132250000Y-36750000D01*
X131250000Y-36750000D01*
X131250000Y-37750000D01*
X130750000Y-37750000D01*
X130750000Y-36750000D01*
X129750000Y-36750000D01*
X129750000Y-37297830D01*
X124569985Y-37297830D01*
X124426547Y-37201987D01*
X124426544Y-37201985D01*
X124426543Y-37201985D01*
X124262666Y-37134106D01*
X124262660Y-37134104D01*
X124123108Y-37106346D01*
X124088691Y-37099500D01*
X123911309Y-37099500D01*
X123882576Y-37105215D01*
X123737339Y-37134104D01*
X123737333Y-37134106D01*
X123573456Y-37201985D01*
X123425958Y-37300541D01*
X123300541Y-37425958D01*
X123201985Y-37573456D01*
X123134106Y-37737333D01*
X123134104Y-37737339D01*
X123099500Y-37911309D01*
X109500500Y-37911309D01*
X109500500Y-36453922D01*
X130650000Y-36453922D01*
X130650000Y-36546078D01*
X130673852Y-36635095D01*
X130719930Y-36714905D01*
X130785095Y-36780070D01*
X130864905Y-36826148D01*
X130953922Y-36850000D01*
X131046078Y-36850000D01*
X131135095Y-36826148D01*
X131214905Y-36780070D01*
X131280070Y-36714905D01*
X131326148Y-36635095D01*
X131350000Y-36546078D01*
X131350000Y-36453922D01*
X131326148Y-36364905D01*
X131280070Y-36285095D01*
X131244975Y-36250000D01*
X131250000Y-36250000D01*
X132250000Y-36250000D01*
X132250000Y-35702169D01*
X132243597Y-35642621D01*
X132193353Y-35507911D01*
X132107189Y-35392810D01*
X131992088Y-35306646D01*
X131857378Y-35256402D01*
X131797831Y-35250000D01*
X131250000Y-35250000D01*
X131250000Y-36250000D01*
X131244975Y-36250000D01*
X131214905Y-36219930D01*
X131135095Y-36173852D01*
X131046078Y-36150000D01*
X130953922Y-36150000D01*
X130864905Y-36173852D01*
X130785095Y-36219930D01*
X130719930Y-36285095D01*
X130673852Y-36364905D01*
X130650000Y-36453922D01*
X109500500Y-36453922D01*
X109500500Y-35702169D01*
X129750000Y-35702169D01*
X129750000Y-36250000D01*
X130750000Y-36250000D01*
X130750000Y-35250000D01*
X130202169Y-35250000D01*
X130142621Y-35256402D01*
X130007911Y-35306646D01*
X129892810Y-35392810D01*
X129806646Y-35507911D01*
X129756402Y-35642621D01*
X129750000Y-35702169D01*
X109500500Y-35702169D01*
X109500500Y-34732309D01*
X143090780Y-34732309D01*
X143090780Y-34909690D01*
X143125384Y-35083660D01*
X143125386Y-35083666D01*
X143193267Y-35247547D01*
X143291816Y-35395035D01*
X143291818Y-35395037D01*
X143291821Y-35395041D01*
X143417238Y-35520458D01*
X143417241Y-35520460D01*
X143417245Y-35520464D01*
X143564733Y-35619013D01*
X143728614Y-35686894D01*
X143902589Y-35721500D01*
X143902590Y-35721500D01*
X144079970Y-35721500D01*
X144079971Y-35721500D01*
X144253946Y-35686894D01*
X144417827Y-35619013D01*
X144565315Y-35520464D01*
X144690744Y-35395035D01*
X144789293Y-35247547D01*
X144857174Y-35083666D01*
X144891780Y-34909691D01*
X144891780Y-34732309D01*
X144857174Y-34558334D01*
X144789293Y-34394453D01*
X144690744Y-34246965D01*
X144690740Y-34246961D01*
X144690738Y-34246958D01*
X144565321Y-34121541D01*
X144565317Y-34121538D01*
X144565315Y-34121536D01*
X144417827Y-34022987D01*
X144417824Y-34022985D01*
X144417823Y-34022985D01*
X144253946Y-33955106D01*
X144253940Y-33955104D01*
X144114388Y-33927346D01*
X144079971Y-33920500D01*
X143902589Y-33920500D01*
X143873856Y-33926215D01*
X143728619Y-33955104D01*
X143728613Y-33955106D01*
X143564736Y-34022985D01*
X143564733Y-34022986D01*
X143564733Y-34022987D01*
X143466403Y-34088690D01*
X143417238Y-34121541D01*
X143291821Y-34246958D01*
X143193265Y-34394456D01*
X143125386Y-34558333D01*
X143125384Y-34558339D01*
X143090780Y-34732309D01*
X109500500Y-34732309D01*
X109500500Y-33911309D01*
X150099500Y-33911309D01*
X150099500Y-34088690D01*
X150134104Y-34262660D01*
X150134106Y-34262666D01*
X150188694Y-34394456D01*
X150201987Y-34426547D01*
X150300536Y-34574035D01*
X150300538Y-34574037D01*
X150300541Y-34574041D01*
X150425958Y-34699458D01*
X150425961Y-34699460D01*
X150425965Y-34699464D01*
X150573453Y-34798013D01*
X150737334Y-34865894D01*
X150911309Y-34900500D01*
X150911310Y-34900500D01*
X151088690Y-34900500D01*
X151088691Y-34900500D01*
X151262666Y-34865894D01*
X151426547Y-34798013D01*
X151574035Y-34699464D01*
X151699464Y-34574035D01*
X151798013Y-34426547D01*
X151865894Y-34262666D01*
X151900500Y-34088691D01*
X151900500Y-33911309D01*
X151865894Y-33737334D01*
X151798013Y-33573453D01*
X151699464Y-33425965D01*
X151699460Y-33425961D01*
X151699458Y-33425958D01*
X151574041Y-33300541D01*
X151574037Y-33300538D01*
X151574035Y-33300536D01*
X151426547Y-33201987D01*
X151426544Y-33201985D01*
X151426543Y-33201985D01*
X151262666Y-33134106D01*
X151262660Y-33134104D01*
X151118573Y-33105444D01*
X151088691Y-33099500D01*
X150911309Y-33099500D01*
X150882576Y-33105215D01*
X150737339Y-33134104D01*
X150737333Y-33134106D01*
X150573456Y-33201985D01*
X150425958Y-33300541D01*
X150300541Y-33425958D01*
X150300536Y-33425964D01*
X150300536Y-33425965D01*
X150201987Y-33573453D01*
X150201985Y-33573456D01*
X150134106Y-33737333D01*
X150134104Y-33737339D01*
X150099500Y-33911309D01*
X109500500Y-33911309D01*
X109500500Y-30196450D01*
X110540780Y-30196450D01*
X110540780Y-30509549D01*
X110575835Y-30820660D01*
X110575835Y-30820664D01*
X110645499Y-31125883D01*
X110645506Y-31125905D01*
X110748902Y-31421396D01*
X110748908Y-31421411D01*
X110884747Y-31703485D01*
X110884749Y-31703488D01*
X111051320Y-31968586D01*
X111187888Y-32139836D01*
X112087721Y-31240003D01*
X112165075Y-31346471D01*
X112334809Y-31516205D01*
X112441275Y-31593557D01*
X111541442Y-32493390D01*
X111712693Y-32629959D01*
X111977791Y-32796530D01*
X111977794Y-32796532D01*
X112259868Y-32932371D01*
X112259883Y-32932377D01*
X112555374Y-33035773D01*
X112555396Y-33035780D01*
X112860617Y-33105444D01*
X113171730Y-33140499D01*
X113171744Y-33140500D01*
X113484816Y-33140500D01*
X113484829Y-33140499D01*
X113795940Y-33105444D01*
X113795944Y-33105444D01*
X114101163Y-33035780D01*
X114101185Y-33035773D01*
X114396676Y-32932377D01*
X114396691Y-32932371D01*
X114678765Y-32796532D01*
X114678768Y-32796530D01*
X114943857Y-32629965D01*
X114943864Y-32629960D01*
X115115116Y-32493390D01*
X114215284Y-31593557D01*
X114321751Y-31516205D01*
X114491485Y-31346471D01*
X114568837Y-31240003D01*
X115468670Y-32139836D01*
X115605240Y-31968584D01*
X115605245Y-31968577D01*
X115771810Y-31703488D01*
X115771812Y-31703485D01*
X115785732Y-31674579D01*
X119032780Y-31674579D01*
X119032780Y-31871420D01*
X119063569Y-32065817D01*
X119063570Y-32065820D01*
X119063571Y-32065826D01*
X119099516Y-32176453D01*
X119124396Y-32253025D01*
X119213753Y-32428401D01*
X119329456Y-32587651D01*
X119468628Y-32726823D01*
X119468631Y-32726825D01*
X119468634Y-32726828D01*
X119564573Y-32796532D01*
X119627878Y-32842526D01*
X119673282Y-32865660D01*
X119803255Y-32931884D01*
X119990454Y-32992709D01*
X120184861Y-33023499D01*
X120184862Y-33023500D01*
X120184863Y-33023500D01*
X120381698Y-33023500D01*
X120381698Y-33023499D01*
X120576106Y-32992709D01*
X120763305Y-32931884D01*
X120938685Y-32842524D01*
X121097926Y-32726828D01*
X121237108Y-32587646D01*
X121352804Y-32428405D01*
X121442164Y-32253025D01*
X121502989Y-32065826D01*
X121533780Y-31871417D01*
X121533780Y-31674583D01*
X121533779Y-31674579D01*
X121802780Y-31674579D01*
X121802780Y-31871420D01*
X121833569Y-32065817D01*
X121833570Y-32065820D01*
X121833571Y-32065826D01*
X121869516Y-32176453D01*
X121894396Y-32253025D01*
X121983753Y-32428401D01*
X122099456Y-32587651D01*
X122238628Y-32726823D01*
X122238631Y-32726825D01*
X122238634Y-32726828D01*
X122334573Y-32796532D01*
X122397878Y-32842526D01*
X122443282Y-32865660D01*
X122573255Y-32931884D01*
X122760454Y-32992709D01*
X122954861Y-33023499D01*
X122954862Y-33023500D01*
X122954863Y-33023500D01*
X123151698Y-33023500D01*
X123151698Y-33023499D01*
X123346106Y-32992709D01*
X123533305Y-32931884D01*
X123708685Y-32842524D01*
X123867926Y-32726828D01*
X124007108Y-32587646D01*
X124122804Y-32428405D01*
X124212164Y-32253025D01*
X124272989Y-32065826D01*
X124303780Y-31871417D01*
X124303780Y-31674583D01*
X124303779Y-31674579D01*
X124572780Y-31674579D01*
X124572780Y-31871420D01*
X124603569Y-32065817D01*
X124603570Y-32065820D01*
X124603571Y-32065826D01*
X124639516Y-32176453D01*
X124664396Y-32253025D01*
X124753753Y-32428401D01*
X124869456Y-32587651D01*
X125008628Y-32726823D01*
X125008631Y-32726825D01*
X125008634Y-32726828D01*
X125104573Y-32796532D01*
X125167878Y-32842526D01*
X125213282Y-32865660D01*
X125343255Y-32931884D01*
X125530454Y-32992709D01*
X125724861Y-33023499D01*
X125724862Y-33023500D01*
X125724863Y-33023500D01*
X125921698Y-33023500D01*
X125921698Y-33023499D01*
X126116106Y-32992709D01*
X126303305Y-32931884D01*
X126478685Y-32842524D01*
X126637926Y-32726828D01*
X126777108Y-32587646D01*
X126892804Y-32428405D01*
X126982164Y-32253025D01*
X127042989Y-32065826D01*
X127073780Y-31871417D01*
X127073780Y-31674583D01*
X127073779Y-31674579D01*
X127342780Y-31674579D01*
X127342780Y-31871420D01*
X127373569Y-32065817D01*
X127373570Y-32065820D01*
X127373571Y-32065826D01*
X127409516Y-32176453D01*
X127434396Y-32253025D01*
X127523753Y-32428401D01*
X127639456Y-32587651D01*
X127778628Y-32726823D01*
X127778631Y-32726825D01*
X127778634Y-32726828D01*
X127874573Y-32796532D01*
X127937878Y-32842526D01*
X127983282Y-32865660D01*
X128113255Y-32931884D01*
X128300454Y-32992709D01*
X128494861Y-33023499D01*
X128494862Y-33023500D01*
X128494863Y-33023500D01*
X128691698Y-33023500D01*
X128691698Y-33023499D01*
X128886106Y-32992709D01*
X129073305Y-32931884D01*
X129248685Y-32842524D01*
X129407926Y-32726828D01*
X129547108Y-32587646D01*
X129662804Y-32428405D01*
X129752164Y-32253025D01*
X129812989Y-32065826D01*
X129843780Y-31871417D01*
X129843780Y-31674583D01*
X129843779Y-31674579D01*
X130112780Y-31674579D01*
X130112780Y-31871420D01*
X130143569Y-32065817D01*
X130143570Y-32065820D01*
X130143571Y-32065826D01*
X130179516Y-32176453D01*
X130204396Y-32253025D01*
X130293753Y-32428401D01*
X130409456Y-32587651D01*
X130548628Y-32726823D01*
X130548631Y-32726825D01*
X130548634Y-32726828D01*
X130644573Y-32796532D01*
X130707878Y-32842526D01*
X130753282Y-32865660D01*
X130883255Y-32931884D01*
X131070454Y-32992709D01*
X131264861Y-33023499D01*
X131264862Y-33023500D01*
X131264863Y-33023500D01*
X131461698Y-33023500D01*
X131461698Y-33023499D01*
X131656106Y-32992709D01*
X131843305Y-32931884D01*
X132018685Y-32842524D01*
X132177926Y-32726828D01*
X132317108Y-32587646D01*
X132432804Y-32428405D01*
X132522164Y-32253025D01*
X132582989Y-32065826D01*
X132613780Y-31871417D01*
X132613780Y-31674583D01*
X132613779Y-31674579D01*
X132882780Y-31674579D01*
X132882780Y-31871420D01*
X132913569Y-32065817D01*
X132913570Y-32065820D01*
X132913571Y-32065826D01*
X132949516Y-32176453D01*
X132974396Y-32253025D01*
X133063753Y-32428401D01*
X133179456Y-32587651D01*
X133318628Y-32726823D01*
X133318631Y-32726825D01*
X133318634Y-32726828D01*
X133414573Y-32796532D01*
X133477878Y-32842526D01*
X133523282Y-32865660D01*
X133653255Y-32931884D01*
X133840454Y-32992709D01*
X134034861Y-33023499D01*
X134034862Y-33023500D01*
X134034863Y-33023500D01*
X134231698Y-33023500D01*
X134231698Y-33023499D01*
X134426106Y-32992709D01*
X134613305Y-32931884D01*
X134788685Y-32842524D01*
X134947926Y-32726828D01*
X135087108Y-32587646D01*
X135202804Y-32428405D01*
X135292164Y-32253025D01*
X135352989Y-32065826D01*
X135383780Y-31871417D01*
X135383780Y-31674583D01*
X135383779Y-31674579D01*
X135652780Y-31674579D01*
X135652780Y-31871420D01*
X135683569Y-32065817D01*
X135683570Y-32065820D01*
X135683571Y-32065826D01*
X135719516Y-32176453D01*
X135744396Y-32253025D01*
X135833753Y-32428401D01*
X135949456Y-32587651D01*
X136088628Y-32726823D01*
X136088631Y-32726825D01*
X136088634Y-32726828D01*
X136184573Y-32796532D01*
X136247878Y-32842526D01*
X136293282Y-32865660D01*
X136423255Y-32931884D01*
X136610454Y-32992709D01*
X136804861Y-33023499D01*
X136804862Y-33023500D01*
X136804863Y-33023500D01*
X137001698Y-33023500D01*
X137001698Y-33023499D01*
X137196106Y-32992709D01*
X137383305Y-32931884D01*
X137558685Y-32842524D01*
X137717926Y-32726828D01*
X137857108Y-32587646D01*
X137972804Y-32428405D01*
X138062164Y-32253025D01*
X138122989Y-32065826D01*
X138153780Y-31871417D01*
X138153780Y-31674583D01*
X138153779Y-31674579D01*
X138422780Y-31674579D01*
X138422780Y-31871420D01*
X138453569Y-32065817D01*
X138453570Y-32065820D01*
X138453571Y-32065826D01*
X138489516Y-32176453D01*
X138514396Y-32253025D01*
X138603753Y-32428401D01*
X138719456Y-32587651D01*
X138858628Y-32726823D01*
X138858631Y-32726825D01*
X138858634Y-32726828D01*
X138954573Y-32796532D01*
X139017878Y-32842526D01*
X139063282Y-32865660D01*
X139193255Y-32931884D01*
X139380454Y-32992709D01*
X139574861Y-33023499D01*
X139574862Y-33023500D01*
X139574863Y-33023500D01*
X139771698Y-33023500D01*
X139771698Y-33023499D01*
X139966106Y-32992709D01*
X140153305Y-32931884D01*
X140328685Y-32842524D01*
X140487926Y-32726828D01*
X140627108Y-32587646D01*
X140742804Y-32428405D01*
X140757969Y-32398642D01*
X140767364Y-32380204D01*
X140799652Y-32316834D01*
X140832164Y-32253025D01*
X140892989Y-32065826D01*
X140923780Y-31871417D01*
X140923780Y-31674583D01*
X140892989Y-31480174D01*
X140832164Y-31292975D01*
X140760474Y-31152274D01*
X140742806Y-31117598D01*
X140652741Y-30993635D01*
X140627108Y-30958354D01*
X140627105Y-30958351D01*
X140627103Y-30958348D01*
X140487931Y-30819176D01*
X140487927Y-30819173D01*
X140487926Y-30819172D01*
X140337809Y-30710105D01*
X140328681Y-30703473D01*
X140153305Y-30614116D01*
X139966106Y-30553291D01*
X139966100Y-30553290D01*
X139966097Y-30553289D01*
X139771700Y-30522500D01*
X139771697Y-30522500D01*
X139574863Y-30522500D01*
X139574859Y-30522500D01*
X139380462Y-30553289D01*
X139380457Y-30553290D01*
X139380454Y-30553291D01*
X139259064Y-30592733D01*
X139193254Y-30614116D01*
X139017878Y-30703473D01*
X138858628Y-30819176D01*
X138719456Y-30958348D01*
X138603753Y-31117598D01*
X138514396Y-31292974D01*
X138514396Y-31292975D01*
X138453571Y-31480174D01*
X138453570Y-31480177D01*
X138453569Y-31480182D01*
X138422780Y-31674579D01*
X138153779Y-31674579D01*
X138122989Y-31480174D01*
X138062164Y-31292975D01*
X137990474Y-31152274D01*
X137972806Y-31117598D01*
X137882741Y-30993635D01*
X137857108Y-30958354D01*
X137857105Y-30958351D01*
X137857103Y-30958348D01*
X137717931Y-30819176D01*
X137717927Y-30819173D01*
X137717926Y-30819172D01*
X137567809Y-30710105D01*
X137558681Y-30703473D01*
X137383305Y-30614116D01*
X137196106Y-30553291D01*
X137196100Y-30553290D01*
X137196097Y-30553289D01*
X137001700Y-30522500D01*
X137001697Y-30522500D01*
X136804863Y-30522500D01*
X136804859Y-30522500D01*
X136610462Y-30553289D01*
X136610457Y-30553290D01*
X136610454Y-30553291D01*
X136489064Y-30592733D01*
X136423254Y-30614116D01*
X136247878Y-30703473D01*
X136088628Y-30819176D01*
X135949456Y-30958348D01*
X135833753Y-31117598D01*
X135744396Y-31292974D01*
X135744396Y-31292975D01*
X135683571Y-31480174D01*
X135683570Y-31480177D01*
X135683569Y-31480182D01*
X135652780Y-31674579D01*
X135383779Y-31674579D01*
X135352989Y-31480174D01*
X135292164Y-31292975D01*
X135220474Y-31152274D01*
X135202806Y-31117598D01*
X135112741Y-30993635D01*
X135087108Y-30958354D01*
X135087105Y-30958351D01*
X135087103Y-30958348D01*
X134947931Y-30819176D01*
X134947927Y-30819173D01*
X134947926Y-30819172D01*
X134797809Y-30710105D01*
X134788681Y-30703473D01*
X134613305Y-30614116D01*
X134426106Y-30553291D01*
X134426100Y-30553290D01*
X134426097Y-30553289D01*
X134231700Y-30522500D01*
X134231697Y-30522500D01*
X134034863Y-30522500D01*
X134034859Y-30522500D01*
X133840462Y-30553289D01*
X133840457Y-30553290D01*
X133840454Y-30553291D01*
X133719064Y-30592733D01*
X133653254Y-30614116D01*
X133477878Y-30703473D01*
X133318628Y-30819176D01*
X133179456Y-30958348D01*
X133063753Y-31117598D01*
X132974396Y-31292974D01*
X132974396Y-31292975D01*
X132913571Y-31480174D01*
X132913570Y-31480177D01*
X132913569Y-31480182D01*
X132882780Y-31674579D01*
X132613779Y-31674579D01*
X132582989Y-31480174D01*
X132522164Y-31292975D01*
X132450474Y-31152274D01*
X132432806Y-31117598D01*
X132342741Y-30993635D01*
X132317108Y-30958354D01*
X132317105Y-30958351D01*
X132317103Y-30958348D01*
X132177931Y-30819176D01*
X132177927Y-30819173D01*
X132177926Y-30819172D01*
X132027809Y-30710105D01*
X132018681Y-30703473D01*
X131843305Y-30614116D01*
X131656106Y-30553291D01*
X131656100Y-30553290D01*
X131656097Y-30553289D01*
X131461700Y-30522500D01*
X131461697Y-30522500D01*
X131264863Y-30522500D01*
X131264859Y-30522500D01*
X131070462Y-30553289D01*
X131070457Y-30553290D01*
X131070454Y-30553291D01*
X130949064Y-30592733D01*
X130883254Y-30614116D01*
X130707878Y-30703473D01*
X130548628Y-30819176D01*
X130409456Y-30958348D01*
X130293753Y-31117598D01*
X130204396Y-31292974D01*
X130204396Y-31292975D01*
X130143571Y-31480174D01*
X130143570Y-31480177D01*
X130143569Y-31480182D01*
X130112780Y-31674579D01*
X129843779Y-31674579D01*
X129812989Y-31480174D01*
X129752164Y-31292975D01*
X129680474Y-31152274D01*
X129662806Y-31117598D01*
X129572741Y-30993635D01*
X129547108Y-30958354D01*
X129547105Y-30958351D01*
X129547103Y-30958348D01*
X129407931Y-30819176D01*
X129407927Y-30819173D01*
X129407926Y-30819172D01*
X129257809Y-30710105D01*
X129248681Y-30703473D01*
X129073305Y-30614116D01*
X128886106Y-30553291D01*
X128886100Y-30553290D01*
X128886097Y-30553289D01*
X128691700Y-30522500D01*
X128691697Y-30522500D01*
X128494863Y-30522500D01*
X128494859Y-30522500D01*
X128300462Y-30553289D01*
X128300457Y-30553290D01*
X128300454Y-30553291D01*
X128179064Y-30592733D01*
X128113254Y-30614116D01*
X127937878Y-30703473D01*
X127778628Y-30819176D01*
X127639456Y-30958348D01*
X127523753Y-31117598D01*
X127434396Y-31292974D01*
X127434396Y-31292975D01*
X127373571Y-31480174D01*
X127373570Y-31480177D01*
X127373569Y-31480182D01*
X127342780Y-31674579D01*
X127073779Y-31674579D01*
X127042989Y-31480174D01*
X126982164Y-31292975D01*
X126910474Y-31152274D01*
X126892806Y-31117598D01*
X126802741Y-30993635D01*
X126777108Y-30958354D01*
X126777105Y-30958351D01*
X126777103Y-30958348D01*
X126637931Y-30819176D01*
X126637927Y-30819173D01*
X126637926Y-30819172D01*
X126487809Y-30710105D01*
X126478681Y-30703473D01*
X126303305Y-30614116D01*
X126116106Y-30553291D01*
X126116100Y-30553290D01*
X126116097Y-30553289D01*
X125921700Y-30522500D01*
X125921697Y-30522500D01*
X125724863Y-30522500D01*
X125724859Y-30522500D01*
X125530462Y-30553289D01*
X125530457Y-30553290D01*
X125530454Y-30553291D01*
X125409064Y-30592733D01*
X125343254Y-30614116D01*
X125167878Y-30703473D01*
X125008628Y-30819176D01*
X124869456Y-30958348D01*
X124753753Y-31117598D01*
X124664396Y-31292974D01*
X124664396Y-31292975D01*
X124603571Y-31480174D01*
X124603570Y-31480177D01*
X124603569Y-31480182D01*
X124572780Y-31674579D01*
X124303779Y-31674579D01*
X124272989Y-31480174D01*
X124212164Y-31292975D01*
X124140474Y-31152274D01*
X124122806Y-31117598D01*
X124032741Y-30993635D01*
X124007108Y-30958354D01*
X124007105Y-30958351D01*
X124007103Y-30958348D01*
X123867931Y-30819176D01*
X123867927Y-30819173D01*
X123867926Y-30819172D01*
X123717809Y-30710105D01*
X123708681Y-30703473D01*
X123533305Y-30614116D01*
X123346106Y-30553291D01*
X123346100Y-30553290D01*
X123346097Y-30553289D01*
X123151700Y-30522500D01*
X123151697Y-30522500D01*
X122954863Y-30522500D01*
X122954859Y-30522500D01*
X122760462Y-30553289D01*
X122760457Y-30553290D01*
X122760454Y-30553291D01*
X122639064Y-30592733D01*
X122573254Y-30614116D01*
X122397878Y-30703473D01*
X122238628Y-30819176D01*
X122099456Y-30958348D01*
X121983753Y-31117598D01*
X121894396Y-31292974D01*
X121894396Y-31292975D01*
X121833571Y-31480174D01*
X121833570Y-31480177D01*
X121833569Y-31480182D01*
X121802780Y-31674579D01*
X121533779Y-31674579D01*
X121502989Y-31480174D01*
X121442164Y-31292975D01*
X121370474Y-31152274D01*
X121352806Y-31117598D01*
X121262741Y-30993635D01*
X121237108Y-30958354D01*
X121237105Y-30958351D01*
X121237103Y-30958348D01*
X121097931Y-30819176D01*
X121097927Y-30819173D01*
X121097926Y-30819172D01*
X120947809Y-30710105D01*
X120938681Y-30703473D01*
X120763305Y-30614116D01*
X120576106Y-30553291D01*
X120576100Y-30553290D01*
X120576097Y-30553289D01*
X120381700Y-30522500D01*
X120381697Y-30522500D01*
X120184863Y-30522500D01*
X120184859Y-30522500D01*
X119990462Y-30553289D01*
X119990457Y-30553290D01*
X119990454Y-30553291D01*
X119869064Y-30592733D01*
X119803254Y-30614116D01*
X119627878Y-30703473D01*
X119468628Y-30819176D01*
X119329456Y-30958348D01*
X119213753Y-31117598D01*
X119124396Y-31292974D01*
X119124396Y-31292975D01*
X119063571Y-31480174D01*
X119063570Y-31480177D01*
X119063569Y-31480182D01*
X119032780Y-31674579D01*
X115785732Y-31674579D01*
X115816265Y-31611178D01*
X115907651Y-31421411D01*
X115907657Y-31421396D01*
X116011053Y-31125905D01*
X116011060Y-31125883D01*
X116080724Y-30820664D01*
X116080724Y-30820660D01*
X116115779Y-30509549D01*
X116115780Y-30509535D01*
X116115780Y-30196464D01*
X116115779Y-30196450D01*
X143840780Y-30196450D01*
X143840780Y-30509549D01*
X143875835Y-30820660D01*
X143875835Y-30820664D01*
X143945499Y-31125883D01*
X143945506Y-31125905D01*
X144048902Y-31421396D01*
X144048908Y-31421411D01*
X144184747Y-31703485D01*
X144184749Y-31703488D01*
X144351320Y-31968586D01*
X144487888Y-32139836D01*
X145387721Y-31240003D01*
X145465075Y-31346471D01*
X145634809Y-31516205D01*
X145741275Y-31593557D01*
X144841442Y-32493390D01*
X145012693Y-32629959D01*
X145277791Y-32796530D01*
X145277794Y-32796532D01*
X145559868Y-32932371D01*
X145559883Y-32932377D01*
X145855374Y-33035773D01*
X145855396Y-33035780D01*
X146160617Y-33105444D01*
X146471730Y-33140499D01*
X146471744Y-33140500D01*
X146784816Y-33140500D01*
X146784829Y-33140499D01*
X147095940Y-33105444D01*
X147095944Y-33105444D01*
X147401163Y-33035780D01*
X147401185Y-33035773D01*
X147696676Y-32932377D01*
X147696691Y-32932371D01*
X147978765Y-32796532D01*
X147978768Y-32796530D01*
X148243857Y-32629965D01*
X148243864Y-32629960D01*
X148415116Y-32493390D01*
X147515284Y-31593557D01*
X147621751Y-31516205D01*
X147791485Y-31346471D01*
X147868837Y-31240003D01*
X148768670Y-32139836D01*
X148905240Y-31968584D01*
X148905245Y-31968577D01*
X149071810Y-31703488D01*
X149071812Y-31703485D01*
X149207651Y-31421411D01*
X149207657Y-31421396D01*
X149311053Y-31125905D01*
X149311060Y-31125883D01*
X149380724Y-30820664D01*
X149380724Y-30820660D01*
X149415779Y-30509549D01*
X149415780Y-30509535D01*
X149415780Y-30485066D01*
X154956780Y-30485066D01*
X154956780Y-30740933D01*
X154996804Y-30993635D01*
X155037081Y-31117595D01*
X155075870Y-31236975D01*
X155104403Y-31292974D01*
X155192028Y-31464949D01*
X155342412Y-31671935D01*
X155342421Y-31671945D01*
X155523334Y-31852858D01*
X155523344Y-31852867D01*
X155730330Y-32003251D01*
X155780797Y-32028965D01*
X155958305Y-32119410D01*
X156179589Y-32191309D01*
X156201644Y-32198475D01*
X156350448Y-32222043D01*
X156454348Y-32238499D01*
X156454349Y-32238500D01*
X158952363Y-32238500D01*
X159024809Y-32259772D01*
X159074254Y-32316834D01*
X159084999Y-32391570D01*
X159083789Y-32398632D01*
X159064941Y-32493390D01*
X159060780Y-32514309D01*
X159060780Y-32691690D01*
X159095384Y-32865660D01*
X159095386Y-32865666D01*
X159142519Y-32979458D01*
X159163267Y-33029547D01*
X159261816Y-33177035D01*
X159261818Y-33177037D01*
X159261821Y-33177041D01*
X159387238Y-33302458D01*
X159387241Y-33302460D01*
X159387245Y-33302464D01*
X159534733Y-33401013D01*
X159698614Y-33468894D01*
X159872589Y-33503500D01*
X159872590Y-33503500D01*
X160049970Y-33503500D01*
X160049971Y-33503500D01*
X160223946Y-33468894D01*
X160387827Y-33401013D01*
X160535315Y-33302464D01*
X160660744Y-33177035D01*
X160759293Y-33029547D01*
X160827174Y-32865666D01*
X160861780Y-32691691D01*
X160861780Y-32514309D01*
X160827174Y-32340334D01*
X160765446Y-32191309D01*
X177201500Y-32191309D01*
X177201500Y-32368690D01*
X177236104Y-32542660D01*
X177236106Y-32542666D01*
X177297833Y-32691691D01*
X177303987Y-32706547D01*
X177402536Y-32854035D01*
X177402538Y-32854037D01*
X177402541Y-32854041D01*
X177527958Y-32979458D01*
X177527961Y-32979460D01*
X177527965Y-32979464D01*
X177675453Y-33078013D01*
X177839334Y-33145894D01*
X178013309Y-33180500D01*
X178013310Y-33180500D01*
X178190690Y-33180500D01*
X178190691Y-33180500D01*
X178364666Y-33145894D01*
X178528547Y-33078013D01*
X178676035Y-32979464D01*
X178801464Y-32854035D01*
X178900013Y-32706547D01*
X178967894Y-32542666D01*
X179002500Y-32368691D01*
X179002500Y-32191309D01*
X178967894Y-32017334D01*
X178900013Y-31853453D01*
X178801464Y-31705965D01*
X178801460Y-31705961D01*
X178801458Y-31705958D01*
X178676041Y-31580541D01*
X178676037Y-31580538D01*
X178676035Y-31580536D01*
X178528547Y-31481987D01*
X178528544Y-31481985D01*
X178528543Y-31481985D01*
X178364666Y-31414106D01*
X178364660Y-31414104D01*
X178225108Y-31386346D01*
X178190691Y-31379500D01*
X178013309Y-31379500D01*
X177984576Y-31385215D01*
X177839339Y-31414104D01*
X177839333Y-31414106D01*
X177675456Y-31481985D01*
X177675453Y-31481986D01*
X177675453Y-31481987D01*
X177578799Y-31546570D01*
X177527958Y-31580541D01*
X177402541Y-31705958D01*
X177402536Y-31705964D01*
X177402536Y-31705965D01*
X177362239Y-31766273D01*
X177303985Y-31853456D01*
X177236106Y-32017333D01*
X177236104Y-32017339D01*
X177201500Y-32191309D01*
X160765446Y-32191309D01*
X160759293Y-32176453D01*
X160660744Y-32028965D01*
X160660740Y-32028961D01*
X160660738Y-32028958D01*
X160535321Y-31903541D01*
X160535317Y-31903538D01*
X160535315Y-31903536D01*
X160387827Y-31804987D01*
X160387824Y-31804985D01*
X160387823Y-31804985D01*
X160227905Y-31738746D01*
X160169114Y-31691370D01*
X160145269Y-31619730D01*
X160163942Y-31546570D01*
X160170766Y-31536196D01*
X160222532Y-31464947D01*
X160338690Y-31236975D01*
X160417754Y-30993639D01*
X160457780Y-30740930D01*
X160457780Y-30485070D01*
X160436862Y-30352999D01*
X160417755Y-30232364D01*
X160391874Y-30152710D01*
X160338690Y-29989025D01*
X160258099Y-29830856D01*
X160222531Y-29761050D01*
X160072147Y-29554064D01*
X160072138Y-29554054D01*
X159891225Y-29373141D01*
X159891215Y-29373132D01*
X159684229Y-29222748D01*
X159494335Y-29125993D01*
X159456255Y-29106590D01*
X159379136Y-29081532D01*
X159212915Y-29027524D01*
X158960212Y-28987500D01*
X158960210Y-28987500D01*
X156454350Y-28987500D01*
X156454348Y-28987500D01*
X156201644Y-29027524D01*
X155958305Y-29106590D01*
X155730330Y-29222748D01*
X155523344Y-29373132D01*
X155523334Y-29373141D01*
X155342421Y-29554054D01*
X155342412Y-29554064D01*
X155192028Y-29761050D01*
X155075870Y-29989025D01*
X154996804Y-30232364D01*
X154956780Y-30485066D01*
X149415780Y-30485066D01*
X149415780Y-30196464D01*
X149415779Y-30196450D01*
X149380724Y-29885339D01*
X149380724Y-29885335D01*
X149311060Y-29580116D01*
X149311053Y-29580094D01*
X149207657Y-29284603D01*
X149207651Y-29284588D01*
X149071812Y-29002514D01*
X149071810Y-29002511D01*
X148905239Y-28737413D01*
X148768670Y-28566162D01*
X147868837Y-29465995D01*
X147791485Y-29359529D01*
X147621751Y-29189795D01*
X147515283Y-29112442D01*
X148415117Y-28212608D01*
X148243866Y-28076040D01*
X147978768Y-27909469D01*
X147978765Y-27909467D01*
X147696691Y-27773628D01*
X147696676Y-27773622D01*
X147401185Y-27670226D01*
X147401163Y-27670219D01*
X147095942Y-27600555D01*
X146784829Y-27565500D01*
X146471730Y-27565500D01*
X146160619Y-27600555D01*
X146160615Y-27600555D01*
X145855396Y-27670219D01*
X145855374Y-27670226D01*
X145559883Y-27773622D01*
X145559868Y-27773628D01*
X145277794Y-27909467D01*
X145277791Y-27909469D01*
X145012690Y-28076042D01*
X144841441Y-28212607D01*
X145741275Y-29112442D01*
X145634809Y-29189795D01*
X145465075Y-29359529D01*
X145387722Y-29465995D01*
X144487887Y-28566161D01*
X144351322Y-28737410D01*
X144184749Y-29002511D01*
X144184747Y-29002514D01*
X144048908Y-29284588D01*
X144048902Y-29284603D01*
X143945506Y-29580094D01*
X143945499Y-29580116D01*
X143875835Y-29885335D01*
X143875835Y-29885339D01*
X143840780Y-30196450D01*
X116115779Y-30196450D01*
X116080724Y-29885339D01*
X116080724Y-29885335D01*
X116011060Y-29580116D01*
X116011053Y-29580094D01*
X115907657Y-29284603D01*
X115907651Y-29284588D01*
X115771812Y-29002514D01*
X115771810Y-29002511D01*
X115707782Y-28900610D01*
X115666292Y-28834579D01*
X120417780Y-28834579D01*
X120417780Y-29031420D01*
X120448569Y-29225817D01*
X120448570Y-29225820D01*
X120448571Y-29225826D01*
X120492014Y-29359529D01*
X120509396Y-29413025D01*
X120598753Y-29588401D01*
X120714456Y-29747651D01*
X120853628Y-29886823D01*
X120853631Y-29886825D01*
X120853634Y-29886828D01*
X121012290Y-30002099D01*
X121012878Y-30002526D01*
X121098829Y-30046319D01*
X121188255Y-30091884D01*
X121375454Y-30152709D01*
X121569861Y-30183499D01*
X121569862Y-30183500D01*
X121569863Y-30183500D01*
X121766698Y-30183500D01*
X121766698Y-30183499D01*
X121961106Y-30152709D01*
X122148305Y-30091884D01*
X122323685Y-30002524D01*
X122482926Y-29886828D01*
X122622108Y-29747646D01*
X122737804Y-29588405D01*
X122827164Y-29413025D01*
X122887989Y-29225826D01*
X122918780Y-29031417D01*
X122918780Y-28834583D01*
X122918779Y-28834579D01*
X123187780Y-28834579D01*
X123187780Y-29031420D01*
X123218569Y-29225817D01*
X123218570Y-29225820D01*
X123218571Y-29225826D01*
X123262014Y-29359529D01*
X123279396Y-29413025D01*
X123368753Y-29588401D01*
X123484456Y-29747651D01*
X123623628Y-29886823D01*
X123623631Y-29886825D01*
X123623634Y-29886828D01*
X123782290Y-30002099D01*
X123782878Y-30002526D01*
X123868829Y-30046319D01*
X123958255Y-30091884D01*
X124145454Y-30152709D01*
X124339861Y-30183499D01*
X124339862Y-30183500D01*
X124339863Y-30183500D01*
X124536698Y-30183500D01*
X124536698Y-30183499D01*
X124731106Y-30152709D01*
X124918305Y-30091884D01*
X125093685Y-30002524D01*
X125252926Y-29886828D01*
X125392108Y-29747646D01*
X125507804Y-29588405D01*
X125597164Y-29413025D01*
X125657989Y-29225826D01*
X125688780Y-29031417D01*
X125688780Y-28834583D01*
X125688779Y-28834579D01*
X125957780Y-28834579D01*
X125957780Y-29031420D01*
X125988569Y-29225817D01*
X125988570Y-29225820D01*
X125988571Y-29225826D01*
X126032014Y-29359529D01*
X126049396Y-29413025D01*
X126138753Y-29588401D01*
X126254456Y-29747651D01*
X126393628Y-29886823D01*
X126393631Y-29886825D01*
X126393634Y-29886828D01*
X126552290Y-30002099D01*
X126552878Y-30002526D01*
X126638829Y-30046319D01*
X126728255Y-30091884D01*
X126915454Y-30152709D01*
X127109861Y-30183499D01*
X127109862Y-30183500D01*
X127109863Y-30183500D01*
X127306698Y-30183500D01*
X127306698Y-30183499D01*
X127501106Y-30152709D01*
X127688305Y-30091884D01*
X127863685Y-30002524D01*
X128022926Y-29886828D01*
X128162108Y-29747646D01*
X128277804Y-29588405D01*
X128367164Y-29413025D01*
X128427989Y-29225826D01*
X128458780Y-29031417D01*
X128458780Y-28834583D01*
X128458779Y-28834579D01*
X128727780Y-28834579D01*
X128727780Y-29031420D01*
X128758569Y-29225817D01*
X128758570Y-29225820D01*
X128758571Y-29225826D01*
X128802014Y-29359529D01*
X128819396Y-29413025D01*
X128908753Y-29588401D01*
X129024456Y-29747651D01*
X129163628Y-29886823D01*
X129163631Y-29886825D01*
X129163634Y-29886828D01*
X129322290Y-30002099D01*
X129322878Y-30002526D01*
X129408829Y-30046319D01*
X129498255Y-30091884D01*
X129685454Y-30152709D01*
X129879861Y-30183499D01*
X129879862Y-30183500D01*
X129879863Y-30183500D01*
X130076698Y-30183500D01*
X130076698Y-30183499D01*
X130271106Y-30152709D01*
X130458305Y-30091884D01*
X130633685Y-30002524D01*
X130792926Y-29886828D01*
X130932108Y-29747646D01*
X131047804Y-29588405D01*
X131137164Y-29413025D01*
X131197989Y-29225826D01*
X131228780Y-29031417D01*
X131228780Y-28834583D01*
X131228779Y-28834579D01*
X131497780Y-28834579D01*
X131497780Y-29031420D01*
X131528569Y-29225817D01*
X131528570Y-29225820D01*
X131528571Y-29225826D01*
X131572014Y-29359529D01*
X131589396Y-29413025D01*
X131678753Y-29588401D01*
X131794456Y-29747651D01*
X131933628Y-29886823D01*
X131933631Y-29886825D01*
X131933634Y-29886828D01*
X132092290Y-30002099D01*
X132092878Y-30002526D01*
X132178829Y-30046319D01*
X132268255Y-30091884D01*
X132455454Y-30152709D01*
X132649861Y-30183499D01*
X132649862Y-30183500D01*
X132649863Y-30183500D01*
X132846698Y-30183500D01*
X132846698Y-30183499D01*
X133041106Y-30152709D01*
X133228305Y-30091884D01*
X133403685Y-30002524D01*
X133562926Y-29886828D01*
X133564419Y-29885335D01*
X133618899Y-29830856D01*
X133702103Y-29747651D01*
X133702108Y-29747646D01*
X133817804Y-29588405D01*
X133907164Y-29413025D01*
X133967989Y-29225826D01*
X133998780Y-29031417D01*
X133998780Y-28834619D01*
X134268280Y-28834619D01*
X134268280Y-29031380D01*
X134299057Y-29225700D01*
X134359857Y-29412826D01*
X134359861Y-29412835D01*
X134449180Y-29588136D01*
X134449190Y-29588152D01*
X134474599Y-29623124D01*
X134474601Y-29623125D01*
X135035317Y-29062408D01*
X135052355Y-29125993D01*
X135118181Y-29240007D01*
X135211273Y-29333099D01*
X135325287Y-29398925D01*
X135388869Y-29415962D01*
X134828154Y-29976678D01*
X134828154Y-29976679D01*
X134863136Y-30002096D01*
X134863135Y-30002096D01*
X135038444Y-30091418D01*
X135038453Y-30091422D01*
X135225579Y-30152222D01*
X135419899Y-30182999D01*
X135419902Y-30183000D01*
X135616658Y-30183000D01*
X135616660Y-30182999D01*
X135810980Y-30152222D01*
X135998106Y-30091422D01*
X135998115Y-30091418D01*
X136173417Y-30002099D01*
X136173420Y-30002097D01*
X136208405Y-29976678D01*
X135647690Y-29415962D01*
X135711273Y-29398925D01*
X135825287Y-29333099D01*
X135918379Y-29240007D01*
X135984205Y-29125993D01*
X136001242Y-29062409D01*
X136561958Y-29623125D01*
X136587377Y-29588140D01*
X136587379Y-29588137D01*
X136676698Y-29412835D01*
X136676702Y-29412826D01*
X136737502Y-29225700D01*
X136768279Y-29031380D01*
X136768280Y-29031378D01*
X136768280Y-28834621D01*
X136768279Y-28834619D01*
X137038280Y-28834619D01*
X137038280Y-29031380D01*
X137069057Y-29225700D01*
X137129857Y-29412826D01*
X137129861Y-29412835D01*
X137219180Y-29588136D01*
X137219190Y-29588152D01*
X137244599Y-29623124D01*
X137244601Y-29623125D01*
X137805317Y-29062408D01*
X137822355Y-29125993D01*
X137888181Y-29240007D01*
X137981273Y-29333099D01*
X138095287Y-29398925D01*
X138158869Y-29415962D01*
X137598154Y-29976678D01*
X137598154Y-29976679D01*
X137633136Y-30002096D01*
X137633135Y-30002096D01*
X137808444Y-30091418D01*
X137808453Y-30091422D01*
X137995579Y-30152222D01*
X138189899Y-30182999D01*
X138189902Y-30183000D01*
X138386658Y-30183000D01*
X138386660Y-30182999D01*
X138580980Y-30152222D01*
X138768106Y-30091422D01*
X138768115Y-30091418D01*
X138803672Y-30073302D01*
X138943417Y-30002099D01*
X138943420Y-30002097D01*
X138978405Y-29976678D01*
X138417690Y-29415962D01*
X138481273Y-29398925D01*
X138595287Y-29333099D01*
X138688379Y-29240007D01*
X138754205Y-29125993D01*
X138771242Y-29062409D01*
X139331958Y-29623125D01*
X139357377Y-29588140D01*
X139357379Y-29588137D01*
X139446698Y-29412835D01*
X139446702Y-29412826D01*
X139507502Y-29225700D01*
X139538279Y-29031380D01*
X139538280Y-29031378D01*
X139538280Y-28834621D01*
X139538279Y-28834619D01*
X139507502Y-28640299D01*
X139446702Y-28453173D01*
X139446698Y-28453164D01*
X139381802Y-28325795D01*
X139357376Y-28277856D01*
X139331959Y-28242874D01*
X139331958Y-28242874D01*
X138771242Y-28803589D01*
X138754205Y-28740007D01*
X138688379Y-28625993D01*
X138595287Y-28532901D01*
X138481273Y-28467075D01*
X138417689Y-28450037D01*
X138978405Y-27889321D01*
X138978404Y-27889319D01*
X138943432Y-27863910D01*
X138943416Y-27863900D01*
X138768115Y-27774581D01*
X138768106Y-27774577D01*
X138580980Y-27713777D01*
X138386660Y-27683000D01*
X138189899Y-27683000D01*
X137995579Y-27713777D01*
X137808453Y-27774577D01*
X137808444Y-27774581D01*
X137633136Y-27863903D01*
X137633132Y-27863906D01*
X137598154Y-27889319D01*
X137598153Y-27889320D01*
X138158870Y-28450037D01*
X138095287Y-28467075D01*
X137981273Y-28532901D01*
X137888181Y-28625993D01*
X137822355Y-28740007D01*
X137805317Y-28803590D01*
X137244600Y-28242873D01*
X137244599Y-28242874D01*
X137219186Y-28277852D01*
X137219183Y-28277856D01*
X137129861Y-28453164D01*
X137129857Y-28453173D01*
X137069057Y-28640299D01*
X137038280Y-28834619D01*
X136768279Y-28834619D01*
X136737502Y-28640299D01*
X136676702Y-28453173D01*
X136676698Y-28453164D01*
X136587376Y-28277856D01*
X136561959Y-28242874D01*
X136561958Y-28242874D01*
X136001242Y-28803589D01*
X135984205Y-28740007D01*
X135918379Y-28625993D01*
X135825287Y-28532901D01*
X135711273Y-28467075D01*
X135647689Y-28450037D01*
X136208405Y-27889321D01*
X136208404Y-27889319D01*
X136173432Y-27863910D01*
X136173416Y-27863900D01*
X135998115Y-27774581D01*
X135998106Y-27774577D01*
X135810980Y-27713777D01*
X135616660Y-27683000D01*
X135419899Y-27683000D01*
X135225579Y-27713777D01*
X135038453Y-27774577D01*
X135038444Y-27774581D01*
X134863136Y-27863903D01*
X134863132Y-27863906D01*
X134828154Y-27889319D01*
X134828153Y-27889320D01*
X135388870Y-28450037D01*
X135325287Y-28467075D01*
X135211273Y-28532901D01*
X135118181Y-28625993D01*
X135052355Y-28740007D01*
X135035317Y-28803590D01*
X134474600Y-28242873D01*
X134474599Y-28242874D01*
X134449186Y-28277852D01*
X134449183Y-28277856D01*
X134359861Y-28453164D01*
X134359857Y-28453173D01*
X134299057Y-28640299D01*
X134268280Y-28834619D01*
X133998780Y-28834619D01*
X133998780Y-28834583D01*
X133967989Y-28640174D01*
X133907164Y-28452975D01*
X133817804Y-28277595D01*
X133702108Y-28118354D01*
X133702105Y-28118351D01*
X133702103Y-28118348D01*
X133562931Y-27979176D01*
X133562927Y-27979173D01*
X133562926Y-27979172D01*
X133403685Y-27863476D01*
X133403681Y-27863473D01*
X133228305Y-27774116D01*
X133226785Y-27773622D01*
X133041106Y-27713291D01*
X133041100Y-27713290D01*
X133041097Y-27713289D01*
X132846700Y-27682500D01*
X132846697Y-27682500D01*
X132649863Y-27682500D01*
X132649859Y-27682500D01*
X132455462Y-27713289D01*
X132455457Y-27713290D01*
X132455454Y-27713291D01*
X132334064Y-27752733D01*
X132268254Y-27774116D01*
X132092878Y-27863473D01*
X131933628Y-27979176D01*
X131794456Y-28118348D01*
X131678753Y-28277598D01*
X131589396Y-28452974D01*
X131568013Y-28518784D01*
X131528571Y-28640174D01*
X131528570Y-28640177D01*
X131528569Y-28640182D01*
X131497780Y-28834579D01*
X131228779Y-28834579D01*
X131197989Y-28640174D01*
X131137164Y-28452975D01*
X131047804Y-28277595D01*
X130932108Y-28118354D01*
X130932105Y-28118351D01*
X130932103Y-28118348D01*
X130792931Y-27979176D01*
X130792927Y-27979173D01*
X130792926Y-27979172D01*
X130633685Y-27863476D01*
X130633681Y-27863473D01*
X130458305Y-27774116D01*
X130456785Y-27773622D01*
X130271106Y-27713291D01*
X130271100Y-27713290D01*
X130271097Y-27713289D01*
X130076700Y-27682500D01*
X130076697Y-27682500D01*
X129879863Y-27682500D01*
X129879859Y-27682500D01*
X129685462Y-27713289D01*
X129685457Y-27713290D01*
X129685454Y-27713291D01*
X129564064Y-27752733D01*
X129498254Y-27774116D01*
X129322878Y-27863473D01*
X129163628Y-27979176D01*
X129024456Y-28118348D01*
X128908753Y-28277598D01*
X128819396Y-28452974D01*
X128798013Y-28518784D01*
X128758571Y-28640174D01*
X128758570Y-28640177D01*
X128758569Y-28640182D01*
X128727780Y-28834579D01*
X128458779Y-28834579D01*
X128427989Y-28640174D01*
X128367164Y-28452975D01*
X128277804Y-28277595D01*
X128162108Y-28118354D01*
X128162105Y-28118351D01*
X128162103Y-28118348D01*
X128022931Y-27979176D01*
X128022927Y-27979173D01*
X128022926Y-27979172D01*
X127863685Y-27863476D01*
X127863681Y-27863473D01*
X127688305Y-27774116D01*
X127686785Y-27773622D01*
X127501106Y-27713291D01*
X127501100Y-27713290D01*
X127501097Y-27713289D01*
X127306700Y-27682500D01*
X127306697Y-27682500D01*
X127109863Y-27682500D01*
X127109859Y-27682500D01*
X126915462Y-27713289D01*
X126915457Y-27713290D01*
X126915454Y-27713291D01*
X126794064Y-27752733D01*
X126728254Y-27774116D01*
X126552878Y-27863473D01*
X126393628Y-27979176D01*
X126254456Y-28118348D01*
X126138753Y-28277598D01*
X126049396Y-28452974D01*
X126028013Y-28518784D01*
X125988571Y-28640174D01*
X125988570Y-28640177D01*
X125988569Y-28640182D01*
X125957780Y-28834579D01*
X125688779Y-28834579D01*
X125657989Y-28640174D01*
X125597164Y-28452975D01*
X125507804Y-28277595D01*
X125392108Y-28118354D01*
X125392105Y-28118351D01*
X125392103Y-28118348D01*
X125252931Y-27979176D01*
X125252927Y-27979173D01*
X125252926Y-27979172D01*
X125093685Y-27863476D01*
X125093681Y-27863473D01*
X124918305Y-27774116D01*
X124916785Y-27773622D01*
X124731106Y-27713291D01*
X124731100Y-27713290D01*
X124731097Y-27713289D01*
X124536700Y-27682500D01*
X124536697Y-27682500D01*
X124339863Y-27682500D01*
X124339859Y-27682500D01*
X124145462Y-27713289D01*
X124145457Y-27713290D01*
X124145454Y-27713291D01*
X124024064Y-27752733D01*
X123958254Y-27774116D01*
X123782878Y-27863473D01*
X123623628Y-27979176D01*
X123484456Y-28118348D01*
X123368753Y-28277598D01*
X123279396Y-28452974D01*
X123258013Y-28518784D01*
X123218571Y-28640174D01*
X123218570Y-28640177D01*
X123218569Y-28640182D01*
X123187780Y-28834579D01*
X122918779Y-28834579D01*
X122887989Y-28640174D01*
X122827164Y-28452975D01*
X122737804Y-28277595D01*
X122622108Y-28118354D01*
X122622105Y-28118351D01*
X122622103Y-28118348D01*
X122482931Y-27979176D01*
X122482927Y-27979173D01*
X122482926Y-27979172D01*
X122323685Y-27863476D01*
X122323681Y-27863473D01*
X122148305Y-27774116D01*
X122146785Y-27773622D01*
X121961106Y-27713291D01*
X121961100Y-27713290D01*
X121961097Y-27713289D01*
X121766700Y-27682500D01*
X121766697Y-27682500D01*
X121569863Y-27682500D01*
X121569859Y-27682500D01*
X121375462Y-27713289D01*
X121375457Y-27713290D01*
X121375454Y-27713291D01*
X121254064Y-27752733D01*
X121188254Y-27774116D01*
X121012878Y-27863473D01*
X120853628Y-27979176D01*
X120714456Y-28118348D01*
X120598753Y-28277598D01*
X120509396Y-28452974D01*
X120488013Y-28518784D01*
X120448571Y-28640174D01*
X120448570Y-28640177D01*
X120448569Y-28640182D01*
X120417780Y-28834579D01*
X115666292Y-28834579D01*
X115605239Y-28737413D01*
X115468670Y-28566162D01*
X114568837Y-29465995D01*
X114491485Y-29359529D01*
X114321751Y-29189795D01*
X114215283Y-29112442D01*
X115115117Y-28212608D01*
X114943866Y-28076040D01*
X114678768Y-27909469D01*
X114678765Y-27909467D01*
X114396691Y-27773628D01*
X114396676Y-27773622D01*
X114101185Y-27670226D01*
X114101163Y-27670219D01*
X113795942Y-27600555D01*
X113484829Y-27565500D01*
X113171730Y-27565500D01*
X112860619Y-27600555D01*
X112860615Y-27600555D01*
X112555396Y-27670219D01*
X112555374Y-27670226D01*
X112259883Y-27773622D01*
X112259868Y-27773628D01*
X111977794Y-27909467D01*
X111977791Y-27909469D01*
X111712690Y-28076042D01*
X111541441Y-28212607D01*
X112441275Y-29112442D01*
X112334809Y-29189795D01*
X112165075Y-29359529D01*
X112087722Y-29465995D01*
X111187887Y-28566161D01*
X111051322Y-28737410D01*
X110884749Y-29002511D01*
X110884747Y-29002514D01*
X110748908Y-29284588D01*
X110748902Y-29284603D01*
X110645506Y-29580094D01*
X110645499Y-29580116D01*
X110575835Y-29885335D01*
X110575835Y-29885339D01*
X110540780Y-30196450D01*
X109500500Y-30196450D01*
X109500500Y-21134500D01*
X109521772Y-21062054D01*
X109578834Y-21012609D01*
X109634500Y-21000500D01*
X152508704Y-21000500D01*
X152581150Y-21021772D01*
G37*
%TD.AperFunction*%
%TD*%
M02*
