M48
; DRILL file KiCad 10.0.3 date 2026-09-09T15:38:22
; FORMAT={-:-/ absolute / metric / decimal}
; #@! TF.CreationDate,2026-09-09T15:38:22-07:00
; #@! TF.GenerationSoftware,Kicad,Pcbnew,10.0.3
; #@! TF.FileFunction,MixedPlating,1,4
FMAT,2
METRIC
; #@! TA.AperFunction,Plated,PTH,ViaDrill
T1C0.250
; #@! TA.AperFunction,Plated,PTH,ViaDrill
T2C0.300
; #@! TA.AperFunction,Plated,PTH,ViaDrill
T3C0.400
; #@! TA.AperFunction,Plated,PTH,ComponentDrill
T4C0.500
; #@! TA.AperFunction,Plated,PTH,ComponentDrill
T5C0.700
; #@! TA.AperFunction,Plated,PTH,ComponentDrill
T6C0.800
; #@! TA.AperFunction,Plated,PTH,ComponentDrill
T7C1.000
; #@! TA.AperFunction,Plated,PTH,ComponentDrill
T8C1.100
; #@! TA.AperFunction,Plated,PTH,ComponentDrill
T9C1.200
; #@! TA.AperFunction,Plated,PTH,ComponentDrill
T10C3.200
; #@! TA.AperFunction,NonPlated,NPTH,ComponentDrill
T11C1.600
%
G90
G05
T1
X155.671Y-32.477
T2
X157.7Y-40.8
X165.0Y-28.6
X184.7Y-101.425
T3
X114.0Y-73.525
X119.0Y-40.0
X119.5Y-52.5
X120.5Y-108.5
X121.0Y-40.0
X121.0Y-44.0
X123.5Y-108.0
X124.0Y-38.0
X125.449Y-47.521
X126.961Y-105.103
X127.011Y-93.553
X129.0Y-52.5
X130.0Y-83.975
X131.0Y-47.0
X131.461Y-103.103
X134.0Y-71.5
X134.961Y-95.603
X136.461Y-81.103
X137.961Y-83.103
X138.5Y-52.5
X139.0Y-44.5
X139.411Y-93.553
X139.411Y-105.153
X142.768Y-82.881
X143.991Y-34.821
X144.412Y-101.007
X145.007Y-86.129
X145.461Y-108.103
X145.515Y-78.763
X145.86Y-41.027
X145.966Y-105.583
X148.0Y-52.5
X148.5Y-64.0
X148.526Y-76.409
X149.05Y-99.845
X149.459Y-84.284
X149.466Y-95.613
X150.461Y-106.103
X150.849Y-99.337
X150.961Y-93.603
X151.0Y-34.0
X151.357Y-71.905
X151.611Y-82.319
X152.461Y-95.603
X153.449Y-107.116
X154.077Y-96.925
X155.0Y-90.0
X155.762Y-101.007
X157.5Y-52.5
X158.739Y-105.654
X159.144Y-100.974
X159.961Y-32.603
X162.461Y-110.603
X163.041Y-78.98
X163.5Y-106.5
X164.005Y-95.603
X164.12Y-78.98
X164.194Y-100.099
X164.461Y-111.603
X165.0Y-95.603
X165.5Y-101.0
X165.581Y-107.211
X166.0Y-37.0
X166.0Y-42.0
X166.0Y-45.0
X170.494Y-100.974
X170.494Y-105.951
X175.0Y-58.5
X175.461Y-104.103
X175.725Y-59.5
X176.5Y-42.0
X176.5Y-67.5
X177.5Y-44.0
X177.5Y-68.5
X178.102Y-32.28
X181.461Y-98.603
X182.961Y-91.603
X182.961Y-93.103
X182.961Y-94.603
X185.961Y-98.103
X188.5Y-96.0
X189.5Y-94.5
X189.83Y-64.602
X190.83Y-66.602
X191.83Y-69.102
T4
X111.6Y-38.631
X111.6Y-112.0
X112.303Y-36.934
X112.303Y-40.328
X112.303Y-110.303
X112.303Y-113.697
X114.0Y-36.231
X114.0Y-41.031
X114.0Y-109.6
X114.0Y-114.4
X115.697Y-36.934
X115.697Y-40.328
X115.697Y-110.303
X115.697Y-113.697
X116.4Y-38.631
X116.4Y-112.0
X186.297Y-112.0
X187.0Y-110.303
X187.0Y-113.697
X188.697Y-109.6
X188.697Y-114.4
X190.394Y-110.303
X190.394Y-113.697
X191.097Y-112.0
T5
X131.0Y-36.5
T6
X114.46Y-45.0
X117.0Y-45.0
X132.503Y-39.8
X132.503Y-42.34
T7
X120.283Y-31.773
X121.668Y-28.933
X123.053Y-31.773
X124.438Y-28.933
X125.823Y-31.773
X127.208Y-28.933
X127.5Y-69.0
X127.5Y-74.0
X128.593Y-31.773
X129.978Y-28.933
X131.363Y-31.773
X132.748Y-28.933
X134.133Y-31.773
X135.518Y-28.933
X136.903Y-31.773
X138.288Y-28.933
X139.673Y-31.773
X156.437Y-71.905
X158.977Y-71.905
X161.517Y-71.905
T8
X114.875Y-60.46
X114.875Y-63.0
X123.875Y-60.46
X123.875Y-63.0
X133.375Y-60.46
X133.375Y-63.0
X143.0Y-60.46
X143.0Y-63.0
X152.5Y-60.46
X152.5Y-63.0
X153.92Y-37.0
X156.46Y-37.0
X159.0Y-37.0
X161.5Y-60.46
X161.5Y-63.0
T9
X116.0Y-89.96
X116.0Y-92.5
X116.0Y-95.04
X116.0Y-97.58
X116.0Y-100.12
X116.0Y-102.66
T10
X113.328Y-30.353
X114.0Y-38.631
X114.0Y-112.0
X146.628Y-30.353
X188.697Y-112.0
T11
X157.707Y-21.613
T7
X153.207Y-24.363G85X153.207Y-22.863
G05
X157.057Y-24.613G85X158.357Y-24.613
G05
X156.707Y-30.613G85X158.707Y-30.613
G05
X162.207Y-24.363G85X162.207Y-22.863
G05
M30
