%TF.GenerationSoftware,KiCad,Pcbnew,10.0.3*%
%TF.CreationDate,2026-07-16T12:56:16-07:00*%
%TF.ProjectId,fluidics-v2,666c7569-6469-4637-932d-76322e6b6963,rev?*%
%TF.SameCoordinates,Original*%
%TF.FileFunction,Paste,Top*%
%TF.FilePolarity,Positive*%
%FSLAX46Y46*%
G04 Gerber Fmt 4.6, Leading zero omitted, Abs format (unit mm)*
G04 Created by KiCad (PCBNEW 10.0.3) date 2026-07-16 12:56:16*
%MOMM*%
%LPD*%
G01*
G04 APERTURE LIST*
G04 Aperture macros list*
%AMRoundRect*
0 Rectangle with rounded corners*
0 $1 Rounding radius*
0 $2 $3 $4 $5 $6 $7 $8 $9 X,Y pos of 4 corners*
0 Add a 4 corners polygon primitive as box body*
4,1,4,$2,$3,$4,$5,$6,$7,$8,$9,$2,$3,0*
0 Add four circle primitives for the rounded corners*
1,1,$1+$1,$2,$3*
1,1,$1+$1,$4,$5*
1,1,$1+$1,$6,$7*
1,1,$1+$1,$8,$9*
0 Add four rect primitives between the rounded corners*
20,1,$1+$1,$2,$3,$4,$5,0*
20,1,$1+$1,$4,$5,$6,$7,0*
20,1,$1+$1,$6,$7,$8,$9,0*
20,1,$1+$1,$8,$9,$2,$3,0*%
G04 Aperture macros list end*
%ADD10R,2.750000X1.000000*%
%ADD11R,1.525000X0.650000*%
%ADD12RoundRect,0.135000X-0.185000X0.135000X-0.185000X-0.135000X0.185000X-0.135000X0.185000X0.135000X0*%
%ADD13RoundRect,0.200000X-0.200000X-0.275000X0.200000X-0.275000X0.200000X0.275000X-0.200000X0.275000X0*%
%ADD14R,3.403600X0.711200*%
%ADD15R,2.387600X1.600200*%
%ADD16RoundRect,0.250000X-0.250000X-0.475000X0.250000X-0.475000X0.250000X0.475000X-0.250000X0.475000X0*%
%ADD17RoundRect,0.135000X0.185000X-0.135000X0.185000X0.135000X-0.185000X0.135000X-0.185000X-0.135000X0*%
%ADD18R,0.558800X2.184400*%
%ADD19R,0.800000X1.300000*%
%ADD20R,2.100000X3.000000*%
%ADD21RoundRect,0.147500X-0.147500X-0.172500X0.147500X-0.172500X0.147500X0.172500X-0.147500X0.172500X0*%
%ADD22RoundRect,0.225000X-0.225000X-0.250000X0.225000X-0.250000X0.225000X0.250000X-0.225000X0.250000X0*%
%ADD23RoundRect,0.250000X-0.450000X0.262500X-0.450000X-0.262500X0.450000X-0.262500X0.450000X0.262500X0*%
%ADD24RoundRect,0.135000X-0.135000X-0.185000X0.135000X-0.185000X0.135000X0.185000X-0.135000X0.185000X0*%
%ADD25RoundRect,0.237500X0.237500X-0.250000X0.237500X0.250000X-0.237500X0.250000X-0.237500X-0.250000X0*%
%ADD26RoundRect,0.225000X-0.250000X0.225000X-0.250000X-0.225000X0.250000X-0.225000X0.250000X0.225000X0*%
%ADD27RoundRect,0.250000X-1.400000X-1.000000X1.400000X-1.000000X1.400000X1.000000X-1.400000X1.000000X0*%
%ADD28R,1.900000X1.000000*%
%ADD29RoundRect,0.250000X-0.785000X-1.045000X0.785000X-1.045000X0.785000X1.045000X-0.785000X1.045000X0*%
%ADD30RoundRect,0.075000X-0.910000X-0.225000X0.910000X-0.225000X0.910000X0.225000X-0.910000X0.225000X0*%
%ADD31R,1.475000X0.450000*%
%ADD32RoundRect,0.225000X0.225000X0.250000X-0.225000X0.250000X-0.225000X-0.250000X0.225000X-0.250000X0*%
%ADD33R,0.300000X0.866400*%
%ADD34RoundRect,0.225000X0.250000X-0.225000X0.250000X0.225000X-0.250000X0.225000X-0.250000X-0.225000X0*%
%ADD35RoundRect,0.250000X-0.325000X-0.650000X0.325000X-0.650000X0.325000X0.650000X-0.325000X0.650000X0*%
%ADD36RoundRect,0.250000X0.475000X-0.250000X0.475000X0.250000X-0.475000X0.250000X-0.475000X-0.250000X0*%
%ADD37RoundRect,0.243750X-0.243750X-0.456250X0.243750X-0.456250X0.243750X0.456250X-0.243750X0.456250X0*%
%ADD38RoundRect,0.250000X0.250000X0.475000X-0.250000X0.475000X-0.250000X-0.475000X0.250000X-0.475000X0*%
%ADD39RoundRect,0.250000X1.100000X-0.325000X1.100000X0.325000X-1.100000X0.325000X-1.100000X-0.325000X0*%
%ADD40RoundRect,0.150000X-0.150000X0.512500X-0.150000X-0.512500X0.150000X-0.512500X0.150000X0.512500X0*%
%ADD41RoundRect,0.243750X-0.456250X0.243750X-0.456250X-0.243750X0.456250X-0.243750X0.456250X0.243750X0*%
%ADD42R,0.838200X0.355600*%
%ADD43RoundRect,0.243750X0.456250X-0.243750X0.456250X0.243750X-0.456250X0.243750X-0.456250X-0.243750X0*%
%ADD44RoundRect,0.135000X0.135000X0.185000X-0.135000X0.185000X-0.135000X-0.185000X0.135000X-0.185000X0*%
G04 APERTURE END LIST*
D10*
%TO.C,J10*%
X112500000Y-52230000D03*
X116750000Y-52230000D03*
X112500000Y-54230000D03*
X116750000Y-54230000D03*
%TD*%
D11*
%TO.C,IC2*%
X131463280Y-43965000D03*
X131463280Y-42695000D03*
X131463280Y-41425000D03*
X131463280Y-40155000D03*
X126039280Y-40155000D03*
X126039280Y-41425000D03*
X126039280Y-42695000D03*
X126039280Y-43965000D03*
%TD*%
D12*
%TO.C,R5*%
X148309280Y-86794500D03*
X148309280Y-87814500D03*
%TD*%
D13*
%TO.C,R10*%
X177646280Y-104403000D03*
X179296280Y-104403000D03*
%TD*%
D14*
%TO.C,J2*%
X128961280Y-103103001D03*
X128961280Y-101603002D03*
X128961280Y-100103002D03*
X128961280Y-98603000D03*
X128961280Y-97103000D03*
X128961280Y-95603001D03*
D15*
X127011279Y-105153002D03*
X127011279Y-93553000D03*
%TD*%
D16*
%TO.C,C8*%
X124925280Y-45616000D03*
X126825280Y-45616000D03*
%TD*%
D10*
%TO.C,J12*%
X122010000Y-52230000D03*
X126260000Y-52230000D03*
X122010000Y-54230000D03*
X126260000Y-54230000D03*
%TD*%
D17*
%TO.C,R40*%
X150461280Y-95613000D03*
X150461280Y-94593000D03*
%TD*%
D18*
%TO.C,U12*%
X143102280Y-74114800D03*
X141832280Y-74114800D03*
X140562280Y-74114800D03*
X139292280Y-74114800D03*
X138022280Y-74114800D03*
X136752280Y-74114800D03*
X135482280Y-74114800D03*
X134212280Y-74114800D03*
X134212280Y-78839200D03*
X135482280Y-78839200D03*
X136752280Y-78839200D03*
X138022280Y-78839200D03*
X139292280Y-78839200D03*
X140562280Y-78839200D03*
X141832280Y-78839200D03*
X143102280Y-78839200D03*
%TD*%
D19*
%TO.C,J20*%
X161694280Y-98223500D03*
X162944280Y-98223500D03*
X164194280Y-98223500D03*
X165444280Y-98223500D03*
X166694280Y-98223500D03*
X167944280Y-98223500D03*
D20*
X159144280Y-100973500D03*
X170494280Y-100973500D03*
%TD*%
D21*
%TO.C,D11*%
X172576280Y-108028000D03*
X173546280Y-108028000D03*
%TD*%
D22*
%TO.C,C5*%
X132212280Y-45616000D03*
X133762280Y-45616000D03*
%TD*%
D23*
%TO.C,R3*%
X149071280Y-71500500D03*
X149071280Y-73325500D03*
%TD*%
D24*
%TO.C,R9*%
X176961280Y-101453000D03*
X177981280Y-101453000D03*
%TD*%
D25*
%TO.C,R51*%
X165000000Y-73912500D03*
X165000000Y-72087500D03*
%TD*%
D26*
%TO.C,C20*%
X149608280Y-35595000D03*
X149608280Y-37145000D03*
%TD*%
D27*
%TO.C,D21*%
X178102000Y-22530000D03*
X178102000Y-29330000D03*
%TD*%
D10*
%TO.C,J18*%
X141135000Y-52230000D03*
X145385000Y-52230000D03*
X141135000Y-54230000D03*
X145385000Y-54230000D03*
%TD*%
D21*
%TO.C,D10*%
X172576280Y-104988000D03*
X173546280Y-104988000D03*
%TD*%
D17*
%TO.C,R23*%
X122319280Y-44094000D03*
X122319280Y-43074000D03*
%TD*%
D12*
%TO.C,R41*%
X146961280Y-105583000D03*
X146961280Y-106603000D03*
%TD*%
D28*
%TO.C,U2*%
X168960000Y-22120000D03*
X172260000Y-22120000D03*
X168960000Y-24660000D03*
X172260000Y-24660000D03*
X168960000Y-27200000D03*
X172260000Y-27200000D03*
X168960000Y-29740000D03*
X172260000Y-29740000D03*
X168960000Y-32280000D03*
X172260000Y-32280000D03*
X168960000Y-34820000D03*
X172260000Y-34820000D03*
X168960000Y-37360000D03*
X172260000Y-37360000D03*
X168960000Y-39900000D03*
X172260000Y-39900000D03*
X168960000Y-42440000D03*
X172260000Y-42440000D03*
X168960000Y-44980000D03*
X172260000Y-44980000D03*
X168960000Y-47520000D03*
X172260000Y-47520000D03*
X168960000Y-50060000D03*
X172260000Y-50060000D03*
X168960000Y-52600000D03*
X172260000Y-52600000D03*
X168960000Y-55140000D03*
X172260000Y-55140000D03*
X168960000Y-57680000D03*
X172260000Y-57680000D03*
X168960000Y-60220000D03*
X172260000Y-60220000D03*
X168960000Y-62760000D03*
X172260000Y-62760000D03*
X168960000Y-65300000D03*
X172260000Y-65300000D03*
X168960000Y-67840000D03*
X172260000Y-67840000D03*
X168960000Y-70380000D03*
X172260000Y-70380000D03*
X168960000Y-72920000D03*
X172260000Y-72920000D03*
X168960000Y-75460000D03*
X172260000Y-75460000D03*
X168960000Y-78000000D03*
X172260000Y-78000000D03*
X168960000Y-80540000D03*
X172260000Y-80540000D03*
X184200000Y-80540000D03*
X187500000Y-80540000D03*
X184200000Y-78000000D03*
X187500000Y-78000000D03*
X184200000Y-75460000D03*
X187500000Y-75460000D03*
X184200000Y-72920000D03*
X187500000Y-72920000D03*
X184200000Y-70380000D03*
X187500000Y-70380000D03*
X184200000Y-67840000D03*
X187500000Y-67840000D03*
X184200000Y-65300000D03*
X187500000Y-65300000D03*
X184200000Y-62760000D03*
X187500000Y-62760000D03*
X184200000Y-60220000D03*
X187500000Y-60220000D03*
X184200000Y-57680000D03*
X187500000Y-57680000D03*
X184200000Y-55140000D03*
X187500000Y-55140000D03*
X184200000Y-52600000D03*
X187500000Y-52600000D03*
X184200000Y-50060000D03*
X187500000Y-50060000D03*
X184200000Y-47520000D03*
X187500000Y-47520000D03*
X184200000Y-44980000D03*
X187500000Y-44980000D03*
X184200000Y-42440000D03*
X187500000Y-42440000D03*
X184200000Y-39900000D03*
X187500000Y-39900000D03*
X184200000Y-37360000D03*
X187500000Y-37360000D03*
X184200000Y-34820000D03*
X187500000Y-34820000D03*
X184200000Y-32280000D03*
X187500000Y-32280000D03*
X184200000Y-29740000D03*
X187500000Y-29740000D03*
X184200000Y-27200000D03*
X187500000Y-27200000D03*
X184200000Y-24660000D03*
X187500000Y-24660000D03*
X184200000Y-22120000D03*
X187500000Y-22120000D03*
%TD*%
D29*
%TO.C,C3*%
X114055000Y-73525000D03*
X120295000Y-73525000D03*
%TD*%
D19*
%TO.C,J17*%
X167944280Y-108701000D03*
X166694280Y-108701000D03*
X165444280Y-108701000D03*
X164194280Y-108701000D03*
X162944280Y-108701000D03*
X161694280Y-108701000D03*
D20*
X170494280Y-105951000D03*
X159144280Y-105951000D03*
%TD*%
D30*
%TO.C,U1*%
X181011280Y-87483000D03*
X181011280Y-88753000D03*
X181011280Y-90023000D03*
X181011280Y-91293000D03*
X181011280Y-92563000D03*
X181011280Y-93833000D03*
X181011280Y-95103000D03*
X181011280Y-96373000D03*
X185961280Y-96373000D03*
X185961280Y-95103000D03*
X185961280Y-93833000D03*
X185961280Y-92563000D03*
X185961280Y-91293000D03*
X185961280Y-90023000D03*
X185961280Y-88753000D03*
X185961280Y-87483000D03*
%TD*%
D12*
%TO.C,R42*%
X144971280Y-105583000D03*
X144971280Y-106603000D03*
%TD*%
D31*
%TO.C,U11*%
X145434280Y-40352000D03*
X145434280Y-39702000D03*
X145434280Y-39052000D03*
X145434280Y-38402000D03*
X145434280Y-37752000D03*
X145434280Y-37102000D03*
X145434280Y-36452000D03*
X145434280Y-35802000D03*
X139558280Y-35802000D03*
X139558280Y-36452000D03*
X139558280Y-37102000D03*
X139558280Y-37752000D03*
X139558280Y-38402000D03*
X139558280Y-39052000D03*
X139558280Y-39702000D03*
X139558280Y-40352000D03*
%TD*%
D32*
%TO.C,C9*%
X123430280Y-45489000D03*
X121880280Y-45489000D03*
%TD*%
D33*
%TO.C,U6*%
X120850001Y-39419201D03*
X121500000Y-39419201D03*
X122149999Y-39419201D03*
X122149999Y-37580799D03*
X121500000Y-37580799D03*
X120850001Y-37580799D03*
%TD*%
D34*
%TO.C,C17*%
X148084280Y-38161000D03*
X148084280Y-36611000D03*
%TD*%
D22*
%TO.C,C15*%
X139422280Y-41958000D03*
X140972280Y-41958000D03*
%TD*%
D35*
%TO.C,C4*%
X155025000Y-90000000D03*
X157975000Y-90000000D03*
%TD*%
D36*
%TO.C,C18*%
X137416280Y-41318000D03*
X137416280Y-39418000D03*
%TD*%
D34*
%TO.C,C6*%
X118550000Y-41450000D03*
X118550000Y-39900000D03*
%TD*%
D17*
%TO.C,R22*%
X123417280Y-44094000D03*
X123417280Y-43074000D03*
%TD*%
D10*
%TO.C,J25*%
X160000000Y-52230000D03*
X164250000Y-52230000D03*
X160000000Y-54230000D03*
X164250000Y-54230000D03*
%TD*%
D22*
%TO.C,C22*%
X139961280Y-81103000D03*
X141511280Y-81103000D03*
%TD*%
D17*
%TO.C,R44*%
X165500000Y-95603000D03*
X165500000Y-94583000D03*
%TD*%
D21*
%TO.C,D9*%
X172576280Y-101948000D03*
X173546280Y-101948000D03*
%TD*%
%TO.C,D12*%
X172515000Y-99000000D03*
X173485000Y-99000000D03*
%TD*%
D17*
%TO.C,R43*%
X163510000Y-95603000D03*
X163510000Y-94583000D03*
%TD*%
D37*
%TO.C,D3*%
X155488500Y-34000000D03*
X157363500Y-34000000D03*
%TD*%
D38*
%TO.C,C7*%
X130381280Y-45616000D03*
X128481280Y-45616000D03*
%TD*%
D16*
%TO.C,C24*%
X139466280Y-82993001D03*
X141366280Y-82993001D03*
%TD*%
D34*
%TO.C,C16*%
X148084280Y-41209000D03*
X148084280Y-39659000D03*
%TD*%
D39*
%TO.C,C10*%
X129000000Y-83975000D03*
X129000000Y-81025000D03*
%TD*%
D24*
%TO.C,R1*%
X118990000Y-36500000D03*
X120010000Y-36500000D03*
%TD*%
%TO.C,R12*%
X176990000Y-98000000D03*
X178010000Y-98000000D03*
%TD*%
D40*
%TO.C,U3*%
X149259280Y-80552000D03*
X148309280Y-80552000D03*
X147359280Y-80552000D03*
X147359280Y-82827000D03*
X149259280Y-82827000D03*
%TD*%
D32*
%TO.C,C21*%
X146798280Y-74191000D03*
X145248280Y-74191000D03*
%TD*%
D38*
%TO.C,C23*%
X146719280Y-75969000D03*
X144819280Y-75969000D03*
%TD*%
D10*
%TO.C,J14*%
X131510000Y-52230000D03*
X135760000Y-52230000D03*
X131510000Y-54230000D03*
X135760000Y-54230000D03*
%TD*%
D32*
%TO.C,C2*%
X149658280Y-84483500D03*
X148108280Y-84483500D03*
%TD*%
D17*
%TO.C,R39*%
X148471280Y-95613000D03*
X148471280Y-94593000D03*
%TD*%
D26*
%TO.C,C19*%
X149608280Y-40167000D03*
X149608280Y-41717000D03*
%TD*%
D10*
%TO.C,J21*%
X150635000Y-52230000D03*
X154885000Y-52230000D03*
X150635000Y-54230000D03*
X154885000Y-54230000D03*
%TD*%
D24*
%TO.C,R11*%
X176961280Y-107353000D03*
X177981280Y-107353000D03*
%TD*%
D41*
%TO.C,D4*%
X146531280Y-86207500D03*
X146531280Y-88082500D03*
%TD*%
D19*
%TO.C,J15*%
X146962280Y-98257500D03*
X148212280Y-98257500D03*
X149462280Y-98257500D03*
X150712280Y-98257500D03*
X151962280Y-98257500D03*
X153212280Y-98257500D03*
D20*
X144412280Y-101007500D03*
X155762280Y-101007500D03*
%TD*%
D42*
%TO.C,U13*%
X139853679Y-86637000D03*
X139853679Y-85987001D03*
X139853679Y-85337002D03*
X137770879Y-85337002D03*
X137770879Y-85987001D03*
X137770879Y-86637000D03*
%TD*%
D43*
%TO.C,D2*%
X149000000Y-76906500D03*
X149000000Y-75031500D03*
%TD*%
D44*
%TO.C,R4*%
X161000000Y-34000000D03*
X159980000Y-34000000D03*
%TD*%
D22*
%TO.C,C1*%
X147600280Y-78895500D03*
X149150280Y-78895500D03*
%TD*%
D14*
%TO.C,J4*%
X137461280Y-95603001D03*
X137461280Y-97103000D03*
X137461280Y-98603000D03*
X137461280Y-100103002D03*
X137461280Y-101603002D03*
X137461280Y-103103001D03*
D15*
X139411281Y-93553000D03*
X139411281Y-105153002D03*
%TD*%
M02*
