%TF.GenerationSoftware,KiCad,Pcbnew,10.0.3*%
%TF.CreationDate,2026-07-08T18:41:42-07:00*%
%TF.ProjectId,fluidics-v2,666c7569-6469-4637-932d-76322e6b6963,rev?*%
%TF.SameCoordinates,Original*%
%TF.FileFunction,Copper,L2,Inr*%
%TF.FilePolarity,Positive*%
%FSLAX46Y46*%
G04 Gerber Fmt 4.6, Leading zero omitted, Abs format (unit mm)*
G04 Created by KiCad (PCBNEW 10.0.3) date 2026-07-08 18:41:42*
%MOMM*%
%LPD*%
G01*
G04 APERTURE LIST*
G04 Aperture macros list*
%AMRoundRect*
0 Rectangle with rounded corners*
0 $1 Rounding radius*
0 $2 $3 $4 $5 $6 $7 $8 $9 X,Y pos of 4 corners*
0 Add a 4 corners polygon primitive as box body*
4,1,4,$2,$3,$4,$5,$6,$7,$8,$9,$2,$3,0*
0 Add four circle primitives for the rounded corners*
1,1,$1+$1,$2,$3*
1,1,$1+$1,$4,$5*
1,1,$1+$1,$6,$7*
1,1,$1+$1,$8,$9*
0 Add four rect primitives between the rounded corners*
20,1,$1+$1,$2,$3,$4,$5,0*
20,1,$1+$1,$4,$5,$6,$7,0*
20,1,$1+$1,$6,$7,$8,$9,0*
20,1,$1+$1,$8,$9,$2,$3,0*%
G04 Aperture macros list end*
%ADD10C,0.300000*%
%TA.AperFunction,NonConductor*%
%ADD11C,0.300000*%
%TD*%
%TA.AperFunction,ComponentPad*%
%ADD12C,0.525000*%
%TD*%
%TA.AperFunction,ComponentPad*%
%ADD13R,1.650000X1.650000*%
%TD*%
%TA.AperFunction,ComponentPad*%
%ADD14C,1.650000*%
%TD*%
%TA.AperFunction,ComponentPad*%
%ADD15C,0.700000*%
%TD*%
%TA.AperFunction,ComponentPad*%
%ADD16C,4.400000*%
%TD*%
%TA.AperFunction,ComponentPad*%
%ADD17O,4.500000X2.250000*%
%TD*%
%TA.AperFunction,ComponentPad*%
%ADD18O,4.000000X2.000000*%
%TD*%
%TA.AperFunction,ComponentPad*%
%ADD19O,2.000000X4.000000*%
%TD*%
%TA.AperFunction,ComponentPad*%
%ADD20RoundRect,0.249999X-0.850001X0.850001X-0.850001X-0.850001X0.850001X-0.850001X0.850001X0.850001X0*%
%TD*%
%TA.AperFunction,ComponentPad*%
%ADD21C,2.200000*%
%TD*%
%TA.AperFunction,ComponentPad*%
%ADD22C,1.574800*%
%TD*%
%TA.AperFunction,ComponentPad*%
%ADD23C,1.400000*%
%TD*%
%TA.AperFunction,ComponentPad*%
%ADD24R,1.500000X1.500000*%
%TD*%
%TA.AperFunction,ComponentPad*%
%ADD25C,1.500000*%
%TD*%
%TA.AperFunction,ComponentPad*%
%ADD26C,4.575000*%
%TD*%
%TA.AperFunction,ViaPad*%
%ADD27C,0.800000*%
%TD*%
G04 APERTURE END LIST*
D10*
D11*
X232961505Y-25223828D02*
X232104362Y-25223828D01*
X232532933Y-25223828D02*
X232532933Y-23723828D01*
X232532933Y-23723828D02*
X232390076Y-23938114D01*
X232390076Y-23938114D02*
X232247219Y-24080971D01*
X232247219Y-24080971D02*
X232104362Y-24152400D01*
D12*
%TO.N,N/C*%
%TO.C,J10*%
X158475000Y-52000000D03*
X158475000Y-58000000D03*
%TD*%
D13*
%TO.N,GND*%
%TO.C,J22*%
X114659000Y-65160000D03*
D14*
%TO.N,+24V*%
X114659000Y-67700000D03*
%TD*%
D12*
%TO.N,N/C*%
%TO.C,J12*%
X147775000Y-52000000D03*
X147775000Y-58000000D03*
%TD*%
D13*
%TO.N,GND*%
%TO.C,J24*%
X125500000Y-75500000D03*
D14*
%TO.N,+24V*%
X125500000Y-78040000D03*
%TD*%
D12*
%TO.N,N/C*%
%TO.C,J18*%
X126375000Y-52000000D03*
X126375000Y-58000000D03*
%TD*%
D15*
%TO.N,GND*%
%TO.C,H2*%
X113385280Y-38631000D03*
X113868554Y-37464274D03*
X113868554Y-39797726D03*
X115035280Y-36981000D03*
D16*
X115035280Y-38631000D03*
D15*
X115035280Y-40281000D03*
X116202006Y-37464274D03*
X116202006Y-39797726D03*
X116685280Y-38631000D03*
%TD*%
D17*
%TO.N,+24V*%
%TO.C,J1*%
X157707280Y-30613000D03*
D18*
%TO.N,GND*%
X157707280Y-24613000D03*
D19*
X153207280Y-23613000D03*
X162207280Y-23613000D03*
%TD*%
D13*
%TO.N,GND*%
%TO.C,J11*%
X157459000Y-65160000D03*
D14*
%TO.N,+24V*%
X157459000Y-67700000D03*
%TD*%
D20*
%TO.N,Net-(J7-Pin_1)*%
%TO.C,J7*%
X114040000Y-101000000D03*
D21*
%TO.N,+24V*%
X114040000Y-103540000D03*
%TD*%
D22*
%TO.N,/PG-5V*%
%TO.C,U4*%
X161517280Y-71905000D03*
%TO.N,unconnected-(U4-nSHDN-Pad2)*%
X158977280Y-71905000D03*
%TO.N,+24V*%
X156437280Y-71905000D03*
%TO.N,GND*%
X153897280Y-71905000D03*
%TO.N,+5V*%
X151357280Y-71905000D03*
%TD*%
D15*
%TO.N,GND*%
%TO.C,H4*%
X113350000Y-112000000D03*
X113833274Y-110833274D03*
X113833274Y-113166726D03*
X115000000Y-110350000D03*
D16*
X115000000Y-112000000D03*
D15*
X115000000Y-113650000D03*
X116166726Y-110833274D03*
X116166726Y-113166726D03*
X116650000Y-112000000D03*
%TD*%
D23*
%TO.N,/Selector Valves/SDA 5V*%
%TO.C,TP2*%
X126445280Y-36345000D03*
%TO.N,/Selector Valves/SCL 5V*%
X123905280Y-36345000D03*
%TD*%
D13*
%TO.N,GND*%
%TO.C,J19*%
X125359000Y-65160000D03*
D14*
%TO.N,+24V*%
X125359000Y-67700000D03*
%TD*%
D12*
%TO.N,N/C*%
%TO.C,J25*%
X115836280Y-74603000D03*
X115836280Y-80603000D03*
%TD*%
D23*
%TO.N,/SDA*%
%TO.C,TP1*%
X134003280Y-40300000D03*
%TO.N,/SCL*%
X134003280Y-42840000D03*
%TD*%
D20*
%TO.N,Net-(J6-Pin_1)*%
%TO.C,J6*%
X114040000Y-94000000D03*
D21*
%TO.N,+24V*%
X114040000Y-96540000D03*
%TD*%
D24*
%TO.N,GND*%
%TO.C,TP3*%
X132500000Y-37000000D03*
%TD*%
D25*
%TO.N,+24V*%
%TO.C,J3*%
X139673280Y-31773000D03*
%TO.N,/Syringe Pump/232_TX*%
X136903280Y-31773000D03*
%TO.N,/Syringe Pump/232_RX*%
X134133280Y-31773000D03*
%TO.N,unconnected-(J3-Pad4)*%
X131363280Y-31773000D03*
%TO.N,unconnected-(J3-Pad5)*%
X128593280Y-31773000D03*
%TO.N,unconnected-(J3-Pad6)*%
X125823280Y-31773000D03*
%TO.N,unconnected-(J3-Pad7)*%
X123053280Y-31773000D03*
%TO.N,unconnected-(J3-Pad8)*%
X120283280Y-31773000D03*
%TO.N,GND*%
X138288280Y-28933000D03*
X135518280Y-28933000D03*
%TO.N,unconnected-(J3-Pad11)*%
X132748280Y-28933000D03*
%TO.N,unconnected-(J3-Pad12)*%
X129978280Y-28933000D03*
%TO.N,unconnected-(J3-Pad13)*%
X127208280Y-28933000D03*
%TO.N,unconnected-(J3-Pad14)*%
X124438280Y-28933000D03*
%TO.N,unconnected-(J3-Pad15)*%
X121668280Y-28933000D03*
D26*
%TO.N,GND*%
X113328280Y-30353000D03*
X146628280Y-30353000D03*
%TD*%
D12*
%TO.N,N/C*%
%TO.C,J14*%
X137075000Y-52000000D03*
X137075000Y-58000000D03*
%TD*%
D13*
%TO.N,GND*%
%TO.C,J16*%
X136059000Y-65160000D03*
D14*
%TO.N,+24V*%
X136059000Y-67700000D03*
%TD*%
D13*
%TO.N,GND*%
%TO.C,J13*%
X146759000Y-65160000D03*
D14*
%TO.N,+24V*%
X146759000Y-67700000D03*
%TD*%
D15*
%TO.N,GND*%
%TO.C,H3*%
X183850000Y-112500000D03*
X184333274Y-111333274D03*
X184333274Y-113666726D03*
X185500000Y-110850000D03*
D16*
X185500000Y-112500000D03*
D15*
X185500000Y-114150000D03*
X186666726Y-111333274D03*
X186666726Y-113666726D03*
X187150000Y-112500000D03*
%TD*%
D12*
%TO.N,N/C*%
%TO.C,J21*%
X115675000Y-52000000D03*
X115675000Y-58000000D03*
%TD*%
D20*
%TO.N,Net-(J5-Pin_1)*%
%TO.C,J5*%
X114000000Y-86960000D03*
D21*
%TO.N,+24V*%
X114000000Y-89500000D03*
%TD*%
D27*
%TO.N,/Selector Valves/SDA 5V*%
X112461280Y-50103000D03*
X115461280Y-72103000D03*
X123163280Y-50175000D03*
%TO.N,/Selector Valves/SCL 5V*%
X127787487Y-38712513D03*
X119861280Y-51077000D03*
X129000000Y-37500000D03*
%TO.N,GND*%
X119861280Y-52855000D03*
X136461280Y-81103000D03*
X130529280Y-52855000D03*
X186150140Y-23650140D03*
X151865280Y-52855000D03*
X124564034Y-42082902D03*
X181461280Y-98603000D03*
X150341280Y-38885000D03*
X144412280Y-101007500D03*
X136371280Y-43711000D03*
X164194280Y-100099000D03*
X159144280Y-100973500D03*
X125195280Y-39139000D03*
X119961280Y-75603000D03*
X126961280Y-105103000D03*
X141197280Y-52855000D03*
X123163280Y-38377000D03*
X149050030Y-99845000D03*
X142768280Y-82881000D03*
X155762280Y-101007500D03*
X127011279Y-93553000D03*
X145007280Y-86129000D03*
X165581280Y-107211000D03*
X139411281Y-93553000D03*
X162533280Y-52855000D03*
X132815280Y-76731000D03*
X170494280Y-105951000D03*
X170494280Y-100973500D03*
X139411281Y-105153002D03*
X158738565Y-105653812D03*
%TO.N,+3.3V*%
X165581280Y-91971000D03*
X165444280Y-100236000D03*
X168883280Y-95527000D03*
X145515280Y-78763000D03*
X151611280Y-82319000D03*
X150849280Y-99337000D03*
X130783280Y-47267000D03*
X153135280Y-93749000D03*
%TO.N,/SCL*%
X173778916Y-74699000D03*
X173671780Y-68857000D03*
X155167280Y-43711000D03*
%TO.N,/SDA*%
X173671780Y-76409211D03*
X152119280Y-40917000D03*
X174370780Y-70381000D03*
%TO.N,+5V*%
X125449280Y-47521000D03*
X175233280Y-32281000D03*
X131461280Y-103103000D03*
X134961280Y-95603000D03*
X137961280Y-83103000D03*
%TO.N,+24V*%
X175461280Y-104103000D03*
X159961280Y-32603000D03*
X185961280Y-98103000D03*
%TO.N,/SDA1*%
X150961280Y-93603000D03*
X171379578Y-71633229D03*
X152461280Y-95603000D03*
X164119933Y-78979500D03*
%TO.N,/GPIO_6*%
X187961280Y-66603000D03*
X182961280Y-93103000D03*
%TO.N,/PG-5V*%
X170153280Y-87653000D03*
%TO.N,/SCL2*%
X172947280Y-75461000D03*
X173023235Y-67681059D03*
X153448627Y-107115653D03*
X164461280Y-111603000D03*
%TO.N,/SDA2*%
X172222780Y-74470500D03*
X145461280Y-108103000D03*
X172189579Y-70639299D03*
X150461280Y-106103000D03*
X162461280Y-110603000D03*
%TO.N,/GPIO_7*%
X182961280Y-94603000D03*
X188961280Y-69103000D03*
%TO.N,/GPIO_5*%
X182961280Y-91603000D03*
X186961280Y-64603000D03*
%TO.N,/SCL1*%
X171460780Y-72921000D03*
X163041280Y-78979500D03*
%TO.N,/GPIO_4*%
X186961280Y-38603000D03*
X184461280Y-83603000D03*
%TO.N,/GPIO_3*%
X183461280Y-84603000D03*
X175961280Y-35603000D03*
%TO.N,/GPIO_2*%
X182461280Y-85603000D03*
X177461280Y-33103000D03*
%TO.N,/GPIO_1*%
X180461280Y-85603000D03*
X178961280Y-28103000D03*
%TO.N,Net-(J6-Pin_1)*%
X188500000Y-96000000D03*
%TO.N,Net-(J5-Pin_1)*%
X189500000Y-94500000D03*
X123500000Y-108000000D03*
%TO.N,/Syringe Pump/232_TX*%
X143991280Y-34821000D03*
%TD*%
%TA.AperFunction,Conductor*%
%TO.N,GND*%
G36*
X152582252Y-21021772D02*
G01*
X152631697Y-21078834D01*
X152642442Y-21153570D01*
X152611076Y-21222251D01*
X152570640Y-21253895D01*
X152421109Y-21330084D01*
X152230105Y-21468855D01*
X152230094Y-21468865D01*
X152063145Y-21635814D01*
X152063135Y-21635825D01*
X151924364Y-21826829D01*
X151817176Y-22037199D01*
X151744213Y-22261757D01*
X151707280Y-22494943D01*
X151707280Y-23363000D01*
X152707280Y-23363000D01*
X152707280Y-23863000D01*
X151707280Y-23863000D01*
X151707280Y-24731056D01*
X151744213Y-24964242D01*
X151817176Y-25188800D01*
X151924364Y-25399170D01*
X152063135Y-25590174D01*
X152063145Y-25590185D01*
X152230094Y-25757134D01*
X152230105Y-25757144D01*
X152421109Y-25895915D01*
X152631482Y-26003105D01*
X152856023Y-26076064D01*
X152856033Y-26076066D01*
X152957280Y-26092101D01*
X152957280Y-24796012D01*
X153014287Y-24828925D01*
X153141454Y-24863000D01*
X153273106Y-24863000D01*
X153400273Y-24828925D01*
X153457280Y-24796012D01*
X153457280Y-26092100D01*
X153558526Y-26076066D01*
X153558536Y-26076064D01*
X153783077Y-26003105D01*
X153993450Y-25895915D01*
X154184454Y-25757144D01*
X154184465Y-25757134D01*
X154351414Y-25590185D01*
X154351424Y-25590174D01*
X154490195Y-25399170D01*
X154597383Y-25188800D01*
X154670346Y-24964242D01*
X154696046Y-24801986D01*
X154707279Y-24731056D01*
X154707280Y-24731054D01*
X154707280Y-24363000D01*
X155228178Y-24363000D01*
X156624268Y-24363000D01*
X156591355Y-24420007D01*
X156557280Y-24547174D01*
X156557280Y-24678826D01*
X156591355Y-24805993D01*
X156624268Y-24863000D01*
X155228178Y-24863000D01*
X155244212Y-24964241D01*
X155317176Y-25188800D01*
X155424364Y-25399170D01*
X155563135Y-25590174D01*
X155563145Y-25590185D01*
X155730094Y-25757134D01*
X155730105Y-25757144D01*
X155921109Y-25895915D01*
X156131479Y-26003103D01*
X156356037Y-26076066D01*
X156589223Y-26112999D01*
X156589226Y-26113000D01*
X157457280Y-26113000D01*
X157457280Y-25113000D01*
X157957280Y-25113000D01*
X157957280Y-26113000D01*
X158825334Y-26113000D01*
X158825336Y-26112999D01*
X159058522Y-26076066D01*
X159283080Y-26003103D01*
X159493450Y-25895915D01*
X159684454Y-25757144D01*
X159684465Y-25757134D01*
X159851414Y-25590185D01*
X159851424Y-25590174D01*
X159990195Y-25399170D01*
X160097383Y-25188800D01*
X160170347Y-24964241D01*
X160186382Y-24863000D01*
X158790292Y-24863000D01*
X158823205Y-24805993D01*
X158857280Y-24678826D01*
X158857280Y-24547174D01*
X158823205Y-24420007D01*
X158790292Y-24363000D01*
X160186382Y-24363000D01*
X160170347Y-24261758D01*
X160097383Y-24037199D01*
X160011342Y-23868331D01*
X160011341Y-23868330D01*
X159990194Y-23826826D01*
X159851424Y-23635825D01*
X159851414Y-23635814D01*
X159684465Y-23468865D01*
X159684454Y-23468855D01*
X159493450Y-23330084D01*
X159283080Y-23222896D01*
X159058522Y-23149933D01*
X158825336Y-23113000D01*
X157957280Y-23113000D01*
X157957280Y-24113000D01*
X157457280Y-24113000D01*
X157457280Y-23113000D01*
X156589223Y-23113000D01*
X156356037Y-23149933D01*
X156131479Y-23222896D01*
X155921109Y-23330084D01*
X155730105Y-23468855D01*
X155730094Y-23468865D01*
X155563145Y-23635814D01*
X155563135Y-23635825D01*
X155424364Y-23826829D01*
X155317176Y-24037199D01*
X155244212Y-24261758D01*
X155228178Y-24363000D01*
X154707280Y-24363000D01*
X154707280Y-23863000D01*
X153707280Y-23863000D01*
X153707280Y-23363000D01*
X154707280Y-23363000D01*
X154707280Y-22494945D01*
X154707279Y-22494943D01*
X154670346Y-22261757D01*
X154597383Y-22037199D01*
X154490195Y-21826829D01*
X154351424Y-21635825D01*
X154351414Y-21635814D01*
X154184465Y-21468865D01*
X154184454Y-21468855D01*
X153993450Y-21330084D01*
X153843920Y-21253895D01*
X153789027Y-21202052D01*
X153770877Y-21128762D01*
X153795232Y-21057293D01*
X153854359Y-21010337D01*
X153904754Y-21000500D01*
X156623387Y-21000500D01*
X156695833Y-21021772D01*
X156745278Y-21078834D01*
X156756023Y-21153570D01*
X156747187Y-21185779D01*
X156697151Y-21306577D01*
X156697148Y-21306585D01*
X156656780Y-21509531D01*
X156656780Y-21716468D01*
X156697148Y-21919414D01*
X156697149Y-21919419D01*
X156776338Y-22110597D01*
X156891299Y-22282651D01*
X157037628Y-22428980D01*
X157209682Y-22543941D01*
X157400860Y-22623130D01*
X157400865Y-22623131D01*
X157603812Y-22663500D01*
X157603815Y-22663500D01*
X157810748Y-22663500D01*
X157964006Y-22633014D01*
X158013700Y-22623130D01*
X158204878Y-22543941D01*
X158376935Y-22428977D01*
X158523257Y-22282655D01*
X158537221Y-22261757D01*
X158561058Y-22226081D01*
X158638221Y-22110598D01*
X158717410Y-21919420D01*
X158727294Y-21869726D01*
X158757780Y-21716468D01*
X158757780Y-21509531D01*
X158717411Y-21306585D01*
X158717410Y-21306584D01*
X158717410Y-21306580D01*
X158674113Y-21202052D01*
X158667373Y-21185779D01*
X158659302Y-21110708D01*
X158693099Y-21043190D01*
X158758034Y-21004662D01*
X158791173Y-21000500D01*
X161509806Y-21000500D01*
X161582252Y-21021772D01*
X161631697Y-21078834D01*
X161642442Y-21153570D01*
X161611076Y-21222251D01*
X161570640Y-21253895D01*
X161421109Y-21330084D01*
X161230105Y-21468855D01*
X161230094Y-21468865D01*
X161063145Y-21635814D01*
X161063135Y-21635825D01*
X160924364Y-21826829D01*
X160817176Y-22037199D01*
X160744213Y-22261757D01*
X160707280Y-22494943D01*
X160707280Y-23363000D01*
X161707280Y-23363000D01*
X161707280Y-23863000D01*
X160707280Y-23863000D01*
X160707280Y-24731056D01*
X160744213Y-24964242D01*
X160817176Y-25188800D01*
X160924364Y-25399170D01*
X161063135Y-25590174D01*
X161063145Y-25590185D01*
X161230094Y-25757134D01*
X161230105Y-25757144D01*
X161421109Y-25895915D01*
X161631482Y-26003105D01*
X161856023Y-26076064D01*
X161856033Y-26076066D01*
X161957280Y-26092101D01*
X161957280Y-24796012D01*
X162014287Y-24828925D01*
X162141454Y-24863000D01*
X162273106Y-24863000D01*
X162400273Y-24828925D01*
X162457280Y-24796012D01*
X162457280Y-26092100D01*
X162558526Y-26076066D01*
X162558536Y-26076064D01*
X162783077Y-26003105D01*
X162993450Y-25895915D01*
X163184454Y-25757144D01*
X163184465Y-25757134D01*
X163351414Y-25590185D01*
X163351424Y-25590174D01*
X163490195Y-25399170D01*
X163597383Y-25188800D01*
X163670346Y-24964242D01*
X163707279Y-24731056D01*
X163707280Y-24731054D01*
X163707280Y-23863000D01*
X162707280Y-23863000D01*
X162707280Y-23363000D01*
X163707280Y-23363000D01*
X163707280Y-22494945D01*
X163707279Y-22494943D01*
X163670346Y-22261757D01*
X163597383Y-22037199D01*
X163490195Y-21826829D01*
X163351424Y-21635825D01*
X163351414Y-21635814D01*
X163184465Y-21468865D01*
X163184454Y-21468855D01*
X162993450Y-21330084D01*
X162843920Y-21253895D01*
X162789027Y-21202052D01*
X162770877Y-21128762D01*
X162795232Y-21057293D01*
X162854359Y-21010337D01*
X162904754Y-21000500D01*
X194365500Y-21000500D01*
X194437946Y-21021772D01*
X194487391Y-21078834D01*
X194499500Y-21134500D01*
X194499500Y-116365500D01*
X194478228Y-116437946D01*
X194421166Y-116487391D01*
X194365500Y-116499500D01*
X109634500Y-116499500D01*
X109562054Y-116478228D01*
X109512609Y-116421166D01*
X109500500Y-116365500D01*
X109500500Y-111514309D01*
X163560780Y-111514309D01*
X163560780Y-111691690D01*
X163595384Y-111865660D01*
X163595386Y-111865666D01*
X163663267Y-112029547D01*
X163761816Y-112177035D01*
X163761818Y-112177037D01*
X163761821Y-112177041D01*
X163887238Y-112302458D01*
X163887241Y-112302460D01*
X163887245Y-112302464D01*
X164034733Y-112401013D01*
X164198614Y-112468894D01*
X164372589Y-112503500D01*
X164372590Y-112503500D01*
X164549970Y-112503500D01*
X164549971Y-112503500D01*
X164723946Y-112468894D01*
X164887827Y-112401013D01*
X165035315Y-112302464D01*
X165160744Y-112177035D01*
X165259293Y-112029547D01*
X165327174Y-111865666D01*
X165361780Y-111691691D01*
X165361780Y-111514309D01*
X165327174Y-111340334D01*
X165259293Y-111176453D01*
X165160744Y-111028965D01*
X165160740Y-111028961D01*
X165160738Y-111028958D01*
X165035321Y-110903541D01*
X165035317Y-110903538D01*
X165035315Y-110903536D01*
X164887827Y-110804987D01*
X164887824Y-110804985D01*
X164887823Y-110804985D01*
X164723946Y-110737106D01*
X164723940Y-110737104D01*
X164584388Y-110709346D01*
X164549971Y-110702500D01*
X164372589Y-110702500D01*
X164343856Y-110708215D01*
X164198619Y-110737104D01*
X164198613Y-110737106D01*
X164034736Y-110804985D01*
X163887238Y-110903541D01*
X163761821Y-111028958D01*
X163663265Y-111176456D01*
X163595386Y-111340333D01*
X163595384Y-111340339D01*
X163560780Y-111514309D01*
X109500500Y-111514309D01*
X109500500Y-110514309D01*
X161560780Y-110514309D01*
X161560780Y-110691690D01*
X161595384Y-110865660D01*
X161595386Y-110865666D01*
X161663267Y-111029547D01*
X161761816Y-111177035D01*
X161761818Y-111177037D01*
X161761821Y-111177041D01*
X161887238Y-111302458D01*
X161887241Y-111302460D01*
X161887245Y-111302464D01*
X162034733Y-111401013D01*
X162198614Y-111468894D01*
X162372589Y-111503500D01*
X162372590Y-111503500D01*
X162549970Y-111503500D01*
X162549971Y-111503500D01*
X162723946Y-111468894D01*
X162887827Y-111401013D01*
X163035315Y-111302464D01*
X163160744Y-111177035D01*
X163259293Y-111029547D01*
X163327174Y-110865666D01*
X163361780Y-110691691D01*
X163361780Y-110514309D01*
X163327174Y-110340334D01*
X163259293Y-110176453D01*
X163160744Y-110028965D01*
X163160740Y-110028961D01*
X163160738Y-110028958D01*
X163035321Y-109903541D01*
X163035317Y-109903538D01*
X163035315Y-109903536D01*
X162887827Y-109804987D01*
X162887824Y-109804985D01*
X162887823Y-109804985D01*
X162723946Y-109737106D01*
X162723940Y-109737104D01*
X162584388Y-109709346D01*
X162549971Y-109702500D01*
X162372589Y-109702500D01*
X162343856Y-109708215D01*
X162198619Y-109737104D01*
X162198613Y-109737106D01*
X162034736Y-109804985D01*
X161887238Y-109903541D01*
X161761821Y-110028958D01*
X161663265Y-110176456D01*
X161595386Y-110340333D01*
X161595384Y-110340339D01*
X161560780Y-110514309D01*
X109500500Y-110514309D01*
X109500500Y-107911309D01*
X122599500Y-107911309D01*
X122599500Y-108088690D01*
X122634104Y-108262660D01*
X122634106Y-108262666D01*
X122676769Y-108365666D01*
X122701987Y-108426547D01*
X122800536Y-108574035D01*
X122800538Y-108574037D01*
X122800541Y-108574041D01*
X122925958Y-108699458D01*
X122925961Y-108699460D01*
X122925965Y-108699464D01*
X123073453Y-108798013D01*
X123237334Y-108865894D01*
X123411309Y-108900500D01*
X123411310Y-108900500D01*
X123588690Y-108900500D01*
X123588691Y-108900500D01*
X123762666Y-108865894D01*
X123926547Y-108798013D01*
X124074035Y-108699464D01*
X124199464Y-108574035D01*
X124298013Y-108426547D01*
X124365894Y-108262666D01*
X124400500Y-108088691D01*
X124400500Y-108014309D01*
X144560780Y-108014309D01*
X144560780Y-108191690D01*
X144595384Y-108365660D01*
X144595386Y-108365666D01*
X144663267Y-108529547D01*
X144761816Y-108677035D01*
X144761818Y-108677037D01*
X144761821Y-108677041D01*
X144887238Y-108802458D01*
X144887241Y-108802460D01*
X144887245Y-108802464D01*
X145034733Y-108901013D01*
X145198614Y-108968894D01*
X145372589Y-109003500D01*
X145372590Y-109003500D01*
X145549970Y-109003500D01*
X145549971Y-109003500D01*
X145723946Y-108968894D01*
X145887827Y-108901013D01*
X146035315Y-108802464D01*
X146160744Y-108677035D01*
X146259293Y-108529547D01*
X146327174Y-108365666D01*
X146361780Y-108191691D01*
X146361780Y-108014309D01*
X146327174Y-107840334D01*
X146259293Y-107676453D01*
X146160744Y-107528965D01*
X146160740Y-107528961D01*
X146160738Y-107528958D01*
X146035321Y-107403541D01*
X146035317Y-107403538D01*
X146035315Y-107403536D01*
X145887827Y-107304987D01*
X145887824Y-107304985D01*
X145887823Y-107304985D01*
X145723946Y-107237106D01*
X145723940Y-107237104D01*
X145559236Y-107204343D01*
X145549971Y-107202500D01*
X145372589Y-107202500D01*
X145363324Y-107204343D01*
X145198619Y-107237104D01*
X145198613Y-107237106D01*
X145034736Y-107304985D01*
X144887238Y-107403541D01*
X144761821Y-107528958D01*
X144761816Y-107528964D01*
X144761816Y-107528965D01*
X144752973Y-107542200D01*
X144663265Y-107676456D01*
X144595386Y-107840333D01*
X144595384Y-107840339D01*
X144560780Y-108014309D01*
X124400500Y-108014309D01*
X124400500Y-107911309D01*
X124365894Y-107737334D01*
X124298013Y-107573453D01*
X124199464Y-107425965D01*
X124199460Y-107425961D01*
X124199458Y-107425958D01*
X124074041Y-107300541D01*
X124074037Y-107300538D01*
X124074035Y-107300536D01*
X123926547Y-107201987D01*
X123926544Y-107201985D01*
X123926543Y-107201985D01*
X123762666Y-107134106D01*
X123762660Y-107134104D01*
X123623108Y-107106346D01*
X123588691Y-107099500D01*
X123411309Y-107099500D01*
X123382576Y-107105215D01*
X123237339Y-107134104D01*
X123237333Y-107134106D01*
X123073456Y-107201985D01*
X122925958Y-107300541D01*
X122800541Y-107425958D01*
X122701985Y-107573456D01*
X122634106Y-107737333D01*
X122634104Y-107737339D01*
X122599500Y-107911309D01*
X109500500Y-107911309D01*
X109500500Y-107026962D01*
X152548127Y-107026962D01*
X152548127Y-107204343D01*
X152582731Y-107378313D01*
X152582733Y-107378319D01*
X152602465Y-107425958D01*
X152650614Y-107542200D01*
X152749163Y-107689688D01*
X152749165Y-107689690D01*
X152749168Y-107689694D01*
X152874585Y-107815111D01*
X152874588Y-107815113D01*
X152874592Y-107815117D01*
X153022080Y-107913666D01*
X153185961Y-107981547D01*
X153359936Y-108016153D01*
X153359937Y-108016153D01*
X153537317Y-108016153D01*
X153537318Y-108016153D01*
X153711293Y-107981547D01*
X153875174Y-107913666D01*
X154022662Y-107815117D01*
X154148091Y-107689688D01*
X154246640Y-107542200D01*
X154314521Y-107378319D01*
X154349127Y-107204344D01*
X154349127Y-107026962D01*
X154314521Y-106852987D01*
X154246640Y-106689106D01*
X154148091Y-106541618D01*
X154148087Y-106541614D01*
X154148085Y-106541611D01*
X154022668Y-106416194D01*
X154022664Y-106416191D01*
X154022662Y-106416189D01*
X153875174Y-106317640D01*
X153875171Y-106317638D01*
X153875170Y-106317638D01*
X153711293Y-106249759D01*
X153711287Y-106249757D01*
X153571735Y-106221999D01*
X153537318Y-106215153D01*
X153359936Y-106215153D01*
X153331203Y-106220868D01*
X153185966Y-106249757D01*
X153185960Y-106249759D01*
X153022083Y-106317638D01*
X153022080Y-106317639D01*
X153022080Y-106317640D01*
X152950205Y-106365666D01*
X152874585Y-106416194D01*
X152749168Y-106541611D01*
X152650612Y-106689109D01*
X152582733Y-106852986D01*
X152582731Y-106852992D01*
X152548127Y-107026962D01*
X109500500Y-107026962D01*
X109500500Y-106014309D01*
X149560780Y-106014309D01*
X149560780Y-106191690D01*
X149595384Y-106365660D01*
X149595386Y-106365666D01*
X149663267Y-106529547D01*
X149761816Y-106677035D01*
X149761818Y-106677037D01*
X149761821Y-106677041D01*
X149887238Y-106802458D01*
X149887241Y-106802460D01*
X149887245Y-106802464D01*
X150034733Y-106901013D01*
X150198614Y-106968894D01*
X150372589Y-107003500D01*
X150372590Y-107003500D01*
X150549970Y-107003500D01*
X150549971Y-107003500D01*
X150723946Y-106968894D01*
X150887827Y-106901013D01*
X151035315Y-106802464D01*
X151160744Y-106677035D01*
X151259293Y-106529547D01*
X151327174Y-106365666D01*
X151361780Y-106191691D01*
X151361780Y-106014309D01*
X151327174Y-105840334D01*
X151259293Y-105676453D01*
X151160744Y-105528965D01*
X151160740Y-105528961D01*
X151160738Y-105528958D01*
X151035321Y-105403541D01*
X151035317Y-105403538D01*
X151035315Y-105403536D01*
X150887827Y-105304987D01*
X150887824Y-105304985D01*
X150887823Y-105304985D01*
X150723946Y-105237106D01*
X150723940Y-105237104D01*
X150584388Y-105209346D01*
X150549971Y-105202500D01*
X150372589Y-105202500D01*
X150343856Y-105208215D01*
X150198619Y-105237104D01*
X150198613Y-105237106D01*
X150034736Y-105304985D01*
X149887238Y-105403541D01*
X149761821Y-105528958D01*
X149663265Y-105676456D01*
X149595386Y-105840333D01*
X149595384Y-105840339D01*
X149560780Y-106014309D01*
X109500500Y-106014309D01*
X109500500Y-100921158D01*
X110699500Y-100921158D01*
X110699500Y-101078841D01*
X110730261Y-101233491D01*
X110730263Y-101233497D01*
X110790605Y-101379178D01*
X110878207Y-101510285D01*
X110989714Y-101621792D01*
X111120821Y-101709394D01*
X111266503Y-101769737D01*
X111421158Y-101800500D01*
X111421159Y-101800500D01*
X111578841Y-101800500D01*
X111578842Y-101800500D01*
X111733497Y-101769737D01*
X111879179Y-101709394D01*
X112010289Y-101621789D01*
X112121789Y-101510289D01*
X112194083Y-101402092D01*
X112252018Y-101353674D01*
X112326934Y-101344264D01*
X112395044Y-101376850D01*
X112434725Y-101441087D01*
X112439500Y-101476539D01*
X112439500Y-101900003D01*
X112439501Y-101900024D01*
X112450000Y-102002796D01*
X112450001Y-102002802D01*
X112505183Y-102169331D01*
X112505183Y-102169332D01*
X112597287Y-102318655D01*
X112597289Y-102318658D01*
X112720088Y-102441457D01*
X112756274Y-102507725D01*
X112750887Y-102583037D01*
X112733745Y-102614971D01*
X112671129Y-102701155D01*
X112671127Y-102701158D01*
X112556758Y-102925622D01*
X112478907Y-103165224D01*
X112477678Y-103170345D01*
X112476103Y-103169966D01*
X112446831Y-103231689D01*
X112382730Y-103271588D01*
X112307234Y-103270497D01*
X112244312Y-103228763D01*
X112223039Y-103193763D01*
X112209394Y-103160821D01*
X112121792Y-103029714D01*
X112010285Y-102918207D01*
X111879178Y-102830605D01*
X111733497Y-102770263D01*
X111733491Y-102770261D01*
X111609436Y-102745585D01*
X111578842Y-102739500D01*
X111421158Y-102739500D01*
X111395616Y-102744580D01*
X111266508Y-102770261D01*
X111266502Y-102770263D01*
X111120821Y-102830605D01*
X110989714Y-102918207D01*
X110878207Y-103029714D01*
X110790605Y-103160821D01*
X110730263Y-103306502D01*
X110730261Y-103306508D01*
X110699500Y-103461158D01*
X110699500Y-103618841D01*
X110730261Y-103773491D01*
X110730263Y-103773497D01*
X110790605Y-103919178D01*
X110878207Y-104050285D01*
X110989714Y-104161792D01*
X111120821Y-104249394D01*
X111266503Y-104309737D01*
X111421158Y-104340500D01*
X111421159Y-104340500D01*
X111578841Y-104340500D01*
X111578842Y-104340500D01*
X111733497Y-104309737D01*
X111879179Y-104249394D01*
X112010289Y-104161789D01*
X112121789Y-104050289D01*
X112209394Y-103919179D01*
X112223039Y-103886234D01*
X112270414Y-103827446D01*
X112342054Y-103803600D01*
X112415213Y-103822272D01*
X112466664Y-103877533D01*
X112477027Y-103909811D01*
X112477678Y-103909655D01*
X112478907Y-103914775D01*
X112478909Y-103914783D01*
X112478910Y-103914785D01*
X112507735Y-104003500D01*
X112556758Y-104154377D01*
X112671130Y-104378847D01*
X112819198Y-104582646D01*
X112819208Y-104582657D01*
X112997342Y-104760791D01*
X112997353Y-104760801D01*
X113201152Y-104908869D01*
X113315446Y-104967104D01*
X113425621Y-105023241D01*
X113665215Y-105101090D01*
X113914036Y-105140499D01*
X113914037Y-105140500D01*
X113914038Y-105140500D01*
X114165963Y-105140500D01*
X114165963Y-105140499D01*
X114414785Y-105101090D01*
X114654379Y-105023241D01*
X114878845Y-104908870D01*
X114878844Y-104908870D01*
X114878847Y-104908869D01*
X115082646Y-104760801D01*
X115082650Y-104760797D01*
X115082656Y-104760793D01*
X115260793Y-104582656D01*
X115260797Y-104582650D01*
X115260801Y-104582646D01*
X115408869Y-104378847D01*
X115428408Y-104340500D01*
X115523241Y-104154379D01*
X115568753Y-104014309D01*
X174560780Y-104014309D01*
X174560780Y-104191690D01*
X174595384Y-104365660D01*
X174595386Y-104365666D01*
X174663267Y-104529547D01*
X174761816Y-104677035D01*
X174761818Y-104677037D01*
X174761821Y-104677041D01*
X174887238Y-104802458D01*
X174887241Y-104802460D01*
X174887245Y-104802464D01*
X175034733Y-104901013D01*
X175198614Y-104968894D01*
X175372589Y-105003500D01*
X175372590Y-105003500D01*
X175549970Y-105003500D01*
X175549971Y-105003500D01*
X175723946Y-104968894D01*
X175887827Y-104901013D01*
X176035315Y-104802464D01*
X176160744Y-104677035D01*
X176259293Y-104529547D01*
X176327174Y-104365666D01*
X176361780Y-104191691D01*
X176361780Y-104014309D01*
X176327174Y-103840334D01*
X176259293Y-103676453D01*
X176160744Y-103528965D01*
X176160740Y-103528961D01*
X176160738Y-103528958D01*
X176035321Y-103403541D01*
X176035317Y-103403538D01*
X176035315Y-103403536D01*
X175887827Y-103304987D01*
X175887824Y-103304985D01*
X175887823Y-103304985D01*
X175723946Y-103237106D01*
X175723940Y-103237104D01*
X175584388Y-103209346D01*
X175549971Y-103202500D01*
X175372589Y-103202500D01*
X175343856Y-103208215D01*
X175198619Y-103237104D01*
X175198613Y-103237106D01*
X175034736Y-103304985D01*
X174887238Y-103403541D01*
X174761821Y-103528958D01*
X174663265Y-103676456D01*
X174595386Y-103840333D01*
X174595384Y-103840339D01*
X174560780Y-104014309D01*
X115568753Y-104014309D01*
X115601090Y-103914785D01*
X115640500Y-103665962D01*
X115640500Y-103414038D01*
X115601090Y-103165215D01*
X115552058Y-103014309D01*
X130560780Y-103014309D01*
X130560780Y-103191690D01*
X130595384Y-103365660D01*
X130595386Y-103365666D01*
X130634939Y-103461158D01*
X130663267Y-103529547D01*
X130761816Y-103677035D01*
X130761818Y-103677037D01*
X130761821Y-103677041D01*
X130887238Y-103802458D01*
X130887241Y-103802460D01*
X130887245Y-103802464D01*
X131034733Y-103901013D01*
X131198614Y-103968894D01*
X131372589Y-104003500D01*
X131372590Y-104003500D01*
X131549970Y-104003500D01*
X131549971Y-104003500D01*
X131723946Y-103968894D01*
X131887827Y-103901013D01*
X132035315Y-103802464D01*
X132160744Y-103677035D01*
X132259293Y-103529547D01*
X132327174Y-103365666D01*
X132361780Y-103191691D01*
X132361780Y-103014309D01*
X132327174Y-102840334D01*
X132259293Y-102676453D01*
X132160744Y-102528965D01*
X132160740Y-102528961D01*
X132160738Y-102528958D01*
X132035321Y-102403541D01*
X132035317Y-102403538D01*
X132035315Y-102403536D01*
X131887827Y-102304987D01*
X131887824Y-102304985D01*
X131887823Y-102304985D01*
X131723946Y-102237106D01*
X131723940Y-102237104D01*
X131584388Y-102209346D01*
X131549971Y-102202500D01*
X131372589Y-102202500D01*
X131343856Y-102208215D01*
X131198619Y-102237104D01*
X131198613Y-102237106D01*
X131034736Y-102304985D01*
X130887238Y-102403541D01*
X130761821Y-102528958D01*
X130663265Y-102676456D01*
X130595386Y-102840333D01*
X130595384Y-102840339D01*
X130560780Y-103014309D01*
X115552058Y-103014309D01*
X115523241Y-102925621D01*
X115408872Y-102701158D01*
X115408869Y-102701152D01*
X115346255Y-102614972D01*
X115320882Y-102543859D01*
X115337983Y-102470317D01*
X115359907Y-102441460D01*
X115482712Y-102318656D01*
X115574814Y-102169335D01*
X115574813Y-102169335D01*
X115574816Y-102169332D01*
X115574816Y-102169331D01*
X115629998Y-102002802D01*
X115629999Y-102002796D01*
X115640500Y-101900010D01*
X115640500Y-100099990D01*
X115629999Y-99997202D01*
X115629998Y-99997200D01*
X115629998Y-99997197D01*
X115574816Y-99830668D01*
X115574816Y-99830667D01*
X115482712Y-99681344D01*
X115482710Y-99681341D01*
X115358658Y-99557289D01*
X115358655Y-99557287D01*
X115209331Y-99465183D01*
X115042802Y-99410001D01*
X115042796Y-99410000D01*
X114940024Y-99399501D01*
X114940016Y-99399500D01*
X114940010Y-99399500D01*
X113139990Y-99399500D01*
X113139984Y-99399500D01*
X113139975Y-99399501D01*
X113037203Y-99410000D01*
X113037197Y-99410001D01*
X112870668Y-99465183D01*
X112870667Y-99465183D01*
X112721344Y-99557287D01*
X112721341Y-99557289D01*
X112597289Y-99681341D01*
X112597287Y-99681344D01*
X112505183Y-99830667D01*
X112505183Y-99830668D01*
X112450001Y-99997197D01*
X112450000Y-99997203D01*
X112439501Y-100099975D01*
X112439500Y-100099996D01*
X112439500Y-100523460D01*
X112418228Y-100595906D01*
X112361166Y-100645351D01*
X112286430Y-100656096D01*
X112217749Y-100624730D01*
X112194083Y-100597906D01*
X112121792Y-100489715D01*
X112121788Y-100489710D01*
X112010285Y-100378207D01*
X111879178Y-100290605D01*
X111733497Y-100230263D01*
X111733491Y-100230261D01*
X111609436Y-100205585D01*
X111578842Y-100199500D01*
X111421158Y-100199500D01*
X111395616Y-100204580D01*
X111266508Y-100230261D01*
X111266502Y-100230263D01*
X111120821Y-100290605D01*
X110989714Y-100378207D01*
X110878207Y-100489714D01*
X110790605Y-100620821D01*
X110730263Y-100766502D01*
X110730261Y-100766508D01*
X110699500Y-100921158D01*
X109500500Y-100921158D01*
X109500500Y-99248309D01*
X149948780Y-99248309D01*
X149948780Y-99425691D01*
X149951226Y-99437987D01*
X149983384Y-99599660D01*
X149983386Y-99599666D01*
X150017216Y-99681341D01*
X150051267Y-99763547D01*
X150149816Y-99911035D01*
X150149818Y-99911037D01*
X150149821Y-99911041D01*
X150275238Y-100036458D01*
X150275241Y-100036460D01*
X150275245Y-100036464D01*
X150422733Y-100135013D01*
X150586614Y-100202894D01*
X150760589Y-100237500D01*
X150760590Y-100237500D01*
X150937970Y-100237500D01*
X150937971Y-100237500D01*
X151111946Y-100202894D01*
X151246142Y-100147309D01*
X164543780Y-100147309D01*
X164543780Y-100324690D01*
X164578384Y-100498660D01*
X164578386Y-100498666D01*
X164628983Y-100620821D01*
X164646267Y-100662547D01*
X164744816Y-100810035D01*
X164744818Y-100810037D01*
X164744821Y-100810041D01*
X164870238Y-100935458D01*
X164870241Y-100935460D01*
X164870245Y-100935464D01*
X165017733Y-101034013D01*
X165181614Y-101101894D01*
X165355589Y-101136500D01*
X165355590Y-101136500D01*
X165532970Y-101136500D01*
X165532971Y-101136500D01*
X165706946Y-101101894D01*
X165870827Y-101034013D01*
X166018315Y-100935464D01*
X166143744Y-100810035D01*
X166242293Y-100662547D01*
X166310174Y-100498666D01*
X166344780Y-100324691D01*
X166344780Y-100147309D01*
X166310174Y-99973334D01*
X166242293Y-99809453D01*
X166143744Y-99661965D01*
X166143740Y-99661961D01*
X166143738Y-99661958D01*
X166018321Y-99536541D01*
X166018317Y-99536538D01*
X166018315Y-99536536D01*
X165870827Y-99437987D01*
X165870824Y-99437985D01*
X165870823Y-99437985D01*
X165706946Y-99370106D01*
X165706940Y-99370104D01*
X165567388Y-99342346D01*
X165532971Y-99335500D01*
X165355589Y-99335500D01*
X165326856Y-99341215D01*
X165181619Y-99370104D01*
X165181613Y-99370106D01*
X165017736Y-99437985D01*
X164870238Y-99536541D01*
X164744821Y-99661958D01*
X164744816Y-99661964D01*
X164744816Y-99661965D01*
X164676943Y-99763543D01*
X164646265Y-99809456D01*
X164578386Y-99973333D01*
X164578384Y-99973339D01*
X164543780Y-100147309D01*
X151246142Y-100147309D01*
X151275827Y-100135013D01*
X151423315Y-100036464D01*
X151548744Y-99911035D01*
X151647293Y-99763547D01*
X151715174Y-99599666D01*
X151749780Y-99425691D01*
X151749780Y-99248309D01*
X151715174Y-99074334D01*
X151647293Y-98910453D01*
X151548744Y-98762965D01*
X151548740Y-98762961D01*
X151548738Y-98762958D01*
X151423321Y-98637541D01*
X151423317Y-98637538D01*
X151423315Y-98637536D01*
X151275827Y-98538987D01*
X151275824Y-98538985D01*
X151275823Y-98538985D01*
X151111946Y-98471106D01*
X151111940Y-98471104D01*
X150972388Y-98443346D01*
X150937971Y-98436500D01*
X150760589Y-98436500D01*
X150731856Y-98442215D01*
X150586619Y-98471104D01*
X150586613Y-98471106D01*
X150422736Y-98538985D01*
X150275238Y-98637541D01*
X150149821Y-98762958D01*
X150149816Y-98762964D01*
X150149816Y-98762965D01*
X150057575Y-98901013D01*
X150051265Y-98910456D01*
X149983386Y-99074333D01*
X149983384Y-99074339D01*
X149948780Y-99248309D01*
X109500500Y-99248309D01*
X109500500Y-93921158D01*
X110699500Y-93921158D01*
X110699500Y-94078841D01*
X110730261Y-94233491D01*
X110730263Y-94233497D01*
X110790605Y-94379178D01*
X110878207Y-94510285D01*
X110989714Y-94621792D01*
X111097715Y-94693955D01*
X111120821Y-94709394D01*
X111266503Y-94769737D01*
X111421158Y-94800500D01*
X111421159Y-94800500D01*
X111578841Y-94800500D01*
X111578842Y-94800500D01*
X111733497Y-94769737D01*
X111879179Y-94709394D01*
X111968817Y-94649500D01*
X112010285Y-94621792D01*
X112010285Y-94621791D01*
X112010289Y-94621789D01*
X112121789Y-94510289D01*
X112126326Y-94503500D01*
X112163099Y-94448464D01*
X112194083Y-94402092D01*
X112252018Y-94353674D01*
X112326934Y-94344264D01*
X112395044Y-94376850D01*
X112434725Y-94441087D01*
X112439500Y-94476539D01*
X112439500Y-94900003D01*
X112439501Y-94900024D01*
X112450000Y-95002796D01*
X112450001Y-95002802D01*
X112505183Y-95169331D01*
X112505183Y-95169332D01*
X112597287Y-95318655D01*
X112597289Y-95318658D01*
X112720088Y-95441457D01*
X112756274Y-95507725D01*
X112750887Y-95583037D01*
X112733745Y-95614971D01*
X112671129Y-95701155D01*
X112671127Y-95701158D01*
X112556758Y-95925622D01*
X112478907Y-96165224D01*
X112477678Y-96170345D01*
X112476103Y-96169966D01*
X112446831Y-96231689D01*
X112382730Y-96271588D01*
X112307234Y-96270497D01*
X112244312Y-96228763D01*
X112223039Y-96193763D01*
X112209394Y-96160821D01*
X112121792Y-96029714D01*
X112010285Y-95918207D01*
X111879178Y-95830605D01*
X111733497Y-95770263D01*
X111733491Y-95770261D01*
X111609436Y-95745585D01*
X111578842Y-95739500D01*
X111421158Y-95739500D01*
X111395616Y-95744580D01*
X111266508Y-95770261D01*
X111266502Y-95770263D01*
X111120821Y-95830605D01*
X110989714Y-95918207D01*
X110878207Y-96029714D01*
X110790605Y-96160821D01*
X110730263Y-96306502D01*
X110730261Y-96306508D01*
X110699500Y-96461158D01*
X110699500Y-96618841D01*
X110730261Y-96773491D01*
X110730263Y-96773497D01*
X110790605Y-96919178D01*
X110878207Y-97050285D01*
X110989714Y-97161792D01*
X111102428Y-97237104D01*
X111120821Y-97249394D01*
X111266503Y-97309737D01*
X111421158Y-97340500D01*
X111421159Y-97340500D01*
X111578841Y-97340500D01*
X111578842Y-97340500D01*
X111733497Y-97309737D01*
X111879179Y-97249394D01*
X112010289Y-97161789D01*
X112121789Y-97050289D01*
X112209394Y-96919179D01*
X112223039Y-96886234D01*
X112270414Y-96827446D01*
X112342054Y-96803600D01*
X112415213Y-96822272D01*
X112466664Y-96877533D01*
X112477027Y-96909811D01*
X112477678Y-96909655D01*
X112478907Y-96914775D01*
X112478909Y-96914783D01*
X112478910Y-96914785D01*
X112511276Y-97014397D01*
X112556758Y-97154377D01*
X112671130Y-97378847D01*
X112819198Y-97582646D01*
X112819208Y-97582657D01*
X112997342Y-97760791D01*
X112997353Y-97760801D01*
X113201152Y-97908869D01*
X113315446Y-97967104D01*
X113425621Y-98023241D01*
X113665215Y-98101090D01*
X113914036Y-98140499D01*
X113914037Y-98140500D01*
X113914038Y-98140500D01*
X114165963Y-98140500D01*
X114165963Y-98140499D01*
X114414785Y-98101090D01*
X114654379Y-98023241D01*
X114671909Y-98014309D01*
X185060780Y-98014309D01*
X185060780Y-98191690D01*
X185095384Y-98365660D01*
X185095386Y-98365666D01*
X185163267Y-98529547D01*
X185261816Y-98677035D01*
X185261818Y-98677037D01*
X185261821Y-98677041D01*
X185387238Y-98802458D01*
X185387241Y-98802460D01*
X185387245Y-98802464D01*
X185534733Y-98901013D01*
X185698614Y-98968894D01*
X185872589Y-99003500D01*
X185872590Y-99003500D01*
X186049970Y-99003500D01*
X186049971Y-99003500D01*
X186223946Y-98968894D01*
X186387827Y-98901013D01*
X186535315Y-98802464D01*
X186660744Y-98677035D01*
X186759293Y-98529547D01*
X186827174Y-98365666D01*
X186861780Y-98191691D01*
X186861780Y-98014309D01*
X186827174Y-97840334D01*
X186759293Y-97676453D01*
X186660744Y-97528965D01*
X186660740Y-97528961D01*
X186660738Y-97528958D01*
X186535321Y-97403541D01*
X186535317Y-97403538D01*
X186535315Y-97403536D01*
X186387827Y-97304987D01*
X186387824Y-97304985D01*
X186387823Y-97304985D01*
X186223946Y-97237106D01*
X186223940Y-97237104D01*
X186084388Y-97209346D01*
X186049971Y-97202500D01*
X185872589Y-97202500D01*
X185843856Y-97208215D01*
X185698619Y-97237104D01*
X185698613Y-97237106D01*
X185534736Y-97304985D01*
X185534733Y-97304986D01*
X185534733Y-97304987D01*
X185424195Y-97378847D01*
X185387238Y-97403541D01*
X185261821Y-97528958D01*
X185163265Y-97676456D01*
X185095386Y-97840333D01*
X185095384Y-97840339D01*
X185060780Y-98014309D01*
X114671909Y-98014309D01*
X114878845Y-97908870D01*
X115082656Y-97760793D01*
X115260793Y-97582656D01*
X115260797Y-97582650D01*
X115260801Y-97582646D01*
X115408869Y-97378847D01*
X115428408Y-97340500D01*
X115523241Y-97154379D01*
X115601090Y-96914785D01*
X115640500Y-96665962D01*
X115640500Y-96414038D01*
X115601090Y-96165215D01*
X115523241Y-95925621D01*
X115453968Y-95789665D01*
X115408869Y-95701152D01*
X115346255Y-95614972D01*
X115333892Y-95580324D01*
X115321004Y-95545768D01*
X115321215Y-95544794D01*
X115320882Y-95543859D01*
X115327753Y-95514309D01*
X134060780Y-95514309D01*
X134060780Y-95691690D01*
X134095384Y-95865660D01*
X134095386Y-95865666D01*
X134163267Y-96029547D01*
X134261816Y-96177035D01*
X134261818Y-96177037D01*
X134261821Y-96177041D01*
X134387238Y-96302458D01*
X134387241Y-96302460D01*
X134387245Y-96302464D01*
X134534733Y-96401013D01*
X134698614Y-96468894D01*
X134872589Y-96503500D01*
X134872590Y-96503500D01*
X135049970Y-96503500D01*
X135049971Y-96503500D01*
X135223946Y-96468894D01*
X135387827Y-96401013D01*
X135535315Y-96302464D01*
X135660744Y-96177035D01*
X135759293Y-96029547D01*
X135827174Y-95865666D01*
X135861780Y-95691691D01*
X135861780Y-95514309D01*
X151560780Y-95514309D01*
X151560780Y-95691690D01*
X151595384Y-95865660D01*
X151595386Y-95865666D01*
X151663267Y-96029547D01*
X151761816Y-96177035D01*
X151761818Y-96177037D01*
X151761821Y-96177041D01*
X151887238Y-96302458D01*
X151887241Y-96302460D01*
X151887245Y-96302464D01*
X152034733Y-96401013D01*
X152198614Y-96468894D01*
X152372589Y-96503500D01*
X152372590Y-96503500D01*
X152549970Y-96503500D01*
X152549971Y-96503500D01*
X152723946Y-96468894D01*
X152887827Y-96401013D01*
X153035315Y-96302464D01*
X153160744Y-96177035D01*
X153259293Y-96029547D01*
X153327174Y-95865666D01*
X153361780Y-95691691D01*
X153361780Y-95514309D01*
X153346663Y-95438309D01*
X167982780Y-95438309D01*
X167982780Y-95615690D01*
X168017384Y-95789660D01*
X168017386Y-95789666D01*
X168070630Y-95918211D01*
X168085267Y-95953547D01*
X168183816Y-96101035D01*
X168183818Y-96101037D01*
X168183821Y-96101041D01*
X168309238Y-96226458D01*
X168309241Y-96226460D01*
X168309245Y-96226464D01*
X168456733Y-96325013D01*
X168620614Y-96392894D01*
X168794589Y-96427500D01*
X168794590Y-96427500D01*
X168971970Y-96427500D01*
X168971971Y-96427500D01*
X169145946Y-96392894D01*
X169309827Y-96325013D01*
X169457315Y-96226464D01*
X169582744Y-96101035D01*
X169681293Y-95953547D01*
X169698788Y-95911309D01*
X187599500Y-95911309D01*
X187599500Y-96088691D01*
X187601957Y-96101041D01*
X187634104Y-96262660D01*
X187634106Y-96262666D01*
X187696805Y-96414038D01*
X187701987Y-96426547D01*
X187800536Y-96574035D01*
X187800538Y-96574037D01*
X187800541Y-96574041D01*
X187925958Y-96699458D01*
X187925961Y-96699460D01*
X187925965Y-96699464D01*
X188073453Y-96798013D01*
X188237334Y-96865894D01*
X188411309Y-96900500D01*
X188411310Y-96900500D01*
X188588690Y-96900500D01*
X188588691Y-96900500D01*
X188762666Y-96865894D01*
X188926547Y-96798013D01*
X189074035Y-96699464D01*
X189199464Y-96574035D01*
X189298013Y-96426547D01*
X189365894Y-96262666D01*
X189400500Y-96088691D01*
X189400500Y-95911309D01*
X189365894Y-95737334D01*
X189330688Y-95652339D01*
X189303119Y-95585779D01*
X189295048Y-95510707D01*
X189328846Y-95443189D01*
X189393781Y-95404662D01*
X189426919Y-95400500D01*
X189588690Y-95400500D01*
X189588691Y-95400500D01*
X189762666Y-95365894D01*
X189926547Y-95298013D01*
X190074035Y-95199464D01*
X190199464Y-95074035D01*
X190298013Y-94926547D01*
X190365894Y-94762666D01*
X190400500Y-94588691D01*
X190400500Y-94411309D01*
X190365894Y-94237334D01*
X190298013Y-94073453D01*
X190199464Y-93925965D01*
X190199460Y-93925961D01*
X190199458Y-93925958D01*
X190074041Y-93800541D01*
X190074037Y-93800538D01*
X190074035Y-93800536D01*
X189926547Y-93701987D01*
X189926544Y-93701985D01*
X189926543Y-93701985D01*
X189762666Y-93634106D01*
X189762660Y-93634104D01*
X189623108Y-93606346D01*
X189588691Y-93599500D01*
X189411309Y-93599500D01*
X189382576Y-93605215D01*
X189237339Y-93634104D01*
X189237333Y-93634106D01*
X189073456Y-93701985D01*
X188925958Y-93800541D01*
X188800541Y-93925958D01*
X188800536Y-93925964D01*
X188800536Y-93925965D01*
X188785978Y-93947753D01*
X188701985Y-94073456D01*
X188634106Y-94237333D01*
X188634104Y-94237339D01*
X188599500Y-94411309D01*
X188599500Y-94588690D01*
X188634104Y-94762660D01*
X188634106Y-94762666D01*
X188696881Y-94914221D01*
X188704952Y-94989293D01*
X188671154Y-95056811D01*
X188606219Y-95095338D01*
X188573081Y-95099500D01*
X188411309Y-95099500D01*
X188382576Y-95105215D01*
X188237339Y-95134104D01*
X188237333Y-95134106D01*
X188073456Y-95201985D01*
X188073453Y-95201986D01*
X188073453Y-95201987D01*
X187929740Y-95298014D01*
X187925958Y-95300541D01*
X187800541Y-95425958D01*
X187800536Y-95425964D01*
X187800536Y-95425965D01*
X187720486Y-95545768D01*
X187701985Y-95573456D01*
X187634106Y-95737333D01*
X187634104Y-95737339D01*
X187608580Y-95865660D01*
X187599500Y-95911309D01*
X169698788Y-95911309D01*
X169749174Y-95789666D01*
X169783780Y-95615691D01*
X169783780Y-95438309D01*
X169749174Y-95264334D01*
X169681293Y-95100453D01*
X169582744Y-94952965D01*
X169582740Y-94952961D01*
X169582738Y-94952958D01*
X169457321Y-94827541D01*
X169457317Y-94827538D01*
X169457315Y-94827536D01*
X169309827Y-94728987D01*
X169309824Y-94728985D01*
X169309823Y-94728985D01*
X169145946Y-94661106D01*
X169145940Y-94661104D01*
X169006388Y-94633346D01*
X168971971Y-94626500D01*
X168794589Y-94626500D01*
X168765856Y-94632215D01*
X168620619Y-94661104D01*
X168620613Y-94661106D01*
X168456736Y-94728985D01*
X168309238Y-94827541D01*
X168183821Y-94952958D01*
X168183816Y-94952964D01*
X168183816Y-94952965D01*
X168150516Y-95002802D01*
X168085265Y-95100456D01*
X168017386Y-95264333D01*
X168017384Y-95264339D01*
X167982780Y-95438309D01*
X153346663Y-95438309D01*
X153327174Y-95340334D01*
X153259293Y-95176453D01*
X153160744Y-95028965D01*
X153160740Y-95028961D01*
X153160738Y-95028958D01*
X153035317Y-94903537D01*
X153030038Y-94900010D01*
X153022413Y-94894915D01*
X152973996Y-94836982D01*
X152964586Y-94762066D01*
X152997173Y-94693955D01*
X153061409Y-94654275D01*
X153096861Y-94649500D01*
X153223970Y-94649500D01*
X153223971Y-94649500D01*
X153397946Y-94614894D01*
X153561827Y-94547013D01*
X153709315Y-94448464D01*
X153834744Y-94323035D01*
X153933293Y-94175547D01*
X154001174Y-94011666D01*
X154035780Y-93837691D01*
X154035780Y-93660309D01*
X154001174Y-93486334D01*
X153933293Y-93322453D01*
X153834744Y-93174965D01*
X153834740Y-93174961D01*
X153834738Y-93174958D01*
X153709321Y-93049541D01*
X153709317Y-93049538D01*
X153709315Y-93049536D01*
X153561827Y-92950987D01*
X153561824Y-92950985D01*
X153561823Y-92950985D01*
X153397946Y-92883106D01*
X153397940Y-92883104D01*
X153258388Y-92855346D01*
X153223971Y-92848500D01*
X153046589Y-92848500D01*
X153017856Y-92854215D01*
X152872619Y-92883104D01*
X152872613Y-92883106D01*
X152708736Y-92950985D01*
X152708733Y-92950986D01*
X152708733Y-92950987D01*
X152592032Y-93028965D01*
X152561238Y-93049541D01*
X152435821Y-93174958D01*
X152337265Y-93322456D01*
X152269386Y-93486333D01*
X152269384Y-93486339D01*
X152234780Y-93660309D01*
X152234780Y-93837690D01*
X152269384Y-94011660D01*
X152269386Y-94011666D01*
X152276548Y-94028958D01*
X152337267Y-94175547D01*
X152435816Y-94323035D01*
X152435818Y-94323037D01*
X152435821Y-94323041D01*
X152561242Y-94448462D01*
X152561245Y-94448464D01*
X152574146Y-94457084D01*
X152622564Y-94515018D01*
X152631974Y-94589934D01*
X152599387Y-94658045D01*
X152535151Y-94697725D01*
X152499699Y-94702500D01*
X152372589Y-94702500D01*
X152343856Y-94708215D01*
X152198619Y-94737104D01*
X152198613Y-94737106D01*
X152034736Y-94804985D01*
X152034733Y-94804986D01*
X152034733Y-94804987D01*
X151892502Y-94900024D01*
X151887238Y-94903541D01*
X151761821Y-95028958D01*
X151663265Y-95176456D01*
X151595386Y-95340333D01*
X151595384Y-95340339D01*
X151560780Y-95514309D01*
X135861780Y-95514309D01*
X135827174Y-95340334D01*
X135759293Y-95176453D01*
X135660744Y-95028965D01*
X135660740Y-95028961D01*
X135660738Y-95028958D01*
X135535321Y-94903541D01*
X135535317Y-94903538D01*
X135535315Y-94903536D01*
X135387827Y-94804987D01*
X135387824Y-94804985D01*
X135387823Y-94804985D01*
X135223946Y-94737106D01*
X135223940Y-94737104D01*
X135084388Y-94709346D01*
X135049971Y-94702500D01*
X134872589Y-94702500D01*
X134843856Y-94708215D01*
X134698619Y-94737104D01*
X134698613Y-94737106D01*
X134534736Y-94804985D01*
X134534733Y-94804986D01*
X134534733Y-94804987D01*
X134392502Y-94900024D01*
X134387238Y-94903541D01*
X134261821Y-95028958D01*
X134163265Y-95176456D01*
X134095386Y-95340333D01*
X134095384Y-95340339D01*
X134060780Y-95514309D01*
X115327753Y-95514309D01*
X115329217Y-95508013D01*
X115337054Y-95471990D01*
X115337837Y-95470943D01*
X115337983Y-95470317D01*
X115359911Y-95441457D01*
X115363059Y-95438309D01*
X115482712Y-95318656D01*
X115574814Y-95169335D01*
X115574813Y-95169335D01*
X115574816Y-95169332D01*
X115574816Y-95169331D01*
X115629998Y-95002802D01*
X115629999Y-95002796D01*
X115640500Y-94900010D01*
X115640500Y-93514309D01*
X150060780Y-93514309D01*
X150060780Y-93691690D01*
X150095384Y-93865660D01*
X150095386Y-93865666D01*
X150163024Y-94028962D01*
X150163267Y-94029547D01*
X150261816Y-94177035D01*
X150261818Y-94177037D01*
X150261821Y-94177041D01*
X150387238Y-94302458D01*
X150387241Y-94302460D01*
X150387245Y-94302464D01*
X150534733Y-94401013D01*
X150698614Y-94468894D01*
X150872589Y-94503500D01*
X150872590Y-94503500D01*
X151049970Y-94503500D01*
X151049971Y-94503500D01*
X151223946Y-94468894D01*
X151387827Y-94401013D01*
X151535315Y-94302464D01*
X151660744Y-94177035D01*
X151759293Y-94029547D01*
X151827174Y-93865666D01*
X151861780Y-93691691D01*
X151861780Y-93514309D01*
X151827174Y-93340334D01*
X151759293Y-93176453D01*
X151660744Y-93028965D01*
X151660740Y-93028961D01*
X151660738Y-93028958D01*
X151535321Y-92903541D01*
X151535317Y-92903538D01*
X151535315Y-92903536D01*
X151387827Y-92804987D01*
X151387824Y-92804985D01*
X151387823Y-92804985D01*
X151223946Y-92737106D01*
X151223940Y-92737104D01*
X151084388Y-92709346D01*
X151049971Y-92702500D01*
X150872589Y-92702500D01*
X150843856Y-92708215D01*
X150698619Y-92737104D01*
X150698613Y-92737106D01*
X150534736Y-92804985D01*
X150534733Y-92804986D01*
X150534733Y-92804987D01*
X150417821Y-92883106D01*
X150387238Y-92903541D01*
X150261821Y-93028958D01*
X150261816Y-93028964D01*
X150261816Y-93028965D01*
X150214368Y-93099975D01*
X150163265Y-93176456D01*
X150095386Y-93340333D01*
X150095384Y-93340339D01*
X150060780Y-93514309D01*
X115640500Y-93514309D01*
X115640500Y-93099990D01*
X115629999Y-92997202D01*
X115629998Y-92997200D01*
X115629998Y-92997197D01*
X115574816Y-92830668D01*
X115574816Y-92830667D01*
X115482712Y-92681344D01*
X115482710Y-92681341D01*
X115358658Y-92557289D01*
X115358655Y-92557287D01*
X115209331Y-92465183D01*
X115042802Y-92410001D01*
X115042796Y-92410000D01*
X114940024Y-92399501D01*
X114940016Y-92399500D01*
X114940010Y-92399500D01*
X113139990Y-92399500D01*
X113139984Y-92399500D01*
X113139975Y-92399501D01*
X113037203Y-92410000D01*
X113037197Y-92410001D01*
X112870668Y-92465183D01*
X112870667Y-92465183D01*
X112721344Y-92557287D01*
X112721341Y-92557289D01*
X112597289Y-92681341D01*
X112597287Y-92681344D01*
X112505183Y-92830667D01*
X112505183Y-92830668D01*
X112450001Y-92997197D01*
X112450000Y-92997203D01*
X112439501Y-93099975D01*
X112439500Y-93099996D01*
X112439500Y-93523460D01*
X112418228Y-93595906D01*
X112361166Y-93645351D01*
X112286430Y-93656096D01*
X112217749Y-93624730D01*
X112194083Y-93597906D01*
X112121792Y-93489715D01*
X112121788Y-93489710D01*
X112010285Y-93378207D01*
X111879178Y-93290605D01*
X111733497Y-93230263D01*
X111733491Y-93230261D01*
X111609436Y-93205585D01*
X111578842Y-93199500D01*
X111421158Y-93199500D01*
X111395616Y-93204580D01*
X111266508Y-93230261D01*
X111266502Y-93230263D01*
X111120821Y-93290605D01*
X110989714Y-93378207D01*
X110878207Y-93489714D01*
X110790605Y-93620821D01*
X110730263Y-93766502D01*
X110730261Y-93766508D01*
X110699500Y-93921158D01*
X109500500Y-93921158D01*
X109500500Y-91882309D01*
X164680780Y-91882309D01*
X164680780Y-92059690D01*
X164715384Y-92233660D01*
X164715386Y-92233666D01*
X164783267Y-92397547D01*
X164881816Y-92545035D01*
X164881818Y-92545037D01*
X164881821Y-92545041D01*
X165007238Y-92670458D01*
X165007241Y-92670460D01*
X165007245Y-92670464D01*
X165154733Y-92769013D01*
X165318614Y-92836894D01*
X165492589Y-92871500D01*
X165492590Y-92871500D01*
X165669970Y-92871500D01*
X165669971Y-92871500D01*
X165843946Y-92836894D01*
X166007827Y-92769013D01*
X166155315Y-92670464D01*
X166280744Y-92545035D01*
X166379293Y-92397547D01*
X166447174Y-92233666D01*
X166481780Y-92059691D01*
X166481780Y-91882309D01*
X166447174Y-91708334D01*
X166379293Y-91544453D01*
X166359151Y-91514309D01*
X182060780Y-91514309D01*
X182060780Y-91691690D01*
X182095384Y-91865660D01*
X182095386Y-91865666D01*
X182163267Y-92029547D01*
X182261816Y-92177035D01*
X182261818Y-92177037D01*
X182261821Y-92177041D01*
X182343028Y-92258248D01*
X182379214Y-92324516D01*
X182373827Y-92399828D01*
X182343028Y-92447752D01*
X182261821Y-92528958D01*
X182261816Y-92528964D01*
X182261816Y-92528965D01*
X182167273Y-92670458D01*
X182163265Y-92676456D01*
X182095386Y-92840333D01*
X182095384Y-92840339D01*
X182060780Y-93014309D01*
X182060780Y-93191690D01*
X182095384Y-93365660D01*
X182095386Y-93365666D01*
X182160745Y-93523460D01*
X182163267Y-93529547D01*
X182261816Y-93677035D01*
X182261818Y-93677037D01*
X182261821Y-93677041D01*
X182343028Y-93758248D01*
X182379214Y-93824516D01*
X182373827Y-93899828D01*
X182343028Y-93947752D01*
X182261821Y-94028958D01*
X182163265Y-94176456D01*
X182095386Y-94340333D01*
X182095384Y-94340339D01*
X182069813Y-94468895D01*
X182060780Y-94514309D01*
X182060780Y-94691691D01*
X182061980Y-94697725D01*
X182095384Y-94865660D01*
X182095386Y-94865666D01*
X182111072Y-94903537D01*
X182163267Y-95029547D01*
X182261816Y-95177035D01*
X182261818Y-95177037D01*
X182261821Y-95177041D01*
X182387238Y-95302458D01*
X182387241Y-95302460D01*
X182387245Y-95302464D01*
X182534733Y-95401013D01*
X182698614Y-95468894D01*
X182872589Y-95503500D01*
X182872590Y-95503500D01*
X183049970Y-95503500D01*
X183049971Y-95503500D01*
X183223946Y-95468894D01*
X183387827Y-95401013D01*
X183535315Y-95302464D01*
X183660744Y-95177035D01*
X183759293Y-95029547D01*
X183827174Y-94865666D01*
X183861780Y-94691691D01*
X183861780Y-94514309D01*
X183827174Y-94340334D01*
X183759293Y-94176453D01*
X183660744Y-94028965D01*
X183579529Y-93947750D01*
X183543345Y-93881485D01*
X183548731Y-93806173D01*
X183579529Y-93758249D01*
X183660744Y-93677035D01*
X183759293Y-93529547D01*
X183827174Y-93365666D01*
X183861780Y-93191691D01*
X183861780Y-93014309D01*
X183827174Y-92840334D01*
X183759293Y-92676453D01*
X183660744Y-92528965D01*
X183579529Y-92447750D01*
X183543345Y-92381485D01*
X183548731Y-92306173D01*
X183579529Y-92258249D01*
X183660744Y-92177035D01*
X183759293Y-92029547D01*
X183827174Y-91865666D01*
X183861780Y-91691691D01*
X183861780Y-91514309D01*
X183827174Y-91340334D01*
X183759293Y-91176453D01*
X183660744Y-91028965D01*
X183660740Y-91028961D01*
X183660738Y-91028958D01*
X183535321Y-90903541D01*
X183535317Y-90903538D01*
X183535315Y-90903536D01*
X183387827Y-90804987D01*
X183387824Y-90804985D01*
X183387823Y-90804985D01*
X183223946Y-90737106D01*
X183223940Y-90737104D01*
X183084388Y-90709346D01*
X183049971Y-90702500D01*
X182872589Y-90702500D01*
X182843856Y-90708215D01*
X182698619Y-90737104D01*
X182698613Y-90737106D01*
X182534736Y-90804985D01*
X182534733Y-90804986D01*
X182534733Y-90804987D01*
X182439128Y-90868869D01*
X182387238Y-90903541D01*
X182261821Y-91028958D01*
X182163265Y-91176456D01*
X182095386Y-91340333D01*
X182095384Y-91340339D01*
X182060780Y-91514309D01*
X166359151Y-91514309D01*
X166280744Y-91396965D01*
X166280740Y-91396961D01*
X166280738Y-91396958D01*
X166155321Y-91271541D01*
X166155317Y-91271538D01*
X166155315Y-91271536D01*
X166007827Y-91172987D01*
X166007824Y-91172985D01*
X166007823Y-91172985D01*
X165843946Y-91105106D01*
X165843940Y-91105104D01*
X165704388Y-91077346D01*
X165669971Y-91070500D01*
X165492589Y-91070500D01*
X165463856Y-91076215D01*
X165318619Y-91105104D01*
X165318613Y-91105106D01*
X165154736Y-91172985D01*
X165007238Y-91271541D01*
X164881821Y-91396958D01*
X164783265Y-91544456D01*
X164715386Y-91708333D01*
X164715384Y-91708339D01*
X164680780Y-91882309D01*
X109500500Y-91882309D01*
X109500500Y-86881158D01*
X110659500Y-86881158D01*
X110659500Y-87038841D01*
X110690261Y-87193491D01*
X110690263Y-87193497D01*
X110750605Y-87339178D01*
X110838207Y-87470285D01*
X110949714Y-87581792D01*
X111080821Y-87669394D01*
X111226503Y-87729737D01*
X111381158Y-87760500D01*
X111381159Y-87760500D01*
X111538841Y-87760500D01*
X111538842Y-87760500D01*
X111693497Y-87729737D01*
X111839179Y-87669394D01*
X111970289Y-87581789D01*
X112081789Y-87470289D01*
X112154083Y-87362092D01*
X112212018Y-87313674D01*
X112286934Y-87304264D01*
X112355044Y-87336850D01*
X112394725Y-87401087D01*
X112399500Y-87436539D01*
X112399500Y-87860003D01*
X112399501Y-87860024D01*
X112410000Y-87962796D01*
X112410001Y-87962802D01*
X112465183Y-88129331D01*
X112465183Y-88129332D01*
X112557287Y-88278655D01*
X112557289Y-88278658D01*
X112680088Y-88401457D01*
X112716274Y-88467725D01*
X112710887Y-88543037D01*
X112693745Y-88574971D01*
X112631129Y-88661155D01*
X112631127Y-88661158D01*
X112516758Y-88885622D01*
X112438907Y-89125224D01*
X112437678Y-89130345D01*
X112436103Y-89129966D01*
X112406831Y-89191689D01*
X112342730Y-89231588D01*
X112267234Y-89230497D01*
X112204312Y-89188763D01*
X112183039Y-89153763D01*
X112169394Y-89120821D01*
X112081792Y-88989714D01*
X111970285Y-88878207D01*
X111839178Y-88790605D01*
X111693497Y-88730263D01*
X111693491Y-88730261D01*
X111569436Y-88705585D01*
X111538842Y-88699500D01*
X111381158Y-88699500D01*
X111355616Y-88704580D01*
X111226508Y-88730261D01*
X111226502Y-88730263D01*
X111080821Y-88790605D01*
X110949714Y-88878207D01*
X110838207Y-88989714D01*
X110750605Y-89120821D01*
X110690263Y-89266502D01*
X110690261Y-89266508D01*
X110659500Y-89421158D01*
X110659500Y-89578841D01*
X110690261Y-89733491D01*
X110690263Y-89733497D01*
X110750605Y-89879178D01*
X110838207Y-90010285D01*
X110949714Y-90121792D01*
X111080821Y-90209394D01*
X111226503Y-90269737D01*
X111381158Y-90300500D01*
X111381159Y-90300500D01*
X111538841Y-90300500D01*
X111538842Y-90300500D01*
X111693497Y-90269737D01*
X111839179Y-90209394D01*
X111970289Y-90121789D01*
X112081789Y-90010289D01*
X112169394Y-89879179D01*
X112183039Y-89846234D01*
X112230414Y-89787446D01*
X112302054Y-89763600D01*
X112375213Y-89782272D01*
X112426664Y-89837533D01*
X112437027Y-89869811D01*
X112437678Y-89869655D01*
X112438907Y-89874775D01*
X112438909Y-89874783D01*
X112438910Y-89874785D01*
X112471276Y-89974397D01*
X112516758Y-90114377D01*
X112631130Y-90338847D01*
X112779198Y-90542646D01*
X112779208Y-90542657D01*
X112957342Y-90720791D01*
X112957353Y-90720801D01*
X113161152Y-90868869D01*
X113275446Y-90927104D01*
X113385621Y-90983241D01*
X113625215Y-91061090D01*
X113874036Y-91100499D01*
X113874037Y-91100500D01*
X113874038Y-91100500D01*
X114125963Y-91100500D01*
X114125963Y-91100499D01*
X114374785Y-91061090D01*
X114614379Y-90983241D01*
X114838845Y-90868870D01*
X114838844Y-90868870D01*
X114838847Y-90868869D01*
X115042646Y-90720801D01*
X115042650Y-90720797D01*
X115042656Y-90720793D01*
X115220793Y-90542656D01*
X115220797Y-90542650D01*
X115220801Y-90542646D01*
X115368869Y-90338847D01*
X115388408Y-90300500D01*
X115483241Y-90114379D01*
X115561090Y-89874785D01*
X115600500Y-89625962D01*
X115600500Y-89374038D01*
X115561090Y-89125215D01*
X115483241Y-88885621D01*
X115368872Y-88661158D01*
X115368869Y-88661152D01*
X115306255Y-88574972D01*
X115280882Y-88503859D01*
X115297983Y-88430317D01*
X115319907Y-88401460D01*
X115442712Y-88278656D01*
X115534814Y-88129335D01*
X115534813Y-88129335D01*
X115534816Y-88129332D01*
X115534816Y-88129331D01*
X115589998Y-87962802D01*
X115589999Y-87962796D01*
X115594814Y-87915666D01*
X115600500Y-87860010D01*
X115600500Y-87564309D01*
X169252780Y-87564309D01*
X169252780Y-87741690D01*
X169287384Y-87915660D01*
X169287386Y-87915666D01*
X169306908Y-87962798D01*
X169355267Y-88079547D01*
X169453816Y-88227035D01*
X169453818Y-88227037D01*
X169453821Y-88227041D01*
X169579238Y-88352458D01*
X169579241Y-88352460D01*
X169579245Y-88352464D01*
X169726733Y-88451013D01*
X169890614Y-88518894D01*
X170064589Y-88553500D01*
X170064590Y-88553500D01*
X170241970Y-88553500D01*
X170241971Y-88553500D01*
X170415946Y-88518894D01*
X170579827Y-88451013D01*
X170727315Y-88352464D01*
X170852744Y-88227035D01*
X170951293Y-88079547D01*
X171019174Y-87915666D01*
X171053780Y-87741691D01*
X171053780Y-87564309D01*
X171019174Y-87390334D01*
X170951293Y-87226453D01*
X170852744Y-87078965D01*
X170852740Y-87078961D01*
X170852738Y-87078958D01*
X170727321Y-86953541D01*
X170727317Y-86953538D01*
X170727315Y-86953536D01*
X170579827Y-86854987D01*
X170579824Y-86854985D01*
X170579823Y-86854985D01*
X170415946Y-86787106D01*
X170415940Y-86787104D01*
X170276388Y-86759346D01*
X170241971Y-86752500D01*
X170064589Y-86752500D01*
X170035856Y-86758215D01*
X169890619Y-86787104D01*
X169890613Y-86787106D01*
X169726736Y-86854985D01*
X169579238Y-86953541D01*
X169453821Y-87078958D01*
X169355265Y-87226456D01*
X169287386Y-87390333D01*
X169287384Y-87390339D01*
X169252780Y-87564309D01*
X115600500Y-87564309D01*
X115600500Y-86059990D01*
X115589999Y-85957202D01*
X115589998Y-85957200D01*
X115589998Y-85957197D01*
X115534816Y-85790668D01*
X115534816Y-85790667D01*
X115442712Y-85641344D01*
X115442710Y-85641341D01*
X115318658Y-85517289D01*
X115318655Y-85517287D01*
X115313827Y-85514309D01*
X179560780Y-85514309D01*
X179560780Y-85691690D01*
X179595384Y-85865660D01*
X179595386Y-85865666D01*
X179663267Y-86029547D01*
X179761816Y-86177035D01*
X179761818Y-86177037D01*
X179761821Y-86177041D01*
X179887238Y-86302458D01*
X179887241Y-86302460D01*
X179887245Y-86302464D01*
X180034733Y-86401013D01*
X180198614Y-86468894D01*
X180372589Y-86503500D01*
X180372590Y-86503500D01*
X180549970Y-86503500D01*
X180549971Y-86503500D01*
X180723946Y-86468894D01*
X180887827Y-86401013D01*
X181035315Y-86302464D01*
X181160744Y-86177035D01*
X181259293Y-86029547D01*
X181327174Y-85865666D01*
X181329855Y-85852190D01*
X181364851Y-85785286D01*
X181430463Y-85747923D01*
X181505859Y-85751964D01*
X181567102Y-85796125D01*
X181592705Y-85852190D01*
X181595384Y-85865658D01*
X181595386Y-85865666D01*
X181663267Y-86029547D01*
X181761816Y-86177035D01*
X181761818Y-86177037D01*
X181761821Y-86177041D01*
X181887238Y-86302458D01*
X181887241Y-86302460D01*
X181887245Y-86302464D01*
X182034733Y-86401013D01*
X182198614Y-86468894D01*
X182372589Y-86503500D01*
X182372590Y-86503500D01*
X182549970Y-86503500D01*
X182549971Y-86503500D01*
X182723946Y-86468894D01*
X182887827Y-86401013D01*
X183035315Y-86302464D01*
X183160744Y-86177035D01*
X183259293Y-86029547D01*
X183327174Y-85865666D01*
X183361780Y-85691691D01*
X183361780Y-85637500D01*
X183383052Y-85565054D01*
X183440114Y-85515609D01*
X183495780Y-85503500D01*
X183549970Y-85503500D01*
X183549971Y-85503500D01*
X183723946Y-85468894D01*
X183887827Y-85401013D01*
X184035315Y-85302464D01*
X184160744Y-85177035D01*
X184259293Y-85029547D01*
X184327174Y-84865666D01*
X184361780Y-84691691D01*
X184361780Y-84637500D01*
X184383052Y-84565054D01*
X184440114Y-84515609D01*
X184495780Y-84503500D01*
X184549970Y-84503500D01*
X184549971Y-84503500D01*
X184723946Y-84468894D01*
X184887827Y-84401013D01*
X185035315Y-84302464D01*
X185160744Y-84177035D01*
X185259293Y-84029547D01*
X185327174Y-83865666D01*
X185361780Y-83691691D01*
X185361780Y-83514309D01*
X185327174Y-83340334D01*
X185259293Y-83176453D01*
X185160744Y-83028965D01*
X185160740Y-83028961D01*
X185160738Y-83028958D01*
X185035321Y-82903541D01*
X185035317Y-82903538D01*
X185035315Y-82903536D01*
X184887827Y-82804987D01*
X184887824Y-82804985D01*
X184887823Y-82804985D01*
X184723946Y-82737106D01*
X184723940Y-82737104D01*
X184584388Y-82709346D01*
X184549971Y-82702500D01*
X184372589Y-82702500D01*
X184343856Y-82708215D01*
X184198619Y-82737104D01*
X184198613Y-82737106D01*
X184034736Y-82804985D01*
X184034733Y-82804986D01*
X184034733Y-82804987D01*
X183981826Y-82840339D01*
X183887238Y-82903541D01*
X183761821Y-83028958D01*
X183663265Y-83176456D01*
X183595386Y-83340333D01*
X183595384Y-83340339D01*
X183560780Y-83514309D01*
X183560780Y-83568500D01*
X183539508Y-83640946D01*
X183482446Y-83690391D01*
X183426780Y-83702500D01*
X183372589Y-83702500D01*
X183359101Y-83705183D01*
X183198619Y-83737104D01*
X183198613Y-83737106D01*
X183034736Y-83804985D01*
X183034733Y-83804986D01*
X183034733Y-83804987D01*
X182891020Y-83901014D01*
X182887238Y-83903541D01*
X182761821Y-84028958D01*
X182663265Y-84176456D01*
X182595386Y-84340333D01*
X182595384Y-84340339D01*
X182560780Y-84514309D01*
X182560780Y-84568500D01*
X182539508Y-84640946D01*
X182482446Y-84690391D01*
X182426780Y-84702500D01*
X182372589Y-84702500D01*
X182359101Y-84705183D01*
X182198619Y-84737104D01*
X182198613Y-84737106D01*
X182034736Y-84804985D01*
X181887238Y-84903541D01*
X181761821Y-85028958D01*
X181663265Y-85176456D01*
X181595386Y-85340333D01*
X181595385Y-85340337D01*
X181592705Y-85353811D01*
X181557708Y-85420714D01*
X181492096Y-85458077D01*
X181416700Y-85454035D01*
X181355458Y-85409873D01*
X181329855Y-85353811D01*
X181329083Y-85349935D01*
X181327174Y-85340334D01*
X181259293Y-85176453D01*
X181160744Y-85028965D01*
X181160740Y-85028961D01*
X181160738Y-85028958D01*
X181035321Y-84903541D01*
X181035317Y-84903538D01*
X181035315Y-84903536D01*
X180887827Y-84804987D01*
X180887824Y-84804985D01*
X180887823Y-84804985D01*
X180723946Y-84737106D01*
X180723940Y-84737104D01*
X180563459Y-84705183D01*
X180549971Y-84702500D01*
X180372589Y-84702500D01*
X180359101Y-84705183D01*
X180198619Y-84737104D01*
X180198613Y-84737106D01*
X180034736Y-84804985D01*
X179887238Y-84903541D01*
X179761821Y-85028958D01*
X179663265Y-85176456D01*
X179595386Y-85340333D01*
X179595384Y-85340339D01*
X179560780Y-85514309D01*
X115313827Y-85514309D01*
X115169331Y-85425183D01*
X115002802Y-85370001D01*
X115002796Y-85370000D01*
X114900024Y-85359501D01*
X114900016Y-85359500D01*
X114900010Y-85359500D01*
X113099990Y-85359500D01*
X113099984Y-85359500D01*
X113099975Y-85359501D01*
X112997203Y-85370000D01*
X112997197Y-85370001D01*
X112830668Y-85425183D01*
X112830667Y-85425183D01*
X112681344Y-85517287D01*
X112681341Y-85517289D01*
X112557289Y-85641341D01*
X112557287Y-85641344D01*
X112465183Y-85790667D01*
X112465183Y-85790668D01*
X112410001Y-85957197D01*
X112410000Y-85957203D01*
X112399501Y-86059975D01*
X112399500Y-86059996D01*
X112399500Y-86483460D01*
X112378228Y-86555906D01*
X112321166Y-86605351D01*
X112246430Y-86616096D01*
X112177749Y-86584730D01*
X112154083Y-86557906D01*
X112081792Y-86449715D01*
X112081788Y-86449710D01*
X111970285Y-86338207D01*
X111839178Y-86250605D01*
X111693497Y-86190263D01*
X111693491Y-86190261D01*
X111569436Y-86165585D01*
X111538842Y-86159500D01*
X111381158Y-86159500D01*
X111355616Y-86164580D01*
X111226508Y-86190261D01*
X111226502Y-86190263D01*
X111080821Y-86250605D01*
X110949714Y-86338207D01*
X110838207Y-86449714D01*
X110750605Y-86580821D01*
X110690263Y-86726502D01*
X110690261Y-86726508D01*
X110659500Y-86881158D01*
X109500500Y-86881158D01*
X109500500Y-83014309D01*
X137060780Y-83014309D01*
X137060780Y-83191690D01*
X137095384Y-83365660D01*
X137095386Y-83365666D01*
X137163267Y-83529547D01*
X137261816Y-83677035D01*
X137261818Y-83677037D01*
X137261821Y-83677041D01*
X137387238Y-83802458D01*
X137387241Y-83802460D01*
X137387245Y-83802464D01*
X137534733Y-83901013D01*
X137698614Y-83968894D01*
X137872589Y-84003500D01*
X137872590Y-84003500D01*
X138049970Y-84003500D01*
X138049971Y-84003500D01*
X138223946Y-83968894D01*
X138387827Y-83901013D01*
X138535315Y-83802464D01*
X138660744Y-83677035D01*
X138759293Y-83529547D01*
X138827174Y-83365666D01*
X138861780Y-83191691D01*
X138861780Y-83014309D01*
X138827174Y-82840334D01*
X138759293Y-82676453D01*
X138660744Y-82528965D01*
X138660740Y-82528961D01*
X138660738Y-82528958D01*
X138535321Y-82403541D01*
X138535317Y-82403538D01*
X138535315Y-82403536D01*
X138432955Y-82335141D01*
X138432955Y-82335140D01*
X138387827Y-82304987D01*
X138223946Y-82237106D01*
X138223940Y-82237104D01*
X138189778Y-82230309D01*
X150710780Y-82230309D01*
X150710780Y-82407690D01*
X150745384Y-82581660D01*
X150745386Y-82581666D01*
X150809770Y-82737106D01*
X150813267Y-82745547D01*
X150911816Y-82893035D01*
X150911818Y-82893037D01*
X150911821Y-82893041D01*
X151037238Y-83018458D01*
X151037241Y-83018460D01*
X151037245Y-83018464D01*
X151184733Y-83117013D01*
X151348614Y-83184894D01*
X151522589Y-83219500D01*
X151522590Y-83219500D01*
X151699970Y-83219500D01*
X151699971Y-83219500D01*
X151873946Y-83184894D01*
X152037827Y-83117013D01*
X152185315Y-83018464D01*
X152310744Y-82893035D01*
X152409293Y-82745547D01*
X152477174Y-82581666D01*
X152511780Y-82407691D01*
X152511780Y-82230309D01*
X152477174Y-82056334D01*
X152409293Y-81892453D01*
X152310744Y-81744965D01*
X152310740Y-81744961D01*
X152310738Y-81744958D01*
X152185321Y-81619541D01*
X152185317Y-81619538D01*
X152185315Y-81619536D01*
X152037827Y-81520987D01*
X152037824Y-81520985D01*
X152037823Y-81520985D01*
X151873946Y-81453106D01*
X151873940Y-81453104D01*
X151734388Y-81425346D01*
X151699971Y-81418500D01*
X151522589Y-81418500D01*
X151493856Y-81424215D01*
X151348619Y-81453104D01*
X151348613Y-81453106D01*
X151184736Y-81520985D01*
X151184733Y-81520986D01*
X151184733Y-81520987D01*
X151082808Y-81589092D01*
X151037238Y-81619541D01*
X150911821Y-81744958D01*
X150813265Y-81892456D01*
X150745386Y-82056333D01*
X150745384Y-82056339D01*
X150710780Y-82230309D01*
X138189778Y-82230309D01*
X138084388Y-82209346D01*
X138049971Y-82202500D01*
X137872589Y-82202500D01*
X137843856Y-82208215D01*
X137698619Y-82237104D01*
X137698613Y-82237106D01*
X137534736Y-82304985D01*
X137387238Y-82403541D01*
X137261821Y-82528958D01*
X137163265Y-82676456D01*
X137095386Y-82840333D01*
X137095384Y-82840339D01*
X137060780Y-83014309D01*
X109500500Y-83014309D01*
X109500500Y-80501993D01*
X114810780Y-80501993D01*
X114810780Y-80704006D01*
X114850187Y-80902121D01*
X114850188Y-80902126D01*
X114927493Y-81088755D01*
X115039718Y-81256714D01*
X115182565Y-81399561D01*
X115350524Y-81511786D01*
X115537153Y-81589091D01*
X115537158Y-81589092D01*
X115735274Y-81628500D01*
X115735277Y-81628500D01*
X115937286Y-81628500D01*
X116086896Y-81598740D01*
X116135407Y-81589091D01*
X116322036Y-81511786D01*
X116489998Y-81399558D01*
X116632838Y-81256718D01*
X116745066Y-81088756D01*
X116822371Y-80902127D01*
X116832020Y-80853616D01*
X116861780Y-80704006D01*
X116861780Y-80501993D01*
X116822372Y-80303878D01*
X116822371Y-80303873D01*
X116745066Y-80117244D01*
X116632841Y-79949285D01*
X116489994Y-79806438D01*
X116322035Y-79694213D01*
X116135406Y-79616908D01*
X116135401Y-79616907D01*
X115937286Y-79577500D01*
X115937283Y-79577500D01*
X115735277Y-79577500D01*
X115735274Y-79577500D01*
X115537158Y-79616907D01*
X115537153Y-79616908D01*
X115350524Y-79694213D01*
X115182565Y-79806438D01*
X115039718Y-79949285D01*
X114927493Y-80117244D01*
X114850188Y-80303873D01*
X114850187Y-80303878D01*
X114810780Y-80501993D01*
X109500500Y-80501993D01*
X109500500Y-77935677D01*
X124174500Y-77935677D01*
X124174500Y-78144322D01*
X124207136Y-78350386D01*
X124207138Y-78350394D01*
X124271609Y-78548812D01*
X124366327Y-78734710D01*
X124366330Y-78734714D01*
X124455964Y-78858084D01*
X124488969Y-78903510D01*
X124636489Y-79051030D01*
X124636492Y-79051032D01*
X124636495Y-79051035D01*
X124805286Y-79173670D01*
X124805289Y-79173672D01*
X124892928Y-79218325D01*
X124991184Y-79268389D01*
X124991186Y-79268389D01*
X124991187Y-79268390D01*
X125189605Y-79332861D01*
X125189613Y-79332863D01*
X125323736Y-79354105D01*
X125395679Y-79365499D01*
X125395680Y-79365500D01*
X125395681Y-79365500D01*
X125604320Y-79365500D01*
X125604320Y-79365499D01*
X125707354Y-79349181D01*
X125810386Y-79332863D01*
X125810394Y-79332861D01*
X125944478Y-79289293D01*
X126008816Y-79268389D01*
X126194714Y-79173670D01*
X126363505Y-79051035D01*
X126511035Y-78903505D01*
X126633670Y-78734714D01*
X126664448Y-78674309D01*
X144614780Y-78674309D01*
X144614780Y-78851690D01*
X144649384Y-79025660D01*
X144649386Y-79025666D01*
X144710690Y-79173670D01*
X144717267Y-79189547D01*
X144815816Y-79337035D01*
X144815818Y-79337037D01*
X144815821Y-79337041D01*
X144941238Y-79462458D01*
X144941241Y-79462460D01*
X144941245Y-79462464D01*
X145088733Y-79561013D01*
X145252614Y-79628894D01*
X145426589Y-79663500D01*
X145426590Y-79663500D01*
X145603970Y-79663500D01*
X145603971Y-79663500D01*
X145777946Y-79628894D01*
X145941827Y-79561013D01*
X146089315Y-79462464D01*
X146214744Y-79337035D01*
X146313293Y-79189547D01*
X146381174Y-79025666D01*
X146407999Y-78890809D01*
X162140780Y-78890809D01*
X162140780Y-79068190D01*
X162175384Y-79242160D01*
X162175386Y-79242166D01*
X162226471Y-79365499D01*
X162243267Y-79406047D01*
X162341816Y-79553535D01*
X162341818Y-79553537D01*
X162341821Y-79553541D01*
X162467238Y-79678958D01*
X162467241Y-79678960D01*
X162467245Y-79678964D01*
X162614733Y-79777513D01*
X162778614Y-79845394D01*
X162952589Y-79880000D01*
X162952590Y-79880000D01*
X163129970Y-79880000D01*
X163129971Y-79880000D01*
X163303946Y-79845394D01*
X163467827Y-79777513D01*
X163467830Y-79777510D01*
X163467832Y-79777510D01*
X163506157Y-79751901D01*
X163578211Y-79729337D01*
X163651026Y-79749311D01*
X163655036Y-79751888D01*
X163693386Y-79777513D01*
X163857267Y-79845394D01*
X164031242Y-79880000D01*
X164031243Y-79880000D01*
X164208623Y-79880000D01*
X164208624Y-79880000D01*
X164382599Y-79845394D01*
X164546480Y-79777513D01*
X164693968Y-79678964D01*
X164819397Y-79553535D01*
X164917946Y-79406047D01*
X164985827Y-79242166D01*
X165020433Y-79068191D01*
X165020433Y-78890809D01*
X164985827Y-78716834D01*
X164917946Y-78552953D01*
X164819397Y-78405465D01*
X164819393Y-78405461D01*
X164819391Y-78405458D01*
X164693974Y-78280041D01*
X164693970Y-78280038D01*
X164693968Y-78280036D01*
X164546480Y-78181487D01*
X164546477Y-78181485D01*
X164546476Y-78181485D01*
X164382599Y-78113606D01*
X164382593Y-78113604D01*
X164243041Y-78085846D01*
X164208624Y-78079000D01*
X164031242Y-78079000D01*
X164002509Y-78084715D01*
X163857272Y-78113604D01*
X163857266Y-78113606D01*
X163693387Y-78181486D01*
X163655051Y-78207101D01*
X163582996Y-78229662D01*
X163510182Y-78209685D01*
X163506160Y-78207100D01*
X163467826Y-78181486D01*
X163303946Y-78113606D01*
X163303940Y-78113604D01*
X163164388Y-78085846D01*
X163129971Y-78079000D01*
X162952589Y-78079000D01*
X162923856Y-78084715D01*
X162778619Y-78113604D01*
X162778613Y-78113606D01*
X162614736Y-78181485D01*
X162614733Y-78181486D01*
X162614733Y-78181487D01*
X162603542Y-78188965D01*
X162467238Y-78280041D01*
X162341821Y-78405458D01*
X162243265Y-78552956D01*
X162175386Y-78716833D01*
X162175384Y-78716839D01*
X162140780Y-78890809D01*
X146407999Y-78890809D01*
X146415780Y-78851691D01*
X146415780Y-78674309D01*
X146381174Y-78500334D01*
X146313293Y-78336453D01*
X146214744Y-78188965D01*
X146214740Y-78188961D01*
X146214738Y-78188958D01*
X146089321Y-78063541D01*
X146089317Y-78063538D01*
X146089315Y-78063536D01*
X145941827Y-77964987D01*
X145941824Y-77964985D01*
X145941823Y-77964985D01*
X145777946Y-77897106D01*
X145777940Y-77897104D01*
X145638388Y-77869346D01*
X145603971Y-77862500D01*
X145426589Y-77862500D01*
X145397856Y-77868215D01*
X145252619Y-77897104D01*
X145252613Y-77897106D01*
X145088736Y-77964985D01*
X144941238Y-78063541D01*
X144815821Y-78188958D01*
X144815816Y-78188964D01*
X144815816Y-78188965D01*
X144754964Y-78280036D01*
X144717265Y-78336456D01*
X144649386Y-78500333D01*
X144649384Y-78500339D01*
X144614780Y-78674309D01*
X126664448Y-78674309D01*
X126728389Y-78548816D01*
X126774969Y-78405458D01*
X126792861Y-78350394D01*
X126792863Y-78350386D01*
X126815556Y-78207101D01*
X126825500Y-78144319D01*
X126825500Y-77935681D01*
X126813909Y-77862500D01*
X126792863Y-77729613D01*
X126792861Y-77729605D01*
X126728390Y-77531187D01*
X126728389Y-77531186D01*
X126728389Y-77531184D01*
X126633670Y-77345286D01*
X126511035Y-77176495D01*
X126511032Y-77176492D01*
X126511030Y-77176489D01*
X126376415Y-77041874D01*
X126340229Y-76975606D01*
X126345616Y-76900294D01*
X126390864Y-76839849D01*
X126425351Y-76823752D01*
X126424522Y-76821528D01*
X126567088Y-76768353D01*
X126682189Y-76682189D01*
X126768353Y-76567088D01*
X126818597Y-76432378D01*
X126825000Y-76372830D01*
X126825000Y-75750000D01*
X125990748Y-75750000D01*
X126012518Y-75712292D01*
X126050000Y-75572409D01*
X126050000Y-75427591D01*
X126012518Y-75287708D01*
X125990748Y-75250000D01*
X126825000Y-75250000D01*
X126825000Y-74627169D01*
X126818597Y-74567621D01*
X126768353Y-74432911D01*
X126682189Y-74317810D01*
X126567088Y-74231646D01*
X126432378Y-74181402D01*
X126372831Y-74175000D01*
X125750000Y-74175000D01*
X125750000Y-75009252D01*
X125712292Y-74987482D01*
X125572409Y-74950000D01*
X125427591Y-74950000D01*
X125287708Y-74987482D01*
X125250000Y-75009252D01*
X125250000Y-74175000D01*
X124627169Y-74175000D01*
X124567621Y-74181402D01*
X124432911Y-74231646D01*
X124317810Y-74317810D01*
X124231646Y-74432911D01*
X124181402Y-74567621D01*
X124175000Y-74627169D01*
X124175000Y-75250000D01*
X125009252Y-75250000D01*
X124987482Y-75287708D01*
X124950000Y-75427591D01*
X124950000Y-75572409D01*
X124987482Y-75712292D01*
X125009252Y-75750000D01*
X124175000Y-75750000D01*
X124175000Y-76372830D01*
X124181402Y-76432378D01*
X124231646Y-76567088D01*
X124317810Y-76682189D01*
X124432911Y-76768353D01*
X124575478Y-76821528D01*
X124574185Y-76824992D01*
X124625257Y-76854072D01*
X124660256Y-76920975D01*
X124653529Y-76996179D01*
X124623585Y-77041874D01*
X124488967Y-77176492D01*
X124366327Y-77345289D01*
X124271609Y-77531187D01*
X124207138Y-77729605D01*
X124207136Y-77729613D01*
X124174500Y-77935677D01*
X109500500Y-77935677D01*
X109500500Y-74501993D01*
X114810780Y-74501993D01*
X114810780Y-74704006D01*
X114850187Y-74902121D01*
X114850188Y-74902126D01*
X114927493Y-75088755D01*
X115039718Y-75256714D01*
X115182565Y-75399561D01*
X115350524Y-75511786D01*
X115537153Y-75589091D01*
X115537158Y-75589092D01*
X115735274Y-75628500D01*
X115735277Y-75628500D01*
X115937286Y-75628500D01*
X116086896Y-75598740D01*
X116135407Y-75589091D01*
X116322036Y-75511786D01*
X116434771Y-75436459D01*
X116489994Y-75399561D01*
X116489994Y-75399560D01*
X116489998Y-75399558D01*
X116632838Y-75256718D01*
X116745066Y-75088756D01*
X116822371Y-74902127D01*
X116845134Y-74787690D01*
X116861780Y-74704006D01*
X116861780Y-74501993D01*
X116822372Y-74303878D01*
X116822371Y-74303873D01*
X116745066Y-74117244D01*
X116632841Y-73949285D01*
X116489994Y-73806438D01*
X116322035Y-73694213D01*
X116135406Y-73616908D01*
X116135401Y-73616907D01*
X115937286Y-73577500D01*
X115937283Y-73577500D01*
X115735277Y-73577500D01*
X115735274Y-73577500D01*
X115537158Y-73616907D01*
X115537153Y-73616908D01*
X115350524Y-73694213D01*
X115182565Y-73806438D01*
X115039718Y-73949285D01*
X114927493Y-74117244D01*
X114850188Y-74303873D01*
X114850187Y-74303878D01*
X114810780Y-74501993D01*
X109500500Y-74501993D01*
X109500500Y-72014309D01*
X114560780Y-72014309D01*
X114560780Y-72191691D01*
X114563878Y-72207264D01*
X114595384Y-72365660D01*
X114595386Y-72365666D01*
X114648730Y-72494453D01*
X114663267Y-72529547D01*
X114761816Y-72677035D01*
X114761818Y-72677037D01*
X114761821Y-72677041D01*
X114887238Y-72802458D01*
X114887241Y-72802460D01*
X114887245Y-72802464D01*
X115034733Y-72901013D01*
X115198614Y-72968894D01*
X115372589Y-73003500D01*
X115372590Y-73003500D01*
X115549970Y-73003500D01*
X115549971Y-73003500D01*
X115723946Y-72968894D01*
X115887827Y-72901013D01*
X116035315Y-72802464D01*
X116160744Y-72677035D01*
X116259293Y-72529547D01*
X116327174Y-72365666D01*
X116361780Y-72191691D01*
X116361780Y-72014309D01*
X116327174Y-71840334D01*
X116311973Y-71803636D01*
X150069380Y-71803636D01*
X150069380Y-72006363D01*
X150101090Y-72206574D01*
X150163736Y-72399380D01*
X150255770Y-72580008D01*
X150368279Y-72734863D01*
X150374925Y-72744010D01*
X150518270Y-72887355D01*
X150518276Y-72887359D01*
X150682271Y-73006509D01*
X150774242Y-73053370D01*
X150862898Y-73098543D01*
X151055696Y-73161187D01*
X151055701Y-73161187D01*
X151055705Y-73161189D01*
X151177945Y-73180549D01*
X151255918Y-73192899D01*
X151255919Y-73192900D01*
X151255920Y-73192900D01*
X151458641Y-73192900D01*
X151458641Y-73192899D01*
X151570314Y-73175212D01*
X151658854Y-73161189D01*
X151658856Y-73161188D01*
X151658864Y-73161187D01*
X151851662Y-73098543D01*
X152032286Y-73006510D01*
X152032285Y-73006510D01*
X152032288Y-73006509D01*
X152084062Y-72968893D01*
X152196290Y-72887355D01*
X152339635Y-72744010D01*
X152458790Y-72580006D01*
X152550823Y-72399382D01*
X152613467Y-72206584D01*
X152617914Y-72178512D01*
X152627492Y-72118034D01*
X152645180Y-72006360D01*
X152645180Y-71803640D01*
X152645179Y-71803636D01*
X155149380Y-71803636D01*
X155149380Y-72006363D01*
X155181090Y-72206574D01*
X155243736Y-72399380D01*
X155335770Y-72580008D01*
X155448279Y-72734863D01*
X155454925Y-72744010D01*
X155598270Y-72887355D01*
X155598276Y-72887359D01*
X155762271Y-73006509D01*
X155854242Y-73053370D01*
X155942898Y-73098543D01*
X156135696Y-73161187D01*
X156135701Y-73161187D01*
X156135705Y-73161189D01*
X156257945Y-73180549D01*
X156335918Y-73192899D01*
X156335919Y-73192900D01*
X156335920Y-73192900D01*
X156538641Y-73192900D01*
X156538641Y-73192899D01*
X156650314Y-73175212D01*
X156738854Y-73161189D01*
X156738856Y-73161188D01*
X156738864Y-73161187D01*
X156931662Y-73098543D01*
X157112286Y-73006510D01*
X157112285Y-73006510D01*
X157112288Y-73006509D01*
X157164062Y-72968893D01*
X157276290Y-72887355D01*
X157419635Y-72744010D01*
X157538790Y-72580006D01*
X157587885Y-72483651D01*
X157639728Y-72428760D01*
X157713019Y-72410610D01*
X157784487Y-72434965D01*
X157826675Y-72483652D01*
X157875770Y-72580008D01*
X157988279Y-72734863D01*
X157994925Y-72744010D01*
X158138270Y-72887355D01*
X158138276Y-72887359D01*
X158302271Y-73006509D01*
X158394242Y-73053370D01*
X158482898Y-73098543D01*
X158675696Y-73161187D01*
X158675701Y-73161187D01*
X158675705Y-73161189D01*
X158797945Y-73180549D01*
X158875918Y-73192899D01*
X158875919Y-73192900D01*
X158875920Y-73192900D01*
X159078641Y-73192900D01*
X159078641Y-73192899D01*
X159190314Y-73175212D01*
X159278854Y-73161189D01*
X159278856Y-73161188D01*
X159278864Y-73161187D01*
X159471662Y-73098543D01*
X159652286Y-73006510D01*
X159652285Y-73006510D01*
X159652288Y-73006509D01*
X159704062Y-72968893D01*
X159816290Y-72887355D01*
X159959635Y-72744010D01*
X160078790Y-72580006D01*
X160127885Y-72483651D01*
X160179728Y-72428760D01*
X160253019Y-72410610D01*
X160324487Y-72434965D01*
X160366675Y-72483652D01*
X160415770Y-72580008D01*
X160528279Y-72734863D01*
X160534925Y-72744010D01*
X160678270Y-72887355D01*
X160678276Y-72887359D01*
X160842271Y-73006509D01*
X160934242Y-73053370D01*
X161022898Y-73098543D01*
X161215696Y-73161187D01*
X161215701Y-73161187D01*
X161215705Y-73161189D01*
X161337945Y-73180549D01*
X161415918Y-73192899D01*
X161415919Y-73192900D01*
X161415920Y-73192900D01*
X161618641Y-73192900D01*
X161618641Y-73192899D01*
X161730314Y-73175212D01*
X161818854Y-73161189D01*
X161818856Y-73161188D01*
X161818864Y-73161187D01*
X162011662Y-73098543D01*
X162192286Y-73006510D01*
X162192285Y-73006510D01*
X162192288Y-73006509D01*
X162244062Y-72968893D01*
X162356290Y-72887355D01*
X162499635Y-72744010D01*
X162618790Y-72580006D01*
X162710823Y-72399382D01*
X162773467Y-72206584D01*
X162777914Y-72178512D01*
X162787492Y-72118034D01*
X162805180Y-72006360D01*
X162805180Y-71803640D01*
X162780752Y-71649409D01*
X162773469Y-71603425D01*
X162773467Y-71603421D01*
X162773467Y-71603416D01*
X162754336Y-71544538D01*
X170479078Y-71544538D01*
X170479078Y-71721919D01*
X170513682Y-71895889D01*
X170513684Y-71895895D01*
X170559439Y-72006360D01*
X170581565Y-72059776D01*
X170680114Y-72207264D01*
X170680116Y-72207266D01*
X170680119Y-72207270D01*
X170706985Y-72234136D01*
X170743171Y-72300404D01*
X170737784Y-72375716D01*
X170723650Y-72403334D01*
X170662766Y-72494453D01*
X170594886Y-72658333D01*
X170594884Y-72658339D01*
X170560280Y-72832309D01*
X170560280Y-73009690D01*
X170594884Y-73183660D01*
X170594886Y-73183666D01*
X170662767Y-73347547D01*
X170761316Y-73495035D01*
X170761318Y-73495037D01*
X170761321Y-73495041D01*
X170886738Y-73620458D01*
X170886741Y-73620460D01*
X170886745Y-73620464D01*
X171034233Y-73719013D01*
X171198114Y-73786894D01*
X171353097Y-73817722D01*
X171419999Y-73852717D01*
X171457362Y-73918329D01*
X171453321Y-73993725D01*
X171438372Y-74023590D01*
X171424767Y-74043951D01*
X171356886Y-74207833D01*
X171356884Y-74207839D01*
X171322280Y-74381809D01*
X171322280Y-74559190D01*
X171356884Y-74733160D01*
X171356886Y-74733166D01*
X171424767Y-74897047D01*
X171523316Y-75044535D01*
X171523318Y-75044537D01*
X171523321Y-75044541D01*
X171648738Y-75169958D01*
X171648741Y-75169960D01*
X171648745Y-75169964D01*
X171796233Y-75268513D01*
X171796235Y-75268514D01*
X171796237Y-75268515D01*
X171842574Y-75287708D01*
X171960114Y-75336394D01*
X171960116Y-75336394D01*
X171964058Y-75338027D01*
X172022850Y-75385403D01*
X172046695Y-75457043D01*
X172046780Y-75461827D01*
X172046780Y-75549691D01*
X172051275Y-75572290D01*
X172081384Y-75723660D01*
X172081386Y-75723666D01*
X172127571Y-75835169D01*
X172149267Y-75887547D01*
X172247816Y-76035035D01*
X172247818Y-76035037D01*
X172247821Y-76035041D01*
X172373238Y-76160458D01*
X172373241Y-76160460D01*
X172373245Y-76160464D01*
X172520733Y-76259013D01*
X172520735Y-76259014D01*
X172520737Y-76259015D01*
X172579274Y-76283261D01*
X172684614Y-76326894D01*
X172684616Y-76326894D01*
X172688558Y-76328527D01*
X172747350Y-76375903D01*
X172771195Y-76447543D01*
X172771280Y-76452327D01*
X172771280Y-76497901D01*
X172805884Y-76671871D01*
X172805886Y-76671877D01*
X172869307Y-76824992D01*
X172873767Y-76835758D01*
X172972316Y-76983246D01*
X172972318Y-76983248D01*
X172972321Y-76983252D01*
X173097738Y-77108669D01*
X173097741Y-77108671D01*
X173097745Y-77108675D01*
X173245233Y-77207224D01*
X173409114Y-77275105D01*
X173583089Y-77309711D01*
X173583090Y-77309711D01*
X173760470Y-77309711D01*
X173760471Y-77309711D01*
X173934446Y-77275105D01*
X174098327Y-77207224D01*
X174245815Y-77108675D01*
X174371244Y-76983246D01*
X174469793Y-76835758D01*
X174537674Y-76671877D01*
X174572280Y-76497902D01*
X174572280Y-76320520D01*
X174537674Y-76146545D01*
X174469793Y-75982664D01*
X174371244Y-75835176D01*
X174371240Y-75835172D01*
X174371238Y-75835169D01*
X174245821Y-75709752D01*
X174245815Y-75709747D01*
X174233193Y-75701313D01*
X174184776Y-75643376D01*
X174175368Y-75568460D01*
X174207956Y-75500351D01*
X174233189Y-75478486D01*
X174352951Y-75398464D01*
X174352953Y-75398462D01*
X174352957Y-75398459D01*
X174478374Y-75273041D01*
X174478380Y-75273035D01*
X174576929Y-75125547D01*
X174644810Y-74961666D01*
X174679416Y-74787691D01*
X174679416Y-74610309D01*
X174644810Y-74436334D01*
X174576929Y-74272453D01*
X174478380Y-74124965D01*
X174478376Y-74124961D01*
X174478374Y-74124958D01*
X174352957Y-73999541D01*
X174352953Y-73999538D01*
X174352951Y-73999536D01*
X174205463Y-73900987D01*
X174205460Y-73900985D01*
X174205459Y-73900985D01*
X174041582Y-73833106D01*
X174041576Y-73833104D01*
X173902024Y-73805346D01*
X173867607Y-73798500D01*
X173690225Y-73798500D01*
X173661492Y-73804215D01*
X173516255Y-73833104D01*
X173516249Y-73833106D01*
X173352372Y-73900985D01*
X173352369Y-73900986D01*
X173352369Y-73900987D01*
X173207523Y-73997771D01*
X173204877Y-73999539D01*
X173192190Y-74012226D01*
X173125920Y-74048410D01*
X173050608Y-74043021D01*
X172990165Y-73997771D01*
X172986042Y-73991945D01*
X172922244Y-73896465D01*
X172922240Y-73896461D01*
X172922238Y-73896458D01*
X172796821Y-73771041D01*
X172796817Y-73771038D01*
X172796815Y-73771036D01*
X172649327Y-73672487D01*
X172649324Y-73672485D01*
X172649323Y-73672485D01*
X172485446Y-73604606D01*
X172485440Y-73604604D01*
X172365107Y-73580669D01*
X172330462Y-73573777D01*
X172263559Y-73538782D01*
X172226197Y-73473170D01*
X172230238Y-73397774D01*
X172245187Y-73367908D01*
X172258793Y-73347547D01*
X172326674Y-73183666D01*
X172361280Y-73009691D01*
X172361280Y-72832309D01*
X172326674Y-72658334D01*
X172258793Y-72494453D01*
X172160244Y-72346965D01*
X172160240Y-72346961D01*
X172160238Y-72346958D01*
X172133372Y-72320092D01*
X172097186Y-72253824D01*
X172102573Y-72178512D01*
X172116708Y-72150893D01*
X172137769Y-72119373D01*
X172177591Y-72059776D01*
X172245472Y-71895895D01*
X172280078Y-71721920D01*
X172280078Y-71649409D01*
X172301350Y-71576963D01*
X172358412Y-71527518D01*
X172387927Y-71517986D01*
X172452245Y-71505193D01*
X172616126Y-71437312D01*
X172763614Y-71338763D01*
X172889043Y-71213334D01*
X172987592Y-71065846D01*
X173055473Y-70901965D01*
X173090079Y-70727990D01*
X173090079Y-70550608D01*
X173055473Y-70376633D01*
X172987592Y-70212752D01*
X172889043Y-70065264D01*
X172889039Y-70065260D01*
X172889037Y-70065257D01*
X172763620Y-69939840D01*
X172763616Y-69939837D01*
X172763614Y-69939835D01*
X172616126Y-69841286D01*
X172616123Y-69841284D01*
X172616122Y-69841284D01*
X172452245Y-69773405D01*
X172452239Y-69773403D01*
X172312687Y-69745645D01*
X172278270Y-69738799D01*
X172100888Y-69738799D01*
X172072155Y-69744514D01*
X171926918Y-69773403D01*
X171926912Y-69773405D01*
X171763035Y-69841284D01*
X171763032Y-69841285D01*
X171763032Y-69841286D01*
X171673644Y-69901014D01*
X171615537Y-69939840D01*
X171490120Y-70065257D01*
X171391564Y-70212755D01*
X171323685Y-70376632D01*
X171323683Y-70376638D01*
X171289079Y-70550608D01*
X171289079Y-70623117D01*
X171267807Y-70695563D01*
X171210745Y-70745008D01*
X171181222Y-70754542D01*
X171116916Y-70767333D01*
X171116911Y-70767335D01*
X170953034Y-70835214D01*
X170953031Y-70835215D01*
X170953031Y-70835216D01*
X170822186Y-70922645D01*
X170805536Y-70933770D01*
X170680119Y-71059187D01*
X170680114Y-71059193D01*
X170680114Y-71059194D01*
X170675576Y-71065986D01*
X170581563Y-71206685D01*
X170513684Y-71370562D01*
X170513682Y-71370568D01*
X170479078Y-71544538D01*
X162754336Y-71544538D01*
X162710823Y-71410618D01*
X162622413Y-71237104D01*
X162618789Y-71229991D01*
X162510151Y-71080464D01*
X162499635Y-71065990D01*
X162356290Y-70922645D01*
X162327818Y-70901959D01*
X162192288Y-70803490D01*
X162011660Y-70711456D01*
X161899019Y-70674857D01*
X161818864Y-70648813D01*
X161818862Y-70648812D01*
X161818854Y-70648810D01*
X161618642Y-70617100D01*
X161618640Y-70617100D01*
X161415920Y-70617100D01*
X161415918Y-70617100D01*
X161215705Y-70648810D01*
X161022899Y-70711456D01*
X160842271Y-70803490D01*
X160678276Y-70922640D01*
X160678266Y-70922648D01*
X160534928Y-71065986D01*
X160534920Y-71065996D01*
X160415770Y-71229991D01*
X160366675Y-71326347D01*
X160314831Y-71381239D01*
X160241541Y-71399389D01*
X160170072Y-71375034D01*
X160127885Y-71326347D01*
X160078789Y-71229991D01*
X159970151Y-71080464D01*
X159959635Y-71065990D01*
X159816290Y-70922645D01*
X159787818Y-70901959D01*
X159652288Y-70803490D01*
X159471660Y-70711456D01*
X159359019Y-70674857D01*
X159278864Y-70648813D01*
X159278862Y-70648812D01*
X159278854Y-70648810D01*
X159078642Y-70617100D01*
X159078640Y-70617100D01*
X158875920Y-70617100D01*
X158875918Y-70617100D01*
X158675705Y-70648810D01*
X158482899Y-70711456D01*
X158302271Y-70803490D01*
X158138276Y-70922640D01*
X158138266Y-70922648D01*
X157994928Y-71065986D01*
X157994920Y-71065996D01*
X157875770Y-71229991D01*
X157826675Y-71326347D01*
X157774831Y-71381239D01*
X157701541Y-71399389D01*
X157630072Y-71375034D01*
X157587885Y-71326347D01*
X157538789Y-71229991D01*
X157430151Y-71080464D01*
X157419635Y-71065990D01*
X157276290Y-70922645D01*
X157247818Y-70901959D01*
X157112288Y-70803490D01*
X156931660Y-70711456D01*
X156819019Y-70674857D01*
X156738864Y-70648813D01*
X156738862Y-70648812D01*
X156738854Y-70648810D01*
X156538642Y-70617100D01*
X156538640Y-70617100D01*
X156335920Y-70617100D01*
X156335918Y-70617100D01*
X156135705Y-70648810D01*
X155942899Y-70711456D01*
X155762271Y-70803490D01*
X155598276Y-70922640D01*
X155598266Y-70922648D01*
X155454928Y-71065986D01*
X155454920Y-71065996D01*
X155335770Y-71229991D01*
X155243736Y-71410619D01*
X155181090Y-71603425D01*
X155149380Y-71803636D01*
X152645179Y-71803636D01*
X152620752Y-71649409D01*
X152613469Y-71603425D01*
X152613467Y-71603421D01*
X152613467Y-71603416D01*
X152550823Y-71410618D01*
X152462413Y-71237104D01*
X152458789Y-71229991D01*
X152350151Y-71080464D01*
X152339635Y-71065990D01*
X152196290Y-70922645D01*
X152167818Y-70901959D01*
X152032288Y-70803490D01*
X151851660Y-70711456D01*
X151739019Y-70674857D01*
X151658864Y-70648813D01*
X151658862Y-70648812D01*
X151658854Y-70648810D01*
X151458642Y-70617100D01*
X151458640Y-70617100D01*
X151255920Y-70617100D01*
X151255918Y-70617100D01*
X151055705Y-70648810D01*
X150862899Y-70711456D01*
X150682271Y-70803490D01*
X150518276Y-70922640D01*
X150518266Y-70922648D01*
X150374928Y-71065986D01*
X150374920Y-71065996D01*
X150255770Y-71229991D01*
X150163736Y-71410619D01*
X150101090Y-71603425D01*
X150069380Y-71803636D01*
X116311973Y-71803636D01*
X116259293Y-71676453D01*
X116160744Y-71528965D01*
X116160740Y-71528961D01*
X116160738Y-71528958D01*
X116035321Y-71403541D01*
X116035317Y-71403538D01*
X116035315Y-71403536D01*
X115887827Y-71304987D01*
X115887824Y-71304985D01*
X115887823Y-71304985D01*
X115723946Y-71237106D01*
X115723940Y-71237104D01*
X115570995Y-71206682D01*
X115549971Y-71202500D01*
X115372589Y-71202500D01*
X115351565Y-71206682D01*
X115198619Y-71237104D01*
X115198613Y-71237106D01*
X115034736Y-71304985D01*
X115034733Y-71304986D01*
X115034733Y-71304987D01*
X114893452Y-71399389D01*
X114887238Y-71403541D01*
X114761821Y-71528958D01*
X114761816Y-71528964D01*
X114761816Y-71528965D01*
X114729745Y-71576963D01*
X114663265Y-71676456D01*
X114595386Y-71840333D01*
X114595384Y-71840339D01*
X114562361Y-72006360D01*
X114560780Y-72014309D01*
X109500500Y-72014309D01*
X109500500Y-67595677D01*
X113333500Y-67595677D01*
X113333500Y-67804322D01*
X113366136Y-68010386D01*
X113366138Y-68010394D01*
X113430609Y-68208812D01*
X113525327Y-68394710D01*
X113647969Y-68563510D01*
X113795489Y-68711030D01*
X113795492Y-68711032D01*
X113795495Y-68711035D01*
X113964286Y-68833670D01*
X113964289Y-68833672D01*
X114051928Y-68878325D01*
X114150184Y-68928389D01*
X114150186Y-68928389D01*
X114150187Y-68928390D01*
X114348605Y-68992861D01*
X114348613Y-68992863D01*
X114482736Y-69014105D01*
X114554679Y-69025499D01*
X114554680Y-69025500D01*
X114554681Y-69025500D01*
X114763320Y-69025500D01*
X114763320Y-69025499D01*
X114866354Y-69009181D01*
X114969386Y-68992863D01*
X114969394Y-68992861D01*
X115114575Y-68945688D01*
X115167816Y-68928389D01*
X115353714Y-68833670D01*
X115522505Y-68711035D01*
X115670035Y-68563505D01*
X115792670Y-68394714D01*
X115887389Y-68208816D01*
X115936072Y-68058987D01*
X115951861Y-68010394D01*
X115951863Y-68010386D01*
X115975317Y-67862298D01*
X115984500Y-67804319D01*
X115984500Y-67595681D01*
X115984499Y-67595677D01*
X124033500Y-67595677D01*
X124033500Y-67804322D01*
X124066136Y-68010386D01*
X124066138Y-68010394D01*
X124130609Y-68208812D01*
X124225327Y-68394710D01*
X124347969Y-68563510D01*
X124495489Y-68711030D01*
X124495492Y-68711032D01*
X124495495Y-68711035D01*
X124664286Y-68833670D01*
X124664289Y-68833672D01*
X124751928Y-68878325D01*
X124850184Y-68928389D01*
X124850186Y-68928389D01*
X124850187Y-68928390D01*
X125048605Y-68992861D01*
X125048613Y-68992863D01*
X125182736Y-69014105D01*
X125254679Y-69025499D01*
X125254680Y-69025500D01*
X125254681Y-69025500D01*
X125463320Y-69025500D01*
X125463320Y-69025499D01*
X125566354Y-69009181D01*
X125669386Y-68992863D01*
X125669394Y-68992861D01*
X125814575Y-68945688D01*
X125867816Y-68928389D01*
X126053714Y-68833670D01*
X126222505Y-68711035D01*
X126370035Y-68563505D01*
X126492670Y-68394714D01*
X126587389Y-68208816D01*
X126636072Y-68058987D01*
X126651861Y-68010394D01*
X126651863Y-68010386D01*
X126675317Y-67862298D01*
X126684500Y-67804319D01*
X126684500Y-67595681D01*
X126684499Y-67595677D01*
X134733500Y-67595677D01*
X134733500Y-67804322D01*
X134766136Y-68010386D01*
X134766138Y-68010394D01*
X134830609Y-68208812D01*
X134925327Y-68394710D01*
X135047969Y-68563510D01*
X135195489Y-68711030D01*
X135195492Y-68711032D01*
X135195495Y-68711035D01*
X135364286Y-68833670D01*
X135364289Y-68833672D01*
X135451928Y-68878325D01*
X135550184Y-68928389D01*
X135550186Y-68928389D01*
X135550187Y-68928390D01*
X135748605Y-68992861D01*
X135748613Y-68992863D01*
X135882736Y-69014105D01*
X135954679Y-69025499D01*
X135954680Y-69025500D01*
X135954681Y-69025500D01*
X136163320Y-69025500D01*
X136163320Y-69025499D01*
X136266354Y-69009181D01*
X136369386Y-68992863D01*
X136369394Y-68992861D01*
X136514575Y-68945688D01*
X136567816Y-68928389D01*
X136753714Y-68833670D01*
X136922505Y-68711035D01*
X137070035Y-68563505D01*
X137192670Y-68394714D01*
X137287389Y-68208816D01*
X137336072Y-68058987D01*
X137351861Y-68010394D01*
X137351863Y-68010386D01*
X137375317Y-67862298D01*
X137384500Y-67804319D01*
X137384500Y-67595681D01*
X137384499Y-67595677D01*
X145433500Y-67595677D01*
X145433500Y-67804322D01*
X145466136Y-68010386D01*
X145466138Y-68010394D01*
X145530609Y-68208812D01*
X145625327Y-68394710D01*
X145747969Y-68563510D01*
X145895489Y-68711030D01*
X145895492Y-68711032D01*
X145895495Y-68711035D01*
X146064286Y-68833670D01*
X146064289Y-68833672D01*
X146151928Y-68878325D01*
X146250184Y-68928389D01*
X146250186Y-68928389D01*
X146250187Y-68928390D01*
X146448605Y-68992861D01*
X146448613Y-68992863D01*
X146582736Y-69014105D01*
X146654679Y-69025499D01*
X146654680Y-69025500D01*
X146654681Y-69025500D01*
X146863320Y-69025500D01*
X146863320Y-69025499D01*
X146966354Y-69009181D01*
X147069386Y-68992863D01*
X147069394Y-68992861D01*
X147214575Y-68945688D01*
X147267816Y-68928389D01*
X147453714Y-68833670D01*
X147622505Y-68711035D01*
X147770035Y-68563505D01*
X147892670Y-68394714D01*
X147987389Y-68208816D01*
X148036072Y-68058987D01*
X148051861Y-68010394D01*
X148051863Y-68010386D01*
X148075317Y-67862298D01*
X148084500Y-67804319D01*
X148084500Y-67595681D01*
X148084499Y-67595677D01*
X156133500Y-67595677D01*
X156133500Y-67804322D01*
X156166136Y-68010386D01*
X156166138Y-68010394D01*
X156230609Y-68208812D01*
X156325327Y-68394710D01*
X156447969Y-68563510D01*
X156595489Y-68711030D01*
X156595492Y-68711032D01*
X156595495Y-68711035D01*
X156764286Y-68833670D01*
X156764289Y-68833672D01*
X156851928Y-68878325D01*
X156950184Y-68928389D01*
X156950186Y-68928389D01*
X156950187Y-68928390D01*
X157148605Y-68992861D01*
X157148613Y-68992863D01*
X157282736Y-69014105D01*
X157354679Y-69025499D01*
X157354680Y-69025500D01*
X157354681Y-69025500D01*
X157563320Y-69025500D01*
X157563320Y-69025499D01*
X157666354Y-69009181D01*
X157769386Y-68992863D01*
X157769394Y-68992861D01*
X157914575Y-68945688D01*
X157967816Y-68928389D01*
X158153714Y-68833670D01*
X158322505Y-68711035D01*
X158470035Y-68563505D01*
X158592670Y-68394714D01*
X158687389Y-68208816D01*
X158736072Y-68058987D01*
X158751861Y-68010394D01*
X158751863Y-68010386D01*
X158775317Y-67862298D01*
X158784500Y-67804319D01*
X158784500Y-67595681D01*
X158784500Y-67595678D01*
X158783976Y-67592368D01*
X172122735Y-67592368D01*
X172122735Y-67769749D01*
X172157339Y-67943719D01*
X172157341Y-67943725D01*
X172205083Y-68058987D01*
X172225222Y-68107606D01*
X172323771Y-68255094D01*
X172323773Y-68255096D01*
X172323776Y-68255100D01*
X172449193Y-68380517D01*
X172449196Y-68380519D01*
X172449200Y-68380523D01*
X172596688Y-68479072D01*
X172596690Y-68479073D01*
X172596692Y-68479074D01*
X172709542Y-68525817D01*
X172768334Y-68573193D01*
X172792179Y-68644833D01*
X172789689Y-68675758D01*
X172771280Y-68768308D01*
X172771280Y-68945690D01*
X172805884Y-69119660D01*
X172805886Y-69119666D01*
X172873767Y-69283547D01*
X172972316Y-69431035D01*
X172972318Y-69431037D01*
X172972321Y-69431041D01*
X173097738Y-69556458D01*
X173097741Y-69556460D01*
X173097745Y-69556464D01*
X173245233Y-69655013D01*
X173409114Y-69722894D01*
X173409118Y-69722894D01*
X173409119Y-69722895D01*
X173493447Y-69739669D01*
X173560351Y-69774665D01*
X173597713Y-69840277D01*
X173593672Y-69915673D01*
X173578723Y-69945538D01*
X173572767Y-69954451D01*
X173504886Y-70118333D01*
X173504884Y-70118339D01*
X173470280Y-70292309D01*
X173470280Y-70469690D01*
X173504884Y-70643660D01*
X173504886Y-70643666D01*
X173571086Y-70803490D01*
X173572767Y-70807547D01*
X173671316Y-70955035D01*
X173671318Y-70955037D01*
X173671321Y-70955041D01*
X173796738Y-71080458D01*
X173796741Y-71080460D01*
X173796745Y-71080464D01*
X173944233Y-71179013D01*
X174108114Y-71246894D01*
X174282089Y-71281500D01*
X174282090Y-71281500D01*
X174459470Y-71281500D01*
X174459471Y-71281500D01*
X174633446Y-71246894D01*
X174797327Y-71179013D01*
X174944815Y-71080464D01*
X175070244Y-70955035D01*
X175168793Y-70807547D01*
X175236674Y-70643666D01*
X175271280Y-70469691D01*
X175271280Y-70292309D01*
X175236674Y-70118334D01*
X175168793Y-69954453D01*
X175070244Y-69806965D01*
X175070240Y-69806961D01*
X175070238Y-69806958D01*
X174944821Y-69681541D01*
X174944817Y-69681538D01*
X174944815Y-69681536D01*
X174797327Y-69582987D01*
X174797324Y-69582985D01*
X174797323Y-69582985D01*
X174633446Y-69515106D01*
X174633441Y-69515104D01*
X174549111Y-69498330D01*
X174482207Y-69463333D01*
X174444845Y-69397721D01*
X174448887Y-69322324D01*
X174463839Y-69292456D01*
X174469793Y-69283547D01*
X174537674Y-69119666D01*
X174558631Y-69014309D01*
X188060780Y-69014309D01*
X188060780Y-69191690D01*
X188095384Y-69365660D01*
X188095386Y-69365666D01*
X188157284Y-69515104D01*
X188163267Y-69529547D01*
X188261816Y-69677035D01*
X188261818Y-69677037D01*
X188261821Y-69677041D01*
X188387238Y-69802458D01*
X188387241Y-69802460D01*
X188387245Y-69802464D01*
X188534733Y-69901013D01*
X188698614Y-69968894D01*
X188872589Y-70003500D01*
X188872590Y-70003500D01*
X189049970Y-70003500D01*
X189049971Y-70003500D01*
X189223946Y-69968894D01*
X189387827Y-69901013D01*
X189535315Y-69802464D01*
X189660744Y-69677035D01*
X189759293Y-69529547D01*
X189827174Y-69365666D01*
X189861780Y-69191691D01*
X189861780Y-69014309D01*
X189827174Y-68840334D01*
X189759293Y-68676453D01*
X189660744Y-68528965D01*
X189660740Y-68528961D01*
X189660738Y-68528958D01*
X189535321Y-68403541D01*
X189535317Y-68403538D01*
X189535315Y-68403536D01*
X189387827Y-68304987D01*
X189387824Y-68304985D01*
X189387823Y-68304985D01*
X189223946Y-68237106D01*
X189223940Y-68237104D01*
X189081703Y-68208812D01*
X189049971Y-68202500D01*
X188872589Y-68202500D01*
X188843856Y-68208215D01*
X188698619Y-68237104D01*
X188698613Y-68237106D01*
X188534736Y-68304985D01*
X188534733Y-68304986D01*
X188534733Y-68304987D01*
X188421687Y-68380523D01*
X188387238Y-68403541D01*
X188261821Y-68528958D01*
X188163265Y-68676456D01*
X188095386Y-68840333D01*
X188095384Y-68840339D01*
X188060780Y-69014309D01*
X174558631Y-69014309D01*
X174572280Y-68945691D01*
X174572280Y-68768309D01*
X174537674Y-68594334D01*
X174469793Y-68430453D01*
X174371244Y-68282965D01*
X174371240Y-68282961D01*
X174371238Y-68282958D01*
X174245821Y-68157541D01*
X174245817Y-68157538D01*
X174245815Y-68157536D01*
X174098327Y-68058987D01*
X174098324Y-68058985D01*
X174098323Y-68058985D01*
X173985471Y-68012241D01*
X173926680Y-67964865D01*
X173902835Y-67893224D01*
X173905324Y-67862305D01*
X173923735Y-67769750D01*
X173923735Y-67592368D01*
X173889129Y-67418393D01*
X173821248Y-67254512D01*
X173722699Y-67107024D01*
X173722695Y-67107020D01*
X173722693Y-67107017D01*
X173597276Y-66981600D01*
X173597272Y-66981597D01*
X173597270Y-66981595D01*
X173449782Y-66883046D01*
X173449779Y-66883044D01*
X173449778Y-66883044D01*
X173285901Y-66815165D01*
X173285895Y-66815163D01*
X173146343Y-66787405D01*
X173111926Y-66780559D01*
X172934544Y-66780559D01*
X172905811Y-66786274D01*
X172760574Y-66815163D01*
X172760568Y-66815165D01*
X172596691Y-66883044D01*
X172449193Y-66981600D01*
X172323776Y-67107017D01*
X172225220Y-67254515D01*
X172157341Y-67418392D01*
X172157339Y-67418398D01*
X172122735Y-67592368D01*
X158783976Y-67592368D01*
X158751863Y-67389613D01*
X158751861Y-67389605D01*
X158687390Y-67191187D01*
X158687389Y-67191186D01*
X158687389Y-67191184D01*
X158637325Y-67092928D01*
X158592672Y-67005289D01*
X158575457Y-66981595D01*
X158470035Y-66836495D01*
X158470032Y-66836492D01*
X158470030Y-66836489D01*
X158335415Y-66701874D01*
X158299229Y-66635606D01*
X158304616Y-66560294D01*
X158339040Y-66514309D01*
X187060780Y-66514309D01*
X187060780Y-66691690D01*
X187095384Y-66865660D01*
X187095386Y-66865666D01*
X187163267Y-67029547D01*
X187261816Y-67177035D01*
X187261818Y-67177037D01*
X187261821Y-67177041D01*
X187387238Y-67302458D01*
X187387241Y-67302460D01*
X187387245Y-67302464D01*
X187534733Y-67401013D01*
X187698614Y-67468894D01*
X187872589Y-67503500D01*
X187872590Y-67503500D01*
X188049970Y-67503500D01*
X188049971Y-67503500D01*
X188223946Y-67468894D01*
X188387827Y-67401013D01*
X188535315Y-67302464D01*
X188660744Y-67177035D01*
X188759293Y-67029547D01*
X188827174Y-66865666D01*
X188861780Y-66691691D01*
X188861780Y-66514309D01*
X188827174Y-66340334D01*
X188759293Y-66176453D01*
X188660744Y-66028965D01*
X188660740Y-66028961D01*
X188660738Y-66028958D01*
X188535321Y-65903541D01*
X188535317Y-65903538D01*
X188535315Y-65903536D01*
X188387827Y-65804987D01*
X188387824Y-65804985D01*
X188387823Y-65804985D01*
X188223946Y-65737106D01*
X188223940Y-65737104D01*
X188084388Y-65709346D01*
X188049971Y-65702500D01*
X187872589Y-65702500D01*
X187843856Y-65708215D01*
X187698619Y-65737104D01*
X187698613Y-65737106D01*
X187534736Y-65804985D01*
X187387238Y-65903541D01*
X187261821Y-66028958D01*
X187261816Y-66028964D01*
X187261816Y-66028965D01*
X187219445Y-66092378D01*
X187163265Y-66176456D01*
X187095386Y-66340333D01*
X187095384Y-66340339D01*
X187060780Y-66514309D01*
X158339040Y-66514309D01*
X158349864Y-66499849D01*
X158373610Y-66485642D01*
X158574494Y-66392116D01*
X158641189Y-66342189D01*
X158727353Y-66227088D01*
X158777597Y-66092378D01*
X158784000Y-66032830D01*
X158784000Y-65410000D01*
X157949748Y-65410000D01*
X157971518Y-65372292D01*
X158009000Y-65232409D01*
X158009000Y-65087591D01*
X157971518Y-64947708D01*
X157949748Y-64910000D01*
X158784000Y-64910000D01*
X158784000Y-64514309D01*
X186060780Y-64514309D01*
X186060780Y-64691690D01*
X186095384Y-64865660D01*
X186095386Y-64865666D01*
X186129368Y-64947708D01*
X186163267Y-65029547D01*
X186261816Y-65177035D01*
X186261818Y-65177037D01*
X186261821Y-65177041D01*
X186387238Y-65302458D01*
X186387241Y-65302460D01*
X186387245Y-65302464D01*
X186534733Y-65401013D01*
X186698614Y-65468894D01*
X186872589Y-65503500D01*
X186872590Y-65503500D01*
X187049970Y-65503500D01*
X187049971Y-65503500D01*
X187223946Y-65468894D01*
X187387827Y-65401013D01*
X187535315Y-65302464D01*
X187660744Y-65177035D01*
X187759293Y-65029547D01*
X187827174Y-64865666D01*
X187861780Y-64691691D01*
X187861780Y-64514309D01*
X187827174Y-64340334D01*
X187759293Y-64176453D01*
X187660744Y-64028965D01*
X187660740Y-64028961D01*
X187660738Y-64028958D01*
X187535321Y-63903541D01*
X187535317Y-63903538D01*
X187535315Y-63903536D01*
X187387827Y-63804987D01*
X187387824Y-63804985D01*
X187387823Y-63804985D01*
X187223946Y-63737106D01*
X187223940Y-63737104D01*
X187084388Y-63709346D01*
X187049971Y-63702500D01*
X186872589Y-63702500D01*
X186843856Y-63708215D01*
X186698619Y-63737104D01*
X186698613Y-63737106D01*
X186534736Y-63804985D01*
X186534733Y-63804986D01*
X186534733Y-63804987D01*
X186480235Y-63841402D01*
X186387238Y-63903541D01*
X186261821Y-64028958D01*
X186261816Y-64028964D01*
X186261816Y-64028965D01*
X186163267Y-64176453D01*
X186163265Y-64176456D01*
X186095386Y-64340333D01*
X186095384Y-64340339D01*
X186060780Y-64514309D01*
X158784000Y-64514309D01*
X158784000Y-64287169D01*
X158777597Y-64227621D01*
X158727353Y-64092911D01*
X158641189Y-63977810D01*
X158526088Y-63891646D01*
X158391378Y-63841402D01*
X158331831Y-63835000D01*
X157709000Y-63835000D01*
X157709000Y-64669252D01*
X157671292Y-64647482D01*
X157531409Y-64610000D01*
X157386591Y-64610000D01*
X157246708Y-64647482D01*
X157209000Y-64669252D01*
X157209000Y-63835000D01*
X156586169Y-63835000D01*
X156526621Y-63841402D01*
X156391911Y-63891646D01*
X156276810Y-63977810D01*
X156190646Y-64092911D01*
X156140402Y-64227621D01*
X156134000Y-64287169D01*
X156134000Y-64910000D01*
X156968252Y-64910000D01*
X156946482Y-64947708D01*
X156909000Y-65087591D01*
X156909000Y-65232409D01*
X156946482Y-65372292D01*
X156968252Y-65410000D01*
X156134000Y-65410000D01*
X156134000Y-66032830D01*
X156140402Y-66092378D01*
X156190646Y-66227088D01*
X156276810Y-66342189D01*
X156391911Y-66428353D01*
X156534478Y-66481528D01*
X156533185Y-66484992D01*
X156584257Y-66514072D01*
X156619256Y-66580975D01*
X156612529Y-66656179D01*
X156582585Y-66701874D01*
X156447967Y-66836492D01*
X156325327Y-67005289D01*
X156230609Y-67191187D01*
X156166138Y-67389605D01*
X156166136Y-67389613D01*
X156133500Y-67595677D01*
X148084499Y-67595677D01*
X148069900Y-67503500D01*
X148051863Y-67389613D01*
X148051861Y-67389605D01*
X147987390Y-67191187D01*
X147987389Y-67191186D01*
X147987389Y-67191184D01*
X147937325Y-67092928D01*
X147892672Y-67005289D01*
X147875457Y-66981595D01*
X147770035Y-66836495D01*
X147770032Y-66836492D01*
X147770030Y-66836489D01*
X147635415Y-66701874D01*
X147599229Y-66635606D01*
X147604616Y-66560294D01*
X147649864Y-66499849D01*
X147684351Y-66483752D01*
X147683522Y-66481528D01*
X147826088Y-66428353D01*
X147941189Y-66342189D01*
X148027353Y-66227088D01*
X148077597Y-66092378D01*
X148084000Y-66032830D01*
X148084000Y-65410000D01*
X147249748Y-65410000D01*
X147271518Y-65372292D01*
X147309000Y-65232409D01*
X147309000Y-65087591D01*
X147271518Y-64947708D01*
X147249748Y-64910000D01*
X148084000Y-64910000D01*
X148084000Y-64287169D01*
X148077597Y-64227621D01*
X148027353Y-64092911D01*
X147941189Y-63977810D01*
X147826088Y-63891646D01*
X147691378Y-63841402D01*
X147631831Y-63835000D01*
X147009000Y-63835000D01*
X147009000Y-64669252D01*
X146971292Y-64647482D01*
X146831409Y-64610000D01*
X146686591Y-64610000D01*
X146546708Y-64647482D01*
X146509000Y-64669252D01*
X146509000Y-63835000D01*
X145886169Y-63835000D01*
X145826621Y-63841402D01*
X145691911Y-63891646D01*
X145576810Y-63977810D01*
X145490646Y-64092911D01*
X145440402Y-64227621D01*
X145434000Y-64287169D01*
X145434000Y-64910000D01*
X146268252Y-64910000D01*
X146246482Y-64947708D01*
X146209000Y-65087591D01*
X146209000Y-65232409D01*
X146246482Y-65372292D01*
X146268252Y-65410000D01*
X145434000Y-65410000D01*
X145434000Y-66032830D01*
X145440402Y-66092378D01*
X145490646Y-66227088D01*
X145576810Y-66342189D01*
X145691911Y-66428353D01*
X145834478Y-66481528D01*
X145833185Y-66484992D01*
X145884257Y-66514072D01*
X145919256Y-66580975D01*
X145912529Y-66656179D01*
X145882585Y-66701874D01*
X145747967Y-66836492D01*
X145625327Y-67005289D01*
X145530609Y-67191187D01*
X145466138Y-67389605D01*
X145466136Y-67389613D01*
X145433500Y-67595677D01*
X137384499Y-67595677D01*
X137369900Y-67503500D01*
X137351863Y-67389613D01*
X137351861Y-67389605D01*
X137287390Y-67191187D01*
X137287389Y-67191186D01*
X137287389Y-67191184D01*
X137237325Y-67092928D01*
X137192672Y-67005289D01*
X137175457Y-66981595D01*
X137070035Y-66836495D01*
X137070032Y-66836492D01*
X137070030Y-66836489D01*
X136935415Y-66701874D01*
X136899229Y-66635606D01*
X136904616Y-66560294D01*
X136949864Y-66499849D01*
X136984351Y-66483752D01*
X136983522Y-66481528D01*
X137126088Y-66428353D01*
X137241189Y-66342189D01*
X137327353Y-66227088D01*
X137377597Y-66092378D01*
X137384000Y-66032830D01*
X137384000Y-65410000D01*
X136549748Y-65410000D01*
X136571518Y-65372292D01*
X136609000Y-65232409D01*
X136609000Y-65087591D01*
X136571518Y-64947708D01*
X136549748Y-64910000D01*
X137384000Y-64910000D01*
X137384000Y-64287169D01*
X137377597Y-64227621D01*
X137327353Y-64092911D01*
X137241189Y-63977810D01*
X137126088Y-63891646D01*
X136991378Y-63841402D01*
X136931831Y-63835000D01*
X136309000Y-63835000D01*
X136309000Y-64669252D01*
X136271292Y-64647482D01*
X136131409Y-64610000D01*
X135986591Y-64610000D01*
X135846708Y-64647482D01*
X135809000Y-64669252D01*
X135809000Y-63835000D01*
X135186169Y-63835000D01*
X135126621Y-63841402D01*
X134991911Y-63891646D01*
X134876810Y-63977810D01*
X134790646Y-64092911D01*
X134740402Y-64227621D01*
X134734000Y-64287169D01*
X134734000Y-64910000D01*
X135568252Y-64910000D01*
X135546482Y-64947708D01*
X135509000Y-65087591D01*
X135509000Y-65232409D01*
X135546482Y-65372292D01*
X135568252Y-65410000D01*
X134734000Y-65410000D01*
X134734000Y-66032830D01*
X134740402Y-66092378D01*
X134790646Y-66227088D01*
X134876810Y-66342189D01*
X134991911Y-66428353D01*
X135134478Y-66481528D01*
X135133185Y-66484992D01*
X135184257Y-66514072D01*
X135219256Y-66580975D01*
X135212529Y-66656179D01*
X135182585Y-66701874D01*
X135047967Y-66836492D01*
X134925327Y-67005289D01*
X134830609Y-67191187D01*
X134766138Y-67389605D01*
X134766136Y-67389613D01*
X134733500Y-67595677D01*
X126684499Y-67595677D01*
X126669900Y-67503500D01*
X126651863Y-67389613D01*
X126651861Y-67389605D01*
X126587390Y-67191187D01*
X126587389Y-67191186D01*
X126587389Y-67191184D01*
X126537325Y-67092928D01*
X126492672Y-67005289D01*
X126475457Y-66981595D01*
X126370035Y-66836495D01*
X126370032Y-66836492D01*
X126370030Y-66836489D01*
X126235415Y-66701874D01*
X126199229Y-66635606D01*
X126204616Y-66560294D01*
X126249864Y-66499849D01*
X126284351Y-66483752D01*
X126283522Y-66481528D01*
X126426088Y-66428353D01*
X126541189Y-66342189D01*
X126627353Y-66227088D01*
X126677597Y-66092378D01*
X126684000Y-66032830D01*
X126684000Y-65410000D01*
X125849748Y-65410000D01*
X125871518Y-65372292D01*
X125909000Y-65232409D01*
X125909000Y-65087591D01*
X125871518Y-64947708D01*
X125849748Y-64910000D01*
X126684000Y-64910000D01*
X126684000Y-64287169D01*
X126677597Y-64227621D01*
X126627353Y-64092911D01*
X126541189Y-63977810D01*
X126426088Y-63891646D01*
X126291378Y-63841402D01*
X126231831Y-63835000D01*
X125609000Y-63835000D01*
X125609000Y-64669252D01*
X125571292Y-64647482D01*
X125431409Y-64610000D01*
X125286591Y-64610000D01*
X125146708Y-64647482D01*
X125109000Y-64669252D01*
X125109000Y-63835000D01*
X124486169Y-63835000D01*
X124426621Y-63841402D01*
X124291911Y-63891646D01*
X124176810Y-63977810D01*
X124090646Y-64092911D01*
X124040402Y-64227621D01*
X124034000Y-64287169D01*
X124034000Y-64910000D01*
X124868252Y-64910000D01*
X124846482Y-64947708D01*
X124809000Y-65087591D01*
X124809000Y-65232409D01*
X124846482Y-65372292D01*
X124868252Y-65410000D01*
X124034000Y-65410000D01*
X124034000Y-66032830D01*
X124040402Y-66092378D01*
X124090646Y-66227088D01*
X124176810Y-66342189D01*
X124291911Y-66428353D01*
X124434478Y-66481528D01*
X124433185Y-66484992D01*
X124484257Y-66514072D01*
X124519256Y-66580975D01*
X124512529Y-66656179D01*
X124482585Y-66701874D01*
X124347967Y-66836492D01*
X124225327Y-67005289D01*
X124130609Y-67191187D01*
X124066138Y-67389605D01*
X124066136Y-67389613D01*
X124033500Y-67595677D01*
X115984499Y-67595677D01*
X115969900Y-67503500D01*
X115951863Y-67389613D01*
X115951861Y-67389605D01*
X115887390Y-67191187D01*
X115887389Y-67191186D01*
X115887389Y-67191184D01*
X115837325Y-67092928D01*
X115792672Y-67005289D01*
X115775457Y-66981595D01*
X115670035Y-66836495D01*
X115670032Y-66836492D01*
X115670030Y-66836489D01*
X115535415Y-66701874D01*
X115499229Y-66635606D01*
X115504616Y-66560294D01*
X115549864Y-66499849D01*
X115584351Y-66483752D01*
X115583522Y-66481528D01*
X115726088Y-66428353D01*
X115841189Y-66342189D01*
X115927353Y-66227088D01*
X115977597Y-66092378D01*
X115984000Y-66032830D01*
X115984000Y-65410000D01*
X115149748Y-65410000D01*
X115171518Y-65372292D01*
X115209000Y-65232409D01*
X115209000Y-65087591D01*
X115171518Y-64947708D01*
X115149748Y-64910000D01*
X115984000Y-64910000D01*
X115984000Y-64287169D01*
X115977597Y-64227621D01*
X115927353Y-64092911D01*
X115841189Y-63977810D01*
X115726088Y-63891646D01*
X115591378Y-63841402D01*
X115531831Y-63835000D01*
X114909000Y-63835000D01*
X114909000Y-64669252D01*
X114871292Y-64647482D01*
X114731409Y-64610000D01*
X114586591Y-64610000D01*
X114446708Y-64647482D01*
X114409000Y-64669252D01*
X114409000Y-63835000D01*
X113786169Y-63835000D01*
X113726621Y-63841402D01*
X113591911Y-63891646D01*
X113476810Y-63977810D01*
X113390646Y-64092911D01*
X113340402Y-64227621D01*
X113334000Y-64287169D01*
X113334000Y-64910000D01*
X114168252Y-64910000D01*
X114146482Y-64947708D01*
X114109000Y-65087591D01*
X114109000Y-65232409D01*
X114146482Y-65372292D01*
X114168252Y-65410000D01*
X113334000Y-65410000D01*
X113334000Y-66032830D01*
X113340402Y-66092378D01*
X113390646Y-66227088D01*
X113476810Y-66342189D01*
X113591911Y-66428353D01*
X113734478Y-66481528D01*
X113733185Y-66484992D01*
X113784257Y-66514072D01*
X113819256Y-66580975D01*
X113812529Y-66656179D01*
X113782585Y-66701874D01*
X113647967Y-66836492D01*
X113525327Y-67005289D01*
X113430609Y-67191187D01*
X113366138Y-67389605D01*
X113366136Y-67389613D01*
X113333500Y-67595677D01*
X109500500Y-67595677D01*
X109500500Y-57898993D01*
X114649500Y-57898993D01*
X114649500Y-58101006D01*
X114688907Y-58299121D01*
X114688908Y-58299126D01*
X114766213Y-58485755D01*
X114878438Y-58653714D01*
X115021285Y-58796561D01*
X115189244Y-58908786D01*
X115375873Y-58986091D01*
X115375878Y-58986092D01*
X115573994Y-59025500D01*
X115573997Y-59025500D01*
X115776006Y-59025500D01*
X115925616Y-58995740D01*
X115974127Y-58986091D01*
X116160756Y-58908786D01*
X116328718Y-58796558D01*
X116471558Y-58653718D01*
X116583786Y-58485756D01*
X116661091Y-58299127D01*
X116670740Y-58250616D01*
X116700500Y-58101006D01*
X116700500Y-57898993D01*
X125349500Y-57898993D01*
X125349500Y-58101006D01*
X125388907Y-58299121D01*
X125388908Y-58299126D01*
X125466213Y-58485755D01*
X125578438Y-58653714D01*
X125721285Y-58796561D01*
X125889244Y-58908786D01*
X126075873Y-58986091D01*
X126075878Y-58986092D01*
X126273994Y-59025500D01*
X126273997Y-59025500D01*
X126476006Y-59025500D01*
X126625616Y-58995740D01*
X126674127Y-58986091D01*
X126860756Y-58908786D01*
X127028718Y-58796558D01*
X127171558Y-58653718D01*
X127283786Y-58485756D01*
X127361091Y-58299127D01*
X127370740Y-58250616D01*
X127400500Y-58101006D01*
X127400500Y-57898993D01*
X136049500Y-57898993D01*
X136049500Y-58101006D01*
X136088907Y-58299121D01*
X136088908Y-58299126D01*
X136166213Y-58485755D01*
X136278438Y-58653714D01*
X136421285Y-58796561D01*
X136589244Y-58908786D01*
X136775873Y-58986091D01*
X136775878Y-58986092D01*
X136973994Y-59025500D01*
X136973997Y-59025500D01*
X137176006Y-59025500D01*
X137325616Y-58995740D01*
X137374127Y-58986091D01*
X137560756Y-58908786D01*
X137728718Y-58796558D01*
X137871558Y-58653718D01*
X137983786Y-58485756D01*
X138061091Y-58299127D01*
X138070740Y-58250616D01*
X138100500Y-58101006D01*
X138100500Y-57898993D01*
X146749500Y-57898993D01*
X146749500Y-58101006D01*
X146788907Y-58299121D01*
X146788908Y-58299126D01*
X146866213Y-58485755D01*
X146978438Y-58653714D01*
X147121285Y-58796561D01*
X147289244Y-58908786D01*
X147475873Y-58986091D01*
X147475878Y-58986092D01*
X147673994Y-59025500D01*
X147673997Y-59025500D01*
X147876006Y-59025500D01*
X148025616Y-58995740D01*
X148074127Y-58986091D01*
X148260756Y-58908786D01*
X148428718Y-58796558D01*
X148571558Y-58653718D01*
X148683786Y-58485756D01*
X148761091Y-58299127D01*
X148770740Y-58250616D01*
X148800500Y-58101006D01*
X148800500Y-57898993D01*
X157449500Y-57898993D01*
X157449500Y-58101006D01*
X157488907Y-58299121D01*
X157488908Y-58299126D01*
X157566213Y-58485755D01*
X157678438Y-58653714D01*
X157821285Y-58796561D01*
X157989244Y-58908786D01*
X158175873Y-58986091D01*
X158175878Y-58986092D01*
X158373994Y-59025500D01*
X158373997Y-59025500D01*
X158576006Y-59025500D01*
X158725616Y-58995740D01*
X158774127Y-58986091D01*
X158960756Y-58908786D01*
X159128718Y-58796558D01*
X159271558Y-58653718D01*
X159383786Y-58485756D01*
X159461091Y-58299127D01*
X159470740Y-58250616D01*
X159500500Y-58101006D01*
X159500500Y-57898993D01*
X159461092Y-57700878D01*
X159461091Y-57700873D01*
X159383786Y-57514244D01*
X159271561Y-57346285D01*
X159128714Y-57203438D01*
X158960755Y-57091213D01*
X158774126Y-57013908D01*
X158774121Y-57013907D01*
X158576006Y-56974500D01*
X158576003Y-56974500D01*
X158373997Y-56974500D01*
X158373994Y-56974500D01*
X158175878Y-57013907D01*
X158175873Y-57013908D01*
X157989244Y-57091213D01*
X157821285Y-57203438D01*
X157678438Y-57346285D01*
X157566213Y-57514244D01*
X157488908Y-57700873D01*
X157488907Y-57700878D01*
X157449500Y-57898993D01*
X148800500Y-57898993D01*
X148761092Y-57700878D01*
X148761091Y-57700873D01*
X148683786Y-57514244D01*
X148571561Y-57346285D01*
X148428714Y-57203438D01*
X148260755Y-57091213D01*
X148074126Y-57013908D01*
X148074121Y-57013907D01*
X147876006Y-56974500D01*
X147876003Y-56974500D01*
X147673997Y-56974500D01*
X147673994Y-56974500D01*
X147475878Y-57013907D01*
X147475873Y-57013908D01*
X147289244Y-57091213D01*
X147121285Y-57203438D01*
X146978438Y-57346285D01*
X146866213Y-57514244D01*
X146788908Y-57700873D01*
X146788907Y-57700878D01*
X146749500Y-57898993D01*
X138100500Y-57898993D01*
X138061092Y-57700878D01*
X138061091Y-57700873D01*
X137983786Y-57514244D01*
X137871561Y-57346285D01*
X137728714Y-57203438D01*
X137560755Y-57091213D01*
X137374126Y-57013908D01*
X137374121Y-57013907D01*
X137176006Y-56974500D01*
X137176003Y-56974500D01*
X136973997Y-56974500D01*
X136973994Y-56974500D01*
X136775878Y-57013907D01*
X136775873Y-57013908D01*
X136589244Y-57091213D01*
X136421285Y-57203438D01*
X136278438Y-57346285D01*
X136166213Y-57514244D01*
X136088908Y-57700873D01*
X136088907Y-57700878D01*
X136049500Y-57898993D01*
X127400500Y-57898993D01*
X127361092Y-57700878D01*
X127361091Y-57700873D01*
X127283786Y-57514244D01*
X127171561Y-57346285D01*
X127028714Y-57203438D01*
X126860755Y-57091213D01*
X126674126Y-57013908D01*
X126674121Y-57013907D01*
X126476006Y-56974500D01*
X126476003Y-56974500D01*
X126273997Y-56974500D01*
X126273994Y-56974500D01*
X126075878Y-57013907D01*
X126075873Y-57013908D01*
X125889244Y-57091213D01*
X125721285Y-57203438D01*
X125578438Y-57346285D01*
X125466213Y-57514244D01*
X125388908Y-57700873D01*
X125388907Y-57700878D01*
X125349500Y-57898993D01*
X116700500Y-57898993D01*
X116661092Y-57700878D01*
X116661091Y-57700873D01*
X116583786Y-57514244D01*
X116471561Y-57346285D01*
X116328714Y-57203438D01*
X116160755Y-57091213D01*
X115974126Y-57013908D01*
X115974121Y-57013907D01*
X115776006Y-56974500D01*
X115776003Y-56974500D01*
X115573997Y-56974500D01*
X115573994Y-56974500D01*
X115375878Y-57013907D01*
X115375873Y-57013908D01*
X115189244Y-57091213D01*
X115021285Y-57203438D01*
X114878438Y-57346285D01*
X114766213Y-57514244D01*
X114688908Y-57700873D01*
X114688907Y-57700878D01*
X114649500Y-57898993D01*
X109500500Y-57898993D01*
X109500500Y-51898993D01*
X114649500Y-51898993D01*
X114649500Y-52101006D01*
X114688907Y-52299121D01*
X114688908Y-52299126D01*
X114766213Y-52485755D01*
X114878438Y-52653714D01*
X115021285Y-52796561D01*
X115189244Y-52908786D01*
X115375873Y-52986091D01*
X115375878Y-52986092D01*
X115573994Y-53025500D01*
X115573997Y-53025500D01*
X115776006Y-53025500D01*
X115925616Y-52995740D01*
X115974127Y-52986091D01*
X116160756Y-52908786D01*
X116328718Y-52796558D01*
X116471558Y-52653718D01*
X116583786Y-52485756D01*
X116661091Y-52299127D01*
X116670740Y-52250616D01*
X116700500Y-52101006D01*
X116700500Y-51898993D01*
X116661092Y-51700878D01*
X116661091Y-51700873D01*
X116583786Y-51514244D01*
X116471561Y-51346285D01*
X116328714Y-51203438D01*
X116163693Y-51093176D01*
X116163672Y-51093162D01*
X116160756Y-51091214D01*
X116160753Y-51091212D01*
X116160752Y-51091212D01*
X115974126Y-51013908D01*
X115974121Y-51013907D01*
X115845429Y-50988309D01*
X118960780Y-50988309D01*
X118960780Y-51165690D01*
X118995384Y-51339660D01*
X118995386Y-51339666D01*
X119063267Y-51503547D01*
X119161816Y-51651035D01*
X119161818Y-51651037D01*
X119161821Y-51651041D01*
X119287238Y-51776458D01*
X119287241Y-51776460D01*
X119287245Y-51776464D01*
X119434733Y-51875013D01*
X119598614Y-51942894D01*
X119772589Y-51977500D01*
X119772590Y-51977500D01*
X119949970Y-51977500D01*
X119949971Y-51977500D01*
X120123946Y-51942894D01*
X120229934Y-51898993D01*
X125349500Y-51898993D01*
X125349500Y-52101006D01*
X125388907Y-52299121D01*
X125388908Y-52299126D01*
X125466213Y-52485755D01*
X125578438Y-52653714D01*
X125721285Y-52796561D01*
X125889244Y-52908786D01*
X126075873Y-52986091D01*
X126075878Y-52986092D01*
X126273994Y-53025500D01*
X126273997Y-53025500D01*
X126476006Y-53025500D01*
X126625616Y-52995740D01*
X126674127Y-52986091D01*
X126860756Y-52908786D01*
X127028718Y-52796558D01*
X127171558Y-52653718D01*
X127283786Y-52485756D01*
X127361091Y-52299127D01*
X127370740Y-52250616D01*
X127400500Y-52101006D01*
X127400500Y-51898993D01*
X136049500Y-51898993D01*
X136049500Y-52101006D01*
X136088907Y-52299121D01*
X136088908Y-52299126D01*
X136166213Y-52485755D01*
X136278438Y-52653714D01*
X136421285Y-52796561D01*
X136589244Y-52908786D01*
X136775873Y-52986091D01*
X136775878Y-52986092D01*
X136973994Y-53025500D01*
X136973997Y-53025500D01*
X137176006Y-53025500D01*
X137325616Y-52995740D01*
X137374127Y-52986091D01*
X137560756Y-52908786D01*
X137728718Y-52796558D01*
X137871558Y-52653718D01*
X137983786Y-52485756D01*
X138061091Y-52299127D01*
X138070740Y-52250616D01*
X138100500Y-52101006D01*
X138100500Y-51898993D01*
X146749500Y-51898993D01*
X146749500Y-52101006D01*
X146788907Y-52299121D01*
X146788908Y-52299126D01*
X146866213Y-52485755D01*
X146978438Y-52653714D01*
X147121285Y-52796561D01*
X147289244Y-52908786D01*
X147475873Y-52986091D01*
X147475878Y-52986092D01*
X147673994Y-53025500D01*
X147673997Y-53025500D01*
X147876006Y-53025500D01*
X148025616Y-52995740D01*
X148074127Y-52986091D01*
X148260756Y-52908786D01*
X148428718Y-52796558D01*
X148571558Y-52653718D01*
X148683786Y-52485756D01*
X148761091Y-52299127D01*
X148770740Y-52250616D01*
X148800500Y-52101006D01*
X148800500Y-51898993D01*
X157449500Y-51898993D01*
X157449500Y-52101006D01*
X157488907Y-52299121D01*
X157488908Y-52299126D01*
X157566213Y-52485755D01*
X157678438Y-52653714D01*
X157821285Y-52796561D01*
X157989244Y-52908786D01*
X158175873Y-52986091D01*
X158175878Y-52986092D01*
X158373994Y-53025500D01*
X158373997Y-53025500D01*
X158576006Y-53025500D01*
X158725616Y-52995740D01*
X158774127Y-52986091D01*
X158960756Y-52908786D01*
X159128718Y-52796558D01*
X159271558Y-52653718D01*
X159383786Y-52485756D01*
X159461091Y-52299127D01*
X159470740Y-52250616D01*
X159500500Y-52101006D01*
X159500500Y-51898993D01*
X159461092Y-51700878D01*
X159461091Y-51700873D01*
X159383786Y-51514244D01*
X159271561Y-51346285D01*
X159128714Y-51203438D01*
X158960755Y-51091213D01*
X158774126Y-51013908D01*
X158774121Y-51013907D01*
X158576006Y-50974500D01*
X158576003Y-50974500D01*
X158373997Y-50974500D01*
X158373994Y-50974500D01*
X158175878Y-51013907D01*
X158175873Y-51013908D01*
X157989244Y-51091213D01*
X157821285Y-51203438D01*
X157678438Y-51346285D01*
X157566213Y-51514244D01*
X157488908Y-51700873D01*
X157488907Y-51700878D01*
X157449500Y-51898993D01*
X148800500Y-51898993D01*
X148761092Y-51700878D01*
X148761091Y-51700873D01*
X148683786Y-51514244D01*
X148571561Y-51346285D01*
X148428714Y-51203438D01*
X148260755Y-51091213D01*
X148074126Y-51013908D01*
X148074121Y-51013907D01*
X147876006Y-50974500D01*
X147876003Y-50974500D01*
X147673997Y-50974500D01*
X147673994Y-50974500D01*
X147475878Y-51013907D01*
X147475873Y-51013908D01*
X147289244Y-51091213D01*
X147121285Y-51203438D01*
X146978438Y-51346285D01*
X146866213Y-51514244D01*
X146788908Y-51700873D01*
X146788907Y-51700878D01*
X146749500Y-51898993D01*
X138100500Y-51898993D01*
X138061092Y-51700878D01*
X138061091Y-51700873D01*
X137983786Y-51514244D01*
X137871561Y-51346285D01*
X137728714Y-51203438D01*
X137560755Y-51091213D01*
X137374126Y-51013908D01*
X137374121Y-51013907D01*
X137176006Y-50974500D01*
X137176003Y-50974500D01*
X136973997Y-50974500D01*
X136973994Y-50974500D01*
X136775878Y-51013907D01*
X136775873Y-51013908D01*
X136589244Y-51091213D01*
X136421285Y-51203438D01*
X136278438Y-51346285D01*
X136166213Y-51514244D01*
X136088908Y-51700873D01*
X136088907Y-51700878D01*
X136049500Y-51898993D01*
X127400500Y-51898993D01*
X127361092Y-51700878D01*
X127361091Y-51700873D01*
X127283786Y-51514244D01*
X127171561Y-51346285D01*
X127028714Y-51203438D01*
X126860755Y-51091213D01*
X126674126Y-51013908D01*
X126674121Y-51013907D01*
X126476006Y-50974500D01*
X126476003Y-50974500D01*
X126273997Y-50974500D01*
X126273994Y-50974500D01*
X126075878Y-51013907D01*
X126075873Y-51013908D01*
X125889244Y-51091213D01*
X125721285Y-51203438D01*
X125578438Y-51346285D01*
X125466213Y-51514244D01*
X125388908Y-51700873D01*
X125388907Y-51700878D01*
X125349500Y-51898993D01*
X120229934Y-51898993D01*
X120287827Y-51875013D01*
X120435315Y-51776464D01*
X120435320Y-51776459D01*
X120435321Y-51776459D01*
X120560738Y-51651041D01*
X120560744Y-51651035D01*
X120659293Y-51503547D01*
X120727174Y-51339666D01*
X120761780Y-51165691D01*
X120761780Y-50988309D01*
X120727174Y-50814334D01*
X120659293Y-50650453D01*
X120560744Y-50502965D01*
X120560740Y-50502961D01*
X120560738Y-50502958D01*
X120435321Y-50377541D01*
X120435317Y-50377538D01*
X120435315Y-50377536D01*
X120287827Y-50278987D01*
X120287824Y-50278985D01*
X120287823Y-50278985D01*
X120123946Y-50211106D01*
X120123940Y-50211104D01*
X119984388Y-50183346D01*
X119949971Y-50176500D01*
X119772589Y-50176500D01*
X119743856Y-50182215D01*
X119598619Y-50211104D01*
X119598613Y-50211106D01*
X119434736Y-50278985D01*
X119287238Y-50377541D01*
X119161821Y-50502958D01*
X119161816Y-50502964D01*
X119161816Y-50502965D01*
X119095948Y-50601543D01*
X119063265Y-50650456D01*
X118995386Y-50814333D01*
X118995384Y-50814339D01*
X118960780Y-50988309D01*
X115845429Y-50988309D01*
X115776006Y-50974500D01*
X115776003Y-50974500D01*
X115573997Y-50974500D01*
X115573994Y-50974500D01*
X115375878Y-51013907D01*
X115375873Y-51013908D01*
X115189244Y-51091213D01*
X115021285Y-51203438D01*
X114878438Y-51346285D01*
X114766213Y-51514244D01*
X114688908Y-51700873D01*
X114688907Y-51700878D01*
X114649500Y-51898993D01*
X109500500Y-51898993D01*
X109500500Y-50014309D01*
X111560780Y-50014309D01*
X111560780Y-50191690D01*
X111595384Y-50365660D01*
X111595386Y-50365666D01*
X111652253Y-50502958D01*
X111663267Y-50529547D01*
X111761816Y-50677035D01*
X111761818Y-50677037D01*
X111761821Y-50677041D01*
X111887238Y-50802458D01*
X111887241Y-50802460D01*
X111887245Y-50802464D01*
X112034733Y-50901013D01*
X112198614Y-50968894D01*
X112372589Y-51003500D01*
X112372590Y-51003500D01*
X112549970Y-51003500D01*
X112549971Y-51003500D01*
X112723946Y-50968894D01*
X112887827Y-50901013D01*
X113035315Y-50802464D01*
X113160744Y-50677035D01*
X113259293Y-50529547D01*
X113327174Y-50365666D01*
X113361780Y-50191691D01*
X113361780Y-50086309D01*
X122262780Y-50086309D01*
X122262780Y-50263690D01*
X122297384Y-50437660D01*
X122297386Y-50437666D01*
X122324430Y-50502958D01*
X122365267Y-50601547D01*
X122463816Y-50749035D01*
X122463818Y-50749037D01*
X122463821Y-50749041D01*
X122589238Y-50874458D01*
X122589241Y-50874460D01*
X122589245Y-50874464D01*
X122736733Y-50973013D01*
X122900614Y-51040894D01*
X123074589Y-51075500D01*
X123074590Y-51075500D01*
X123251970Y-51075500D01*
X123251971Y-51075500D01*
X123425946Y-51040894D01*
X123589827Y-50973013D01*
X123737315Y-50874464D01*
X123862744Y-50749035D01*
X123961293Y-50601547D01*
X124029174Y-50437666D01*
X124063780Y-50263691D01*
X124063780Y-50086309D01*
X124029174Y-49912334D01*
X123961293Y-49748453D01*
X123862744Y-49600965D01*
X123862740Y-49600961D01*
X123862738Y-49600958D01*
X123737321Y-49475541D01*
X123737317Y-49475538D01*
X123737315Y-49475536D01*
X123589827Y-49376987D01*
X123589824Y-49376985D01*
X123589823Y-49376985D01*
X123425946Y-49309106D01*
X123425940Y-49309104D01*
X123286388Y-49281346D01*
X123251971Y-49274500D01*
X123074589Y-49274500D01*
X123045856Y-49280215D01*
X122900619Y-49309104D01*
X122900613Y-49309106D01*
X122736736Y-49376985D01*
X122736733Y-49376986D01*
X122736733Y-49376987D01*
X122696993Y-49403541D01*
X122589238Y-49475541D01*
X122463821Y-49600958D01*
X122365265Y-49748456D01*
X122297386Y-49912333D01*
X122297384Y-49912339D01*
X122262780Y-50086309D01*
X113361780Y-50086309D01*
X113361780Y-50014309D01*
X113327174Y-49840334D01*
X113259293Y-49676453D01*
X113160744Y-49528965D01*
X113160740Y-49528961D01*
X113160738Y-49528958D01*
X113035321Y-49403541D01*
X113035317Y-49403538D01*
X113035315Y-49403536D01*
X112887827Y-49304987D01*
X112887824Y-49304985D01*
X112887823Y-49304985D01*
X112723946Y-49237106D01*
X112723940Y-49237104D01*
X112584388Y-49209346D01*
X112549971Y-49202500D01*
X112372589Y-49202500D01*
X112343856Y-49208215D01*
X112198619Y-49237104D01*
X112198613Y-49237106D01*
X112034736Y-49304985D01*
X111887238Y-49403541D01*
X111761821Y-49528958D01*
X111761816Y-49528964D01*
X111761816Y-49528965D01*
X111713707Y-49600965D01*
X111663265Y-49676456D01*
X111595386Y-49840333D01*
X111595384Y-49840339D01*
X111560780Y-50014309D01*
X109500500Y-50014309D01*
X109500500Y-47432309D01*
X124548780Y-47432309D01*
X124548780Y-47609690D01*
X124583384Y-47783660D01*
X124583386Y-47783666D01*
X124651267Y-47947547D01*
X124749816Y-48095035D01*
X124749818Y-48095037D01*
X124749821Y-48095041D01*
X124875238Y-48220458D01*
X124875241Y-48220460D01*
X124875245Y-48220464D01*
X125022733Y-48319013D01*
X125186614Y-48386894D01*
X125360589Y-48421500D01*
X125360590Y-48421500D01*
X125537970Y-48421500D01*
X125537971Y-48421500D01*
X125711946Y-48386894D01*
X125875827Y-48319013D01*
X126023315Y-48220464D01*
X126148744Y-48095035D01*
X126247293Y-47947547D01*
X126315174Y-47783666D01*
X126349780Y-47609691D01*
X126349780Y-47432309D01*
X126315174Y-47258334D01*
X126282027Y-47178309D01*
X129882780Y-47178309D01*
X129882780Y-47355690D01*
X129917384Y-47529660D01*
X129917386Y-47529666D01*
X129985267Y-47693547D01*
X130083816Y-47841035D01*
X130083818Y-47841037D01*
X130083821Y-47841041D01*
X130209238Y-47966458D01*
X130209241Y-47966460D01*
X130209245Y-47966464D01*
X130356733Y-48065013D01*
X130520614Y-48132894D01*
X130694589Y-48167500D01*
X130694590Y-48167500D01*
X130871970Y-48167500D01*
X130871971Y-48167500D01*
X131045946Y-48132894D01*
X131209827Y-48065013D01*
X131357315Y-47966464D01*
X131482744Y-47841035D01*
X131581293Y-47693547D01*
X131649174Y-47529666D01*
X131683780Y-47355691D01*
X131683780Y-47178309D01*
X131649174Y-47004334D01*
X131581293Y-46840453D01*
X131482744Y-46692965D01*
X131482740Y-46692961D01*
X131482738Y-46692958D01*
X131357321Y-46567541D01*
X131357317Y-46567538D01*
X131357315Y-46567536D01*
X131209827Y-46468987D01*
X131209824Y-46468985D01*
X131209823Y-46468985D01*
X131045946Y-46401106D01*
X131045940Y-46401104D01*
X130906388Y-46373346D01*
X130871971Y-46366500D01*
X130694589Y-46366500D01*
X130665856Y-46372215D01*
X130520619Y-46401104D01*
X130520613Y-46401106D01*
X130356736Y-46468985D01*
X130209238Y-46567541D01*
X130083821Y-46692958D01*
X129985265Y-46840456D01*
X129917386Y-47004333D01*
X129917384Y-47004339D01*
X129882780Y-47178309D01*
X126282027Y-47178309D01*
X126247293Y-47094453D01*
X126148744Y-46946965D01*
X126148740Y-46946961D01*
X126148738Y-46946958D01*
X126023321Y-46821541D01*
X126023317Y-46821538D01*
X126023315Y-46821536D01*
X125875827Y-46722987D01*
X125875824Y-46722985D01*
X125875823Y-46722985D01*
X125711946Y-46655106D01*
X125711940Y-46655104D01*
X125572388Y-46627346D01*
X125537971Y-46620500D01*
X125360589Y-46620500D01*
X125331856Y-46626215D01*
X125186619Y-46655104D01*
X125186613Y-46655106D01*
X125022736Y-46722985D01*
X124875238Y-46821541D01*
X124749821Y-46946958D01*
X124651265Y-47094456D01*
X124583386Y-47258333D01*
X124583384Y-47258339D01*
X124548780Y-47432309D01*
X109500500Y-47432309D01*
X109500500Y-40205515D01*
X132802780Y-40205515D01*
X132802780Y-40394484D01*
X132832338Y-40581109D01*
X132832339Y-40581112D01*
X132832340Y-40581118D01*
X132890733Y-40760832D01*
X132976519Y-40929198D01*
X133087584Y-41082067D01*
X133087593Y-41082077D01*
X133221202Y-41215686D01*
X133221212Y-41215695D01*
X133374081Y-41326760D01*
X133542448Y-41412547D01*
X133634812Y-41442558D01*
X133697139Y-41485176D01*
X133726531Y-41554725D01*
X133713655Y-41629124D01*
X133662601Y-41684751D01*
X133634812Y-41697442D01*
X133542447Y-41727453D01*
X133374081Y-41813239D01*
X133221212Y-41924304D01*
X133221202Y-41924313D01*
X133087593Y-42057922D01*
X133087584Y-42057932D01*
X132976519Y-42210801D01*
X132890733Y-42379167D01*
X132890733Y-42379168D01*
X132832340Y-42558882D01*
X132832339Y-42558885D01*
X132832338Y-42558890D01*
X132802780Y-42745515D01*
X132802780Y-42934484D01*
X132832338Y-43121109D01*
X132832339Y-43121112D01*
X132832340Y-43121118D01*
X132885411Y-43284453D01*
X132890733Y-43300832D01*
X132976519Y-43469198D01*
X133087584Y-43622067D01*
X133087593Y-43622077D01*
X133221202Y-43755686D01*
X133221212Y-43755695D01*
X133374081Y-43866760D01*
X133542448Y-43952547D01*
X133722162Y-44010940D01*
X133908797Y-44040499D01*
X133908798Y-44040500D01*
X133908799Y-44040500D01*
X134097762Y-44040500D01*
X134097762Y-44040499D01*
X134284398Y-44010940D01*
X134464112Y-43952547D01*
X134632479Y-43866760D01*
X134724791Y-43799691D01*
X134785347Y-43755695D01*
X134785357Y-43755686D01*
X134918734Y-43622309D01*
X154266780Y-43622309D01*
X154266780Y-43799690D01*
X154301384Y-43973660D01*
X154301386Y-43973666D01*
X154369267Y-44137547D01*
X154467816Y-44285035D01*
X154467818Y-44285037D01*
X154467821Y-44285041D01*
X154593238Y-44410458D01*
X154593241Y-44410460D01*
X154593245Y-44410464D01*
X154740733Y-44509013D01*
X154904614Y-44576894D01*
X155078589Y-44611500D01*
X155078590Y-44611500D01*
X155255970Y-44611500D01*
X155255971Y-44611500D01*
X155429946Y-44576894D01*
X155593827Y-44509013D01*
X155741315Y-44410464D01*
X155866744Y-44285035D01*
X155965293Y-44137547D01*
X156033174Y-43973666D01*
X156067780Y-43799691D01*
X156067780Y-43622309D01*
X156033174Y-43448334D01*
X155965293Y-43284453D01*
X155866744Y-43136965D01*
X155866740Y-43136961D01*
X155866738Y-43136958D01*
X155741321Y-43011541D01*
X155741317Y-43011538D01*
X155741315Y-43011536D01*
X155593827Y-42912987D01*
X155593824Y-42912985D01*
X155593823Y-42912985D01*
X155429946Y-42845106D01*
X155429940Y-42845104D01*
X155290388Y-42817346D01*
X155255971Y-42810500D01*
X155078589Y-42810500D01*
X155049856Y-42816215D01*
X154904619Y-42845104D01*
X154904613Y-42845106D01*
X154740736Y-42912985D01*
X154593238Y-43011541D01*
X154467821Y-43136958D01*
X154369265Y-43284456D01*
X154301386Y-43448333D01*
X154301384Y-43448339D01*
X154266780Y-43622309D01*
X134918734Y-43622309D01*
X134918966Y-43622077D01*
X134918975Y-43622067D01*
X134980807Y-43536963D01*
X135004356Y-43504549D01*
X135030040Y-43469199D01*
X135115827Y-43300832D01*
X135174220Y-43121118D01*
X135203780Y-42934481D01*
X135203780Y-42745519D01*
X135174220Y-42558882D01*
X135115827Y-42379168D01*
X135030040Y-42210801D01*
X134918975Y-42057932D01*
X134918966Y-42057922D01*
X134785357Y-41924313D01*
X134785347Y-41924304D01*
X134632478Y-41813239D01*
X134464112Y-41727453D01*
X134371745Y-41697441D01*
X134309420Y-41654824D01*
X134280029Y-41585275D01*
X134292903Y-41510877D01*
X134343957Y-41455249D01*
X134371743Y-41442559D01*
X134464112Y-41412547D01*
X134632479Y-41326760D01*
X134713710Y-41267741D01*
X134785347Y-41215695D01*
X134785357Y-41215686D01*
X134918966Y-41082077D01*
X134918975Y-41082067D01*
X135030039Y-40929201D01*
X135081446Y-40828309D01*
X151218780Y-40828309D01*
X151218780Y-41005690D01*
X151253384Y-41179660D01*
X151253386Y-41179666D01*
X151314313Y-41326760D01*
X151321267Y-41343547D01*
X151419816Y-41491035D01*
X151419818Y-41491037D01*
X151419821Y-41491041D01*
X151545238Y-41616458D01*
X151545241Y-41616460D01*
X151545245Y-41616464D01*
X151692733Y-41715013D01*
X151856614Y-41782894D01*
X152030589Y-41817500D01*
X152030590Y-41817500D01*
X152207970Y-41817500D01*
X152207971Y-41817500D01*
X152381946Y-41782894D01*
X152545827Y-41715013D01*
X152693315Y-41616464D01*
X152818744Y-41491035D01*
X152917293Y-41343547D01*
X152985174Y-41179666D01*
X153019780Y-41005691D01*
X153019780Y-40828309D01*
X152985174Y-40654334D01*
X152917293Y-40490453D01*
X152818744Y-40342965D01*
X152818740Y-40342961D01*
X152818738Y-40342958D01*
X152693321Y-40217541D01*
X152693317Y-40217538D01*
X152693315Y-40217536D01*
X152545827Y-40118987D01*
X152545824Y-40118985D01*
X152545823Y-40118985D01*
X152381946Y-40051106D01*
X152381940Y-40051104D01*
X152219986Y-40018890D01*
X152207971Y-40016500D01*
X152030589Y-40016500D01*
X152018574Y-40018890D01*
X151856619Y-40051104D01*
X151856613Y-40051106D01*
X151692736Y-40118985D01*
X151545238Y-40217541D01*
X151419821Y-40342958D01*
X151321265Y-40490456D01*
X151253386Y-40654333D01*
X151253384Y-40654339D01*
X151218780Y-40828309D01*
X135081446Y-40828309D01*
X135115797Y-40760891D01*
X135115798Y-40760889D01*
X135115826Y-40760834D01*
X135115827Y-40760832D01*
X135174220Y-40581118D01*
X135203780Y-40394481D01*
X135203780Y-40205519D01*
X135174220Y-40018882D01*
X135115827Y-39839168D01*
X135030040Y-39670801D01*
X134918975Y-39517932D01*
X134918966Y-39517922D01*
X134785357Y-39384313D01*
X134785347Y-39384304D01*
X134632478Y-39273239D01*
X134464112Y-39187453D01*
X134432067Y-39177041D01*
X134284398Y-39129060D01*
X134284392Y-39129059D01*
X134284389Y-39129058D01*
X134097764Y-39099500D01*
X134097761Y-39099500D01*
X133908799Y-39099500D01*
X133908795Y-39099500D01*
X133722170Y-39129058D01*
X133722165Y-39129059D01*
X133722162Y-39129060D01*
X133605625Y-39166925D01*
X133542447Y-39187453D01*
X133374081Y-39273239D01*
X133221212Y-39384304D01*
X133221202Y-39384313D01*
X133087593Y-39517922D01*
X133087584Y-39517932D01*
X132976519Y-39670801D01*
X132890733Y-39839167D01*
X132890733Y-39839168D01*
X132832340Y-40018882D01*
X132832339Y-40018885D01*
X132832338Y-40018890D01*
X132802780Y-40205515D01*
X109500500Y-40205515D01*
X109500500Y-38623822D01*
X126886987Y-38623822D01*
X126886987Y-38801203D01*
X126921591Y-38975173D01*
X126921593Y-38975179D01*
X126989474Y-39139060D01*
X127088023Y-39286548D01*
X127088025Y-39286550D01*
X127088028Y-39286554D01*
X127213445Y-39411971D01*
X127213448Y-39411973D01*
X127213452Y-39411977D01*
X127360940Y-39510526D01*
X127524821Y-39578407D01*
X127698796Y-39613013D01*
X127698797Y-39613013D01*
X127876177Y-39613013D01*
X127876178Y-39613013D01*
X128050153Y-39578407D01*
X128214034Y-39510526D01*
X128361522Y-39411977D01*
X128486951Y-39286548D01*
X128585500Y-39139060D01*
X128653381Y-38975179D01*
X128687987Y-38801204D01*
X128687987Y-38623822D01*
X128671659Y-38541737D01*
X128674113Y-38514309D01*
X186060780Y-38514309D01*
X186060780Y-38691690D01*
X186095384Y-38865660D01*
X186095386Y-38865666D01*
X186163267Y-39029547D01*
X186261816Y-39177035D01*
X186261818Y-39177037D01*
X186261821Y-39177041D01*
X186387238Y-39302458D01*
X186387241Y-39302460D01*
X186387245Y-39302464D01*
X186534733Y-39401013D01*
X186698614Y-39468894D01*
X186872589Y-39503500D01*
X186872590Y-39503500D01*
X187049970Y-39503500D01*
X187049971Y-39503500D01*
X187223946Y-39468894D01*
X187387827Y-39401013D01*
X187535315Y-39302464D01*
X187660744Y-39177035D01*
X187759293Y-39029547D01*
X187827174Y-38865666D01*
X187861780Y-38691691D01*
X187861780Y-38514309D01*
X187827174Y-38340334D01*
X187759293Y-38176453D01*
X187660744Y-38028965D01*
X187660740Y-38028961D01*
X187660738Y-38028958D01*
X187535321Y-37903541D01*
X187535317Y-37903538D01*
X187535315Y-37903536D01*
X187387827Y-37804987D01*
X187387824Y-37804985D01*
X187387823Y-37804985D01*
X187223946Y-37737106D01*
X187223940Y-37737104D01*
X187084388Y-37709346D01*
X187049971Y-37702500D01*
X186872589Y-37702500D01*
X186843856Y-37708215D01*
X186698619Y-37737104D01*
X186698613Y-37737106D01*
X186534736Y-37804985D01*
X186387238Y-37903541D01*
X186261821Y-38028958D01*
X186163265Y-38176456D01*
X186095386Y-38340333D01*
X186095384Y-38340339D01*
X186060780Y-38514309D01*
X128674113Y-38514309D01*
X128678388Y-38466536D01*
X128724708Y-38406909D01*
X128795911Y-38381789D01*
X128829220Y-38384171D01*
X128911309Y-38400500D01*
X128911311Y-38400500D01*
X129088690Y-38400500D01*
X129088691Y-38400500D01*
X129170777Y-38384172D01*
X129210348Y-38376301D01*
X129239111Y-38370579D01*
X129262666Y-38365894D01*
X129426547Y-38298013D01*
X129574035Y-38199464D01*
X129699464Y-38074035D01*
X129798013Y-37926547D01*
X129851329Y-37797830D01*
X131250000Y-37797830D01*
X131256402Y-37857378D01*
X131306646Y-37992088D01*
X131392810Y-38107189D01*
X131507911Y-38193353D01*
X131642621Y-38243597D01*
X131702169Y-38250000D01*
X132250000Y-38250000D01*
X132750000Y-38250000D01*
X133297831Y-38250000D01*
X133357378Y-38243597D01*
X133492088Y-38193353D01*
X133607189Y-38107189D01*
X133693353Y-37992088D01*
X133743597Y-37857378D01*
X133750000Y-37797830D01*
X133750000Y-37250000D01*
X132750000Y-37250000D01*
X132750000Y-38250000D01*
X132250000Y-38250000D01*
X132250000Y-37250000D01*
X131250000Y-37250000D01*
X131250000Y-37797830D01*
X129851329Y-37797830D01*
X129865894Y-37762666D01*
X129900500Y-37588691D01*
X129900500Y-37411309D01*
X129865894Y-37237334D01*
X129798013Y-37073453D01*
X129718144Y-36953922D01*
X132150000Y-36953922D01*
X132150000Y-37046078D01*
X132173852Y-37135095D01*
X132219930Y-37214905D01*
X132285095Y-37280070D01*
X132364905Y-37326148D01*
X132453922Y-37350000D01*
X132546078Y-37350000D01*
X132635095Y-37326148D01*
X132714905Y-37280070D01*
X132780070Y-37214905D01*
X132826148Y-37135095D01*
X132850000Y-37046078D01*
X132850000Y-36953922D01*
X132826148Y-36864905D01*
X132780070Y-36785095D01*
X132744975Y-36750000D01*
X132750000Y-36750000D01*
X133750000Y-36750000D01*
X133750000Y-36202169D01*
X133743597Y-36142621D01*
X133693353Y-36007911D01*
X133607189Y-35892810D01*
X133492088Y-35806646D01*
X133357378Y-35756402D01*
X133297831Y-35750000D01*
X132750000Y-35750000D01*
X132750000Y-36750000D01*
X132744975Y-36750000D01*
X132714905Y-36719930D01*
X132635095Y-36673852D01*
X132546078Y-36650000D01*
X132453922Y-36650000D01*
X132364905Y-36673852D01*
X132285095Y-36719930D01*
X132219930Y-36785095D01*
X132173852Y-36864905D01*
X132150000Y-36953922D01*
X129718144Y-36953922D01*
X129699464Y-36925965D01*
X129699460Y-36925961D01*
X129699458Y-36925958D01*
X129574041Y-36800541D01*
X129574037Y-36800538D01*
X129574035Y-36800536D01*
X129426547Y-36701987D01*
X129426544Y-36701985D01*
X129426543Y-36701985D01*
X129262666Y-36634106D01*
X129262660Y-36634104D01*
X129123108Y-36606346D01*
X129088691Y-36599500D01*
X128911309Y-36599500D01*
X128882576Y-36605215D01*
X128737339Y-36634104D01*
X128737333Y-36634106D01*
X128573456Y-36701985D01*
X128425958Y-36800541D01*
X128300541Y-36925958D01*
X128201985Y-37073456D01*
X128134106Y-37237333D01*
X128134104Y-37237339D01*
X128099500Y-37411309D01*
X128099500Y-37588690D01*
X128115827Y-37670773D01*
X128109097Y-37745977D01*
X128062777Y-37805604D01*
X127991574Y-37830723D01*
X127958260Y-37828340D01*
X127914319Y-37819599D01*
X127876178Y-37812013D01*
X127698796Y-37812013D01*
X127670063Y-37817728D01*
X127524826Y-37846617D01*
X127524820Y-37846619D01*
X127360943Y-37914498D01*
X127360940Y-37914499D01*
X127360940Y-37914500D01*
X127244823Y-37992088D01*
X127213445Y-38013054D01*
X127088028Y-38138471D01*
X127088023Y-38138477D01*
X127088023Y-38138478D01*
X127047277Y-38199458D01*
X126989472Y-38285969D01*
X126921593Y-38449846D01*
X126921591Y-38449852D01*
X126886987Y-38623822D01*
X109500500Y-38623822D01*
X109500500Y-36250515D01*
X122704780Y-36250515D01*
X122704780Y-36439484D01*
X122734338Y-36626109D01*
X122734339Y-36626112D01*
X122734340Y-36626118D01*
X122762722Y-36713467D01*
X122792733Y-36805832D01*
X122878519Y-36974198D01*
X122989584Y-37127067D01*
X122989593Y-37127077D01*
X123123202Y-37260686D01*
X123123212Y-37260695D01*
X123246131Y-37350000D01*
X123276081Y-37371760D01*
X123444448Y-37457547D01*
X123624162Y-37515940D01*
X123810797Y-37545499D01*
X123810798Y-37545500D01*
X123810799Y-37545500D01*
X123999762Y-37545500D01*
X123999762Y-37545499D01*
X124186398Y-37515940D01*
X124366112Y-37457547D01*
X124534479Y-37371760D01*
X124660679Y-37280070D01*
X124687347Y-37260695D01*
X124687357Y-37260686D01*
X124820966Y-37127077D01*
X124820975Y-37127067D01*
X124879817Y-37046078D01*
X124932040Y-36974199D01*
X125017827Y-36805832D01*
X125047838Y-36713465D01*
X125090456Y-36651140D01*
X125160005Y-36621749D01*
X125234403Y-36634623D01*
X125290031Y-36685677D01*
X125302722Y-36713467D01*
X125332733Y-36805832D01*
X125418519Y-36974198D01*
X125529584Y-37127067D01*
X125529593Y-37127077D01*
X125663202Y-37260686D01*
X125663212Y-37260695D01*
X125786131Y-37350000D01*
X125816081Y-37371760D01*
X125984448Y-37457547D01*
X126164162Y-37515940D01*
X126350797Y-37545499D01*
X126350798Y-37545500D01*
X126350799Y-37545500D01*
X126539762Y-37545500D01*
X126539762Y-37545499D01*
X126726398Y-37515940D01*
X126906112Y-37457547D01*
X127074479Y-37371760D01*
X127200679Y-37280070D01*
X127227347Y-37260695D01*
X127227357Y-37260686D01*
X127360966Y-37127077D01*
X127360975Y-37127067D01*
X127419817Y-37046078D01*
X127472040Y-36974199D01*
X127557827Y-36805832D01*
X127616220Y-36626118D01*
X127645780Y-36439481D01*
X127645780Y-36250519D01*
X127645779Y-36250515D01*
X127645779Y-36250512D01*
X127640875Y-36219544D01*
X127638123Y-36202169D01*
X131250000Y-36202169D01*
X131250000Y-36750000D01*
X132250000Y-36750000D01*
X132250000Y-35750000D01*
X131702169Y-35750000D01*
X131642621Y-35756402D01*
X131507911Y-35806646D01*
X131392810Y-35892810D01*
X131306646Y-36007911D01*
X131256402Y-36142621D01*
X131250000Y-36202169D01*
X127638123Y-36202169D01*
X127616221Y-36063890D01*
X127616220Y-36063882D01*
X127557827Y-35884168D01*
X127472040Y-35715801D01*
X127454522Y-35691690D01*
X127360975Y-35562932D01*
X127360966Y-35562922D01*
X127227357Y-35429313D01*
X127227347Y-35429304D01*
X127074478Y-35318239D01*
X126906112Y-35232453D01*
X126726398Y-35174060D01*
X126726392Y-35174059D01*
X126726389Y-35174058D01*
X126539764Y-35144500D01*
X126539761Y-35144500D01*
X126350799Y-35144500D01*
X126350795Y-35144500D01*
X126164170Y-35174058D01*
X126164165Y-35174059D01*
X126164162Y-35174060D01*
X126047625Y-35211925D01*
X125984447Y-35232453D01*
X125816081Y-35318239D01*
X125663212Y-35429304D01*
X125663202Y-35429313D01*
X125529593Y-35562922D01*
X125529584Y-35562932D01*
X125418519Y-35715801D01*
X125332733Y-35884167D01*
X125302722Y-35976532D01*
X125260104Y-36038859D01*
X125190555Y-36068251D01*
X125116156Y-36055375D01*
X125060529Y-36004321D01*
X125047838Y-35976532D01*
X125017827Y-35884168D01*
X124932040Y-35715801D01*
X124914522Y-35691690D01*
X124820975Y-35562932D01*
X124820966Y-35562922D01*
X124687357Y-35429313D01*
X124687347Y-35429304D01*
X124534478Y-35318239D01*
X124366112Y-35232453D01*
X124186398Y-35174060D01*
X124186392Y-35174059D01*
X124186389Y-35174058D01*
X123999764Y-35144500D01*
X123999761Y-35144500D01*
X123810799Y-35144500D01*
X123810795Y-35144500D01*
X123624170Y-35174058D01*
X123624165Y-35174059D01*
X123624162Y-35174060D01*
X123507625Y-35211925D01*
X123444447Y-35232453D01*
X123276081Y-35318239D01*
X123123212Y-35429304D01*
X123123202Y-35429313D01*
X122989593Y-35562922D01*
X122989584Y-35562932D01*
X122878519Y-35715801D01*
X122792733Y-35884167D01*
X122792733Y-35884168D01*
X122734340Y-36063882D01*
X122734339Y-36063885D01*
X122734338Y-36063890D01*
X122704780Y-36250515D01*
X109500500Y-36250515D01*
X109500500Y-34732309D01*
X143090780Y-34732309D01*
X143090780Y-34909690D01*
X143125384Y-35083660D01*
X143125386Y-35083666D01*
X143193267Y-35247547D01*
X143291816Y-35395035D01*
X143291818Y-35395037D01*
X143291821Y-35395041D01*
X143417238Y-35520458D01*
X143417241Y-35520460D01*
X143417245Y-35520464D01*
X143564733Y-35619013D01*
X143728614Y-35686894D01*
X143902589Y-35721500D01*
X143902590Y-35721500D01*
X144079970Y-35721500D01*
X144079971Y-35721500D01*
X144253946Y-35686894D01*
X144417827Y-35619013D01*
X144565315Y-35520464D01*
X144571470Y-35514309D01*
X175060780Y-35514309D01*
X175060780Y-35691690D01*
X175095384Y-35865660D01*
X175095386Y-35865666D01*
X175141307Y-35976532D01*
X175163267Y-36029547D01*
X175261816Y-36177035D01*
X175261818Y-36177037D01*
X175261821Y-36177041D01*
X175387238Y-36302458D01*
X175387241Y-36302460D01*
X175387245Y-36302464D01*
X175534733Y-36401013D01*
X175698614Y-36468894D01*
X175872589Y-36503500D01*
X175872590Y-36503500D01*
X176049970Y-36503500D01*
X176049971Y-36503500D01*
X176223946Y-36468894D01*
X176387827Y-36401013D01*
X176535315Y-36302464D01*
X176660744Y-36177035D01*
X176759293Y-36029547D01*
X176827174Y-35865666D01*
X176861780Y-35691691D01*
X176861780Y-35514309D01*
X176827174Y-35340334D01*
X176759293Y-35176453D01*
X176660744Y-35028965D01*
X176660740Y-35028961D01*
X176660738Y-35028958D01*
X176535321Y-34903541D01*
X176535317Y-34903538D01*
X176535315Y-34903536D01*
X176387827Y-34804987D01*
X176387824Y-34804985D01*
X176387823Y-34804985D01*
X176223946Y-34737106D01*
X176223940Y-34737104D01*
X176084388Y-34709346D01*
X176049971Y-34702500D01*
X175872589Y-34702500D01*
X175843856Y-34708215D01*
X175698619Y-34737104D01*
X175698613Y-34737106D01*
X175534736Y-34804985D01*
X175387238Y-34903541D01*
X175261821Y-35028958D01*
X175261816Y-35028964D01*
X175261816Y-35028965D01*
X175164867Y-35174058D01*
X175163265Y-35176456D01*
X175095386Y-35340333D01*
X175095384Y-35340339D01*
X175060780Y-35514309D01*
X144571470Y-35514309D01*
X144672806Y-35412974D01*
X144690738Y-35395041D01*
X144690744Y-35395035D01*
X144789293Y-35247547D01*
X144857174Y-35083666D01*
X144891780Y-34909691D01*
X144891780Y-34732309D01*
X144857174Y-34558334D01*
X144789293Y-34394453D01*
X144690744Y-34246965D01*
X144690740Y-34246961D01*
X144690738Y-34246958D01*
X144565321Y-34121541D01*
X144565317Y-34121538D01*
X144565315Y-34121536D01*
X144417827Y-34022987D01*
X144417824Y-34022985D01*
X144417823Y-34022985D01*
X144253946Y-33955106D01*
X144253940Y-33955104D01*
X144114388Y-33927346D01*
X144079971Y-33920500D01*
X143902589Y-33920500D01*
X143873856Y-33926215D01*
X143728619Y-33955104D01*
X143728613Y-33955106D01*
X143564736Y-34022985D01*
X143417238Y-34121541D01*
X143291821Y-34246958D01*
X143193265Y-34394456D01*
X143125386Y-34558333D01*
X143125384Y-34558339D01*
X143090780Y-34732309D01*
X109500500Y-34732309D01*
X109500500Y-30196450D01*
X110540780Y-30196450D01*
X110540780Y-30509549D01*
X110575835Y-30820660D01*
X110575835Y-30820664D01*
X110645499Y-31125883D01*
X110645506Y-31125905D01*
X110748902Y-31421396D01*
X110748908Y-31421411D01*
X110884747Y-31703485D01*
X110884749Y-31703488D01*
X111051320Y-31968586D01*
X111187888Y-32139836D01*
X112087721Y-31240003D01*
X112165075Y-31346471D01*
X112334809Y-31516205D01*
X112441275Y-31593557D01*
X111541442Y-32493390D01*
X111712693Y-32629959D01*
X111977791Y-32796530D01*
X111977794Y-32796532D01*
X112259868Y-32932371D01*
X112259883Y-32932377D01*
X112555374Y-33035773D01*
X112555396Y-33035780D01*
X112860617Y-33105444D01*
X113171730Y-33140499D01*
X113171744Y-33140500D01*
X113484816Y-33140500D01*
X113484829Y-33140499D01*
X113795940Y-33105444D01*
X113795944Y-33105444D01*
X114101163Y-33035780D01*
X114101185Y-33035773D01*
X114396676Y-32932377D01*
X114396691Y-32932371D01*
X114678765Y-32796532D01*
X114678768Y-32796530D01*
X114943857Y-32629965D01*
X114943864Y-32629960D01*
X115115116Y-32493390D01*
X114215284Y-31593557D01*
X114321751Y-31516205D01*
X114491485Y-31346471D01*
X114568837Y-31240003D01*
X115468670Y-32139836D01*
X115605240Y-31968584D01*
X115605245Y-31968577D01*
X115771810Y-31703488D01*
X115771812Y-31703485D01*
X115785732Y-31674579D01*
X119032780Y-31674579D01*
X119032780Y-31871420D01*
X119063569Y-32065817D01*
X119063570Y-32065820D01*
X119063571Y-32065826D01*
X119109908Y-32208436D01*
X119124396Y-32253025D01*
X119213753Y-32428401D01*
X119213756Y-32428405D01*
X119297498Y-32543666D01*
X119329456Y-32587651D01*
X119468628Y-32726823D01*
X119468631Y-32726825D01*
X119468634Y-32726828D01*
X119624861Y-32840334D01*
X119627878Y-32842526D01*
X119673282Y-32865660D01*
X119803255Y-32931884D01*
X119990454Y-32992709D01*
X120184861Y-33023499D01*
X120184862Y-33023500D01*
X120184863Y-33023500D01*
X120381698Y-33023500D01*
X120381698Y-33023499D01*
X120576106Y-32992709D01*
X120763305Y-32931884D01*
X120938685Y-32842524D01*
X121097926Y-32726828D01*
X121237108Y-32587646D01*
X121352804Y-32428405D01*
X121442164Y-32253025D01*
X121502989Y-32065826D01*
X121533780Y-31871417D01*
X121533780Y-31674583D01*
X121533779Y-31674579D01*
X121802780Y-31674579D01*
X121802780Y-31871420D01*
X121833569Y-32065817D01*
X121833570Y-32065820D01*
X121833571Y-32065826D01*
X121879908Y-32208436D01*
X121894396Y-32253025D01*
X121983753Y-32428401D01*
X121983756Y-32428405D01*
X122067498Y-32543666D01*
X122099456Y-32587651D01*
X122238628Y-32726823D01*
X122238631Y-32726825D01*
X122238634Y-32726828D01*
X122394861Y-32840334D01*
X122397878Y-32842526D01*
X122443282Y-32865660D01*
X122573255Y-32931884D01*
X122760454Y-32992709D01*
X122954861Y-33023499D01*
X122954862Y-33023500D01*
X122954863Y-33023500D01*
X123151698Y-33023500D01*
X123151698Y-33023499D01*
X123346106Y-32992709D01*
X123533305Y-32931884D01*
X123708685Y-32842524D01*
X123867926Y-32726828D01*
X124007108Y-32587646D01*
X124122804Y-32428405D01*
X124212164Y-32253025D01*
X124272989Y-32065826D01*
X124303780Y-31871417D01*
X124303780Y-31674583D01*
X124303779Y-31674579D01*
X124572780Y-31674579D01*
X124572780Y-31871420D01*
X124603569Y-32065817D01*
X124603570Y-32065820D01*
X124603571Y-32065826D01*
X124649908Y-32208436D01*
X124664396Y-32253025D01*
X124753753Y-32428401D01*
X124753756Y-32428405D01*
X124837498Y-32543666D01*
X124869456Y-32587651D01*
X125008628Y-32726823D01*
X125008631Y-32726825D01*
X125008634Y-32726828D01*
X125164861Y-32840334D01*
X125167878Y-32842526D01*
X125213282Y-32865660D01*
X125343255Y-32931884D01*
X125530454Y-32992709D01*
X125724861Y-33023499D01*
X125724862Y-33023500D01*
X125724863Y-33023500D01*
X125921698Y-33023500D01*
X125921698Y-33023499D01*
X126116106Y-32992709D01*
X126303305Y-32931884D01*
X126478685Y-32842524D01*
X126637926Y-32726828D01*
X126777108Y-32587646D01*
X126892804Y-32428405D01*
X126982164Y-32253025D01*
X127042989Y-32065826D01*
X127073780Y-31871417D01*
X127073780Y-31674583D01*
X127073779Y-31674579D01*
X127342780Y-31674579D01*
X127342780Y-31871420D01*
X127373569Y-32065817D01*
X127373570Y-32065820D01*
X127373571Y-32065826D01*
X127419908Y-32208436D01*
X127434396Y-32253025D01*
X127523753Y-32428401D01*
X127523756Y-32428405D01*
X127607498Y-32543666D01*
X127639456Y-32587651D01*
X127778628Y-32726823D01*
X127778631Y-32726825D01*
X127778634Y-32726828D01*
X127934861Y-32840334D01*
X127937878Y-32842526D01*
X127983282Y-32865660D01*
X128113255Y-32931884D01*
X128300454Y-32992709D01*
X128494861Y-33023499D01*
X128494862Y-33023500D01*
X128494863Y-33023500D01*
X128691698Y-33023500D01*
X128691698Y-33023499D01*
X128886106Y-32992709D01*
X129073305Y-32931884D01*
X129248685Y-32842524D01*
X129407926Y-32726828D01*
X129547108Y-32587646D01*
X129662804Y-32428405D01*
X129752164Y-32253025D01*
X129812989Y-32065826D01*
X129843780Y-31871417D01*
X129843780Y-31674583D01*
X129843779Y-31674579D01*
X130112780Y-31674579D01*
X130112780Y-31871420D01*
X130143569Y-32065817D01*
X130143570Y-32065820D01*
X130143571Y-32065826D01*
X130189908Y-32208436D01*
X130204396Y-32253025D01*
X130293753Y-32428401D01*
X130293756Y-32428405D01*
X130377498Y-32543666D01*
X130409456Y-32587651D01*
X130548628Y-32726823D01*
X130548631Y-32726825D01*
X130548634Y-32726828D01*
X130704861Y-32840334D01*
X130707878Y-32842526D01*
X130753282Y-32865660D01*
X130883255Y-32931884D01*
X131070454Y-32992709D01*
X131264861Y-33023499D01*
X131264862Y-33023500D01*
X131264863Y-33023500D01*
X131461698Y-33023500D01*
X131461698Y-33023499D01*
X131656106Y-32992709D01*
X131843305Y-32931884D01*
X132018685Y-32842524D01*
X132177926Y-32726828D01*
X132317108Y-32587646D01*
X132432804Y-32428405D01*
X132522164Y-32253025D01*
X132582989Y-32065826D01*
X132613780Y-31871417D01*
X132613780Y-31674583D01*
X132613779Y-31674579D01*
X132882780Y-31674579D01*
X132882780Y-31871420D01*
X132913569Y-32065817D01*
X132913570Y-32065820D01*
X132913571Y-32065826D01*
X132959908Y-32208436D01*
X132974396Y-32253025D01*
X133063753Y-32428401D01*
X133063756Y-32428405D01*
X133147498Y-32543666D01*
X133179456Y-32587651D01*
X133318628Y-32726823D01*
X133318631Y-32726825D01*
X133318634Y-32726828D01*
X133474861Y-32840334D01*
X133477878Y-32842526D01*
X133523282Y-32865660D01*
X133653255Y-32931884D01*
X133840454Y-32992709D01*
X134034861Y-33023499D01*
X134034862Y-33023500D01*
X134034863Y-33023500D01*
X134231698Y-33023500D01*
X134231698Y-33023499D01*
X134426106Y-32992709D01*
X134613305Y-32931884D01*
X134788685Y-32842524D01*
X134947926Y-32726828D01*
X135087108Y-32587646D01*
X135202804Y-32428405D01*
X135292164Y-32253025D01*
X135352989Y-32065826D01*
X135383780Y-31871417D01*
X135383780Y-31674583D01*
X135383779Y-31674579D01*
X135652780Y-31674579D01*
X135652780Y-31871420D01*
X135683569Y-32065817D01*
X135683570Y-32065820D01*
X135683571Y-32065826D01*
X135729908Y-32208436D01*
X135744396Y-32253025D01*
X135833753Y-32428401D01*
X135833756Y-32428405D01*
X135917498Y-32543666D01*
X135949456Y-32587651D01*
X136088628Y-32726823D01*
X136088631Y-32726825D01*
X136088634Y-32726828D01*
X136244861Y-32840334D01*
X136247878Y-32842526D01*
X136293282Y-32865660D01*
X136423255Y-32931884D01*
X136610454Y-32992709D01*
X136804861Y-33023499D01*
X136804862Y-33023500D01*
X136804863Y-33023500D01*
X137001698Y-33023500D01*
X137001698Y-33023499D01*
X137196106Y-32992709D01*
X137383305Y-32931884D01*
X137558685Y-32842524D01*
X137717926Y-32726828D01*
X137857108Y-32587646D01*
X137972804Y-32428405D01*
X138062164Y-32253025D01*
X138122989Y-32065826D01*
X138153780Y-31871417D01*
X138153780Y-31674583D01*
X138153779Y-31674579D01*
X138422780Y-31674579D01*
X138422780Y-31871420D01*
X138453569Y-32065817D01*
X138453570Y-32065820D01*
X138453571Y-32065826D01*
X138499908Y-32208436D01*
X138514396Y-32253025D01*
X138603753Y-32428401D01*
X138603756Y-32428405D01*
X138687498Y-32543666D01*
X138719456Y-32587651D01*
X138858628Y-32726823D01*
X138858631Y-32726825D01*
X138858634Y-32726828D01*
X139014861Y-32840334D01*
X139017878Y-32842526D01*
X139063282Y-32865660D01*
X139193255Y-32931884D01*
X139380454Y-32992709D01*
X139574861Y-33023499D01*
X139574862Y-33023500D01*
X139574863Y-33023500D01*
X139771698Y-33023500D01*
X139771698Y-33023499D01*
X139966106Y-32992709D01*
X140153305Y-32931884D01*
X140328685Y-32842524D01*
X140487926Y-32726828D01*
X140627108Y-32587646D01*
X140742804Y-32428405D01*
X140755473Y-32403541D01*
X140767364Y-32380204D01*
X140805689Y-32304985D01*
X140832164Y-32253025D01*
X140892989Y-32065826D01*
X140923780Y-31871417D01*
X140923780Y-31674583D01*
X140892989Y-31480174D01*
X140832164Y-31292975D01*
X140760474Y-31152274D01*
X140742806Y-31117598D01*
X140652741Y-30993635D01*
X140627108Y-30958354D01*
X140627105Y-30958351D01*
X140627103Y-30958348D01*
X140487931Y-30819176D01*
X140487927Y-30819173D01*
X140487926Y-30819172D01*
X140337809Y-30710105D01*
X140328681Y-30703473D01*
X140153305Y-30614116D01*
X139966106Y-30553291D01*
X139966100Y-30553290D01*
X139966097Y-30553289D01*
X139771700Y-30522500D01*
X139771697Y-30522500D01*
X139574863Y-30522500D01*
X139574859Y-30522500D01*
X139380462Y-30553289D01*
X139380457Y-30553290D01*
X139380454Y-30553291D01*
X139259064Y-30592733D01*
X139193254Y-30614116D01*
X139017878Y-30703473D01*
X138858628Y-30819176D01*
X138719456Y-30958348D01*
X138603753Y-31117598D01*
X138514396Y-31292974D01*
X138514396Y-31292975D01*
X138453571Y-31480174D01*
X138453570Y-31480177D01*
X138453569Y-31480182D01*
X138422780Y-31674579D01*
X138153779Y-31674579D01*
X138122989Y-31480174D01*
X138062164Y-31292975D01*
X137990474Y-31152274D01*
X137972806Y-31117598D01*
X137882741Y-30993635D01*
X137857108Y-30958354D01*
X137857105Y-30958351D01*
X137857103Y-30958348D01*
X137717931Y-30819176D01*
X137717927Y-30819173D01*
X137717926Y-30819172D01*
X137567809Y-30710105D01*
X137558681Y-30703473D01*
X137383305Y-30614116D01*
X137196106Y-30553291D01*
X137196100Y-30553290D01*
X137196097Y-30553289D01*
X137001700Y-30522500D01*
X137001697Y-30522500D01*
X136804863Y-30522500D01*
X136804859Y-30522500D01*
X136610462Y-30553289D01*
X136610457Y-30553290D01*
X136610454Y-30553291D01*
X136489064Y-30592733D01*
X136423254Y-30614116D01*
X136247878Y-30703473D01*
X136088628Y-30819176D01*
X135949456Y-30958348D01*
X135833753Y-31117598D01*
X135744396Y-31292974D01*
X135744396Y-31292975D01*
X135683571Y-31480174D01*
X135683570Y-31480177D01*
X135683569Y-31480182D01*
X135652780Y-31674579D01*
X135383779Y-31674579D01*
X135352989Y-31480174D01*
X135292164Y-31292975D01*
X135220474Y-31152274D01*
X135202806Y-31117598D01*
X135112741Y-30993635D01*
X135087108Y-30958354D01*
X135087105Y-30958351D01*
X135087103Y-30958348D01*
X134947931Y-30819176D01*
X134947927Y-30819173D01*
X134947926Y-30819172D01*
X134797809Y-30710105D01*
X134788681Y-30703473D01*
X134613305Y-30614116D01*
X134426106Y-30553291D01*
X134426100Y-30553290D01*
X134426097Y-30553289D01*
X134231700Y-30522500D01*
X134231697Y-30522500D01*
X134034863Y-30522500D01*
X134034859Y-30522500D01*
X133840462Y-30553289D01*
X133840457Y-30553290D01*
X133840454Y-30553291D01*
X133719064Y-30592733D01*
X133653254Y-30614116D01*
X133477878Y-30703473D01*
X133318628Y-30819176D01*
X133179456Y-30958348D01*
X133063753Y-31117598D01*
X132974396Y-31292974D01*
X132974396Y-31292975D01*
X132913571Y-31480174D01*
X132913570Y-31480177D01*
X132913569Y-31480182D01*
X132882780Y-31674579D01*
X132613779Y-31674579D01*
X132582989Y-31480174D01*
X132522164Y-31292975D01*
X132450474Y-31152274D01*
X132432806Y-31117598D01*
X132342741Y-30993635D01*
X132317108Y-30958354D01*
X132317105Y-30958351D01*
X132317103Y-30958348D01*
X132177931Y-30819176D01*
X132177927Y-30819173D01*
X132177926Y-30819172D01*
X132027809Y-30710105D01*
X132018681Y-30703473D01*
X131843305Y-30614116D01*
X131656106Y-30553291D01*
X131656100Y-30553290D01*
X131656097Y-30553289D01*
X131461700Y-30522500D01*
X131461697Y-30522500D01*
X131264863Y-30522500D01*
X131264859Y-30522500D01*
X131070462Y-30553289D01*
X131070457Y-30553290D01*
X131070454Y-30553291D01*
X130949064Y-30592733D01*
X130883254Y-30614116D01*
X130707878Y-30703473D01*
X130548628Y-30819176D01*
X130409456Y-30958348D01*
X130293753Y-31117598D01*
X130204396Y-31292974D01*
X130204396Y-31292975D01*
X130143571Y-31480174D01*
X130143570Y-31480177D01*
X130143569Y-31480182D01*
X130112780Y-31674579D01*
X129843779Y-31674579D01*
X129812989Y-31480174D01*
X129752164Y-31292975D01*
X129680474Y-31152274D01*
X129662806Y-31117598D01*
X129572741Y-30993635D01*
X129547108Y-30958354D01*
X129547105Y-30958351D01*
X129547103Y-30958348D01*
X129407931Y-30819176D01*
X129407927Y-30819173D01*
X129407926Y-30819172D01*
X129257809Y-30710105D01*
X129248681Y-30703473D01*
X129073305Y-30614116D01*
X128886106Y-30553291D01*
X128886100Y-30553290D01*
X128886097Y-30553289D01*
X128691700Y-30522500D01*
X128691697Y-30522500D01*
X128494863Y-30522500D01*
X128494859Y-30522500D01*
X128300462Y-30553289D01*
X128300457Y-30553290D01*
X128300454Y-30553291D01*
X128179064Y-30592733D01*
X128113254Y-30614116D01*
X127937878Y-30703473D01*
X127778628Y-30819176D01*
X127639456Y-30958348D01*
X127523753Y-31117598D01*
X127434396Y-31292974D01*
X127434396Y-31292975D01*
X127373571Y-31480174D01*
X127373570Y-31480177D01*
X127373569Y-31480182D01*
X127342780Y-31674579D01*
X127073779Y-31674579D01*
X127042989Y-31480174D01*
X126982164Y-31292975D01*
X126910474Y-31152274D01*
X126892806Y-31117598D01*
X126802741Y-30993635D01*
X126777108Y-30958354D01*
X126777105Y-30958351D01*
X126777103Y-30958348D01*
X126637931Y-30819176D01*
X126637927Y-30819173D01*
X126637926Y-30819172D01*
X126487809Y-30710105D01*
X126478681Y-30703473D01*
X126303305Y-30614116D01*
X126116106Y-30553291D01*
X126116100Y-30553290D01*
X126116097Y-30553289D01*
X125921700Y-30522500D01*
X125921697Y-30522500D01*
X125724863Y-30522500D01*
X125724859Y-30522500D01*
X125530462Y-30553289D01*
X125530457Y-30553290D01*
X125530454Y-30553291D01*
X125409064Y-30592733D01*
X125343254Y-30614116D01*
X125167878Y-30703473D01*
X125008628Y-30819176D01*
X124869456Y-30958348D01*
X124753753Y-31117598D01*
X124664396Y-31292974D01*
X124664396Y-31292975D01*
X124603571Y-31480174D01*
X124603570Y-31480177D01*
X124603569Y-31480182D01*
X124572780Y-31674579D01*
X124303779Y-31674579D01*
X124272989Y-31480174D01*
X124212164Y-31292975D01*
X124140474Y-31152274D01*
X124122806Y-31117598D01*
X124032741Y-30993635D01*
X124007108Y-30958354D01*
X124007105Y-30958351D01*
X124007103Y-30958348D01*
X123867931Y-30819176D01*
X123867927Y-30819173D01*
X123867926Y-30819172D01*
X123717809Y-30710105D01*
X123708681Y-30703473D01*
X123533305Y-30614116D01*
X123346106Y-30553291D01*
X123346100Y-30553290D01*
X123346097Y-30553289D01*
X123151700Y-30522500D01*
X123151697Y-30522500D01*
X122954863Y-30522500D01*
X122954859Y-30522500D01*
X122760462Y-30553289D01*
X122760457Y-30553290D01*
X122760454Y-30553291D01*
X122639064Y-30592733D01*
X122573254Y-30614116D01*
X122397878Y-30703473D01*
X122238628Y-30819176D01*
X122099456Y-30958348D01*
X121983753Y-31117598D01*
X121894396Y-31292974D01*
X121894396Y-31292975D01*
X121833571Y-31480174D01*
X121833570Y-31480177D01*
X121833569Y-31480182D01*
X121802780Y-31674579D01*
X121533779Y-31674579D01*
X121502989Y-31480174D01*
X121442164Y-31292975D01*
X121370474Y-31152274D01*
X121352806Y-31117598D01*
X121262741Y-30993635D01*
X121237108Y-30958354D01*
X121237105Y-30958351D01*
X121237103Y-30958348D01*
X121097931Y-30819176D01*
X121097927Y-30819173D01*
X121097926Y-30819172D01*
X120947809Y-30710105D01*
X120938681Y-30703473D01*
X120763305Y-30614116D01*
X120576106Y-30553291D01*
X120576100Y-30553290D01*
X120576097Y-30553289D01*
X120381700Y-30522500D01*
X120381697Y-30522500D01*
X120184863Y-30522500D01*
X120184859Y-30522500D01*
X119990462Y-30553289D01*
X119990457Y-30553290D01*
X119990454Y-30553291D01*
X119869064Y-30592733D01*
X119803254Y-30614116D01*
X119627878Y-30703473D01*
X119468628Y-30819176D01*
X119329456Y-30958348D01*
X119213753Y-31117598D01*
X119124396Y-31292974D01*
X119124396Y-31292975D01*
X119063571Y-31480174D01*
X119063570Y-31480177D01*
X119063569Y-31480182D01*
X119032780Y-31674579D01*
X115785732Y-31674579D01*
X115816265Y-31611178D01*
X115907651Y-31421411D01*
X115907657Y-31421396D01*
X116011053Y-31125905D01*
X116011060Y-31125883D01*
X116080724Y-30820664D01*
X116080724Y-30820660D01*
X116115779Y-30509549D01*
X116115780Y-30509535D01*
X116115780Y-30196464D01*
X116115779Y-30196450D01*
X143840780Y-30196450D01*
X143840780Y-30509549D01*
X143875835Y-30820660D01*
X143875835Y-30820664D01*
X143945499Y-31125883D01*
X143945506Y-31125905D01*
X144048902Y-31421396D01*
X144048908Y-31421411D01*
X144184747Y-31703485D01*
X144184749Y-31703488D01*
X144351320Y-31968586D01*
X144487888Y-32139836D01*
X145387721Y-31240003D01*
X145465075Y-31346471D01*
X145634809Y-31516205D01*
X145741275Y-31593557D01*
X144841442Y-32493390D01*
X145012693Y-32629959D01*
X145277791Y-32796530D01*
X145277794Y-32796532D01*
X145559868Y-32932371D01*
X145559883Y-32932377D01*
X145855374Y-33035773D01*
X145855396Y-33035780D01*
X146160617Y-33105444D01*
X146471730Y-33140499D01*
X146471744Y-33140500D01*
X146784816Y-33140500D01*
X146784829Y-33140499D01*
X147095940Y-33105444D01*
X147095944Y-33105444D01*
X147401163Y-33035780D01*
X147401185Y-33035773D01*
X147696676Y-32932377D01*
X147696691Y-32932371D01*
X147978765Y-32796532D01*
X147978768Y-32796530D01*
X148243857Y-32629965D01*
X148243864Y-32629960D01*
X148415116Y-32493390D01*
X147515284Y-31593557D01*
X147621751Y-31516205D01*
X147791485Y-31346471D01*
X147868837Y-31240003D01*
X148768670Y-32139836D01*
X148905240Y-31968584D01*
X148905245Y-31968577D01*
X149071810Y-31703488D01*
X149071812Y-31703485D01*
X149207651Y-31421411D01*
X149207657Y-31421396D01*
X149311053Y-31125905D01*
X149311060Y-31125883D01*
X149380724Y-30820664D01*
X149380724Y-30820660D01*
X149415779Y-30509549D01*
X149415780Y-30509535D01*
X149415780Y-30485066D01*
X154956780Y-30485066D01*
X154956780Y-30740933D01*
X154996804Y-30993635D01*
X155037081Y-31117595D01*
X155075870Y-31236975D01*
X155104403Y-31292974D01*
X155192028Y-31464949D01*
X155342412Y-31671935D01*
X155342421Y-31671945D01*
X155523334Y-31852858D01*
X155523344Y-31852867D01*
X155730330Y-32003251D01*
X155780797Y-32028965D01*
X155958305Y-32119410D01*
X156182667Y-32192309D01*
X156201644Y-32198475D01*
X156350448Y-32222043D01*
X156454348Y-32238499D01*
X156454349Y-32238500D01*
X158952363Y-32238500D01*
X159024809Y-32259772D01*
X159074254Y-32316834D01*
X159084999Y-32391570D01*
X159083789Y-32398632D01*
X159064941Y-32493390D01*
X159060780Y-32514309D01*
X159060780Y-32691690D01*
X159095384Y-32865660D01*
X159095386Y-32865666D01*
X159163267Y-33029547D01*
X159261816Y-33177035D01*
X159261818Y-33177037D01*
X159261821Y-33177041D01*
X159387238Y-33302458D01*
X159387241Y-33302460D01*
X159387245Y-33302464D01*
X159534733Y-33401013D01*
X159698614Y-33468894D01*
X159872589Y-33503500D01*
X159872590Y-33503500D01*
X160049970Y-33503500D01*
X160049971Y-33503500D01*
X160223946Y-33468894D01*
X160387827Y-33401013D01*
X160535315Y-33302464D01*
X160660744Y-33177035D01*
X160759293Y-33029547D01*
X160827174Y-32865666D01*
X160861780Y-32691691D01*
X160861780Y-32514309D01*
X160827174Y-32340334D01*
X160765861Y-32192309D01*
X174332780Y-32192309D01*
X174332780Y-32369690D01*
X174367384Y-32543660D01*
X174367386Y-32543666D01*
X174422387Y-32676453D01*
X174435267Y-32707547D01*
X174533816Y-32855035D01*
X174533818Y-32855037D01*
X174533821Y-32855041D01*
X174659238Y-32980458D01*
X174659241Y-32980460D01*
X174659245Y-32980464D01*
X174806733Y-33079013D01*
X174970614Y-33146894D01*
X175144589Y-33181500D01*
X175144590Y-33181500D01*
X175321970Y-33181500D01*
X175321971Y-33181500D01*
X175495946Y-33146894D01*
X175659827Y-33079013D01*
X175756663Y-33014309D01*
X176560780Y-33014309D01*
X176560780Y-33191690D01*
X176595384Y-33365660D01*
X176595386Y-33365666D01*
X176638143Y-33468893D01*
X176663267Y-33529547D01*
X176761816Y-33677035D01*
X176761818Y-33677037D01*
X176761821Y-33677041D01*
X176887238Y-33802458D01*
X176887241Y-33802460D01*
X176887245Y-33802464D01*
X177034733Y-33901013D01*
X177198614Y-33968894D01*
X177372589Y-34003500D01*
X177372590Y-34003500D01*
X177549970Y-34003500D01*
X177549971Y-34003500D01*
X177723946Y-33968894D01*
X177887827Y-33901013D01*
X178035315Y-33802464D01*
X178160744Y-33677035D01*
X178259293Y-33529547D01*
X178327174Y-33365666D01*
X178361780Y-33191691D01*
X178361780Y-33014309D01*
X178327174Y-32840334D01*
X178259293Y-32676453D01*
X178160744Y-32528965D01*
X178160740Y-32528961D01*
X178160738Y-32528958D01*
X178035321Y-32403541D01*
X178035317Y-32403538D01*
X178035315Y-32403536D01*
X177887827Y-32304987D01*
X177887824Y-32304985D01*
X177887823Y-32304985D01*
X177723946Y-32237106D01*
X177723940Y-32237104D01*
X177579813Y-32208436D01*
X177549971Y-32202500D01*
X177372589Y-32202500D01*
X177343856Y-32208215D01*
X177198619Y-32237104D01*
X177198613Y-32237106D01*
X177034736Y-32304985D01*
X177034733Y-32304986D01*
X177034733Y-32304987D01*
X176894570Y-32398642D01*
X176887238Y-32403541D01*
X176761821Y-32528958D01*
X176761816Y-32528964D01*
X176761816Y-32528965D01*
X176663267Y-32676453D01*
X176663265Y-32676456D01*
X176595386Y-32840333D01*
X176595384Y-32840339D01*
X176560780Y-33014309D01*
X175756663Y-33014309D01*
X175807315Y-32980464D01*
X175807321Y-32980458D01*
X175874806Y-32912974D01*
X175932738Y-32855041D01*
X175932744Y-32855035D01*
X176031293Y-32707547D01*
X176099174Y-32543666D01*
X176133780Y-32369691D01*
X176133780Y-32192309D01*
X176099174Y-32018334D01*
X176031293Y-31854453D01*
X175932744Y-31706965D01*
X175932740Y-31706961D01*
X175932738Y-31706958D01*
X175807321Y-31581541D01*
X175807317Y-31581538D01*
X175807315Y-31581536D01*
X175659827Y-31482987D01*
X175659824Y-31482985D01*
X175659823Y-31482985D01*
X175495946Y-31415106D01*
X175495940Y-31415104D01*
X175356388Y-31387346D01*
X175321971Y-31380500D01*
X175144589Y-31380500D01*
X175115856Y-31386215D01*
X174970619Y-31415104D01*
X174970613Y-31415106D01*
X174806736Y-31482985D01*
X174659238Y-31581541D01*
X174533821Y-31706958D01*
X174533816Y-31706964D01*
X174533816Y-31706965D01*
X174468321Y-31804985D01*
X174435265Y-31854456D01*
X174367386Y-32018333D01*
X174367384Y-32018339D01*
X174332780Y-32192309D01*
X160765861Y-32192309D01*
X160759293Y-32176453D01*
X160660744Y-32028965D01*
X160660740Y-32028961D01*
X160660738Y-32028958D01*
X160535321Y-31903541D01*
X160535317Y-31903538D01*
X160535315Y-31903536D01*
X160387827Y-31804987D01*
X160387824Y-31804985D01*
X160387823Y-31804985D01*
X160227905Y-31738746D01*
X160169114Y-31691370D01*
X160145269Y-31619730D01*
X160163942Y-31546570D01*
X160170766Y-31536196D01*
X160222532Y-31464947D01*
X160338690Y-31236975D01*
X160417754Y-30993639D01*
X160457780Y-30740930D01*
X160457780Y-30485070D01*
X160436862Y-30352999D01*
X160417755Y-30232364D01*
X160391874Y-30152710D01*
X160338690Y-29989025D01*
X160258099Y-29830856D01*
X160222531Y-29761050D01*
X160072147Y-29554064D01*
X160072138Y-29554054D01*
X159891225Y-29373141D01*
X159891215Y-29373132D01*
X159684229Y-29222748D01*
X159494335Y-29125993D01*
X159456255Y-29106590D01*
X159379136Y-29081532D01*
X159212915Y-29027524D01*
X158960212Y-28987500D01*
X158960210Y-28987500D01*
X156454350Y-28987500D01*
X156454348Y-28987500D01*
X156201644Y-29027524D01*
X155958305Y-29106590D01*
X155730330Y-29222748D01*
X155523344Y-29373132D01*
X155523334Y-29373141D01*
X155342421Y-29554054D01*
X155342412Y-29554064D01*
X155192028Y-29761050D01*
X155075870Y-29989025D01*
X154996804Y-30232364D01*
X154956780Y-30485066D01*
X149415780Y-30485066D01*
X149415780Y-30196464D01*
X149415779Y-30196450D01*
X149380724Y-29885339D01*
X149380724Y-29885335D01*
X149311060Y-29580116D01*
X149311053Y-29580094D01*
X149207657Y-29284603D01*
X149207651Y-29284588D01*
X149071812Y-29002514D01*
X149071810Y-29002511D01*
X148905239Y-28737413D01*
X148768670Y-28566162D01*
X147868837Y-29465995D01*
X147791485Y-29359529D01*
X147621751Y-29189795D01*
X147515283Y-29112442D01*
X148415117Y-28212608D01*
X148289574Y-28112491D01*
X148243866Y-28076040D01*
X148145621Y-28014309D01*
X178060780Y-28014309D01*
X178060780Y-28191691D01*
X178064941Y-28212608D01*
X178095384Y-28365660D01*
X178095386Y-28365666D01*
X178137390Y-28467075D01*
X178163267Y-28529547D01*
X178261816Y-28677035D01*
X178261818Y-28677037D01*
X178261821Y-28677041D01*
X178387238Y-28802458D01*
X178387241Y-28802460D01*
X178387245Y-28802464D01*
X178534733Y-28901013D01*
X178698614Y-28968894D01*
X178872589Y-29003500D01*
X178872590Y-29003500D01*
X179049970Y-29003500D01*
X179049971Y-29003500D01*
X179223946Y-28968894D01*
X179387827Y-28901013D01*
X179535315Y-28802464D01*
X179660744Y-28677035D01*
X179759293Y-28529547D01*
X179827174Y-28365666D01*
X179861780Y-28191691D01*
X179861780Y-28014309D01*
X179827174Y-27840334D01*
X179759293Y-27676453D01*
X179660744Y-27528965D01*
X179660740Y-27528961D01*
X179660738Y-27528958D01*
X179535321Y-27403541D01*
X179535317Y-27403538D01*
X179535315Y-27403536D01*
X179387827Y-27304987D01*
X179387824Y-27304985D01*
X179387823Y-27304985D01*
X179223946Y-27237106D01*
X179223940Y-27237104D01*
X179084388Y-27209346D01*
X179049971Y-27202500D01*
X178872589Y-27202500D01*
X178843856Y-27208215D01*
X178698619Y-27237104D01*
X178698613Y-27237106D01*
X178534736Y-27304985D01*
X178387238Y-27403541D01*
X178261821Y-27528958D01*
X178163265Y-27676456D01*
X178095386Y-27840333D01*
X178095384Y-27840339D01*
X178067769Y-27979172D01*
X178060780Y-28014309D01*
X148145621Y-28014309D01*
X147978768Y-27909469D01*
X147978765Y-27909467D01*
X147696691Y-27773628D01*
X147696676Y-27773622D01*
X147401185Y-27670226D01*
X147401163Y-27670219D01*
X147095942Y-27600555D01*
X146784829Y-27565500D01*
X146471730Y-27565500D01*
X146160619Y-27600555D01*
X146160615Y-27600555D01*
X145855396Y-27670219D01*
X145855374Y-27670226D01*
X145559883Y-27773622D01*
X145559868Y-27773628D01*
X145277794Y-27909467D01*
X145277791Y-27909469D01*
X145012690Y-28076042D01*
X144841441Y-28212607D01*
X145741275Y-29112442D01*
X145634809Y-29189795D01*
X145465075Y-29359529D01*
X145387722Y-29465995D01*
X144487887Y-28566161D01*
X144351322Y-28737410D01*
X144184749Y-29002511D01*
X144184747Y-29002514D01*
X144048908Y-29284588D01*
X144048902Y-29284603D01*
X143945506Y-29580094D01*
X143945499Y-29580116D01*
X143875835Y-29885335D01*
X143875835Y-29885339D01*
X143840780Y-30196450D01*
X116115779Y-30196450D01*
X116080724Y-29885339D01*
X116080724Y-29885335D01*
X116011060Y-29580116D01*
X116011053Y-29580094D01*
X115907657Y-29284603D01*
X115907651Y-29284588D01*
X115771812Y-29002514D01*
X115771810Y-29002511D01*
X115707782Y-28900610D01*
X115666292Y-28834579D01*
X120417780Y-28834579D01*
X120417780Y-29031420D01*
X120448569Y-29225817D01*
X120448570Y-29225820D01*
X120448571Y-29225826D01*
X120492014Y-29359529D01*
X120509396Y-29413025D01*
X120598753Y-29588401D01*
X120714456Y-29747651D01*
X120853628Y-29886823D01*
X120853631Y-29886825D01*
X120853634Y-29886828D01*
X121012290Y-30002099D01*
X121012878Y-30002526D01*
X121098829Y-30046319D01*
X121188255Y-30091884D01*
X121375454Y-30152709D01*
X121569861Y-30183499D01*
X121569862Y-30183500D01*
X121569863Y-30183500D01*
X121766698Y-30183500D01*
X121766698Y-30183499D01*
X121961106Y-30152709D01*
X122148305Y-30091884D01*
X122323685Y-30002524D01*
X122482926Y-29886828D01*
X122622108Y-29747646D01*
X122737804Y-29588405D01*
X122827164Y-29413025D01*
X122887989Y-29225826D01*
X122918780Y-29031417D01*
X122918780Y-28834583D01*
X122918779Y-28834579D01*
X123187780Y-28834579D01*
X123187780Y-29031420D01*
X123218569Y-29225817D01*
X123218570Y-29225820D01*
X123218571Y-29225826D01*
X123262014Y-29359529D01*
X123279396Y-29413025D01*
X123368753Y-29588401D01*
X123484456Y-29747651D01*
X123623628Y-29886823D01*
X123623631Y-29886825D01*
X123623634Y-29886828D01*
X123782290Y-30002099D01*
X123782878Y-30002526D01*
X123868829Y-30046319D01*
X123958255Y-30091884D01*
X124145454Y-30152709D01*
X124339861Y-30183499D01*
X124339862Y-30183500D01*
X124339863Y-30183500D01*
X124536698Y-30183500D01*
X124536698Y-30183499D01*
X124731106Y-30152709D01*
X124918305Y-30091884D01*
X125093685Y-30002524D01*
X125252926Y-29886828D01*
X125392108Y-29747646D01*
X125507804Y-29588405D01*
X125597164Y-29413025D01*
X125657989Y-29225826D01*
X125688780Y-29031417D01*
X125688780Y-28834583D01*
X125688779Y-28834579D01*
X125957780Y-28834579D01*
X125957780Y-29031420D01*
X125988569Y-29225817D01*
X125988570Y-29225820D01*
X125988571Y-29225826D01*
X126032014Y-29359529D01*
X126049396Y-29413025D01*
X126138753Y-29588401D01*
X126254456Y-29747651D01*
X126393628Y-29886823D01*
X126393631Y-29886825D01*
X126393634Y-29886828D01*
X126552290Y-30002099D01*
X126552878Y-30002526D01*
X126638829Y-30046319D01*
X126728255Y-30091884D01*
X126915454Y-30152709D01*
X127109861Y-30183499D01*
X127109862Y-30183500D01*
X127109863Y-30183500D01*
X127306698Y-30183500D01*
X127306698Y-30183499D01*
X127501106Y-30152709D01*
X127688305Y-30091884D01*
X127863685Y-30002524D01*
X128022926Y-29886828D01*
X128162108Y-29747646D01*
X128277804Y-29588405D01*
X128367164Y-29413025D01*
X128427989Y-29225826D01*
X128458780Y-29031417D01*
X128458780Y-28834583D01*
X128458779Y-28834579D01*
X128727780Y-28834579D01*
X128727780Y-29031420D01*
X128758569Y-29225817D01*
X128758570Y-29225820D01*
X128758571Y-29225826D01*
X128802014Y-29359529D01*
X128819396Y-29413025D01*
X128908753Y-29588401D01*
X129024456Y-29747651D01*
X129163628Y-29886823D01*
X129163631Y-29886825D01*
X129163634Y-29886828D01*
X129322290Y-30002099D01*
X129322878Y-30002526D01*
X129408829Y-30046319D01*
X129498255Y-30091884D01*
X129685454Y-30152709D01*
X129879861Y-30183499D01*
X129879862Y-30183500D01*
X129879863Y-30183500D01*
X130076698Y-30183500D01*
X130076698Y-30183499D01*
X130271106Y-30152709D01*
X130458305Y-30091884D01*
X130633685Y-30002524D01*
X130792926Y-29886828D01*
X130932108Y-29747646D01*
X131047804Y-29588405D01*
X131137164Y-29413025D01*
X131197989Y-29225826D01*
X131228780Y-29031417D01*
X131228780Y-28834583D01*
X131228779Y-28834579D01*
X131497780Y-28834579D01*
X131497780Y-29031420D01*
X131528569Y-29225817D01*
X131528570Y-29225820D01*
X131528571Y-29225826D01*
X131572014Y-29359529D01*
X131589396Y-29413025D01*
X131678753Y-29588401D01*
X131794456Y-29747651D01*
X131933628Y-29886823D01*
X131933631Y-29886825D01*
X131933634Y-29886828D01*
X132092290Y-30002099D01*
X132092878Y-30002526D01*
X132178829Y-30046319D01*
X132268255Y-30091884D01*
X132455454Y-30152709D01*
X132649861Y-30183499D01*
X132649862Y-30183500D01*
X132649863Y-30183500D01*
X132846698Y-30183500D01*
X132846698Y-30183499D01*
X133041106Y-30152709D01*
X133228305Y-30091884D01*
X133403685Y-30002524D01*
X133562926Y-29886828D01*
X133564419Y-29885335D01*
X133618899Y-29830856D01*
X133702103Y-29747651D01*
X133702108Y-29747646D01*
X133817804Y-29588405D01*
X133907164Y-29413025D01*
X133967989Y-29225826D01*
X133998780Y-29031417D01*
X133998780Y-28834619D01*
X134268280Y-28834619D01*
X134268280Y-29031380D01*
X134299057Y-29225700D01*
X134359857Y-29412826D01*
X134359861Y-29412835D01*
X134449180Y-29588136D01*
X134449190Y-29588152D01*
X134474599Y-29623124D01*
X134474601Y-29623125D01*
X135035317Y-29062408D01*
X135052355Y-29125993D01*
X135118181Y-29240007D01*
X135211273Y-29333099D01*
X135325287Y-29398925D01*
X135388869Y-29415962D01*
X134828154Y-29976678D01*
X134828154Y-29976679D01*
X134863136Y-30002096D01*
X134863135Y-30002096D01*
X135038444Y-30091418D01*
X135038453Y-30091422D01*
X135225579Y-30152222D01*
X135419899Y-30182999D01*
X135419902Y-30183000D01*
X135616658Y-30183000D01*
X135616660Y-30182999D01*
X135810980Y-30152222D01*
X135998106Y-30091422D01*
X135998115Y-30091418D01*
X136173417Y-30002099D01*
X136173420Y-30002097D01*
X136208405Y-29976678D01*
X135647690Y-29415962D01*
X135711273Y-29398925D01*
X135825287Y-29333099D01*
X135918379Y-29240007D01*
X135984205Y-29125993D01*
X136001242Y-29062409D01*
X136561958Y-29623125D01*
X136587377Y-29588140D01*
X136587379Y-29588137D01*
X136676698Y-29412835D01*
X136676702Y-29412826D01*
X136737502Y-29225700D01*
X136768279Y-29031380D01*
X136768280Y-29031378D01*
X136768280Y-28834621D01*
X136768279Y-28834619D01*
X137038280Y-28834619D01*
X137038280Y-29031380D01*
X137069057Y-29225700D01*
X137129857Y-29412826D01*
X137129861Y-29412835D01*
X137219180Y-29588136D01*
X137219190Y-29588152D01*
X137244599Y-29623124D01*
X137244601Y-29623125D01*
X137805317Y-29062408D01*
X137822355Y-29125993D01*
X137888181Y-29240007D01*
X137981273Y-29333099D01*
X138095287Y-29398925D01*
X138158869Y-29415962D01*
X137598154Y-29976678D01*
X137598154Y-29976679D01*
X137633136Y-30002096D01*
X137633135Y-30002096D01*
X137808444Y-30091418D01*
X137808453Y-30091422D01*
X137995579Y-30152222D01*
X138189899Y-30182999D01*
X138189902Y-30183000D01*
X138386658Y-30183000D01*
X138386660Y-30182999D01*
X138580980Y-30152222D01*
X138768106Y-30091422D01*
X138768115Y-30091418D01*
X138803672Y-30073302D01*
X138943417Y-30002099D01*
X138943420Y-30002097D01*
X138978405Y-29976678D01*
X138417690Y-29415962D01*
X138481273Y-29398925D01*
X138595287Y-29333099D01*
X138688379Y-29240007D01*
X138754205Y-29125993D01*
X138771242Y-29062409D01*
X139331958Y-29623125D01*
X139357377Y-29588140D01*
X139357379Y-29588137D01*
X139446698Y-29412835D01*
X139446702Y-29412826D01*
X139507502Y-29225700D01*
X139538279Y-29031380D01*
X139538280Y-29031378D01*
X139538280Y-28834621D01*
X139538279Y-28834619D01*
X139507502Y-28640299D01*
X139446702Y-28453173D01*
X139446698Y-28453164D01*
X139381802Y-28325795D01*
X139357376Y-28277856D01*
X139331959Y-28242874D01*
X139331958Y-28242874D01*
X138771242Y-28803589D01*
X138754205Y-28740007D01*
X138688379Y-28625993D01*
X138595287Y-28532901D01*
X138481273Y-28467075D01*
X138417689Y-28450037D01*
X138978405Y-27889321D01*
X138978404Y-27889319D01*
X138943432Y-27863910D01*
X138943416Y-27863900D01*
X138768115Y-27774581D01*
X138768106Y-27774577D01*
X138580980Y-27713777D01*
X138386660Y-27683000D01*
X138189899Y-27683000D01*
X137995579Y-27713777D01*
X137808453Y-27774577D01*
X137808444Y-27774581D01*
X137633136Y-27863903D01*
X137633132Y-27863906D01*
X137598154Y-27889319D01*
X137598153Y-27889320D01*
X138158870Y-28450037D01*
X138095287Y-28467075D01*
X137981273Y-28532901D01*
X137888181Y-28625993D01*
X137822355Y-28740007D01*
X137805317Y-28803590D01*
X137244600Y-28242873D01*
X137244599Y-28242874D01*
X137219186Y-28277852D01*
X137219183Y-28277856D01*
X137129861Y-28453164D01*
X137129857Y-28453173D01*
X137069057Y-28640299D01*
X137038280Y-28834619D01*
X136768279Y-28834619D01*
X136737502Y-28640299D01*
X136676702Y-28453173D01*
X136676698Y-28453164D01*
X136587376Y-28277856D01*
X136561959Y-28242874D01*
X136561958Y-28242874D01*
X136001242Y-28803589D01*
X135984205Y-28740007D01*
X135918379Y-28625993D01*
X135825287Y-28532901D01*
X135711273Y-28467075D01*
X135647689Y-28450037D01*
X136208405Y-27889321D01*
X136208404Y-27889319D01*
X136173432Y-27863910D01*
X136173416Y-27863900D01*
X135998115Y-27774581D01*
X135998106Y-27774577D01*
X135810980Y-27713777D01*
X135616660Y-27683000D01*
X135419899Y-27683000D01*
X135225579Y-27713777D01*
X135038453Y-27774577D01*
X135038444Y-27774581D01*
X134863136Y-27863903D01*
X134863132Y-27863906D01*
X134828154Y-27889319D01*
X134828153Y-27889320D01*
X135388870Y-28450037D01*
X135325287Y-28467075D01*
X135211273Y-28532901D01*
X135118181Y-28625993D01*
X135052355Y-28740007D01*
X135035317Y-28803590D01*
X134474600Y-28242873D01*
X134474599Y-28242874D01*
X134449186Y-28277852D01*
X134449183Y-28277856D01*
X134359861Y-28453164D01*
X134359857Y-28453173D01*
X134299057Y-28640299D01*
X134268280Y-28834619D01*
X133998780Y-28834619D01*
X133998780Y-28834583D01*
X133967989Y-28640174D01*
X133907164Y-28452975D01*
X133817804Y-28277595D01*
X133702108Y-28118354D01*
X133702105Y-28118351D01*
X133702103Y-28118348D01*
X133562931Y-27979176D01*
X133562927Y-27979173D01*
X133562926Y-27979172D01*
X133403685Y-27863476D01*
X133403681Y-27863473D01*
X133228305Y-27774116D01*
X133226785Y-27773622D01*
X133041106Y-27713291D01*
X133041100Y-27713290D01*
X133041097Y-27713289D01*
X132846700Y-27682500D01*
X132846697Y-27682500D01*
X132649863Y-27682500D01*
X132649859Y-27682500D01*
X132455462Y-27713289D01*
X132455457Y-27713290D01*
X132455454Y-27713291D01*
X132334064Y-27752733D01*
X132268254Y-27774116D01*
X132092878Y-27863473D01*
X131933628Y-27979176D01*
X131794456Y-28118348D01*
X131678753Y-28277598D01*
X131589396Y-28452974D01*
X131568013Y-28518784D01*
X131528571Y-28640174D01*
X131528570Y-28640177D01*
X131528569Y-28640182D01*
X131497780Y-28834579D01*
X131228779Y-28834579D01*
X131197989Y-28640174D01*
X131137164Y-28452975D01*
X131047804Y-28277595D01*
X130932108Y-28118354D01*
X130932105Y-28118351D01*
X130932103Y-28118348D01*
X130792931Y-27979176D01*
X130792927Y-27979173D01*
X130792926Y-27979172D01*
X130633685Y-27863476D01*
X130633681Y-27863473D01*
X130458305Y-27774116D01*
X130456785Y-27773622D01*
X130271106Y-27713291D01*
X130271100Y-27713290D01*
X130271097Y-27713289D01*
X130076700Y-27682500D01*
X130076697Y-27682500D01*
X129879863Y-27682500D01*
X129879859Y-27682500D01*
X129685462Y-27713289D01*
X129685457Y-27713290D01*
X129685454Y-27713291D01*
X129564064Y-27752733D01*
X129498254Y-27774116D01*
X129322878Y-27863473D01*
X129163628Y-27979176D01*
X129024456Y-28118348D01*
X128908753Y-28277598D01*
X128819396Y-28452974D01*
X128798013Y-28518784D01*
X128758571Y-28640174D01*
X128758570Y-28640177D01*
X128758569Y-28640182D01*
X128727780Y-28834579D01*
X128458779Y-28834579D01*
X128427989Y-28640174D01*
X128367164Y-28452975D01*
X128277804Y-28277595D01*
X128162108Y-28118354D01*
X128162105Y-28118351D01*
X128162103Y-28118348D01*
X128022931Y-27979176D01*
X128022927Y-27979173D01*
X128022926Y-27979172D01*
X127863685Y-27863476D01*
X127863681Y-27863473D01*
X127688305Y-27774116D01*
X127686785Y-27773622D01*
X127501106Y-27713291D01*
X127501100Y-27713290D01*
X127501097Y-27713289D01*
X127306700Y-27682500D01*
X127306697Y-27682500D01*
X127109863Y-27682500D01*
X127109859Y-27682500D01*
X126915462Y-27713289D01*
X126915457Y-27713290D01*
X126915454Y-27713291D01*
X126794064Y-27752733D01*
X126728254Y-27774116D01*
X126552878Y-27863473D01*
X126393628Y-27979176D01*
X126254456Y-28118348D01*
X126138753Y-28277598D01*
X126049396Y-28452974D01*
X126028013Y-28518784D01*
X125988571Y-28640174D01*
X125988570Y-28640177D01*
X125988569Y-28640182D01*
X125957780Y-28834579D01*
X125688779Y-28834579D01*
X125657989Y-28640174D01*
X125597164Y-28452975D01*
X125507804Y-28277595D01*
X125392108Y-28118354D01*
X125392105Y-28118351D01*
X125392103Y-28118348D01*
X125252931Y-27979176D01*
X125252927Y-27979173D01*
X125252926Y-27979172D01*
X125093685Y-27863476D01*
X125093681Y-27863473D01*
X124918305Y-27774116D01*
X124916785Y-27773622D01*
X124731106Y-27713291D01*
X124731100Y-27713290D01*
X124731097Y-27713289D01*
X124536700Y-27682500D01*
X124536697Y-27682500D01*
X124339863Y-27682500D01*
X124339859Y-27682500D01*
X124145462Y-27713289D01*
X124145457Y-27713290D01*
X124145454Y-27713291D01*
X124024064Y-27752733D01*
X123958254Y-27774116D01*
X123782878Y-27863473D01*
X123623628Y-27979176D01*
X123484456Y-28118348D01*
X123368753Y-28277598D01*
X123279396Y-28452974D01*
X123258013Y-28518784D01*
X123218571Y-28640174D01*
X123218570Y-28640177D01*
X123218569Y-28640182D01*
X123187780Y-28834579D01*
X122918779Y-28834579D01*
X122887989Y-28640174D01*
X122827164Y-28452975D01*
X122737804Y-28277595D01*
X122622108Y-28118354D01*
X122622105Y-28118351D01*
X122622103Y-28118348D01*
X122482931Y-27979176D01*
X122482927Y-27979173D01*
X122482926Y-27979172D01*
X122323685Y-27863476D01*
X122323681Y-27863473D01*
X122148305Y-27774116D01*
X122146785Y-27773622D01*
X121961106Y-27713291D01*
X121961100Y-27713290D01*
X121961097Y-27713289D01*
X121766700Y-27682500D01*
X121766697Y-27682500D01*
X121569863Y-27682500D01*
X121569859Y-27682500D01*
X121375462Y-27713289D01*
X121375457Y-27713290D01*
X121375454Y-27713291D01*
X121254064Y-27752733D01*
X121188254Y-27774116D01*
X121012878Y-27863473D01*
X120853628Y-27979176D01*
X120714456Y-28118348D01*
X120598753Y-28277598D01*
X120509396Y-28452974D01*
X120488013Y-28518784D01*
X120448571Y-28640174D01*
X120448570Y-28640177D01*
X120448569Y-28640182D01*
X120417780Y-28834579D01*
X115666292Y-28834579D01*
X115605239Y-28737413D01*
X115468670Y-28566162D01*
X114568837Y-29465995D01*
X114491485Y-29359529D01*
X114321751Y-29189795D01*
X114215283Y-29112442D01*
X115115117Y-28212608D01*
X114943866Y-28076040D01*
X114678768Y-27909469D01*
X114678765Y-27909467D01*
X114396691Y-27773628D01*
X114396676Y-27773622D01*
X114101185Y-27670226D01*
X114101163Y-27670219D01*
X113795942Y-27600555D01*
X113484829Y-27565500D01*
X113171730Y-27565500D01*
X112860619Y-27600555D01*
X112860615Y-27600555D01*
X112555396Y-27670219D01*
X112555374Y-27670226D01*
X112259883Y-27773622D01*
X112259868Y-27773628D01*
X111977794Y-27909467D01*
X111977791Y-27909469D01*
X111712690Y-28076042D01*
X111541441Y-28212607D01*
X112441275Y-29112442D01*
X112334809Y-29189795D01*
X112165075Y-29359529D01*
X112087722Y-29465995D01*
X111187887Y-28566161D01*
X111051322Y-28737410D01*
X110884749Y-29002511D01*
X110884747Y-29002514D01*
X110748908Y-29284588D01*
X110748902Y-29284603D01*
X110645506Y-29580094D01*
X110645499Y-29580116D01*
X110575835Y-29885335D01*
X110575835Y-29885339D01*
X110540780Y-30196450D01*
X109500500Y-30196450D01*
X109500500Y-21134500D01*
X109521772Y-21062054D01*
X109578834Y-21012609D01*
X109634500Y-21000500D01*
X152509806Y-21000500D01*
X152582252Y-21021772D01*
G37*
%TD.AperFunction*%
%TD*%
M02*
