%TF.GenerationSoftware,KiCad,Pcbnew,10.0.3*%
%TF.CreationDate,2026-07-08T18:41:42-07:00*%
%TF.ProjectId,fluidics-v2,666c7569-6469-4637-932d-76322e6b6963,rev?*%
%TF.SameCoordinates,Original*%
%TF.FileFunction,Soldermask,Top*%
%TF.FilePolarity,Negative*%
%FSLAX46Y46*%
G04 Gerber Fmt 4.6, Leading zero omitted, Abs format (unit mm)*
G04 Created by KiCad (PCBNEW 10.0.3) date 2026-07-08 18:41:42*
%MOMM*%
%LPD*%
G01*
G04 APERTURE LIST*
G04 Aperture macros list*
%AMRoundRect*
0 Rectangle with rounded corners*
0 $1 Rounding radius*
0 $2 $3 $4 $5 $6 $7 $8 $9 X,Y pos of 4 corners*
0 Add a 4 corners polygon primitive as box body*
4,1,4,$2,$3,$4,$5,$6,$7,$8,$9,$2,$3,0*
0 Add four circle primitives for the rounded corners*
1,1,$1+$1,$2,$3*
1,1,$1+$1,$4,$5*
1,1,$1+$1,$6,$7*
1,1,$1+$1,$8,$9*
0 Add four rect primitives between the rounded corners*
20,1,$1+$1,$2,$3,$4,$5,0*
20,1,$1+$1,$4,$5,$6,$7,0*
20,1,$1+$1,$6,$7,$8,$9,0*
20,1,$1+$1,$8,$9,$2,$3,0*%
G04 Aperture macros list end*
%ADD10R,2.750000X1.000000*%
%ADD11C,0.525000*%
%ADD12R,1.525000X0.650000*%
%ADD13RoundRect,0.135000X-0.185000X0.135000X-0.185000X-0.135000X0.185000X-0.135000X0.185000X0.135000X0*%
%ADD14RoundRect,0.200000X-0.200000X-0.275000X0.200000X-0.275000X0.200000X0.275000X-0.200000X0.275000X0*%
%ADD15R,3.403600X0.711200*%
%ADD16R,2.387600X1.600200*%
%ADD17R,1.650000X1.650000*%
%ADD18C,1.650000*%
%ADD19RoundRect,0.250000X-0.250000X-0.475000X0.250000X-0.475000X0.250000X0.475000X-0.250000X0.475000X0*%
%ADD20RoundRect,0.135000X0.185000X-0.135000X0.185000X0.135000X-0.185000X0.135000X-0.185000X-0.135000X0*%
%ADD21R,0.558800X2.184400*%
%ADD22R,0.800000X1.300000*%
%ADD23R,2.100000X3.000000*%
%ADD24RoundRect,0.147500X-0.147500X-0.172500X0.147500X-0.172500X0.147500X0.172500X-0.147500X0.172500X0*%
%ADD25RoundRect,0.225000X-0.225000X-0.250000X0.225000X-0.250000X0.225000X0.250000X-0.225000X0.250000X0*%
%ADD26RoundRect,0.250000X-0.450000X0.262500X-0.450000X-0.262500X0.450000X-0.262500X0.450000X0.262500X0*%
%ADD27RoundRect,0.135000X-0.135000X-0.185000X0.135000X-0.185000X0.135000X0.185000X-0.135000X0.185000X0*%
%ADD28RoundRect,0.237500X0.237500X-0.250000X0.237500X0.250000X-0.237500X0.250000X-0.237500X-0.250000X0*%
%ADD29RoundRect,0.225000X-0.250000X0.225000X-0.250000X-0.225000X0.250000X-0.225000X0.250000X0.225000X0*%
%ADD30RoundRect,0.250000X-1.400000X-1.000000X1.400000X-1.000000X1.400000X1.000000X-1.400000X1.000000X0*%
%ADD31C,0.700000*%
%ADD32C,4.400000*%
%ADD33C,1.600000*%
%ADD34O,4.500000X2.250000*%
%ADD35O,4.000000X2.000000*%
%ADD36O,2.000000X4.000000*%
%ADD37R,1.900000X1.000000*%
%ADD38C,1.100000*%
%ADD39RoundRect,0.249999X-0.850001X0.850001X-0.850001X-0.850001X0.850001X-0.850001X0.850001X0.850001X0*%
%ADD40C,2.200000*%
%ADD41RoundRect,0.100500X-0.986500X-0.301500X0.986500X-0.301500X0.986500X0.301500X-0.986500X0.301500X0*%
%ADD42C,1.574800*%
%ADD43C,1.400000*%
%ADD44R,1.475000X0.450000*%
%ADD45RoundRect,0.225000X0.225000X0.250000X-0.225000X0.250000X-0.225000X-0.250000X0.225000X-0.250000X0*%
%ADD46R,0.300000X0.866400*%
%ADD47RoundRect,0.225000X0.250000X-0.225000X0.250000X0.225000X-0.250000X0.225000X-0.250000X-0.225000X0*%
%ADD48RoundRect,0.250000X0.475000X-0.250000X0.475000X0.250000X-0.475000X0.250000X-0.475000X-0.250000X0*%
%ADD49RoundRect,0.243750X-0.243750X-0.456250X0.243750X-0.456250X0.243750X0.456250X-0.243750X0.456250X0*%
%ADD50RoundRect,0.250000X0.250000X0.475000X-0.250000X0.475000X-0.250000X-0.475000X0.250000X-0.475000X0*%
%ADD51R,1.500000X1.500000*%
%ADD52RoundRect,0.150000X-0.150000X0.512500X-0.150000X-0.512500X0.150000X-0.512500X0.150000X0.512500X0*%
%ADD53C,1.500000*%
%ADD54C,4.575000*%
%ADD55RoundRect,0.243750X-0.456250X0.243750X-0.456250X-0.243750X0.456250X-0.243750X0.456250X0.243750X0*%
%ADD56R,0.838200X0.355600*%
%ADD57RoundRect,0.243750X0.456250X-0.243750X0.456250X0.243750X-0.456250X0.243750X-0.456250X-0.243750X0*%
%ADD58RoundRect,0.135000X0.135000X0.185000X-0.135000X0.185000X-0.135000X-0.185000X0.135000X-0.185000X0*%
G04 APERTURE END LIST*
D10*
%TO.C,J10*%
X156350000Y-51000000D03*
X160600000Y-51000000D03*
X156350000Y-53000000D03*
X160600000Y-53000000D03*
X156350000Y-55000000D03*
X160600000Y-55000000D03*
X156350000Y-57000000D03*
X160600000Y-57000000D03*
X156350000Y-59000000D03*
X160600000Y-59000000D03*
D11*
X158475000Y-52000000D03*
X158475000Y-58000000D03*
%TD*%
D12*
%TO.C,IC2*%
X131463280Y-43965000D03*
X131463280Y-42695000D03*
X131463280Y-41425000D03*
X131463280Y-40155000D03*
X126039280Y-40155000D03*
X126039280Y-41425000D03*
X126039280Y-42695000D03*
X126039280Y-43965000D03*
%TD*%
D13*
%TO.C,R5*%
X148309280Y-86794500D03*
X148309280Y-87814500D03*
%TD*%
D14*
%TO.C,R10*%
X177646280Y-104403000D03*
X179296280Y-104403000D03*
%TD*%
D15*
%TO.C,J2*%
X128961280Y-103103001D03*
X128961280Y-101603002D03*
X128961280Y-100103002D03*
X128961280Y-98603000D03*
X128961280Y-97103000D03*
X128961280Y-95603001D03*
D16*
X127011279Y-105153002D03*
X127011279Y-93553000D03*
%TD*%
D17*
%TO.C,J22*%
X114659000Y-65160000D03*
D18*
X114659000Y-67700000D03*
%TD*%
D19*
%TO.C,C8*%
X124925280Y-45616000D03*
X126825280Y-45616000D03*
%TD*%
D10*
%TO.C,J12*%
X145650000Y-51000000D03*
X149900000Y-51000000D03*
X145650000Y-53000000D03*
X149900000Y-53000000D03*
X145650000Y-55000000D03*
X149900000Y-55000000D03*
X145650000Y-57000000D03*
X149900000Y-57000000D03*
X145650000Y-59000000D03*
X149900000Y-59000000D03*
D11*
X147775000Y-52000000D03*
X147775000Y-58000000D03*
%TD*%
D20*
%TO.C,R40*%
X150461280Y-95613000D03*
X150461280Y-94593000D03*
%TD*%
D21*
%TO.C,U12*%
X143102280Y-74114800D03*
X141832280Y-74114800D03*
X140562280Y-74114800D03*
X139292280Y-74114800D03*
X138022280Y-74114800D03*
X136752280Y-74114800D03*
X135482280Y-74114800D03*
X134212280Y-74114800D03*
X134212280Y-78839200D03*
X135482280Y-78839200D03*
X136752280Y-78839200D03*
X138022280Y-78839200D03*
X139292280Y-78839200D03*
X140562280Y-78839200D03*
X141832280Y-78839200D03*
X143102280Y-78839200D03*
%TD*%
D22*
%TO.C,J20*%
X161694280Y-98223500D03*
X162944280Y-98223500D03*
X164194280Y-98223500D03*
X165444280Y-98223500D03*
X166694280Y-98223500D03*
X167944280Y-98223500D03*
D23*
X159144280Y-100973500D03*
X170494280Y-100973500D03*
%TD*%
D24*
%TO.C,D11*%
X172576280Y-108028000D03*
X173546280Y-108028000D03*
%TD*%
D25*
%TO.C,C5*%
X132212280Y-45616000D03*
X133762280Y-45616000D03*
%TD*%
D17*
%TO.C,J24*%
X125500000Y-75500000D03*
D18*
X125500000Y-78040000D03*
%TD*%
D26*
%TO.C,R3*%
X149071280Y-71500500D03*
X149071280Y-73325500D03*
%TD*%
D27*
%TO.C,R9*%
X176961280Y-101453000D03*
X177981280Y-101453000D03*
%TD*%
D28*
%TO.C,R51*%
X163803280Y-73175000D03*
X163803280Y-71350000D03*
%TD*%
D29*
%TO.C,C20*%
X149608280Y-35595000D03*
X149608280Y-37145000D03*
%TD*%
D30*
%TO.C,D21*%
X175233280Y-22531000D03*
X175233280Y-29331000D03*
%TD*%
D10*
%TO.C,J18*%
X124250000Y-51000000D03*
X128500000Y-51000000D03*
X124250000Y-53000000D03*
X128500000Y-53000000D03*
X124250000Y-55000000D03*
X128500000Y-55000000D03*
X124250000Y-57000000D03*
X128500000Y-57000000D03*
X124250000Y-59000000D03*
X128500000Y-59000000D03*
D11*
X126375000Y-52000000D03*
X126375000Y-58000000D03*
%TD*%
D24*
%TO.C,D10*%
X172576280Y-104988000D03*
X173546280Y-104988000D03*
%TD*%
D20*
%TO.C,R23*%
X122319280Y-44094000D03*
X122319280Y-43074000D03*
%TD*%
D13*
%TO.C,R41*%
X146961280Y-105583000D03*
X146961280Y-106603000D03*
%TD*%
D31*
%TO.C,H2*%
X113385280Y-38631000D03*
X113868554Y-37464274D03*
X113868554Y-39797726D03*
X115035280Y-36981000D03*
D32*
X115035280Y-38631000D03*
D31*
X115035280Y-40281000D03*
X116202006Y-37464274D03*
X116202006Y-39797726D03*
X116685280Y-38631000D03*
%TD*%
D33*
%TO.C,J1*%
X157707280Y-21613000D03*
D34*
X157707280Y-30613000D03*
D35*
X157707280Y-24613000D03*
D36*
X153207280Y-23613000D03*
X162207280Y-23613000D03*
%TD*%
D37*
%TO.C,U2*%
X166091280Y-22121000D03*
X169391280Y-22121000D03*
X166091280Y-24661000D03*
X169391280Y-24661000D03*
X166091280Y-27201000D03*
X169391280Y-27201000D03*
X166091280Y-29741000D03*
X169391280Y-29741000D03*
X166091280Y-32281000D03*
X169391280Y-32281000D03*
X166091280Y-34821000D03*
X169391280Y-34821000D03*
X166091280Y-37361000D03*
X169391280Y-37361000D03*
X166091280Y-39901000D03*
X169391280Y-39901000D03*
X166091280Y-42441000D03*
X169391280Y-42441000D03*
X166091280Y-44981000D03*
X169391280Y-44981000D03*
X166091280Y-47521000D03*
X169391280Y-47521000D03*
X166091280Y-50061000D03*
X169391280Y-50061000D03*
X166091280Y-52601000D03*
X169391280Y-52601000D03*
X166091280Y-55141000D03*
X169391280Y-55141000D03*
X166091280Y-57681000D03*
X169391280Y-57681000D03*
X166091280Y-60221000D03*
X169391280Y-60221000D03*
X166091280Y-62761000D03*
X169391280Y-62761000D03*
X166091280Y-65301000D03*
X169391280Y-65301000D03*
X166091280Y-67841000D03*
X169391280Y-67841000D03*
X166091280Y-70381000D03*
X169391280Y-70381000D03*
X166091280Y-72921000D03*
X169391280Y-72921000D03*
X166091280Y-75461000D03*
X169391280Y-75461000D03*
X166091280Y-78001000D03*
X169391280Y-78001000D03*
X166091280Y-80541000D03*
X169391280Y-80541000D03*
X181331280Y-80541000D03*
X184631280Y-80541000D03*
X181331280Y-78001000D03*
X184631280Y-78001000D03*
X181331280Y-75461000D03*
X184631280Y-75461000D03*
X181331280Y-72921000D03*
X184631280Y-72921000D03*
X181331280Y-70381000D03*
X184631280Y-70381000D03*
X181331280Y-67841000D03*
X184631280Y-67841000D03*
X181331280Y-65301000D03*
X184631280Y-65301000D03*
X181331280Y-62761000D03*
X184631280Y-62761000D03*
X181331280Y-60221000D03*
X184631280Y-60221000D03*
X181331280Y-57681000D03*
X184631280Y-57681000D03*
X181331280Y-55141000D03*
X184631280Y-55141000D03*
X181331280Y-52601000D03*
X184631280Y-52601000D03*
X181331280Y-50061000D03*
X184631280Y-50061000D03*
X181331280Y-47521000D03*
X184631280Y-47521000D03*
X181331280Y-44981000D03*
X184631280Y-44981000D03*
X181331280Y-42441000D03*
X184631280Y-42441000D03*
X181331280Y-39901000D03*
X184631280Y-39901000D03*
X181331280Y-37361000D03*
X184631280Y-37361000D03*
X181331280Y-34821000D03*
X184631280Y-34821000D03*
X181331280Y-32281000D03*
X184631280Y-32281000D03*
X181331280Y-29741000D03*
X184631280Y-29741000D03*
X181331280Y-27201000D03*
X184631280Y-27201000D03*
X181331280Y-24661000D03*
X184631280Y-24661000D03*
X181331280Y-22121000D03*
X184631280Y-22121000D03*
%TD*%
D17*
%TO.C,J11*%
X157459000Y-65160000D03*
D18*
X157459000Y-67700000D03*
%TD*%
D22*
%TO.C,J17*%
X167944280Y-108701000D03*
X166694280Y-108701000D03*
X165444280Y-108701000D03*
X164194280Y-108701000D03*
X162944280Y-108701000D03*
X161694280Y-108701000D03*
D23*
X170494280Y-105951000D03*
X159144280Y-105951000D03*
%TD*%
D38*
%TO.C,J7*%
X111500000Y-101000000D03*
X111500000Y-103540000D03*
D39*
X114040000Y-101000000D03*
D40*
X114040000Y-103540000D03*
%TD*%
D41*
%TO.C,U1*%
X181011280Y-87483000D03*
X181011280Y-88753000D03*
X181011280Y-90023000D03*
X181011280Y-91293000D03*
X181011280Y-92563000D03*
X181011280Y-93833000D03*
X181011280Y-95103000D03*
X181011280Y-96373000D03*
X185961280Y-96373000D03*
X185961280Y-95103000D03*
X185961280Y-93833000D03*
X185961280Y-92563000D03*
X185961280Y-91293000D03*
X185961280Y-90023000D03*
X185961280Y-88753000D03*
X185961280Y-87483000D03*
%TD*%
D13*
%TO.C,R42*%
X144971280Y-105583000D03*
X144971280Y-106603000D03*
%TD*%
D42*
%TO.C,U4*%
X161517280Y-71905000D03*
X158977280Y-71905000D03*
X156437280Y-71905000D03*
X153897280Y-71905000D03*
X151357280Y-71905000D03*
%TD*%
D31*
%TO.C,H4*%
X113350000Y-112000000D03*
X113833274Y-110833274D03*
X113833274Y-113166726D03*
X115000000Y-110350000D03*
D32*
X115000000Y-112000000D03*
D31*
X115000000Y-113650000D03*
X116166726Y-110833274D03*
X116166726Y-113166726D03*
X116650000Y-112000000D03*
%TD*%
D43*
%TO.C,TP2*%
X126445280Y-36345000D03*
X123905280Y-36345000D03*
%TD*%
D44*
%TO.C,U11*%
X145434280Y-40352000D03*
X145434280Y-39702000D03*
X145434280Y-39052000D03*
X145434280Y-38402000D03*
X145434280Y-37752000D03*
X145434280Y-37102000D03*
X145434280Y-36452000D03*
X145434280Y-35802000D03*
X139558280Y-35802000D03*
X139558280Y-36452000D03*
X139558280Y-37102000D03*
X139558280Y-37752000D03*
X139558280Y-38402000D03*
X139558280Y-39052000D03*
X139558280Y-39702000D03*
X139558280Y-40352000D03*
%TD*%
D45*
%TO.C,C9*%
X123430280Y-45489000D03*
X121880280Y-45489000D03*
%TD*%
D17*
%TO.C,J19*%
X125359000Y-65160000D03*
D18*
X125359000Y-67700000D03*
%TD*%
D46*
%TO.C,U6*%
X123843280Y-39520000D03*
X123193281Y-39520000D03*
X122543282Y-39520000D03*
X122543282Y-41358402D03*
X123193281Y-41358402D03*
X123843280Y-41358402D03*
%TD*%
D47*
%TO.C,C17*%
X148084280Y-38161000D03*
X148084280Y-36611000D03*
%TD*%
D25*
%TO.C,C15*%
X139422280Y-41958000D03*
X140972280Y-41958000D03*
%TD*%
D48*
%TO.C,C18*%
X137416280Y-41318000D03*
X137416280Y-39418000D03*
%TD*%
D47*
%TO.C,C6*%
X120369280Y-41311000D03*
X120369280Y-39761000D03*
%TD*%
D20*
%TO.C,R22*%
X123417280Y-44094000D03*
X123417280Y-43074000D03*
%TD*%
D10*
%TO.C,J25*%
X113711280Y-73603000D03*
X117961280Y-73603000D03*
X113711280Y-75603000D03*
X117961280Y-75603000D03*
X113711280Y-77603000D03*
X117961280Y-77603000D03*
X113711280Y-79603000D03*
X117961280Y-79603000D03*
X113711280Y-81603000D03*
X117961280Y-81603000D03*
D11*
X115836280Y-74603000D03*
X115836280Y-80603000D03*
%TD*%
D43*
%TO.C,TP1*%
X134003280Y-40300000D03*
X134003280Y-42840000D03*
%TD*%
D25*
%TO.C,C22*%
X139961280Y-81103000D03*
X141511280Y-81103000D03*
%TD*%
D20*
%TO.C,R44*%
X164961280Y-95603000D03*
X164961280Y-94583000D03*
%TD*%
D24*
%TO.C,D9*%
X172576280Y-101948000D03*
X173546280Y-101948000D03*
%TD*%
%TO.C,D12*%
X172515000Y-99000000D03*
X173485000Y-99000000D03*
%TD*%
D20*
%TO.C,R43*%
X162971280Y-95603000D03*
X162971280Y-94583000D03*
%TD*%
D49*
%TO.C,D3*%
X155650280Y-35075000D03*
X157525280Y-35075000D03*
%TD*%
D50*
%TO.C,C7*%
X130381280Y-45616000D03*
X128481280Y-45616000D03*
%TD*%
D19*
%TO.C,C24*%
X139466280Y-82993001D03*
X141366280Y-82993001D03*
%TD*%
D47*
%TO.C,C16*%
X148084280Y-41209000D03*
X148084280Y-39659000D03*
%TD*%
D38*
%TO.C,J6*%
X111500000Y-94000000D03*
X111500000Y-96540000D03*
D39*
X114040000Y-94000000D03*
D40*
X114040000Y-96540000D03*
%TD*%
D27*
%TO.C,R1*%
X128990000Y-36000000D03*
X130010000Y-36000000D03*
%TD*%
D51*
%TO.C,TP3*%
X132500000Y-37000000D03*
%TD*%
D27*
%TO.C,R12*%
X176990000Y-98000000D03*
X178010000Y-98000000D03*
%TD*%
D52*
%TO.C,U3*%
X149259280Y-80552000D03*
X148309280Y-80552000D03*
X147359280Y-80552000D03*
X147359280Y-82827000D03*
X149259280Y-82827000D03*
%TD*%
D45*
%TO.C,C21*%
X146798280Y-74191000D03*
X145248280Y-74191000D03*
%TD*%
D53*
%TO.C,J3*%
X139673280Y-31773000D03*
X136903280Y-31773000D03*
X134133280Y-31773000D03*
X131363280Y-31773000D03*
X128593280Y-31773000D03*
X125823280Y-31773000D03*
X123053280Y-31773000D03*
X120283280Y-31773000D03*
X138288280Y-28933000D03*
X135518280Y-28933000D03*
X132748280Y-28933000D03*
X129978280Y-28933000D03*
X127208280Y-28933000D03*
X124438280Y-28933000D03*
X121668280Y-28933000D03*
D54*
X113328280Y-30353000D03*
X146628280Y-30353000D03*
%TD*%
D50*
%TO.C,C23*%
X146719280Y-75969000D03*
X144819280Y-75969000D03*
%TD*%
D10*
%TO.C,J14*%
X134950000Y-51000000D03*
X139200000Y-51000000D03*
X134950000Y-53000000D03*
X139200000Y-53000000D03*
X134950000Y-55000000D03*
X139200000Y-55000000D03*
X134950000Y-57000000D03*
X139200000Y-57000000D03*
X134950000Y-59000000D03*
X139200000Y-59000000D03*
D11*
X137075000Y-52000000D03*
X137075000Y-58000000D03*
%TD*%
D45*
%TO.C,C2*%
X149658280Y-84483500D03*
X148108280Y-84483500D03*
%TD*%
D17*
%TO.C,J16*%
X136059000Y-65160000D03*
D18*
X136059000Y-67700000D03*
%TD*%
D20*
%TO.C,R39*%
X148471280Y-95613000D03*
X148471280Y-94593000D03*
%TD*%
D29*
%TO.C,C19*%
X149608280Y-40167000D03*
X149608280Y-41717000D03*
%TD*%
D17*
%TO.C,J13*%
X146759000Y-65160000D03*
D18*
X146759000Y-67700000D03*
%TD*%
D31*
%TO.C,H3*%
X183850000Y-112500000D03*
X184333274Y-111333274D03*
X184333274Y-113666726D03*
X185500000Y-110850000D03*
D32*
X185500000Y-112500000D03*
D31*
X185500000Y-114150000D03*
X186666726Y-111333274D03*
X186666726Y-113666726D03*
X187150000Y-112500000D03*
%TD*%
D10*
%TO.C,J21*%
X113550000Y-51000000D03*
X117800000Y-51000000D03*
X113550000Y-53000000D03*
X117800000Y-53000000D03*
X113550000Y-55000000D03*
X117800000Y-55000000D03*
X113550000Y-57000000D03*
X117800000Y-57000000D03*
X113550000Y-59000000D03*
X117800000Y-59000000D03*
D11*
X115675000Y-52000000D03*
X115675000Y-58000000D03*
%TD*%
D27*
%TO.C,R11*%
X176961280Y-107353000D03*
X177981280Y-107353000D03*
%TD*%
D55*
%TO.C,D4*%
X146531280Y-86207500D03*
X146531280Y-88082500D03*
%TD*%
D22*
%TO.C,J15*%
X146962280Y-98257500D03*
X148212280Y-98257500D03*
X149462280Y-98257500D03*
X150712280Y-98257500D03*
X151962280Y-98257500D03*
X153212280Y-98257500D03*
D23*
X144412280Y-101007500D03*
X155762280Y-101007500D03*
%TD*%
D38*
%TO.C,J5*%
X111460000Y-86960000D03*
X111460000Y-89500000D03*
D39*
X114000000Y-86960000D03*
D40*
X114000000Y-89500000D03*
%TD*%
D56*
%TO.C,U13*%
X139853679Y-86637000D03*
X139853679Y-85987001D03*
X139853679Y-85337002D03*
X137770879Y-85337002D03*
X137770879Y-85987001D03*
X137770879Y-86637000D03*
%TD*%
D57*
%TO.C,D2*%
X149000000Y-76906500D03*
X149000000Y-75031500D03*
%TD*%
D58*
%TO.C,R4*%
X161161780Y-35075000D03*
X160141780Y-35075000D03*
%TD*%
D25*
%TO.C,C1*%
X147600280Y-78895500D03*
X149150280Y-78895500D03*
%TD*%
D15*
%TO.C,J4*%
X137461280Y-95603001D03*
X137461280Y-97103000D03*
X137461280Y-98603000D03*
X137461280Y-100103002D03*
X137461280Y-101603002D03*
X137461280Y-103103001D03*
D16*
X139411281Y-93553000D03*
X139411281Y-105153002D03*
%TD*%
M02*
