%TF.GenerationSoftware,KiCad,Pcbnew,10.0.3*%
%TF.CreationDate,2026-07-08T18:41:42-07:00*%
%TF.ProjectId,fluidics-v2,666c7569-6469-4637-932d-76322e6b6963,rev?*%
%TF.SameCoordinates,Original*%
%TF.FileFunction,Soldermask,Bot*%
%TF.FilePolarity,Negative*%
%FSLAX46Y46*%
G04 Gerber Fmt 4.6, Leading zero omitted, Abs format (unit mm)*
G04 Created by KiCad (PCBNEW 10.0.3) date 2026-07-08 18:41:42*
%MOMM*%
%LPD*%
G01*
G04 APERTURE LIST*
G04 Aperture macros list*
%AMRoundRect*
0 Rectangle with rounded corners*
0 $1 Rounding radius*
0 $2 $3 $4 $5 $6 $7 $8 $9 X,Y pos of 4 corners*
0 Add a 4 corners polygon primitive as box body*
4,1,4,$2,$3,$4,$5,$6,$7,$8,$9,$2,$3,0*
0 Add four circle primitives for the rounded corners*
1,1,$1+$1,$2,$3*
1,1,$1+$1,$4,$5*
1,1,$1+$1,$6,$7*
1,1,$1+$1,$8,$9*
0 Add four rect primitives between the rounded corners*
20,1,$1+$1,$2,$3,$4,$5,0*
20,1,$1+$1,$4,$5,$6,$7,0*
20,1,$1+$1,$6,$7,$8,$9,0*
20,1,$1+$1,$8,$9,$2,$3,0*%
G04 Aperture macros list end*
%ADD10C,0.525000*%
%ADD11R,1.650000X1.650000*%
%ADD12C,1.650000*%
%ADD13C,0.700000*%
%ADD14C,4.400000*%
%ADD15C,1.600000*%
%ADD16O,4.500000X2.250000*%
%ADD17O,4.000000X2.000000*%
%ADD18O,2.000000X4.000000*%
%ADD19C,1.100000*%
%ADD20RoundRect,0.249999X-0.850001X0.850001X-0.850001X-0.850001X0.850001X-0.850001X0.850001X0.850001X0*%
%ADD21C,2.200000*%
%ADD22C,1.574800*%
%ADD23C,1.400000*%
%ADD24R,1.500000X1.500000*%
%ADD25C,1.500000*%
%ADD26C,4.575000*%
G04 APERTURE END LIST*
D10*
%TO.C,J10*%
X158475000Y-52000000D03*
X158475000Y-58000000D03*
%TD*%
D11*
%TO.C,J22*%
X114659000Y-65160000D03*
D12*
X114659000Y-67700000D03*
%TD*%
D10*
%TO.C,J12*%
X147775000Y-52000000D03*
X147775000Y-58000000D03*
%TD*%
D11*
%TO.C,J24*%
X125500000Y-75500000D03*
D12*
X125500000Y-78040000D03*
%TD*%
D10*
%TO.C,J18*%
X126375000Y-52000000D03*
X126375000Y-58000000D03*
%TD*%
D13*
%TO.C,H2*%
X113385280Y-38631000D03*
X113868554Y-37464274D03*
X113868554Y-39797726D03*
X115035280Y-36981000D03*
D14*
X115035280Y-38631000D03*
D13*
X115035280Y-40281000D03*
X116202006Y-37464274D03*
X116202006Y-39797726D03*
X116685280Y-38631000D03*
%TD*%
D15*
%TO.C,J1*%
X157707280Y-21613000D03*
D16*
X157707280Y-30613000D03*
D17*
X157707280Y-24613000D03*
D18*
X153207280Y-23613000D03*
X162207280Y-23613000D03*
%TD*%
D11*
%TO.C,J11*%
X157459000Y-65160000D03*
D12*
X157459000Y-67700000D03*
%TD*%
D19*
%TO.C,J7*%
X111500000Y-101000000D03*
X111500000Y-103540000D03*
D20*
X114040000Y-101000000D03*
D21*
X114040000Y-103540000D03*
%TD*%
D22*
%TO.C,U4*%
X161517280Y-71905000D03*
X158977280Y-71905000D03*
X156437280Y-71905000D03*
X153897280Y-71905000D03*
X151357280Y-71905000D03*
%TD*%
D13*
%TO.C,H4*%
X113350000Y-112000000D03*
X113833274Y-110833274D03*
X113833274Y-113166726D03*
X115000000Y-110350000D03*
D14*
X115000000Y-112000000D03*
D13*
X115000000Y-113650000D03*
X116166726Y-110833274D03*
X116166726Y-113166726D03*
X116650000Y-112000000D03*
%TD*%
D23*
%TO.C,TP2*%
X126445280Y-36345000D03*
X123905280Y-36345000D03*
%TD*%
D11*
%TO.C,J19*%
X125359000Y-65160000D03*
D12*
X125359000Y-67700000D03*
%TD*%
D10*
%TO.C,J25*%
X115836280Y-74603000D03*
X115836280Y-80603000D03*
%TD*%
D23*
%TO.C,TP1*%
X134003280Y-40300000D03*
X134003280Y-42840000D03*
%TD*%
D19*
%TO.C,J6*%
X111500000Y-94000000D03*
X111500000Y-96540000D03*
D20*
X114040000Y-94000000D03*
D21*
X114040000Y-96540000D03*
%TD*%
D24*
%TO.C,TP3*%
X132500000Y-37000000D03*
%TD*%
D25*
%TO.C,J3*%
X139673280Y-31773000D03*
X136903280Y-31773000D03*
X134133280Y-31773000D03*
X131363280Y-31773000D03*
X128593280Y-31773000D03*
X125823280Y-31773000D03*
X123053280Y-31773000D03*
X120283280Y-31773000D03*
X138288280Y-28933000D03*
X135518280Y-28933000D03*
X132748280Y-28933000D03*
X129978280Y-28933000D03*
X127208280Y-28933000D03*
X124438280Y-28933000D03*
X121668280Y-28933000D03*
D26*
X113328280Y-30353000D03*
X146628280Y-30353000D03*
%TD*%
D10*
%TO.C,J14*%
X137075000Y-52000000D03*
X137075000Y-58000000D03*
%TD*%
D11*
%TO.C,J16*%
X136059000Y-65160000D03*
D12*
X136059000Y-67700000D03*
%TD*%
D11*
%TO.C,J13*%
X146759000Y-65160000D03*
D12*
X146759000Y-67700000D03*
%TD*%
D13*
%TO.C,H3*%
X183850000Y-112500000D03*
X184333274Y-111333274D03*
X184333274Y-113666726D03*
X185500000Y-110850000D03*
D14*
X185500000Y-112500000D03*
D13*
X185500000Y-114150000D03*
X186666726Y-111333274D03*
X186666726Y-113666726D03*
X187150000Y-112500000D03*
%TD*%
D10*
%TO.C,J21*%
X115675000Y-52000000D03*
X115675000Y-58000000D03*
%TD*%
D19*
%TO.C,J5*%
X111460000Y-86960000D03*
X111460000Y-89500000D03*
D20*
X114000000Y-86960000D03*
D21*
X114000000Y-89500000D03*
%TD*%
M02*
