%TF.GenerationSoftware,KiCad,Pcbnew,10.0.3*%
%TF.CreationDate,2026-08-06T15:24:33-07:00*%
%TF.ProjectId,fluidics-v2,666c7569-6469-4637-932d-76322e6b6963,rev?*%
%TF.SameCoordinates,Original*%
%TF.FileFunction,Drillmap*%
%TF.FilePolarity,Positive*%
%FSLAX45Y45*%
G04 Gerber Fmt 4.5, Leading zero omitted, Abs format (unit mm)*
G04 Created by KiCad (PCBNEW 10.0.3) date 2026-08-06 15:24:33*
%MOMM*%
%LPD*%
G01*
G04 APERTURE LIST*
%ADD10C,0.038100*%
%ADD11C,0.200000*%
%ADD12C,0.100000*%
%ADD13C,0.106680*%
%ADD14C,0.110000*%
%ADD15C,0.120000*%
%ADD16C,0.305000*%
%ADD17C,0.320000*%
%ADD18C,0.160000*%
G04 APERTURE END LIST*
D10*
X10950000Y-2100000D02*
X19450000Y-2100000D01*
X19450000Y-11650000D01*
X10950000Y-11650000D01*
X10950000Y-2100000D01*
D11*
D12*
X11485500Y-7332500D02*
X11525500Y-7372500D01*
X11525500Y-7332500D02*
X11485500Y-7372500D01*
X11580000Y-4480000D02*
X11620000Y-4520000D01*
X11620000Y-4480000D02*
X11580000Y-4520000D01*
X11780000Y-4480000D02*
X11820000Y-4520000D01*
X11820000Y-4480000D02*
X11780000Y-4520000D01*
X11930000Y-5230000D02*
X11970000Y-5270000D01*
X11970000Y-5230000D02*
X11930000Y-5270000D01*
X12030000Y-10830000D02*
X12070000Y-10870000D01*
X12070000Y-10830000D02*
X12030000Y-10870000D01*
X12318249Y-3818249D02*
X12358249Y-3858249D01*
X12358249Y-3818249D02*
X12318249Y-3858249D01*
X12330000Y-10780000D02*
X12370000Y-10820000D01*
X12370000Y-10780000D02*
X12330000Y-10820000D01*
X12430000Y-4030000D02*
X12470000Y-4070000D01*
X12470000Y-4030000D02*
X12430000Y-4070000D01*
X12524928Y-4732100D02*
X12564928Y-4772100D01*
X12564928Y-4732100D02*
X12524928Y-4772100D01*
X12676128Y-10490300D02*
X12716128Y-10530300D01*
X12716128Y-10490300D02*
X12676128Y-10530300D01*
X12681128Y-9335300D02*
X12721128Y-9375300D01*
X12721128Y-9335300D02*
X12681128Y-9375300D01*
X12880000Y-5230000D02*
X12920000Y-5270000D01*
X12920000Y-5230000D02*
X12880000Y-5270000D01*
X12980000Y-8377500D02*
X13020000Y-8417500D01*
X13020000Y-8377500D02*
X12980000Y-8417500D01*
X13080000Y-4680000D02*
X13120000Y-4720000D01*
X13120000Y-4680000D02*
X13080000Y-4720000D01*
X13126128Y-10290300D02*
X13166128Y-10330300D01*
X13166128Y-10290300D02*
X13126128Y-10330300D01*
X13280000Y-7130000D02*
X13320000Y-7170000D01*
X13320000Y-7130000D02*
X13280000Y-7170000D01*
X13476128Y-9540300D02*
X13516128Y-9580300D01*
X13516128Y-9540300D02*
X13476128Y-9580300D01*
X13626128Y-8090300D02*
X13666128Y-8130300D01*
X13666128Y-8090300D02*
X13626128Y-8130300D01*
X13776128Y-8290300D02*
X13816128Y-8330300D01*
X13816128Y-8290300D02*
X13776128Y-8330300D01*
X13830000Y-5230000D02*
X13870000Y-5270000D01*
X13870000Y-5230000D02*
X13830000Y-5270000D01*
X13880000Y-4430000D02*
X13920000Y-4470000D01*
X13920000Y-4430000D02*
X13880000Y-4470000D01*
X13921128Y-9335300D02*
X13961128Y-9375300D01*
X13961128Y-9335300D02*
X13921128Y-9375300D01*
X13921128Y-10495300D02*
X13961128Y-10535300D01*
X13961128Y-10495300D02*
X13921128Y-10535300D01*
X14256828Y-8268100D02*
X14296828Y-8308100D01*
X14296828Y-8268100D02*
X14256828Y-8308100D01*
X14379128Y-3462100D02*
X14419128Y-3502100D01*
X14419128Y-3462100D02*
X14379128Y-3502100D01*
X14421228Y-10080750D02*
X14461228Y-10120750D01*
X14461228Y-10080750D02*
X14421228Y-10120750D01*
X14480728Y-8592900D02*
X14520728Y-8632900D01*
X14520728Y-8592900D02*
X14480728Y-8632900D01*
X14526128Y-10790300D02*
X14566128Y-10830300D01*
X14566128Y-10790300D02*
X14526128Y-10830300D01*
X14531528Y-7856300D02*
X14571528Y-7896300D01*
X14571528Y-7856300D02*
X14531528Y-7896300D01*
X14566006Y-4082750D02*
X14606006Y-4122750D01*
X14606006Y-4082750D02*
X14566006Y-4122750D01*
X14576630Y-10538300D02*
X14616630Y-10578300D01*
X14616630Y-10538300D02*
X14576630Y-10578300D01*
X14780000Y-5230000D02*
X14820000Y-5270000D01*
X14820000Y-5230000D02*
X14780000Y-5270000D01*
X14830000Y-6380000D02*
X14870000Y-6420000D01*
X14870000Y-6380000D02*
X14830000Y-6420000D01*
X14832578Y-7620877D02*
X14872578Y-7660877D01*
X14872578Y-7620877D02*
X14832578Y-7660877D01*
X14885003Y-9964500D02*
X14925003Y-10004500D01*
X14925003Y-9964500D02*
X14885003Y-10004500D01*
X14925880Y-8408400D02*
X14965880Y-8448400D01*
X14965880Y-8408400D02*
X14925880Y-8448400D01*
X14926630Y-9541300D02*
X14966630Y-9581300D01*
X14966630Y-9541300D02*
X14926630Y-9581300D01*
X15014128Y-3868500D02*
X15054128Y-3908500D01*
X15054128Y-3868500D02*
X15014128Y-3908500D01*
X15026128Y-10590300D02*
X15066128Y-10630300D01*
X15066128Y-10590300D02*
X15026128Y-10630300D01*
X15064928Y-9913700D02*
X15104928Y-9953700D01*
X15104928Y-9913700D02*
X15064928Y-9953700D01*
X15076128Y-9340300D02*
X15116128Y-9380300D01*
X15116128Y-9340300D02*
X15076128Y-9380300D01*
X15141128Y-8211900D02*
X15181128Y-8251900D01*
X15181128Y-8211900D02*
X15141128Y-8251900D01*
X15180000Y-4330000D02*
X15220000Y-4370000D01*
X15220000Y-4330000D02*
X15180000Y-4370000D01*
X15191928Y-4071700D02*
X15231928Y-4111700D01*
X15231928Y-4071700D02*
X15191928Y-4111700D01*
X15226128Y-9540300D02*
X15266128Y-9580300D01*
X15266128Y-9540300D02*
X15226128Y-9580300D01*
X15324863Y-10691565D02*
X15364863Y-10731565D01*
X15364863Y-10691565D02*
X15324863Y-10731565D01*
X15387667Y-9672550D02*
X15427667Y-9712550D01*
X15427667Y-9672550D02*
X15387667Y-9712550D01*
X15482500Y-9080000D02*
X15522500Y-9120000D01*
X15522500Y-9080000D02*
X15482500Y-9120000D01*
X15556228Y-10080750D02*
X15596228Y-10120750D01*
X15596228Y-10080750D02*
X15556228Y-10120750D01*
X15730000Y-5230000D02*
X15770000Y-5270000D01*
X15770000Y-5230000D02*
X15730000Y-5270000D01*
X15853856Y-10545381D02*
X15893856Y-10585381D01*
X15893856Y-10545381D02*
X15853856Y-10585381D01*
X15894428Y-10077350D02*
X15934428Y-10117350D01*
X15934428Y-10077350D02*
X15894428Y-10117350D01*
X15976128Y-3240300D02*
X16016128Y-3280300D01*
X16016128Y-3240300D02*
X15976128Y-3280300D01*
X16226128Y-11040300D02*
X16266128Y-11080300D01*
X16266128Y-11040300D02*
X16226128Y-11080300D01*
X16284128Y-7877950D02*
X16324128Y-7917950D01*
X16324128Y-7877950D02*
X16284128Y-7917950D01*
X16330000Y-10630000D02*
X16370000Y-10670000D01*
X16370000Y-10630000D02*
X16330000Y-10670000D01*
X16380500Y-9540300D02*
X16420500Y-9580300D01*
X16420500Y-9540300D02*
X16380500Y-9580300D01*
X16391993Y-7877950D02*
X16431993Y-7917950D01*
X16431993Y-7877950D02*
X16391993Y-7917950D01*
X16399428Y-9989900D02*
X16439428Y-10029900D01*
X16439428Y-9989900D02*
X16399428Y-10029900D01*
X16426128Y-11140300D02*
X16466128Y-11180300D01*
X16466128Y-11140300D02*
X16426128Y-11180300D01*
X16480000Y-9540300D02*
X16520000Y-9580300D01*
X16520000Y-9540300D02*
X16480000Y-9580300D01*
X16530000Y-10080000D02*
X16570000Y-10120000D01*
X16570000Y-10080000D02*
X16530000Y-10120000D01*
X16538128Y-10701100D02*
X16578128Y-10741100D01*
X16578128Y-10701100D02*
X16538128Y-10741100D01*
X16995328Y-8745300D02*
X17035328Y-8785300D01*
X17035328Y-8745300D02*
X16995328Y-8785300D01*
X17029428Y-10077350D02*
X17069428Y-10117350D01*
X17069428Y-10077350D02*
X17029428Y-10117350D01*
X17029428Y-10575100D02*
X17069428Y-10615100D01*
X17069428Y-10575100D02*
X17029428Y-10615100D01*
X17480000Y-5830000D02*
X17520000Y-5870000D01*
X17520000Y-5830000D02*
X17480000Y-5870000D01*
X17526128Y-10390300D02*
X17566128Y-10430300D01*
X17566128Y-10390300D02*
X17526128Y-10430300D01*
X17552500Y-5930000D02*
X17592500Y-5970000D01*
X17592500Y-5930000D02*
X17552500Y-5970000D01*
X17630000Y-4180000D02*
X17670000Y-4220000D01*
X17670000Y-4180000D02*
X17630000Y-4220000D01*
X17630000Y-6730000D02*
X17670000Y-6770000D01*
X17670000Y-6730000D02*
X17630000Y-6770000D01*
X17680000Y-8830000D02*
X17720000Y-8870000D01*
X17720000Y-8830000D02*
X17680000Y-8870000D01*
X17730000Y-4380000D02*
X17770000Y-4420000D01*
X17770000Y-4380000D02*
X17730000Y-4420000D01*
X17730000Y-6830000D02*
X17770000Y-6870000D01*
X17770000Y-6830000D02*
X17730000Y-6870000D01*
X17790200Y-3208000D02*
X17830200Y-3248000D01*
X17830200Y-3208000D02*
X17790200Y-3248000D01*
X18026128Y-8540300D02*
X18066128Y-8580300D01*
X18066128Y-8540300D02*
X18026128Y-8580300D01*
X18080000Y-3180000D02*
X18120000Y-3220000D01*
X18120000Y-3180000D02*
X18080000Y-3220000D01*
X18126128Y-9840300D02*
X18166128Y-9880300D01*
X18166128Y-9840300D02*
X18126128Y-9880300D01*
X18130000Y-3330000D02*
X18170000Y-3370000D01*
X18170000Y-3330000D02*
X18130000Y-3370000D01*
X18180000Y-3480000D02*
X18220000Y-3520000D01*
X18220000Y-3480000D02*
X18180000Y-3520000D01*
X18226128Y-8540300D02*
X18266128Y-8580300D01*
X18266128Y-8540300D02*
X18226128Y-8580300D01*
X18276128Y-9140300D02*
X18316128Y-9180300D01*
X18316128Y-9140300D02*
X18276128Y-9180300D01*
X18276128Y-9290300D02*
X18316128Y-9330300D01*
X18316128Y-9290300D02*
X18276128Y-9330300D01*
X18276128Y-9440300D02*
X18316128Y-9480300D01*
X18316128Y-9440300D02*
X18276128Y-9480300D01*
X18326128Y-8440300D02*
X18366128Y-8480300D01*
X18366128Y-8440300D02*
X18326128Y-8480300D01*
X18426128Y-8340300D02*
X18466128Y-8380300D01*
X18466128Y-8340300D02*
X18426128Y-8380300D01*
X18576128Y-9790300D02*
X18616128Y-9830300D01*
X18616128Y-9790300D02*
X18576128Y-9830300D01*
X18830000Y-9580000D02*
X18870000Y-9620000D01*
X18870000Y-9580000D02*
X18830000Y-9620000D01*
X18930000Y-9430000D02*
X18970000Y-9470000D01*
X18970000Y-9430000D02*
X18930000Y-9470000D01*
X18963000Y-3840200D02*
X19003000Y-3880200D01*
X19003000Y-3840200D02*
X18963000Y-3880200D01*
X18963000Y-6440200D02*
X19003000Y-6480200D01*
X19003000Y-6440200D02*
X18963000Y-6480200D01*
X19063000Y-6640200D02*
X19103000Y-6680200D01*
X19103000Y-6640200D02*
X19063000Y-6680200D01*
X19163000Y-6890200D02*
X19203000Y-6930200D01*
X19203000Y-6890200D02*
X19163000Y-6930200D01*
X11185000Y-3863100D02*
G75*
G02*
X11135000Y-3863100I-25000J0D01*
G01*
X11135000Y-3863100D02*
G75*
G02*
X11185000Y-3863100I25000J0D01*
G01*
X11185000Y-11200000D02*
G75*
G02*
X11135000Y-11200000I-25000J0D01*
G01*
X11135000Y-11200000D02*
G75*
G02*
X11185000Y-11200000I25000J0D01*
G01*
X11255294Y-3693394D02*
G75*
G02*
X11205294Y-3693394I-25000J0D01*
G01*
X11205294Y-3693394D02*
G75*
G02*
X11255294Y-3693394I25000J0D01*
G01*
X11255294Y-4032806D02*
G75*
G02*
X11205294Y-4032806I-25000J0D01*
G01*
X11205294Y-4032806D02*
G75*
G02*
X11255294Y-4032806I25000J0D01*
G01*
X11255294Y-11030294D02*
G75*
G02*
X11205294Y-11030294I-25000J0D01*
G01*
X11205294Y-11030294D02*
G75*
G02*
X11255294Y-11030294I25000J0D01*
G01*
X11255294Y-11369706D02*
G75*
G02*
X11205294Y-11369706I-25000J0D01*
G01*
X11205294Y-11369706D02*
G75*
G02*
X11255294Y-11369706I25000J0D01*
G01*
X11425000Y-3623100D02*
G75*
G02*
X11375000Y-3623100I-25000J0D01*
G01*
X11375000Y-3623100D02*
G75*
G02*
X11425000Y-3623100I25000J0D01*
G01*
X11425000Y-4103100D02*
G75*
G02*
X11375000Y-4103100I-25000J0D01*
G01*
X11375000Y-4103100D02*
G75*
G02*
X11425000Y-4103100I25000J0D01*
G01*
X11425000Y-10960000D02*
G75*
G02*
X11375000Y-10960000I-25000J0D01*
G01*
X11375000Y-10960000D02*
G75*
G02*
X11425000Y-10960000I25000J0D01*
G01*
X11425000Y-11440000D02*
G75*
G02*
X11375000Y-11440000I-25000J0D01*
G01*
X11375000Y-11440000D02*
G75*
G02*
X11425000Y-11440000I25000J0D01*
G01*
X11594706Y-3693394D02*
G75*
G02*
X11544706Y-3693394I-25000J0D01*
G01*
X11544706Y-3693394D02*
G75*
G02*
X11594706Y-3693394I25000J0D01*
G01*
X11594706Y-4032806D02*
G75*
G02*
X11544706Y-4032806I-25000J0D01*
G01*
X11544706Y-4032806D02*
G75*
G02*
X11594706Y-4032806I25000J0D01*
G01*
X11594706Y-11030294D02*
G75*
G02*
X11544706Y-11030294I-25000J0D01*
G01*
X11544706Y-11030294D02*
G75*
G02*
X11594706Y-11030294I25000J0D01*
G01*
X11594706Y-11369706D02*
G75*
G02*
X11544706Y-11369706I-25000J0D01*
G01*
X11544706Y-11369706D02*
G75*
G02*
X11594706Y-11369706I25000J0D01*
G01*
X11665000Y-3863100D02*
G75*
G02*
X11615000Y-3863100I-25000J0D01*
G01*
X11615000Y-3863100D02*
G75*
G02*
X11665000Y-3863100I25000J0D01*
G01*
X11665000Y-11200000D02*
G75*
G02*
X11615000Y-11200000I-25000J0D01*
G01*
X11615000Y-11200000D02*
G75*
G02*
X11665000Y-11200000I25000J0D01*
G01*
X18654706Y-11200000D02*
G75*
G02*
X18604706Y-11200000I-25000J0D01*
G01*
X18604706Y-11200000D02*
G75*
G02*
X18654706Y-11200000I25000J0D01*
G01*
X18725000Y-11030294D02*
G75*
G02*
X18675000Y-11030294I-25000J0D01*
G01*
X18675000Y-11030294D02*
G75*
G02*
X18725000Y-11030294I25000J0D01*
G01*
X18725000Y-11369706D02*
G75*
G02*
X18675000Y-11369706I-25000J0D01*
G01*
X18675000Y-11369706D02*
G75*
G02*
X18725000Y-11369706I25000J0D01*
G01*
X18894706Y-10960000D02*
G75*
G02*
X18844706Y-10960000I-25000J0D01*
G01*
X18844706Y-10960000D02*
G75*
G02*
X18894706Y-10960000I25000J0D01*
G01*
X18894706Y-11440000D02*
G75*
G02*
X18844706Y-11440000I-25000J0D01*
G01*
X18844706Y-11440000D02*
G75*
G02*
X18894706Y-11440000I25000J0D01*
G01*
X19064411Y-11030294D02*
G75*
G02*
X19014411Y-11030294I-25000J0D01*
G01*
X19014411Y-11030294D02*
G75*
G02*
X19064411Y-11030294I25000J0D01*
G01*
X19064411Y-11369706D02*
G75*
G02*
X19014411Y-11369706I-25000J0D01*
G01*
X19014411Y-11369706D02*
G75*
G02*
X19064411Y-11369706I25000J0D01*
G01*
X19134706Y-11200000D02*
G75*
G02*
X19084706Y-11200000I-25000J0D01*
G01*
X19084706Y-11200000D02*
G75*
G02*
X19134706Y-11200000I25000J0D01*
G01*
X16050000Y-3575000D02*
X16050000Y-3635000D01*
X16020000Y-3605000D02*
X16080000Y-3605000D01*
X16550000Y-3765000D02*
X16550000Y-3825000D01*
X16520000Y-3795000D02*
X16580000Y-3795000D01*
X13274749Y-3724749D02*
X13274749Y-3675251D01*
X13225251Y-3675251D01*
X13225251Y-3724749D01*
X13274749Y-3724749D01*
X12390528Y-3674500D02*
X12430528Y-3634500D01*
X12390528Y-3594500D01*
X12350528Y-3634500D01*
X12390528Y-3674500D01*
X12644528Y-3674500D02*
X12684528Y-3634500D01*
X12644528Y-3594500D01*
X12604528Y-3634500D01*
X12644528Y-3674500D01*
X13400328Y-4070000D02*
X13440328Y-4030000D01*
X13400328Y-3990000D01*
X13360328Y-4030000D01*
X13400328Y-4070000D01*
X13400328Y-4324000D02*
X13440328Y-4284000D01*
X13400328Y-4244000D01*
X13360328Y-4284000D01*
X13400328Y-4324000D01*
X11978328Y-3127300D02*
X12078328Y-3227300D01*
X12078328Y-3127300D02*
X11978328Y-3227300D01*
X12078328Y-3177300D02*
G75*
G02*
X11978328Y-3177300I-50000J0D01*
G01*
X11978328Y-3177300D02*
G75*
G02*
X12078328Y-3177300I50000J0D01*
G01*
X12116828Y-2843300D02*
X12216828Y-2943300D01*
X12216828Y-2843300D02*
X12116828Y-2943300D01*
X12216828Y-2893300D02*
G75*
G02*
X12116828Y-2893300I-50000J0D01*
G01*
X12116828Y-2893300D02*
G75*
G02*
X12216828Y-2893300I50000J0D01*
G01*
X12255328Y-3127300D02*
X12355328Y-3227300D01*
X12355328Y-3127300D02*
X12255328Y-3227300D01*
X12355328Y-3177300D02*
G75*
G02*
X12255328Y-3177300I-50000J0D01*
G01*
X12255328Y-3177300D02*
G75*
G02*
X12355328Y-3177300I50000J0D01*
G01*
X12393828Y-2843300D02*
X12493828Y-2943300D01*
X12493828Y-2843300D02*
X12393828Y-2943300D01*
X12493828Y-2893300D02*
G75*
G02*
X12393828Y-2893300I-50000J0D01*
G01*
X12393828Y-2893300D02*
G75*
G02*
X12493828Y-2893300I50000J0D01*
G01*
X12532328Y-3127300D02*
X12632328Y-3227300D01*
X12632328Y-3127300D02*
X12532328Y-3227300D01*
X12632328Y-3177300D02*
G75*
G02*
X12532328Y-3177300I-50000J0D01*
G01*
X12532328Y-3177300D02*
G75*
G02*
X12632328Y-3177300I50000J0D01*
G01*
X12670828Y-2843300D02*
X12770828Y-2943300D01*
X12770828Y-2843300D02*
X12670828Y-2943300D01*
X12770828Y-2893300D02*
G75*
G02*
X12670828Y-2893300I-50000J0D01*
G01*
X12670828Y-2893300D02*
G75*
G02*
X12770828Y-2893300I50000J0D01*
G01*
X12809328Y-3127300D02*
X12909328Y-3227300D01*
X12909328Y-3127300D02*
X12809328Y-3227300D01*
X12909328Y-3177300D02*
G75*
G02*
X12809328Y-3177300I-50000J0D01*
G01*
X12809328Y-3177300D02*
G75*
G02*
X12909328Y-3177300I50000J0D01*
G01*
X12947828Y-2843300D02*
X13047828Y-2943300D01*
X13047828Y-2843300D02*
X12947828Y-2943300D01*
X13047828Y-2893300D02*
G75*
G02*
X12947828Y-2893300I-50000J0D01*
G01*
X12947828Y-2893300D02*
G75*
G02*
X13047828Y-2893300I50000J0D01*
G01*
X13086328Y-3127300D02*
X13186328Y-3227300D01*
X13186328Y-3127300D02*
X13086328Y-3227300D01*
X13186328Y-3177300D02*
G75*
G02*
X13086328Y-3177300I-50000J0D01*
G01*
X13086328Y-3177300D02*
G75*
G02*
X13186328Y-3177300I50000J0D01*
G01*
X13224828Y-2843300D02*
X13324828Y-2943300D01*
X13324828Y-2843300D02*
X13224828Y-2943300D01*
X13324828Y-2893300D02*
G75*
G02*
X13224828Y-2893300I-50000J0D01*
G01*
X13224828Y-2893300D02*
G75*
G02*
X13324828Y-2893300I50000J0D01*
G01*
X13363328Y-3127300D02*
X13463328Y-3227300D01*
X13463328Y-3127300D02*
X13363328Y-3227300D01*
X13463328Y-3177300D02*
G75*
G02*
X13363328Y-3177300I-50000J0D01*
G01*
X13363328Y-3177300D02*
G75*
G02*
X13463328Y-3177300I50000J0D01*
G01*
X13501828Y-2843300D02*
X13601828Y-2943300D01*
X13601828Y-2843300D02*
X13501828Y-2943300D01*
X13601828Y-2893300D02*
G75*
G02*
X13501828Y-2893300I-50000J0D01*
G01*
X13501828Y-2893300D02*
G75*
G02*
X13601828Y-2893300I50000J0D01*
G01*
X13640328Y-3127300D02*
X13740328Y-3227300D01*
X13740328Y-3127300D02*
X13640328Y-3227300D01*
X13740328Y-3177300D02*
G75*
G02*
X13640328Y-3177300I-50000J0D01*
G01*
X13640328Y-3177300D02*
G75*
G02*
X13740328Y-3177300I50000J0D01*
G01*
X13778828Y-2843300D02*
X13878828Y-2943300D01*
X13878828Y-2843300D02*
X13778828Y-2943300D01*
X13878828Y-2893300D02*
G75*
G02*
X13778828Y-2893300I-50000J0D01*
G01*
X13778828Y-2893300D02*
G75*
G02*
X13878828Y-2893300I50000J0D01*
G01*
X13917328Y-3127300D02*
X14017328Y-3227300D01*
X14017328Y-3127300D02*
X13917328Y-3227300D01*
X14017328Y-3177300D02*
G75*
G02*
X13917328Y-3177300I-50000J0D01*
G01*
X13917328Y-3177300D02*
G75*
G02*
X14017328Y-3177300I50000J0D01*
G01*
X15270728Y-2311300D02*
X15370728Y-2411300D01*
X15370728Y-2311300D02*
X15270728Y-2411300D01*
X15370728Y-2361300D02*
G75*
G02*
X15270728Y-2361300I-50000J0D01*
G01*
X15270728Y-2361300D02*
G75*
G02*
X15370728Y-2361300I50000J0D01*
G01*
X15370728Y-2436300D02*
X15370728Y-2286300D01*
X15270728Y-2286300D02*
G75*
G02*
X15370728Y-2286300I50000J0D01*
G01*
X15270728Y-2286300D02*
X15270728Y-2436300D01*
X15270728Y-2436300D02*
G75*
G03*
X15370728Y-2436300I50000J0D01*
G01*
X15720728Y-2411300D02*
X15820728Y-2511300D01*
X15820728Y-2411300D02*
X15720728Y-2511300D01*
X15820728Y-2461300D02*
G75*
G02*
X15720728Y-2461300I-50000J0D01*
G01*
X15720728Y-2461300D02*
G75*
G02*
X15820728Y-2461300I50000J0D01*
G01*
X15705728Y-2511300D02*
X15835728Y-2511300D01*
X15835728Y-2411300D02*
G75*
G02*
X15835728Y-2511300I0J-50000D01*
G01*
X15835728Y-2411300D02*
X15705728Y-2411300D01*
X15705728Y-2411300D02*
G75*
G03*
X15705728Y-2511300I0J-50000D01*
G01*
X15720728Y-3011300D02*
X15820728Y-3111300D01*
X15820728Y-3011300D02*
X15720728Y-3111300D01*
X15820728Y-3061300D02*
G75*
G02*
X15720728Y-3061300I-50000J0D01*
G01*
X15720728Y-3061300D02*
G75*
G02*
X15820728Y-3061300I50000J0D01*
G01*
X15670728Y-3111300D02*
X15870728Y-3111300D01*
X15870728Y-3011300D02*
G75*
G02*
X15870728Y-3111300I0J-50000D01*
G01*
X15870728Y-3011300D02*
X15670728Y-3011300D01*
X15670728Y-3011300D02*
G75*
G03*
X15670728Y-3111300I0J-50000D01*
G01*
X16170728Y-2311300D02*
X16270728Y-2411300D01*
X16270728Y-2311300D02*
X16170728Y-2411300D01*
X16270728Y-2361300D02*
G75*
G02*
X16170728Y-2361300I-50000J0D01*
G01*
X16170728Y-2361300D02*
G75*
G02*
X16270728Y-2361300I50000J0D01*
G01*
X16270728Y-2436300D02*
X16270728Y-2286300D01*
X16170728Y-2286300D02*
G75*
G02*
X16270728Y-2286300I50000J0D01*
G01*
X16170728Y-2286300D02*
X16170728Y-2436300D01*
X16170728Y-2436300D02*
G75*
G03*
X16270728Y-2436300I50000J0D01*
G01*
D13*
X15082388Y-7137160D02*
X15189068Y-7243840D01*
X15189068Y-7137160D02*
X15082388Y-7243840D01*
X15135728Y-7137160D02*
X15135728Y-7243840D01*
X15082388Y-7190500D02*
X15189068Y-7190500D01*
X15336388Y-7137160D02*
X15443068Y-7243840D01*
X15443068Y-7137160D02*
X15336388Y-7243840D01*
X15389728Y-7137160D02*
X15389728Y-7243840D01*
X15336388Y-7190500D02*
X15443068Y-7190500D01*
X15590388Y-7137160D02*
X15697068Y-7243840D01*
X15697068Y-7137160D02*
X15590388Y-7243840D01*
X15643728Y-7137160D02*
X15643728Y-7243840D01*
X15590388Y-7190500D02*
X15697068Y-7190500D01*
X15844388Y-7137160D02*
X15951068Y-7243840D01*
X15951068Y-7137160D02*
X15844388Y-7243840D01*
X15897728Y-7137160D02*
X15897728Y-7243840D01*
X15844388Y-7190500D02*
X15951068Y-7190500D01*
X16098388Y-7137160D02*
X16205068Y-7243840D01*
X16205068Y-7137160D02*
X16098388Y-7243840D01*
X16151728Y-7137160D02*
X16151728Y-7243840D01*
X16098388Y-7190500D02*
X16205068Y-7190500D01*
D14*
X11432500Y-5991000D02*
X11542500Y-6101000D01*
X11542500Y-5991000D02*
X11432500Y-6101000D01*
X11526391Y-6084891D02*
X11526391Y-6007109D01*
X11448609Y-6007109D01*
X11448609Y-6084891D01*
X11526391Y-6084891D01*
X11432500Y-6245000D02*
X11542500Y-6355000D01*
X11542500Y-6245000D02*
X11432500Y-6355000D01*
X11526391Y-6338891D02*
X11526391Y-6261109D01*
X11448609Y-6261109D01*
X11448609Y-6338891D01*
X11526391Y-6338891D01*
X12332500Y-5991000D02*
X12442500Y-6101000D01*
X12442500Y-5991000D02*
X12332500Y-6101000D01*
X12426391Y-6084891D02*
X12426391Y-6007109D01*
X12348609Y-6007109D01*
X12348609Y-6084891D01*
X12426391Y-6084891D01*
X12332500Y-6245000D02*
X12442500Y-6355000D01*
X12442500Y-6245000D02*
X12332500Y-6355000D01*
X12426391Y-6338891D02*
X12426391Y-6261109D01*
X12348609Y-6261109D01*
X12348609Y-6338891D01*
X12426391Y-6338891D01*
X13282500Y-5991000D02*
X13392500Y-6101000D01*
X13392500Y-5991000D02*
X13282500Y-6101000D01*
X13376391Y-6084891D02*
X13376391Y-6007109D01*
X13298609Y-6007109D01*
X13298609Y-6084891D01*
X13376391Y-6084891D01*
X13282500Y-6245000D02*
X13392500Y-6355000D01*
X13392500Y-6245000D02*
X13282500Y-6355000D01*
X13376391Y-6338891D02*
X13376391Y-6261109D01*
X13298609Y-6261109D01*
X13298609Y-6338891D01*
X13376391Y-6338891D01*
X14245000Y-5991000D02*
X14355000Y-6101000D01*
X14355000Y-5991000D02*
X14245000Y-6101000D01*
X14338891Y-6084891D02*
X14338891Y-6007109D01*
X14261109Y-6007109D01*
X14261109Y-6084891D01*
X14338891Y-6084891D01*
X14245000Y-6245000D02*
X14355000Y-6355000D01*
X14355000Y-6245000D02*
X14245000Y-6355000D01*
X14338891Y-6338891D02*
X14338891Y-6261109D01*
X14261109Y-6261109D01*
X14261109Y-6338891D01*
X14338891Y-6338891D01*
X15195000Y-5991000D02*
X15305000Y-6101000D01*
X15305000Y-5991000D02*
X15195000Y-6101000D01*
X15288891Y-6084891D02*
X15288891Y-6007109D01*
X15211109Y-6007109D01*
X15211109Y-6084891D01*
X15288891Y-6084891D01*
X15195000Y-6245000D02*
X15305000Y-6355000D01*
X15305000Y-6245000D02*
X15195000Y-6355000D01*
X15288891Y-6338891D02*
X15288891Y-6261109D01*
X15211109Y-6261109D01*
X15211109Y-6338891D01*
X15288891Y-6338891D01*
X16095000Y-5991000D02*
X16205000Y-6101000D01*
X16205000Y-5991000D02*
X16095000Y-6101000D01*
X16188891Y-6084891D02*
X16188891Y-6007109D01*
X16111109Y-6007109D01*
X16111109Y-6084891D01*
X16188891Y-6084891D01*
X16095000Y-6245000D02*
X16205000Y-6355000D01*
X16205000Y-6245000D02*
X16095000Y-6355000D01*
X16188891Y-6338891D02*
X16188891Y-6261109D01*
X16111109Y-6261109D01*
X16111109Y-6338891D01*
X16188891Y-6338891D01*
D15*
X11540000Y-8936000D02*
X11660000Y-9056000D01*
X11660000Y-8936000D02*
X11540000Y-9056000D01*
X11600000Y-9056000D02*
X11660000Y-8996000D01*
X11600000Y-8936000D01*
X11540000Y-8996000D01*
X11600000Y-9056000D01*
X11540000Y-9190000D02*
X11660000Y-9310000D01*
X11660000Y-9190000D02*
X11540000Y-9310000D01*
X11600000Y-9310000D02*
X11660000Y-9250000D01*
X11600000Y-9190000D01*
X11540000Y-9250000D01*
X11600000Y-9310000D01*
X11540000Y-9444000D02*
X11660000Y-9564000D01*
X11660000Y-9444000D02*
X11540000Y-9564000D01*
X11600000Y-9564000D02*
X11660000Y-9504000D01*
X11600000Y-9444000D01*
X11540000Y-9504000D01*
X11600000Y-9564000D01*
X11540000Y-9698000D02*
X11660000Y-9818000D01*
X11660000Y-9698000D02*
X11540000Y-9818000D01*
X11600000Y-9818000D02*
X11660000Y-9758000D01*
X11600000Y-9698000D01*
X11540000Y-9758000D01*
X11600000Y-9818000D01*
X11540000Y-9952000D02*
X11660000Y-10072000D01*
X11660000Y-9952000D02*
X11540000Y-10072000D01*
X11600000Y-10072000D02*
X11660000Y-10012000D01*
X11600000Y-9952000D01*
X11540000Y-10012000D01*
X11600000Y-10072000D01*
X11540000Y-10206000D02*
X11660000Y-10326000D01*
X11660000Y-10206000D02*
X11540000Y-10326000D01*
X11600000Y-10326000D02*
X11660000Y-10266000D01*
X11600000Y-10206000D01*
X11540000Y-10266000D01*
X11600000Y-10326000D01*
D16*
X11332828Y-2882800D02*
X11332828Y-3187800D01*
X11180328Y-3035300D02*
X11485328Y-3035300D01*
X11485328Y-3035300D02*
G75*
G02*
X11180328Y-3035300I-152500J0D01*
G01*
X11180328Y-3035300D02*
G75*
G02*
X11485328Y-3035300I152500J0D01*
G01*
X14662828Y-2882800D02*
X14662828Y-3187800D01*
X14510328Y-3035300D02*
X14815328Y-3035300D01*
X14815328Y-3035300D02*
G75*
G02*
X14510328Y-3035300I-152500J0D01*
G01*
X14510328Y-3035300D02*
G75*
G02*
X14815328Y-3035300I152500J0D01*
G01*
D17*
X11513138Y-3976238D02*
X11513138Y-3749962D01*
X11286862Y-3749962D01*
X11286862Y-3976238D01*
X11513138Y-3976238D01*
X11560000Y-3863100D02*
G75*
G02*
X11240000Y-3863100I-160000J0D01*
G01*
X11240000Y-3863100D02*
G75*
G02*
X11560000Y-3863100I160000J0D01*
G01*
X11513138Y-11313138D02*
X11513138Y-11086862D01*
X11286862Y-11086862D01*
X11286862Y-11313138D01*
X11513138Y-11313138D01*
X11560000Y-11200000D02*
G75*
G02*
X11240000Y-11200000I-160000J0D01*
G01*
X11240000Y-11200000D02*
G75*
G02*
X11560000Y-11200000I160000J0D01*
G01*
X18982844Y-11313138D02*
X18982844Y-11086862D01*
X18756567Y-11086862D01*
X18756567Y-11313138D01*
X18982844Y-11313138D01*
X19029706Y-11200000D02*
G75*
G02*
X18709706Y-11200000I-160000J0D01*
G01*
X18709706Y-11200000D02*
G75*
G02*
X19029706Y-11200000I160000J0D01*
G01*
D18*
X15770728Y-2241300D02*
X15850728Y-2161300D01*
X15770728Y-2081300D01*
X15690728Y-2161300D01*
X15770728Y-2241300D01*
X15850728Y-2161300D02*
G75*
G02*
X15690728Y-2161300I-80000J0D01*
G01*
X15690728Y-2161300D02*
G75*
G02*
X15850728Y-2161300I80000J0D01*
G01*
D11*
X11208872Y-11963389D02*
X11208872Y-11763389D01*
X11208872Y-11763389D02*
X11256491Y-11763389D01*
X11256491Y-11763389D02*
X11285062Y-11772913D01*
X11285062Y-11772913D02*
X11304110Y-11791960D01*
X11304110Y-11791960D02*
X11313634Y-11811008D01*
X11313634Y-11811008D02*
X11323157Y-11849103D01*
X11323157Y-11849103D02*
X11323157Y-11877674D01*
X11323157Y-11877674D02*
X11313634Y-11915770D01*
X11313634Y-11915770D02*
X11304110Y-11934817D01*
X11304110Y-11934817D02*
X11285062Y-11953865D01*
X11285062Y-11953865D02*
X11256491Y-11963389D01*
X11256491Y-11963389D02*
X11208872Y-11963389D01*
X11408872Y-11963389D02*
X11408872Y-11830055D01*
X11408872Y-11868151D02*
X11418396Y-11849103D01*
X11418396Y-11849103D02*
X11427919Y-11839579D01*
X11427919Y-11839579D02*
X11446967Y-11830055D01*
X11446967Y-11830055D02*
X11466015Y-11830055D01*
X11532681Y-11963389D02*
X11532681Y-11830055D01*
X11532681Y-11763389D02*
X11523157Y-11772913D01*
X11523157Y-11772913D02*
X11532681Y-11782436D01*
X11532681Y-11782436D02*
X11542205Y-11772913D01*
X11542205Y-11772913D02*
X11532681Y-11763389D01*
X11532681Y-11763389D02*
X11532681Y-11782436D01*
X11656491Y-11963389D02*
X11637443Y-11953865D01*
X11637443Y-11953865D02*
X11627919Y-11934817D01*
X11627919Y-11934817D02*
X11627919Y-11763389D01*
X11761253Y-11963389D02*
X11742205Y-11953865D01*
X11742205Y-11953865D02*
X11732681Y-11934817D01*
X11732681Y-11934817D02*
X11732681Y-11763389D01*
X11989824Y-11963389D02*
X11989824Y-11763389D01*
X11989824Y-11763389D02*
X12056491Y-11906246D01*
X12056491Y-11906246D02*
X12123157Y-11763389D01*
X12123157Y-11763389D02*
X12123157Y-11963389D01*
X12304110Y-11963389D02*
X12304110Y-11858627D01*
X12304110Y-11858627D02*
X12294586Y-11839579D01*
X12294586Y-11839579D02*
X12275538Y-11830055D01*
X12275538Y-11830055D02*
X12237443Y-11830055D01*
X12237443Y-11830055D02*
X12218396Y-11839579D01*
X12304110Y-11953865D02*
X12285062Y-11963389D01*
X12285062Y-11963389D02*
X12237443Y-11963389D01*
X12237443Y-11963389D02*
X12218396Y-11953865D01*
X12218396Y-11953865D02*
X12208872Y-11934817D01*
X12208872Y-11934817D02*
X12208872Y-11915770D01*
X12208872Y-11915770D02*
X12218396Y-11896722D01*
X12218396Y-11896722D02*
X12237443Y-11887198D01*
X12237443Y-11887198D02*
X12285062Y-11887198D01*
X12285062Y-11887198D02*
X12304110Y-11877674D01*
X12399348Y-11830055D02*
X12399348Y-12030055D01*
X12399348Y-11839579D02*
X12418396Y-11830055D01*
X12418396Y-11830055D02*
X12456491Y-11830055D01*
X12456491Y-11830055D02*
X12475538Y-11839579D01*
X12475538Y-11839579D02*
X12485062Y-11849103D01*
X12485062Y-11849103D02*
X12494586Y-11868151D01*
X12494586Y-11868151D02*
X12494586Y-11925293D01*
X12494586Y-11925293D02*
X12485062Y-11944341D01*
X12485062Y-11944341D02*
X12475538Y-11953865D01*
X12475538Y-11953865D02*
X12456491Y-11963389D01*
X12456491Y-11963389D02*
X12418396Y-11963389D01*
X12418396Y-11963389D02*
X12399348Y-11953865D01*
X12580300Y-11944341D02*
X12589824Y-11953865D01*
X12589824Y-11953865D02*
X12580300Y-11963389D01*
X12580300Y-11963389D02*
X12570777Y-11953865D01*
X12570777Y-11953865D02*
X12580300Y-11944341D01*
X12580300Y-11944341D02*
X12580300Y-11963389D01*
X12580300Y-11839579D02*
X12589824Y-11849103D01*
X12589824Y-11849103D02*
X12580300Y-11858627D01*
X12580300Y-11858627D02*
X12570777Y-11849103D01*
X12570777Y-11849103D02*
X12580300Y-11839579D01*
X12580300Y-11839579D02*
X12580300Y-11858627D01*
D12*
X10908095Y-12271905D02*
X10948095Y-12311905D01*
X10948095Y-12271905D02*
X10908095Y-12311905D01*
D11*
X11246967Y-12183389D02*
X11266015Y-12183389D01*
X11266015Y-12183389D02*
X11285062Y-12192913D01*
X11285062Y-12192913D02*
X11294586Y-12202436D01*
X11294586Y-12202436D02*
X11304110Y-12221484D01*
X11304110Y-12221484D02*
X11313634Y-12259579D01*
X11313634Y-12259579D02*
X11313634Y-12307198D01*
X11313634Y-12307198D02*
X11304110Y-12345293D01*
X11304110Y-12345293D02*
X11294586Y-12364341D01*
X11294586Y-12364341D02*
X11285062Y-12373865D01*
X11285062Y-12373865D02*
X11266015Y-12383389D01*
X11266015Y-12383389D02*
X11246967Y-12383389D01*
X11246967Y-12383389D02*
X11227919Y-12373865D01*
X11227919Y-12373865D02*
X11218396Y-12364341D01*
X11218396Y-12364341D02*
X11208872Y-12345293D01*
X11208872Y-12345293D02*
X11199348Y-12307198D01*
X11199348Y-12307198D02*
X11199348Y-12259579D01*
X11199348Y-12259579D02*
X11208872Y-12221484D01*
X11208872Y-12221484D02*
X11218396Y-12202436D01*
X11218396Y-12202436D02*
X11227919Y-12192913D01*
X11227919Y-12192913D02*
X11246967Y-12183389D01*
X11399348Y-12364341D02*
X11408872Y-12373865D01*
X11408872Y-12373865D02*
X11399348Y-12383389D01*
X11399348Y-12383389D02*
X11389824Y-12373865D01*
X11389824Y-12373865D02*
X11399348Y-12364341D01*
X11399348Y-12364341D02*
X11399348Y-12383389D01*
X11580300Y-12250055D02*
X11580300Y-12383389D01*
X11532681Y-12173865D02*
X11485062Y-12316722D01*
X11485062Y-12316722D02*
X11608872Y-12316722D01*
X11723157Y-12183389D02*
X11742205Y-12183389D01*
X11742205Y-12183389D02*
X11761253Y-12192913D01*
X11761253Y-12192913D02*
X11770777Y-12202436D01*
X11770777Y-12202436D02*
X11780300Y-12221484D01*
X11780300Y-12221484D02*
X11789824Y-12259579D01*
X11789824Y-12259579D02*
X11789824Y-12307198D01*
X11789824Y-12307198D02*
X11780300Y-12345293D01*
X11780300Y-12345293D02*
X11770777Y-12364341D01*
X11770777Y-12364341D02*
X11761253Y-12373865D01*
X11761253Y-12373865D02*
X11742205Y-12383389D01*
X11742205Y-12383389D02*
X11723157Y-12383389D01*
X11723157Y-12383389D02*
X11704110Y-12373865D01*
X11704110Y-12373865D02*
X11694586Y-12364341D01*
X11694586Y-12364341D02*
X11685062Y-12345293D01*
X11685062Y-12345293D02*
X11675538Y-12307198D01*
X11675538Y-12307198D02*
X11675538Y-12259579D01*
X11675538Y-12259579D02*
X11685062Y-12221484D01*
X11685062Y-12221484D02*
X11694586Y-12202436D01*
X11694586Y-12202436D02*
X11704110Y-12192913D01*
X11704110Y-12192913D02*
X11723157Y-12183389D01*
X11913634Y-12183389D02*
X11932681Y-12183389D01*
X11932681Y-12183389D02*
X11951729Y-12192913D01*
X11951729Y-12192913D02*
X11961253Y-12202436D01*
X11961253Y-12202436D02*
X11970777Y-12221484D01*
X11970777Y-12221484D02*
X11980300Y-12259579D01*
X11980300Y-12259579D02*
X11980300Y-12307198D01*
X11980300Y-12307198D02*
X11970777Y-12345293D01*
X11970777Y-12345293D02*
X11961253Y-12364341D01*
X11961253Y-12364341D02*
X11951729Y-12373865D01*
X11951729Y-12373865D02*
X11932681Y-12383389D01*
X11932681Y-12383389D02*
X11913634Y-12383389D01*
X11913634Y-12383389D02*
X11894586Y-12373865D01*
X11894586Y-12373865D02*
X11885062Y-12364341D01*
X11885062Y-12364341D02*
X11875538Y-12345293D01*
X11875538Y-12345293D02*
X11866015Y-12307198D01*
X11866015Y-12307198D02*
X11866015Y-12259579D01*
X11866015Y-12259579D02*
X11875538Y-12221484D01*
X11875538Y-12221484D02*
X11885062Y-12202436D01*
X11885062Y-12202436D02*
X11894586Y-12192913D01*
X11894586Y-12192913D02*
X11913634Y-12183389D01*
X12066015Y-12383389D02*
X12066015Y-12250055D01*
X12066015Y-12269103D02*
X12075538Y-12259579D01*
X12075538Y-12259579D02*
X12094586Y-12250055D01*
X12094586Y-12250055D02*
X12123158Y-12250055D01*
X12123158Y-12250055D02*
X12142205Y-12259579D01*
X12142205Y-12259579D02*
X12151729Y-12278627D01*
X12151729Y-12278627D02*
X12151729Y-12383389D01*
X12151729Y-12278627D02*
X12161253Y-12259579D01*
X12161253Y-12259579D02*
X12180300Y-12250055D01*
X12180300Y-12250055D02*
X12208872Y-12250055D01*
X12208872Y-12250055D02*
X12227919Y-12259579D01*
X12227919Y-12259579D02*
X12237443Y-12278627D01*
X12237443Y-12278627D02*
X12237443Y-12383389D01*
X12332681Y-12383389D02*
X12332681Y-12250055D01*
X12332681Y-12269103D02*
X12342205Y-12259579D01*
X12342205Y-12259579D02*
X12361253Y-12250055D01*
X12361253Y-12250055D02*
X12389824Y-12250055D01*
X12389824Y-12250055D02*
X12408872Y-12259579D01*
X12408872Y-12259579D02*
X12418396Y-12278627D01*
X12418396Y-12278627D02*
X12418396Y-12383389D01*
X12418396Y-12278627D02*
X12427919Y-12259579D01*
X12427919Y-12259579D02*
X12446967Y-12250055D01*
X12446967Y-12250055D02*
X12475538Y-12250055D01*
X12475538Y-12250055D02*
X12494586Y-12259579D01*
X12494586Y-12259579D02*
X12504110Y-12278627D01*
X12504110Y-12278627D02*
X12504110Y-12383389D01*
X12894586Y-12173865D02*
X12723158Y-12431008D01*
X13151729Y-12183389D02*
X13170777Y-12183389D01*
X13170777Y-12183389D02*
X13189824Y-12192913D01*
X13189824Y-12192913D02*
X13199348Y-12202436D01*
X13199348Y-12202436D02*
X13208872Y-12221484D01*
X13208872Y-12221484D02*
X13218396Y-12259579D01*
X13218396Y-12259579D02*
X13218396Y-12307198D01*
X13218396Y-12307198D02*
X13208872Y-12345293D01*
X13208872Y-12345293D02*
X13199348Y-12364341D01*
X13199348Y-12364341D02*
X13189824Y-12373865D01*
X13189824Y-12373865D02*
X13170777Y-12383389D01*
X13170777Y-12383389D02*
X13151729Y-12383389D01*
X13151729Y-12383389D02*
X13132681Y-12373865D01*
X13132681Y-12373865D02*
X13123158Y-12364341D01*
X13123158Y-12364341D02*
X13113634Y-12345293D01*
X13113634Y-12345293D02*
X13104110Y-12307198D01*
X13104110Y-12307198D02*
X13104110Y-12259579D01*
X13104110Y-12259579D02*
X13113634Y-12221484D01*
X13113634Y-12221484D02*
X13123158Y-12202436D01*
X13123158Y-12202436D02*
X13132681Y-12192913D01*
X13132681Y-12192913D02*
X13151729Y-12183389D01*
X13304110Y-12364341D02*
X13313634Y-12373865D01*
X13313634Y-12373865D02*
X13304110Y-12383389D01*
X13304110Y-12383389D02*
X13294586Y-12373865D01*
X13294586Y-12373865D02*
X13304110Y-12364341D01*
X13304110Y-12364341D02*
X13304110Y-12383389D01*
X13437443Y-12183389D02*
X13456491Y-12183389D01*
X13456491Y-12183389D02*
X13475539Y-12192913D01*
X13475539Y-12192913D02*
X13485062Y-12202436D01*
X13485062Y-12202436D02*
X13494586Y-12221484D01*
X13494586Y-12221484D02*
X13504110Y-12259579D01*
X13504110Y-12259579D02*
X13504110Y-12307198D01*
X13504110Y-12307198D02*
X13494586Y-12345293D01*
X13494586Y-12345293D02*
X13485062Y-12364341D01*
X13485062Y-12364341D02*
X13475539Y-12373865D01*
X13475539Y-12373865D02*
X13456491Y-12383389D01*
X13456491Y-12383389D02*
X13437443Y-12383389D01*
X13437443Y-12383389D02*
X13418396Y-12373865D01*
X13418396Y-12373865D02*
X13408872Y-12364341D01*
X13408872Y-12364341D02*
X13399348Y-12345293D01*
X13399348Y-12345293D02*
X13389824Y-12307198D01*
X13389824Y-12307198D02*
X13389824Y-12259579D01*
X13389824Y-12259579D02*
X13399348Y-12221484D01*
X13399348Y-12221484D02*
X13408872Y-12202436D01*
X13408872Y-12202436D02*
X13418396Y-12192913D01*
X13418396Y-12192913D02*
X13437443Y-12183389D01*
X13694586Y-12383389D02*
X13580301Y-12383389D01*
X13637443Y-12383389D02*
X13637443Y-12183389D01*
X13637443Y-12183389D02*
X13618396Y-12211960D01*
X13618396Y-12211960D02*
X13599348Y-12231008D01*
X13599348Y-12231008D02*
X13580301Y-12240532D01*
X13875539Y-12183389D02*
X13780301Y-12183389D01*
X13780301Y-12183389D02*
X13770777Y-12278627D01*
X13770777Y-12278627D02*
X13780301Y-12269103D01*
X13780301Y-12269103D02*
X13799348Y-12259579D01*
X13799348Y-12259579D02*
X13846967Y-12259579D01*
X13846967Y-12259579D02*
X13866015Y-12269103D01*
X13866015Y-12269103D02*
X13875539Y-12278627D01*
X13875539Y-12278627D02*
X13885062Y-12297674D01*
X13885062Y-12297674D02*
X13885062Y-12345293D01*
X13885062Y-12345293D02*
X13875539Y-12364341D01*
X13875539Y-12364341D02*
X13866015Y-12373865D01*
X13866015Y-12373865D02*
X13846967Y-12383389D01*
X13846967Y-12383389D02*
X13799348Y-12383389D01*
X13799348Y-12383389D02*
X13780301Y-12373865D01*
X13780301Y-12373865D02*
X13770777Y-12364341D01*
X13951729Y-12183389D02*
X14085062Y-12183389D01*
X14085062Y-12183389D02*
X13999348Y-12383389D01*
X14151729Y-12183389D02*
X14151729Y-12221484D01*
X14227920Y-12183389D02*
X14227920Y-12221484D01*
X14523158Y-12459579D02*
X14513634Y-12450055D01*
X14513634Y-12450055D02*
X14494586Y-12421484D01*
X14494586Y-12421484D02*
X14485063Y-12402436D01*
X14485063Y-12402436D02*
X14475539Y-12373865D01*
X14475539Y-12373865D02*
X14466015Y-12326246D01*
X14466015Y-12326246D02*
X14466015Y-12288151D01*
X14466015Y-12288151D02*
X14475539Y-12240532D01*
X14475539Y-12240532D02*
X14485063Y-12211960D01*
X14485063Y-12211960D02*
X14494586Y-12192913D01*
X14494586Y-12192913D02*
X14513634Y-12164341D01*
X14513634Y-12164341D02*
X14523158Y-12154817D01*
X14608872Y-12383389D02*
X14646967Y-12383389D01*
X14646967Y-12383389D02*
X14666015Y-12373865D01*
X14666015Y-12373865D02*
X14675539Y-12364341D01*
X14675539Y-12364341D02*
X14694586Y-12335770D01*
X14694586Y-12335770D02*
X14704110Y-12297674D01*
X14704110Y-12297674D02*
X14704110Y-12221484D01*
X14704110Y-12221484D02*
X14694586Y-12202436D01*
X14694586Y-12202436D02*
X14685063Y-12192913D01*
X14685063Y-12192913D02*
X14666015Y-12183389D01*
X14666015Y-12183389D02*
X14627920Y-12183389D01*
X14627920Y-12183389D02*
X14608872Y-12192913D01*
X14608872Y-12192913D02*
X14599348Y-12202436D01*
X14599348Y-12202436D02*
X14589824Y-12221484D01*
X14589824Y-12221484D02*
X14589824Y-12269103D01*
X14589824Y-12269103D02*
X14599348Y-12288151D01*
X14599348Y-12288151D02*
X14608872Y-12297674D01*
X14608872Y-12297674D02*
X14627920Y-12307198D01*
X14627920Y-12307198D02*
X14666015Y-12307198D01*
X14666015Y-12307198D02*
X14685063Y-12297674D01*
X14685063Y-12297674D02*
X14694586Y-12288151D01*
X14694586Y-12288151D02*
X14704110Y-12269103D01*
X14770777Y-12183389D02*
X14894586Y-12183389D01*
X14894586Y-12183389D02*
X14827920Y-12259579D01*
X14827920Y-12259579D02*
X14856491Y-12259579D01*
X14856491Y-12259579D02*
X14875539Y-12269103D01*
X14875539Y-12269103D02*
X14885063Y-12278627D01*
X14885063Y-12278627D02*
X14894586Y-12297674D01*
X14894586Y-12297674D02*
X14894586Y-12345293D01*
X14894586Y-12345293D02*
X14885063Y-12364341D01*
X14885063Y-12364341D02*
X14875539Y-12373865D01*
X14875539Y-12373865D02*
X14856491Y-12383389D01*
X14856491Y-12383389D02*
X14799348Y-12383389D01*
X14799348Y-12383389D02*
X14780301Y-12373865D01*
X14780301Y-12373865D02*
X14770777Y-12364341D01*
X15132682Y-12383389D02*
X15132682Y-12183389D01*
X15218396Y-12383389D02*
X15218396Y-12278627D01*
X15218396Y-12278627D02*
X15208872Y-12259579D01*
X15208872Y-12259579D02*
X15189825Y-12250055D01*
X15189825Y-12250055D02*
X15161253Y-12250055D01*
X15161253Y-12250055D02*
X15142205Y-12259579D01*
X15142205Y-12259579D02*
X15132682Y-12269103D01*
X15342205Y-12383389D02*
X15323158Y-12373865D01*
X15323158Y-12373865D02*
X15313634Y-12364341D01*
X15313634Y-12364341D02*
X15304110Y-12345293D01*
X15304110Y-12345293D02*
X15304110Y-12288151D01*
X15304110Y-12288151D02*
X15313634Y-12269103D01*
X15313634Y-12269103D02*
X15323158Y-12259579D01*
X15323158Y-12259579D02*
X15342205Y-12250055D01*
X15342205Y-12250055D02*
X15370777Y-12250055D01*
X15370777Y-12250055D02*
X15389825Y-12259579D01*
X15389825Y-12259579D02*
X15399348Y-12269103D01*
X15399348Y-12269103D02*
X15408872Y-12288151D01*
X15408872Y-12288151D02*
X15408872Y-12345293D01*
X15408872Y-12345293D02*
X15399348Y-12364341D01*
X15399348Y-12364341D02*
X15389825Y-12373865D01*
X15389825Y-12373865D02*
X15370777Y-12383389D01*
X15370777Y-12383389D02*
X15342205Y-12383389D01*
X15523158Y-12383389D02*
X15504110Y-12373865D01*
X15504110Y-12373865D02*
X15494586Y-12354817D01*
X15494586Y-12354817D02*
X15494586Y-12183389D01*
X15675539Y-12373865D02*
X15656491Y-12383389D01*
X15656491Y-12383389D02*
X15618396Y-12383389D01*
X15618396Y-12383389D02*
X15599348Y-12373865D01*
X15599348Y-12373865D02*
X15589825Y-12354817D01*
X15589825Y-12354817D02*
X15589825Y-12278627D01*
X15589825Y-12278627D02*
X15599348Y-12259579D01*
X15599348Y-12259579D02*
X15618396Y-12250055D01*
X15618396Y-12250055D02*
X15656491Y-12250055D01*
X15656491Y-12250055D02*
X15675539Y-12259579D01*
X15675539Y-12259579D02*
X15685063Y-12278627D01*
X15685063Y-12278627D02*
X15685063Y-12297674D01*
X15685063Y-12297674D02*
X15589825Y-12316722D01*
X15761253Y-12373865D02*
X15780301Y-12383389D01*
X15780301Y-12383389D02*
X15818396Y-12383389D01*
X15818396Y-12383389D02*
X15837444Y-12373865D01*
X15837444Y-12373865D02*
X15846967Y-12354817D01*
X15846967Y-12354817D02*
X15846967Y-12345293D01*
X15846967Y-12345293D02*
X15837444Y-12326246D01*
X15837444Y-12326246D02*
X15818396Y-12316722D01*
X15818396Y-12316722D02*
X15789825Y-12316722D01*
X15789825Y-12316722D02*
X15770777Y-12307198D01*
X15770777Y-12307198D02*
X15761253Y-12288151D01*
X15761253Y-12288151D02*
X15761253Y-12278627D01*
X15761253Y-12278627D02*
X15770777Y-12259579D01*
X15770777Y-12259579D02*
X15789825Y-12250055D01*
X15789825Y-12250055D02*
X15818396Y-12250055D01*
X15818396Y-12250055D02*
X15837444Y-12259579D01*
X15913634Y-12459579D02*
X15923158Y-12450055D01*
X15923158Y-12450055D02*
X15942206Y-12421484D01*
X15942206Y-12421484D02*
X15951729Y-12402436D01*
X15951729Y-12402436D02*
X15961253Y-12373865D01*
X15961253Y-12373865D02*
X15970777Y-12326246D01*
X15970777Y-12326246D02*
X15970777Y-12288151D01*
X15970777Y-12288151D02*
X15961253Y-12240532D01*
X15961253Y-12240532D02*
X15951729Y-12211960D01*
X15951729Y-12211960D02*
X15942206Y-12192913D01*
X15942206Y-12192913D02*
X15923158Y-12164341D01*
X15923158Y-12164341D02*
X15913634Y-12154817D01*
D12*
X10948095Y-12555905D02*
G75*
G02*
X10898095Y-12555905I-25000J0D01*
G01*
X10898095Y-12555905D02*
G75*
G02*
X10948095Y-12555905I25000J0D01*
G01*
D11*
X11246967Y-12447389D02*
X11266015Y-12447389D01*
X11266015Y-12447389D02*
X11285062Y-12456913D01*
X11285062Y-12456913D02*
X11294586Y-12466436D01*
X11294586Y-12466436D02*
X11304110Y-12485484D01*
X11304110Y-12485484D02*
X11313634Y-12523579D01*
X11313634Y-12523579D02*
X11313634Y-12571198D01*
X11313634Y-12571198D02*
X11304110Y-12609293D01*
X11304110Y-12609293D02*
X11294586Y-12628341D01*
X11294586Y-12628341D02*
X11285062Y-12637865D01*
X11285062Y-12637865D02*
X11266015Y-12647389D01*
X11266015Y-12647389D02*
X11246967Y-12647389D01*
X11246967Y-12647389D02*
X11227919Y-12637865D01*
X11227919Y-12637865D02*
X11218396Y-12628341D01*
X11218396Y-12628341D02*
X11208872Y-12609293D01*
X11208872Y-12609293D02*
X11199348Y-12571198D01*
X11199348Y-12571198D02*
X11199348Y-12523579D01*
X11199348Y-12523579D02*
X11208872Y-12485484D01*
X11208872Y-12485484D02*
X11218396Y-12466436D01*
X11218396Y-12466436D02*
X11227919Y-12456913D01*
X11227919Y-12456913D02*
X11246967Y-12447389D01*
X11399348Y-12628341D02*
X11408872Y-12637865D01*
X11408872Y-12637865D02*
X11399348Y-12647389D01*
X11399348Y-12647389D02*
X11389824Y-12637865D01*
X11389824Y-12637865D02*
X11399348Y-12628341D01*
X11399348Y-12628341D02*
X11399348Y-12647389D01*
X11589824Y-12447389D02*
X11494586Y-12447389D01*
X11494586Y-12447389D02*
X11485062Y-12542627D01*
X11485062Y-12542627D02*
X11494586Y-12533103D01*
X11494586Y-12533103D02*
X11513634Y-12523579D01*
X11513634Y-12523579D02*
X11561253Y-12523579D01*
X11561253Y-12523579D02*
X11580300Y-12533103D01*
X11580300Y-12533103D02*
X11589824Y-12542627D01*
X11589824Y-12542627D02*
X11599348Y-12561674D01*
X11599348Y-12561674D02*
X11599348Y-12609293D01*
X11599348Y-12609293D02*
X11589824Y-12628341D01*
X11589824Y-12628341D02*
X11580300Y-12637865D01*
X11580300Y-12637865D02*
X11561253Y-12647389D01*
X11561253Y-12647389D02*
X11513634Y-12647389D01*
X11513634Y-12647389D02*
X11494586Y-12637865D01*
X11494586Y-12637865D02*
X11485062Y-12628341D01*
X11723157Y-12447389D02*
X11742205Y-12447389D01*
X11742205Y-12447389D02*
X11761253Y-12456913D01*
X11761253Y-12456913D02*
X11770777Y-12466436D01*
X11770777Y-12466436D02*
X11780300Y-12485484D01*
X11780300Y-12485484D02*
X11789824Y-12523579D01*
X11789824Y-12523579D02*
X11789824Y-12571198D01*
X11789824Y-12571198D02*
X11780300Y-12609293D01*
X11780300Y-12609293D02*
X11770777Y-12628341D01*
X11770777Y-12628341D02*
X11761253Y-12637865D01*
X11761253Y-12637865D02*
X11742205Y-12647389D01*
X11742205Y-12647389D02*
X11723157Y-12647389D01*
X11723157Y-12647389D02*
X11704110Y-12637865D01*
X11704110Y-12637865D02*
X11694586Y-12628341D01*
X11694586Y-12628341D02*
X11685062Y-12609293D01*
X11685062Y-12609293D02*
X11675538Y-12571198D01*
X11675538Y-12571198D02*
X11675538Y-12523579D01*
X11675538Y-12523579D02*
X11685062Y-12485484D01*
X11685062Y-12485484D02*
X11694586Y-12466436D01*
X11694586Y-12466436D02*
X11704110Y-12456913D01*
X11704110Y-12456913D02*
X11723157Y-12447389D01*
X11913634Y-12447389D02*
X11932681Y-12447389D01*
X11932681Y-12447389D02*
X11951729Y-12456913D01*
X11951729Y-12456913D02*
X11961253Y-12466436D01*
X11961253Y-12466436D02*
X11970777Y-12485484D01*
X11970777Y-12485484D02*
X11980300Y-12523579D01*
X11980300Y-12523579D02*
X11980300Y-12571198D01*
X11980300Y-12571198D02*
X11970777Y-12609293D01*
X11970777Y-12609293D02*
X11961253Y-12628341D01*
X11961253Y-12628341D02*
X11951729Y-12637865D01*
X11951729Y-12637865D02*
X11932681Y-12647389D01*
X11932681Y-12647389D02*
X11913634Y-12647389D01*
X11913634Y-12647389D02*
X11894586Y-12637865D01*
X11894586Y-12637865D02*
X11885062Y-12628341D01*
X11885062Y-12628341D02*
X11875538Y-12609293D01*
X11875538Y-12609293D02*
X11866015Y-12571198D01*
X11866015Y-12571198D02*
X11866015Y-12523579D01*
X11866015Y-12523579D02*
X11875538Y-12485484D01*
X11875538Y-12485484D02*
X11885062Y-12466436D01*
X11885062Y-12466436D02*
X11894586Y-12456913D01*
X11894586Y-12456913D02*
X11913634Y-12447389D01*
X12066015Y-12647389D02*
X12066015Y-12514055D01*
X12066015Y-12533103D02*
X12075538Y-12523579D01*
X12075538Y-12523579D02*
X12094586Y-12514055D01*
X12094586Y-12514055D02*
X12123158Y-12514055D01*
X12123158Y-12514055D02*
X12142205Y-12523579D01*
X12142205Y-12523579D02*
X12151729Y-12542627D01*
X12151729Y-12542627D02*
X12151729Y-12647389D01*
X12151729Y-12542627D02*
X12161253Y-12523579D01*
X12161253Y-12523579D02*
X12180300Y-12514055D01*
X12180300Y-12514055D02*
X12208872Y-12514055D01*
X12208872Y-12514055D02*
X12227919Y-12523579D01*
X12227919Y-12523579D02*
X12237443Y-12542627D01*
X12237443Y-12542627D02*
X12237443Y-12647389D01*
X12332681Y-12647389D02*
X12332681Y-12514055D01*
X12332681Y-12533103D02*
X12342205Y-12523579D01*
X12342205Y-12523579D02*
X12361253Y-12514055D01*
X12361253Y-12514055D02*
X12389824Y-12514055D01*
X12389824Y-12514055D02*
X12408872Y-12523579D01*
X12408872Y-12523579D02*
X12418396Y-12542627D01*
X12418396Y-12542627D02*
X12418396Y-12647389D01*
X12418396Y-12542627D02*
X12427919Y-12523579D01*
X12427919Y-12523579D02*
X12446967Y-12514055D01*
X12446967Y-12514055D02*
X12475538Y-12514055D01*
X12475538Y-12514055D02*
X12494586Y-12523579D01*
X12494586Y-12523579D02*
X12504110Y-12542627D01*
X12504110Y-12542627D02*
X12504110Y-12647389D01*
X12894586Y-12437865D02*
X12723158Y-12695008D01*
X13151729Y-12447389D02*
X13170777Y-12447389D01*
X13170777Y-12447389D02*
X13189824Y-12456913D01*
X13189824Y-12456913D02*
X13199348Y-12466436D01*
X13199348Y-12466436D02*
X13208872Y-12485484D01*
X13208872Y-12485484D02*
X13218396Y-12523579D01*
X13218396Y-12523579D02*
X13218396Y-12571198D01*
X13218396Y-12571198D02*
X13208872Y-12609293D01*
X13208872Y-12609293D02*
X13199348Y-12628341D01*
X13199348Y-12628341D02*
X13189824Y-12637865D01*
X13189824Y-12637865D02*
X13170777Y-12647389D01*
X13170777Y-12647389D02*
X13151729Y-12647389D01*
X13151729Y-12647389D02*
X13132681Y-12637865D01*
X13132681Y-12637865D02*
X13123158Y-12628341D01*
X13123158Y-12628341D02*
X13113634Y-12609293D01*
X13113634Y-12609293D02*
X13104110Y-12571198D01*
X13104110Y-12571198D02*
X13104110Y-12523579D01*
X13104110Y-12523579D02*
X13113634Y-12485484D01*
X13113634Y-12485484D02*
X13123158Y-12466436D01*
X13123158Y-12466436D02*
X13132681Y-12456913D01*
X13132681Y-12456913D02*
X13151729Y-12447389D01*
X13304110Y-12628341D02*
X13313634Y-12637865D01*
X13313634Y-12637865D02*
X13304110Y-12647389D01*
X13304110Y-12647389D02*
X13294586Y-12637865D01*
X13294586Y-12637865D02*
X13304110Y-12628341D01*
X13304110Y-12628341D02*
X13304110Y-12647389D01*
X13437443Y-12447389D02*
X13456491Y-12447389D01*
X13456491Y-12447389D02*
X13475539Y-12456913D01*
X13475539Y-12456913D02*
X13485062Y-12466436D01*
X13485062Y-12466436D02*
X13494586Y-12485484D01*
X13494586Y-12485484D02*
X13504110Y-12523579D01*
X13504110Y-12523579D02*
X13504110Y-12571198D01*
X13504110Y-12571198D02*
X13494586Y-12609293D01*
X13494586Y-12609293D02*
X13485062Y-12628341D01*
X13485062Y-12628341D02*
X13475539Y-12637865D01*
X13475539Y-12637865D02*
X13456491Y-12647389D01*
X13456491Y-12647389D02*
X13437443Y-12647389D01*
X13437443Y-12647389D02*
X13418396Y-12637865D01*
X13418396Y-12637865D02*
X13408872Y-12628341D01*
X13408872Y-12628341D02*
X13399348Y-12609293D01*
X13399348Y-12609293D02*
X13389824Y-12571198D01*
X13389824Y-12571198D02*
X13389824Y-12523579D01*
X13389824Y-12523579D02*
X13399348Y-12485484D01*
X13399348Y-12485484D02*
X13408872Y-12466436D01*
X13408872Y-12466436D02*
X13418396Y-12456913D01*
X13418396Y-12456913D02*
X13437443Y-12447389D01*
X13694586Y-12647389D02*
X13580301Y-12647389D01*
X13637443Y-12647389D02*
X13637443Y-12447389D01*
X13637443Y-12447389D02*
X13618396Y-12475960D01*
X13618396Y-12475960D02*
X13599348Y-12495008D01*
X13599348Y-12495008D02*
X13580301Y-12504532D01*
X13789824Y-12647389D02*
X13827920Y-12647389D01*
X13827920Y-12647389D02*
X13846967Y-12637865D01*
X13846967Y-12637865D02*
X13856491Y-12628341D01*
X13856491Y-12628341D02*
X13875539Y-12599770D01*
X13875539Y-12599770D02*
X13885062Y-12561674D01*
X13885062Y-12561674D02*
X13885062Y-12485484D01*
X13885062Y-12485484D02*
X13875539Y-12466436D01*
X13875539Y-12466436D02*
X13866015Y-12456913D01*
X13866015Y-12456913D02*
X13846967Y-12447389D01*
X13846967Y-12447389D02*
X13808872Y-12447389D01*
X13808872Y-12447389D02*
X13789824Y-12456913D01*
X13789824Y-12456913D02*
X13780301Y-12466436D01*
X13780301Y-12466436D02*
X13770777Y-12485484D01*
X13770777Y-12485484D02*
X13770777Y-12533103D01*
X13770777Y-12533103D02*
X13780301Y-12552151D01*
X13780301Y-12552151D02*
X13789824Y-12561674D01*
X13789824Y-12561674D02*
X13808872Y-12571198D01*
X13808872Y-12571198D02*
X13846967Y-12571198D01*
X13846967Y-12571198D02*
X13866015Y-12561674D01*
X13866015Y-12561674D02*
X13875539Y-12552151D01*
X13875539Y-12552151D02*
X13885062Y-12533103D01*
X13951729Y-12447389D02*
X14085062Y-12447389D01*
X14085062Y-12447389D02*
X13999348Y-12647389D01*
X14151729Y-12447389D02*
X14151729Y-12485484D01*
X14227920Y-12447389D02*
X14227920Y-12485484D01*
X14523158Y-12723579D02*
X14513634Y-12714055D01*
X14513634Y-12714055D02*
X14494586Y-12685484D01*
X14494586Y-12685484D02*
X14485063Y-12666436D01*
X14485063Y-12666436D02*
X14475539Y-12637865D01*
X14475539Y-12637865D02*
X14466015Y-12590246D01*
X14466015Y-12590246D02*
X14466015Y-12552151D01*
X14466015Y-12552151D02*
X14475539Y-12504532D01*
X14475539Y-12504532D02*
X14485063Y-12475960D01*
X14485063Y-12475960D02*
X14494586Y-12456913D01*
X14494586Y-12456913D02*
X14513634Y-12428341D01*
X14513634Y-12428341D02*
X14523158Y-12418817D01*
X14589824Y-12466436D02*
X14599348Y-12456913D01*
X14599348Y-12456913D02*
X14618396Y-12447389D01*
X14618396Y-12447389D02*
X14666015Y-12447389D01*
X14666015Y-12447389D02*
X14685063Y-12456913D01*
X14685063Y-12456913D02*
X14694586Y-12466436D01*
X14694586Y-12466436D02*
X14704110Y-12485484D01*
X14704110Y-12485484D02*
X14704110Y-12504532D01*
X14704110Y-12504532D02*
X14694586Y-12533103D01*
X14694586Y-12533103D02*
X14580301Y-12647389D01*
X14580301Y-12647389D02*
X14704110Y-12647389D01*
X14875539Y-12514055D02*
X14875539Y-12647389D01*
X14827920Y-12437865D02*
X14780301Y-12580722D01*
X14780301Y-12580722D02*
X14904110Y-12580722D01*
X15132682Y-12647389D02*
X15132682Y-12447389D01*
X15218396Y-12647389D02*
X15218396Y-12542627D01*
X15218396Y-12542627D02*
X15208872Y-12523579D01*
X15208872Y-12523579D02*
X15189825Y-12514055D01*
X15189825Y-12514055D02*
X15161253Y-12514055D01*
X15161253Y-12514055D02*
X15142205Y-12523579D01*
X15142205Y-12523579D02*
X15132682Y-12533103D01*
X15342205Y-12647389D02*
X15323158Y-12637865D01*
X15323158Y-12637865D02*
X15313634Y-12628341D01*
X15313634Y-12628341D02*
X15304110Y-12609293D01*
X15304110Y-12609293D02*
X15304110Y-12552151D01*
X15304110Y-12552151D02*
X15313634Y-12533103D01*
X15313634Y-12533103D02*
X15323158Y-12523579D01*
X15323158Y-12523579D02*
X15342205Y-12514055D01*
X15342205Y-12514055D02*
X15370777Y-12514055D01*
X15370777Y-12514055D02*
X15389825Y-12523579D01*
X15389825Y-12523579D02*
X15399348Y-12533103D01*
X15399348Y-12533103D02*
X15408872Y-12552151D01*
X15408872Y-12552151D02*
X15408872Y-12609293D01*
X15408872Y-12609293D02*
X15399348Y-12628341D01*
X15399348Y-12628341D02*
X15389825Y-12637865D01*
X15389825Y-12637865D02*
X15370777Y-12647389D01*
X15370777Y-12647389D02*
X15342205Y-12647389D01*
X15523158Y-12647389D02*
X15504110Y-12637865D01*
X15504110Y-12637865D02*
X15494586Y-12618817D01*
X15494586Y-12618817D02*
X15494586Y-12447389D01*
X15675539Y-12637865D02*
X15656491Y-12647389D01*
X15656491Y-12647389D02*
X15618396Y-12647389D01*
X15618396Y-12647389D02*
X15599348Y-12637865D01*
X15599348Y-12637865D02*
X15589825Y-12618817D01*
X15589825Y-12618817D02*
X15589825Y-12542627D01*
X15589825Y-12542627D02*
X15599348Y-12523579D01*
X15599348Y-12523579D02*
X15618396Y-12514055D01*
X15618396Y-12514055D02*
X15656491Y-12514055D01*
X15656491Y-12514055D02*
X15675539Y-12523579D01*
X15675539Y-12523579D02*
X15685063Y-12542627D01*
X15685063Y-12542627D02*
X15685063Y-12561674D01*
X15685063Y-12561674D02*
X15589825Y-12580722D01*
X15761253Y-12637865D02*
X15780301Y-12647389D01*
X15780301Y-12647389D02*
X15818396Y-12647389D01*
X15818396Y-12647389D02*
X15837444Y-12637865D01*
X15837444Y-12637865D02*
X15846967Y-12618817D01*
X15846967Y-12618817D02*
X15846967Y-12609293D01*
X15846967Y-12609293D02*
X15837444Y-12590246D01*
X15837444Y-12590246D02*
X15818396Y-12580722D01*
X15818396Y-12580722D02*
X15789825Y-12580722D01*
X15789825Y-12580722D02*
X15770777Y-12571198D01*
X15770777Y-12571198D02*
X15761253Y-12552151D01*
X15761253Y-12552151D02*
X15761253Y-12542627D01*
X15761253Y-12542627D02*
X15770777Y-12523579D01*
X15770777Y-12523579D02*
X15789825Y-12514055D01*
X15789825Y-12514055D02*
X15818396Y-12514055D01*
X15818396Y-12514055D02*
X15837444Y-12523579D01*
X15913634Y-12723579D02*
X15923158Y-12714055D01*
X15923158Y-12714055D02*
X15942206Y-12685484D01*
X15942206Y-12685484D02*
X15951729Y-12666436D01*
X15951729Y-12666436D02*
X15961253Y-12637865D01*
X15961253Y-12637865D02*
X15970777Y-12590246D01*
X15970777Y-12590246D02*
X15970777Y-12552151D01*
X15970777Y-12552151D02*
X15961253Y-12504532D01*
X15961253Y-12504532D02*
X15951729Y-12475960D01*
X15951729Y-12475960D02*
X15942206Y-12456913D01*
X15942206Y-12456913D02*
X15923158Y-12428341D01*
X15923158Y-12428341D02*
X15913634Y-12418817D01*
D12*
X10918095Y-12789905D02*
X10918095Y-12849905D01*
X10888095Y-12819905D02*
X10948095Y-12819905D01*
D11*
X11246967Y-12711389D02*
X11266015Y-12711389D01*
X11266015Y-12711389D02*
X11285062Y-12720913D01*
X11285062Y-12720913D02*
X11294586Y-12730436D01*
X11294586Y-12730436D02*
X11304110Y-12749484D01*
X11304110Y-12749484D02*
X11313634Y-12787579D01*
X11313634Y-12787579D02*
X11313634Y-12835198D01*
X11313634Y-12835198D02*
X11304110Y-12873293D01*
X11304110Y-12873293D02*
X11294586Y-12892341D01*
X11294586Y-12892341D02*
X11285062Y-12901865D01*
X11285062Y-12901865D02*
X11266015Y-12911389D01*
X11266015Y-12911389D02*
X11246967Y-12911389D01*
X11246967Y-12911389D02*
X11227919Y-12901865D01*
X11227919Y-12901865D02*
X11218396Y-12892341D01*
X11218396Y-12892341D02*
X11208872Y-12873293D01*
X11208872Y-12873293D02*
X11199348Y-12835198D01*
X11199348Y-12835198D02*
X11199348Y-12787579D01*
X11199348Y-12787579D02*
X11208872Y-12749484D01*
X11208872Y-12749484D02*
X11218396Y-12730436D01*
X11218396Y-12730436D02*
X11227919Y-12720913D01*
X11227919Y-12720913D02*
X11246967Y-12711389D01*
X11399348Y-12892341D02*
X11408872Y-12901865D01*
X11408872Y-12901865D02*
X11399348Y-12911389D01*
X11399348Y-12911389D02*
X11389824Y-12901865D01*
X11389824Y-12901865D02*
X11399348Y-12892341D01*
X11399348Y-12892341D02*
X11399348Y-12911389D01*
X11580300Y-12711389D02*
X11542205Y-12711389D01*
X11542205Y-12711389D02*
X11523157Y-12720913D01*
X11523157Y-12720913D02*
X11513634Y-12730436D01*
X11513634Y-12730436D02*
X11494586Y-12759008D01*
X11494586Y-12759008D02*
X11485062Y-12797103D01*
X11485062Y-12797103D02*
X11485062Y-12873293D01*
X11485062Y-12873293D02*
X11494586Y-12892341D01*
X11494586Y-12892341D02*
X11504110Y-12901865D01*
X11504110Y-12901865D02*
X11523157Y-12911389D01*
X11523157Y-12911389D02*
X11561253Y-12911389D01*
X11561253Y-12911389D02*
X11580300Y-12901865D01*
X11580300Y-12901865D02*
X11589824Y-12892341D01*
X11589824Y-12892341D02*
X11599348Y-12873293D01*
X11599348Y-12873293D02*
X11599348Y-12825674D01*
X11599348Y-12825674D02*
X11589824Y-12806627D01*
X11589824Y-12806627D02*
X11580300Y-12797103D01*
X11580300Y-12797103D02*
X11561253Y-12787579D01*
X11561253Y-12787579D02*
X11523157Y-12787579D01*
X11523157Y-12787579D02*
X11504110Y-12797103D01*
X11504110Y-12797103D02*
X11494586Y-12806627D01*
X11494586Y-12806627D02*
X11485062Y-12825674D01*
X11723157Y-12711389D02*
X11742205Y-12711389D01*
X11742205Y-12711389D02*
X11761253Y-12720913D01*
X11761253Y-12720913D02*
X11770777Y-12730436D01*
X11770777Y-12730436D02*
X11780300Y-12749484D01*
X11780300Y-12749484D02*
X11789824Y-12787579D01*
X11789824Y-12787579D02*
X11789824Y-12835198D01*
X11789824Y-12835198D02*
X11780300Y-12873293D01*
X11780300Y-12873293D02*
X11770777Y-12892341D01*
X11770777Y-12892341D02*
X11761253Y-12901865D01*
X11761253Y-12901865D02*
X11742205Y-12911389D01*
X11742205Y-12911389D02*
X11723157Y-12911389D01*
X11723157Y-12911389D02*
X11704110Y-12901865D01*
X11704110Y-12901865D02*
X11694586Y-12892341D01*
X11694586Y-12892341D02*
X11685062Y-12873293D01*
X11685062Y-12873293D02*
X11675538Y-12835198D01*
X11675538Y-12835198D02*
X11675538Y-12787579D01*
X11675538Y-12787579D02*
X11685062Y-12749484D01*
X11685062Y-12749484D02*
X11694586Y-12730436D01*
X11694586Y-12730436D02*
X11704110Y-12720913D01*
X11704110Y-12720913D02*
X11723157Y-12711389D01*
X11913634Y-12711389D02*
X11932681Y-12711389D01*
X11932681Y-12711389D02*
X11951729Y-12720913D01*
X11951729Y-12720913D02*
X11961253Y-12730436D01*
X11961253Y-12730436D02*
X11970777Y-12749484D01*
X11970777Y-12749484D02*
X11980300Y-12787579D01*
X11980300Y-12787579D02*
X11980300Y-12835198D01*
X11980300Y-12835198D02*
X11970777Y-12873293D01*
X11970777Y-12873293D02*
X11961253Y-12892341D01*
X11961253Y-12892341D02*
X11951729Y-12901865D01*
X11951729Y-12901865D02*
X11932681Y-12911389D01*
X11932681Y-12911389D02*
X11913634Y-12911389D01*
X11913634Y-12911389D02*
X11894586Y-12901865D01*
X11894586Y-12901865D02*
X11885062Y-12892341D01*
X11885062Y-12892341D02*
X11875538Y-12873293D01*
X11875538Y-12873293D02*
X11866015Y-12835198D01*
X11866015Y-12835198D02*
X11866015Y-12787579D01*
X11866015Y-12787579D02*
X11875538Y-12749484D01*
X11875538Y-12749484D02*
X11885062Y-12730436D01*
X11885062Y-12730436D02*
X11894586Y-12720913D01*
X11894586Y-12720913D02*
X11913634Y-12711389D01*
X12066015Y-12911389D02*
X12066015Y-12778055D01*
X12066015Y-12797103D02*
X12075538Y-12787579D01*
X12075538Y-12787579D02*
X12094586Y-12778055D01*
X12094586Y-12778055D02*
X12123158Y-12778055D01*
X12123158Y-12778055D02*
X12142205Y-12787579D01*
X12142205Y-12787579D02*
X12151729Y-12806627D01*
X12151729Y-12806627D02*
X12151729Y-12911389D01*
X12151729Y-12806627D02*
X12161253Y-12787579D01*
X12161253Y-12787579D02*
X12180300Y-12778055D01*
X12180300Y-12778055D02*
X12208872Y-12778055D01*
X12208872Y-12778055D02*
X12227919Y-12787579D01*
X12227919Y-12787579D02*
X12237443Y-12806627D01*
X12237443Y-12806627D02*
X12237443Y-12911389D01*
X12332681Y-12911389D02*
X12332681Y-12778055D01*
X12332681Y-12797103D02*
X12342205Y-12787579D01*
X12342205Y-12787579D02*
X12361253Y-12778055D01*
X12361253Y-12778055D02*
X12389824Y-12778055D01*
X12389824Y-12778055D02*
X12408872Y-12787579D01*
X12408872Y-12787579D02*
X12418396Y-12806627D01*
X12418396Y-12806627D02*
X12418396Y-12911389D01*
X12418396Y-12806627D02*
X12427919Y-12787579D01*
X12427919Y-12787579D02*
X12446967Y-12778055D01*
X12446967Y-12778055D02*
X12475538Y-12778055D01*
X12475538Y-12778055D02*
X12494586Y-12787579D01*
X12494586Y-12787579D02*
X12504110Y-12806627D01*
X12504110Y-12806627D02*
X12504110Y-12911389D01*
X12894586Y-12701865D02*
X12723158Y-12959008D01*
X13151729Y-12711389D02*
X13170777Y-12711389D01*
X13170777Y-12711389D02*
X13189824Y-12720913D01*
X13189824Y-12720913D02*
X13199348Y-12730436D01*
X13199348Y-12730436D02*
X13208872Y-12749484D01*
X13208872Y-12749484D02*
X13218396Y-12787579D01*
X13218396Y-12787579D02*
X13218396Y-12835198D01*
X13218396Y-12835198D02*
X13208872Y-12873293D01*
X13208872Y-12873293D02*
X13199348Y-12892341D01*
X13199348Y-12892341D02*
X13189824Y-12901865D01*
X13189824Y-12901865D02*
X13170777Y-12911389D01*
X13170777Y-12911389D02*
X13151729Y-12911389D01*
X13151729Y-12911389D02*
X13132681Y-12901865D01*
X13132681Y-12901865D02*
X13123158Y-12892341D01*
X13123158Y-12892341D02*
X13113634Y-12873293D01*
X13113634Y-12873293D02*
X13104110Y-12835198D01*
X13104110Y-12835198D02*
X13104110Y-12787579D01*
X13104110Y-12787579D02*
X13113634Y-12749484D01*
X13113634Y-12749484D02*
X13123158Y-12730436D01*
X13123158Y-12730436D02*
X13132681Y-12720913D01*
X13132681Y-12720913D02*
X13151729Y-12711389D01*
X13304110Y-12892341D02*
X13313634Y-12901865D01*
X13313634Y-12901865D02*
X13304110Y-12911389D01*
X13304110Y-12911389D02*
X13294586Y-12901865D01*
X13294586Y-12901865D02*
X13304110Y-12892341D01*
X13304110Y-12892341D02*
X13304110Y-12911389D01*
X13437443Y-12711389D02*
X13456491Y-12711389D01*
X13456491Y-12711389D02*
X13475539Y-12720913D01*
X13475539Y-12720913D02*
X13485062Y-12730436D01*
X13485062Y-12730436D02*
X13494586Y-12749484D01*
X13494586Y-12749484D02*
X13504110Y-12787579D01*
X13504110Y-12787579D02*
X13504110Y-12835198D01*
X13504110Y-12835198D02*
X13494586Y-12873293D01*
X13494586Y-12873293D02*
X13485062Y-12892341D01*
X13485062Y-12892341D02*
X13475539Y-12901865D01*
X13475539Y-12901865D02*
X13456491Y-12911389D01*
X13456491Y-12911389D02*
X13437443Y-12911389D01*
X13437443Y-12911389D02*
X13418396Y-12901865D01*
X13418396Y-12901865D02*
X13408872Y-12892341D01*
X13408872Y-12892341D02*
X13399348Y-12873293D01*
X13399348Y-12873293D02*
X13389824Y-12835198D01*
X13389824Y-12835198D02*
X13389824Y-12787579D01*
X13389824Y-12787579D02*
X13399348Y-12749484D01*
X13399348Y-12749484D02*
X13408872Y-12730436D01*
X13408872Y-12730436D02*
X13418396Y-12720913D01*
X13418396Y-12720913D02*
X13437443Y-12711389D01*
X13580301Y-12730436D02*
X13589824Y-12720913D01*
X13589824Y-12720913D02*
X13608872Y-12711389D01*
X13608872Y-12711389D02*
X13656491Y-12711389D01*
X13656491Y-12711389D02*
X13675539Y-12720913D01*
X13675539Y-12720913D02*
X13685062Y-12730436D01*
X13685062Y-12730436D02*
X13694586Y-12749484D01*
X13694586Y-12749484D02*
X13694586Y-12768532D01*
X13694586Y-12768532D02*
X13685062Y-12797103D01*
X13685062Y-12797103D02*
X13570777Y-12911389D01*
X13570777Y-12911389D02*
X13694586Y-12911389D01*
X13761253Y-12711389D02*
X13885062Y-12711389D01*
X13885062Y-12711389D02*
X13818396Y-12787579D01*
X13818396Y-12787579D02*
X13846967Y-12787579D01*
X13846967Y-12787579D02*
X13866015Y-12797103D01*
X13866015Y-12797103D02*
X13875539Y-12806627D01*
X13875539Y-12806627D02*
X13885062Y-12825674D01*
X13885062Y-12825674D02*
X13885062Y-12873293D01*
X13885062Y-12873293D02*
X13875539Y-12892341D01*
X13875539Y-12892341D02*
X13866015Y-12901865D01*
X13866015Y-12901865D02*
X13846967Y-12911389D01*
X13846967Y-12911389D02*
X13789824Y-12911389D01*
X13789824Y-12911389D02*
X13770777Y-12901865D01*
X13770777Y-12901865D02*
X13761253Y-12892341D01*
X14056491Y-12711389D02*
X14018396Y-12711389D01*
X14018396Y-12711389D02*
X13999348Y-12720913D01*
X13999348Y-12720913D02*
X13989824Y-12730436D01*
X13989824Y-12730436D02*
X13970777Y-12759008D01*
X13970777Y-12759008D02*
X13961253Y-12797103D01*
X13961253Y-12797103D02*
X13961253Y-12873293D01*
X13961253Y-12873293D02*
X13970777Y-12892341D01*
X13970777Y-12892341D02*
X13980301Y-12901865D01*
X13980301Y-12901865D02*
X13999348Y-12911389D01*
X13999348Y-12911389D02*
X14037443Y-12911389D01*
X14037443Y-12911389D02*
X14056491Y-12901865D01*
X14056491Y-12901865D02*
X14066015Y-12892341D01*
X14066015Y-12892341D02*
X14075539Y-12873293D01*
X14075539Y-12873293D02*
X14075539Y-12825674D01*
X14075539Y-12825674D02*
X14066015Y-12806627D01*
X14066015Y-12806627D02*
X14056491Y-12797103D01*
X14056491Y-12797103D02*
X14037443Y-12787579D01*
X14037443Y-12787579D02*
X13999348Y-12787579D01*
X13999348Y-12787579D02*
X13980301Y-12797103D01*
X13980301Y-12797103D02*
X13970777Y-12806627D01*
X13970777Y-12806627D02*
X13961253Y-12825674D01*
X14151729Y-12711389D02*
X14151729Y-12749484D01*
X14227920Y-12711389D02*
X14227920Y-12749484D01*
X14523158Y-12987579D02*
X14513634Y-12978055D01*
X14513634Y-12978055D02*
X14494586Y-12949484D01*
X14494586Y-12949484D02*
X14485063Y-12930436D01*
X14485063Y-12930436D02*
X14475539Y-12901865D01*
X14475539Y-12901865D02*
X14466015Y-12854246D01*
X14466015Y-12854246D02*
X14466015Y-12816151D01*
X14466015Y-12816151D02*
X14475539Y-12768532D01*
X14475539Y-12768532D02*
X14485063Y-12739960D01*
X14485063Y-12739960D02*
X14494586Y-12720913D01*
X14494586Y-12720913D02*
X14513634Y-12692341D01*
X14513634Y-12692341D02*
X14523158Y-12682817D01*
X14589824Y-12730436D02*
X14599348Y-12720913D01*
X14599348Y-12720913D02*
X14618396Y-12711389D01*
X14618396Y-12711389D02*
X14666015Y-12711389D01*
X14666015Y-12711389D02*
X14685063Y-12720913D01*
X14685063Y-12720913D02*
X14694586Y-12730436D01*
X14694586Y-12730436D02*
X14704110Y-12749484D01*
X14704110Y-12749484D02*
X14704110Y-12768532D01*
X14704110Y-12768532D02*
X14694586Y-12797103D01*
X14694586Y-12797103D02*
X14580301Y-12911389D01*
X14580301Y-12911389D02*
X14704110Y-12911389D01*
X14942205Y-12911389D02*
X14942205Y-12711389D01*
X15027920Y-12911389D02*
X15027920Y-12806627D01*
X15027920Y-12806627D02*
X15018396Y-12787579D01*
X15018396Y-12787579D02*
X14999348Y-12778055D01*
X14999348Y-12778055D02*
X14970777Y-12778055D01*
X14970777Y-12778055D02*
X14951729Y-12787579D01*
X14951729Y-12787579D02*
X14942205Y-12797103D01*
X15151729Y-12911389D02*
X15132682Y-12901865D01*
X15132682Y-12901865D02*
X15123158Y-12892341D01*
X15123158Y-12892341D02*
X15113634Y-12873293D01*
X15113634Y-12873293D02*
X15113634Y-12816151D01*
X15113634Y-12816151D02*
X15123158Y-12797103D01*
X15123158Y-12797103D02*
X15132682Y-12787579D01*
X15132682Y-12787579D02*
X15151729Y-12778055D01*
X15151729Y-12778055D02*
X15180301Y-12778055D01*
X15180301Y-12778055D02*
X15199348Y-12787579D01*
X15199348Y-12787579D02*
X15208872Y-12797103D01*
X15208872Y-12797103D02*
X15218396Y-12816151D01*
X15218396Y-12816151D02*
X15218396Y-12873293D01*
X15218396Y-12873293D02*
X15208872Y-12892341D01*
X15208872Y-12892341D02*
X15199348Y-12901865D01*
X15199348Y-12901865D02*
X15180301Y-12911389D01*
X15180301Y-12911389D02*
X15151729Y-12911389D01*
X15332682Y-12911389D02*
X15313634Y-12901865D01*
X15313634Y-12901865D02*
X15304110Y-12882817D01*
X15304110Y-12882817D02*
X15304110Y-12711389D01*
X15485063Y-12901865D02*
X15466015Y-12911389D01*
X15466015Y-12911389D02*
X15427920Y-12911389D01*
X15427920Y-12911389D02*
X15408872Y-12901865D01*
X15408872Y-12901865D02*
X15399348Y-12882817D01*
X15399348Y-12882817D02*
X15399348Y-12806627D01*
X15399348Y-12806627D02*
X15408872Y-12787579D01*
X15408872Y-12787579D02*
X15427920Y-12778055D01*
X15427920Y-12778055D02*
X15466015Y-12778055D01*
X15466015Y-12778055D02*
X15485063Y-12787579D01*
X15485063Y-12787579D02*
X15494586Y-12806627D01*
X15494586Y-12806627D02*
X15494586Y-12825674D01*
X15494586Y-12825674D02*
X15399348Y-12844722D01*
X15570777Y-12901865D02*
X15589825Y-12911389D01*
X15589825Y-12911389D02*
X15627920Y-12911389D01*
X15627920Y-12911389D02*
X15646967Y-12901865D01*
X15646967Y-12901865D02*
X15656491Y-12882817D01*
X15656491Y-12882817D02*
X15656491Y-12873293D01*
X15656491Y-12873293D02*
X15646967Y-12854246D01*
X15646967Y-12854246D02*
X15627920Y-12844722D01*
X15627920Y-12844722D02*
X15599348Y-12844722D01*
X15599348Y-12844722D02*
X15580301Y-12835198D01*
X15580301Y-12835198D02*
X15570777Y-12816151D01*
X15570777Y-12816151D02*
X15570777Y-12806627D01*
X15570777Y-12806627D02*
X15580301Y-12787579D01*
X15580301Y-12787579D02*
X15599348Y-12778055D01*
X15599348Y-12778055D02*
X15627920Y-12778055D01*
X15627920Y-12778055D02*
X15646967Y-12787579D01*
X15723158Y-12987579D02*
X15732682Y-12978055D01*
X15732682Y-12978055D02*
X15751729Y-12949484D01*
X15751729Y-12949484D02*
X15761253Y-12930436D01*
X15761253Y-12930436D02*
X15770777Y-12901865D01*
X15770777Y-12901865D02*
X15780301Y-12854246D01*
X15780301Y-12854246D02*
X15780301Y-12816151D01*
X15780301Y-12816151D02*
X15770777Y-12768532D01*
X15770777Y-12768532D02*
X15761253Y-12739960D01*
X15761253Y-12739960D02*
X15751729Y-12720913D01*
X15751729Y-12720913D02*
X15732682Y-12692341D01*
X15732682Y-12692341D02*
X15723158Y-12682817D01*
D12*
X10937844Y-13108654D02*
X10937844Y-13059156D01*
X10888346Y-13059156D01*
X10888346Y-13108654D01*
X10937844Y-13108654D01*
D11*
X11246967Y-12975389D02*
X11266015Y-12975389D01*
X11266015Y-12975389D02*
X11285062Y-12984913D01*
X11285062Y-12984913D02*
X11294586Y-12994436D01*
X11294586Y-12994436D02*
X11304110Y-13013484D01*
X11304110Y-13013484D02*
X11313634Y-13051579D01*
X11313634Y-13051579D02*
X11313634Y-13099198D01*
X11313634Y-13099198D02*
X11304110Y-13137293D01*
X11304110Y-13137293D02*
X11294586Y-13156341D01*
X11294586Y-13156341D02*
X11285062Y-13165865D01*
X11285062Y-13165865D02*
X11266015Y-13175389D01*
X11266015Y-13175389D02*
X11246967Y-13175389D01*
X11246967Y-13175389D02*
X11227919Y-13165865D01*
X11227919Y-13165865D02*
X11218396Y-13156341D01*
X11218396Y-13156341D02*
X11208872Y-13137293D01*
X11208872Y-13137293D02*
X11199348Y-13099198D01*
X11199348Y-13099198D02*
X11199348Y-13051579D01*
X11199348Y-13051579D02*
X11208872Y-13013484D01*
X11208872Y-13013484D02*
X11218396Y-12994436D01*
X11218396Y-12994436D02*
X11227919Y-12984913D01*
X11227919Y-12984913D02*
X11246967Y-12975389D01*
X11399348Y-13156341D02*
X11408872Y-13165865D01*
X11408872Y-13165865D02*
X11399348Y-13175389D01*
X11399348Y-13175389D02*
X11389824Y-13165865D01*
X11389824Y-13165865D02*
X11399348Y-13156341D01*
X11399348Y-13156341D02*
X11399348Y-13175389D01*
X11475538Y-12975389D02*
X11608872Y-12975389D01*
X11608872Y-12975389D02*
X11523157Y-13175389D01*
X11723157Y-12975389D02*
X11742205Y-12975389D01*
X11742205Y-12975389D02*
X11761253Y-12984913D01*
X11761253Y-12984913D02*
X11770777Y-12994436D01*
X11770777Y-12994436D02*
X11780300Y-13013484D01*
X11780300Y-13013484D02*
X11789824Y-13051579D01*
X11789824Y-13051579D02*
X11789824Y-13099198D01*
X11789824Y-13099198D02*
X11780300Y-13137293D01*
X11780300Y-13137293D02*
X11770777Y-13156341D01*
X11770777Y-13156341D02*
X11761253Y-13165865D01*
X11761253Y-13165865D02*
X11742205Y-13175389D01*
X11742205Y-13175389D02*
X11723157Y-13175389D01*
X11723157Y-13175389D02*
X11704110Y-13165865D01*
X11704110Y-13165865D02*
X11694586Y-13156341D01*
X11694586Y-13156341D02*
X11685062Y-13137293D01*
X11685062Y-13137293D02*
X11675538Y-13099198D01*
X11675538Y-13099198D02*
X11675538Y-13051579D01*
X11675538Y-13051579D02*
X11685062Y-13013484D01*
X11685062Y-13013484D02*
X11694586Y-12994436D01*
X11694586Y-12994436D02*
X11704110Y-12984913D01*
X11704110Y-12984913D02*
X11723157Y-12975389D01*
X11913634Y-12975389D02*
X11932681Y-12975389D01*
X11932681Y-12975389D02*
X11951729Y-12984913D01*
X11951729Y-12984913D02*
X11961253Y-12994436D01*
X11961253Y-12994436D02*
X11970777Y-13013484D01*
X11970777Y-13013484D02*
X11980300Y-13051579D01*
X11980300Y-13051579D02*
X11980300Y-13099198D01*
X11980300Y-13099198D02*
X11970777Y-13137293D01*
X11970777Y-13137293D02*
X11961253Y-13156341D01*
X11961253Y-13156341D02*
X11951729Y-13165865D01*
X11951729Y-13165865D02*
X11932681Y-13175389D01*
X11932681Y-13175389D02*
X11913634Y-13175389D01*
X11913634Y-13175389D02*
X11894586Y-13165865D01*
X11894586Y-13165865D02*
X11885062Y-13156341D01*
X11885062Y-13156341D02*
X11875538Y-13137293D01*
X11875538Y-13137293D02*
X11866015Y-13099198D01*
X11866015Y-13099198D02*
X11866015Y-13051579D01*
X11866015Y-13051579D02*
X11875538Y-13013484D01*
X11875538Y-13013484D02*
X11885062Y-12994436D01*
X11885062Y-12994436D02*
X11894586Y-12984913D01*
X11894586Y-12984913D02*
X11913634Y-12975389D01*
X12066015Y-13175389D02*
X12066015Y-13042055D01*
X12066015Y-13061103D02*
X12075538Y-13051579D01*
X12075538Y-13051579D02*
X12094586Y-13042055D01*
X12094586Y-13042055D02*
X12123158Y-13042055D01*
X12123158Y-13042055D02*
X12142205Y-13051579D01*
X12142205Y-13051579D02*
X12151729Y-13070627D01*
X12151729Y-13070627D02*
X12151729Y-13175389D01*
X12151729Y-13070627D02*
X12161253Y-13051579D01*
X12161253Y-13051579D02*
X12180300Y-13042055D01*
X12180300Y-13042055D02*
X12208872Y-13042055D01*
X12208872Y-13042055D02*
X12227919Y-13051579D01*
X12227919Y-13051579D02*
X12237443Y-13070627D01*
X12237443Y-13070627D02*
X12237443Y-13175389D01*
X12332681Y-13175389D02*
X12332681Y-13042055D01*
X12332681Y-13061103D02*
X12342205Y-13051579D01*
X12342205Y-13051579D02*
X12361253Y-13042055D01*
X12361253Y-13042055D02*
X12389824Y-13042055D01*
X12389824Y-13042055D02*
X12408872Y-13051579D01*
X12408872Y-13051579D02*
X12418396Y-13070627D01*
X12418396Y-13070627D02*
X12418396Y-13175389D01*
X12418396Y-13070627D02*
X12427919Y-13051579D01*
X12427919Y-13051579D02*
X12446967Y-13042055D01*
X12446967Y-13042055D02*
X12475538Y-13042055D01*
X12475538Y-13042055D02*
X12494586Y-13051579D01*
X12494586Y-13051579D02*
X12504110Y-13070627D01*
X12504110Y-13070627D02*
X12504110Y-13175389D01*
X12894586Y-12965865D02*
X12723158Y-13223008D01*
X13151729Y-12975389D02*
X13170777Y-12975389D01*
X13170777Y-12975389D02*
X13189824Y-12984913D01*
X13189824Y-12984913D02*
X13199348Y-12994436D01*
X13199348Y-12994436D02*
X13208872Y-13013484D01*
X13208872Y-13013484D02*
X13218396Y-13051579D01*
X13218396Y-13051579D02*
X13218396Y-13099198D01*
X13218396Y-13099198D02*
X13208872Y-13137293D01*
X13208872Y-13137293D02*
X13199348Y-13156341D01*
X13199348Y-13156341D02*
X13189824Y-13165865D01*
X13189824Y-13165865D02*
X13170777Y-13175389D01*
X13170777Y-13175389D02*
X13151729Y-13175389D01*
X13151729Y-13175389D02*
X13132681Y-13165865D01*
X13132681Y-13165865D02*
X13123158Y-13156341D01*
X13123158Y-13156341D02*
X13113634Y-13137293D01*
X13113634Y-13137293D02*
X13104110Y-13099198D01*
X13104110Y-13099198D02*
X13104110Y-13051579D01*
X13104110Y-13051579D02*
X13113634Y-13013484D01*
X13113634Y-13013484D02*
X13123158Y-12994436D01*
X13123158Y-12994436D02*
X13132681Y-12984913D01*
X13132681Y-12984913D02*
X13151729Y-12975389D01*
X13304110Y-13156341D02*
X13313634Y-13165865D01*
X13313634Y-13165865D02*
X13304110Y-13175389D01*
X13304110Y-13175389D02*
X13294586Y-13165865D01*
X13294586Y-13165865D02*
X13304110Y-13156341D01*
X13304110Y-13156341D02*
X13304110Y-13175389D01*
X13437443Y-12975389D02*
X13456491Y-12975389D01*
X13456491Y-12975389D02*
X13475539Y-12984913D01*
X13475539Y-12984913D02*
X13485062Y-12994436D01*
X13485062Y-12994436D02*
X13494586Y-13013484D01*
X13494586Y-13013484D02*
X13504110Y-13051579D01*
X13504110Y-13051579D02*
X13504110Y-13099198D01*
X13504110Y-13099198D02*
X13494586Y-13137293D01*
X13494586Y-13137293D02*
X13485062Y-13156341D01*
X13485062Y-13156341D02*
X13475539Y-13165865D01*
X13475539Y-13165865D02*
X13456491Y-13175389D01*
X13456491Y-13175389D02*
X13437443Y-13175389D01*
X13437443Y-13175389D02*
X13418396Y-13165865D01*
X13418396Y-13165865D02*
X13408872Y-13156341D01*
X13408872Y-13156341D02*
X13399348Y-13137293D01*
X13399348Y-13137293D02*
X13389824Y-13099198D01*
X13389824Y-13099198D02*
X13389824Y-13051579D01*
X13389824Y-13051579D02*
X13399348Y-13013484D01*
X13399348Y-13013484D02*
X13408872Y-12994436D01*
X13408872Y-12994436D02*
X13418396Y-12984913D01*
X13418396Y-12984913D02*
X13437443Y-12975389D01*
X13580301Y-12994436D02*
X13589824Y-12984913D01*
X13589824Y-12984913D02*
X13608872Y-12975389D01*
X13608872Y-12975389D02*
X13656491Y-12975389D01*
X13656491Y-12975389D02*
X13675539Y-12984913D01*
X13675539Y-12984913D02*
X13685062Y-12994436D01*
X13685062Y-12994436D02*
X13694586Y-13013484D01*
X13694586Y-13013484D02*
X13694586Y-13032532D01*
X13694586Y-13032532D02*
X13685062Y-13061103D01*
X13685062Y-13061103D02*
X13570777Y-13175389D01*
X13570777Y-13175389D02*
X13694586Y-13175389D01*
X13761253Y-12975389D02*
X13894586Y-12975389D01*
X13894586Y-12975389D02*
X13808872Y-13175389D01*
X14056491Y-12975389D02*
X14018396Y-12975389D01*
X14018396Y-12975389D02*
X13999348Y-12984913D01*
X13999348Y-12984913D02*
X13989824Y-12994436D01*
X13989824Y-12994436D02*
X13970777Y-13023008D01*
X13970777Y-13023008D02*
X13961253Y-13061103D01*
X13961253Y-13061103D02*
X13961253Y-13137293D01*
X13961253Y-13137293D02*
X13970777Y-13156341D01*
X13970777Y-13156341D02*
X13980301Y-13165865D01*
X13980301Y-13165865D02*
X13999348Y-13175389D01*
X13999348Y-13175389D02*
X14037443Y-13175389D01*
X14037443Y-13175389D02*
X14056491Y-13165865D01*
X14056491Y-13165865D02*
X14066015Y-13156341D01*
X14066015Y-13156341D02*
X14075539Y-13137293D01*
X14075539Y-13137293D02*
X14075539Y-13089674D01*
X14075539Y-13089674D02*
X14066015Y-13070627D01*
X14066015Y-13070627D02*
X14056491Y-13061103D01*
X14056491Y-13061103D02*
X14037443Y-13051579D01*
X14037443Y-13051579D02*
X13999348Y-13051579D01*
X13999348Y-13051579D02*
X13980301Y-13061103D01*
X13980301Y-13061103D02*
X13970777Y-13070627D01*
X13970777Y-13070627D02*
X13961253Y-13089674D01*
X14151729Y-12975389D02*
X14151729Y-13013484D01*
X14227920Y-12975389D02*
X14227920Y-13013484D01*
X14523158Y-13251579D02*
X14513634Y-13242055D01*
X14513634Y-13242055D02*
X14494586Y-13213484D01*
X14494586Y-13213484D02*
X14485063Y-13194436D01*
X14485063Y-13194436D02*
X14475539Y-13165865D01*
X14475539Y-13165865D02*
X14466015Y-13118246D01*
X14466015Y-13118246D02*
X14466015Y-13080151D01*
X14466015Y-13080151D02*
X14475539Y-13032532D01*
X14475539Y-13032532D02*
X14485063Y-13003960D01*
X14485063Y-13003960D02*
X14494586Y-12984913D01*
X14494586Y-12984913D02*
X14513634Y-12956341D01*
X14513634Y-12956341D02*
X14523158Y-12946817D01*
X14704110Y-13175389D02*
X14589824Y-13175389D01*
X14646967Y-13175389D02*
X14646967Y-12975389D01*
X14646967Y-12975389D02*
X14627920Y-13003960D01*
X14627920Y-13003960D02*
X14608872Y-13023008D01*
X14608872Y-13023008D02*
X14589824Y-13032532D01*
X14942205Y-13175389D02*
X14942205Y-12975389D01*
X15027920Y-13175389D02*
X15027920Y-13070627D01*
X15027920Y-13070627D02*
X15018396Y-13051579D01*
X15018396Y-13051579D02*
X14999348Y-13042055D01*
X14999348Y-13042055D02*
X14970777Y-13042055D01*
X14970777Y-13042055D02*
X14951729Y-13051579D01*
X14951729Y-13051579D02*
X14942205Y-13061103D01*
X15151729Y-13175389D02*
X15132682Y-13165865D01*
X15132682Y-13165865D02*
X15123158Y-13156341D01*
X15123158Y-13156341D02*
X15113634Y-13137293D01*
X15113634Y-13137293D02*
X15113634Y-13080151D01*
X15113634Y-13080151D02*
X15123158Y-13061103D01*
X15123158Y-13061103D02*
X15132682Y-13051579D01*
X15132682Y-13051579D02*
X15151729Y-13042055D01*
X15151729Y-13042055D02*
X15180301Y-13042055D01*
X15180301Y-13042055D02*
X15199348Y-13051579D01*
X15199348Y-13051579D02*
X15208872Y-13061103D01*
X15208872Y-13061103D02*
X15218396Y-13080151D01*
X15218396Y-13080151D02*
X15218396Y-13137293D01*
X15218396Y-13137293D02*
X15208872Y-13156341D01*
X15208872Y-13156341D02*
X15199348Y-13165865D01*
X15199348Y-13165865D02*
X15180301Y-13175389D01*
X15180301Y-13175389D02*
X15151729Y-13175389D01*
X15332682Y-13175389D02*
X15313634Y-13165865D01*
X15313634Y-13165865D02*
X15304110Y-13146817D01*
X15304110Y-13146817D02*
X15304110Y-12975389D01*
X15485063Y-13165865D02*
X15466015Y-13175389D01*
X15466015Y-13175389D02*
X15427920Y-13175389D01*
X15427920Y-13175389D02*
X15408872Y-13165865D01*
X15408872Y-13165865D02*
X15399348Y-13146817D01*
X15399348Y-13146817D02*
X15399348Y-13070627D01*
X15399348Y-13070627D02*
X15408872Y-13051579D01*
X15408872Y-13051579D02*
X15427920Y-13042055D01*
X15427920Y-13042055D02*
X15466015Y-13042055D01*
X15466015Y-13042055D02*
X15485063Y-13051579D01*
X15485063Y-13051579D02*
X15494586Y-13070627D01*
X15494586Y-13070627D02*
X15494586Y-13089674D01*
X15494586Y-13089674D02*
X15399348Y-13108722D01*
X15561253Y-13251579D02*
X15570777Y-13242055D01*
X15570777Y-13242055D02*
X15589825Y-13213484D01*
X15589825Y-13213484D02*
X15599348Y-13194436D01*
X15599348Y-13194436D02*
X15608872Y-13165865D01*
X15608872Y-13165865D02*
X15618396Y-13118246D01*
X15618396Y-13118246D02*
X15618396Y-13080151D01*
X15618396Y-13080151D02*
X15608872Y-13032532D01*
X15608872Y-13032532D02*
X15599348Y-13003960D01*
X15599348Y-13003960D02*
X15589825Y-12984913D01*
X15589825Y-12984913D02*
X15570777Y-12956341D01*
X15570777Y-12956341D02*
X15561253Y-12946817D01*
D12*
X10908095Y-13387905D02*
X10948095Y-13347905D01*
X10908095Y-13307905D01*
X10868095Y-13347905D01*
X10908095Y-13387905D01*
D11*
X11246967Y-13239389D02*
X11266015Y-13239389D01*
X11266015Y-13239389D02*
X11285062Y-13248913D01*
X11285062Y-13248913D02*
X11294586Y-13258436D01*
X11294586Y-13258436D02*
X11304110Y-13277484D01*
X11304110Y-13277484D02*
X11313634Y-13315579D01*
X11313634Y-13315579D02*
X11313634Y-13363198D01*
X11313634Y-13363198D02*
X11304110Y-13401293D01*
X11304110Y-13401293D02*
X11294586Y-13420341D01*
X11294586Y-13420341D02*
X11285062Y-13429865D01*
X11285062Y-13429865D02*
X11266015Y-13439389D01*
X11266015Y-13439389D02*
X11246967Y-13439389D01*
X11246967Y-13439389D02*
X11227919Y-13429865D01*
X11227919Y-13429865D02*
X11218396Y-13420341D01*
X11218396Y-13420341D02*
X11208872Y-13401293D01*
X11208872Y-13401293D02*
X11199348Y-13363198D01*
X11199348Y-13363198D02*
X11199348Y-13315579D01*
X11199348Y-13315579D02*
X11208872Y-13277484D01*
X11208872Y-13277484D02*
X11218396Y-13258436D01*
X11218396Y-13258436D02*
X11227919Y-13248913D01*
X11227919Y-13248913D02*
X11246967Y-13239389D01*
X11399348Y-13420341D02*
X11408872Y-13429865D01*
X11408872Y-13429865D02*
X11399348Y-13439389D01*
X11399348Y-13439389D02*
X11389824Y-13429865D01*
X11389824Y-13429865D02*
X11399348Y-13420341D01*
X11399348Y-13420341D02*
X11399348Y-13439389D01*
X11523157Y-13325103D02*
X11504110Y-13315579D01*
X11504110Y-13315579D02*
X11494586Y-13306055D01*
X11494586Y-13306055D02*
X11485062Y-13287008D01*
X11485062Y-13287008D02*
X11485062Y-13277484D01*
X11485062Y-13277484D02*
X11494586Y-13258436D01*
X11494586Y-13258436D02*
X11504110Y-13248913D01*
X11504110Y-13248913D02*
X11523157Y-13239389D01*
X11523157Y-13239389D02*
X11561253Y-13239389D01*
X11561253Y-13239389D02*
X11580300Y-13248913D01*
X11580300Y-13248913D02*
X11589824Y-13258436D01*
X11589824Y-13258436D02*
X11599348Y-13277484D01*
X11599348Y-13277484D02*
X11599348Y-13287008D01*
X11599348Y-13287008D02*
X11589824Y-13306055D01*
X11589824Y-13306055D02*
X11580300Y-13315579D01*
X11580300Y-13315579D02*
X11561253Y-13325103D01*
X11561253Y-13325103D02*
X11523157Y-13325103D01*
X11523157Y-13325103D02*
X11504110Y-13334627D01*
X11504110Y-13334627D02*
X11494586Y-13344151D01*
X11494586Y-13344151D02*
X11485062Y-13363198D01*
X11485062Y-13363198D02*
X11485062Y-13401293D01*
X11485062Y-13401293D02*
X11494586Y-13420341D01*
X11494586Y-13420341D02*
X11504110Y-13429865D01*
X11504110Y-13429865D02*
X11523157Y-13439389D01*
X11523157Y-13439389D02*
X11561253Y-13439389D01*
X11561253Y-13439389D02*
X11580300Y-13429865D01*
X11580300Y-13429865D02*
X11589824Y-13420341D01*
X11589824Y-13420341D02*
X11599348Y-13401293D01*
X11599348Y-13401293D02*
X11599348Y-13363198D01*
X11599348Y-13363198D02*
X11589824Y-13344151D01*
X11589824Y-13344151D02*
X11580300Y-13334627D01*
X11580300Y-13334627D02*
X11561253Y-13325103D01*
X11723157Y-13239389D02*
X11742205Y-13239389D01*
X11742205Y-13239389D02*
X11761253Y-13248913D01*
X11761253Y-13248913D02*
X11770777Y-13258436D01*
X11770777Y-13258436D02*
X11780300Y-13277484D01*
X11780300Y-13277484D02*
X11789824Y-13315579D01*
X11789824Y-13315579D02*
X11789824Y-13363198D01*
X11789824Y-13363198D02*
X11780300Y-13401293D01*
X11780300Y-13401293D02*
X11770777Y-13420341D01*
X11770777Y-13420341D02*
X11761253Y-13429865D01*
X11761253Y-13429865D02*
X11742205Y-13439389D01*
X11742205Y-13439389D02*
X11723157Y-13439389D01*
X11723157Y-13439389D02*
X11704110Y-13429865D01*
X11704110Y-13429865D02*
X11694586Y-13420341D01*
X11694586Y-13420341D02*
X11685062Y-13401293D01*
X11685062Y-13401293D02*
X11675538Y-13363198D01*
X11675538Y-13363198D02*
X11675538Y-13315579D01*
X11675538Y-13315579D02*
X11685062Y-13277484D01*
X11685062Y-13277484D02*
X11694586Y-13258436D01*
X11694586Y-13258436D02*
X11704110Y-13248913D01*
X11704110Y-13248913D02*
X11723157Y-13239389D01*
X11913634Y-13239389D02*
X11932681Y-13239389D01*
X11932681Y-13239389D02*
X11951729Y-13248913D01*
X11951729Y-13248913D02*
X11961253Y-13258436D01*
X11961253Y-13258436D02*
X11970777Y-13277484D01*
X11970777Y-13277484D02*
X11980300Y-13315579D01*
X11980300Y-13315579D02*
X11980300Y-13363198D01*
X11980300Y-13363198D02*
X11970777Y-13401293D01*
X11970777Y-13401293D02*
X11961253Y-13420341D01*
X11961253Y-13420341D02*
X11951729Y-13429865D01*
X11951729Y-13429865D02*
X11932681Y-13439389D01*
X11932681Y-13439389D02*
X11913634Y-13439389D01*
X11913634Y-13439389D02*
X11894586Y-13429865D01*
X11894586Y-13429865D02*
X11885062Y-13420341D01*
X11885062Y-13420341D02*
X11875538Y-13401293D01*
X11875538Y-13401293D02*
X11866015Y-13363198D01*
X11866015Y-13363198D02*
X11866015Y-13315579D01*
X11866015Y-13315579D02*
X11875538Y-13277484D01*
X11875538Y-13277484D02*
X11885062Y-13258436D01*
X11885062Y-13258436D02*
X11894586Y-13248913D01*
X11894586Y-13248913D02*
X11913634Y-13239389D01*
X12066015Y-13439389D02*
X12066015Y-13306055D01*
X12066015Y-13325103D02*
X12075538Y-13315579D01*
X12075538Y-13315579D02*
X12094586Y-13306055D01*
X12094586Y-13306055D02*
X12123158Y-13306055D01*
X12123158Y-13306055D02*
X12142205Y-13315579D01*
X12142205Y-13315579D02*
X12151729Y-13334627D01*
X12151729Y-13334627D02*
X12151729Y-13439389D01*
X12151729Y-13334627D02*
X12161253Y-13315579D01*
X12161253Y-13315579D02*
X12180300Y-13306055D01*
X12180300Y-13306055D02*
X12208872Y-13306055D01*
X12208872Y-13306055D02*
X12227919Y-13315579D01*
X12227919Y-13315579D02*
X12237443Y-13334627D01*
X12237443Y-13334627D02*
X12237443Y-13439389D01*
X12332681Y-13439389D02*
X12332681Y-13306055D01*
X12332681Y-13325103D02*
X12342205Y-13315579D01*
X12342205Y-13315579D02*
X12361253Y-13306055D01*
X12361253Y-13306055D02*
X12389824Y-13306055D01*
X12389824Y-13306055D02*
X12408872Y-13315579D01*
X12408872Y-13315579D02*
X12418396Y-13334627D01*
X12418396Y-13334627D02*
X12418396Y-13439389D01*
X12418396Y-13334627D02*
X12427919Y-13315579D01*
X12427919Y-13315579D02*
X12446967Y-13306055D01*
X12446967Y-13306055D02*
X12475538Y-13306055D01*
X12475538Y-13306055D02*
X12494586Y-13315579D01*
X12494586Y-13315579D02*
X12504110Y-13334627D01*
X12504110Y-13334627D02*
X12504110Y-13439389D01*
X12894586Y-13229865D02*
X12723158Y-13487008D01*
X13151729Y-13239389D02*
X13170777Y-13239389D01*
X13170777Y-13239389D02*
X13189824Y-13248913D01*
X13189824Y-13248913D02*
X13199348Y-13258436D01*
X13199348Y-13258436D02*
X13208872Y-13277484D01*
X13208872Y-13277484D02*
X13218396Y-13315579D01*
X13218396Y-13315579D02*
X13218396Y-13363198D01*
X13218396Y-13363198D02*
X13208872Y-13401293D01*
X13208872Y-13401293D02*
X13199348Y-13420341D01*
X13199348Y-13420341D02*
X13189824Y-13429865D01*
X13189824Y-13429865D02*
X13170777Y-13439389D01*
X13170777Y-13439389D02*
X13151729Y-13439389D01*
X13151729Y-13439389D02*
X13132681Y-13429865D01*
X13132681Y-13429865D02*
X13123158Y-13420341D01*
X13123158Y-13420341D02*
X13113634Y-13401293D01*
X13113634Y-13401293D02*
X13104110Y-13363198D01*
X13104110Y-13363198D02*
X13104110Y-13315579D01*
X13104110Y-13315579D02*
X13113634Y-13277484D01*
X13113634Y-13277484D02*
X13123158Y-13258436D01*
X13123158Y-13258436D02*
X13132681Y-13248913D01*
X13132681Y-13248913D02*
X13151729Y-13239389D01*
X13304110Y-13420341D02*
X13313634Y-13429865D01*
X13313634Y-13429865D02*
X13304110Y-13439389D01*
X13304110Y-13439389D02*
X13294586Y-13429865D01*
X13294586Y-13429865D02*
X13304110Y-13420341D01*
X13304110Y-13420341D02*
X13304110Y-13439389D01*
X13437443Y-13239389D02*
X13456491Y-13239389D01*
X13456491Y-13239389D02*
X13475539Y-13248913D01*
X13475539Y-13248913D02*
X13485062Y-13258436D01*
X13485062Y-13258436D02*
X13494586Y-13277484D01*
X13494586Y-13277484D02*
X13504110Y-13315579D01*
X13504110Y-13315579D02*
X13504110Y-13363198D01*
X13504110Y-13363198D02*
X13494586Y-13401293D01*
X13494586Y-13401293D02*
X13485062Y-13420341D01*
X13485062Y-13420341D02*
X13475539Y-13429865D01*
X13475539Y-13429865D02*
X13456491Y-13439389D01*
X13456491Y-13439389D02*
X13437443Y-13439389D01*
X13437443Y-13439389D02*
X13418396Y-13429865D01*
X13418396Y-13429865D02*
X13408872Y-13420341D01*
X13408872Y-13420341D02*
X13399348Y-13401293D01*
X13399348Y-13401293D02*
X13389824Y-13363198D01*
X13389824Y-13363198D02*
X13389824Y-13315579D01*
X13389824Y-13315579D02*
X13399348Y-13277484D01*
X13399348Y-13277484D02*
X13408872Y-13258436D01*
X13408872Y-13258436D02*
X13418396Y-13248913D01*
X13418396Y-13248913D02*
X13437443Y-13239389D01*
X13570777Y-13239389D02*
X13694586Y-13239389D01*
X13694586Y-13239389D02*
X13627920Y-13315579D01*
X13627920Y-13315579D02*
X13656491Y-13315579D01*
X13656491Y-13315579D02*
X13675539Y-13325103D01*
X13675539Y-13325103D02*
X13685062Y-13334627D01*
X13685062Y-13334627D02*
X13694586Y-13353674D01*
X13694586Y-13353674D02*
X13694586Y-13401293D01*
X13694586Y-13401293D02*
X13685062Y-13420341D01*
X13685062Y-13420341D02*
X13675539Y-13429865D01*
X13675539Y-13429865D02*
X13656491Y-13439389D01*
X13656491Y-13439389D02*
X13599348Y-13439389D01*
X13599348Y-13439389D02*
X13580301Y-13429865D01*
X13580301Y-13429865D02*
X13570777Y-13420341D01*
X13885062Y-13439389D02*
X13770777Y-13439389D01*
X13827920Y-13439389D02*
X13827920Y-13239389D01*
X13827920Y-13239389D02*
X13808872Y-13267960D01*
X13808872Y-13267960D02*
X13789824Y-13287008D01*
X13789824Y-13287008D02*
X13770777Y-13296532D01*
X14066015Y-13239389D02*
X13970777Y-13239389D01*
X13970777Y-13239389D02*
X13961253Y-13334627D01*
X13961253Y-13334627D02*
X13970777Y-13325103D01*
X13970777Y-13325103D02*
X13989824Y-13315579D01*
X13989824Y-13315579D02*
X14037443Y-13315579D01*
X14037443Y-13315579D02*
X14056491Y-13325103D01*
X14056491Y-13325103D02*
X14066015Y-13334627D01*
X14066015Y-13334627D02*
X14075539Y-13353674D01*
X14075539Y-13353674D02*
X14075539Y-13401293D01*
X14075539Y-13401293D02*
X14066015Y-13420341D01*
X14066015Y-13420341D02*
X14056491Y-13429865D01*
X14056491Y-13429865D02*
X14037443Y-13439389D01*
X14037443Y-13439389D02*
X13989824Y-13439389D01*
X13989824Y-13439389D02*
X13970777Y-13429865D01*
X13970777Y-13429865D02*
X13961253Y-13420341D01*
X14151729Y-13239389D02*
X14151729Y-13277484D01*
X14227920Y-13239389D02*
X14227920Y-13277484D01*
X14523158Y-13515579D02*
X14513634Y-13506055D01*
X14513634Y-13506055D02*
X14494586Y-13477484D01*
X14494586Y-13477484D02*
X14485063Y-13458436D01*
X14485063Y-13458436D02*
X14475539Y-13429865D01*
X14475539Y-13429865D02*
X14466015Y-13382246D01*
X14466015Y-13382246D02*
X14466015Y-13344151D01*
X14466015Y-13344151D02*
X14475539Y-13296532D01*
X14475539Y-13296532D02*
X14485063Y-13267960D01*
X14485063Y-13267960D02*
X14494586Y-13248913D01*
X14494586Y-13248913D02*
X14513634Y-13220341D01*
X14513634Y-13220341D02*
X14523158Y-13210817D01*
X14685063Y-13306055D02*
X14685063Y-13439389D01*
X14637443Y-13229865D02*
X14589824Y-13372722D01*
X14589824Y-13372722D02*
X14713634Y-13372722D01*
X14942205Y-13439389D02*
X14942205Y-13239389D01*
X15027920Y-13439389D02*
X15027920Y-13334627D01*
X15027920Y-13334627D02*
X15018396Y-13315579D01*
X15018396Y-13315579D02*
X14999348Y-13306055D01*
X14999348Y-13306055D02*
X14970777Y-13306055D01*
X14970777Y-13306055D02*
X14951729Y-13315579D01*
X14951729Y-13315579D02*
X14942205Y-13325103D01*
X15151729Y-13439389D02*
X15132682Y-13429865D01*
X15132682Y-13429865D02*
X15123158Y-13420341D01*
X15123158Y-13420341D02*
X15113634Y-13401293D01*
X15113634Y-13401293D02*
X15113634Y-13344151D01*
X15113634Y-13344151D02*
X15123158Y-13325103D01*
X15123158Y-13325103D02*
X15132682Y-13315579D01*
X15132682Y-13315579D02*
X15151729Y-13306055D01*
X15151729Y-13306055D02*
X15180301Y-13306055D01*
X15180301Y-13306055D02*
X15199348Y-13315579D01*
X15199348Y-13315579D02*
X15208872Y-13325103D01*
X15208872Y-13325103D02*
X15218396Y-13344151D01*
X15218396Y-13344151D02*
X15218396Y-13401293D01*
X15218396Y-13401293D02*
X15208872Y-13420341D01*
X15208872Y-13420341D02*
X15199348Y-13429865D01*
X15199348Y-13429865D02*
X15180301Y-13439389D01*
X15180301Y-13439389D02*
X15151729Y-13439389D01*
X15332682Y-13439389D02*
X15313634Y-13429865D01*
X15313634Y-13429865D02*
X15304110Y-13410817D01*
X15304110Y-13410817D02*
X15304110Y-13239389D01*
X15485063Y-13429865D02*
X15466015Y-13439389D01*
X15466015Y-13439389D02*
X15427920Y-13439389D01*
X15427920Y-13439389D02*
X15408872Y-13429865D01*
X15408872Y-13429865D02*
X15399348Y-13410817D01*
X15399348Y-13410817D02*
X15399348Y-13334627D01*
X15399348Y-13334627D02*
X15408872Y-13315579D01*
X15408872Y-13315579D02*
X15427920Y-13306055D01*
X15427920Y-13306055D02*
X15466015Y-13306055D01*
X15466015Y-13306055D02*
X15485063Y-13315579D01*
X15485063Y-13315579D02*
X15494586Y-13334627D01*
X15494586Y-13334627D02*
X15494586Y-13353674D01*
X15494586Y-13353674D02*
X15399348Y-13372722D01*
X15570777Y-13429865D02*
X15589825Y-13439389D01*
X15589825Y-13439389D02*
X15627920Y-13439389D01*
X15627920Y-13439389D02*
X15646967Y-13429865D01*
X15646967Y-13429865D02*
X15656491Y-13410817D01*
X15656491Y-13410817D02*
X15656491Y-13401293D01*
X15656491Y-13401293D02*
X15646967Y-13382246D01*
X15646967Y-13382246D02*
X15627920Y-13372722D01*
X15627920Y-13372722D02*
X15599348Y-13372722D01*
X15599348Y-13372722D02*
X15580301Y-13363198D01*
X15580301Y-13363198D02*
X15570777Y-13344151D01*
X15570777Y-13344151D02*
X15570777Y-13334627D01*
X15570777Y-13334627D02*
X15580301Y-13315579D01*
X15580301Y-13315579D02*
X15599348Y-13306055D01*
X15599348Y-13306055D02*
X15627920Y-13306055D01*
X15627920Y-13306055D02*
X15646967Y-13315579D01*
X15723158Y-13515579D02*
X15732682Y-13506055D01*
X15732682Y-13506055D02*
X15751729Y-13477484D01*
X15751729Y-13477484D02*
X15761253Y-13458436D01*
X15761253Y-13458436D02*
X15770777Y-13429865D01*
X15770777Y-13429865D02*
X15780301Y-13382246D01*
X15780301Y-13382246D02*
X15780301Y-13344151D01*
X15780301Y-13344151D02*
X15770777Y-13296532D01*
X15770777Y-13296532D02*
X15761253Y-13267960D01*
X15761253Y-13267960D02*
X15751729Y-13248913D01*
X15751729Y-13248913D02*
X15732682Y-13220341D01*
X15732682Y-13220341D02*
X15723158Y-13210817D01*
D12*
X10848095Y-13561905D02*
X10948095Y-13661905D01*
X10948095Y-13561905D02*
X10848095Y-13661905D01*
X10948095Y-13611905D02*
G75*
G02*
X10848095Y-13611905I-50000J0D01*
G01*
X10848095Y-13611905D02*
G75*
G02*
X10948095Y-13611905I50000J0D01*
G01*
D11*
X11313634Y-13703389D02*
X11199348Y-13703389D01*
X11256491Y-13703389D02*
X11256491Y-13503389D01*
X11256491Y-13503389D02*
X11237443Y-13531960D01*
X11237443Y-13531960D02*
X11218396Y-13551008D01*
X11218396Y-13551008D02*
X11199348Y-13560532D01*
X11399348Y-13684341D02*
X11408872Y-13693865D01*
X11408872Y-13693865D02*
X11399348Y-13703389D01*
X11399348Y-13703389D02*
X11389824Y-13693865D01*
X11389824Y-13693865D02*
X11399348Y-13684341D01*
X11399348Y-13684341D02*
X11399348Y-13703389D01*
X11532681Y-13503389D02*
X11551729Y-13503389D01*
X11551729Y-13503389D02*
X11570777Y-13512913D01*
X11570777Y-13512913D02*
X11580300Y-13522436D01*
X11580300Y-13522436D02*
X11589824Y-13541484D01*
X11589824Y-13541484D02*
X11599348Y-13579579D01*
X11599348Y-13579579D02*
X11599348Y-13627198D01*
X11599348Y-13627198D02*
X11589824Y-13665293D01*
X11589824Y-13665293D02*
X11580300Y-13684341D01*
X11580300Y-13684341D02*
X11570777Y-13693865D01*
X11570777Y-13693865D02*
X11551729Y-13703389D01*
X11551729Y-13703389D02*
X11532681Y-13703389D01*
X11532681Y-13703389D02*
X11513634Y-13693865D01*
X11513634Y-13693865D02*
X11504110Y-13684341D01*
X11504110Y-13684341D02*
X11494586Y-13665293D01*
X11494586Y-13665293D02*
X11485062Y-13627198D01*
X11485062Y-13627198D02*
X11485062Y-13579579D01*
X11485062Y-13579579D02*
X11494586Y-13541484D01*
X11494586Y-13541484D02*
X11504110Y-13522436D01*
X11504110Y-13522436D02*
X11513634Y-13512913D01*
X11513634Y-13512913D02*
X11532681Y-13503389D01*
X11723157Y-13503389D02*
X11742205Y-13503389D01*
X11742205Y-13503389D02*
X11761253Y-13512913D01*
X11761253Y-13512913D02*
X11770777Y-13522436D01*
X11770777Y-13522436D02*
X11780300Y-13541484D01*
X11780300Y-13541484D02*
X11789824Y-13579579D01*
X11789824Y-13579579D02*
X11789824Y-13627198D01*
X11789824Y-13627198D02*
X11780300Y-13665293D01*
X11780300Y-13665293D02*
X11770777Y-13684341D01*
X11770777Y-13684341D02*
X11761253Y-13693865D01*
X11761253Y-13693865D02*
X11742205Y-13703389D01*
X11742205Y-13703389D02*
X11723157Y-13703389D01*
X11723157Y-13703389D02*
X11704110Y-13693865D01*
X11704110Y-13693865D02*
X11694586Y-13684341D01*
X11694586Y-13684341D02*
X11685062Y-13665293D01*
X11685062Y-13665293D02*
X11675538Y-13627198D01*
X11675538Y-13627198D02*
X11675538Y-13579579D01*
X11675538Y-13579579D02*
X11685062Y-13541484D01*
X11685062Y-13541484D02*
X11694586Y-13522436D01*
X11694586Y-13522436D02*
X11704110Y-13512913D01*
X11704110Y-13512913D02*
X11723157Y-13503389D01*
X11913634Y-13503389D02*
X11932681Y-13503389D01*
X11932681Y-13503389D02*
X11951729Y-13512913D01*
X11951729Y-13512913D02*
X11961253Y-13522436D01*
X11961253Y-13522436D02*
X11970777Y-13541484D01*
X11970777Y-13541484D02*
X11980300Y-13579579D01*
X11980300Y-13579579D02*
X11980300Y-13627198D01*
X11980300Y-13627198D02*
X11970777Y-13665293D01*
X11970777Y-13665293D02*
X11961253Y-13684341D01*
X11961253Y-13684341D02*
X11951729Y-13693865D01*
X11951729Y-13693865D02*
X11932681Y-13703389D01*
X11932681Y-13703389D02*
X11913634Y-13703389D01*
X11913634Y-13703389D02*
X11894586Y-13693865D01*
X11894586Y-13693865D02*
X11885062Y-13684341D01*
X11885062Y-13684341D02*
X11875538Y-13665293D01*
X11875538Y-13665293D02*
X11866015Y-13627198D01*
X11866015Y-13627198D02*
X11866015Y-13579579D01*
X11866015Y-13579579D02*
X11875538Y-13541484D01*
X11875538Y-13541484D02*
X11885062Y-13522436D01*
X11885062Y-13522436D02*
X11894586Y-13512913D01*
X11894586Y-13512913D02*
X11913634Y-13503389D01*
X12066015Y-13703389D02*
X12066015Y-13570055D01*
X12066015Y-13589103D02*
X12075538Y-13579579D01*
X12075538Y-13579579D02*
X12094586Y-13570055D01*
X12094586Y-13570055D02*
X12123158Y-13570055D01*
X12123158Y-13570055D02*
X12142205Y-13579579D01*
X12142205Y-13579579D02*
X12151729Y-13598627D01*
X12151729Y-13598627D02*
X12151729Y-13703389D01*
X12151729Y-13598627D02*
X12161253Y-13579579D01*
X12161253Y-13579579D02*
X12180300Y-13570055D01*
X12180300Y-13570055D02*
X12208872Y-13570055D01*
X12208872Y-13570055D02*
X12227919Y-13579579D01*
X12227919Y-13579579D02*
X12237443Y-13598627D01*
X12237443Y-13598627D02*
X12237443Y-13703389D01*
X12332681Y-13703389D02*
X12332681Y-13570055D01*
X12332681Y-13589103D02*
X12342205Y-13579579D01*
X12342205Y-13579579D02*
X12361253Y-13570055D01*
X12361253Y-13570055D02*
X12389824Y-13570055D01*
X12389824Y-13570055D02*
X12408872Y-13579579D01*
X12408872Y-13579579D02*
X12418396Y-13598627D01*
X12418396Y-13598627D02*
X12418396Y-13703389D01*
X12418396Y-13598627D02*
X12427919Y-13579579D01*
X12427919Y-13579579D02*
X12446967Y-13570055D01*
X12446967Y-13570055D02*
X12475538Y-13570055D01*
X12475538Y-13570055D02*
X12494586Y-13579579D01*
X12494586Y-13579579D02*
X12504110Y-13598627D01*
X12504110Y-13598627D02*
X12504110Y-13703389D01*
X12894586Y-13493865D02*
X12723158Y-13751008D01*
X13151729Y-13503389D02*
X13170777Y-13503389D01*
X13170777Y-13503389D02*
X13189824Y-13512913D01*
X13189824Y-13512913D02*
X13199348Y-13522436D01*
X13199348Y-13522436D02*
X13208872Y-13541484D01*
X13208872Y-13541484D02*
X13218396Y-13579579D01*
X13218396Y-13579579D02*
X13218396Y-13627198D01*
X13218396Y-13627198D02*
X13208872Y-13665293D01*
X13208872Y-13665293D02*
X13199348Y-13684341D01*
X13199348Y-13684341D02*
X13189824Y-13693865D01*
X13189824Y-13693865D02*
X13170777Y-13703389D01*
X13170777Y-13703389D02*
X13151729Y-13703389D01*
X13151729Y-13703389D02*
X13132681Y-13693865D01*
X13132681Y-13693865D02*
X13123158Y-13684341D01*
X13123158Y-13684341D02*
X13113634Y-13665293D01*
X13113634Y-13665293D02*
X13104110Y-13627198D01*
X13104110Y-13627198D02*
X13104110Y-13579579D01*
X13104110Y-13579579D02*
X13113634Y-13541484D01*
X13113634Y-13541484D02*
X13123158Y-13522436D01*
X13123158Y-13522436D02*
X13132681Y-13512913D01*
X13132681Y-13512913D02*
X13151729Y-13503389D01*
X13304110Y-13684341D02*
X13313634Y-13693865D01*
X13313634Y-13693865D02*
X13304110Y-13703389D01*
X13304110Y-13703389D02*
X13294586Y-13693865D01*
X13294586Y-13693865D02*
X13304110Y-13684341D01*
X13304110Y-13684341D02*
X13304110Y-13703389D01*
X13437443Y-13503389D02*
X13456491Y-13503389D01*
X13456491Y-13503389D02*
X13475539Y-13512913D01*
X13475539Y-13512913D02*
X13485062Y-13522436D01*
X13485062Y-13522436D02*
X13494586Y-13541484D01*
X13494586Y-13541484D02*
X13504110Y-13579579D01*
X13504110Y-13579579D02*
X13504110Y-13627198D01*
X13504110Y-13627198D02*
X13494586Y-13665293D01*
X13494586Y-13665293D02*
X13485062Y-13684341D01*
X13485062Y-13684341D02*
X13475539Y-13693865D01*
X13475539Y-13693865D02*
X13456491Y-13703389D01*
X13456491Y-13703389D02*
X13437443Y-13703389D01*
X13437443Y-13703389D02*
X13418396Y-13693865D01*
X13418396Y-13693865D02*
X13408872Y-13684341D01*
X13408872Y-13684341D02*
X13399348Y-13665293D01*
X13399348Y-13665293D02*
X13389824Y-13627198D01*
X13389824Y-13627198D02*
X13389824Y-13579579D01*
X13389824Y-13579579D02*
X13399348Y-13541484D01*
X13399348Y-13541484D02*
X13408872Y-13522436D01*
X13408872Y-13522436D02*
X13418396Y-13512913D01*
X13418396Y-13512913D02*
X13437443Y-13503389D01*
X13570777Y-13503389D02*
X13694586Y-13503389D01*
X13694586Y-13503389D02*
X13627920Y-13579579D01*
X13627920Y-13579579D02*
X13656491Y-13579579D01*
X13656491Y-13579579D02*
X13675539Y-13589103D01*
X13675539Y-13589103D02*
X13685062Y-13598627D01*
X13685062Y-13598627D02*
X13694586Y-13617674D01*
X13694586Y-13617674D02*
X13694586Y-13665293D01*
X13694586Y-13665293D02*
X13685062Y-13684341D01*
X13685062Y-13684341D02*
X13675539Y-13693865D01*
X13675539Y-13693865D02*
X13656491Y-13703389D01*
X13656491Y-13703389D02*
X13599348Y-13703389D01*
X13599348Y-13703389D02*
X13580301Y-13693865D01*
X13580301Y-13693865D02*
X13570777Y-13684341D01*
X13789824Y-13703389D02*
X13827920Y-13703389D01*
X13827920Y-13703389D02*
X13846967Y-13693865D01*
X13846967Y-13693865D02*
X13856491Y-13684341D01*
X13856491Y-13684341D02*
X13875539Y-13655770D01*
X13875539Y-13655770D02*
X13885062Y-13617674D01*
X13885062Y-13617674D02*
X13885062Y-13541484D01*
X13885062Y-13541484D02*
X13875539Y-13522436D01*
X13875539Y-13522436D02*
X13866015Y-13512913D01*
X13866015Y-13512913D02*
X13846967Y-13503389D01*
X13846967Y-13503389D02*
X13808872Y-13503389D01*
X13808872Y-13503389D02*
X13789824Y-13512913D01*
X13789824Y-13512913D02*
X13780301Y-13522436D01*
X13780301Y-13522436D02*
X13770777Y-13541484D01*
X13770777Y-13541484D02*
X13770777Y-13589103D01*
X13770777Y-13589103D02*
X13780301Y-13608151D01*
X13780301Y-13608151D02*
X13789824Y-13617674D01*
X13789824Y-13617674D02*
X13808872Y-13627198D01*
X13808872Y-13627198D02*
X13846967Y-13627198D01*
X13846967Y-13627198D02*
X13866015Y-13617674D01*
X13866015Y-13617674D02*
X13875539Y-13608151D01*
X13875539Y-13608151D02*
X13885062Y-13589103D01*
X14056491Y-13570055D02*
X14056491Y-13703389D01*
X14008872Y-13493865D02*
X13961253Y-13636722D01*
X13961253Y-13636722D02*
X14085062Y-13636722D01*
X14151729Y-13503389D02*
X14151729Y-13541484D01*
X14227920Y-13503389D02*
X14227920Y-13541484D01*
X14523158Y-13779579D02*
X14513634Y-13770055D01*
X14513634Y-13770055D02*
X14494586Y-13741484D01*
X14494586Y-13741484D02*
X14485063Y-13722436D01*
X14485063Y-13722436D02*
X14475539Y-13693865D01*
X14475539Y-13693865D02*
X14466015Y-13646246D01*
X14466015Y-13646246D02*
X14466015Y-13608151D01*
X14466015Y-13608151D02*
X14475539Y-13560532D01*
X14475539Y-13560532D02*
X14485063Y-13531960D01*
X14485063Y-13531960D02*
X14494586Y-13512913D01*
X14494586Y-13512913D02*
X14513634Y-13484341D01*
X14513634Y-13484341D02*
X14523158Y-13474817D01*
X14704110Y-13703389D02*
X14589824Y-13703389D01*
X14646967Y-13703389D02*
X14646967Y-13503389D01*
X14646967Y-13503389D02*
X14627920Y-13531960D01*
X14627920Y-13531960D02*
X14608872Y-13551008D01*
X14608872Y-13551008D02*
X14589824Y-13560532D01*
X14885063Y-13503389D02*
X14789824Y-13503389D01*
X14789824Y-13503389D02*
X14780301Y-13598627D01*
X14780301Y-13598627D02*
X14789824Y-13589103D01*
X14789824Y-13589103D02*
X14808872Y-13579579D01*
X14808872Y-13579579D02*
X14856491Y-13579579D01*
X14856491Y-13579579D02*
X14875539Y-13589103D01*
X14875539Y-13589103D02*
X14885063Y-13598627D01*
X14885063Y-13598627D02*
X14894586Y-13617674D01*
X14894586Y-13617674D02*
X14894586Y-13665293D01*
X14894586Y-13665293D02*
X14885063Y-13684341D01*
X14885063Y-13684341D02*
X14875539Y-13693865D01*
X14875539Y-13693865D02*
X14856491Y-13703389D01*
X14856491Y-13703389D02*
X14808872Y-13703389D01*
X14808872Y-13703389D02*
X14789824Y-13693865D01*
X14789824Y-13693865D02*
X14780301Y-13684341D01*
X15132682Y-13703389D02*
X15132682Y-13503389D01*
X15218396Y-13703389D02*
X15218396Y-13598627D01*
X15218396Y-13598627D02*
X15208872Y-13579579D01*
X15208872Y-13579579D02*
X15189825Y-13570055D01*
X15189825Y-13570055D02*
X15161253Y-13570055D01*
X15161253Y-13570055D02*
X15142205Y-13579579D01*
X15142205Y-13579579D02*
X15132682Y-13589103D01*
X15342205Y-13703389D02*
X15323158Y-13693865D01*
X15323158Y-13693865D02*
X15313634Y-13684341D01*
X15313634Y-13684341D02*
X15304110Y-13665293D01*
X15304110Y-13665293D02*
X15304110Y-13608151D01*
X15304110Y-13608151D02*
X15313634Y-13589103D01*
X15313634Y-13589103D02*
X15323158Y-13579579D01*
X15323158Y-13579579D02*
X15342205Y-13570055D01*
X15342205Y-13570055D02*
X15370777Y-13570055D01*
X15370777Y-13570055D02*
X15389825Y-13579579D01*
X15389825Y-13579579D02*
X15399348Y-13589103D01*
X15399348Y-13589103D02*
X15408872Y-13608151D01*
X15408872Y-13608151D02*
X15408872Y-13665293D01*
X15408872Y-13665293D02*
X15399348Y-13684341D01*
X15399348Y-13684341D02*
X15389825Y-13693865D01*
X15389825Y-13693865D02*
X15370777Y-13703389D01*
X15370777Y-13703389D02*
X15342205Y-13703389D01*
X15523158Y-13703389D02*
X15504110Y-13693865D01*
X15504110Y-13693865D02*
X15494586Y-13674817D01*
X15494586Y-13674817D02*
X15494586Y-13503389D01*
X15675539Y-13693865D02*
X15656491Y-13703389D01*
X15656491Y-13703389D02*
X15618396Y-13703389D01*
X15618396Y-13703389D02*
X15599348Y-13693865D01*
X15599348Y-13693865D02*
X15589825Y-13674817D01*
X15589825Y-13674817D02*
X15589825Y-13598627D01*
X15589825Y-13598627D02*
X15599348Y-13579579D01*
X15599348Y-13579579D02*
X15618396Y-13570055D01*
X15618396Y-13570055D02*
X15656491Y-13570055D01*
X15656491Y-13570055D02*
X15675539Y-13579579D01*
X15675539Y-13579579D02*
X15685063Y-13598627D01*
X15685063Y-13598627D02*
X15685063Y-13617674D01*
X15685063Y-13617674D02*
X15589825Y-13636722D01*
X15761253Y-13693865D02*
X15780301Y-13703389D01*
X15780301Y-13703389D02*
X15818396Y-13703389D01*
X15818396Y-13703389D02*
X15837444Y-13693865D01*
X15837444Y-13693865D02*
X15846967Y-13674817D01*
X15846967Y-13674817D02*
X15846967Y-13665293D01*
X15846967Y-13665293D02*
X15837444Y-13646246D01*
X15837444Y-13646246D02*
X15818396Y-13636722D01*
X15818396Y-13636722D02*
X15789825Y-13636722D01*
X15789825Y-13636722D02*
X15770777Y-13627198D01*
X15770777Y-13627198D02*
X15761253Y-13608151D01*
X15761253Y-13608151D02*
X15761253Y-13598627D01*
X15761253Y-13598627D02*
X15770777Y-13579579D01*
X15770777Y-13579579D02*
X15789825Y-13570055D01*
X15789825Y-13570055D02*
X15818396Y-13570055D01*
X15818396Y-13570055D02*
X15837444Y-13579579D01*
X16085063Y-13627198D02*
X16237444Y-13627198D01*
X16161253Y-13703389D02*
X16161253Y-13551008D01*
X16570777Y-13570055D02*
X16570777Y-13703389D01*
X16523158Y-13493865D02*
X16475539Y-13636722D01*
X16475539Y-13636722D02*
X16599348Y-13636722D01*
X16818396Y-13693865D02*
X16837444Y-13703389D01*
X16837444Y-13703389D02*
X16875539Y-13703389D01*
X16875539Y-13703389D02*
X16894587Y-13693865D01*
X16894587Y-13693865D02*
X16904111Y-13674817D01*
X16904111Y-13674817D02*
X16904111Y-13665293D01*
X16904111Y-13665293D02*
X16894587Y-13646246D01*
X16894587Y-13646246D02*
X16875539Y-13636722D01*
X16875539Y-13636722D02*
X16846968Y-13636722D01*
X16846968Y-13636722D02*
X16827920Y-13627198D01*
X16827920Y-13627198D02*
X16818396Y-13608151D01*
X16818396Y-13608151D02*
X16818396Y-13598627D01*
X16818396Y-13598627D02*
X16827920Y-13579579D01*
X16827920Y-13579579D02*
X16846968Y-13570055D01*
X16846968Y-13570055D02*
X16875539Y-13570055D01*
X16875539Y-13570055D02*
X16894587Y-13579579D01*
X17018396Y-13703389D02*
X16999349Y-13693865D01*
X16999349Y-13693865D02*
X16989825Y-13674817D01*
X16989825Y-13674817D02*
X16989825Y-13503389D01*
X17123158Y-13703389D02*
X17104111Y-13693865D01*
X17104111Y-13693865D02*
X17094587Y-13684341D01*
X17094587Y-13684341D02*
X17085063Y-13665293D01*
X17085063Y-13665293D02*
X17085063Y-13608151D01*
X17085063Y-13608151D02*
X17094587Y-13589103D01*
X17094587Y-13589103D02*
X17104111Y-13579579D01*
X17104111Y-13579579D02*
X17123158Y-13570055D01*
X17123158Y-13570055D02*
X17151730Y-13570055D01*
X17151730Y-13570055D02*
X17170777Y-13579579D01*
X17170777Y-13579579D02*
X17180301Y-13589103D01*
X17180301Y-13589103D02*
X17189825Y-13608151D01*
X17189825Y-13608151D02*
X17189825Y-13665293D01*
X17189825Y-13665293D02*
X17180301Y-13684341D01*
X17180301Y-13684341D02*
X17170777Y-13693865D01*
X17170777Y-13693865D02*
X17151730Y-13703389D01*
X17151730Y-13703389D02*
X17123158Y-13703389D01*
X17246968Y-13570055D02*
X17323158Y-13570055D01*
X17275539Y-13503389D02*
X17275539Y-13674817D01*
X17275539Y-13674817D02*
X17285063Y-13693865D01*
X17285063Y-13693865D02*
X17304111Y-13703389D01*
X17304111Y-13703389D02*
X17323158Y-13703389D01*
X17380301Y-13693865D02*
X17399349Y-13703389D01*
X17399349Y-13703389D02*
X17437444Y-13703389D01*
X17437444Y-13703389D02*
X17456492Y-13693865D01*
X17456492Y-13693865D02*
X17466015Y-13674817D01*
X17466015Y-13674817D02*
X17466015Y-13665293D01*
X17466015Y-13665293D02*
X17456492Y-13646246D01*
X17456492Y-13646246D02*
X17437444Y-13636722D01*
X17437444Y-13636722D02*
X17408872Y-13636722D01*
X17408872Y-13636722D02*
X17389825Y-13627198D01*
X17389825Y-13627198D02*
X17380301Y-13608151D01*
X17380301Y-13608151D02*
X17380301Y-13598627D01*
X17380301Y-13598627D02*
X17389825Y-13579579D01*
X17389825Y-13579579D02*
X17408872Y-13570055D01*
X17408872Y-13570055D02*
X17437444Y-13570055D01*
X17437444Y-13570055D02*
X17456492Y-13579579D01*
X17532682Y-13779579D02*
X17542206Y-13770055D01*
X17542206Y-13770055D02*
X17561253Y-13741484D01*
X17561253Y-13741484D02*
X17570777Y-13722436D01*
X17570777Y-13722436D02*
X17580301Y-13693865D01*
X17580301Y-13693865D02*
X17589825Y-13646246D01*
X17589825Y-13646246D02*
X17589825Y-13608151D01*
X17589825Y-13608151D02*
X17580301Y-13560532D01*
X17580301Y-13560532D02*
X17570777Y-13531960D01*
X17570777Y-13531960D02*
X17561253Y-13512913D01*
X17561253Y-13512913D02*
X17542206Y-13484341D01*
X17542206Y-13484341D02*
X17532682Y-13474817D01*
D13*
X10841415Y-13822565D02*
X10948095Y-13929245D01*
X10948095Y-13822565D02*
X10841415Y-13929245D01*
X10894755Y-13822565D02*
X10894755Y-13929245D01*
X10841415Y-13875905D02*
X10948095Y-13875905D01*
D11*
X11313634Y-13967389D02*
X11199348Y-13967389D01*
X11256491Y-13967389D02*
X11256491Y-13767389D01*
X11256491Y-13767389D02*
X11237443Y-13795960D01*
X11237443Y-13795960D02*
X11218396Y-13815008D01*
X11218396Y-13815008D02*
X11199348Y-13824532D01*
X11399348Y-13948341D02*
X11408872Y-13957865D01*
X11408872Y-13957865D02*
X11399348Y-13967389D01*
X11399348Y-13967389D02*
X11389824Y-13957865D01*
X11389824Y-13957865D02*
X11399348Y-13948341D01*
X11399348Y-13948341D02*
X11399348Y-13967389D01*
X11532681Y-13767389D02*
X11551729Y-13767389D01*
X11551729Y-13767389D02*
X11570777Y-13776913D01*
X11570777Y-13776913D02*
X11580300Y-13786436D01*
X11580300Y-13786436D02*
X11589824Y-13805484D01*
X11589824Y-13805484D02*
X11599348Y-13843579D01*
X11599348Y-13843579D02*
X11599348Y-13891198D01*
X11599348Y-13891198D02*
X11589824Y-13929293D01*
X11589824Y-13929293D02*
X11580300Y-13948341D01*
X11580300Y-13948341D02*
X11570777Y-13957865D01*
X11570777Y-13957865D02*
X11551729Y-13967389D01*
X11551729Y-13967389D02*
X11532681Y-13967389D01*
X11532681Y-13967389D02*
X11513634Y-13957865D01*
X11513634Y-13957865D02*
X11504110Y-13948341D01*
X11504110Y-13948341D02*
X11494586Y-13929293D01*
X11494586Y-13929293D02*
X11485062Y-13891198D01*
X11485062Y-13891198D02*
X11485062Y-13843579D01*
X11485062Y-13843579D02*
X11494586Y-13805484D01*
X11494586Y-13805484D02*
X11504110Y-13786436D01*
X11504110Y-13786436D02*
X11513634Y-13776913D01*
X11513634Y-13776913D02*
X11532681Y-13767389D01*
X11770777Y-13767389D02*
X11732681Y-13767389D01*
X11732681Y-13767389D02*
X11713634Y-13776913D01*
X11713634Y-13776913D02*
X11704110Y-13786436D01*
X11704110Y-13786436D02*
X11685062Y-13815008D01*
X11685062Y-13815008D02*
X11675538Y-13853103D01*
X11675538Y-13853103D02*
X11675538Y-13929293D01*
X11675538Y-13929293D02*
X11685062Y-13948341D01*
X11685062Y-13948341D02*
X11694586Y-13957865D01*
X11694586Y-13957865D02*
X11713634Y-13967389D01*
X11713634Y-13967389D02*
X11751729Y-13967389D01*
X11751729Y-13967389D02*
X11770777Y-13957865D01*
X11770777Y-13957865D02*
X11780300Y-13948341D01*
X11780300Y-13948341D02*
X11789824Y-13929293D01*
X11789824Y-13929293D02*
X11789824Y-13881674D01*
X11789824Y-13881674D02*
X11780300Y-13862627D01*
X11780300Y-13862627D02*
X11770777Y-13853103D01*
X11770777Y-13853103D02*
X11751729Y-13843579D01*
X11751729Y-13843579D02*
X11713634Y-13843579D01*
X11713634Y-13843579D02*
X11694586Y-13853103D01*
X11694586Y-13853103D02*
X11685062Y-13862627D01*
X11685062Y-13862627D02*
X11675538Y-13881674D01*
X11856491Y-13767389D02*
X11989824Y-13767389D01*
X11989824Y-13767389D02*
X11904110Y-13967389D01*
X12066015Y-13967389D02*
X12066015Y-13834055D01*
X12066015Y-13853103D02*
X12075538Y-13843579D01*
X12075538Y-13843579D02*
X12094586Y-13834055D01*
X12094586Y-13834055D02*
X12123158Y-13834055D01*
X12123158Y-13834055D02*
X12142205Y-13843579D01*
X12142205Y-13843579D02*
X12151729Y-13862627D01*
X12151729Y-13862627D02*
X12151729Y-13967389D01*
X12151729Y-13862627D02*
X12161253Y-13843579D01*
X12161253Y-13843579D02*
X12180300Y-13834055D01*
X12180300Y-13834055D02*
X12208872Y-13834055D01*
X12208872Y-13834055D02*
X12227919Y-13843579D01*
X12227919Y-13843579D02*
X12237443Y-13862627D01*
X12237443Y-13862627D02*
X12237443Y-13967389D01*
X12332681Y-13967389D02*
X12332681Y-13834055D01*
X12332681Y-13853103D02*
X12342205Y-13843579D01*
X12342205Y-13843579D02*
X12361253Y-13834055D01*
X12361253Y-13834055D02*
X12389824Y-13834055D01*
X12389824Y-13834055D02*
X12408872Y-13843579D01*
X12408872Y-13843579D02*
X12418396Y-13862627D01*
X12418396Y-13862627D02*
X12418396Y-13967389D01*
X12418396Y-13862627D02*
X12427919Y-13843579D01*
X12427919Y-13843579D02*
X12446967Y-13834055D01*
X12446967Y-13834055D02*
X12475538Y-13834055D01*
X12475538Y-13834055D02*
X12494586Y-13843579D01*
X12494586Y-13843579D02*
X12504110Y-13862627D01*
X12504110Y-13862627D02*
X12504110Y-13967389D01*
X12894586Y-13757865D02*
X12723158Y-14015008D01*
X13151729Y-13767389D02*
X13170777Y-13767389D01*
X13170777Y-13767389D02*
X13189824Y-13776913D01*
X13189824Y-13776913D02*
X13199348Y-13786436D01*
X13199348Y-13786436D02*
X13208872Y-13805484D01*
X13208872Y-13805484D02*
X13218396Y-13843579D01*
X13218396Y-13843579D02*
X13218396Y-13891198D01*
X13218396Y-13891198D02*
X13208872Y-13929293D01*
X13208872Y-13929293D02*
X13199348Y-13948341D01*
X13199348Y-13948341D02*
X13189824Y-13957865D01*
X13189824Y-13957865D02*
X13170777Y-13967389D01*
X13170777Y-13967389D02*
X13151729Y-13967389D01*
X13151729Y-13967389D02*
X13132681Y-13957865D01*
X13132681Y-13957865D02*
X13123158Y-13948341D01*
X13123158Y-13948341D02*
X13113634Y-13929293D01*
X13113634Y-13929293D02*
X13104110Y-13891198D01*
X13104110Y-13891198D02*
X13104110Y-13843579D01*
X13104110Y-13843579D02*
X13113634Y-13805484D01*
X13113634Y-13805484D02*
X13123158Y-13786436D01*
X13123158Y-13786436D02*
X13132681Y-13776913D01*
X13132681Y-13776913D02*
X13151729Y-13767389D01*
X13304110Y-13948341D02*
X13313634Y-13957865D01*
X13313634Y-13957865D02*
X13304110Y-13967389D01*
X13304110Y-13967389D02*
X13294586Y-13957865D01*
X13294586Y-13957865D02*
X13304110Y-13948341D01*
X13304110Y-13948341D02*
X13304110Y-13967389D01*
X13437443Y-13767389D02*
X13456491Y-13767389D01*
X13456491Y-13767389D02*
X13475539Y-13776913D01*
X13475539Y-13776913D02*
X13485062Y-13786436D01*
X13485062Y-13786436D02*
X13494586Y-13805484D01*
X13494586Y-13805484D02*
X13504110Y-13843579D01*
X13504110Y-13843579D02*
X13504110Y-13891198D01*
X13504110Y-13891198D02*
X13494586Y-13929293D01*
X13494586Y-13929293D02*
X13485062Y-13948341D01*
X13485062Y-13948341D02*
X13475539Y-13957865D01*
X13475539Y-13957865D02*
X13456491Y-13967389D01*
X13456491Y-13967389D02*
X13437443Y-13967389D01*
X13437443Y-13967389D02*
X13418396Y-13957865D01*
X13418396Y-13957865D02*
X13408872Y-13948341D01*
X13408872Y-13948341D02*
X13399348Y-13929293D01*
X13399348Y-13929293D02*
X13389824Y-13891198D01*
X13389824Y-13891198D02*
X13389824Y-13843579D01*
X13389824Y-13843579D02*
X13399348Y-13805484D01*
X13399348Y-13805484D02*
X13408872Y-13786436D01*
X13408872Y-13786436D02*
X13418396Y-13776913D01*
X13418396Y-13776913D02*
X13437443Y-13767389D01*
X13675539Y-13834055D02*
X13675539Y-13967389D01*
X13627920Y-13757865D02*
X13580301Y-13900722D01*
X13580301Y-13900722D02*
X13704110Y-13900722D01*
X13770777Y-13786436D02*
X13780301Y-13776913D01*
X13780301Y-13776913D02*
X13799348Y-13767389D01*
X13799348Y-13767389D02*
X13846967Y-13767389D01*
X13846967Y-13767389D02*
X13866015Y-13776913D01*
X13866015Y-13776913D02*
X13875539Y-13786436D01*
X13875539Y-13786436D02*
X13885062Y-13805484D01*
X13885062Y-13805484D02*
X13885062Y-13824532D01*
X13885062Y-13824532D02*
X13875539Y-13853103D01*
X13875539Y-13853103D02*
X13761253Y-13967389D01*
X13761253Y-13967389D02*
X13885062Y-13967389D01*
X14008872Y-13767389D02*
X14027920Y-13767389D01*
X14027920Y-13767389D02*
X14046967Y-13776913D01*
X14046967Y-13776913D02*
X14056491Y-13786436D01*
X14056491Y-13786436D02*
X14066015Y-13805484D01*
X14066015Y-13805484D02*
X14075539Y-13843579D01*
X14075539Y-13843579D02*
X14075539Y-13891198D01*
X14075539Y-13891198D02*
X14066015Y-13929293D01*
X14066015Y-13929293D02*
X14056491Y-13948341D01*
X14056491Y-13948341D02*
X14046967Y-13957865D01*
X14046967Y-13957865D02*
X14027920Y-13967389D01*
X14027920Y-13967389D02*
X14008872Y-13967389D01*
X14008872Y-13967389D02*
X13989824Y-13957865D01*
X13989824Y-13957865D02*
X13980301Y-13948341D01*
X13980301Y-13948341D02*
X13970777Y-13929293D01*
X13970777Y-13929293D02*
X13961253Y-13891198D01*
X13961253Y-13891198D02*
X13961253Y-13843579D01*
X13961253Y-13843579D02*
X13970777Y-13805484D01*
X13970777Y-13805484D02*
X13980301Y-13786436D01*
X13980301Y-13786436D02*
X13989824Y-13776913D01*
X13989824Y-13776913D02*
X14008872Y-13767389D01*
X14151729Y-13767389D02*
X14151729Y-13805484D01*
X14227920Y-13767389D02*
X14227920Y-13805484D01*
X14523158Y-14043579D02*
X14513634Y-14034055D01*
X14513634Y-14034055D02*
X14494586Y-14005484D01*
X14494586Y-14005484D02*
X14485063Y-13986436D01*
X14485063Y-13986436D02*
X14475539Y-13957865D01*
X14475539Y-13957865D02*
X14466015Y-13910246D01*
X14466015Y-13910246D02*
X14466015Y-13872151D01*
X14466015Y-13872151D02*
X14475539Y-13824532D01*
X14475539Y-13824532D02*
X14485063Y-13795960D01*
X14485063Y-13795960D02*
X14494586Y-13776913D01*
X14494586Y-13776913D02*
X14513634Y-13748341D01*
X14513634Y-13748341D02*
X14523158Y-13738817D01*
X14694586Y-13767389D02*
X14599348Y-13767389D01*
X14599348Y-13767389D02*
X14589824Y-13862627D01*
X14589824Y-13862627D02*
X14599348Y-13853103D01*
X14599348Y-13853103D02*
X14618396Y-13843579D01*
X14618396Y-13843579D02*
X14666015Y-13843579D01*
X14666015Y-13843579D02*
X14685063Y-13853103D01*
X14685063Y-13853103D02*
X14694586Y-13862627D01*
X14694586Y-13862627D02*
X14704110Y-13881674D01*
X14704110Y-13881674D02*
X14704110Y-13929293D01*
X14704110Y-13929293D02*
X14694586Y-13948341D01*
X14694586Y-13948341D02*
X14685063Y-13957865D01*
X14685063Y-13957865D02*
X14666015Y-13967389D01*
X14666015Y-13967389D02*
X14618396Y-13967389D01*
X14618396Y-13967389D02*
X14599348Y-13957865D01*
X14599348Y-13957865D02*
X14589824Y-13948341D01*
X14942205Y-13967389D02*
X14942205Y-13767389D01*
X15027920Y-13967389D02*
X15027920Y-13862627D01*
X15027920Y-13862627D02*
X15018396Y-13843579D01*
X15018396Y-13843579D02*
X14999348Y-13834055D01*
X14999348Y-13834055D02*
X14970777Y-13834055D01*
X14970777Y-13834055D02*
X14951729Y-13843579D01*
X14951729Y-13843579D02*
X14942205Y-13853103D01*
X15151729Y-13967389D02*
X15132682Y-13957865D01*
X15132682Y-13957865D02*
X15123158Y-13948341D01*
X15123158Y-13948341D02*
X15113634Y-13929293D01*
X15113634Y-13929293D02*
X15113634Y-13872151D01*
X15113634Y-13872151D02*
X15123158Y-13853103D01*
X15123158Y-13853103D02*
X15132682Y-13843579D01*
X15132682Y-13843579D02*
X15151729Y-13834055D01*
X15151729Y-13834055D02*
X15180301Y-13834055D01*
X15180301Y-13834055D02*
X15199348Y-13843579D01*
X15199348Y-13843579D02*
X15208872Y-13853103D01*
X15208872Y-13853103D02*
X15218396Y-13872151D01*
X15218396Y-13872151D02*
X15218396Y-13929293D01*
X15218396Y-13929293D02*
X15208872Y-13948341D01*
X15208872Y-13948341D02*
X15199348Y-13957865D01*
X15199348Y-13957865D02*
X15180301Y-13967389D01*
X15180301Y-13967389D02*
X15151729Y-13967389D01*
X15332682Y-13967389D02*
X15313634Y-13957865D01*
X15313634Y-13957865D02*
X15304110Y-13938817D01*
X15304110Y-13938817D02*
X15304110Y-13767389D01*
X15485063Y-13957865D02*
X15466015Y-13967389D01*
X15466015Y-13967389D02*
X15427920Y-13967389D01*
X15427920Y-13967389D02*
X15408872Y-13957865D01*
X15408872Y-13957865D02*
X15399348Y-13938817D01*
X15399348Y-13938817D02*
X15399348Y-13862627D01*
X15399348Y-13862627D02*
X15408872Y-13843579D01*
X15408872Y-13843579D02*
X15427920Y-13834055D01*
X15427920Y-13834055D02*
X15466015Y-13834055D01*
X15466015Y-13834055D02*
X15485063Y-13843579D01*
X15485063Y-13843579D02*
X15494586Y-13862627D01*
X15494586Y-13862627D02*
X15494586Y-13881674D01*
X15494586Y-13881674D02*
X15399348Y-13900722D01*
X15570777Y-13957865D02*
X15589825Y-13967389D01*
X15589825Y-13967389D02*
X15627920Y-13967389D01*
X15627920Y-13967389D02*
X15646967Y-13957865D01*
X15646967Y-13957865D02*
X15656491Y-13938817D01*
X15656491Y-13938817D02*
X15656491Y-13929293D01*
X15656491Y-13929293D02*
X15646967Y-13910246D01*
X15646967Y-13910246D02*
X15627920Y-13900722D01*
X15627920Y-13900722D02*
X15599348Y-13900722D01*
X15599348Y-13900722D02*
X15580301Y-13891198D01*
X15580301Y-13891198D02*
X15570777Y-13872151D01*
X15570777Y-13872151D02*
X15570777Y-13862627D01*
X15570777Y-13862627D02*
X15580301Y-13843579D01*
X15580301Y-13843579D02*
X15599348Y-13834055D01*
X15599348Y-13834055D02*
X15627920Y-13834055D01*
X15627920Y-13834055D02*
X15646967Y-13843579D01*
X15723158Y-14043579D02*
X15732682Y-14034055D01*
X15732682Y-14034055D02*
X15751729Y-14005484D01*
X15751729Y-14005484D02*
X15761253Y-13986436D01*
X15761253Y-13986436D02*
X15770777Y-13957865D01*
X15770777Y-13957865D02*
X15780301Y-13910246D01*
X15780301Y-13910246D02*
X15780301Y-13872151D01*
X15780301Y-13872151D02*
X15770777Y-13824532D01*
X15770777Y-13824532D02*
X15761253Y-13795960D01*
X15761253Y-13795960D02*
X15751729Y-13776913D01*
X15751729Y-13776913D02*
X15732682Y-13748341D01*
X15732682Y-13748341D02*
X15723158Y-13738817D01*
D14*
X10838095Y-14084905D02*
X10948095Y-14194905D01*
X10948095Y-14084905D02*
X10838095Y-14194905D01*
X10931986Y-14178796D02*
X10931986Y-14101014D01*
X10854204Y-14101014D01*
X10854204Y-14178796D01*
X10931986Y-14178796D01*
D11*
X11313634Y-14231389D02*
X11199348Y-14231389D01*
X11256491Y-14231389D02*
X11256491Y-14031389D01*
X11256491Y-14031389D02*
X11237443Y-14059960D01*
X11237443Y-14059960D02*
X11218396Y-14079008D01*
X11218396Y-14079008D02*
X11199348Y-14088532D01*
X11399348Y-14212341D02*
X11408872Y-14221865D01*
X11408872Y-14221865D02*
X11399348Y-14231389D01*
X11399348Y-14231389D02*
X11389824Y-14221865D01*
X11389824Y-14221865D02*
X11399348Y-14212341D01*
X11399348Y-14212341D02*
X11399348Y-14231389D01*
X11599348Y-14231389D02*
X11485062Y-14231389D01*
X11542205Y-14231389D02*
X11542205Y-14031389D01*
X11542205Y-14031389D02*
X11523157Y-14059960D01*
X11523157Y-14059960D02*
X11504110Y-14079008D01*
X11504110Y-14079008D02*
X11485062Y-14088532D01*
X11723157Y-14031389D02*
X11742205Y-14031389D01*
X11742205Y-14031389D02*
X11761253Y-14040913D01*
X11761253Y-14040913D02*
X11770777Y-14050436D01*
X11770777Y-14050436D02*
X11780300Y-14069484D01*
X11780300Y-14069484D02*
X11789824Y-14107579D01*
X11789824Y-14107579D02*
X11789824Y-14155198D01*
X11789824Y-14155198D02*
X11780300Y-14193293D01*
X11780300Y-14193293D02*
X11770777Y-14212341D01*
X11770777Y-14212341D02*
X11761253Y-14221865D01*
X11761253Y-14221865D02*
X11742205Y-14231389D01*
X11742205Y-14231389D02*
X11723157Y-14231389D01*
X11723157Y-14231389D02*
X11704110Y-14221865D01*
X11704110Y-14221865D02*
X11694586Y-14212341D01*
X11694586Y-14212341D02*
X11685062Y-14193293D01*
X11685062Y-14193293D02*
X11675538Y-14155198D01*
X11675538Y-14155198D02*
X11675538Y-14107579D01*
X11675538Y-14107579D02*
X11685062Y-14069484D01*
X11685062Y-14069484D02*
X11694586Y-14050436D01*
X11694586Y-14050436D02*
X11704110Y-14040913D01*
X11704110Y-14040913D02*
X11723157Y-14031389D01*
X11913634Y-14031389D02*
X11932681Y-14031389D01*
X11932681Y-14031389D02*
X11951729Y-14040913D01*
X11951729Y-14040913D02*
X11961253Y-14050436D01*
X11961253Y-14050436D02*
X11970777Y-14069484D01*
X11970777Y-14069484D02*
X11980300Y-14107579D01*
X11980300Y-14107579D02*
X11980300Y-14155198D01*
X11980300Y-14155198D02*
X11970777Y-14193293D01*
X11970777Y-14193293D02*
X11961253Y-14212341D01*
X11961253Y-14212341D02*
X11951729Y-14221865D01*
X11951729Y-14221865D02*
X11932681Y-14231389D01*
X11932681Y-14231389D02*
X11913634Y-14231389D01*
X11913634Y-14231389D02*
X11894586Y-14221865D01*
X11894586Y-14221865D02*
X11885062Y-14212341D01*
X11885062Y-14212341D02*
X11875538Y-14193293D01*
X11875538Y-14193293D02*
X11866015Y-14155198D01*
X11866015Y-14155198D02*
X11866015Y-14107579D01*
X11866015Y-14107579D02*
X11875538Y-14069484D01*
X11875538Y-14069484D02*
X11885062Y-14050436D01*
X11885062Y-14050436D02*
X11894586Y-14040913D01*
X11894586Y-14040913D02*
X11913634Y-14031389D01*
X12066015Y-14231389D02*
X12066015Y-14098055D01*
X12066015Y-14117103D02*
X12075538Y-14107579D01*
X12075538Y-14107579D02*
X12094586Y-14098055D01*
X12094586Y-14098055D02*
X12123158Y-14098055D01*
X12123158Y-14098055D02*
X12142205Y-14107579D01*
X12142205Y-14107579D02*
X12151729Y-14126627D01*
X12151729Y-14126627D02*
X12151729Y-14231389D01*
X12151729Y-14126627D02*
X12161253Y-14107579D01*
X12161253Y-14107579D02*
X12180300Y-14098055D01*
X12180300Y-14098055D02*
X12208872Y-14098055D01*
X12208872Y-14098055D02*
X12227919Y-14107579D01*
X12227919Y-14107579D02*
X12237443Y-14126627D01*
X12237443Y-14126627D02*
X12237443Y-14231389D01*
X12332681Y-14231389D02*
X12332681Y-14098055D01*
X12332681Y-14117103D02*
X12342205Y-14107579D01*
X12342205Y-14107579D02*
X12361253Y-14098055D01*
X12361253Y-14098055D02*
X12389824Y-14098055D01*
X12389824Y-14098055D02*
X12408872Y-14107579D01*
X12408872Y-14107579D02*
X12418396Y-14126627D01*
X12418396Y-14126627D02*
X12418396Y-14231389D01*
X12418396Y-14126627D02*
X12427919Y-14107579D01*
X12427919Y-14107579D02*
X12446967Y-14098055D01*
X12446967Y-14098055D02*
X12475538Y-14098055D01*
X12475538Y-14098055D02*
X12494586Y-14107579D01*
X12494586Y-14107579D02*
X12504110Y-14126627D01*
X12504110Y-14126627D02*
X12504110Y-14231389D01*
X12894586Y-14021865D02*
X12723158Y-14279008D01*
X13151729Y-14031389D02*
X13170777Y-14031389D01*
X13170777Y-14031389D02*
X13189824Y-14040913D01*
X13189824Y-14040913D02*
X13199348Y-14050436D01*
X13199348Y-14050436D02*
X13208872Y-14069484D01*
X13208872Y-14069484D02*
X13218396Y-14107579D01*
X13218396Y-14107579D02*
X13218396Y-14155198D01*
X13218396Y-14155198D02*
X13208872Y-14193293D01*
X13208872Y-14193293D02*
X13199348Y-14212341D01*
X13199348Y-14212341D02*
X13189824Y-14221865D01*
X13189824Y-14221865D02*
X13170777Y-14231389D01*
X13170777Y-14231389D02*
X13151729Y-14231389D01*
X13151729Y-14231389D02*
X13132681Y-14221865D01*
X13132681Y-14221865D02*
X13123158Y-14212341D01*
X13123158Y-14212341D02*
X13113634Y-14193293D01*
X13113634Y-14193293D02*
X13104110Y-14155198D01*
X13104110Y-14155198D02*
X13104110Y-14107579D01*
X13104110Y-14107579D02*
X13113634Y-14069484D01*
X13113634Y-14069484D02*
X13123158Y-14050436D01*
X13123158Y-14050436D02*
X13132681Y-14040913D01*
X13132681Y-14040913D02*
X13151729Y-14031389D01*
X13304110Y-14212341D02*
X13313634Y-14221865D01*
X13313634Y-14221865D02*
X13304110Y-14231389D01*
X13304110Y-14231389D02*
X13294586Y-14221865D01*
X13294586Y-14221865D02*
X13304110Y-14212341D01*
X13304110Y-14212341D02*
X13304110Y-14231389D01*
X13437443Y-14031389D02*
X13456491Y-14031389D01*
X13456491Y-14031389D02*
X13475539Y-14040913D01*
X13475539Y-14040913D02*
X13485062Y-14050436D01*
X13485062Y-14050436D02*
X13494586Y-14069484D01*
X13494586Y-14069484D02*
X13504110Y-14107579D01*
X13504110Y-14107579D02*
X13504110Y-14155198D01*
X13504110Y-14155198D02*
X13494586Y-14193293D01*
X13494586Y-14193293D02*
X13485062Y-14212341D01*
X13485062Y-14212341D02*
X13475539Y-14221865D01*
X13475539Y-14221865D02*
X13456491Y-14231389D01*
X13456491Y-14231389D02*
X13437443Y-14231389D01*
X13437443Y-14231389D02*
X13418396Y-14221865D01*
X13418396Y-14221865D02*
X13408872Y-14212341D01*
X13408872Y-14212341D02*
X13399348Y-14193293D01*
X13399348Y-14193293D02*
X13389824Y-14155198D01*
X13389824Y-14155198D02*
X13389824Y-14107579D01*
X13389824Y-14107579D02*
X13399348Y-14069484D01*
X13399348Y-14069484D02*
X13408872Y-14050436D01*
X13408872Y-14050436D02*
X13418396Y-14040913D01*
X13418396Y-14040913D02*
X13437443Y-14031389D01*
X13675539Y-14098055D02*
X13675539Y-14231389D01*
X13627920Y-14021865D02*
X13580301Y-14164722D01*
X13580301Y-14164722D02*
X13704110Y-14164722D01*
X13761253Y-14031389D02*
X13885062Y-14031389D01*
X13885062Y-14031389D02*
X13818396Y-14107579D01*
X13818396Y-14107579D02*
X13846967Y-14107579D01*
X13846967Y-14107579D02*
X13866015Y-14117103D01*
X13866015Y-14117103D02*
X13875539Y-14126627D01*
X13875539Y-14126627D02*
X13885062Y-14145674D01*
X13885062Y-14145674D02*
X13885062Y-14193293D01*
X13885062Y-14193293D02*
X13875539Y-14212341D01*
X13875539Y-14212341D02*
X13866015Y-14221865D01*
X13866015Y-14221865D02*
X13846967Y-14231389D01*
X13846967Y-14231389D02*
X13789824Y-14231389D01*
X13789824Y-14231389D02*
X13770777Y-14221865D01*
X13770777Y-14221865D02*
X13761253Y-14212341D01*
X13951729Y-14031389D02*
X14075539Y-14031389D01*
X14075539Y-14031389D02*
X14008872Y-14107579D01*
X14008872Y-14107579D02*
X14037443Y-14107579D01*
X14037443Y-14107579D02*
X14056491Y-14117103D01*
X14056491Y-14117103D02*
X14066015Y-14126627D01*
X14066015Y-14126627D02*
X14075539Y-14145674D01*
X14075539Y-14145674D02*
X14075539Y-14193293D01*
X14075539Y-14193293D02*
X14066015Y-14212341D01*
X14066015Y-14212341D02*
X14056491Y-14221865D01*
X14056491Y-14221865D02*
X14037443Y-14231389D01*
X14037443Y-14231389D02*
X13980301Y-14231389D01*
X13980301Y-14231389D02*
X13961253Y-14221865D01*
X13961253Y-14221865D02*
X13951729Y-14212341D01*
X14151729Y-14031389D02*
X14151729Y-14069484D01*
X14227920Y-14031389D02*
X14227920Y-14069484D01*
X14523158Y-14307579D02*
X14513634Y-14298055D01*
X14513634Y-14298055D02*
X14494586Y-14269484D01*
X14494586Y-14269484D02*
X14485063Y-14250436D01*
X14485063Y-14250436D02*
X14475539Y-14221865D01*
X14475539Y-14221865D02*
X14466015Y-14174246D01*
X14466015Y-14174246D02*
X14466015Y-14136151D01*
X14466015Y-14136151D02*
X14475539Y-14088532D01*
X14475539Y-14088532D02*
X14485063Y-14059960D01*
X14485063Y-14059960D02*
X14494586Y-14040913D01*
X14494586Y-14040913D02*
X14513634Y-14012341D01*
X14513634Y-14012341D02*
X14523158Y-14002817D01*
X14704110Y-14231389D02*
X14589824Y-14231389D01*
X14646967Y-14231389D02*
X14646967Y-14031389D01*
X14646967Y-14031389D02*
X14627920Y-14059960D01*
X14627920Y-14059960D02*
X14608872Y-14079008D01*
X14608872Y-14079008D02*
X14589824Y-14088532D01*
X14780301Y-14050436D02*
X14789824Y-14040913D01*
X14789824Y-14040913D02*
X14808872Y-14031389D01*
X14808872Y-14031389D02*
X14856491Y-14031389D01*
X14856491Y-14031389D02*
X14875539Y-14040913D01*
X14875539Y-14040913D02*
X14885063Y-14050436D01*
X14885063Y-14050436D02*
X14894586Y-14069484D01*
X14894586Y-14069484D02*
X14894586Y-14088532D01*
X14894586Y-14088532D02*
X14885063Y-14117103D01*
X14885063Y-14117103D02*
X14770777Y-14231389D01*
X14770777Y-14231389D02*
X14894586Y-14231389D01*
X15132682Y-14231389D02*
X15132682Y-14031389D01*
X15218396Y-14231389D02*
X15218396Y-14126627D01*
X15218396Y-14126627D02*
X15208872Y-14107579D01*
X15208872Y-14107579D02*
X15189825Y-14098055D01*
X15189825Y-14098055D02*
X15161253Y-14098055D01*
X15161253Y-14098055D02*
X15142205Y-14107579D01*
X15142205Y-14107579D02*
X15132682Y-14117103D01*
X15342205Y-14231389D02*
X15323158Y-14221865D01*
X15323158Y-14221865D02*
X15313634Y-14212341D01*
X15313634Y-14212341D02*
X15304110Y-14193293D01*
X15304110Y-14193293D02*
X15304110Y-14136151D01*
X15304110Y-14136151D02*
X15313634Y-14117103D01*
X15313634Y-14117103D02*
X15323158Y-14107579D01*
X15323158Y-14107579D02*
X15342205Y-14098055D01*
X15342205Y-14098055D02*
X15370777Y-14098055D01*
X15370777Y-14098055D02*
X15389825Y-14107579D01*
X15389825Y-14107579D02*
X15399348Y-14117103D01*
X15399348Y-14117103D02*
X15408872Y-14136151D01*
X15408872Y-14136151D02*
X15408872Y-14193293D01*
X15408872Y-14193293D02*
X15399348Y-14212341D01*
X15399348Y-14212341D02*
X15389825Y-14221865D01*
X15389825Y-14221865D02*
X15370777Y-14231389D01*
X15370777Y-14231389D02*
X15342205Y-14231389D01*
X15523158Y-14231389D02*
X15504110Y-14221865D01*
X15504110Y-14221865D02*
X15494586Y-14202817D01*
X15494586Y-14202817D02*
X15494586Y-14031389D01*
X15675539Y-14221865D02*
X15656491Y-14231389D01*
X15656491Y-14231389D02*
X15618396Y-14231389D01*
X15618396Y-14231389D02*
X15599348Y-14221865D01*
X15599348Y-14221865D02*
X15589825Y-14202817D01*
X15589825Y-14202817D02*
X15589825Y-14126627D01*
X15589825Y-14126627D02*
X15599348Y-14107579D01*
X15599348Y-14107579D02*
X15618396Y-14098055D01*
X15618396Y-14098055D02*
X15656491Y-14098055D01*
X15656491Y-14098055D02*
X15675539Y-14107579D01*
X15675539Y-14107579D02*
X15685063Y-14126627D01*
X15685063Y-14126627D02*
X15685063Y-14145674D01*
X15685063Y-14145674D02*
X15589825Y-14164722D01*
X15761253Y-14221865D02*
X15780301Y-14231389D01*
X15780301Y-14231389D02*
X15818396Y-14231389D01*
X15818396Y-14231389D02*
X15837444Y-14221865D01*
X15837444Y-14221865D02*
X15846967Y-14202817D01*
X15846967Y-14202817D02*
X15846967Y-14193293D01*
X15846967Y-14193293D02*
X15837444Y-14174246D01*
X15837444Y-14174246D02*
X15818396Y-14164722D01*
X15818396Y-14164722D02*
X15789825Y-14164722D01*
X15789825Y-14164722D02*
X15770777Y-14155198D01*
X15770777Y-14155198D02*
X15761253Y-14136151D01*
X15761253Y-14136151D02*
X15761253Y-14126627D01*
X15761253Y-14126627D02*
X15770777Y-14107579D01*
X15770777Y-14107579D02*
X15789825Y-14098055D01*
X15789825Y-14098055D02*
X15818396Y-14098055D01*
X15818396Y-14098055D02*
X15837444Y-14107579D01*
X15913634Y-14307579D02*
X15923158Y-14298055D01*
X15923158Y-14298055D02*
X15942206Y-14269484D01*
X15942206Y-14269484D02*
X15951729Y-14250436D01*
X15951729Y-14250436D02*
X15961253Y-14221865D01*
X15961253Y-14221865D02*
X15970777Y-14174246D01*
X15970777Y-14174246D02*
X15970777Y-14136151D01*
X15970777Y-14136151D02*
X15961253Y-14088532D01*
X15961253Y-14088532D02*
X15951729Y-14059960D01*
X15951729Y-14059960D02*
X15942206Y-14040913D01*
X15942206Y-14040913D02*
X15923158Y-14012341D01*
X15923158Y-14012341D02*
X15913634Y-14002817D01*
D15*
X10828095Y-14343905D02*
X10948095Y-14463905D01*
X10948095Y-14343905D02*
X10828095Y-14463905D01*
X10888095Y-14463905D02*
X10948095Y-14403905D01*
X10888095Y-14343905D01*
X10828095Y-14403905D01*
X10888095Y-14463905D01*
D11*
X11313634Y-14495389D02*
X11199348Y-14495389D01*
X11256491Y-14495389D02*
X11256491Y-14295389D01*
X11256491Y-14295389D02*
X11237443Y-14323960D01*
X11237443Y-14323960D02*
X11218396Y-14343008D01*
X11218396Y-14343008D02*
X11199348Y-14352532D01*
X11399348Y-14476341D02*
X11408872Y-14485865D01*
X11408872Y-14485865D02*
X11399348Y-14495389D01*
X11399348Y-14495389D02*
X11389824Y-14485865D01*
X11389824Y-14485865D02*
X11399348Y-14476341D01*
X11399348Y-14476341D02*
X11399348Y-14495389D01*
X11485062Y-14314436D02*
X11494586Y-14304913D01*
X11494586Y-14304913D02*
X11513634Y-14295389D01*
X11513634Y-14295389D02*
X11561253Y-14295389D01*
X11561253Y-14295389D02*
X11580300Y-14304913D01*
X11580300Y-14304913D02*
X11589824Y-14314436D01*
X11589824Y-14314436D02*
X11599348Y-14333484D01*
X11599348Y-14333484D02*
X11599348Y-14352532D01*
X11599348Y-14352532D02*
X11589824Y-14381103D01*
X11589824Y-14381103D02*
X11475538Y-14495389D01*
X11475538Y-14495389D02*
X11599348Y-14495389D01*
X11723157Y-14295389D02*
X11742205Y-14295389D01*
X11742205Y-14295389D02*
X11761253Y-14304913D01*
X11761253Y-14304913D02*
X11770777Y-14314436D01*
X11770777Y-14314436D02*
X11780300Y-14333484D01*
X11780300Y-14333484D02*
X11789824Y-14371579D01*
X11789824Y-14371579D02*
X11789824Y-14419198D01*
X11789824Y-14419198D02*
X11780300Y-14457293D01*
X11780300Y-14457293D02*
X11770777Y-14476341D01*
X11770777Y-14476341D02*
X11761253Y-14485865D01*
X11761253Y-14485865D02*
X11742205Y-14495389D01*
X11742205Y-14495389D02*
X11723157Y-14495389D01*
X11723157Y-14495389D02*
X11704110Y-14485865D01*
X11704110Y-14485865D02*
X11694586Y-14476341D01*
X11694586Y-14476341D02*
X11685062Y-14457293D01*
X11685062Y-14457293D02*
X11675538Y-14419198D01*
X11675538Y-14419198D02*
X11675538Y-14371579D01*
X11675538Y-14371579D02*
X11685062Y-14333484D01*
X11685062Y-14333484D02*
X11694586Y-14314436D01*
X11694586Y-14314436D02*
X11704110Y-14304913D01*
X11704110Y-14304913D02*
X11723157Y-14295389D01*
X11913634Y-14295389D02*
X11932681Y-14295389D01*
X11932681Y-14295389D02*
X11951729Y-14304913D01*
X11951729Y-14304913D02*
X11961253Y-14314436D01*
X11961253Y-14314436D02*
X11970777Y-14333484D01*
X11970777Y-14333484D02*
X11980300Y-14371579D01*
X11980300Y-14371579D02*
X11980300Y-14419198D01*
X11980300Y-14419198D02*
X11970777Y-14457293D01*
X11970777Y-14457293D02*
X11961253Y-14476341D01*
X11961253Y-14476341D02*
X11951729Y-14485865D01*
X11951729Y-14485865D02*
X11932681Y-14495389D01*
X11932681Y-14495389D02*
X11913634Y-14495389D01*
X11913634Y-14495389D02*
X11894586Y-14485865D01*
X11894586Y-14485865D02*
X11885062Y-14476341D01*
X11885062Y-14476341D02*
X11875538Y-14457293D01*
X11875538Y-14457293D02*
X11866015Y-14419198D01*
X11866015Y-14419198D02*
X11866015Y-14371579D01*
X11866015Y-14371579D02*
X11875538Y-14333484D01*
X11875538Y-14333484D02*
X11885062Y-14314436D01*
X11885062Y-14314436D02*
X11894586Y-14304913D01*
X11894586Y-14304913D02*
X11913634Y-14295389D01*
X12066015Y-14495389D02*
X12066015Y-14362055D01*
X12066015Y-14381103D02*
X12075538Y-14371579D01*
X12075538Y-14371579D02*
X12094586Y-14362055D01*
X12094586Y-14362055D02*
X12123158Y-14362055D01*
X12123158Y-14362055D02*
X12142205Y-14371579D01*
X12142205Y-14371579D02*
X12151729Y-14390627D01*
X12151729Y-14390627D02*
X12151729Y-14495389D01*
X12151729Y-14390627D02*
X12161253Y-14371579D01*
X12161253Y-14371579D02*
X12180300Y-14362055D01*
X12180300Y-14362055D02*
X12208872Y-14362055D01*
X12208872Y-14362055D02*
X12227919Y-14371579D01*
X12227919Y-14371579D02*
X12237443Y-14390627D01*
X12237443Y-14390627D02*
X12237443Y-14495389D01*
X12332681Y-14495389D02*
X12332681Y-14362055D01*
X12332681Y-14381103D02*
X12342205Y-14371579D01*
X12342205Y-14371579D02*
X12361253Y-14362055D01*
X12361253Y-14362055D02*
X12389824Y-14362055D01*
X12389824Y-14362055D02*
X12408872Y-14371579D01*
X12408872Y-14371579D02*
X12418396Y-14390627D01*
X12418396Y-14390627D02*
X12418396Y-14495389D01*
X12418396Y-14390627D02*
X12427919Y-14371579D01*
X12427919Y-14371579D02*
X12446967Y-14362055D01*
X12446967Y-14362055D02*
X12475538Y-14362055D01*
X12475538Y-14362055D02*
X12494586Y-14371579D01*
X12494586Y-14371579D02*
X12504110Y-14390627D01*
X12504110Y-14390627D02*
X12504110Y-14495389D01*
X12894586Y-14285865D02*
X12723158Y-14543008D01*
X13151729Y-14295389D02*
X13170777Y-14295389D01*
X13170777Y-14295389D02*
X13189824Y-14304913D01*
X13189824Y-14304913D02*
X13199348Y-14314436D01*
X13199348Y-14314436D02*
X13208872Y-14333484D01*
X13208872Y-14333484D02*
X13218396Y-14371579D01*
X13218396Y-14371579D02*
X13218396Y-14419198D01*
X13218396Y-14419198D02*
X13208872Y-14457293D01*
X13208872Y-14457293D02*
X13199348Y-14476341D01*
X13199348Y-14476341D02*
X13189824Y-14485865D01*
X13189824Y-14485865D02*
X13170777Y-14495389D01*
X13170777Y-14495389D02*
X13151729Y-14495389D01*
X13151729Y-14495389D02*
X13132681Y-14485865D01*
X13132681Y-14485865D02*
X13123158Y-14476341D01*
X13123158Y-14476341D02*
X13113634Y-14457293D01*
X13113634Y-14457293D02*
X13104110Y-14419198D01*
X13104110Y-14419198D02*
X13104110Y-14371579D01*
X13104110Y-14371579D02*
X13113634Y-14333484D01*
X13113634Y-14333484D02*
X13123158Y-14314436D01*
X13123158Y-14314436D02*
X13132681Y-14304913D01*
X13132681Y-14304913D02*
X13151729Y-14295389D01*
X13304110Y-14476341D02*
X13313634Y-14485865D01*
X13313634Y-14485865D02*
X13304110Y-14495389D01*
X13304110Y-14495389D02*
X13294586Y-14485865D01*
X13294586Y-14485865D02*
X13304110Y-14476341D01*
X13304110Y-14476341D02*
X13304110Y-14495389D01*
X13437443Y-14295389D02*
X13456491Y-14295389D01*
X13456491Y-14295389D02*
X13475539Y-14304913D01*
X13475539Y-14304913D02*
X13485062Y-14314436D01*
X13485062Y-14314436D02*
X13494586Y-14333484D01*
X13494586Y-14333484D02*
X13504110Y-14371579D01*
X13504110Y-14371579D02*
X13504110Y-14419198D01*
X13504110Y-14419198D02*
X13494586Y-14457293D01*
X13494586Y-14457293D02*
X13485062Y-14476341D01*
X13485062Y-14476341D02*
X13475539Y-14485865D01*
X13475539Y-14485865D02*
X13456491Y-14495389D01*
X13456491Y-14495389D02*
X13437443Y-14495389D01*
X13437443Y-14495389D02*
X13418396Y-14485865D01*
X13418396Y-14485865D02*
X13408872Y-14476341D01*
X13408872Y-14476341D02*
X13399348Y-14457293D01*
X13399348Y-14457293D02*
X13389824Y-14419198D01*
X13389824Y-14419198D02*
X13389824Y-14371579D01*
X13389824Y-14371579D02*
X13399348Y-14333484D01*
X13399348Y-14333484D02*
X13408872Y-14314436D01*
X13408872Y-14314436D02*
X13418396Y-14304913D01*
X13418396Y-14304913D02*
X13437443Y-14295389D01*
X13675539Y-14362055D02*
X13675539Y-14495389D01*
X13627920Y-14285865D02*
X13580301Y-14428722D01*
X13580301Y-14428722D02*
X13704110Y-14428722D01*
X13761253Y-14295389D02*
X13894586Y-14295389D01*
X13894586Y-14295389D02*
X13808872Y-14495389D01*
X13961253Y-14314436D02*
X13970777Y-14304913D01*
X13970777Y-14304913D02*
X13989824Y-14295389D01*
X13989824Y-14295389D02*
X14037443Y-14295389D01*
X14037443Y-14295389D02*
X14056491Y-14304913D01*
X14056491Y-14304913D02*
X14066015Y-14314436D01*
X14066015Y-14314436D02*
X14075539Y-14333484D01*
X14075539Y-14333484D02*
X14075539Y-14352532D01*
X14075539Y-14352532D02*
X14066015Y-14381103D01*
X14066015Y-14381103D02*
X13951729Y-14495389D01*
X13951729Y-14495389D02*
X14075539Y-14495389D01*
X14151729Y-14295389D02*
X14151729Y-14333484D01*
X14227920Y-14295389D02*
X14227920Y-14333484D01*
X14523158Y-14571579D02*
X14513634Y-14562055D01*
X14513634Y-14562055D02*
X14494586Y-14533484D01*
X14494586Y-14533484D02*
X14485063Y-14514436D01*
X14485063Y-14514436D02*
X14475539Y-14485865D01*
X14475539Y-14485865D02*
X14466015Y-14438246D01*
X14466015Y-14438246D02*
X14466015Y-14400151D01*
X14466015Y-14400151D02*
X14475539Y-14352532D01*
X14475539Y-14352532D02*
X14485063Y-14323960D01*
X14485063Y-14323960D02*
X14494586Y-14304913D01*
X14494586Y-14304913D02*
X14513634Y-14276341D01*
X14513634Y-14276341D02*
X14523158Y-14266817D01*
X14685063Y-14295389D02*
X14646967Y-14295389D01*
X14646967Y-14295389D02*
X14627920Y-14304913D01*
X14627920Y-14304913D02*
X14618396Y-14314436D01*
X14618396Y-14314436D02*
X14599348Y-14343008D01*
X14599348Y-14343008D02*
X14589824Y-14381103D01*
X14589824Y-14381103D02*
X14589824Y-14457293D01*
X14589824Y-14457293D02*
X14599348Y-14476341D01*
X14599348Y-14476341D02*
X14608872Y-14485865D01*
X14608872Y-14485865D02*
X14627920Y-14495389D01*
X14627920Y-14495389D02*
X14666015Y-14495389D01*
X14666015Y-14495389D02*
X14685063Y-14485865D01*
X14685063Y-14485865D02*
X14694586Y-14476341D01*
X14694586Y-14476341D02*
X14704110Y-14457293D01*
X14704110Y-14457293D02*
X14704110Y-14409674D01*
X14704110Y-14409674D02*
X14694586Y-14390627D01*
X14694586Y-14390627D02*
X14685063Y-14381103D01*
X14685063Y-14381103D02*
X14666015Y-14371579D01*
X14666015Y-14371579D02*
X14627920Y-14371579D01*
X14627920Y-14371579D02*
X14608872Y-14381103D01*
X14608872Y-14381103D02*
X14599348Y-14390627D01*
X14599348Y-14390627D02*
X14589824Y-14409674D01*
X14942205Y-14495389D02*
X14942205Y-14295389D01*
X15027920Y-14495389D02*
X15027920Y-14390627D01*
X15027920Y-14390627D02*
X15018396Y-14371579D01*
X15018396Y-14371579D02*
X14999348Y-14362055D01*
X14999348Y-14362055D02*
X14970777Y-14362055D01*
X14970777Y-14362055D02*
X14951729Y-14371579D01*
X14951729Y-14371579D02*
X14942205Y-14381103D01*
X15151729Y-14495389D02*
X15132682Y-14485865D01*
X15132682Y-14485865D02*
X15123158Y-14476341D01*
X15123158Y-14476341D02*
X15113634Y-14457293D01*
X15113634Y-14457293D02*
X15113634Y-14400151D01*
X15113634Y-14400151D02*
X15123158Y-14381103D01*
X15123158Y-14381103D02*
X15132682Y-14371579D01*
X15132682Y-14371579D02*
X15151729Y-14362055D01*
X15151729Y-14362055D02*
X15180301Y-14362055D01*
X15180301Y-14362055D02*
X15199348Y-14371579D01*
X15199348Y-14371579D02*
X15208872Y-14381103D01*
X15208872Y-14381103D02*
X15218396Y-14400151D01*
X15218396Y-14400151D02*
X15218396Y-14457293D01*
X15218396Y-14457293D02*
X15208872Y-14476341D01*
X15208872Y-14476341D02*
X15199348Y-14485865D01*
X15199348Y-14485865D02*
X15180301Y-14495389D01*
X15180301Y-14495389D02*
X15151729Y-14495389D01*
X15332682Y-14495389D02*
X15313634Y-14485865D01*
X15313634Y-14485865D02*
X15304110Y-14466817D01*
X15304110Y-14466817D02*
X15304110Y-14295389D01*
X15485063Y-14485865D02*
X15466015Y-14495389D01*
X15466015Y-14495389D02*
X15427920Y-14495389D01*
X15427920Y-14495389D02*
X15408872Y-14485865D01*
X15408872Y-14485865D02*
X15399348Y-14466817D01*
X15399348Y-14466817D02*
X15399348Y-14390627D01*
X15399348Y-14390627D02*
X15408872Y-14371579D01*
X15408872Y-14371579D02*
X15427920Y-14362055D01*
X15427920Y-14362055D02*
X15466015Y-14362055D01*
X15466015Y-14362055D02*
X15485063Y-14371579D01*
X15485063Y-14371579D02*
X15494586Y-14390627D01*
X15494586Y-14390627D02*
X15494586Y-14409674D01*
X15494586Y-14409674D02*
X15399348Y-14428722D01*
X15570777Y-14485865D02*
X15589825Y-14495389D01*
X15589825Y-14495389D02*
X15627920Y-14495389D01*
X15627920Y-14495389D02*
X15646967Y-14485865D01*
X15646967Y-14485865D02*
X15656491Y-14466817D01*
X15656491Y-14466817D02*
X15656491Y-14457293D01*
X15656491Y-14457293D02*
X15646967Y-14438246D01*
X15646967Y-14438246D02*
X15627920Y-14428722D01*
X15627920Y-14428722D02*
X15599348Y-14428722D01*
X15599348Y-14428722D02*
X15580301Y-14419198D01*
X15580301Y-14419198D02*
X15570777Y-14400151D01*
X15570777Y-14400151D02*
X15570777Y-14390627D01*
X15570777Y-14390627D02*
X15580301Y-14371579D01*
X15580301Y-14371579D02*
X15599348Y-14362055D01*
X15599348Y-14362055D02*
X15627920Y-14362055D01*
X15627920Y-14362055D02*
X15646967Y-14371579D01*
X15723158Y-14571579D02*
X15732682Y-14562055D01*
X15732682Y-14562055D02*
X15751729Y-14533484D01*
X15751729Y-14533484D02*
X15761253Y-14514436D01*
X15761253Y-14514436D02*
X15770777Y-14485865D01*
X15770777Y-14485865D02*
X15780301Y-14438246D01*
X15780301Y-14438246D02*
X15780301Y-14400151D01*
X15780301Y-14400151D02*
X15770777Y-14352532D01*
X15770777Y-14352532D02*
X15761253Y-14323960D01*
X15761253Y-14323960D02*
X15751729Y-14304913D01*
X15751729Y-14304913D02*
X15732682Y-14276341D01*
X15732682Y-14276341D02*
X15723158Y-14266817D01*
X10848095Y-14567905D02*
X10848095Y-14767905D01*
X10748095Y-14667905D02*
X10948095Y-14667905D01*
X10948095Y-14667905D02*
G75*
G02*
X10748095Y-14667905I-100000J0D01*
G01*
X10748095Y-14667905D02*
G75*
G02*
X10948095Y-14667905I100000J0D01*
G01*
X11189824Y-14559389D02*
X11313634Y-14559389D01*
X11313634Y-14559389D02*
X11246967Y-14635579D01*
X11246967Y-14635579D02*
X11275538Y-14635579D01*
X11275538Y-14635579D02*
X11294586Y-14645103D01*
X11294586Y-14645103D02*
X11304110Y-14654627D01*
X11304110Y-14654627D02*
X11313634Y-14673674D01*
X11313634Y-14673674D02*
X11313634Y-14721293D01*
X11313634Y-14721293D02*
X11304110Y-14740341D01*
X11304110Y-14740341D02*
X11294586Y-14749865D01*
X11294586Y-14749865D02*
X11275538Y-14759389D01*
X11275538Y-14759389D02*
X11218396Y-14759389D01*
X11218396Y-14759389D02*
X11199348Y-14749865D01*
X11199348Y-14749865D02*
X11189824Y-14740341D01*
X11399348Y-14740341D02*
X11408872Y-14749865D01*
X11408872Y-14749865D02*
X11399348Y-14759389D01*
X11399348Y-14759389D02*
X11389824Y-14749865D01*
X11389824Y-14749865D02*
X11399348Y-14740341D01*
X11399348Y-14740341D02*
X11399348Y-14759389D01*
X11532681Y-14559389D02*
X11551729Y-14559389D01*
X11551729Y-14559389D02*
X11570777Y-14568913D01*
X11570777Y-14568913D02*
X11580300Y-14578436D01*
X11580300Y-14578436D02*
X11589824Y-14597484D01*
X11589824Y-14597484D02*
X11599348Y-14635579D01*
X11599348Y-14635579D02*
X11599348Y-14683198D01*
X11599348Y-14683198D02*
X11589824Y-14721293D01*
X11589824Y-14721293D02*
X11580300Y-14740341D01*
X11580300Y-14740341D02*
X11570777Y-14749865D01*
X11570777Y-14749865D02*
X11551729Y-14759389D01*
X11551729Y-14759389D02*
X11532681Y-14759389D01*
X11532681Y-14759389D02*
X11513634Y-14749865D01*
X11513634Y-14749865D02*
X11504110Y-14740341D01*
X11504110Y-14740341D02*
X11494586Y-14721293D01*
X11494586Y-14721293D02*
X11485062Y-14683198D01*
X11485062Y-14683198D02*
X11485062Y-14635579D01*
X11485062Y-14635579D02*
X11494586Y-14597484D01*
X11494586Y-14597484D02*
X11504110Y-14578436D01*
X11504110Y-14578436D02*
X11513634Y-14568913D01*
X11513634Y-14568913D02*
X11532681Y-14559389D01*
X11780300Y-14559389D02*
X11685062Y-14559389D01*
X11685062Y-14559389D02*
X11675538Y-14654627D01*
X11675538Y-14654627D02*
X11685062Y-14645103D01*
X11685062Y-14645103D02*
X11704110Y-14635579D01*
X11704110Y-14635579D02*
X11751729Y-14635579D01*
X11751729Y-14635579D02*
X11770777Y-14645103D01*
X11770777Y-14645103D02*
X11780300Y-14654627D01*
X11780300Y-14654627D02*
X11789824Y-14673674D01*
X11789824Y-14673674D02*
X11789824Y-14721293D01*
X11789824Y-14721293D02*
X11780300Y-14740341D01*
X11780300Y-14740341D02*
X11770777Y-14749865D01*
X11770777Y-14749865D02*
X11751729Y-14759389D01*
X11751729Y-14759389D02*
X11704110Y-14759389D01*
X11704110Y-14759389D02*
X11685062Y-14749865D01*
X11685062Y-14749865D02*
X11675538Y-14740341D01*
X11913634Y-14559389D02*
X11932681Y-14559389D01*
X11932681Y-14559389D02*
X11951729Y-14568913D01*
X11951729Y-14568913D02*
X11961253Y-14578436D01*
X11961253Y-14578436D02*
X11970777Y-14597484D01*
X11970777Y-14597484D02*
X11980300Y-14635579D01*
X11980300Y-14635579D02*
X11980300Y-14683198D01*
X11980300Y-14683198D02*
X11970777Y-14721293D01*
X11970777Y-14721293D02*
X11961253Y-14740341D01*
X11961253Y-14740341D02*
X11951729Y-14749865D01*
X11951729Y-14749865D02*
X11932681Y-14759389D01*
X11932681Y-14759389D02*
X11913634Y-14759389D01*
X11913634Y-14759389D02*
X11894586Y-14749865D01*
X11894586Y-14749865D02*
X11885062Y-14740341D01*
X11885062Y-14740341D02*
X11875538Y-14721293D01*
X11875538Y-14721293D02*
X11866015Y-14683198D01*
X11866015Y-14683198D02*
X11866015Y-14635579D01*
X11866015Y-14635579D02*
X11875538Y-14597484D01*
X11875538Y-14597484D02*
X11885062Y-14578436D01*
X11885062Y-14578436D02*
X11894586Y-14568913D01*
X11894586Y-14568913D02*
X11913634Y-14559389D01*
X12066015Y-14759389D02*
X12066015Y-14626055D01*
X12066015Y-14645103D02*
X12075538Y-14635579D01*
X12075538Y-14635579D02*
X12094586Y-14626055D01*
X12094586Y-14626055D02*
X12123158Y-14626055D01*
X12123158Y-14626055D02*
X12142205Y-14635579D01*
X12142205Y-14635579D02*
X12151729Y-14654627D01*
X12151729Y-14654627D02*
X12151729Y-14759389D01*
X12151729Y-14654627D02*
X12161253Y-14635579D01*
X12161253Y-14635579D02*
X12180300Y-14626055D01*
X12180300Y-14626055D02*
X12208872Y-14626055D01*
X12208872Y-14626055D02*
X12227919Y-14635579D01*
X12227919Y-14635579D02*
X12237443Y-14654627D01*
X12237443Y-14654627D02*
X12237443Y-14759389D01*
X12332681Y-14759389D02*
X12332681Y-14626055D01*
X12332681Y-14645103D02*
X12342205Y-14635579D01*
X12342205Y-14635579D02*
X12361253Y-14626055D01*
X12361253Y-14626055D02*
X12389824Y-14626055D01*
X12389824Y-14626055D02*
X12408872Y-14635579D01*
X12408872Y-14635579D02*
X12418396Y-14654627D01*
X12418396Y-14654627D02*
X12418396Y-14759389D01*
X12418396Y-14654627D02*
X12427919Y-14635579D01*
X12427919Y-14635579D02*
X12446967Y-14626055D01*
X12446967Y-14626055D02*
X12475538Y-14626055D01*
X12475538Y-14626055D02*
X12494586Y-14635579D01*
X12494586Y-14635579D02*
X12504110Y-14654627D01*
X12504110Y-14654627D02*
X12504110Y-14759389D01*
X12894586Y-14549865D02*
X12723158Y-14807008D01*
X13151729Y-14559389D02*
X13170777Y-14559389D01*
X13170777Y-14559389D02*
X13189824Y-14568913D01*
X13189824Y-14568913D02*
X13199348Y-14578436D01*
X13199348Y-14578436D02*
X13208872Y-14597484D01*
X13208872Y-14597484D02*
X13218396Y-14635579D01*
X13218396Y-14635579D02*
X13218396Y-14683198D01*
X13218396Y-14683198D02*
X13208872Y-14721293D01*
X13208872Y-14721293D02*
X13199348Y-14740341D01*
X13199348Y-14740341D02*
X13189824Y-14749865D01*
X13189824Y-14749865D02*
X13170777Y-14759389D01*
X13170777Y-14759389D02*
X13151729Y-14759389D01*
X13151729Y-14759389D02*
X13132681Y-14749865D01*
X13132681Y-14749865D02*
X13123158Y-14740341D01*
X13123158Y-14740341D02*
X13113634Y-14721293D01*
X13113634Y-14721293D02*
X13104110Y-14683198D01*
X13104110Y-14683198D02*
X13104110Y-14635579D01*
X13104110Y-14635579D02*
X13113634Y-14597484D01*
X13113634Y-14597484D02*
X13123158Y-14578436D01*
X13123158Y-14578436D02*
X13132681Y-14568913D01*
X13132681Y-14568913D02*
X13151729Y-14559389D01*
X13304110Y-14740341D02*
X13313634Y-14749865D01*
X13313634Y-14749865D02*
X13304110Y-14759389D01*
X13304110Y-14759389D02*
X13294586Y-14749865D01*
X13294586Y-14749865D02*
X13304110Y-14740341D01*
X13304110Y-14740341D02*
X13304110Y-14759389D01*
X13504110Y-14759389D02*
X13389824Y-14759389D01*
X13446967Y-14759389D02*
X13446967Y-14559389D01*
X13446967Y-14559389D02*
X13427920Y-14587960D01*
X13427920Y-14587960D02*
X13408872Y-14607008D01*
X13408872Y-14607008D02*
X13389824Y-14616532D01*
X13580301Y-14578436D02*
X13589824Y-14568913D01*
X13589824Y-14568913D02*
X13608872Y-14559389D01*
X13608872Y-14559389D02*
X13656491Y-14559389D01*
X13656491Y-14559389D02*
X13675539Y-14568913D01*
X13675539Y-14568913D02*
X13685062Y-14578436D01*
X13685062Y-14578436D02*
X13694586Y-14597484D01*
X13694586Y-14597484D02*
X13694586Y-14616532D01*
X13694586Y-14616532D02*
X13685062Y-14645103D01*
X13685062Y-14645103D02*
X13570777Y-14759389D01*
X13570777Y-14759389D02*
X13694586Y-14759389D01*
X13818396Y-14559389D02*
X13837443Y-14559389D01*
X13837443Y-14559389D02*
X13856491Y-14568913D01*
X13856491Y-14568913D02*
X13866015Y-14578436D01*
X13866015Y-14578436D02*
X13875539Y-14597484D01*
X13875539Y-14597484D02*
X13885062Y-14635579D01*
X13885062Y-14635579D02*
X13885062Y-14683198D01*
X13885062Y-14683198D02*
X13875539Y-14721293D01*
X13875539Y-14721293D02*
X13866015Y-14740341D01*
X13866015Y-14740341D02*
X13856491Y-14749865D01*
X13856491Y-14749865D02*
X13837443Y-14759389D01*
X13837443Y-14759389D02*
X13818396Y-14759389D01*
X13818396Y-14759389D02*
X13799348Y-14749865D01*
X13799348Y-14749865D02*
X13789824Y-14740341D01*
X13789824Y-14740341D02*
X13780301Y-14721293D01*
X13780301Y-14721293D02*
X13770777Y-14683198D01*
X13770777Y-14683198D02*
X13770777Y-14635579D01*
X13770777Y-14635579D02*
X13780301Y-14597484D01*
X13780301Y-14597484D02*
X13789824Y-14578436D01*
X13789824Y-14578436D02*
X13799348Y-14568913D01*
X13799348Y-14568913D02*
X13818396Y-14559389D01*
X14075539Y-14759389D02*
X13961253Y-14759389D01*
X14018396Y-14759389D02*
X14018396Y-14559389D01*
X14018396Y-14559389D02*
X13999348Y-14587960D01*
X13999348Y-14587960D02*
X13980301Y-14607008D01*
X13980301Y-14607008D02*
X13961253Y-14616532D01*
X14151729Y-14559389D02*
X14151729Y-14597484D01*
X14227920Y-14559389D02*
X14227920Y-14597484D01*
X14523158Y-14835579D02*
X14513634Y-14826055D01*
X14513634Y-14826055D02*
X14494586Y-14797484D01*
X14494586Y-14797484D02*
X14485063Y-14778436D01*
X14485063Y-14778436D02*
X14475539Y-14749865D01*
X14475539Y-14749865D02*
X14466015Y-14702246D01*
X14466015Y-14702246D02*
X14466015Y-14664151D01*
X14466015Y-14664151D02*
X14475539Y-14616532D01*
X14475539Y-14616532D02*
X14485063Y-14587960D01*
X14485063Y-14587960D02*
X14494586Y-14568913D01*
X14494586Y-14568913D02*
X14513634Y-14540341D01*
X14513634Y-14540341D02*
X14523158Y-14530817D01*
X14589824Y-14578436D02*
X14599348Y-14568913D01*
X14599348Y-14568913D02*
X14618396Y-14559389D01*
X14618396Y-14559389D02*
X14666015Y-14559389D01*
X14666015Y-14559389D02*
X14685063Y-14568913D01*
X14685063Y-14568913D02*
X14694586Y-14578436D01*
X14694586Y-14578436D02*
X14704110Y-14597484D01*
X14704110Y-14597484D02*
X14704110Y-14616532D01*
X14704110Y-14616532D02*
X14694586Y-14645103D01*
X14694586Y-14645103D02*
X14580301Y-14759389D01*
X14580301Y-14759389D02*
X14704110Y-14759389D01*
X14942205Y-14759389D02*
X14942205Y-14559389D01*
X15027920Y-14759389D02*
X15027920Y-14654627D01*
X15027920Y-14654627D02*
X15018396Y-14635579D01*
X15018396Y-14635579D02*
X14999348Y-14626055D01*
X14999348Y-14626055D02*
X14970777Y-14626055D01*
X14970777Y-14626055D02*
X14951729Y-14635579D01*
X14951729Y-14635579D02*
X14942205Y-14645103D01*
X15151729Y-14759389D02*
X15132682Y-14749865D01*
X15132682Y-14749865D02*
X15123158Y-14740341D01*
X15123158Y-14740341D02*
X15113634Y-14721293D01*
X15113634Y-14721293D02*
X15113634Y-14664151D01*
X15113634Y-14664151D02*
X15123158Y-14645103D01*
X15123158Y-14645103D02*
X15132682Y-14635579D01*
X15132682Y-14635579D02*
X15151729Y-14626055D01*
X15151729Y-14626055D02*
X15180301Y-14626055D01*
X15180301Y-14626055D02*
X15199348Y-14635579D01*
X15199348Y-14635579D02*
X15208872Y-14645103D01*
X15208872Y-14645103D02*
X15218396Y-14664151D01*
X15218396Y-14664151D02*
X15218396Y-14721293D01*
X15218396Y-14721293D02*
X15208872Y-14740341D01*
X15208872Y-14740341D02*
X15199348Y-14749865D01*
X15199348Y-14749865D02*
X15180301Y-14759389D01*
X15180301Y-14759389D02*
X15151729Y-14759389D01*
X15332682Y-14759389D02*
X15313634Y-14749865D01*
X15313634Y-14749865D02*
X15304110Y-14730817D01*
X15304110Y-14730817D02*
X15304110Y-14559389D01*
X15485063Y-14749865D02*
X15466015Y-14759389D01*
X15466015Y-14759389D02*
X15427920Y-14759389D01*
X15427920Y-14759389D02*
X15408872Y-14749865D01*
X15408872Y-14749865D02*
X15399348Y-14730817D01*
X15399348Y-14730817D02*
X15399348Y-14654627D01*
X15399348Y-14654627D02*
X15408872Y-14635579D01*
X15408872Y-14635579D02*
X15427920Y-14626055D01*
X15427920Y-14626055D02*
X15466015Y-14626055D01*
X15466015Y-14626055D02*
X15485063Y-14635579D01*
X15485063Y-14635579D02*
X15494586Y-14654627D01*
X15494586Y-14654627D02*
X15494586Y-14673674D01*
X15494586Y-14673674D02*
X15399348Y-14692722D01*
X15570777Y-14749865D02*
X15589825Y-14759389D01*
X15589825Y-14759389D02*
X15627920Y-14759389D01*
X15627920Y-14759389D02*
X15646967Y-14749865D01*
X15646967Y-14749865D02*
X15656491Y-14730817D01*
X15656491Y-14730817D02*
X15656491Y-14721293D01*
X15656491Y-14721293D02*
X15646967Y-14702246D01*
X15646967Y-14702246D02*
X15627920Y-14692722D01*
X15627920Y-14692722D02*
X15599348Y-14692722D01*
X15599348Y-14692722D02*
X15580301Y-14683198D01*
X15580301Y-14683198D02*
X15570777Y-14664151D01*
X15570777Y-14664151D02*
X15570777Y-14654627D01*
X15570777Y-14654627D02*
X15580301Y-14635579D01*
X15580301Y-14635579D02*
X15599348Y-14626055D01*
X15599348Y-14626055D02*
X15627920Y-14626055D01*
X15627920Y-14626055D02*
X15646967Y-14635579D01*
X15723158Y-14835579D02*
X15732682Y-14826055D01*
X15732682Y-14826055D02*
X15751729Y-14797484D01*
X15751729Y-14797484D02*
X15761253Y-14778436D01*
X15761253Y-14778436D02*
X15770777Y-14749865D01*
X15770777Y-14749865D02*
X15780301Y-14702246D01*
X15780301Y-14702246D02*
X15780301Y-14664151D01*
X15780301Y-14664151D02*
X15770777Y-14616532D01*
X15770777Y-14616532D02*
X15761253Y-14587960D01*
X15761253Y-14587960D02*
X15751729Y-14568913D01*
X15751729Y-14568913D02*
X15732682Y-14540341D01*
X15732682Y-14540341D02*
X15723158Y-14530817D01*
X10918806Y-15058616D02*
X10918806Y-14917194D01*
X10777384Y-14917194D01*
X10777384Y-15058616D01*
X10918806Y-15058616D01*
X10948095Y-14987905D02*
G75*
G02*
X10748095Y-14987905I-100000J0D01*
G01*
X10748095Y-14987905D02*
G75*
G02*
X10948095Y-14987905I100000J0D01*
G01*
X11189824Y-14879389D02*
X11313634Y-14879389D01*
X11313634Y-14879389D02*
X11246967Y-14955579D01*
X11246967Y-14955579D02*
X11275538Y-14955579D01*
X11275538Y-14955579D02*
X11294586Y-14965103D01*
X11294586Y-14965103D02*
X11304110Y-14974627D01*
X11304110Y-14974627D02*
X11313634Y-14993674D01*
X11313634Y-14993674D02*
X11313634Y-15041293D01*
X11313634Y-15041293D02*
X11304110Y-15060341D01*
X11304110Y-15060341D02*
X11294586Y-15069865D01*
X11294586Y-15069865D02*
X11275538Y-15079389D01*
X11275538Y-15079389D02*
X11218396Y-15079389D01*
X11218396Y-15079389D02*
X11199348Y-15069865D01*
X11199348Y-15069865D02*
X11189824Y-15060341D01*
X11399348Y-15060341D02*
X11408872Y-15069865D01*
X11408872Y-15069865D02*
X11399348Y-15079389D01*
X11399348Y-15079389D02*
X11389824Y-15069865D01*
X11389824Y-15069865D02*
X11399348Y-15060341D01*
X11399348Y-15060341D02*
X11399348Y-15079389D01*
X11485062Y-14898436D02*
X11494586Y-14888913D01*
X11494586Y-14888913D02*
X11513634Y-14879389D01*
X11513634Y-14879389D02*
X11561253Y-14879389D01*
X11561253Y-14879389D02*
X11580300Y-14888913D01*
X11580300Y-14888913D02*
X11589824Y-14898436D01*
X11589824Y-14898436D02*
X11599348Y-14917484D01*
X11599348Y-14917484D02*
X11599348Y-14936532D01*
X11599348Y-14936532D02*
X11589824Y-14965103D01*
X11589824Y-14965103D02*
X11475538Y-15079389D01*
X11475538Y-15079389D02*
X11599348Y-15079389D01*
X11723157Y-14879389D02*
X11742205Y-14879389D01*
X11742205Y-14879389D02*
X11761253Y-14888913D01*
X11761253Y-14888913D02*
X11770777Y-14898436D01*
X11770777Y-14898436D02*
X11780300Y-14917484D01*
X11780300Y-14917484D02*
X11789824Y-14955579D01*
X11789824Y-14955579D02*
X11789824Y-15003198D01*
X11789824Y-15003198D02*
X11780300Y-15041293D01*
X11780300Y-15041293D02*
X11770777Y-15060341D01*
X11770777Y-15060341D02*
X11761253Y-15069865D01*
X11761253Y-15069865D02*
X11742205Y-15079389D01*
X11742205Y-15079389D02*
X11723157Y-15079389D01*
X11723157Y-15079389D02*
X11704110Y-15069865D01*
X11704110Y-15069865D02*
X11694586Y-15060341D01*
X11694586Y-15060341D02*
X11685062Y-15041293D01*
X11685062Y-15041293D02*
X11675538Y-15003198D01*
X11675538Y-15003198D02*
X11675538Y-14955579D01*
X11675538Y-14955579D02*
X11685062Y-14917484D01*
X11685062Y-14917484D02*
X11694586Y-14898436D01*
X11694586Y-14898436D02*
X11704110Y-14888913D01*
X11704110Y-14888913D02*
X11723157Y-14879389D01*
X11913634Y-14879389D02*
X11932681Y-14879389D01*
X11932681Y-14879389D02*
X11951729Y-14888913D01*
X11951729Y-14888913D02*
X11961253Y-14898436D01*
X11961253Y-14898436D02*
X11970777Y-14917484D01*
X11970777Y-14917484D02*
X11980300Y-14955579D01*
X11980300Y-14955579D02*
X11980300Y-15003198D01*
X11980300Y-15003198D02*
X11970777Y-15041293D01*
X11970777Y-15041293D02*
X11961253Y-15060341D01*
X11961253Y-15060341D02*
X11951729Y-15069865D01*
X11951729Y-15069865D02*
X11932681Y-15079389D01*
X11932681Y-15079389D02*
X11913634Y-15079389D01*
X11913634Y-15079389D02*
X11894586Y-15069865D01*
X11894586Y-15069865D02*
X11885062Y-15060341D01*
X11885062Y-15060341D02*
X11875538Y-15041293D01*
X11875538Y-15041293D02*
X11866015Y-15003198D01*
X11866015Y-15003198D02*
X11866015Y-14955579D01*
X11866015Y-14955579D02*
X11875538Y-14917484D01*
X11875538Y-14917484D02*
X11885062Y-14898436D01*
X11885062Y-14898436D02*
X11894586Y-14888913D01*
X11894586Y-14888913D02*
X11913634Y-14879389D01*
X12066015Y-15079389D02*
X12066015Y-14946055D01*
X12066015Y-14965103D02*
X12075538Y-14955579D01*
X12075538Y-14955579D02*
X12094586Y-14946055D01*
X12094586Y-14946055D02*
X12123158Y-14946055D01*
X12123158Y-14946055D02*
X12142205Y-14955579D01*
X12142205Y-14955579D02*
X12151729Y-14974627D01*
X12151729Y-14974627D02*
X12151729Y-15079389D01*
X12151729Y-14974627D02*
X12161253Y-14955579D01*
X12161253Y-14955579D02*
X12180300Y-14946055D01*
X12180300Y-14946055D02*
X12208872Y-14946055D01*
X12208872Y-14946055D02*
X12227919Y-14955579D01*
X12227919Y-14955579D02*
X12237443Y-14974627D01*
X12237443Y-14974627D02*
X12237443Y-15079389D01*
X12332681Y-15079389D02*
X12332681Y-14946055D01*
X12332681Y-14965103D02*
X12342205Y-14955579D01*
X12342205Y-14955579D02*
X12361253Y-14946055D01*
X12361253Y-14946055D02*
X12389824Y-14946055D01*
X12389824Y-14946055D02*
X12408872Y-14955579D01*
X12408872Y-14955579D02*
X12418396Y-14974627D01*
X12418396Y-14974627D02*
X12418396Y-15079389D01*
X12418396Y-14974627D02*
X12427919Y-14955579D01*
X12427919Y-14955579D02*
X12446967Y-14946055D01*
X12446967Y-14946055D02*
X12475538Y-14946055D01*
X12475538Y-14946055D02*
X12494586Y-14955579D01*
X12494586Y-14955579D02*
X12504110Y-14974627D01*
X12504110Y-14974627D02*
X12504110Y-15079389D01*
X12894586Y-14869865D02*
X12723158Y-15127008D01*
X13151729Y-14879389D02*
X13170777Y-14879389D01*
X13170777Y-14879389D02*
X13189824Y-14888913D01*
X13189824Y-14888913D02*
X13199348Y-14898436D01*
X13199348Y-14898436D02*
X13208872Y-14917484D01*
X13208872Y-14917484D02*
X13218396Y-14955579D01*
X13218396Y-14955579D02*
X13218396Y-15003198D01*
X13218396Y-15003198D02*
X13208872Y-15041293D01*
X13208872Y-15041293D02*
X13199348Y-15060341D01*
X13199348Y-15060341D02*
X13189824Y-15069865D01*
X13189824Y-15069865D02*
X13170777Y-15079389D01*
X13170777Y-15079389D02*
X13151729Y-15079389D01*
X13151729Y-15079389D02*
X13132681Y-15069865D01*
X13132681Y-15069865D02*
X13123158Y-15060341D01*
X13123158Y-15060341D02*
X13113634Y-15041293D01*
X13113634Y-15041293D02*
X13104110Y-15003198D01*
X13104110Y-15003198D02*
X13104110Y-14955579D01*
X13104110Y-14955579D02*
X13113634Y-14917484D01*
X13113634Y-14917484D02*
X13123158Y-14898436D01*
X13123158Y-14898436D02*
X13132681Y-14888913D01*
X13132681Y-14888913D02*
X13151729Y-14879389D01*
X13304110Y-15060341D02*
X13313634Y-15069865D01*
X13313634Y-15069865D02*
X13304110Y-15079389D01*
X13304110Y-15079389D02*
X13294586Y-15069865D01*
X13294586Y-15069865D02*
X13304110Y-15060341D01*
X13304110Y-15060341D02*
X13304110Y-15079389D01*
X13504110Y-15079389D02*
X13389824Y-15079389D01*
X13446967Y-15079389D02*
X13446967Y-14879389D01*
X13446967Y-14879389D02*
X13427920Y-14907960D01*
X13427920Y-14907960D02*
X13408872Y-14927008D01*
X13408872Y-14927008D02*
X13389824Y-14936532D01*
X13580301Y-14898436D02*
X13589824Y-14888913D01*
X13589824Y-14888913D02*
X13608872Y-14879389D01*
X13608872Y-14879389D02*
X13656491Y-14879389D01*
X13656491Y-14879389D02*
X13675539Y-14888913D01*
X13675539Y-14888913D02*
X13685062Y-14898436D01*
X13685062Y-14898436D02*
X13694586Y-14917484D01*
X13694586Y-14917484D02*
X13694586Y-14936532D01*
X13694586Y-14936532D02*
X13685062Y-14965103D01*
X13685062Y-14965103D02*
X13570777Y-15079389D01*
X13570777Y-15079389D02*
X13694586Y-15079389D01*
X13866015Y-14879389D02*
X13827920Y-14879389D01*
X13827920Y-14879389D02*
X13808872Y-14888913D01*
X13808872Y-14888913D02*
X13799348Y-14898436D01*
X13799348Y-14898436D02*
X13780301Y-14927008D01*
X13780301Y-14927008D02*
X13770777Y-14965103D01*
X13770777Y-14965103D02*
X13770777Y-15041293D01*
X13770777Y-15041293D02*
X13780301Y-15060341D01*
X13780301Y-15060341D02*
X13789824Y-15069865D01*
X13789824Y-15069865D02*
X13808872Y-15079389D01*
X13808872Y-15079389D02*
X13846967Y-15079389D01*
X13846967Y-15079389D02*
X13866015Y-15069865D01*
X13866015Y-15069865D02*
X13875539Y-15060341D01*
X13875539Y-15060341D02*
X13885062Y-15041293D01*
X13885062Y-15041293D02*
X13885062Y-14993674D01*
X13885062Y-14993674D02*
X13875539Y-14974627D01*
X13875539Y-14974627D02*
X13866015Y-14965103D01*
X13866015Y-14965103D02*
X13846967Y-14955579D01*
X13846967Y-14955579D02*
X13808872Y-14955579D01*
X13808872Y-14955579D02*
X13789824Y-14965103D01*
X13789824Y-14965103D02*
X13780301Y-14974627D01*
X13780301Y-14974627D02*
X13770777Y-14993674D01*
X14008872Y-14879389D02*
X14027920Y-14879389D01*
X14027920Y-14879389D02*
X14046967Y-14888913D01*
X14046967Y-14888913D02*
X14056491Y-14898436D01*
X14056491Y-14898436D02*
X14066015Y-14917484D01*
X14066015Y-14917484D02*
X14075539Y-14955579D01*
X14075539Y-14955579D02*
X14075539Y-15003198D01*
X14075539Y-15003198D02*
X14066015Y-15041293D01*
X14066015Y-15041293D02*
X14056491Y-15060341D01*
X14056491Y-15060341D02*
X14046967Y-15069865D01*
X14046967Y-15069865D02*
X14027920Y-15079389D01*
X14027920Y-15079389D02*
X14008872Y-15079389D01*
X14008872Y-15079389D02*
X13989824Y-15069865D01*
X13989824Y-15069865D02*
X13980301Y-15060341D01*
X13980301Y-15060341D02*
X13970777Y-15041293D01*
X13970777Y-15041293D02*
X13961253Y-15003198D01*
X13961253Y-15003198D02*
X13961253Y-14955579D01*
X13961253Y-14955579D02*
X13970777Y-14917484D01*
X13970777Y-14917484D02*
X13980301Y-14898436D01*
X13980301Y-14898436D02*
X13989824Y-14888913D01*
X13989824Y-14888913D02*
X14008872Y-14879389D01*
X14151729Y-14879389D02*
X14151729Y-14917484D01*
X14227920Y-14879389D02*
X14227920Y-14917484D01*
X14523158Y-15155579D02*
X14513634Y-15146055D01*
X14513634Y-15146055D02*
X14494586Y-15117484D01*
X14494586Y-15117484D02*
X14485063Y-15098436D01*
X14485063Y-15098436D02*
X14475539Y-15069865D01*
X14475539Y-15069865D02*
X14466015Y-15022246D01*
X14466015Y-15022246D02*
X14466015Y-14984151D01*
X14466015Y-14984151D02*
X14475539Y-14936532D01*
X14475539Y-14936532D02*
X14485063Y-14907960D01*
X14485063Y-14907960D02*
X14494586Y-14888913D01*
X14494586Y-14888913D02*
X14513634Y-14860341D01*
X14513634Y-14860341D02*
X14523158Y-14850817D01*
X14580301Y-14879389D02*
X14704110Y-14879389D01*
X14704110Y-14879389D02*
X14637443Y-14955579D01*
X14637443Y-14955579D02*
X14666015Y-14955579D01*
X14666015Y-14955579D02*
X14685063Y-14965103D01*
X14685063Y-14965103D02*
X14694586Y-14974627D01*
X14694586Y-14974627D02*
X14704110Y-14993674D01*
X14704110Y-14993674D02*
X14704110Y-15041293D01*
X14704110Y-15041293D02*
X14694586Y-15060341D01*
X14694586Y-15060341D02*
X14685063Y-15069865D01*
X14685063Y-15069865D02*
X14666015Y-15079389D01*
X14666015Y-15079389D02*
X14608872Y-15079389D01*
X14608872Y-15079389D02*
X14589824Y-15069865D01*
X14589824Y-15069865D02*
X14580301Y-15060341D01*
X14942205Y-15079389D02*
X14942205Y-14879389D01*
X15027920Y-15079389D02*
X15027920Y-14974627D01*
X15027920Y-14974627D02*
X15018396Y-14955579D01*
X15018396Y-14955579D02*
X14999348Y-14946055D01*
X14999348Y-14946055D02*
X14970777Y-14946055D01*
X14970777Y-14946055D02*
X14951729Y-14955579D01*
X14951729Y-14955579D02*
X14942205Y-14965103D01*
X15151729Y-15079389D02*
X15132682Y-15069865D01*
X15132682Y-15069865D02*
X15123158Y-15060341D01*
X15123158Y-15060341D02*
X15113634Y-15041293D01*
X15113634Y-15041293D02*
X15113634Y-14984151D01*
X15113634Y-14984151D02*
X15123158Y-14965103D01*
X15123158Y-14965103D02*
X15132682Y-14955579D01*
X15132682Y-14955579D02*
X15151729Y-14946055D01*
X15151729Y-14946055D02*
X15180301Y-14946055D01*
X15180301Y-14946055D02*
X15199348Y-14955579D01*
X15199348Y-14955579D02*
X15208872Y-14965103D01*
X15208872Y-14965103D02*
X15218396Y-14984151D01*
X15218396Y-14984151D02*
X15218396Y-15041293D01*
X15218396Y-15041293D02*
X15208872Y-15060341D01*
X15208872Y-15060341D02*
X15199348Y-15069865D01*
X15199348Y-15069865D02*
X15180301Y-15079389D01*
X15180301Y-15079389D02*
X15151729Y-15079389D01*
X15332682Y-15079389D02*
X15313634Y-15069865D01*
X15313634Y-15069865D02*
X15304110Y-15050817D01*
X15304110Y-15050817D02*
X15304110Y-14879389D01*
X15485063Y-15069865D02*
X15466015Y-15079389D01*
X15466015Y-15079389D02*
X15427920Y-15079389D01*
X15427920Y-15079389D02*
X15408872Y-15069865D01*
X15408872Y-15069865D02*
X15399348Y-15050817D01*
X15399348Y-15050817D02*
X15399348Y-14974627D01*
X15399348Y-14974627D02*
X15408872Y-14955579D01*
X15408872Y-14955579D02*
X15427920Y-14946055D01*
X15427920Y-14946055D02*
X15466015Y-14946055D01*
X15466015Y-14946055D02*
X15485063Y-14955579D01*
X15485063Y-14955579D02*
X15494586Y-14974627D01*
X15494586Y-14974627D02*
X15494586Y-14993674D01*
X15494586Y-14993674D02*
X15399348Y-15012722D01*
X15570777Y-15069865D02*
X15589825Y-15079389D01*
X15589825Y-15079389D02*
X15627920Y-15079389D01*
X15627920Y-15079389D02*
X15646967Y-15069865D01*
X15646967Y-15069865D02*
X15656491Y-15050817D01*
X15656491Y-15050817D02*
X15656491Y-15041293D01*
X15656491Y-15041293D02*
X15646967Y-15022246D01*
X15646967Y-15022246D02*
X15627920Y-15012722D01*
X15627920Y-15012722D02*
X15599348Y-15012722D01*
X15599348Y-15012722D02*
X15580301Y-15003198D01*
X15580301Y-15003198D02*
X15570777Y-14984151D01*
X15570777Y-14984151D02*
X15570777Y-14974627D01*
X15570777Y-14974627D02*
X15580301Y-14955579D01*
X15580301Y-14955579D02*
X15599348Y-14946055D01*
X15599348Y-14946055D02*
X15627920Y-14946055D01*
X15627920Y-14946055D02*
X15646967Y-14955579D01*
X15723158Y-15155579D02*
X15732682Y-15146055D01*
X15732682Y-15146055D02*
X15751729Y-15117484D01*
X15751729Y-15117484D02*
X15761253Y-15098436D01*
X15761253Y-15098436D02*
X15770777Y-15069865D01*
X15770777Y-15069865D02*
X15780301Y-15022246D01*
X15780301Y-15022246D02*
X15780301Y-14984151D01*
X15780301Y-14984151D02*
X15770777Y-14936532D01*
X15770777Y-14936532D02*
X15761253Y-14907960D01*
X15761253Y-14907960D02*
X15751729Y-14888913D01*
X15751729Y-14888913D02*
X15732682Y-14860341D01*
X15732682Y-14860341D02*
X15723158Y-14850817D01*
D18*
X10868095Y-15387905D02*
X10948095Y-15307905D01*
X10868095Y-15227905D01*
X10788095Y-15307905D01*
X10868095Y-15387905D01*
X10948095Y-15307905D02*
G75*
G02*
X10788095Y-15307905I-80000J0D01*
G01*
X10788095Y-15307905D02*
G75*
G02*
X10948095Y-15307905I80000J0D01*
G01*
D11*
X11313634Y-15399389D02*
X11199348Y-15399389D01*
X11256491Y-15399389D02*
X11256491Y-15199389D01*
X11256491Y-15199389D02*
X11237443Y-15227960D01*
X11237443Y-15227960D02*
X11218396Y-15247008D01*
X11218396Y-15247008D02*
X11199348Y-15256532D01*
X11399348Y-15380341D02*
X11408872Y-15389865D01*
X11408872Y-15389865D02*
X11399348Y-15399389D01*
X11399348Y-15399389D02*
X11389824Y-15389865D01*
X11389824Y-15389865D02*
X11399348Y-15380341D01*
X11399348Y-15380341D02*
X11399348Y-15399389D01*
X11580300Y-15199389D02*
X11542205Y-15199389D01*
X11542205Y-15199389D02*
X11523157Y-15208913D01*
X11523157Y-15208913D02*
X11513634Y-15218436D01*
X11513634Y-15218436D02*
X11494586Y-15247008D01*
X11494586Y-15247008D02*
X11485062Y-15285103D01*
X11485062Y-15285103D02*
X11485062Y-15361293D01*
X11485062Y-15361293D02*
X11494586Y-15380341D01*
X11494586Y-15380341D02*
X11504110Y-15389865D01*
X11504110Y-15389865D02*
X11523157Y-15399389D01*
X11523157Y-15399389D02*
X11561253Y-15399389D01*
X11561253Y-15399389D02*
X11580300Y-15389865D01*
X11580300Y-15389865D02*
X11589824Y-15380341D01*
X11589824Y-15380341D02*
X11599348Y-15361293D01*
X11599348Y-15361293D02*
X11599348Y-15313674D01*
X11599348Y-15313674D02*
X11589824Y-15294627D01*
X11589824Y-15294627D02*
X11580300Y-15285103D01*
X11580300Y-15285103D02*
X11561253Y-15275579D01*
X11561253Y-15275579D02*
X11523157Y-15275579D01*
X11523157Y-15275579D02*
X11504110Y-15285103D01*
X11504110Y-15285103D02*
X11494586Y-15294627D01*
X11494586Y-15294627D02*
X11485062Y-15313674D01*
X11723157Y-15199389D02*
X11742205Y-15199389D01*
X11742205Y-15199389D02*
X11761253Y-15208913D01*
X11761253Y-15208913D02*
X11770777Y-15218436D01*
X11770777Y-15218436D02*
X11780300Y-15237484D01*
X11780300Y-15237484D02*
X11789824Y-15275579D01*
X11789824Y-15275579D02*
X11789824Y-15323198D01*
X11789824Y-15323198D02*
X11780300Y-15361293D01*
X11780300Y-15361293D02*
X11770777Y-15380341D01*
X11770777Y-15380341D02*
X11761253Y-15389865D01*
X11761253Y-15389865D02*
X11742205Y-15399389D01*
X11742205Y-15399389D02*
X11723157Y-15399389D01*
X11723157Y-15399389D02*
X11704110Y-15389865D01*
X11704110Y-15389865D02*
X11694586Y-15380341D01*
X11694586Y-15380341D02*
X11685062Y-15361293D01*
X11685062Y-15361293D02*
X11675538Y-15323198D01*
X11675538Y-15323198D02*
X11675538Y-15275579D01*
X11675538Y-15275579D02*
X11685062Y-15237484D01*
X11685062Y-15237484D02*
X11694586Y-15218436D01*
X11694586Y-15218436D02*
X11704110Y-15208913D01*
X11704110Y-15208913D02*
X11723157Y-15199389D01*
X11913634Y-15199389D02*
X11932681Y-15199389D01*
X11932681Y-15199389D02*
X11951729Y-15208913D01*
X11951729Y-15208913D02*
X11961253Y-15218436D01*
X11961253Y-15218436D02*
X11970777Y-15237484D01*
X11970777Y-15237484D02*
X11980300Y-15275579D01*
X11980300Y-15275579D02*
X11980300Y-15323198D01*
X11980300Y-15323198D02*
X11970777Y-15361293D01*
X11970777Y-15361293D02*
X11961253Y-15380341D01*
X11961253Y-15380341D02*
X11951729Y-15389865D01*
X11951729Y-15389865D02*
X11932681Y-15399389D01*
X11932681Y-15399389D02*
X11913634Y-15399389D01*
X11913634Y-15399389D02*
X11894586Y-15389865D01*
X11894586Y-15389865D02*
X11885062Y-15380341D01*
X11885062Y-15380341D02*
X11875538Y-15361293D01*
X11875538Y-15361293D02*
X11866015Y-15323198D01*
X11866015Y-15323198D02*
X11866015Y-15275579D01*
X11866015Y-15275579D02*
X11875538Y-15237484D01*
X11875538Y-15237484D02*
X11885062Y-15218436D01*
X11885062Y-15218436D02*
X11894586Y-15208913D01*
X11894586Y-15208913D02*
X11913634Y-15199389D01*
X12066015Y-15399389D02*
X12066015Y-15266055D01*
X12066015Y-15285103D02*
X12075538Y-15275579D01*
X12075538Y-15275579D02*
X12094586Y-15266055D01*
X12094586Y-15266055D02*
X12123158Y-15266055D01*
X12123158Y-15266055D02*
X12142205Y-15275579D01*
X12142205Y-15275579D02*
X12151729Y-15294627D01*
X12151729Y-15294627D02*
X12151729Y-15399389D01*
X12151729Y-15294627D02*
X12161253Y-15275579D01*
X12161253Y-15275579D02*
X12180300Y-15266055D01*
X12180300Y-15266055D02*
X12208872Y-15266055D01*
X12208872Y-15266055D02*
X12227919Y-15275579D01*
X12227919Y-15275579D02*
X12237443Y-15294627D01*
X12237443Y-15294627D02*
X12237443Y-15399389D01*
X12332681Y-15399389D02*
X12332681Y-15266055D01*
X12332681Y-15285103D02*
X12342205Y-15275579D01*
X12342205Y-15275579D02*
X12361253Y-15266055D01*
X12361253Y-15266055D02*
X12389824Y-15266055D01*
X12389824Y-15266055D02*
X12408872Y-15275579D01*
X12408872Y-15275579D02*
X12418396Y-15294627D01*
X12418396Y-15294627D02*
X12418396Y-15399389D01*
X12418396Y-15294627D02*
X12427919Y-15275579D01*
X12427919Y-15275579D02*
X12446967Y-15266055D01*
X12446967Y-15266055D02*
X12475538Y-15266055D01*
X12475538Y-15266055D02*
X12494586Y-15275579D01*
X12494586Y-15275579D02*
X12504110Y-15294627D01*
X12504110Y-15294627D02*
X12504110Y-15399389D01*
X12894586Y-15189865D02*
X12723158Y-15447008D01*
X13151729Y-15199389D02*
X13170777Y-15199389D01*
X13170777Y-15199389D02*
X13189824Y-15208913D01*
X13189824Y-15208913D02*
X13199348Y-15218436D01*
X13199348Y-15218436D02*
X13208872Y-15237484D01*
X13208872Y-15237484D02*
X13218396Y-15275579D01*
X13218396Y-15275579D02*
X13218396Y-15323198D01*
X13218396Y-15323198D02*
X13208872Y-15361293D01*
X13208872Y-15361293D02*
X13199348Y-15380341D01*
X13199348Y-15380341D02*
X13189824Y-15389865D01*
X13189824Y-15389865D02*
X13170777Y-15399389D01*
X13170777Y-15399389D02*
X13151729Y-15399389D01*
X13151729Y-15399389D02*
X13132681Y-15389865D01*
X13132681Y-15389865D02*
X13123158Y-15380341D01*
X13123158Y-15380341D02*
X13113634Y-15361293D01*
X13113634Y-15361293D02*
X13104110Y-15323198D01*
X13104110Y-15323198D02*
X13104110Y-15275579D01*
X13104110Y-15275579D02*
X13113634Y-15237484D01*
X13113634Y-15237484D02*
X13123158Y-15218436D01*
X13123158Y-15218436D02*
X13132681Y-15208913D01*
X13132681Y-15208913D02*
X13151729Y-15199389D01*
X13304110Y-15380341D02*
X13313634Y-15389865D01*
X13313634Y-15389865D02*
X13304110Y-15399389D01*
X13304110Y-15399389D02*
X13294586Y-15389865D01*
X13294586Y-15389865D02*
X13304110Y-15380341D01*
X13304110Y-15380341D02*
X13304110Y-15399389D01*
X13437443Y-15199389D02*
X13456491Y-15199389D01*
X13456491Y-15199389D02*
X13475539Y-15208913D01*
X13475539Y-15208913D02*
X13485062Y-15218436D01*
X13485062Y-15218436D02*
X13494586Y-15237484D01*
X13494586Y-15237484D02*
X13504110Y-15275579D01*
X13504110Y-15275579D02*
X13504110Y-15323198D01*
X13504110Y-15323198D02*
X13494586Y-15361293D01*
X13494586Y-15361293D02*
X13485062Y-15380341D01*
X13485062Y-15380341D02*
X13475539Y-15389865D01*
X13475539Y-15389865D02*
X13456491Y-15399389D01*
X13456491Y-15399389D02*
X13437443Y-15399389D01*
X13437443Y-15399389D02*
X13418396Y-15389865D01*
X13418396Y-15389865D02*
X13408872Y-15380341D01*
X13408872Y-15380341D02*
X13399348Y-15361293D01*
X13399348Y-15361293D02*
X13389824Y-15323198D01*
X13389824Y-15323198D02*
X13389824Y-15275579D01*
X13389824Y-15275579D02*
X13399348Y-15237484D01*
X13399348Y-15237484D02*
X13408872Y-15218436D01*
X13408872Y-15218436D02*
X13418396Y-15208913D01*
X13418396Y-15208913D02*
X13437443Y-15199389D01*
X13675539Y-15199389D02*
X13637443Y-15199389D01*
X13637443Y-15199389D02*
X13618396Y-15208913D01*
X13618396Y-15208913D02*
X13608872Y-15218436D01*
X13608872Y-15218436D02*
X13589824Y-15247008D01*
X13589824Y-15247008D02*
X13580301Y-15285103D01*
X13580301Y-15285103D02*
X13580301Y-15361293D01*
X13580301Y-15361293D02*
X13589824Y-15380341D01*
X13589824Y-15380341D02*
X13599348Y-15389865D01*
X13599348Y-15389865D02*
X13618396Y-15399389D01*
X13618396Y-15399389D02*
X13656491Y-15399389D01*
X13656491Y-15399389D02*
X13675539Y-15389865D01*
X13675539Y-15389865D02*
X13685062Y-15380341D01*
X13685062Y-15380341D02*
X13694586Y-15361293D01*
X13694586Y-15361293D02*
X13694586Y-15313674D01*
X13694586Y-15313674D02*
X13685062Y-15294627D01*
X13685062Y-15294627D02*
X13675539Y-15285103D01*
X13675539Y-15285103D02*
X13656491Y-15275579D01*
X13656491Y-15275579D02*
X13618396Y-15275579D01*
X13618396Y-15275579D02*
X13599348Y-15285103D01*
X13599348Y-15285103D02*
X13589824Y-15294627D01*
X13589824Y-15294627D02*
X13580301Y-15313674D01*
X13761253Y-15199389D02*
X13885062Y-15199389D01*
X13885062Y-15199389D02*
X13818396Y-15275579D01*
X13818396Y-15275579D02*
X13846967Y-15275579D01*
X13846967Y-15275579D02*
X13866015Y-15285103D01*
X13866015Y-15285103D02*
X13875539Y-15294627D01*
X13875539Y-15294627D02*
X13885062Y-15313674D01*
X13885062Y-15313674D02*
X13885062Y-15361293D01*
X13885062Y-15361293D02*
X13875539Y-15380341D01*
X13875539Y-15380341D02*
X13866015Y-15389865D01*
X13866015Y-15389865D02*
X13846967Y-15399389D01*
X13846967Y-15399389D02*
X13789824Y-15399389D01*
X13789824Y-15399389D02*
X13770777Y-15389865D01*
X13770777Y-15389865D02*
X13761253Y-15380341D01*
X14008872Y-15199389D02*
X14027920Y-15199389D01*
X14027920Y-15199389D02*
X14046967Y-15208913D01*
X14046967Y-15208913D02*
X14056491Y-15218436D01*
X14056491Y-15218436D02*
X14066015Y-15237484D01*
X14066015Y-15237484D02*
X14075539Y-15275579D01*
X14075539Y-15275579D02*
X14075539Y-15323198D01*
X14075539Y-15323198D02*
X14066015Y-15361293D01*
X14066015Y-15361293D02*
X14056491Y-15380341D01*
X14056491Y-15380341D02*
X14046967Y-15389865D01*
X14046967Y-15389865D02*
X14027920Y-15399389D01*
X14027920Y-15399389D02*
X14008872Y-15399389D01*
X14008872Y-15399389D02*
X13989824Y-15389865D01*
X13989824Y-15389865D02*
X13980301Y-15380341D01*
X13980301Y-15380341D02*
X13970777Y-15361293D01*
X13970777Y-15361293D02*
X13961253Y-15323198D01*
X13961253Y-15323198D02*
X13961253Y-15275579D01*
X13961253Y-15275579D02*
X13970777Y-15237484D01*
X13970777Y-15237484D02*
X13980301Y-15218436D01*
X13980301Y-15218436D02*
X13989824Y-15208913D01*
X13989824Y-15208913D02*
X14008872Y-15199389D01*
X14151729Y-15199389D02*
X14151729Y-15237484D01*
X14227920Y-15199389D02*
X14227920Y-15237484D01*
X14523158Y-15475579D02*
X14513634Y-15466055D01*
X14513634Y-15466055D02*
X14494586Y-15437484D01*
X14494586Y-15437484D02*
X14485063Y-15418436D01*
X14485063Y-15418436D02*
X14475539Y-15389865D01*
X14475539Y-15389865D02*
X14466015Y-15342246D01*
X14466015Y-15342246D02*
X14466015Y-15304151D01*
X14466015Y-15304151D02*
X14475539Y-15256532D01*
X14475539Y-15256532D02*
X14485063Y-15227960D01*
X14485063Y-15227960D02*
X14494586Y-15208913D01*
X14494586Y-15208913D02*
X14513634Y-15180341D01*
X14513634Y-15180341D02*
X14523158Y-15170817D01*
X14704110Y-15399389D02*
X14589824Y-15399389D01*
X14646967Y-15399389D02*
X14646967Y-15199389D01*
X14646967Y-15199389D02*
X14627920Y-15227960D01*
X14627920Y-15227960D02*
X14608872Y-15247008D01*
X14608872Y-15247008D02*
X14589824Y-15256532D01*
X14942205Y-15399389D02*
X14942205Y-15199389D01*
X15027920Y-15399389D02*
X15027920Y-15294627D01*
X15027920Y-15294627D02*
X15018396Y-15275579D01*
X15018396Y-15275579D02*
X14999348Y-15266055D01*
X14999348Y-15266055D02*
X14970777Y-15266055D01*
X14970777Y-15266055D02*
X14951729Y-15275579D01*
X14951729Y-15275579D02*
X14942205Y-15285103D01*
X15151729Y-15399389D02*
X15132682Y-15389865D01*
X15132682Y-15389865D02*
X15123158Y-15380341D01*
X15123158Y-15380341D02*
X15113634Y-15361293D01*
X15113634Y-15361293D02*
X15113634Y-15304151D01*
X15113634Y-15304151D02*
X15123158Y-15285103D01*
X15123158Y-15285103D02*
X15132682Y-15275579D01*
X15132682Y-15275579D02*
X15151729Y-15266055D01*
X15151729Y-15266055D02*
X15180301Y-15266055D01*
X15180301Y-15266055D02*
X15199348Y-15275579D01*
X15199348Y-15275579D02*
X15208872Y-15285103D01*
X15208872Y-15285103D02*
X15218396Y-15304151D01*
X15218396Y-15304151D02*
X15218396Y-15361293D01*
X15218396Y-15361293D02*
X15208872Y-15380341D01*
X15208872Y-15380341D02*
X15199348Y-15389865D01*
X15199348Y-15389865D02*
X15180301Y-15399389D01*
X15180301Y-15399389D02*
X15151729Y-15399389D01*
X15332682Y-15399389D02*
X15313634Y-15389865D01*
X15313634Y-15389865D02*
X15304110Y-15370817D01*
X15304110Y-15370817D02*
X15304110Y-15199389D01*
X15485063Y-15389865D02*
X15466015Y-15399389D01*
X15466015Y-15399389D02*
X15427920Y-15399389D01*
X15427920Y-15399389D02*
X15408872Y-15389865D01*
X15408872Y-15389865D02*
X15399348Y-15370817D01*
X15399348Y-15370817D02*
X15399348Y-15294627D01*
X15399348Y-15294627D02*
X15408872Y-15275579D01*
X15408872Y-15275579D02*
X15427920Y-15266055D01*
X15427920Y-15266055D02*
X15466015Y-15266055D01*
X15466015Y-15266055D02*
X15485063Y-15275579D01*
X15485063Y-15275579D02*
X15494586Y-15294627D01*
X15494586Y-15294627D02*
X15494586Y-15313674D01*
X15494586Y-15313674D02*
X15399348Y-15332722D01*
X15561253Y-15475579D02*
X15570777Y-15466055D01*
X15570777Y-15466055D02*
X15589825Y-15437484D01*
X15589825Y-15437484D02*
X15599348Y-15418436D01*
X15599348Y-15418436D02*
X15608872Y-15389865D01*
X15608872Y-15389865D02*
X15618396Y-15342246D01*
X15618396Y-15342246D02*
X15618396Y-15304151D01*
X15618396Y-15304151D02*
X15608872Y-15256532D01*
X15608872Y-15256532D02*
X15599348Y-15227960D01*
X15599348Y-15227960D02*
X15589825Y-15208913D01*
X15589825Y-15208913D02*
X15570777Y-15180341D01*
X15570777Y-15180341D02*
X15561253Y-15170817D01*
X15923158Y-15475579D02*
X15913634Y-15466055D01*
X15913634Y-15466055D02*
X15894586Y-15437484D01*
X15894586Y-15437484D02*
X15885063Y-15418436D01*
X15885063Y-15418436D02*
X15875539Y-15389865D01*
X15875539Y-15389865D02*
X15866015Y-15342246D01*
X15866015Y-15342246D02*
X15866015Y-15304151D01*
X15866015Y-15304151D02*
X15875539Y-15256532D01*
X15875539Y-15256532D02*
X15885063Y-15227960D01*
X15885063Y-15227960D02*
X15894586Y-15208913D01*
X15894586Y-15208913D02*
X15913634Y-15180341D01*
X15913634Y-15180341D02*
X15923158Y-15170817D01*
X15999348Y-15266055D02*
X15999348Y-15399389D01*
X15999348Y-15285103D02*
X16008872Y-15275579D01*
X16008872Y-15275579D02*
X16027920Y-15266055D01*
X16027920Y-15266055D02*
X16056491Y-15266055D01*
X16056491Y-15266055D02*
X16075539Y-15275579D01*
X16075539Y-15275579D02*
X16085063Y-15294627D01*
X16085063Y-15294627D02*
X16085063Y-15399389D01*
X16208872Y-15399389D02*
X16189825Y-15389865D01*
X16189825Y-15389865D02*
X16180301Y-15380341D01*
X16180301Y-15380341D02*
X16170777Y-15361293D01*
X16170777Y-15361293D02*
X16170777Y-15304151D01*
X16170777Y-15304151D02*
X16180301Y-15285103D01*
X16180301Y-15285103D02*
X16189825Y-15275579D01*
X16189825Y-15275579D02*
X16208872Y-15266055D01*
X16208872Y-15266055D02*
X16237444Y-15266055D01*
X16237444Y-15266055D02*
X16256491Y-15275579D01*
X16256491Y-15275579D02*
X16266015Y-15285103D01*
X16266015Y-15285103D02*
X16275539Y-15304151D01*
X16275539Y-15304151D02*
X16275539Y-15361293D01*
X16275539Y-15361293D02*
X16266015Y-15380341D01*
X16266015Y-15380341D02*
X16256491Y-15389865D01*
X16256491Y-15389865D02*
X16237444Y-15399389D01*
X16237444Y-15399389D02*
X16208872Y-15399389D01*
X16332682Y-15266055D02*
X16408872Y-15266055D01*
X16361253Y-15199389D02*
X16361253Y-15370817D01*
X16361253Y-15370817D02*
X16370777Y-15389865D01*
X16370777Y-15389865D02*
X16389825Y-15399389D01*
X16389825Y-15399389D02*
X16408872Y-15399389D01*
X16627920Y-15266055D02*
X16627920Y-15466055D01*
X16627920Y-15275579D02*
X16646967Y-15266055D01*
X16646967Y-15266055D02*
X16685063Y-15266055D01*
X16685063Y-15266055D02*
X16704110Y-15275579D01*
X16704110Y-15275579D02*
X16713634Y-15285103D01*
X16713634Y-15285103D02*
X16723158Y-15304151D01*
X16723158Y-15304151D02*
X16723158Y-15361293D01*
X16723158Y-15361293D02*
X16713634Y-15380341D01*
X16713634Y-15380341D02*
X16704110Y-15389865D01*
X16704110Y-15389865D02*
X16685063Y-15399389D01*
X16685063Y-15399389D02*
X16646967Y-15399389D01*
X16646967Y-15399389D02*
X16627920Y-15389865D01*
X16837444Y-15399389D02*
X16818396Y-15389865D01*
X16818396Y-15389865D02*
X16808872Y-15370817D01*
X16808872Y-15370817D02*
X16808872Y-15199389D01*
X16999349Y-15399389D02*
X16999349Y-15294627D01*
X16999349Y-15294627D02*
X16989825Y-15275579D01*
X16989825Y-15275579D02*
X16970777Y-15266055D01*
X16970777Y-15266055D02*
X16932682Y-15266055D01*
X16932682Y-15266055D02*
X16913634Y-15275579D01*
X16999349Y-15389865D02*
X16980301Y-15399389D01*
X16980301Y-15399389D02*
X16932682Y-15399389D01*
X16932682Y-15399389D02*
X16913634Y-15389865D01*
X16913634Y-15389865D02*
X16904110Y-15370817D01*
X16904110Y-15370817D02*
X16904110Y-15351770D01*
X16904110Y-15351770D02*
X16913634Y-15332722D01*
X16913634Y-15332722D02*
X16932682Y-15323198D01*
X16932682Y-15323198D02*
X16980301Y-15323198D01*
X16980301Y-15323198D02*
X16999349Y-15313674D01*
X17066015Y-15266055D02*
X17142206Y-15266055D01*
X17094587Y-15199389D02*
X17094587Y-15370817D01*
X17094587Y-15370817D02*
X17104110Y-15389865D01*
X17104110Y-15389865D02*
X17123158Y-15399389D01*
X17123158Y-15399389D02*
X17142206Y-15399389D01*
X17285063Y-15389865D02*
X17266015Y-15399389D01*
X17266015Y-15399389D02*
X17227920Y-15399389D01*
X17227920Y-15399389D02*
X17208872Y-15389865D01*
X17208872Y-15389865D02*
X17199349Y-15370817D01*
X17199349Y-15370817D02*
X17199349Y-15294627D01*
X17199349Y-15294627D02*
X17208872Y-15275579D01*
X17208872Y-15275579D02*
X17227920Y-15266055D01*
X17227920Y-15266055D02*
X17266015Y-15266055D01*
X17266015Y-15266055D02*
X17285063Y-15275579D01*
X17285063Y-15275579D02*
X17294587Y-15294627D01*
X17294587Y-15294627D02*
X17294587Y-15313674D01*
X17294587Y-15313674D02*
X17199349Y-15332722D01*
X17466015Y-15399389D02*
X17466015Y-15199389D01*
X17466015Y-15389865D02*
X17446968Y-15399389D01*
X17446968Y-15399389D02*
X17408872Y-15399389D01*
X17408872Y-15399389D02*
X17389825Y-15389865D01*
X17389825Y-15389865D02*
X17380301Y-15380341D01*
X17380301Y-15380341D02*
X17370777Y-15361293D01*
X17370777Y-15361293D02*
X17370777Y-15304151D01*
X17370777Y-15304151D02*
X17380301Y-15285103D01*
X17380301Y-15285103D02*
X17389825Y-15275579D01*
X17389825Y-15275579D02*
X17408872Y-15266055D01*
X17408872Y-15266055D02*
X17446968Y-15266055D01*
X17446968Y-15266055D02*
X17466015Y-15275579D01*
X17542206Y-15475579D02*
X17551730Y-15466055D01*
X17551730Y-15466055D02*
X17570777Y-15437484D01*
X17570777Y-15437484D02*
X17580301Y-15418436D01*
X17580301Y-15418436D02*
X17589825Y-15389865D01*
X17589825Y-15389865D02*
X17599349Y-15342246D01*
X17599349Y-15342246D02*
X17599349Y-15304151D01*
X17599349Y-15304151D02*
X17589825Y-15256532D01*
X17589825Y-15256532D02*
X17580301Y-15227960D01*
X17580301Y-15227960D02*
X17570777Y-15208913D01*
X17570777Y-15208913D02*
X17551730Y-15180341D01*
X17551730Y-15180341D02*
X17542206Y-15170817D01*
M02*
