%TF.GenerationSoftware,KiCad,Pcbnew,10.0.3*%
%TF.CreationDate,2026-07-07T13:47:14-07:00*%
%TF.ProjectId,fluidics-v2,666c7569-6469-4637-932d-76322e6b6963,rev?*%
%TF.SameCoordinates,Original*%
%TF.FileFunction,Copper,L4,Bot*%
%TF.FilePolarity,Positive*%
%FSLAX46Y46*%
G04 Gerber Fmt 4.6, Leading zero omitted, Abs format (unit mm)*
G04 Created by KiCad (PCBNEW 10.0.3) date 2026-07-07 13:47:14*
%MOMM*%
%LPD*%
G01*
G04 APERTURE LIST*
G04 Aperture macros list*
%AMRoundRect*
0 Rectangle with rounded corners*
0 $1 Rounding radius*
0 $2 $3 $4 $5 $6 $7 $8 $9 X,Y pos of 4 corners*
0 Add a 4 corners polygon primitive as box body*
4,1,4,$2,$3,$4,$5,$6,$7,$8,$9,$2,$3,0*
0 Add four circle primitives for the rounded corners*
1,1,$1+$1,$2,$3*
1,1,$1+$1,$4,$5*
1,1,$1+$1,$6,$7*
1,1,$1+$1,$8,$9*
0 Add four rect primitives between the rounded corners*
20,1,$1+$1,$2,$3,$4,$5,0*
20,1,$1+$1,$4,$5,$6,$7,0*
20,1,$1+$1,$6,$7,$8,$9,0*
20,1,$1+$1,$8,$9,$2,$3,0*%
G04 Aperture macros list end*
%ADD10C,0.090000*%
%TA.AperFunction,NonConductor*%
%ADD11C,0.090000*%
%TD*%
%TA.AperFunction,ComponentPad*%
%ADD12C,0.525000*%
%TD*%
%TA.AperFunction,ComponentPad*%
%ADD13R,1.650000X1.650000*%
%TD*%
%TA.AperFunction,ComponentPad*%
%ADD14C,1.650000*%
%TD*%
%TA.AperFunction,ComponentPad*%
%ADD15C,0.700000*%
%TD*%
%TA.AperFunction,ComponentPad*%
%ADD16C,4.400000*%
%TD*%
%TA.AperFunction,ComponentPad*%
%ADD17O,4.500000X2.250000*%
%TD*%
%TA.AperFunction,ComponentPad*%
%ADD18O,4.000000X2.000000*%
%TD*%
%TA.AperFunction,ComponentPad*%
%ADD19O,2.000000X4.000000*%
%TD*%
%TA.AperFunction,ComponentPad*%
%ADD20C,1.574800*%
%TD*%
%TA.AperFunction,ComponentPad*%
%ADD21C,1.400000*%
%TD*%
%TA.AperFunction,ComponentPad*%
%ADD22RoundRect,0.249999X-0.850001X0.850001X-0.850001X-0.850001X0.850001X-0.850001X0.850001X0.850001X0*%
%TD*%
%TA.AperFunction,ComponentPad*%
%ADD23C,2.200000*%
%TD*%
%TA.AperFunction,ComponentPad*%
%ADD24R,1.500000X1.500000*%
%TD*%
%TA.AperFunction,ComponentPad*%
%ADD25C,1.500000*%
%TD*%
%TA.AperFunction,ComponentPad*%
%ADD26C,4.575000*%
%TD*%
%TA.AperFunction,ViaPad*%
%ADD27C,0.800000*%
%TD*%
%TA.AperFunction,Conductor*%
%ADD28C,0.250000*%
%TD*%
%TA.AperFunction,Conductor*%
%ADD29C,0.550000*%
%TD*%
G04 APERTURE END LIST*
D10*
D11*
X125396427Y-113774927D02*
X125439285Y-113753498D01*
X125439285Y-113753498D02*
X125503570Y-113753498D01*
X125503570Y-113753498D02*
X125567856Y-113774927D01*
X125567856Y-113774927D02*
X125610713Y-113817784D01*
X125610713Y-113817784D02*
X125632142Y-113860641D01*
X125632142Y-113860641D02*
X125653570Y-113946355D01*
X125653570Y-113946355D02*
X125653570Y-114010641D01*
X125653570Y-114010641D02*
X125632142Y-114096355D01*
X125632142Y-114096355D02*
X125610713Y-114139212D01*
X125610713Y-114139212D02*
X125567856Y-114182070D01*
X125567856Y-114182070D02*
X125503570Y-114203498D01*
X125503570Y-114203498D02*
X125460713Y-114203498D01*
X125460713Y-114203498D02*
X125396427Y-114182070D01*
X125396427Y-114182070D02*
X125374999Y-114160641D01*
X125374999Y-114160641D02*
X125374999Y-114010641D01*
X125374999Y-114010641D02*
X125460713Y-114010641D01*
X125117856Y-113753498D02*
X125117856Y-113860641D01*
X125224999Y-113817784D02*
X125117856Y-113860641D01*
X125117856Y-113860641D02*
X125010713Y-113817784D01*
X125182142Y-113946355D02*
X125117856Y-113860641D01*
X125117856Y-113860641D02*
X125053570Y-113946355D01*
X124774999Y-113753498D02*
X124774999Y-113860641D01*
X124882142Y-113817784D02*
X124774999Y-113860641D01*
X124774999Y-113860641D02*
X124667856Y-113817784D01*
X124839285Y-113946355D02*
X124774999Y-113860641D01*
X124774999Y-113860641D02*
X124710713Y-113946355D01*
X124432142Y-113753498D02*
X124432142Y-113860641D01*
X124539285Y-113817784D02*
X124432142Y-113860641D01*
X124432142Y-113860641D02*
X124324999Y-113817784D01*
X124496428Y-113946355D02*
X124432142Y-113860641D01*
X124432142Y-113860641D02*
X124367856Y-113946355D01*
D12*
%TO.P,J10,MH1*%
%TO.N,N/C*%
X158475000Y-52000000D03*
%TO.P,J10,MH2*%
X158475000Y-58000000D03*
%TD*%
D13*
%TO.P,J22,1,1_1*%
%TO.N,GND*%
X114659000Y-65160000D03*
D14*
%TO.P,J22,2,2_2*%
%TO.N,+24V*%
X114659000Y-67700000D03*
%TD*%
D12*
%TO.P,J12,MH1*%
%TO.N,N/C*%
X147775000Y-52000000D03*
%TO.P,J12,MH2*%
X147775000Y-58000000D03*
%TD*%
D13*
%TO.P,J24,1,1_1*%
%TO.N,GND*%
X125500000Y-75500000D03*
D14*
%TO.P,J24,2,2_2*%
%TO.N,+24V*%
X125500000Y-78040000D03*
%TD*%
D12*
%TO.P,J18,MH1*%
%TO.N,N/C*%
X126375000Y-52000000D03*
%TO.P,J18,MH2*%
X126375000Y-58000000D03*
%TD*%
D15*
%TO.P,H2,1,1_1*%
%TO.N,GND*%
X113385280Y-38631000D03*
X113868554Y-37464274D03*
X113868554Y-39797726D03*
X115035280Y-36981000D03*
D16*
X115035280Y-38631000D03*
D15*
X115035280Y-40281000D03*
X116202006Y-37464274D03*
X116202006Y-39797726D03*
X116685280Y-38631000D03*
%TD*%
D17*
%TO.P,J1,1*%
%TO.N,+24V*%
X157707280Y-30613000D03*
D18*
%TO.P,J1,2*%
%TO.N,GND*%
X157707280Y-24613000D03*
D19*
%TO.P,J1,S1,SHIELD_S1*%
X153207280Y-23613000D03*
%TO.P,J1,S2,SHIELD__1_S2*%
X162207280Y-23613000D03*
%TD*%
D13*
%TO.P,J11,1,1_1*%
%TO.N,GND*%
X157459000Y-65160000D03*
D14*
%TO.P,J11,2,2_2*%
%TO.N,+24V*%
X157459000Y-67700000D03*
%TD*%
D20*
%TO.P,U4,1,PG_1*%
%TO.N,/PG-5V*%
X161517280Y-71905000D03*
%TO.P,U4,2,nSHDN_2*%
%TO.N,unconnected-(U4-nSHDN-Pad2)*%
X158977280Y-71905000D03*
%TO.P,U4,3,VIN_3*%
%TO.N,+24V*%
X156437280Y-71905000D03*
%TO.P,U4,4,GND_4*%
%TO.N,GND*%
X153897280Y-71905000D03*
%TO.P,U4,5,VOUT_5*%
%TO.N,+5V*%
X151357280Y-71905000D03*
%TD*%
D15*
%TO.P,H4,1,1_1*%
%TO.N,GND*%
X113350000Y-112000000D03*
X113833274Y-110833274D03*
X113833274Y-113166726D03*
X115000000Y-110350000D03*
D16*
X115000000Y-112000000D03*
D15*
X115000000Y-113650000D03*
X116166726Y-110833274D03*
X116166726Y-113166726D03*
X116650000Y-112000000D03*
%TD*%
D21*
%TO.P,TP2,1,1_1*%
%TO.N,/Selector Valves/SDA 5V*%
X126445280Y-36345000D03*
%TO.P,TP2,2,2_2*%
%TO.N,/Selector Valves/SCL 5V*%
X123905280Y-36345000D03*
%TD*%
D13*
%TO.P,J19,1,1_1*%
%TO.N,GND*%
X125359000Y-65160000D03*
D14*
%TO.P,J19,2,2_2*%
%TO.N,+24V*%
X125359000Y-67700000D03*
%TD*%
D12*
%TO.P,J25,MH1*%
%TO.N,N/C*%
X115836280Y-74603000D03*
%TO.P,J25,MH2*%
X115836280Y-80603000D03*
%TD*%
D21*
%TO.P,TP1,1,1_1*%
%TO.N,/SDA*%
X134003280Y-40300000D03*
%TO.P,TP1,2,2_2*%
%TO.N,/SCL*%
X134003280Y-42840000D03*
%TD*%
D22*
%TO.P,J6,1,Pin_1_1*%
%TO.N,Net-(J6-Pin_1)*%
X114040000Y-99000000D03*
D23*
%TO.P,J6,2,Pin_2_2*%
%TO.N,+24V*%
X114040000Y-101540000D03*
%TD*%
D24*
%TO.P,TP3,1,1_1*%
%TO.N,GND*%
X132500000Y-37000000D03*
%TD*%
D25*
%TO.P,J3,1,1_1*%
%TO.N,+24V*%
X139673280Y-31773000D03*
%TO.P,J3,2,2_2*%
%TO.N,/Syringe Pump/232_TX*%
X136903280Y-31773000D03*
%TO.P,J3,3,3_3*%
%TO.N,/Syringe Pump/232_RX*%
X134133280Y-31773000D03*
%TO.P,J3,4,4_4*%
%TO.N,unconnected-(J3-Pad4)*%
X131363280Y-31773000D03*
%TO.P,J3,5,5_5*%
%TO.N,unconnected-(J3-Pad5)*%
X128593280Y-31773000D03*
%TO.P,J3,6,6_6*%
%TO.N,unconnected-(J3-Pad6)*%
X125823280Y-31773000D03*
%TO.P,J3,7,7_7*%
%TO.N,unconnected-(J3-Pad7)*%
X123053280Y-31773000D03*
%TO.P,J3,8,8_8*%
%TO.N,unconnected-(J3-Pad8)*%
X120283280Y-31773000D03*
%TO.P,J3,9,9_9*%
%TO.N,GND*%
X138288280Y-28933000D03*
%TO.P,J3,10,10_10*%
X135518280Y-28933000D03*
%TO.P,J3,11,11_11*%
%TO.N,unconnected-(J3-Pad11)*%
X132748280Y-28933000D03*
%TO.P,J3,12,12_12*%
%TO.N,unconnected-(J3-Pad12)*%
X129978280Y-28933000D03*
%TO.P,J3,13,13_13*%
%TO.N,unconnected-(J3-Pad13)*%
X127208280Y-28933000D03*
%TO.P,J3,14,14_14*%
%TO.N,unconnected-(J3-Pad14)*%
X124438280Y-28933000D03*
%TO.P,J3,15,15_15*%
%TO.N,unconnected-(J3-Pad15)*%
X121668280Y-28933000D03*
D26*
%TO.P,J3,MH1,MH1_MH1*%
%TO.N,GND*%
X113328280Y-30353000D03*
%TO.P,J3,MH2,MH2_MH2*%
X146628280Y-30353000D03*
%TD*%
D12*
%TO.P,J14,MH1*%
%TO.N,N/C*%
X137075000Y-52000000D03*
%TO.P,J14,MH2*%
X137075000Y-58000000D03*
%TD*%
D13*
%TO.P,J16,1,1_1*%
%TO.N,GND*%
X136059000Y-65160000D03*
D14*
%TO.P,J16,2,2_2*%
%TO.N,+24V*%
X136059000Y-67700000D03*
%TD*%
D13*
%TO.P,J13,1,1_1*%
%TO.N,GND*%
X146759000Y-65160000D03*
D14*
%TO.P,J13,2,2_2*%
%TO.N,+24V*%
X146759000Y-67700000D03*
%TD*%
D15*
%TO.P,H3,1,1_1*%
%TO.N,GND*%
X183850000Y-112500000D03*
X184333274Y-111333274D03*
X184333274Y-113666726D03*
X185500000Y-110850000D03*
D16*
X185500000Y-112500000D03*
D15*
X185500000Y-114150000D03*
X186666726Y-111333274D03*
X186666726Y-113666726D03*
X187150000Y-112500000D03*
%TD*%
D12*
%TO.P,J21,MH1*%
%TO.N,N/C*%
X115675000Y-52000000D03*
%TO.P,J21,MH2*%
X115675000Y-58000000D03*
%TD*%
D22*
%TO.P,J5,1,Pin_1_1*%
%TO.N,Net-(J5-Pin_1)*%
X114000000Y-86960000D03*
D23*
%TO.P,J5,2,Pin_2_2*%
%TO.N,+24V*%
X114000000Y-89500000D03*
%TD*%
D27*
%TO.N,/Selector Valves/SDA 5V*%
X112461280Y-50103000D03*
X115461280Y-72103000D03*
X123163280Y-50175000D03*
%TO.N,/Selector Valves/SCL 5V*%
X127787487Y-38712513D03*
X119861280Y-51077000D03*
X129000000Y-37500000D03*
%TO.N,GND*%
X119861280Y-52855000D03*
X136461280Y-81103000D03*
X130529280Y-52855000D03*
X186150140Y-23650140D03*
X151865280Y-52855000D03*
X124564034Y-42082902D03*
X181461280Y-98603000D03*
X150341280Y-38885000D03*
X144412280Y-101007500D03*
X136371280Y-43711000D03*
X164194280Y-100099000D03*
X159144280Y-100973500D03*
X125195280Y-39139000D03*
X119961280Y-75603000D03*
X126961280Y-105103000D03*
X141197280Y-52855000D03*
X123163280Y-38377000D03*
X149050030Y-99845000D03*
X142768280Y-82881000D03*
X155762280Y-101007500D03*
X127011279Y-93553000D03*
X145007280Y-86129000D03*
X165581280Y-107211000D03*
X139411281Y-93553000D03*
X162533280Y-52855000D03*
X132815280Y-76731000D03*
X170494280Y-105951000D03*
X170494280Y-100973500D03*
X139411281Y-105153002D03*
X158738565Y-105653812D03*
%TO.N,+3.3V*%
X165581280Y-91971000D03*
X165444280Y-100236000D03*
X168883280Y-95527000D03*
X145515280Y-78763000D03*
X151611280Y-82319000D03*
X150849280Y-99337000D03*
X130783280Y-47267000D03*
X153135280Y-93749000D03*
%TO.N,/SCL*%
X173778916Y-74699000D03*
X173671780Y-68857000D03*
X155167280Y-43711000D03*
%TO.N,/SDA*%
X173671780Y-76409211D03*
X152119280Y-40917000D03*
X174370780Y-70381000D03*
%TO.N,+5V*%
X125449280Y-47521000D03*
X175233280Y-32281000D03*
X131461280Y-103103000D03*
X134961280Y-95603000D03*
X137961280Y-83103000D03*
%TO.N,+24V*%
X175461280Y-104103000D03*
X159961280Y-32603000D03*
X185961280Y-98103000D03*
%TO.N,/SDA1*%
X150961280Y-93603000D03*
X171379578Y-71633229D03*
X152461280Y-95603000D03*
X164119933Y-78979500D03*
%TO.N,/GPIO_6*%
X187961280Y-66603000D03*
X182961280Y-93103000D03*
%TO.N,/PG-5V*%
X170153280Y-87653000D03*
%TO.N,/SCL2*%
X172947280Y-75461000D03*
X173023235Y-67681059D03*
X153448627Y-107115653D03*
X164461280Y-111603000D03*
%TO.N,/SDA2*%
X172222780Y-74470500D03*
X145461280Y-108103000D03*
X172189579Y-70639299D03*
X150461280Y-106103000D03*
X162461280Y-110603000D03*
%TO.N,/GPIO_7*%
X182961280Y-94603000D03*
X188961280Y-69103000D03*
%TO.N,/GPIO_5*%
X182961280Y-91603000D03*
X186961280Y-64603000D03*
%TO.N,/SCL1*%
X171460780Y-72921000D03*
X163041280Y-78979500D03*
%TO.N,/GPIO_4*%
X186961280Y-38603000D03*
X184461280Y-83603000D03*
%TO.N,/GPIO_3*%
X183461280Y-84603000D03*
X175961280Y-35603000D03*
%TO.N,/GPIO_2*%
X182461280Y-85603000D03*
X177461280Y-33103000D03*
%TO.N,/GPIO_1*%
X180461280Y-85603000D03*
X178961280Y-28103000D03*
%TO.N,Net-(J6-Pin_1)*%
X188500000Y-96000000D03*
%TO.N,Net-(J5-Pin_1)*%
X189500000Y-94500000D03*
X123500000Y-108000000D03*
%TO.N,/Syringe Pump/232_TX*%
X143991280Y-34821000D03*
%TD*%
%TO.N,/Selector Valves/SDA 5V*%
D28*
X123163280Y-50175000D02*
X123163280Y-46759000D01*
X112961280Y-49103000D02*
X115961280Y-49103000D01*
X112461280Y-49603000D02*
X112961280Y-49103000D01*
X123163280Y-46759000D02*
X126465280Y-43457000D01*
X117461280Y-70103000D02*
X115461280Y-72103000D01*
X117461280Y-50603000D02*
X117461280Y-70103000D01*
X112461280Y-50103000D02*
X112461280Y-49603000D01*
X115961280Y-49103000D02*
X117461280Y-50603000D01*
X126465280Y-43457000D02*
X126465280Y-36365000D01*
%TO.N,/Selector Valves/SCL 5V*%
X119861280Y-40389000D02*
X123905280Y-36345000D01*
X119861280Y-51077000D02*
X119861280Y-40389000D01*
X129000000Y-37500000D02*
X127787487Y-38712513D01*
%TO.N,+3.3V*%
D29*
X139419280Y-47267000D02*
X152627280Y-60475000D01*
X154659280Y-94603000D02*
X154659280Y-93749000D01*
X152627280Y-60475000D02*
X152627280Y-81303000D01*
X168883280Y-95527000D02*
X168883280Y-96797000D01*
X151611280Y-82319000D02*
X155929280Y-82319000D01*
X152627280Y-81303000D02*
X151611280Y-82319000D01*
X161087280Y-87477000D02*
X161087280Y-88175000D01*
X154659280Y-93749000D02*
X153135280Y-93749000D01*
X154659280Y-96543000D02*
X151865280Y-99337000D01*
X151611280Y-82319000D02*
X148055280Y-78763000D01*
X151865280Y-99337000D02*
X150849280Y-99337000D01*
X161087280Y-87477000D02*
X165581280Y-91971000D01*
X161087280Y-88175000D02*
X154659280Y-94603000D01*
X154659280Y-96543000D02*
X154659280Y-94603000D01*
X148055280Y-78763000D02*
X145515280Y-78763000D01*
X130783280Y-47267000D02*
X139419280Y-47267000D01*
X155929280Y-82319000D02*
X161087280Y-87477000D01*
X168883280Y-96797000D02*
X165444280Y-100236000D01*
%TO.N,/SCL*%
D28*
X173645780Y-68883000D02*
X173671780Y-68857000D01*
X140435280Y-43711000D02*
X139419280Y-42695000D01*
X155167280Y-43711000D02*
X140435280Y-43711000D01*
X139419280Y-42695000D02*
X134148280Y-42695000D01*
X173645780Y-74565864D02*
X173645780Y-68883000D01*
X173778916Y-74699000D02*
X173645780Y-74565864D01*
%TO.N,/SDA*%
X174503916Y-75577075D02*
X173671780Y-76409211D01*
X174370780Y-70381000D02*
X174503916Y-70514136D01*
X151502280Y-40300000D02*
X152119280Y-40917000D01*
X134003280Y-40300000D02*
X151502280Y-40300000D01*
X174503916Y-70514136D02*
X174503916Y-75577075D01*
%TO.N,+5V*%
D29*
X149833280Y-59713000D02*
X151357280Y-61237000D01*
X125449280Y-47521000D02*
X126465280Y-47521000D01*
X127086280Y-48142000D02*
X131150280Y-48142000D01*
X151357280Y-61237000D02*
X151357280Y-71905000D01*
X131150280Y-48142000D02*
X142721280Y-59713000D01*
X142721280Y-59713000D02*
X149833280Y-59713000D01*
X126465280Y-47521000D02*
X127086280Y-48142000D01*
%TO.N,+24V*%
X176461280Y-99603000D02*
X156437280Y-79579000D01*
X175461280Y-103603000D02*
X175961280Y-103103000D01*
X175961280Y-103103000D02*
X180961280Y-103103000D01*
X176461280Y-99603000D02*
X176461280Y-102603000D01*
X156437280Y-79579000D02*
X156437280Y-71905000D01*
D28*
X176461280Y-102603000D02*
X175961280Y-103103000D01*
D29*
X180961280Y-103103000D02*
X185961280Y-98103000D01*
X175461280Y-104103000D02*
X175461280Y-103603000D01*
%TO.N,/SDA1*%
D28*
X171312356Y-71633229D02*
X171379578Y-71633229D01*
X164119933Y-78825652D02*
X171312356Y-71633229D01*
X150961280Y-93603000D02*
X152461280Y-95103000D01*
X152461280Y-95103000D02*
X152461280Y-95603000D01*
X164119933Y-78979500D02*
X164119933Y-78825652D01*
%TO.N,/GPIO_6*%
X182961280Y-93103000D02*
X187961280Y-88103000D01*
X187961280Y-88103000D02*
X187961280Y-66603000D01*
%TO.N,/PG-5V*%
X170153280Y-87653000D02*
X167359280Y-87653000D01*
X167359280Y-87653000D02*
X160247280Y-80541000D01*
X160247280Y-73175000D02*
X161517280Y-71905000D01*
X160247280Y-80541000D02*
X160247280Y-73175000D01*
%TO.N,/SCL2*%
X172947280Y-75461000D02*
X172947280Y-67757014D01*
X172947280Y-67757014D02*
X173023235Y-67681059D01*
X164461280Y-111603000D02*
X158324884Y-111603000D01*
X153824884Y-107103000D02*
X153461280Y-107103000D01*
X158324884Y-111603000D02*
X153824884Y-107103000D01*
%TO.N,/SDA2*%
X172185280Y-74433000D02*
X172185280Y-70643598D01*
X153461280Y-106103000D02*
X150461280Y-106103000D01*
X145461280Y-108103000D02*
X148461280Y-108103000D01*
X161961280Y-111103000D02*
X158461280Y-111103000D01*
X162461280Y-110603000D02*
X161961280Y-111103000D01*
X158461280Y-111103000D02*
X153461280Y-106103000D01*
X172222780Y-74470500D02*
X172185280Y-74433000D01*
X172185280Y-70643598D02*
X172189579Y-70639299D01*
X148461280Y-108103000D02*
X150461280Y-106103000D01*
%TO.N,/GPIO_7*%
X182961280Y-94603000D02*
X188961280Y-88603000D01*
X188961280Y-88603000D02*
X188961280Y-69103000D01*
%TO.N,/GPIO_5*%
X182961280Y-91603000D02*
X186961280Y-87603000D01*
X186961280Y-87603000D02*
X186961280Y-64603000D01*
%TO.N,/SCL1*%
X171423280Y-72921000D02*
X164639780Y-79704500D01*
X163766280Y-79704500D02*
X163041280Y-78979500D01*
X171460780Y-72921000D02*
X171423280Y-72921000D01*
X164639780Y-79704500D02*
X163766280Y-79704500D01*
%TO.N,/GPIO_4*%
X184461280Y-83603000D02*
X184961280Y-83103000D01*
X184961280Y-83103000D02*
X184961280Y-40603000D01*
X184961280Y-40603000D02*
X186961280Y-38603000D01*
%TO.N,/GPIO_3*%
X183461280Y-87103000D02*
X182961280Y-87603000D01*
X182961280Y-87603000D02*
X177461280Y-87603000D01*
X183461280Y-84603000D02*
X183461280Y-87103000D01*
X175961280Y-86103000D02*
X175961280Y-35603000D01*
X177461280Y-87603000D02*
X175961280Y-86103000D01*
%TO.N,/GPIO_2*%
X177461280Y-85961280D02*
X177461280Y-33103000D01*
X181736280Y-86328000D02*
X177828000Y-86328000D01*
X177828000Y-86328000D02*
X177461280Y-85961280D01*
X182461280Y-85603000D02*
X181736280Y-86328000D01*
%TO.N,/GPIO_1*%
X178961280Y-84103000D02*
X178961280Y-28103000D01*
X180461280Y-85603000D02*
X178961280Y-84103000D01*
%TO.N,Net-(J6-Pin_1)*%
D29*
X188500000Y-96000000D02*
X188500000Y-99500000D01*
X175000000Y-113000000D02*
X156500000Y-113000000D01*
X117920000Y-99420000D02*
X114460000Y-99420000D01*
X141000000Y-107000000D02*
X125500000Y-107000000D01*
X188500000Y-99500000D02*
X175000000Y-113000000D01*
X156500000Y-113000000D02*
X153000000Y-109500000D01*
X125500000Y-107000000D02*
X117920000Y-99420000D01*
X153000000Y-109500000D02*
X143500000Y-109500000D01*
X143500000Y-109500000D02*
X141000000Y-107000000D01*
X114460000Y-99420000D02*
X114040000Y-99000000D01*
%TO.N,Net-(J5-Pin_1)*%
X124000000Y-108500000D02*
X123500000Y-108000000D01*
X152000000Y-111000000D02*
X142500000Y-111000000D01*
X140000000Y-108500000D02*
X124000000Y-108500000D01*
X155500000Y-114500000D02*
X152000000Y-111000000D01*
X189500000Y-94500000D02*
X190000000Y-95000000D01*
X190000000Y-95000000D02*
X190000000Y-100500000D01*
X190000000Y-100500000D02*
X176000000Y-114500000D01*
X176000000Y-114500000D02*
X155500000Y-114500000D01*
X142500000Y-111000000D02*
X140000000Y-108500000D01*
%TO.N,/Syringe Pump/232_TX*%
D28*
X143991280Y-34821000D02*
X139951280Y-34821000D01*
X139951280Y-34821000D02*
X136903280Y-31773000D01*
%TD*%
%TA.AperFunction,Conductor*%
%TO.N,GND*%
G36*
X139113735Y-48062185D02*
G01*
X139134377Y-48078819D01*
X147818377Y-56762819D01*
X147851862Y-56824142D01*
X147846878Y-56893834D01*
X147805006Y-56949767D01*
X147739542Y-56974184D01*
X147730696Y-56974500D01*
X147673992Y-56974500D01*
X147475880Y-57013907D01*
X147475872Y-57013909D01*
X147289247Y-57091212D01*
X147289237Y-57091217D01*
X147121281Y-57203441D01*
X146978441Y-57346281D01*
X146866217Y-57514237D01*
X146866212Y-57514247D01*
X146788909Y-57700872D01*
X146788907Y-57700880D01*
X146749500Y-57898992D01*
X146749500Y-58101007D01*
X146788907Y-58299119D01*
X146788909Y-58299127D01*
X146866212Y-58485752D01*
X146866217Y-58485762D01*
X146978441Y-58653718D01*
X147050542Y-58725819D01*
X147084027Y-58787142D01*
X147079043Y-58856834D01*
X147037171Y-58912767D01*
X146971707Y-58937184D01*
X146962861Y-58937500D01*
X143093865Y-58937500D01*
X143026826Y-58917815D01*
X143006184Y-58901181D01*
X137302091Y-53197089D01*
X137268606Y-53135766D01*
X137273590Y-53066074D01*
X137315462Y-53010141D01*
X137365582Y-52987790D01*
X137374127Y-52986091D01*
X137560756Y-52908786D01*
X137728718Y-52796558D01*
X137871558Y-52653718D01*
X137983786Y-52485756D01*
X138061091Y-52299127D01*
X138100500Y-52101003D01*
X138100500Y-51898997D01*
X138061091Y-51700873D01*
X137983786Y-51514244D01*
X137983784Y-51514241D01*
X137983782Y-51514237D01*
X137871558Y-51346281D01*
X137728718Y-51203441D01*
X137560762Y-51091217D01*
X137560752Y-51091212D01*
X137374127Y-51013909D01*
X137374119Y-51013907D01*
X137176007Y-50974500D01*
X137176003Y-50974500D01*
X136973997Y-50974500D01*
X136973992Y-50974500D01*
X136775880Y-51013907D01*
X136775872Y-51013909D01*
X136589247Y-51091212D01*
X136589237Y-51091217D01*
X136421281Y-51203441D01*
X136278441Y-51346281D01*
X136166217Y-51514237D01*
X136166212Y-51514247D01*
X136088909Y-51700872D01*
X136088907Y-51700878D01*
X136087207Y-51709425D01*
X136054818Y-51771334D01*
X135994100Y-51805904D01*
X135924330Y-51802160D01*
X135877910Y-51772907D01*
X132359183Y-48254181D01*
X132325698Y-48192858D01*
X132330682Y-48123166D01*
X132372554Y-48067233D01*
X132438018Y-48042816D01*
X132446864Y-48042500D01*
X139046696Y-48042500D01*
X139113735Y-48062185D01*
G37*
%TD.AperFunction*%
%TA.AperFunction,Conductor*%
G36*
X152618498Y-21020185D02*
G01*
X152664253Y-21072989D01*
X152674197Y-21142147D01*
X152645172Y-21205703D01*
X152607754Y-21234985D01*
X152421108Y-21330085D01*
X152230093Y-21468866D01*
X152063146Y-21635813D01*
X151924365Y-21826828D01*
X151817177Y-22037197D01*
X151744214Y-22261752D01*
X151707280Y-22494947D01*
X151707280Y-23363000D01*
X152707280Y-23363000D01*
X152707280Y-23863000D01*
X151707280Y-23863000D01*
X151707280Y-24731052D01*
X151744214Y-24964247D01*
X151817177Y-25188802D01*
X151924365Y-25399171D01*
X152063146Y-25590186D01*
X152230093Y-25757133D01*
X152421108Y-25895914D01*
X152631475Y-26003102D01*
X152856024Y-26076063D01*
X152856030Y-26076065D01*
X152957280Y-26092101D01*
X152957280Y-24796012D01*
X153014287Y-24828925D01*
X153141454Y-24863000D01*
X153273106Y-24863000D01*
X153400273Y-24828925D01*
X153457280Y-24796012D01*
X153457280Y-26092100D01*
X153558529Y-26076065D01*
X153558535Y-26076063D01*
X153783084Y-26003102D01*
X153993451Y-25895914D01*
X154184466Y-25757133D01*
X154351413Y-25590186D01*
X154490194Y-25399171D01*
X154597382Y-25188802D01*
X154670345Y-24964247D01*
X154695324Y-24806539D01*
X154707280Y-24731052D01*
X154707280Y-24363000D01*
X155228178Y-24363000D01*
X156624268Y-24363000D01*
X156591355Y-24420007D01*
X156557280Y-24547174D01*
X156557280Y-24678826D01*
X156591355Y-24805993D01*
X156624268Y-24863000D01*
X155228178Y-24863000D01*
X155244214Y-24964247D01*
X155317177Y-25188802D01*
X155424365Y-25399171D01*
X155563146Y-25590186D01*
X155730093Y-25757133D01*
X155921108Y-25895914D01*
X156131477Y-26003102D01*
X156356032Y-26076065D01*
X156356031Y-26076065D01*
X156589228Y-26113000D01*
X157457280Y-26113000D01*
X157457280Y-25113000D01*
X157957280Y-25113000D01*
X157957280Y-26113000D01*
X158825332Y-26113000D01*
X159058527Y-26076065D01*
X159283082Y-26003102D01*
X159493451Y-25895914D01*
X159684466Y-25757133D01*
X159851413Y-25590186D01*
X159990194Y-25399171D01*
X160097382Y-25188802D01*
X160170345Y-24964247D01*
X160186382Y-24863000D01*
X158790292Y-24863000D01*
X158823205Y-24805993D01*
X158857280Y-24678826D01*
X158857280Y-24547174D01*
X158823205Y-24420007D01*
X158790292Y-24363000D01*
X160186382Y-24363000D01*
X160170345Y-24261752D01*
X160097382Y-24037197D01*
X160011138Y-23867933D01*
X160011137Y-23867931D01*
X159990196Y-23826830D01*
X159851413Y-23635813D01*
X159684466Y-23468866D01*
X159493451Y-23330085D01*
X159283082Y-23222897D01*
X159058527Y-23149934D01*
X159058528Y-23149934D01*
X158825332Y-23113000D01*
X157957280Y-23113000D01*
X157957280Y-24113000D01*
X157457280Y-24113000D01*
X157457280Y-23113000D01*
X156589228Y-23113000D01*
X156356032Y-23149934D01*
X156131477Y-23222897D01*
X155921108Y-23330085D01*
X155730093Y-23468866D01*
X155563146Y-23635813D01*
X155424365Y-23826828D01*
X155317177Y-24037197D01*
X155244214Y-24261752D01*
X155228178Y-24363000D01*
X154707280Y-24363000D01*
X154707280Y-23863000D01*
X153707280Y-23863000D01*
X153707280Y-23363000D01*
X154707280Y-23363000D01*
X154707280Y-22494947D01*
X154670345Y-22261752D01*
X154597382Y-22037197D01*
X154490194Y-21826828D01*
X154351413Y-21635813D01*
X154184466Y-21468866D01*
X153993451Y-21330085D01*
X153806806Y-21234985D01*
X153756010Y-21187011D01*
X153739215Y-21119190D01*
X153761752Y-21053055D01*
X153816467Y-21009603D01*
X153863101Y-21000500D01*
X156638354Y-21000500D01*
X156705393Y-21020185D01*
X156751148Y-21072989D01*
X156761092Y-21142147D01*
X156752915Y-21171950D01*
X156738935Y-21205703D01*
X156697150Y-21306579D01*
X156697148Y-21306587D01*
X156656780Y-21509530D01*
X156656780Y-21716469D01*
X156697148Y-21919412D01*
X156697150Y-21919420D01*
X156776338Y-22110596D01*
X156891304Y-22282657D01*
X157037622Y-22428975D01*
X157037625Y-22428977D01*
X157209682Y-22543941D01*
X157400860Y-22623130D01*
X157603810Y-22663499D01*
X157603814Y-22663500D01*
X157603815Y-22663500D01*
X157810746Y-22663500D01*
X157810747Y-22663499D01*
X158013700Y-22623130D01*
X158204878Y-22543941D01*
X158376935Y-22428977D01*
X158523257Y-22282655D01*
X158638221Y-22110598D01*
X158717410Y-21919420D01*
X158757780Y-21716465D01*
X158757780Y-21509535D01*
X158717410Y-21306580D01*
X158661644Y-21171951D01*
X158654176Y-21102484D01*
X158685451Y-21040004D01*
X158745540Y-21004352D01*
X158776206Y-21000500D01*
X161551459Y-21000500D01*
X161618498Y-21020185D01*
X161664253Y-21072989D01*
X161674197Y-21142147D01*
X161645172Y-21205703D01*
X161607754Y-21234985D01*
X161421108Y-21330085D01*
X161230093Y-21468866D01*
X161063146Y-21635813D01*
X160924365Y-21826828D01*
X160817177Y-22037197D01*
X160744214Y-22261752D01*
X160707280Y-22494947D01*
X160707280Y-23363000D01*
X161707280Y-23363000D01*
X161707280Y-23863000D01*
X160707280Y-23863000D01*
X160707280Y-24731052D01*
X160744214Y-24964247D01*
X160817177Y-25188802D01*
X160924365Y-25399171D01*
X161063146Y-25590186D01*
X161230093Y-25757133D01*
X161421108Y-25895914D01*
X161631475Y-26003102D01*
X161856024Y-26076063D01*
X161856030Y-26076065D01*
X161957280Y-26092101D01*
X161957280Y-24796012D01*
X162014287Y-24828925D01*
X162141454Y-24863000D01*
X162273106Y-24863000D01*
X162400273Y-24828925D01*
X162457280Y-24796012D01*
X162457280Y-26092100D01*
X162558529Y-26076065D01*
X162558535Y-26076063D01*
X162783084Y-26003102D01*
X162993451Y-25895914D01*
X163184466Y-25757133D01*
X163351413Y-25590186D01*
X163490194Y-25399171D01*
X163597382Y-25188802D01*
X163670345Y-24964247D01*
X163707280Y-24731052D01*
X163707280Y-23863000D01*
X162707280Y-23863000D01*
X162707280Y-23363000D01*
X163707280Y-23363000D01*
X163707280Y-22494947D01*
X163670345Y-22261752D01*
X163597382Y-22037197D01*
X163490194Y-21826828D01*
X163351413Y-21635813D01*
X163184466Y-21468866D01*
X162993451Y-21330085D01*
X162806806Y-21234985D01*
X162756010Y-21187011D01*
X162739215Y-21119190D01*
X162761752Y-21053055D01*
X162816467Y-21009603D01*
X162863101Y-21000500D01*
X191875500Y-21000500D01*
X191942539Y-21020185D01*
X191988294Y-21072989D01*
X191999500Y-21124500D01*
X191999500Y-116375500D01*
X191979815Y-116442539D01*
X191927011Y-116488294D01*
X191875500Y-116499500D01*
X109624500Y-116499500D01*
X109557461Y-116479815D01*
X109511706Y-116427011D01*
X109500500Y-116375500D01*
X109500500Y-98921153D01*
X110699500Y-98921153D01*
X110699500Y-99078846D01*
X110730261Y-99233489D01*
X110730264Y-99233501D01*
X110790602Y-99379172D01*
X110790609Y-99379185D01*
X110878210Y-99510288D01*
X110878213Y-99510292D01*
X110989707Y-99621786D01*
X110989711Y-99621789D01*
X111120814Y-99709390D01*
X111120827Y-99709397D01*
X111251542Y-99763540D01*
X111266503Y-99769737D01*
X111421153Y-99800499D01*
X111421156Y-99800500D01*
X111421158Y-99800500D01*
X111578844Y-99800500D01*
X111578845Y-99800499D01*
X111733497Y-99769737D01*
X111879179Y-99709394D01*
X112010289Y-99621789D01*
X112121789Y-99510289D01*
X112209394Y-99379179D01*
X112212398Y-99374684D01*
X112266010Y-99329879D01*
X112335335Y-99321172D01*
X112398363Y-99351326D01*
X112435082Y-99410770D01*
X112439500Y-99443575D01*
X112439500Y-99900017D01*
X112450000Y-100002796D01*
X112505185Y-100169332D01*
X112505187Y-100169337D01*
X112540070Y-100225890D01*
X112557656Y-100254403D01*
X112597289Y-100318657D01*
X112726128Y-100447496D01*
X112759613Y-100508819D01*
X112754629Y-100578511D01*
X112738767Y-100608058D01*
X112699180Y-100662547D01*
X112671128Y-100701158D01*
X112556760Y-100925616D01*
X112478910Y-101165211D01*
X112473642Y-101198472D01*
X112443711Y-101261606D01*
X112384398Y-101298536D01*
X112314536Y-101297536D01*
X112256304Y-101258925D01*
X112236610Y-101226527D01*
X112209394Y-101160821D01*
X112209390Y-101160814D01*
X112121789Y-101029711D01*
X112121786Y-101029707D01*
X112010292Y-100918213D01*
X112010288Y-100918210D01*
X111879185Y-100830609D01*
X111879172Y-100830602D01*
X111733501Y-100770264D01*
X111733489Y-100770261D01*
X111578845Y-100739500D01*
X111578842Y-100739500D01*
X111421158Y-100739500D01*
X111421155Y-100739500D01*
X111266510Y-100770261D01*
X111266498Y-100770264D01*
X111120827Y-100830602D01*
X111120814Y-100830609D01*
X110989711Y-100918210D01*
X110989707Y-100918213D01*
X110878213Y-101029707D01*
X110878210Y-101029711D01*
X110790609Y-101160814D01*
X110790602Y-101160827D01*
X110730264Y-101306498D01*
X110730261Y-101306510D01*
X110699500Y-101461153D01*
X110699500Y-101618846D01*
X110730261Y-101773489D01*
X110730264Y-101773501D01*
X110790602Y-101919172D01*
X110790609Y-101919185D01*
X110878210Y-102050288D01*
X110878213Y-102050292D01*
X110989707Y-102161786D01*
X110989711Y-102161789D01*
X111120814Y-102249390D01*
X111120827Y-102249397D01*
X111261863Y-102307815D01*
X111266503Y-102309737D01*
X111421153Y-102340499D01*
X111421156Y-102340500D01*
X111421158Y-102340500D01*
X111578844Y-102340500D01*
X111578845Y-102340499D01*
X111733497Y-102309737D01*
X111879179Y-102249394D01*
X112010289Y-102161789D01*
X112121789Y-102050289D01*
X112209394Y-101919179D01*
X112236609Y-101853475D01*
X112280447Y-101799073D01*
X112346741Y-101777007D01*
X112414440Y-101794285D01*
X112462052Y-101845421D01*
X112473642Y-101881528D01*
X112478910Y-101914787D01*
X112556760Y-102154383D01*
X112633499Y-102304990D01*
X112644968Y-102327500D01*
X112671132Y-102378848D01*
X112819201Y-102582649D01*
X112819205Y-102582654D01*
X112997345Y-102760794D01*
X112997350Y-102760798D01*
X113175117Y-102889952D01*
X113201155Y-102908870D01*
X113344184Y-102981747D01*
X113425616Y-103023239D01*
X113425618Y-103023239D01*
X113425621Y-103023241D01*
X113665215Y-103101090D01*
X113914038Y-103140500D01*
X113914039Y-103140500D01*
X114165961Y-103140500D01*
X114165962Y-103140500D01*
X114414785Y-103101090D01*
X114654379Y-103023241D01*
X114878845Y-102908870D01*
X115082656Y-102760793D01*
X115260793Y-102582656D01*
X115408870Y-102378845D01*
X115523241Y-102154379D01*
X115601090Y-101914785D01*
X115640500Y-101665962D01*
X115640500Y-101414038D01*
X115601090Y-101165215D01*
X115523241Y-100925621D01*
X115523239Y-100925618D01*
X115523239Y-100925616D01*
X115444081Y-100770261D01*
X115408870Y-100701155D01*
X115341233Y-100608060D01*
X115317754Y-100542257D01*
X115333579Y-100474203D01*
X115353871Y-100447495D01*
X115358650Y-100442715D01*
X115358656Y-100442712D01*
X115482712Y-100318656D01*
X115522344Y-100254402D01*
X115574291Y-100207679D01*
X115627882Y-100195500D01*
X117547416Y-100195500D01*
X117614455Y-100215185D01*
X117635097Y-100231819D01*
X124916096Y-107512819D01*
X124949581Y-107574142D01*
X124944597Y-107643834D01*
X124902725Y-107699767D01*
X124837261Y-107724184D01*
X124828415Y-107724500D01*
X124443432Y-107724500D01*
X124376393Y-107704815D01*
X124330638Y-107652011D01*
X124328884Y-107647985D01*
X124298013Y-107573453D01*
X124298009Y-107573446D01*
X124199464Y-107425965D01*
X124199461Y-107425961D01*
X124074038Y-107300538D01*
X124074034Y-107300535D01*
X123926553Y-107201990D01*
X123926540Y-107201983D01*
X123762667Y-107134106D01*
X123762658Y-107134103D01*
X123588694Y-107099500D01*
X123588691Y-107099500D01*
X123411309Y-107099500D01*
X123411306Y-107099500D01*
X123237341Y-107134103D01*
X123237332Y-107134106D01*
X123073459Y-107201983D01*
X123073446Y-107201990D01*
X122925965Y-107300535D01*
X122925961Y-107300538D01*
X122800538Y-107425961D01*
X122800535Y-107425965D01*
X122701990Y-107573446D01*
X122701983Y-107573459D01*
X122634106Y-107737332D01*
X122634103Y-107737341D01*
X122599500Y-107911304D01*
X122599500Y-108088695D01*
X122634103Y-108262658D01*
X122634106Y-108262667D01*
X122701983Y-108426540D01*
X122701990Y-108426553D01*
X122800535Y-108574034D01*
X122800538Y-108574038D01*
X122925961Y-108699461D01*
X122925965Y-108699464D01*
X123073446Y-108798009D01*
X123073459Y-108798016D01*
X123109065Y-108812764D01*
X123237334Y-108865894D01*
X123237338Y-108865894D01*
X123237339Y-108865895D01*
X123240180Y-108866460D01*
X123241531Y-108867166D01*
X123243167Y-108867663D01*
X123243072Y-108867973D01*
X123256938Y-108875225D01*
X123275421Y-108879246D01*
X123300451Y-108897984D01*
X123302092Y-108898842D01*
X123303675Y-108900397D01*
X123397630Y-108994352D01*
X123505648Y-109102370D01*
X123505649Y-109102371D01*
X123632656Y-109187235D01*
X123632662Y-109187238D01*
X123632663Y-109187239D01*
X123773795Y-109245698D01*
X123923615Y-109275499D01*
X123923619Y-109275500D01*
X123923620Y-109275500D01*
X139627416Y-109275500D01*
X139694455Y-109295185D01*
X139715097Y-109311819D01*
X142005644Y-111602367D01*
X142005648Y-111602370D01*
X142132656Y-111687235D01*
X142132665Y-111687240D01*
X142164636Y-111700482D01*
X142273795Y-111745698D01*
X142423615Y-111775499D01*
X142423619Y-111775500D01*
X142423620Y-111775500D01*
X142576380Y-111775500D01*
X151627416Y-111775500D01*
X151694455Y-111795185D01*
X151715097Y-111811819D01*
X155005643Y-115102367D01*
X155005651Y-115102373D01*
X155132660Y-115187238D01*
X155132665Y-115187240D01*
X155273795Y-115245698D01*
X155423615Y-115275499D01*
X155423619Y-115275500D01*
X155423620Y-115275500D01*
X176076381Y-115275500D01*
X176076382Y-115275499D01*
X176226205Y-115245698D01*
X176367337Y-115187239D01*
X176494352Y-115102370D01*
X190602370Y-100994352D01*
X190687239Y-100867337D01*
X190745698Y-100726205D01*
X190775500Y-100576380D01*
X190775500Y-100423620D01*
X190775500Y-94923620D01*
X190745698Y-94773795D01*
X190687239Y-94632663D01*
X190687238Y-94632662D01*
X190687235Y-94632656D01*
X190602371Y-94505649D01*
X190565615Y-94468893D01*
X190494352Y-94397630D01*
X190400397Y-94303675D01*
X190366912Y-94242352D01*
X190366460Y-94240180D01*
X190365895Y-94237339D01*
X190365894Y-94237338D01*
X190365894Y-94237334D01*
X190338741Y-94171781D01*
X190298016Y-94073459D01*
X190298009Y-94073446D01*
X190199464Y-93925965D01*
X190199461Y-93925961D01*
X190074038Y-93800538D01*
X190074034Y-93800535D01*
X189926553Y-93701990D01*
X189926540Y-93701983D01*
X189762667Y-93634106D01*
X189762658Y-93634103D01*
X189588694Y-93599500D01*
X189588691Y-93599500D01*
X189411309Y-93599500D01*
X189411306Y-93599500D01*
X189237341Y-93634103D01*
X189237332Y-93634106D01*
X189073459Y-93701983D01*
X189073446Y-93701990D01*
X188925965Y-93800535D01*
X188925961Y-93800538D01*
X188800538Y-93925961D01*
X188800535Y-93925965D01*
X188701990Y-94073446D01*
X188701983Y-94073459D01*
X188634106Y-94237332D01*
X188634103Y-94237341D01*
X188599500Y-94411304D01*
X188599500Y-94588695D01*
X188634103Y-94762658D01*
X188634106Y-94762667D01*
X188702608Y-94928048D01*
X188710077Y-94997518D01*
X188678801Y-95059997D01*
X188618712Y-95095648D01*
X188588047Y-95099500D01*
X188411306Y-95099500D01*
X188237341Y-95134103D01*
X188237332Y-95134106D01*
X188073459Y-95201983D01*
X188073446Y-95201990D01*
X187925965Y-95300535D01*
X187925961Y-95300538D01*
X187800538Y-95425961D01*
X187800535Y-95425965D01*
X187701990Y-95573446D01*
X187701983Y-95573459D01*
X187634106Y-95737332D01*
X187634103Y-95737341D01*
X187599500Y-95911304D01*
X187599500Y-96088695D01*
X187634103Y-96262658D01*
X187634106Y-96262667D01*
X187701984Y-96426542D01*
X187701987Y-96426547D01*
X187703600Y-96428961D01*
X187704056Y-96430418D01*
X187704859Y-96431920D01*
X187704574Y-96432072D01*
X187724480Y-96495638D01*
X187724500Y-96497855D01*
X187724500Y-99127415D01*
X187704815Y-99194454D01*
X187688181Y-99215096D01*
X174715097Y-112188181D01*
X174653774Y-112221666D01*
X174627416Y-112224500D01*
X165361018Y-112224500D01*
X165293979Y-112204815D01*
X165248224Y-112152011D01*
X165238280Y-112082853D01*
X165256607Y-112035022D01*
X165256420Y-112034922D01*
X165257218Y-112033428D01*
X165257915Y-112031610D01*
X165259290Y-112029551D01*
X165259293Y-112029547D01*
X165327174Y-111865666D01*
X165345110Y-111775499D01*
X165361779Y-111691695D01*
X165361780Y-111691693D01*
X165361780Y-111514306D01*
X165361779Y-111514304D01*
X165327176Y-111340341D01*
X165327173Y-111340332D01*
X165259296Y-111176459D01*
X165259289Y-111176446D01*
X165160744Y-111028965D01*
X165160741Y-111028961D01*
X165035318Y-110903538D01*
X165035314Y-110903535D01*
X164887833Y-110804990D01*
X164887820Y-110804983D01*
X164723947Y-110737106D01*
X164723938Y-110737103D01*
X164549974Y-110702500D01*
X164549971Y-110702500D01*
X164372589Y-110702500D01*
X164372586Y-110702500D01*
X164198621Y-110737103D01*
X164198612Y-110737106D01*
X164034739Y-110804983D01*
X164034726Y-110804990D01*
X163887245Y-110903535D01*
X163887241Y-110903538D01*
X163849601Y-110941180D01*
X163788279Y-110974666D01*
X163761919Y-110977500D01*
X163456023Y-110977500D01*
X163388984Y-110957815D01*
X163343229Y-110905011D01*
X163333285Y-110835853D01*
X163334406Y-110829308D01*
X163361780Y-110691693D01*
X163361780Y-110514306D01*
X163361779Y-110514304D01*
X163327176Y-110340341D01*
X163327173Y-110340333D01*
X163263761Y-110187239D01*
X163259296Y-110176459D01*
X163259289Y-110176446D01*
X163160744Y-110028965D01*
X163160741Y-110028961D01*
X163035318Y-109903538D01*
X163035314Y-109903535D01*
X162887833Y-109804990D01*
X162887820Y-109804983D01*
X162723947Y-109737106D01*
X162723938Y-109737103D01*
X162549974Y-109702500D01*
X162549971Y-109702500D01*
X162372589Y-109702500D01*
X162372586Y-109702500D01*
X162198621Y-109737103D01*
X162198612Y-109737106D01*
X162034739Y-109804983D01*
X162034726Y-109804990D01*
X161887245Y-109903535D01*
X161887241Y-109903538D01*
X161761818Y-110028961D01*
X161761815Y-110028965D01*
X161663270Y-110176446D01*
X161663263Y-110176459D01*
X161595386Y-110340332D01*
X161595386Y-110340333D01*
X161593455Y-110350039D01*
X161587955Y-110377691D01*
X161555571Y-110439602D01*
X161494855Y-110474176D01*
X161466338Y-110477500D01*
X158771732Y-110477500D01*
X158704693Y-110457815D01*
X158684051Y-110441181D01*
X153954430Y-105711560D01*
X153947140Y-105704270D01*
X153947138Y-105704267D01*
X153860013Y-105617142D01*
X153808789Y-105582915D01*
X153757566Y-105548688D01*
X153757563Y-105548686D01*
X153757560Y-105548685D01*
X153683883Y-105518168D01*
X153683881Y-105518167D01*
X153677072Y-105515347D01*
X153643732Y-105501537D01*
X153583309Y-105489518D01*
X153578586Y-105488578D01*
X153578584Y-105488578D01*
X153522890Y-105477500D01*
X153522887Y-105477500D01*
X153522886Y-105477500D01*
X151160641Y-105477500D01*
X151093602Y-105457815D01*
X151072959Y-105441180D01*
X151035318Y-105403538D01*
X151035314Y-105403535D01*
X150887833Y-105304990D01*
X150887820Y-105304983D01*
X150723947Y-105237106D01*
X150723938Y-105237103D01*
X150549974Y-105202500D01*
X150549971Y-105202500D01*
X150372589Y-105202500D01*
X150372586Y-105202500D01*
X150198621Y-105237103D01*
X150198612Y-105237106D01*
X150034739Y-105304983D01*
X150034726Y-105304990D01*
X149887245Y-105403535D01*
X149887241Y-105403538D01*
X149761818Y-105528961D01*
X149761815Y-105528965D01*
X149663270Y-105676446D01*
X149663263Y-105676459D01*
X149595386Y-105840332D01*
X149595383Y-105840341D01*
X149560780Y-106014304D01*
X149560780Y-106067548D01*
X149541095Y-106134587D01*
X149524461Y-106155229D01*
X148238509Y-107441181D01*
X148177186Y-107474666D01*
X148150828Y-107477500D01*
X146160641Y-107477500D01*
X146093602Y-107457815D01*
X146072959Y-107441180D01*
X146035318Y-107403538D01*
X146035314Y-107403535D01*
X145887833Y-107304990D01*
X145887820Y-107304983D01*
X145723947Y-107237106D01*
X145723938Y-107237103D01*
X145549974Y-107202500D01*
X145549971Y-107202500D01*
X145372589Y-107202500D01*
X145372586Y-107202500D01*
X145198621Y-107237103D01*
X145198612Y-107237106D01*
X145034739Y-107304983D01*
X145034726Y-107304990D01*
X144887245Y-107403535D01*
X144887241Y-107403538D01*
X144761818Y-107528961D01*
X144761815Y-107528965D01*
X144663270Y-107676446D01*
X144663263Y-107676459D01*
X144595386Y-107840332D01*
X144595383Y-107840341D01*
X144560780Y-108014304D01*
X144560780Y-108191695D01*
X144595383Y-108365658D01*
X144595386Y-108365667D01*
X144663263Y-108529540D01*
X144663269Y-108529551D01*
X144664645Y-108531610D01*
X144665034Y-108532853D01*
X144666140Y-108534922D01*
X144665747Y-108535131D01*
X144685522Y-108598288D01*
X144667037Y-108665668D01*
X144615057Y-108712358D01*
X144561542Y-108724500D01*
X143872584Y-108724500D01*
X143805545Y-108704815D01*
X143784903Y-108688181D01*
X141494355Y-106397632D01*
X141494351Y-106397629D01*
X141367343Y-106312764D01*
X141367334Y-106312759D01*
X141226205Y-106254302D01*
X141226197Y-106254300D01*
X141076384Y-106224500D01*
X141076380Y-106224500D01*
X125872584Y-106224500D01*
X125805545Y-106204815D01*
X125784903Y-106188181D01*
X122692620Y-103095898D01*
X122611026Y-103014304D01*
X130560780Y-103014304D01*
X130560780Y-103191695D01*
X130595383Y-103365658D01*
X130595386Y-103365667D01*
X130663263Y-103529540D01*
X130663270Y-103529553D01*
X130761815Y-103677034D01*
X130761818Y-103677038D01*
X130887241Y-103802461D01*
X130887245Y-103802464D01*
X131034726Y-103901009D01*
X131034739Y-103901016D01*
X131143359Y-103946007D01*
X131198614Y-103968894D01*
X131198616Y-103968894D01*
X131198621Y-103968896D01*
X131372584Y-104003499D01*
X131372587Y-104003500D01*
X131372589Y-104003500D01*
X131549973Y-104003500D01*
X131549974Y-104003499D01*
X131607962Y-103991964D01*
X131723938Y-103968896D01*
X131723941Y-103968894D01*
X131723946Y-103968894D01*
X131887827Y-103901013D01*
X132035315Y-103802464D01*
X132160744Y-103677035D01*
X132259293Y-103529547D01*
X132260508Y-103526615D01*
X132322564Y-103376795D01*
X132327174Y-103365666D01*
X132361780Y-103191691D01*
X132361780Y-103014309D01*
X132361780Y-103014306D01*
X132361779Y-103014304D01*
X132327176Y-102840341D01*
X132327173Y-102840332D01*
X132259296Y-102676459D01*
X132259289Y-102676446D01*
X132160744Y-102528965D01*
X132160741Y-102528961D01*
X132035318Y-102403538D01*
X132035314Y-102403535D01*
X131887833Y-102304990D01*
X131887820Y-102304983D01*
X131723947Y-102237106D01*
X131723938Y-102237103D01*
X131549974Y-102202500D01*
X131549971Y-102202500D01*
X131372589Y-102202500D01*
X131372586Y-102202500D01*
X131198621Y-102237103D01*
X131198612Y-102237106D01*
X131034739Y-102304983D01*
X131034726Y-102304990D01*
X130887245Y-102403535D01*
X130887241Y-102403538D01*
X130761818Y-102528961D01*
X130761815Y-102528965D01*
X130663270Y-102676446D01*
X130663263Y-102676459D01*
X130595386Y-102840332D01*
X130595383Y-102840341D01*
X130560780Y-103014304D01*
X122611026Y-103014304D01*
X118414355Y-98817632D01*
X118414351Y-98817629D01*
X118287343Y-98732764D01*
X118287334Y-98732759D01*
X118146205Y-98674302D01*
X118146197Y-98674300D01*
X117996384Y-98644500D01*
X117996380Y-98644500D01*
X115764500Y-98644500D01*
X115697461Y-98624815D01*
X115651706Y-98572011D01*
X115640500Y-98520500D01*
X115640500Y-98099995D01*
X115640499Y-98099982D01*
X115629999Y-97997203D01*
X115629999Y-97997202D01*
X115574814Y-97830665D01*
X115482712Y-97681344D01*
X115358656Y-97557288D01*
X115209335Y-97465186D01*
X115042798Y-97410001D01*
X115042796Y-97410000D01*
X114940017Y-97399500D01*
X114940010Y-97399500D01*
X113139990Y-97399500D01*
X113139982Y-97399500D01*
X113037203Y-97410000D01*
X113037202Y-97410001D01*
X112954669Y-97437349D01*
X112870667Y-97465185D01*
X112870662Y-97465187D01*
X112721342Y-97557289D01*
X112597289Y-97681342D01*
X112505187Y-97830662D01*
X112505185Y-97830667D01*
X112501979Y-97840343D01*
X112450001Y-97997202D01*
X112450001Y-97997203D01*
X112450000Y-97997203D01*
X112439500Y-98099982D01*
X112439500Y-98556424D01*
X112419815Y-98623463D01*
X112367011Y-98669218D01*
X112297853Y-98679162D01*
X112234297Y-98650137D01*
X112212398Y-98625315D01*
X112121789Y-98489711D01*
X112121786Y-98489707D01*
X112010292Y-98378213D01*
X112010288Y-98378210D01*
X111879185Y-98290609D01*
X111879172Y-98290602D01*
X111733501Y-98230264D01*
X111733489Y-98230261D01*
X111578845Y-98199500D01*
X111578842Y-98199500D01*
X111421158Y-98199500D01*
X111421155Y-98199500D01*
X111266510Y-98230261D01*
X111266498Y-98230264D01*
X111120827Y-98290602D01*
X111120814Y-98290609D01*
X110989711Y-98378210D01*
X110989707Y-98378213D01*
X110878213Y-98489707D01*
X110878210Y-98489711D01*
X110790609Y-98620814D01*
X110790602Y-98620827D01*
X110730264Y-98766498D01*
X110730261Y-98766510D01*
X110699500Y-98921153D01*
X109500500Y-98921153D01*
X109500500Y-95514304D01*
X134060780Y-95514304D01*
X134060780Y-95691695D01*
X134095383Y-95865658D01*
X134095386Y-95865667D01*
X134163263Y-96029540D01*
X134163270Y-96029553D01*
X134261815Y-96177034D01*
X134261818Y-96177038D01*
X134387241Y-96302461D01*
X134387245Y-96302464D01*
X134534726Y-96401009D01*
X134534739Y-96401016D01*
X134657643Y-96451923D01*
X134698614Y-96468894D01*
X134698616Y-96468894D01*
X134698621Y-96468896D01*
X134872584Y-96503499D01*
X134872587Y-96503500D01*
X134872589Y-96503500D01*
X135049973Y-96503500D01*
X135049974Y-96503499D01*
X135110530Y-96491454D01*
X135223938Y-96468896D01*
X135223941Y-96468894D01*
X135223946Y-96468894D01*
X135387827Y-96401013D01*
X135535315Y-96302464D01*
X135660744Y-96177035D01*
X135759293Y-96029547D01*
X135761237Y-96024855D01*
X135788547Y-95958920D01*
X135827174Y-95865666D01*
X135842292Y-95789666D01*
X135861779Y-95691695D01*
X135861780Y-95691693D01*
X135861780Y-95514306D01*
X135861779Y-95514304D01*
X135827176Y-95340341D01*
X135827173Y-95340332D01*
X135759296Y-95176459D01*
X135759289Y-95176446D01*
X135660744Y-95028965D01*
X135660741Y-95028961D01*
X135535318Y-94903538D01*
X135535314Y-94903535D01*
X135387833Y-94804990D01*
X135387820Y-94804983D01*
X135223947Y-94737106D01*
X135223938Y-94737103D01*
X135049974Y-94702500D01*
X135049971Y-94702500D01*
X134872589Y-94702500D01*
X134872586Y-94702500D01*
X134698621Y-94737103D01*
X134698612Y-94737106D01*
X134534739Y-94804983D01*
X134534726Y-94804990D01*
X134387245Y-94903535D01*
X134387241Y-94903538D01*
X134261818Y-95028961D01*
X134261815Y-95028965D01*
X134163270Y-95176446D01*
X134163263Y-95176459D01*
X134095386Y-95340332D01*
X134095383Y-95340341D01*
X134060780Y-95514304D01*
X109500500Y-95514304D01*
X109500500Y-86881153D01*
X110659500Y-86881153D01*
X110659500Y-87038846D01*
X110690261Y-87193489D01*
X110690264Y-87193501D01*
X110750602Y-87339172D01*
X110750609Y-87339185D01*
X110838210Y-87470288D01*
X110838213Y-87470292D01*
X110949707Y-87581786D01*
X110949711Y-87581789D01*
X111080814Y-87669390D01*
X111080827Y-87669397D01*
X111226498Y-87729735D01*
X111226503Y-87729737D01*
X111381153Y-87760499D01*
X111381156Y-87760500D01*
X111381158Y-87760500D01*
X111538844Y-87760500D01*
X111538845Y-87760499D01*
X111693497Y-87729737D01*
X111839179Y-87669394D01*
X111970289Y-87581789D01*
X112081789Y-87470289D01*
X112169394Y-87339179D01*
X112172398Y-87334684D01*
X112226010Y-87289879D01*
X112295335Y-87281172D01*
X112358363Y-87311326D01*
X112395082Y-87370770D01*
X112399500Y-87403575D01*
X112399500Y-87860017D01*
X112410000Y-87962796D01*
X112465185Y-88129332D01*
X112465187Y-88129337D01*
X112482442Y-88157311D01*
X112549778Y-88266481D01*
X112557289Y-88278657D01*
X112686128Y-88407496D01*
X112719613Y-88468819D01*
X112714629Y-88538511D01*
X112698767Y-88568058D01*
X112698765Y-88568063D01*
X112631128Y-88661158D01*
X112516760Y-88885616D01*
X112438910Y-89125211D01*
X112433642Y-89158472D01*
X112403711Y-89221606D01*
X112344398Y-89258536D01*
X112274536Y-89257536D01*
X112216304Y-89218925D01*
X112196610Y-89186527D01*
X112169394Y-89120821D01*
X112169390Y-89120814D01*
X112081789Y-88989711D01*
X112081786Y-88989707D01*
X111970292Y-88878213D01*
X111970288Y-88878210D01*
X111839185Y-88790609D01*
X111839172Y-88790602D01*
X111693501Y-88730264D01*
X111693489Y-88730261D01*
X111538845Y-88699500D01*
X111538842Y-88699500D01*
X111381158Y-88699500D01*
X111381155Y-88699500D01*
X111226510Y-88730261D01*
X111226498Y-88730264D01*
X111080827Y-88790602D01*
X111080814Y-88790609D01*
X110949711Y-88878210D01*
X110949707Y-88878213D01*
X110838213Y-88989707D01*
X110838210Y-88989711D01*
X110750609Y-89120814D01*
X110750602Y-89120827D01*
X110690264Y-89266498D01*
X110690261Y-89266510D01*
X110659500Y-89421153D01*
X110659500Y-89578846D01*
X110690261Y-89733489D01*
X110690264Y-89733501D01*
X110750602Y-89879172D01*
X110750609Y-89879185D01*
X110838210Y-90010288D01*
X110838213Y-90010292D01*
X110949707Y-90121786D01*
X110949711Y-90121789D01*
X111080814Y-90209390D01*
X111080827Y-90209397D01*
X111226498Y-90269735D01*
X111226503Y-90269737D01*
X111381153Y-90300499D01*
X111381156Y-90300500D01*
X111381158Y-90300500D01*
X111538844Y-90300500D01*
X111538845Y-90300499D01*
X111693497Y-90269737D01*
X111839179Y-90209394D01*
X111970289Y-90121789D01*
X112081789Y-90010289D01*
X112169394Y-89879179D01*
X112196609Y-89813475D01*
X112240447Y-89759073D01*
X112306741Y-89737007D01*
X112374440Y-89754285D01*
X112422052Y-89805421D01*
X112433642Y-89841528D01*
X112438910Y-89874787D01*
X112516760Y-90114383D01*
X112631132Y-90338848D01*
X112779201Y-90542649D01*
X112779205Y-90542654D01*
X112957345Y-90720794D01*
X112957350Y-90720798D01*
X113135117Y-90849952D01*
X113161155Y-90868870D01*
X113304184Y-90941747D01*
X113385616Y-90983239D01*
X113385618Y-90983239D01*
X113385621Y-90983241D01*
X113625215Y-91061090D01*
X113874038Y-91100500D01*
X113874039Y-91100500D01*
X114125961Y-91100500D01*
X114125962Y-91100500D01*
X114374785Y-91061090D01*
X114614379Y-90983241D01*
X114838845Y-90868870D01*
X115042656Y-90720793D01*
X115220793Y-90542656D01*
X115368870Y-90338845D01*
X115483241Y-90114379D01*
X115561090Y-89874785D01*
X115600500Y-89625962D01*
X115600500Y-89374038D01*
X115561090Y-89125215D01*
X115483241Y-88885621D01*
X115483239Y-88885618D01*
X115483239Y-88885616D01*
X115404081Y-88730261D01*
X115368870Y-88661155D01*
X115301233Y-88568060D01*
X115277754Y-88502257D01*
X115293579Y-88434203D01*
X115313871Y-88407495D01*
X115318650Y-88402715D01*
X115318656Y-88402712D01*
X115442712Y-88278656D01*
X115534814Y-88129335D01*
X115589999Y-87962798D01*
X115600500Y-87860010D01*
X115600500Y-86059990D01*
X115589999Y-85957202D01*
X115534814Y-85790665D01*
X115442712Y-85641344D01*
X115318656Y-85517288D01*
X115169335Y-85425186D01*
X115002798Y-85370001D01*
X115002796Y-85370000D01*
X114900017Y-85359500D01*
X114900010Y-85359500D01*
X113099990Y-85359500D01*
X113099982Y-85359500D01*
X112997203Y-85370000D01*
X112997202Y-85370001D01*
X112914669Y-85397349D01*
X112830667Y-85425185D01*
X112830662Y-85425187D01*
X112681342Y-85517289D01*
X112557289Y-85641342D01*
X112465187Y-85790662D01*
X112465186Y-85790665D01*
X112410001Y-85957202D01*
X112410001Y-85957203D01*
X112410000Y-85957203D01*
X112399500Y-86059982D01*
X112399500Y-86516424D01*
X112379815Y-86583463D01*
X112327011Y-86629218D01*
X112257853Y-86639162D01*
X112194297Y-86610137D01*
X112172398Y-86585315D01*
X112081789Y-86449711D01*
X112081786Y-86449707D01*
X111970292Y-86338213D01*
X111970288Y-86338210D01*
X111839185Y-86250609D01*
X111839172Y-86250602D01*
X111693501Y-86190264D01*
X111693489Y-86190261D01*
X111538845Y-86159500D01*
X111538842Y-86159500D01*
X111381158Y-86159500D01*
X111381155Y-86159500D01*
X111226510Y-86190261D01*
X111226498Y-86190264D01*
X111080827Y-86250602D01*
X111080814Y-86250609D01*
X110949711Y-86338210D01*
X110949707Y-86338213D01*
X110838213Y-86449707D01*
X110838210Y-86449711D01*
X110750609Y-86580814D01*
X110750602Y-86580827D01*
X110690264Y-86726498D01*
X110690261Y-86726510D01*
X110659500Y-86881153D01*
X109500500Y-86881153D01*
X109500500Y-83014304D01*
X137060780Y-83014304D01*
X137060780Y-83191695D01*
X137095383Y-83365658D01*
X137095386Y-83365667D01*
X137163263Y-83529540D01*
X137163270Y-83529553D01*
X137261815Y-83677034D01*
X137261818Y-83677038D01*
X137387241Y-83802461D01*
X137387245Y-83802464D01*
X137534726Y-83901009D01*
X137534739Y-83901016D01*
X137657643Y-83951923D01*
X137698614Y-83968894D01*
X137698616Y-83968894D01*
X137698621Y-83968896D01*
X137872584Y-84003499D01*
X137872587Y-84003500D01*
X137872589Y-84003500D01*
X138049973Y-84003500D01*
X138049974Y-84003499D01*
X138107962Y-83991964D01*
X138223938Y-83968896D01*
X138223941Y-83968894D01*
X138223946Y-83968894D01*
X138387827Y-83901013D01*
X138535315Y-83802464D01*
X138660744Y-83677035D01*
X138759293Y-83529547D01*
X138827174Y-83365666D01*
X138832212Y-83340341D01*
X138861779Y-83191695D01*
X138861780Y-83191693D01*
X138861780Y-83014306D01*
X138861779Y-83014304D01*
X138827176Y-82840341D01*
X138827173Y-82840332D01*
X138759296Y-82676459D01*
X138759289Y-82676446D01*
X138660744Y-82528965D01*
X138660741Y-82528961D01*
X138535318Y-82403538D01*
X138535314Y-82403535D01*
X138387833Y-82304990D01*
X138387820Y-82304983D01*
X138223947Y-82237106D01*
X138223938Y-82237103D01*
X138049974Y-82202500D01*
X138049971Y-82202500D01*
X137872589Y-82202500D01*
X137872586Y-82202500D01*
X137698621Y-82237103D01*
X137698612Y-82237106D01*
X137534739Y-82304983D01*
X137534726Y-82304990D01*
X137387245Y-82403535D01*
X137387241Y-82403538D01*
X137261818Y-82528961D01*
X137261815Y-82528965D01*
X137163270Y-82676446D01*
X137163263Y-82676459D01*
X137095386Y-82840332D01*
X137095383Y-82840341D01*
X137060780Y-83014304D01*
X109500500Y-83014304D01*
X109500500Y-80501992D01*
X114810780Y-80501992D01*
X114810780Y-80704004D01*
X114850187Y-80902119D01*
X114850189Y-80902127D01*
X114927492Y-81088752D01*
X114927497Y-81088762D01*
X115039721Y-81256718D01*
X115182561Y-81399558D01*
X115350517Y-81511782D01*
X115350521Y-81511784D01*
X115350524Y-81511786D01*
X115537153Y-81589091D01*
X115735272Y-81628499D01*
X115735276Y-81628500D01*
X115735277Y-81628500D01*
X115937284Y-81628500D01*
X115937285Y-81628499D01*
X116135407Y-81589091D01*
X116322036Y-81511786D01*
X116489998Y-81399558D01*
X116632838Y-81256718D01*
X116745066Y-81088756D01*
X116822371Y-80902127D01*
X116857912Y-80723451D01*
X116861780Y-80704004D01*
X116861780Y-80501996D01*
X116861779Y-80501992D01*
X116827568Y-80330000D01*
X116822371Y-80303873D01*
X116745066Y-80117244D01*
X116745064Y-80117241D01*
X116745062Y-80117237D01*
X116632838Y-79949281D01*
X116489998Y-79806441D01*
X116322042Y-79694217D01*
X116322032Y-79694212D01*
X116135407Y-79616909D01*
X116135399Y-79616907D01*
X115937287Y-79577500D01*
X115937283Y-79577500D01*
X115735277Y-79577500D01*
X115735272Y-79577500D01*
X115537160Y-79616907D01*
X115537152Y-79616909D01*
X115350527Y-79694212D01*
X115350517Y-79694217D01*
X115182561Y-79806441D01*
X115039721Y-79949281D01*
X114927497Y-80117237D01*
X114927492Y-80117247D01*
X114850189Y-80303872D01*
X114850187Y-80303880D01*
X114810780Y-80501992D01*
X109500500Y-80501992D01*
X109500500Y-77935675D01*
X124174500Y-77935675D01*
X124174500Y-78144324D01*
X124207137Y-78350389D01*
X124271612Y-78548820D01*
X124335552Y-78674309D01*
X124366330Y-78734714D01*
X124488965Y-78903505D01*
X124636495Y-79051035D01*
X124805286Y-79173670D01*
X124869550Y-79206414D01*
X124991179Y-79268387D01*
X124991181Y-79268387D01*
X124991184Y-79268389D01*
X125070299Y-79294095D01*
X125189610Y-79332862D01*
X125395676Y-79365500D01*
X125395681Y-79365500D01*
X125604324Y-79365500D01*
X125810389Y-79332862D01*
X126008816Y-79268389D01*
X126194714Y-79173670D01*
X126363505Y-79051035D01*
X126511035Y-78903505D01*
X126633670Y-78734714D01*
X126728389Y-78548816D01*
X126792862Y-78350389D01*
X126795070Y-78336446D01*
X126825500Y-78144324D01*
X126825500Y-77935675D01*
X126792862Y-77729610D01*
X126728387Y-77531179D01*
X126633669Y-77345285D01*
X126533358Y-77207220D01*
X126511035Y-77176495D01*
X126363510Y-77028970D01*
X126330025Y-76967647D01*
X126335009Y-76897955D01*
X126376881Y-76842022D01*
X126425432Y-76822923D01*
X126424832Y-76820380D01*
X126432379Y-76818596D01*
X126567086Y-76768354D01*
X126567093Y-76768350D01*
X126682187Y-76682190D01*
X126682190Y-76682187D01*
X126768350Y-76567093D01*
X126768354Y-76567086D01*
X126818596Y-76432379D01*
X126818598Y-76432372D01*
X126824999Y-76372844D01*
X126825000Y-76372827D01*
X126825000Y-75750000D01*
X125990748Y-75750000D01*
X126012518Y-75712292D01*
X126050000Y-75572409D01*
X126050000Y-75427591D01*
X126012518Y-75287708D01*
X125990748Y-75250000D01*
X126825000Y-75250000D01*
X126825000Y-74627172D01*
X126824999Y-74627155D01*
X126818598Y-74567627D01*
X126818596Y-74567620D01*
X126768354Y-74432913D01*
X126768350Y-74432906D01*
X126682190Y-74317812D01*
X126682187Y-74317809D01*
X126567093Y-74231649D01*
X126567086Y-74231645D01*
X126432379Y-74181403D01*
X126432372Y-74181401D01*
X126372844Y-74175000D01*
X125750000Y-74175000D01*
X125750000Y-75009252D01*
X125712292Y-74987482D01*
X125572409Y-74950000D01*
X125427591Y-74950000D01*
X125287708Y-74987482D01*
X125250000Y-75009252D01*
X125250000Y-74175000D01*
X124627155Y-74175000D01*
X124567627Y-74181401D01*
X124567620Y-74181403D01*
X124432913Y-74231645D01*
X124432906Y-74231649D01*
X124317812Y-74317809D01*
X124317809Y-74317812D01*
X124231649Y-74432906D01*
X124231645Y-74432913D01*
X124181403Y-74567620D01*
X124181401Y-74567627D01*
X124175000Y-74627155D01*
X124175000Y-75250000D01*
X125009252Y-75250000D01*
X124987482Y-75287708D01*
X124950000Y-75427591D01*
X124950000Y-75572409D01*
X124987482Y-75712292D01*
X125009252Y-75750000D01*
X124175000Y-75750000D01*
X124175000Y-76372844D01*
X124181401Y-76432372D01*
X124181403Y-76432379D01*
X124231645Y-76567086D01*
X124231649Y-76567093D01*
X124317809Y-76682187D01*
X124317812Y-76682190D01*
X124432906Y-76768350D01*
X124432913Y-76768354D01*
X124567620Y-76818596D01*
X124575168Y-76820380D01*
X124574511Y-76823158D01*
X124626603Y-76844728D01*
X124666458Y-76902116D01*
X124668960Y-76971941D01*
X124636490Y-77028970D01*
X124488964Y-77176496D01*
X124366330Y-77345285D01*
X124271612Y-77531179D01*
X124207137Y-77729610D01*
X124174500Y-77935675D01*
X109500500Y-77935675D01*
X109500500Y-74501992D01*
X114810780Y-74501992D01*
X114810780Y-74704007D01*
X114850187Y-74902119D01*
X114850189Y-74902127D01*
X114927492Y-75088752D01*
X114927497Y-75088762D01*
X115039721Y-75256718D01*
X115182561Y-75399558D01*
X115350517Y-75511782D01*
X115350521Y-75511784D01*
X115350524Y-75511786D01*
X115537153Y-75589091D01*
X115735272Y-75628499D01*
X115735276Y-75628500D01*
X115735277Y-75628500D01*
X115937284Y-75628500D01*
X115937285Y-75628499D01*
X116135407Y-75589091D01*
X116322036Y-75511786D01*
X116489998Y-75399558D01*
X116632838Y-75256718D01*
X116745066Y-75088756D01*
X116822371Y-74902127D01*
X116861780Y-74704003D01*
X116861780Y-74501997D01*
X116822371Y-74303873D01*
X116745066Y-74117244D01*
X116745064Y-74117241D01*
X116745062Y-74117237D01*
X116632838Y-73949281D01*
X116489998Y-73806441D01*
X116322042Y-73694217D01*
X116322032Y-73694212D01*
X116135407Y-73616909D01*
X116135399Y-73616907D01*
X115937287Y-73577500D01*
X115937283Y-73577500D01*
X115735277Y-73577500D01*
X115735272Y-73577500D01*
X115537160Y-73616907D01*
X115537152Y-73616909D01*
X115350527Y-73694212D01*
X115350517Y-73694217D01*
X115182561Y-73806441D01*
X115039721Y-73949281D01*
X114927497Y-74117237D01*
X114927492Y-74117247D01*
X114850189Y-74303872D01*
X114850187Y-74303880D01*
X114810780Y-74501992D01*
X109500500Y-74501992D01*
X109500500Y-67595675D01*
X113333500Y-67595675D01*
X113333500Y-67804324D01*
X113366137Y-68010389D01*
X113430612Y-68208820D01*
X113525330Y-68394714D01*
X113647965Y-68563505D01*
X113795495Y-68711035D01*
X113964286Y-68833670D01*
X113977379Y-68840341D01*
X114150179Y-68928387D01*
X114150181Y-68928387D01*
X114150184Y-68928389D01*
X114256545Y-68962948D01*
X114348610Y-68992862D01*
X114554676Y-69025500D01*
X114554681Y-69025500D01*
X114763324Y-69025500D01*
X114969389Y-68992862D01*
X115167816Y-68928389D01*
X115353714Y-68833670D01*
X115522505Y-68711035D01*
X115670035Y-68563505D01*
X115792670Y-68394714D01*
X115887389Y-68208816D01*
X115951862Y-68010389D01*
X115954916Y-67991106D01*
X115984500Y-67804324D01*
X115984500Y-67595675D01*
X115951862Y-67389610D01*
X115921948Y-67297545D01*
X115887389Y-67191184D01*
X115887387Y-67191181D01*
X115887387Y-67191179D01*
X115837421Y-67093116D01*
X115792670Y-67005286D01*
X115670035Y-66836495D01*
X115522510Y-66688970D01*
X115489025Y-66627647D01*
X115494009Y-66557955D01*
X115535881Y-66502022D01*
X115584432Y-66482923D01*
X115583832Y-66480380D01*
X115591379Y-66478596D01*
X115726086Y-66428354D01*
X115726093Y-66428350D01*
X115841187Y-66342190D01*
X115841190Y-66342187D01*
X115927350Y-66227093D01*
X115927354Y-66227086D01*
X115977596Y-66092379D01*
X115977598Y-66092372D01*
X115983999Y-66032844D01*
X115984000Y-66032827D01*
X115984000Y-65410000D01*
X115149748Y-65410000D01*
X115171518Y-65372292D01*
X115209000Y-65232409D01*
X115209000Y-65087591D01*
X115171518Y-64947708D01*
X115149748Y-64910000D01*
X115984000Y-64910000D01*
X115984000Y-64287172D01*
X115983999Y-64287155D01*
X115977598Y-64227627D01*
X115977596Y-64227620D01*
X115927354Y-64092913D01*
X115927350Y-64092906D01*
X115841190Y-63977812D01*
X115841187Y-63977809D01*
X115726093Y-63891649D01*
X115726086Y-63891645D01*
X115591379Y-63841403D01*
X115591372Y-63841401D01*
X115531844Y-63835000D01*
X114909000Y-63835000D01*
X114909000Y-64669252D01*
X114871292Y-64647482D01*
X114731409Y-64610000D01*
X114586591Y-64610000D01*
X114446708Y-64647482D01*
X114409000Y-64669252D01*
X114409000Y-63835000D01*
X113786155Y-63835000D01*
X113726627Y-63841401D01*
X113726620Y-63841403D01*
X113591913Y-63891645D01*
X113591906Y-63891649D01*
X113476812Y-63977809D01*
X113476809Y-63977812D01*
X113390649Y-64092906D01*
X113390645Y-64092913D01*
X113340403Y-64227620D01*
X113340401Y-64227627D01*
X113334000Y-64287155D01*
X113334000Y-64910000D01*
X114168252Y-64910000D01*
X114146482Y-64947708D01*
X114109000Y-65087591D01*
X114109000Y-65232409D01*
X114146482Y-65372292D01*
X114168252Y-65410000D01*
X113334000Y-65410000D01*
X113334000Y-66032844D01*
X113340401Y-66092372D01*
X113340403Y-66092379D01*
X113390645Y-66227086D01*
X113390649Y-66227093D01*
X113476809Y-66342187D01*
X113476812Y-66342190D01*
X113591906Y-66428350D01*
X113591913Y-66428354D01*
X113726620Y-66478596D01*
X113734168Y-66480380D01*
X113733511Y-66483158D01*
X113785603Y-66504728D01*
X113825458Y-66562116D01*
X113827960Y-66631941D01*
X113795490Y-66688970D01*
X113647964Y-66836496D01*
X113525330Y-67005285D01*
X113430612Y-67191179D01*
X113366137Y-67389610D01*
X113333500Y-67595675D01*
X109500500Y-67595675D01*
X109500500Y-50014304D01*
X111560780Y-50014304D01*
X111560780Y-50191695D01*
X111595383Y-50365658D01*
X111595386Y-50365667D01*
X111663263Y-50529540D01*
X111663270Y-50529553D01*
X111761815Y-50677034D01*
X111761818Y-50677038D01*
X111887241Y-50802461D01*
X111887245Y-50802464D01*
X112034726Y-50901009D01*
X112034739Y-50901016D01*
X112157643Y-50951923D01*
X112198614Y-50968894D01*
X112198616Y-50968894D01*
X112198621Y-50968896D01*
X112372584Y-51003499D01*
X112372587Y-51003500D01*
X112372589Y-51003500D01*
X112549973Y-51003500D01*
X112549974Y-51003499D01*
X112626366Y-50988304D01*
X112723938Y-50968896D01*
X112723941Y-50968894D01*
X112723946Y-50968894D01*
X112887827Y-50901013D01*
X113035315Y-50802464D01*
X113160744Y-50677035D01*
X113259293Y-50529547D01*
X113327174Y-50365666D01*
X113338901Y-50306714D01*
X113361779Y-50191695D01*
X113361780Y-50191693D01*
X113361780Y-50014306D01*
X113334406Y-49876692D01*
X113340633Y-49807100D01*
X113383496Y-49751923D01*
X113449385Y-49728678D01*
X113456023Y-49728500D01*
X115650828Y-49728500D01*
X115717867Y-49748185D01*
X115738509Y-49764819D01*
X116799461Y-50825771D01*
X116832946Y-50887094D01*
X116835780Y-50913452D01*
X116835780Y-51499220D01*
X116816095Y-51566259D01*
X116763291Y-51612014D01*
X116694133Y-51621958D01*
X116630577Y-51592933D01*
X116597219Y-51546673D01*
X116583787Y-51514247D01*
X116583786Y-51514244D01*
X116583784Y-51514241D01*
X116583782Y-51514237D01*
X116471558Y-51346281D01*
X116328718Y-51203441D01*
X116160762Y-51091217D01*
X116160752Y-51091212D01*
X115974127Y-51013909D01*
X115974119Y-51013907D01*
X115776007Y-50974500D01*
X115776003Y-50974500D01*
X115573997Y-50974500D01*
X115573992Y-50974500D01*
X115375880Y-51013907D01*
X115375872Y-51013909D01*
X115189247Y-51091212D01*
X115189237Y-51091217D01*
X115021281Y-51203441D01*
X114878441Y-51346281D01*
X114766217Y-51514237D01*
X114766212Y-51514247D01*
X114688909Y-51700872D01*
X114688907Y-51700880D01*
X114649500Y-51898992D01*
X114649500Y-52101007D01*
X114688907Y-52299119D01*
X114688909Y-52299127D01*
X114766212Y-52485752D01*
X114766217Y-52485762D01*
X114878441Y-52653718D01*
X115021281Y-52796558D01*
X115189237Y-52908782D01*
X115189241Y-52908784D01*
X115189244Y-52908786D01*
X115375873Y-52986091D01*
X115573992Y-53025499D01*
X115573996Y-53025500D01*
X115573997Y-53025500D01*
X115776004Y-53025500D01*
X115776005Y-53025499D01*
X115974127Y-52986091D01*
X116160756Y-52908786D01*
X116328718Y-52796558D01*
X116471558Y-52653718D01*
X116583786Y-52485756D01*
X116597219Y-52453327D01*
X116641060Y-52398923D01*
X116707354Y-52376858D01*
X116775053Y-52394137D01*
X116822664Y-52445274D01*
X116835780Y-52500779D01*
X116835780Y-57499220D01*
X116816095Y-57566259D01*
X116763291Y-57612014D01*
X116694133Y-57621958D01*
X116630577Y-57592933D01*
X116597219Y-57546673D01*
X116583787Y-57514247D01*
X116583786Y-57514244D01*
X116583784Y-57514241D01*
X116583782Y-57514237D01*
X116471558Y-57346281D01*
X116328718Y-57203441D01*
X116160762Y-57091217D01*
X116160752Y-57091212D01*
X115974127Y-57013909D01*
X115974119Y-57013907D01*
X115776007Y-56974500D01*
X115776003Y-56974500D01*
X115573997Y-56974500D01*
X115573992Y-56974500D01*
X115375880Y-57013907D01*
X115375872Y-57013909D01*
X115189247Y-57091212D01*
X115189237Y-57091217D01*
X115021281Y-57203441D01*
X114878441Y-57346281D01*
X114766217Y-57514237D01*
X114766212Y-57514247D01*
X114688909Y-57700872D01*
X114688907Y-57700880D01*
X114649500Y-57898992D01*
X114649500Y-58101007D01*
X114688907Y-58299119D01*
X114688909Y-58299127D01*
X114766212Y-58485752D01*
X114766217Y-58485762D01*
X114878441Y-58653718D01*
X115021281Y-58796558D01*
X115189237Y-58908782D01*
X115189241Y-58908784D01*
X115189244Y-58908786D01*
X115375873Y-58986091D01*
X115573992Y-59025499D01*
X115573996Y-59025500D01*
X115573997Y-59025500D01*
X115776004Y-59025500D01*
X115776005Y-59025499D01*
X115974127Y-58986091D01*
X116160756Y-58908786D01*
X116328718Y-58796558D01*
X116471558Y-58653718D01*
X116583786Y-58485756D01*
X116597219Y-58453327D01*
X116641060Y-58398923D01*
X116707354Y-58376858D01*
X116775053Y-58394137D01*
X116822664Y-58445274D01*
X116835780Y-58500779D01*
X116835780Y-69792548D01*
X116816095Y-69859587D01*
X116799461Y-69880229D01*
X115513509Y-71166181D01*
X115452186Y-71199666D01*
X115425828Y-71202500D01*
X115372586Y-71202500D01*
X115198621Y-71237103D01*
X115198612Y-71237106D01*
X115034739Y-71304983D01*
X115034726Y-71304990D01*
X114887245Y-71403535D01*
X114887241Y-71403538D01*
X114761818Y-71528961D01*
X114761815Y-71528965D01*
X114663270Y-71676446D01*
X114663263Y-71676459D01*
X114595386Y-71840332D01*
X114595383Y-71840341D01*
X114560780Y-72014304D01*
X114560780Y-72191695D01*
X114595383Y-72365658D01*
X114595386Y-72365667D01*
X114663263Y-72529540D01*
X114663270Y-72529553D01*
X114761815Y-72677034D01*
X114761818Y-72677038D01*
X114887241Y-72802461D01*
X114887245Y-72802464D01*
X115034726Y-72901009D01*
X115034739Y-72901016D01*
X115113157Y-72933497D01*
X115198614Y-72968894D01*
X115198616Y-72968894D01*
X115198621Y-72968896D01*
X115372584Y-73003499D01*
X115372587Y-73003500D01*
X115372589Y-73003500D01*
X115549973Y-73003500D01*
X115549974Y-73003499D01*
X115607962Y-72991964D01*
X115723938Y-72968896D01*
X115723941Y-72968894D01*
X115723946Y-72968894D01*
X115887827Y-72901013D01*
X116035315Y-72802464D01*
X116160744Y-72677035D01*
X116259293Y-72529547D01*
X116327174Y-72365666D01*
X116361780Y-72191691D01*
X116361780Y-72138451D01*
X116381465Y-72071412D01*
X116398094Y-72050775D01*
X117860009Y-70588860D01*
X117860013Y-70588858D01*
X117947138Y-70501733D01*
X117991747Y-70434971D01*
X118015592Y-70399286D01*
X118053615Y-70307488D01*
X118062743Y-70285452D01*
X118076189Y-70217850D01*
X118086780Y-70164607D01*
X118086780Y-70041393D01*
X118086780Y-67595675D01*
X124033500Y-67595675D01*
X124033500Y-67804324D01*
X124066137Y-68010389D01*
X124130612Y-68208820D01*
X124225330Y-68394714D01*
X124347965Y-68563505D01*
X124495495Y-68711035D01*
X124664286Y-68833670D01*
X124677379Y-68840341D01*
X124850179Y-68928387D01*
X124850181Y-68928387D01*
X124850184Y-68928389D01*
X124956545Y-68962948D01*
X125048610Y-68992862D01*
X125254676Y-69025500D01*
X125254681Y-69025500D01*
X125463324Y-69025500D01*
X125669389Y-68992862D01*
X125867816Y-68928389D01*
X126053714Y-68833670D01*
X126222505Y-68711035D01*
X126370035Y-68563505D01*
X126492670Y-68394714D01*
X126587389Y-68208816D01*
X126651862Y-68010389D01*
X126654916Y-67991106D01*
X126684500Y-67804324D01*
X126684500Y-67595675D01*
X134733500Y-67595675D01*
X134733500Y-67804324D01*
X134766137Y-68010389D01*
X134830612Y-68208820D01*
X134925330Y-68394714D01*
X135047965Y-68563505D01*
X135195495Y-68711035D01*
X135364286Y-68833670D01*
X135377379Y-68840341D01*
X135550179Y-68928387D01*
X135550181Y-68928387D01*
X135550184Y-68928389D01*
X135656545Y-68962948D01*
X135748610Y-68992862D01*
X135954676Y-69025500D01*
X135954681Y-69025500D01*
X136163324Y-69025500D01*
X136369389Y-68992862D01*
X136567816Y-68928389D01*
X136753714Y-68833670D01*
X136922505Y-68711035D01*
X137070035Y-68563505D01*
X137192670Y-68394714D01*
X137287389Y-68208816D01*
X137351862Y-68010389D01*
X137354916Y-67991106D01*
X137384500Y-67804324D01*
X137384500Y-67595675D01*
X145433500Y-67595675D01*
X145433500Y-67804324D01*
X145466137Y-68010389D01*
X145530612Y-68208820D01*
X145625330Y-68394714D01*
X145747965Y-68563505D01*
X145895495Y-68711035D01*
X146064286Y-68833670D01*
X146077379Y-68840341D01*
X146250179Y-68928387D01*
X146250181Y-68928387D01*
X146250184Y-68928389D01*
X146356545Y-68962948D01*
X146448610Y-68992862D01*
X146654676Y-69025500D01*
X146654681Y-69025500D01*
X146863324Y-69025500D01*
X147069389Y-68992862D01*
X147267816Y-68928389D01*
X147453714Y-68833670D01*
X147622505Y-68711035D01*
X147770035Y-68563505D01*
X147892670Y-68394714D01*
X147987389Y-68208816D01*
X148051862Y-68010389D01*
X148054916Y-67991106D01*
X148084500Y-67804324D01*
X148084500Y-67595675D01*
X148051862Y-67389610D01*
X148021948Y-67297545D01*
X147987389Y-67191184D01*
X147987387Y-67191181D01*
X147987387Y-67191179D01*
X147937421Y-67093116D01*
X147892670Y-67005286D01*
X147770035Y-66836495D01*
X147622510Y-66688970D01*
X147589025Y-66627647D01*
X147594009Y-66557955D01*
X147635881Y-66502022D01*
X147684432Y-66482923D01*
X147683832Y-66480380D01*
X147691379Y-66478596D01*
X147826086Y-66428354D01*
X147826093Y-66428350D01*
X147941187Y-66342190D01*
X147941190Y-66342187D01*
X148027350Y-66227093D01*
X148027354Y-66227086D01*
X148077596Y-66092379D01*
X148077598Y-66092372D01*
X148083999Y-66032844D01*
X148084000Y-66032827D01*
X148084000Y-65410000D01*
X147249748Y-65410000D01*
X147271518Y-65372292D01*
X147309000Y-65232409D01*
X147309000Y-65087591D01*
X147271518Y-64947708D01*
X147249748Y-64910000D01*
X148084000Y-64910000D01*
X148084000Y-64287172D01*
X148083999Y-64287155D01*
X148077598Y-64227627D01*
X148077596Y-64227620D01*
X148027354Y-64092913D01*
X148027350Y-64092906D01*
X147941190Y-63977812D01*
X147941187Y-63977809D01*
X147826093Y-63891649D01*
X147826086Y-63891645D01*
X147691379Y-63841403D01*
X147691372Y-63841401D01*
X147631844Y-63835000D01*
X147009000Y-63835000D01*
X147009000Y-64669252D01*
X146971292Y-64647482D01*
X146831409Y-64610000D01*
X146686591Y-64610000D01*
X146546708Y-64647482D01*
X146509000Y-64669252D01*
X146509000Y-63835000D01*
X145886155Y-63835000D01*
X145826627Y-63841401D01*
X145826620Y-63841403D01*
X145691913Y-63891645D01*
X145691906Y-63891649D01*
X145576812Y-63977809D01*
X145576809Y-63977812D01*
X145490649Y-64092906D01*
X145490645Y-64092913D01*
X145440403Y-64227620D01*
X145440401Y-64227627D01*
X145434000Y-64287155D01*
X145434000Y-64910000D01*
X146268252Y-64910000D01*
X146246482Y-64947708D01*
X146209000Y-65087591D01*
X146209000Y-65232409D01*
X146246482Y-65372292D01*
X146268252Y-65410000D01*
X145434000Y-65410000D01*
X145434000Y-66032844D01*
X145440401Y-66092372D01*
X145440403Y-66092379D01*
X145490645Y-66227086D01*
X145490649Y-66227093D01*
X145576809Y-66342187D01*
X145576812Y-66342190D01*
X145691906Y-66428350D01*
X145691913Y-66428354D01*
X145826620Y-66478596D01*
X145834168Y-66480380D01*
X145833511Y-66483158D01*
X145885603Y-66504728D01*
X145925458Y-66562116D01*
X145927960Y-66631941D01*
X145895490Y-66688970D01*
X145747964Y-66836496D01*
X145625330Y-67005285D01*
X145530612Y-67191179D01*
X145466137Y-67389610D01*
X145433500Y-67595675D01*
X137384500Y-67595675D01*
X137351862Y-67389610D01*
X137321948Y-67297545D01*
X137287389Y-67191184D01*
X137287387Y-67191181D01*
X137287387Y-67191179D01*
X137237421Y-67093116D01*
X137192670Y-67005286D01*
X137070035Y-66836495D01*
X136922510Y-66688970D01*
X136889025Y-66627647D01*
X136894009Y-66557955D01*
X136935881Y-66502022D01*
X136984432Y-66482923D01*
X136983832Y-66480380D01*
X136991379Y-66478596D01*
X137126086Y-66428354D01*
X137126093Y-66428350D01*
X137241187Y-66342190D01*
X137241190Y-66342187D01*
X137327350Y-66227093D01*
X137327354Y-66227086D01*
X137377596Y-66092379D01*
X137377598Y-66092372D01*
X137383999Y-66032844D01*
X137384000Y-66032827D01*
X137384000Y-65410000D01*
X136549748Y-65410000D01*
X136571518Y-65372292D01*
X136609000Y-65232409D01*
X136609000Y-65087591D01*
X136571518Y-64947708D01*
X136549748Y-64910000D01*
X137384000Y-64910000D01*
X137384000Y-64287172D01*
X137383999Y-64287155D01*
X137377598Y-64227627D01*
X137377596Y-64227620D01*
X137327354Y-64092913D01*
X137327350Y-64092906D01*
X137241190Y-63977812D01*
X137241187Y-63977809D01*
X137126093Y-63891649D01*
X137126086Y-63891645D01*
X136991379Y-63841403D01*
X136991372Y-63841401D01*
X136931844Y-63835000D01*
X136309000Y-63835000D01*
X136309000Y-64669252D01*
X136271292Y-64647482D01*
X136131409Y-64610000D01*
X135986591Y-64610000D01*
X135846708Y-64647482D01*
X135809000Y-64669252D01*
X135809000Y-63835000D01*
X135186155Y-63835000D01*
X135126627Y-63841401D01*
X135126620Y-63841403D01*
X134991913Y-63891645D01*
X134991906Y-63891649D01*
X134876812Y-63977809D01*
X134876809Y-63977812D01*
X134790649Y-64092906D01*
X134790645Y-64092913D01*
X134740403Y-64227620D01*
X134740401Y-64227627D01*
X134734000Y-64287155D01*
X134734000Y-64910000D01*
X135568252Y-64910000D01*
X135546482Y-64947708D01*
X135509000Y-65087591D01*
X135509000Y-65232409D01*
X135546482Y-65372292D01*
X135568252Y-65410000D01*
X134734000Y-65410000D01*
X134734000Y-66032844D01*
X134740401Y-66092372D01*
X134740403Y-66092379D01*
X134790645Y-66227086D01*
X134790649Y-66227093D01*
X134876809Y-66342187D01*
X134876812Y-66342190D01*
X134991906Y-66428350D01*
X134991913Y-66428354D01*
X135126620Y-66478596D01*
X135134168Y-66480380D01*
X135133511Y-66483158D01*
X135185603Y-66504728D01*
X135225458Y-66562116D01*
X135227960Y-66631941D01*
X135195490Y-66688970D01*
X135047964Y-66836496D01*
X134925330Y-67005285D01*
X134830612Y-67191179D01*
X134766137Y-67389610D01*
X134733500Y-67595675D01*
X126684500Y-67595675D01*
X126651862Y-67389610D01*
X126621948Y-67297545D01*
X126587389Y-67191184D01*
X126587387Y-67191181D01*
X126587387Y-67191179D01*
X126537421Y-67093116D01*
X126492670Y-67005286D01*
X126370035Y-66836495D01*
X126222510Y-66688970D01*
X126189025Y-66627647D01*
X126194009Y-66557955D01*
X126235881Y-66502022D01*
X126284432Y-66482923D01*
X126283832Y-66480380D01*
X126291379Y-66478596D01*
X126426086Y-66428354D01*
X126426093Y-66428350D01*
X126541187Y-66342190D01*
X126541190Y-66342187D01*
X126627350Y-66227093D01*
X126627354Y-66227086D01*
X126677596Y-66092379D01*
X126677598Y-66092372D01*
X126683999Y-66032844D01*
X126684000Y-66032827D01*
X126684000Y-65410000D01*
X125849748Y-65410000D01*
X125871518Y-65372292D01*
X125909000Y-65232409D01*
X125909000Y-65087591D01*
X125871518Y-64947708D01*
X125849748Y-64910000D01*
X126684000Y-64910000D01*
X126684000Y-64287172D01*
X126683999Y-64287155D01*
X126677598Y-64227627D01*
X126677596Y-64227620D01*
X126627354Y-64092913D01*
X126627350Y-64092906D01*
X126541190Y-63977812D01*
X126541187Y-63977809D01*
X126426093Y-63891649D01*
X126426086Y-63891645D01*
X126291379Y-63841403D01*
X126291372Y-63841401D01*
X126231844Y-63835000D01*
X125609000Y-63835000D01*
X125609000Y-64669252D01*
X125571292Y-64647482D01*
X125431409Y-64610000D01*
X125286591Y-64610000D01*
X125146708Y-64647482D01*
X125109000Y-64669252D01*
X125109000Y-63835000D01*
X124486155Y-63835000D01*
X124426627Y-63841401D01*
X124426620Y-63841403D01*
X124291913Y-63891645D01*
X124291906Y-63891649D01*
X124176812Y-63977809D01*
X124176809Y-63977812D01*
X124090649Y-64092906D01*
X124090645Y-64092913D01*
X124040403Y-64227620D01*
X124040401Y-64227627D01*
X124034000Y-64287155D01*
X124034000Y-64910000D01*
X124868252Y-64910000D01*
X124846482Y-64947708D01*
X124809000Y-65087591D01*
X124809000Y-65232409D01*
X124846482Y-65372292D01*
X124868252Y-65410000D01*
X124034000Y-65410000D01*
X124034000Y-66032844D01*
X124040401Y-66092372D01*
X124040403Y-66092379D01*
X124090645Y-66227086D01*
X124090649Y-66227093D01*
X124176809Y-66342187D01*
X124176812Y-66342190D01*
X124291906Y-66428350D01*
X124291913Y-66428354D01*
X124426620Y-66478596D01*
X124434168Y-66480380D01*
X124433511Y-66483158D01*
X124485603Y-66504728D01*
X124525458Y-66562116D01*
X124527960Y-66631941D01*
X124495490Y-66688970D01*
X124347964Y-66836496D01*
X124225330Y-67005285D01*
X124130612Y-67191179D01*
X124066137Y-67389610D01*
X124033500Y-67595675D01*
X118086780Y-67595675D01*
X118086780Y-57898992D01*
X125349500Y-57898992D01*
X125349500Y-58101007D01*
X125388907Y-58299119D01*
X125388909Y-58299127D01*
X125466212Y-58485752D01*
X125466217Y-58485762D01*
X125578441Y-58653718D01*
X125721281Y-58796558D01*
X125889237Y-58908782D01*
X125889241Y-58908784D01*
X125889244Y-58908786D01*
X126075873Y-58986091D01*
X126273992Y-59025499D01*
X126273996Y-59025500D01*
X126273997Y-59025500D01*
X126476004Y-59025500D01*
X126476005Y-59025499D01*
X126674127Y-58986091D01*
X126860756Y-58908786D01*
X127028718Y-58796558D01*
X127171558Y-58653718D01*
X127283786Y-58485756D01*
X127361091Y-58299127D01*
X127400500Y-58101003D01*
X127400500Y-57898997D01*
X127400499Y-57898992D01*
X136049500Y-57898992D01*
X136049500Y-58101007D01*
X136088907Y-58299119D01*
X136088909Y-58299127D01*
X136166212Y-58485752D01*
X136166217Y-58485762D01*
X136278441Y-58653718D01*
X136421281Y-58796558D01*
X136589237Y-58908782D01*
X136589241Y-58908784D01*
X136589244Y-58908786D01*
X136775873Y-58986091D01*
X136973992Y-59025499D01*
X136973996Y-59025500D01*
X136973997Y-59025500D01*
X137176004Y-59025500D01*
X137176005Y-59025499D01*
X137374127Y-58986091D01*
X137560756Y-58908786D01*
X137728718Y-58796558D01*
X137871558Y-58653718D01*
X137983786Y-58485756D01*
X138061091Y-58299127D01*
X138100500Y-58101003D01*
X138100500Y-57898997D01*
X138061091Y-57700873D01*
X137983786Y-57514244D01*
X137983784Y-57514241D01*
X137983782Y-57514237D01*
X137871558Y-57346281D01*
X137728718Y-57203441D01*
X137560762Y-57091217D01*
X137560752Y-57091212D01*
X137374127Y-57013909D01*
X137374119Y-57013907D01*
X137176007Y-56974500D01*
X137176003Y-56974500D01*
X136973997Y-56974500D01*
X136973992Y-56974500D01*
X136775880Y-57013907D01*
X136775872Y-57013909D01*
X136589247Y-57091212D01*
X136589237Y-57091217D01*
X136421281Y-57203441D01*
X136278441Y-57346281D01*
X136166217Y-57514237D01*
X136166212Y-57514247D01*
X136088909Y-57700872D01*
X136088907Y-57700880D01*
X136049500Y-57898992D01*
X127400499Y-57898992D01*
X127361091Y-57700873D01*
X127283786Y-57514244D01*
X127283784Y-57514241D01*
X127283782Y-57514237D01*
X127171558Y-57346281D01*
X127028718Y-57203441D01*
X126860762Y-57091217D01*
X126860752Y-57091212D01*
X126674127Y-57013909D01*
X126674119Y-57013907D01*
X126476007Y-56974500D01*
X126476003Y-56974500D01*
X126273997Y-56974500D01*
X126273992Y-56974500D01*
X126075880Y-57013907D01*
X126075872Y-57013909D01*
X125889247Y-57091212D01*
X125889237Y-57091217D01*
X125721281Y-57203441D01*
X125578441Y-57346281D01*
X125466217Y-57514237D01*
X125466212Y-57514247D01*
X125388909Y-57700872D01*
X125388907Y-57700880D01*
X125349500Y-57898992D01*
X118086780Y-57898992D01*
X118086780Y-50988304D01*
X118960780Y-50988304D01*
X118960780Y-51165695D01*
X118995383Y-51339658D01*
X118995386Y-51339667D01*
X119063263Y-51503540D01*
X119063270Y-51503553D01*
X119161815Y-51651034D01*
X119161818Y-51651038D01*
X119287241Y-51776461D01*
X119287245Y-51776464D01*
X119434726Y-51875009D01*
X119434739Y-51875016D01*
X119557643Y-51925923D01*
X119598614Y-51942894D01*
X119598616Y-51942894D01*
X119598621Y-51942896D01*
X119772584Y-51977499D01*
X119772587Y-51977500D01*
X119772589Y-51977500D01*
X119949973Y-51977500D01*
X119949974Y-51977499D01*
X120007962Y-51965964D01*
X120123938Y-51942896D01*
X120123941Y-51942894D01*
X120123946Y-51942894D01*
X120229936Y-51898992D01*
X125349500Y-51898992D01*
X125349500Y-52101007D01*
X125388907Y-52299119D01*
X125388909Y-52299127D01*
X125466212Y-52485752D01*
X125466217Y-52485762D01*
X125578441Y-52653718D01*
X125721281Y-52796558D01*
X125889237Y-52908782D01*
X125889241Y-52908784D01*
X125889244Y-52908786D01*
X126075873Y-52986091D01*
X126273992Y-53025499D01*
X126273996Y-53025500D01*
X126273997Y-53025500D01*
X126476004Y-53025500D01*
X126476005Y-53025499D01*
X126674127Y-52986091D01*
X126860756Y-52908786D01*
X127028718Y-52796558D01*
X127171558Y-52653718D01*
X127283786Y-52485756D01*
X127361091Y-52299127D01*
X127400500Y-52101003D01*
X127400500Y-51898997D01*
X127361091Y-51700873D01*
X127283786Y-51514244D01*
X127283784Y-51514241D01*
X127283782Y-51514237D01*
X127171558Y-51346281D01*
X127028718Y-51203441D01*
X126860762Y-51091217D01*
X126860752Y-51091212D01*
X126674127Y-51013909D01*
X126674119Y-51013907D01*
X126476007Y-50974500D01*
X126476003Y-50974500D01*
X126273997Y-50974500D01*
X126273992Y-50974500D01*
X126075880Y-51013907D01*
X126075872Y-51013909D01*
X125889247Y-51091212D01*
X125889237Y-51091217D01*
X125721281Y-51203441D01*
X125578441Y-51346281D01*
X125466217Y-51514237D01*
X125466212Y-51514247D01*
X125388909Y-51700872D01*
X125388907Y-51700880D01*
X125349500Y-51898992D01*
X120229936Y-51898992D01*
X120287827Y-51875013D01*
X120287833Y-51875009D01*
X120415353Y-51789803D01*
X120415353Y-51789802D01*
X120435312Y-51776466D01*
X120435311Y-51776466D01*
X120435315Y-51776464D01*
X120560744Y-51651035D01*
X120659293Y-51503547D01*
X120727174Y-51339666D01*
X120761780Y-51165691D01*
X120761780Y-50988309D01*
X120761780Y-50988306D01*
X120761779Y-50988304D01*
X120727176Y-50814341D01*
X120727173Y-50814332D01*
X120659296Y-50650459D01*
X120659289Y-50650446D01*
X120560744Y-50502965D01*
X120560741Y-50502961D01*
X120523099Y-50465319D01*
X120489614Y-50403996D01*
X120486780Y-50377638D01*
X120486780Y-40699452D01*
X120506465Y-40632413D01*
X120523099Y-40611771D01*
X122035370Y-39099500D01*
X123574971Y-37559898D01*
X123636292Y-37526415D01*
X123682047Y-37525108D01*
X123698823Y-37527765D01*
X123810794Y-37545500D01*
X123810799Y-37545500D01*
X123999766Y-37545500D01*
X124186398Y-37515940D01*
X124190347Y-37514657D01*
X124366112Y-37457547D01*
X124534479Y-37371760D01*
X124687353Y-37260690D01*
X124820970Y-37127073D01*
X124932040Y-36974199D01*
X125017827Y-36805832D01*
X125057349Y-36684195D01*
X125096787Y-36626521D01*
X125161146Y-36599323D01*
X125229992Y-36611238D01*
X125281468Y-36658482D01*
X125293210Y-36684194D01*
X125304822Y-36719930D01*
X125332734Y-36805836D01*
X125408188Y-36953922D01*
X125418520Y-36974199D01*
X125529590Y-37127073D01*
X125663207Y-37260690D01*
X125788667Y-37351842D01*
X125831331Y-37407171D01*
X125839780Y-37452159D01*
X125839780Y-43146547D01*
X125820095Y-43213586D01*
X125803461Y-43234228D01*
X122764550Y-46273139D01*
X122764547Y-46273142D01*
X122720984Y-46316704D01*
X122677422Y-46360266D01*
X122650134Y-46401106D01*
X122650133Y-46401105D01*
X122608969Y-46462712D01*
X122608965Y-46462719D01*
X122597045Y-46491499D01*
X122561819Y-46576541D01*
X122561815Y-46576555D01*
X122537780Y-46697389D01*
X122537780Y-49475638D01*
X122518095Y-49542677D01*
X122501461Y-49563319D01*
X122463818Y-49600961D01*
X122463815Y-49600965D01*
X122365270Y-49748446D01*
X122365263Y-49748459D01*
X122297386Y-49912332D01*
X122297383Y-49912341D01*
X122262780Y-50086304D01*
X122262780Y-50263695D01*
X122297383Y-50437658D01*
X122297386Y-50437667D01*
X122365263Y-50601540D01*
X122365270Y-50601553D01*
X122463815Y-50749034D01*
X122463818Y-50749038D01*
X122589241Y-50874461D01*
X122589245Y-50874464D01*
X122736726Y-50973009D01*
X122736739Y-50973016D01*
X122859643Y-51023923D01*
X122900614Y-51040894D01*
X122900616Y-51040894D01*
X122900621Y-51040896D01*
X123074584Y-51075499D01*
X123074587Y-51075500D01*
X123074589Y-51075500D01*
X123251973Y-51075500D01*
X123251974Y-51075499D01*
X123309962Y-51063964D01*
X123425938Y-51040896D01*
X123425941Y-51040894D01*
X123425946Y-51040894D01*
X123589827Y-50973013D01*
X123737315Y-50874464D01*
X123862744Y-50749035D01*
X123961293Y-50601547D01*
X124029174Y-50437666D01*
X124035872Y-50403996D01*
X124055222Y-50306714D01*
X124063780Y-50263691D01*
X124063780Y-50086309D01*
X124063780Y-50086306D01*
X124063779Y-50086304D01*
X124029176Y-49912341D01*
X124029173Y-49912332D01*
X123961296Y-49748459D01*
X123961289Y-49748446D01*
X123862744Y-49600965D01*
X123862741Y-49600961D01*
X123825099Y-49563319D01*
X123791614Y-49501996D01*
X123788780Y-49475638D01*
X123788780Y-47432304D01*
X124548780Y-47432304D01*
X124548780Y-47609695D01*
X124583383Y-47783658D01*
X124583386Y-47783667D01*
X124651263Y-47947540D01*
X124651270Y-47947553D01*
X124749815Y-48095034D01*
X124749818Y-48095038D01*
X124875241Y-48220461D01*
X124875245Y-48220464D01*
X125022726Y-48319009D01*
X125022739Y-48319016D01*
X125145643Y-48369923D01*
X125186614Y-48386894D01*
X125186616Y-48386894D01*
X125186621Y-48386896D01*
X125360584Y-48421499D01*
X125360587Y-48421500D01*
X125360589Y-48421500D01*
X125537973Y-48421500D01*
X125537974Y-48421499D01*
X125595962Y-48409964D01*
X125711938Y-48386896D01*
X125711941Y-48386894D01*
X125711946Y-48386894D01*
X125875827Y-48319013D01*
X125875833Y-48319009D01*
X125878245Y-48317398D01*
X125879704Y-48316941D01*
X125881207Y-48316138D01*
X125881359Y-48316422D01*
X125896291Y-48311747D01*
X125912201Y-48301523D01*
X125943162Y-48297071D01*
X125944923Y-48296520D01*
X125947136Y-48296500D01*
X126092696Y-48296500D01*
X126159735Y-48316185D01*
X126180377Y-48332819D01*
X126591924Y-48744367D01*
X126591928Y-48744370D01*
X126718936Y-48829235D01*
X126718942Y-48829238D01*
X126718943Y-48829239D01*
X126860075Y-48887698D01*
X127009895Y-48917499D01*
X127009899Y-48917500D01*
X127009900Y-48917500D01*
X127162661Y-48917500D01*
X130777696Y-48917500D01*
X130844735Y-48937185D01*
X130865377Y-48953819D01*
X142226923Y-60315367D01*
X142226924Y-60315368D01*
X142226927Y-60315370D01*
X142351520Y-60398620D01*
X142351521Y-60398621D01*
X142351525Y-60398625D01*
X142351526Y-60398624D01*
X142353943Y-60400239D01*
X142495075Y-60458698D01*
X142644895Y-60488499D01*
X142644899Y-60488500D01*
X142644900Y-60488500D01*
X149460696Y-60488500D01*
X149527735Y-60508185D01*
X149548377Y-60524819D01*
X150545461Y-61521903D01*
X150578946Y-61583226D01*
X150581780Y-61609584D01*
X150581780Y-70813321D01*
X150562095Y-70880360D01*
X150530667Y-70913638D01*
X150518270Y-70922644D01*
X150374919Y-71065995D01*
X150255772Y-71229990D01*
X150163738Y-71410615D01*
X150101092Y-71603419D01*
X150069380Y-71803640D01*
X150069380Y-72006359D01*
X150098734Y-72191695D01*
X150101093Y-72206584D01*
X150163474Y-72398574D01*
X150163738Y-72399384D01*
X150255772Y-72580009D01*
X150374919Y-72744004D01*
X150518275Y-72887360D01*
X150630502Y-72968896D01*
X150682274Y-73006510D01*
X150862898Y-73098543D01*
X151055696Y-73161187D01*
X151255920Y-73192900D01*
X151255921Y-73192900D01*
X151458639Y-73192900D01*
X151458640Y-73192900D01*
X151658864Y-73161187D01*
X151689462Y-73151244D01*
X151759301Y-73149248D01*
X151819134Y-73185328D01*
X151849963Y-73248028D01*
X151851780Y-73269175D01*
X151851780Y-80930415D01*
X151843135Y-80959855D01*
X151836612Y-80989842D01*
X151832857Y-80994857D01*
X151832095Y-80997454D01*
X151815461Y-81018096D01*
X151698961Y-81134596D01*
X151637638Y-81168081D01*
X151567946Y-81163097D01*
X151523599Y-81134596D01*
X148549635Y-78160632D01*
X148549631Y-78160629D01*
X148422623Y-78075764D01*
X148422614Y-78075759D01*
X148281485Y-78017302D01*
X148281477Y-78017300D01*
X148131664Y-77987500D01*
X148131660Y-77987500D01*
X146013136Y-77987500D01*
X145946097Y-77967815D01*
X145944245Y-77966602D01*
X145941830Y-77964988D01*
X145941827Y-77964987D01*
X145777947Y-77897106D01*
X145777938Y-77897103D01*
X145603974Y-77862500D01*
X145603971Y-77862500D01*
X145426589Y-77862500D01*
X145426586Y-77862500D01*
X145252621Y-77897103D01*
X145252612Y-77897106D01*
X145088739Y-77964983D01*
X145088726Y-77964990D01*
X144941245Y-78063535D01*
X144941241Y-78063538D01*
X144815818Y-78188961D01*
X144815815Y-78188965D01*
X144717270Y-78336446D01*
X144717263Y-78336459D01*
X144649386Y-78500332D01*
X144649383Y-78500341D01*
X144614780Y-78674304D01*
X144614780Y-78851695D01*
X144649383Y-79025658D01*
X144649386Y-79025667D01*
X144717263Y-79189540D01*
X144717270Y-79189553D01*
X144815815Y-79337034D01*
X144815818Y-79337038D01*
X144941241Y-79462461D01*
X144941245Y-79462464D01*
X145088726Y-79561009D01*
X145088739Y-79561016D01*
X145211643Y-79611923D01*
X145252614Y-79628894D01*
X145252616Y-79628894D01*
X145252621Y-79628896D01*
X145426584Y-79663499D01*
X145426587Y-79663500D01*
X145426589Y-79663500D01*
X145603973Y-79663500D01*
X145603974Y-79663499D01*
X145661962Y-79651964D01*
X145777938Y-79628896D01*
X145777941Y-79628894D01*
X145777946Y-79628894D01*
X145941827Y-79561013D01*
X145941833Y-79561009D01*
X145944245Y-79559398D01*
X145945704Y-79558941D01*
X145947207Y-79558138D01*
X145947359Y-79558422D01*
X146010923Y-79538520D01*
X146013136Y-79538500D01*
X147682696Y-79538500D01*
X147749735Y-79558185D01*
X147770377Y-79574819D01*
X150710882Y-82515325D01*
X150744367Y-82576648D01*
X150744818Y-82578812D01*
X150745385Y-82581663D01*
X150745386Y-82581668D01*
X150813263Y-82745540D01*
X150813270Y-82745553D01*
X150911815Y-82893034D01*
X150911818Y-82893038D01*
X151037241Y-83018461D01*
X151037245Y-83018464D01*
X151184726Y-83117009D01*
X151184739Y-83117016D01*
X151299627Y-83164603D01*
X151348614Y-83184894D01*
X151348616Y-83184894D01*
X151348621Y-83184896D01*
X151522584Y-83219499D01*
X151522587Y-83219500D01*
X151522589Y-83219500D01*
X151699973Y-83219500D01*
X151699974Y-83219499D01*
X151757962Y-83207964D01*
X151873938Y-83184896D01*
X151873941Y-83184894D01*
X151873946Y-83184894D01*
X152037827Y-83117013D01*
X152037833Y-83117009D01*
X152040245Y-83115398D01*
X152041704Y-83114941D01*
X152043207Y-83114138D01*
X152043359Y-83114422D01*
X152106923Y-83094520D01*
X152109136Y-83094500D01*
X155556696Y-83094500D01*
X155623735Y-83114185D01*
X155644377Y-83130819D01*
X160251876Y-87738318D01*
X160285361Y-87799641D01*
X160280377Y-87869333D01*
X160251876Y-87913680D01*
X155139777Y-93025779D01*
X155078454Y-93059264D01*
X155008762Y-93054280D01*
X155004643Y-93052659D01*
X154885485Y-93003302D01*
X154885477Y-93003300D01*
X154735664Y-92973500D01*
X154735660Y-92973500D01*
X153633136Y-92973500D01*
X153566097Y-92953815D01*
X153564245Y-92952602D01*
X153561830Y-92950988D01*
X153561827Y-92950987D01*
X153397947Y-92883106D01*
X153397938Y-92883103D01*
X153223974Y-92848500D01*
X153223971Y-92848500D01*
X153046589Y-92848500D01*
X153046586Y-92848500D01*
X152872621Y-92883103D01*
X152872612Y-92883106D01*
X152708739Y-92950983D01*
X152708726Y-92950990D01*
X152561245Y-93049535D01*
X152561241Y-93049538D01*
X152435818Y-93174961D01*
X152435815Y-93174965D01*
X152337270Y-93322446D01*
X152337263Y-93322459D01*
X152269386Y-93486332D01*
X152269383Y-93486341D01*
X152234780Y-93660304D01*
X152234780Y-93692547D01*
X152228541Y-93713792D01*
X152226962Y-93735881D01*
X152218889Y-93746664D01*
X152215095Y-93759586D01*
X152198361Y-93774085D01*
X152185090Y-93791814D01*
X152172469Y-93796521D01*
X152162291Y-93805341D01*
X152140373Y-93808492D01*
X152119626Y-93816231D01*
X152106465Y-93813368D01*
X152093133Y-93815285D01*
X152072989Y-93806085D01*
X152051353Y-93801379D01*
X152033627Y-93788110D01*
X152029577Y-93786260D01*
X152023099Y-93780228D01*
X151898099Y-93655228D01*
X151864614Y-93593905D01*
X151861780Y-93567547D01*
X151861780Y-93514306D01*
X151861779Y-93514304D01*
X151827176Y-93340341D01*
X151827173Y-93340332D01*
X151819767Y-93322453D01*
X151810203Y-93299363D01*
X151759296Y-93176459D01*
X151759289Y-93176446D01*
X151660744Y-93028965D01*
X151660741Y-93028961D01*
X151535318Y-92903538D01*
X151535314Y-92903535D01*
X151387833Y-92804990D01*
X151387820Y-92804983D01*
X151223947Y-92737106D01*
X151223938Y-92737103D01*
X151049974Y-92702500D01*
X151049971Y-92702500D01*
X150872589Y-92702500D01*
X150872586Y-92702500D01*
X150698621Y-92737103D01*
X150698612Y-92737106D01*
X150534739Y-92804983D01*
X150534726Y-92804990D01*
X150387245Y-92903535D01*
X150387241Y-92903538D01*
X150261818Y-93028961D01*
X150261815Y-93028965D01*
X150163270Y-93176446D01*
X150163263Y-93176459D01*
X150095386Y-93340332D01*
X150095383Y-93340341D01*
X150060780Y-93514304D01*
X150060780Y-93691695D01*
X150095383Y-93865658D01*
X150095386Y-93865667D01*
X150163263Y-94029540D01*
X150163270Y-94029553D01*
X150261815Y-94177034D01*
X150261818Y-94177038D01*
X150387241Y-94302461D01*
X150387245Y-94302464D01*
X150534726Y-94401009D01*
X150534739Y-94401016D01*
X150657643Y-94451923D01*
X150698614Y-94468894D01*
X150698616Y-94468894D01*
X150698621Y-94468896D01*
X150872584Y-94503499D01*
X150872587Y-94503500D01*
X150872589Y-94503500D01*
X150925828Y-94503500D01*
X150992867Y-94523185D01*
X151013509Y-94539819D01*
X151600835Y-95127146D01*
X151634320Y-95188469D01*
X151629336Y-95258161D01*
X151627716Y-95262278D01*
X151595386Y-95340332D01*
X151595384Y-95340336D01*
X151560780Y-95514304D01*
X151560780Y-95691695D01*
X151595383Y-95865658D01*
X151595386Y-95865667D01*
X151663263Y-96029540D01*
X151663270Y-96029553D01*
X151761815Y-96177034D01*
X151761818Y-96177038D01*
X151887241Y-96302461D01*
X151887245Y-96302464D01*
X152034726Y-96401009D01*
X152034739Y-96401016D01*
X152157643Y-96451923D01*
X152198614Y-96468894D01*
X152198616Y-96468894D01*
X152198621Y-96468896D01*
X152372584Y-96503499D01*
X152372587Y-96503500D01*
X152372589Y-96503500D01*
X152549973Y-96503500D01*
X152549974Y-96503499D01*
X152610530Y-96491454D01*
X152723938Y-96468896D01*
X152723941Y-96468894D01*
X152723946Y-96468894D01*
X152887827Y-96401013D01*
X153035315Y-96302464D01*
X153160744Y-96177035D01*
X153259293Y-96029547D01*
X153261237Y-96024855D01*
X153288547Y-95958920D01*
X153327174Y-95865666D01*
X153342292Y-95789666D01*
X153361779Y-95691695D01*
X153361780Y-95691693D01*
X153361780Y-95514306D01*
X153361779Y-95514304D01*
X153327176Y-95340341D01*
X153327173Y-95340332D01*
X153259296Y-95176459D01*
X153259289Y-95176446D01*
X153160745Y-95028966D01*
X153129297Y-94997518D01*
X153087545Y-94955766D01*
X153082915Y-94948836D01*
X153078677Y-94945894D01*
X153060668Y-94915540D01*
X153055695Y-94903535D01*
X153040010Y-94865666D01*
X153021489Y-94820952D01*
X153014020Y-94751483D01*
X153045296Y-94689004D01*
X153105385Y-94653352D01*
X153136050Y-94649500D01*
X153223973Y-94649500D01*
X153223974Y-94649499D01*
X153308651Y-94632656D01*
X153397938Y-94614896D01*
X153397941Y-94614894D01*
X153397946Y-94614894D01*
X153561827Y-94547013D01*
X153561830Y-94547011D01*
X153564245Y-94545398D01*
X153565704Y-94544941D01*
X153567207Y-94544138D01*
X153567359Y-94544422D01*
X153582291Y-94539747D01*
X153598201Y-94529523D01*
X153629162Y-94525071D01*
X153630923Y-94524520D01*
X153633136Y-94524500D01*
X153759780Y-94524500D01*
X153826819Y-94544185D01*
X153872574Y-94596989D01*
X153883780Y-94648500D01*
X153883780Y-96170416D01*
X153864095Y-96237455D01*
X153847461Y-96258097D01*
X151580377Y-98525181D01*
X151519054Y-98558666D01*
X151492696Y-98561500D01*
X151347136Y-98561500D01*
X151280097Y-98541815D01*
X151278245Y-98540602D01*
X151275830Y-98538988D01*
X151275827Y-98538987D01*
X151111947Y-98471106D01*
X151111938Y-98471103D01*
X150937974Y-98436500D01*
X150937971Y-98436500D01*
X150760589Y-98436500D01*
X150760586Y-98436500D01*
X150586621Y-98471103D01*
X150586612Y-98471106D01*
X150422739Y-98538983D01*
X150422726Y-98538990D01*
X150275245Y-98637535D01*
X150275241Y-98637538D01*
X150149818Y-98762961D01*
X150149815Y-98762965D01*
X150051270Y-98910446D01*
X150051263Y-98910459D01*
X149983386Y-99074332D01*
X149983383Y-99074341D01*
X149948780Y-99248304D01*
X149948780Y-99425695D01*
X149983383Y-99599658D01*
X149983386Y-99599667D01*
X150051263Y-99763540D01*
X150051270Y-99763553D01*
X150149815Y-99911034D01*
X150149818Y-99911038D01*
X150275241Y-100036461D01*
X150275245Y-100036464D01*
X150422726Y-100135009D01*
X150422739Y-100135016D01*
X150505599Y-100169337D01*
X150586614Y-100202894D01*
X150586616Y-100202894D01*
X150586621Y-100202896D01*
X150760584Y-100237499D01*
X150760587Y-100237500D01*
X150760589Y-100237500D01*
X150937973Y-100237500D01*
X150937974Y-100237499D01*
X150995962Y-100225964D01*
X151111938Y-100202896D01*
X151111941Y-100202894D01*
X151111946Y-100202894D01*
X151246154Y-100147304D01*
X164543780Y-100147304D01*
X164543780Y-100324695D01*
X164578383Y-100498658D01*
X164578386Y-100498667D01*
X164646263Y-100662540D01*
X164646270Y-100662553D01*
X164744815Y-100810034D01*
X164744818Y-100810038D01*
X164870241Y-100935461D01*
X164870245Y-100935464D01*
X165017726Y-101034009D01*
X165017739Y-101034016D01*
X165140643Y-101084923D01*
X165181614Y-101101894D01*
X165181616Y-101101894D01*
X165181621Y-101101896D01*
X165355584Y-101136499D01*
X165355587Y-101136500D01*
X165355589Y-101136500D01*
X165532973Y-101136500D01*
X165532974Y-101136499D01*
X165590962Y-101124964D01*
X165706938Y-101101896D01*
X165706941Y-101101894D01*
X165706946Y-101101894D01*
X165870827Y-101034013D01*
X166018315Y-100935464D01*
X166143744Y-100810035D01*
X166242293Y-100662547D01*
X166264861Y-100608062D01*
X166310170Y-100498676D01*
X166310170Y-100498674D01*
X166310174Y-100498666D01*
X166310739Y-100495821D01*
X166311445Y-100494471D01*
X166311940Y-100492842D01*
X166312248Y-100492935D01*
X166343118Y-100433910D01*
X166344620Y-100432380D01*
X169485650Y-97291353D01*
X169528369Y-97227418D01*
X169570518Y-97164339D01*
X169570519Y-97164337D01*
X169628978Y-97023205D01*
X169658780Y-96873380D01*
X169658780Y-96024855D01*
X169678465Y-95957816D01*
X169679680Y-95955961D01*
X169679734Y-95955878D01*
X169681293Y-95953547D01*
X169749174Y-95789666D01*
X169783780Y-95615691D01*
X169783780Y-95438309D01*
X169783780Y-95438306D01*
X169783779Y-95438304D01*
X169749176Y-95264341D01*
X169749173Y-95264332D01*
X169681296Y-95100459D01*
X169681289Y-95100446D01*
X169582744Y-94952965D01*
X169582741Y-94952961D01*
X169457318Y-94827538D01*
X169457314Y-94827535D01*
X169309833Y-94728990D01*
X169309820Y-94728983D01*
X169145947Y-94661106D01*
X169145938Y-94661103D01*
X168971974Y-94626500D01*
X168971971Y-94626500D01*
X168794589Y-94626500D01*
X168794586Y-94626500D01*
X168620621Y-94661103D01*
X168620612Y-94661106D01*
X168456739Y-94728983D01*
X168456726Y-94728990D01*
X168309245Y-94827535D01*
X168309241Y-94827538D01*
X168183818Y-94952961D01*
X168183815Y-94952965D01*
X168085270Y-95100446D01*
X168085263Y-95100459D01*
X168017386Y-95264332D01*
X168017383Y-95264341D01*
X167982780Y-95438304D01*
X167982780Y-95615695D01*
X168017383Y-95789658D01*
X168017386Y-95789667D01*
X168085264Y-95953542D01*
X168085267Y-95953547D01*
X168086880Y-95955961D01*
X168087336Y-95957418D01*
X168088139Y-95958920D01*
X168087854Y-95959072D01*
X168107760Y-96022638D01*
X168107780Y-96024855D01*
X168107780Y-96424415D01*
X168088095Y-96491454D01*
X168071461Y-96512096D01*
X165247954Y-99335602D01*
X165186631Y-99369087D01*
X165184469Y-99369537D01*
X165181623Y-99370103D01*
X165181611Y-99370106D01*
X165017739Y-99437983D01*
X165017726Y-99437990D01*
X164870245Y-99536535D01*
X164870241Y-99536538D01*
X164744818Y-99661961D01*
X164744815Y-99661965D01*
X164646270Y-99809446D01*
X164646263Y-99809459D01*
X164578386Y-99973332D01*
X164578383Y-99973341D01*
X164543780Y-100147304D01*
X151246154Y-100147304D01*
X151275827Y-100135013D01*
X151275833Y-100135009D01*
X151278245Y-100133398D01*
X151279704Y-100132941D01*
X151281207Y-100132138D01*
X151281359Y-100132422D01*
X151344923Y-100112520D01*
X151347136Y-100112500D01*
X151941661Y-100112500D01*
X151941662Y-100112499D01*
X152091485Y-100082698D01*
X152232617Y-100024239D01*
X152359632Y-99939370D01*
X155261650Y-97037352D01*
X155346519Y-96910337D01*
X155404978Y-96769205D01*
X155434780Y-96619380D01*
X155434780Y-96466620D01*
X155434780Y-94975584D01*
X155454465Y-94908545D01*
X155471099Y-94887903D01*
X161348599Y-89010403D01*
X161409922Y-88976918D01*
X161479614Y-88981902D01*
X161523961Y-89010403D01*
X164680882Y-92167324D01*
X164714367Y-92228647D01*
X164714818Y-92230814D01*
X164715383Y-92233659D01*
X164715386Y-92233668D01*
X164783263Y-92397540D01*
X164783270Y-92397553D01*
X164881815Y-92545034D01*
X164881818Y-92545038D01*
X165007241Y-92670461D01*
X165007245Y-92670464D01*
X165154726Y-92769009D01*
X165154739Y-92769016D01*
X165241590Y-92804990D01*
X165318614Y-92836894D01*
X165318616Y-92836894D01*
X165318621Y-92836896D01*
X165492584Y-92871499D01*
X165492587Y-92871500D01*
X165492589Y-92871500D01*
X165669973Y-92871500D01*
X165669974Y-92871499D01*
X165727962Y-92859964D01*
X165843938Y-92836896D01*
X165843941Y-92836894D01*
X165843946Y-92836894D01*
X166007827Y-92769013D01*
X166155315Y-92670464D01*
X166280744Y-92545035D01*
X166379293Y-92397547D01*
X166379796Y-92396334D01*
X166447173Y-92233668D01*
X166447174Y-92233666D01*
X166447174Y-92233661D01*
X166447176Y-92233658D01*
X166481779Y-92059695D01*
X166481780Y-92059693D01*
X166481780Y-91882306D01*
X166481779Y-91882304D01*
X166447176Y-91708341D01*
X166447173Y-91708332D01*
X166379296Y-91544459D01*
X166379289Y-91544446D01*
X166280744Y-91396965D01*
X166280741Y-91396961D01*
X166155318Y-91271538D01*
X166155314Y-91271535D01*
X166007833Y-91172990D01*
X166007820Y-91172983D01*
X165843948Y-91105106D01*
X165843939Y-91105103D01*
X165841094Y-91104538D01*
X165839740Y-91103830D01*
X165838112Y-91103336D01*
X165838205Y-91103027D01*
X165779183Y-91072153D01*
X165777604Y-91070602D01*
X161581632Y-86874630D01*
X156423635Y-81716632D01*
X156423631Y-81716629D01*
X156296623Y-81631764D01*
X156296614Y-81631759D01*
X156155485Y-81573302D01*
X156155477Y-81573300D01*
X156005664Y-81543500D01*
X156005660Y-81543500D01*
X153521229Y-81543500D01*
X153454190Y-81523815D01*
X153408435Y-81471011D01*
X153398491Y-81401853D01*
X153399612Y-81395309D01*
X153402779Y-81379383D01*
X153402780Y-81379381D01*
X153402780Y-71803640D01*
X155149380Y-71803640D01*
X155149380Y-72006359D01*
X155178734Y-72191695D01*
X155181093Y-72206584D01*
X155243474Y-72398574D01*
X155243738Y-72399384D01*
X155335772Y-72580009D01*
X155454919Y-72744004D01*
X155598273Y-72887358D01*
X155610662Y-72896358D01*
X155653330Y-72951686D01*
X155661780Y-72996678D01*
X155661780Y-79655384D01*
X155691580Y-79805197D01*
X155691582Y-79805205D01*
X155750039Y-79946334D01*
X155750044Y-79946343D01*
X155834909Y-80073351D01*
X155834912Y-80073355D01*
X175649461Y-99887903D01*
X175682946Y-99949226D01*
X175685780Y-99975584D01*
X175685780Y-102294866D01*
X175666095Y-102361905D01*
X175613291Y-102407660D01*
X175609235Y-102409426D01*
X175593946Y-102415759D01*
X175593945Y-102415759D01*
X175466927Y-102500629D01*
X175466924Y-102500632D01*
X175058691Y-102908867D01*
X174966928Y-103000630D01*
X174912918Y-103054640D01*
X174858908Y-103108649D01*
X174774044Y-103235656D01*
X174774039Y-103235665D01*
X174715582Y-103376794D01*
X174715580Y-103376802D01*
X174685780Y-103526615D01*
X174685780Y-103605144D01*
X174666095Y-103672183D01*
X174664882Y-103674035D01*
X174663268Y-103676449D01*
X174663267Y-103676452D01*
X174595386Y-103840332D01*
X174595383Y-103840341D01*
X174560780Y-104014304D01*
X174560780Y-104191695D01*
X174595383Y-104365658D01*
X174595386Y-104365667D01*
X174663263Y-104529540D01*
X174663270Y-104529553D01*
X174761815Y-104677034D01*
X174761818Y-104677038D01*
X174887241Y-104802461D01*
X174887245Y-104802464D01*
X175034726Y-104901009D01*
X175034739Y-104901016D01*
X175157643Y-104951923D01*
X175198614Y-104968894D01*
X175198616Y-104968894D01*
X175198621Y-104968896D01*
X175372584Y-105003499D01*
X175372587Y-105003500D01*
X175372589Y-105003500D01*
X175549973Y-105003500D01*
X175549974Y-105003499D01*
X175607962Y-104991964D01*
X175723938Y-104968896D01*
X175723941Y-104968894D01*
X175723946Y-104968894D01*
X175887827Y-104901013D01*
X176035315Y-104802464D01*
X176160744Y-104677035D01*
X176259293Y-104529547D01*
X176327174Y-104365666D01*
X176361780Y-104191691D01*
X176361780Y-104014309D01*
X176361780Y-104008217D01*
X176363035Y-104008217D01*
X176374834Y-103946007D01*
X176422899Y-103895297D01*
X176485217Y-103878500D01*
X181037661Y-103878500D01*
X181037662Y-103878499D01*
X181187485Y-103848698D01*
X181328617Y-103790239D01*
X181455632Y-103705370D01*
X186157605Y-99003395D01*
X186218926Y-98969912D01*
X186221052Y-98969469D01*
X186223946Y-98968894D01*
X186365054Y-98910446D01*
X186387820Y-98901016D01*
X186387820Y-98901015D01*
X186387827Y-98901013D01*
X186535315Y-98802464D01*
X186660744Y-98677035D01*
X186759293Y-98529547D01*
X186761102Y-98525181D01*
X186797834Y-98436500D01*
X186827174Y-98365666D01*
X186842105Y-98290606D01*
X186854107Y-98230264D01*
X186861780Y-98191691D01*
X186861780Y-98014309D01*
X186861780Y-98014306D01*
X186861779Y-98014304D01*
X186827176Y-97840341D01*
X186827173Y-97840332D01*
X186759296Y-97676459D01*
X186759289Y-97676446D01*
X186660744Y-97528965D01*
X186660741Y-97528961D01*
X186535318Y-97403538D01*
X186535314Y-97403535D01*
X186387833Y-97304990D01*
X186387820Y-97304983D01*
X186223947Y-97237106D01*
X186223938Y-97237103D01*
X186049974Y-97202500D01*
X186049971Y-97202500D01*
X185872589Y-97202500D01*
X185872586Y-97202500D01*
X185698621Y-97237103D01*
X185698612Y-97237106D01*
X185534739Y-97304983D01*
X185534726Y-97304990D01*
X185387245Y-97403535D01*
X185387241Y-97403538D01*
X185261818Y-97528961D01*
X185261815Y-97528965D01*
X185163270Y-97676446D01*
X185163263Y-97676459D01*
X185095386Y-97840331D01*
X185095383Y-97840343D01*
X185094817Y-97843189D01*
X185094109Y-97844541D01*
X185093616Y-97846168D01*
X185093307Y-97846074D01*
X185062430Y-97905099D01*
X185060882Y-97906674D01*
X180676377Y-102291181D01*
X180615054Y-102324666D01*
X180588696Y-102327500D01*
X177360780Y-102327500D01*
X177293741Y-102307815D01*
X177247986Y-102255011D01*
X177236780Y-102203500D01*
X177236780Y-99526619D01*
X177236779Y-99526615D01*
X177207452Y-99379179D01*
X177206978Y-99376795D01*
X177148519Y-99235663D01*
X177120544Y-99193795D01*
X177063650Y-99108647D01*
X177063648Y-99108644D01*
X169469308Y-91514304D01*
X182060780Y-91514304D01*
X182060780Y-91691695D01*
X182095383Y-91865658D01*
X182095386Y-91865667D01*
X182163263Y-92029540D01*
X182163270Y-92029553D01*
X182261815Y-92177034D01*
X182261818Y-92177038D01*
X182350099Y-92265319D01*
X182383584Y-92326642D01*
X182378600Y-92396334D01*
X182350099Y-92440681D01*
X182261818Y-92528961D01*
X182261815Y-92528965D01*
X182163270Y-92676446D01*
X182163263Y-92676459D01*
X182095386Y-92840332D01*
X182095383Y-92840341D01*
X182060780Y-93014304D01*
X182060780Y-93191695D01*
X182095383Y-93365658D01*
X182095386Y-93365667D01*
X182163263Y-93529540D01*
X182163270Y-93529553D01*
X182261815Y-93677034D01*
X182261818Y-93677038D01*
X182350099Y-93765319D01*
X182383584Y-93826642D01*
X182378600Y-93896334D01*
X182350099Y-93940681D01*
X182261818Y-94028961D01*
X182261815Y-94028965D01*
X182163270Y-94176446D01*
X182163263Y-94176459D01*
X182095386Y-94340332D01*
X182095383Y-94340341D01*
X182060780Y-94514304D01*
X182060780Y-94691695D01*
X182095383Y-94865658D01*
X182095386Y-94865667D01*
X182163263Y-95029540D01*
X182163270Y-95029553D01*
X182261815Y-95177034D01*
X182261818Y-95177038D01*
X182387241Y-95302461D01*
X182387245Y-95302464D01*
X182534726Y-95401009D01*
X182534739Y-95401016D01*
X182624762Y-95438304D01*
X182698614Y-95468894D01*
X182698616Y-95468894D01*
X182698621Y-95468896D01*
X182872584Y-95503499D01*
X182872587Y-95503500D01*
X182872589Y-95503500D01*
X183049973Y-95503500D01*
X183049974Y-95503499D01*
X183107962Y-95491964D01*
X183223938Y-95468896D01*
X183223941Y-95468894D01*
X183223946Y-95468894D01*
X183387827Y-95401013D01*
X183535315Y-95302464D01*
X183660744Y-95177035D01*
X183759293Y-95029547D01*
X183827174Y-94865666D01*
X183838901Y-94806714D01*
X183861779Y-94691695D01*
X183861780Y-94691693D01*
X183861780Y-94638452D01*
X183881465Y-94571413D01*
X183898099Y-94550771D01*
X189447134Y-89001737D01*
X189447137Y-89001734D01*
X189515591Y-88899286D01*
X189521254Y-88885616D01*
X189524323Y-88878208D01*
X189547195Y-88822987D01*
X189562743Y-88785452D01*
X189586780Y-88664606D01*
X189586780Y-69802361D01*
X189606465Y-69735322D01*
X189623100Y-69714679D01*
X189660741Y-69677038D01*
X189660744Y-69677035D01*
X189759293Y-69529547D01*
X189827174Y-69365666D01*
X189833764Y-69332539D01*
X189861779Y-69191695D01*
X189861780Y-69191693D01*
X189861780Y-69014306D01*
X189861779Y-69014304D01*
X189827176Y-68840341D01*
X189827173Y-68840332D01*
X189759296Y-68676459D01*
X189759289Y-68676446D01*
X189660744Y-68528965D01*
X189660741Y-68528961D01*
X189535318Y-68403538D01*
X189535314Y-68403535D01*
X189387833Y-68304990D01*
X189387820Y-68304983D01*
X189223947Y-68237106D01*
X189223938Y-68237103D01*
X189049974Y-68202500D01*
X189049971Y-68202500D01*
X188872589Y-68202500D01*
X188872584Y-68202500D01*
X188734971Y-68229873D01*
X188665379Y-68223646D01*
X188610202Y-68180783D01*
X188586958Y-68114893D01*
X188586780Y-68108256D01*
X188586780Y-67302361D01*
X188606465Y-67235322D01*
X188623100Y-67214679D01*
X188660741Y-67177038D01*
X188660744Y-67177035D01*
X188759293Y-67029547D01*
X188827174Y-66865666D01*
X188832977Y-66836496D01*
X188861779Y-66691695D01*
X188861780Y-66691693D01*
X188861780Y-66514306D01*
X188861779Y-66514304D01*
X188827176Y-66340341D01*
X188827173Y-66340332D01*
X188759296Y-66176459D01*
X188759289Y-66176446D01*
X188660744Y-66028965D01*
X188660741Y-66028961D01*
X188535318Y-65903538D01*
X188535314Y-65903535D01*
X188387833Y-65804990D01*
X188387820Y-65804983D01*
X188223947Y-65737106D01*
X188223938Y-65737103D01*
X188049974Y-65702500D01*
X188049971Y-65702500D01*
X187872589Y-65702500D01*
X187872584Y-65702500D01*
X187734971Y-65729873D01*
X187665379Y-65723646D01*
X187610202Y-65680783D01*
X187586958Y-65614893D01*
X187586780Y-65608256D01*
X187586780Y-65302361D01*
X187606465Y-65235322D01*
X187623100Y-65214679D01*
X187660741Y-65177038D01*
X187660744Y-65177035D01*
X187759293Y-65029547D01*
X187827174Y-64865666D01*
X187861780Y-64691691D01*
X187861780Y-64514309D01*
X187861780Y-64514306D01*
X187861779Y-64514304D01*
X187827176Y-64340341D01*
X187827173Y-64340332D01*
X187759296Y-64176459D01*
X187759289Y-64176446D01*
X187660744Y-64028965D01*
X187660741Y-64028961D01*
X187535318Y-63903538D01*
X187535314Y-63903535D01*
X187387833Y-63804990D01*
X187387820Y-63804983D01*
X187223947Y-63737106D01*
X187223938Y-63737103D01*
X187049974Y-63702500D01*
X187049971Y-63702500D01*
X186872589Y-63702500D01*
X186872586Y-63702500D01*
X186698621Y-63737103D01*
X186698612Y-63737106D01*
X186534739Y-63804983D01*
X186534726Y-63804990D01*
X186387245Y-63903535D01*
X186387241Y-63903538D01*
X186261818Y-64028961D01*
X186261815Y-64028965D01*
X186163270Y-64176446D01*
X186163263Y-64176459D01*
X186095386Y-64340332D01*
X186095383Y-64340341D01*
X186060780Y-64514304D01*
X186060780Y-64691695D01*
X186095383Y-64865658D01*
X186095386Y-64865667D01*
X186163263Y-65029540D01*
X186163270Y-65029553D01*
X186261815Y-65177034D01*
X186261818Y-65177038D01*
X186299460Y-65214679D01*
X186332946Y-65276001D01*
X186335780Y-65302361D01*
X186335780Y-87292548D01*
X186316095Y-87359587D01*
X186299461Y-87380229D01*
X183013509Y-90666181D01*
X182952186Y-90699666D01*
X182925828Y-90702500D01*
X182872586Y-90702500D01*
X182698621Y-90737103D01*
X182698612Y-90737106D01*
X182534739Y-90804983D01*
X182534726Y-90804990D01*
X182387245Y-90903535D01*
X182387241Y-90903538D01*
X182261818Y-91028961D01*
X182261815Y-91028965D01*
X182163270Y-91176446D01*
X182163263Y-91176459D01*
X182095386Y-91340332D01*
X182095383Y-91340341D01*
X182060780Y-91514304D01*
X169469308Y-91514304D01*
X157249099Y-79294095D01*
X157215614Y-79232772D01*
X157212780Y-79206414D01*
X157212780Y-72996678D01*
X157232465Y-72929639D01*
X157263898Y-72896358D01*
X157276286Y-72887358D01*
X157276286Y-72887357D01*
X157276290Y-72887355D01*
X157419635Y-72744010D01*
X157419637Y-72744006D01*
X157419640Y-72744004D01*
X157471890Y-72672085D01*
X157538790Y-72580006D01*
X157596795Y-72466164D01*
X157644770Y-72415369D01*
X157712591Y-72398574D01*
X157778726Y-72421111D01*
X157817764Y-72466164D01*
X157850056Y-72529540D01*
X157875772Y-72580009D01*
X157994919Y-72744004D01*
X158138275Y-72887360D01*
X158250502Y-72968896D01*
X158302274Y-73006510D01*
X158482898Y-73098543D01*
X158675696Y-73161187D01*
X158875920Y-73192900D01*
X158875921Y-73192900D01*
X159078639Y-73192900D01*
X159078640Y-73192900D01*
X159278864Y-73161187D01*
X159459465Y-73102505D01*
X159529303Y-73100511D01*
X159589136Y-73136591D01*
X159619964Y-73199292D01*
X159621780Y-73220437D01*
X159621780Y-80602606D01*
X159633797Y-80663027D01*
X159641947Y-80704000D01*
X159645816Y-80723447D01*
X159645818Y-80723455D01*
X159692965Y-80837280D01*
X159692967Y-80837283D01*
X159692968Y-80837286D01*
X159727195Y-80888509D01*
X159761422Y-80939733D01*
X159848547Y-81026858D01*
X159848550Y-81026860D01*
X159855834Y-81034144D01*
X166870296Y-88048606D01*
X166870325Y-88048637D01*
X166960544Y-88138856D01*
X166960547Y-88138858D01*
X167037470Y-88190256D01*
X167062995Y-88207312D01*
X167114148Y-88228500D01*
X167176828Y-88254463D01*
X167237251Y-88266481D01*
X167297673Y-88278500D01*
X167297674Y-88278500D01*
X169453919Y-88278500D01*
X169520958Y-88298185D01*
X169541601Y-88314820D01*
X169579241Y-88352461D01*
X169579245Y-88352464D01*
X169726726Y-88451009D01*
X169726739Y-88451016D01*
X169849643Y-88501923D01*
X169890614Y-88518894D01*
X169890616Y-88518894D01*
X169890621Y-88518896D01*
X170064584Y-88553499D01*
X170064587Y-88553500D01*
X170064589Y-88553500D01*
X170241973Y-88553500D01*
X170241974Y-88553499D01*
X170299962Y-88541964D01*
X170415938Y-88518896D01*
X170415941Y-88518894D01*
X170415946Y-88518894D01*
X170579827Y-88451013D01*
X170727315Y-88352464D01*
X170852744Y-88227035D01*
X170951293Y-88079547D01*
X171019174Y-87915666D01*
X171028391Y-87869333D01*
X171042535Y-87798222D01*
X171053780Y-87741691D01*
X171053780Y-87564309D01*
X171053780Y-87564306D01*
X171053779Y-87564304D01*
X171019176Y-87390341D01*
X171019173Y-87390332D01*
X170951296Y-87226459D01*
X170951289Y-87226446D01*
X170852744Y-87078965D01*
X170852741Y-87078961D01*
X170727318Y-86953538D01*
X170727314Y-86953535D01*
X170579833Y-86854990D01*
X170579820Y-86854983D01*
X170415947Y-86787106D01*
X170415938Y-86787103D01*
X170241974Y-86752500D01*
X170241971Y-86752500D01*
X170064589Y-86752500D01*
X170064586Y-86752500D01*
X169890621Y-86787103D01*
X169890612Y-86787106D01*
X169726739Y-86854983D01*
X169726726Y-86854990D01*
X169579245Y-86953535D01*
X169579241Y-86953538D01*
X169541601Y-86991180D01*
X169480279Y-87024666D01*
X169453919Y-87027500D01*
X167669732Y-87027500D01*
X167602693Y-87007815D01*
X167582051Y-86991181D01*
X160909099Y-80318229D01*
X160875614Y-80256906D01*
X160872780Y-80230548D01*
X160872780Y-78890804D01*
X162140780Y-78890804D01*
X162140780Y-79068195D01*
X162175383Y-79242158D01*
X162175386Y-79242167D01*
X162243263Y-79406040D01*
X162243270Y-79406053D01*
X162341815Y-79553534D01*
X162341818Y-79553538D01*
X162467241Y-79678961D01*
X162467245Y-79678964D01*
X162614726Y-79777509D01*
X162614739Y-79777516D01*
X162737643Y-79828423D01*
X162778614Y-79845394D01*
X162778616Y-79845394D01*
X162778621Y-79845396D01*
X162952584Y-79879999D01*
X162952587Y-79880000D01*
X162952589Y-79880000D01*
X163005828Y-79880000D01*
X163072867Y-79899685D01*
X163093509Y-79916319D01*
X163280419Y-80103229D01*
X163280422Y-80103233D01*
X163367547Y-80190358D01*
X163444212Y-80241584D01*
X163469995Y-80258812D01*
X163536676Y-80286431D01*
X163536678Y-80286433D01*
X163576920Y-80303101D01*
X163583828Y-80305963D01*
X163644251Y-80317981D01*
X163704673Y-80330000D01*
X164701387Y-80330000D01*
X164761809Y-80317981D01*
X164822232Y-80305963D01*
X164855572Y-80292152D01*
X164936066Y-80258812D01*
X164987289Y-80224584D01*
X165038513Y-80190358D01*
X165125638Y-80103233D01*
X165125638Y-80103231D01*
X165135846Y-80093024D01*
X165135847Y-80093021D01*
X171153567Y-74075303D01*
X171214888Y-74041820D01*
X171284580Y-74046804D01*
X171340513Y-74088676D01*
X171364930Y-74154140D01*
X171357246Y-74201584D01*
X171358653Y-74202011D01*
X171356883Y-74207841D01*
X171322280Y-74381804D01*
X171322280Y-74559195D01*
X171356883Y-74733158D01*
X171356886Y-74733167D01*
X171424763Y-74897040D01*
X171424770Y-74897053D01*
X171523315Y-75044534D01*
X171523318Y-75044538D01*
X171648741Y-75169961D01*
X171648745Y-75169964D01*
X171796226Y-75268509D01*
X171796239Y-75268516D01*
X171965742Y-75338725D01*
X171965146Y-75340162D01*
X172017214Y-75374284D01*
X172045670Y-75438096D01*
X172046780Y-75454648D01*
X172046780Y-75549695D01*
X172081383Y-75723658D01*
X172081386Y-75723667D01*
X172149263Y-75887540D01*
X172149270Y-75887553D01*
X172247815Y-76035034D01*
X172247818Y-76035038D01*
X172373241Y-76160461D01*
X172373245Y-76160464D01*
X172520726Y-76259009D01*
X172520739Y-76259016D01*
X172690242Y-76329225D01*
X172689646Y-76330662D01*
X172741714Y-76364784D01*
X172770170Y-76428596D01*
X172771280Y-76445148D01*
X172771280Y-76497906D01*
X172805883Y-76671869D01*
X172805886Y-76671878D01*
X172873763Y-76835751D01*
X172873770Y-76835764D01*
X172972315Y-76983245D01*
X172972318Y-76983249D01*
X173097741Y-77108672D01*
X173097745Y-77108675D01*
X173245226Y-77207220D01*
X173245239Y-77207227D01*
X173368143Y-77258134D01*
X173409114Y-77275105D01*
X173409116Y-77275105D01*
X173409121Y-77275107D01*
X173583084Y-77309710D01*
X173583087Y-77309711D01*
X173583089Y-77309711D01*
X173760473Y-77309711D01*
X173760474Y-77309710D01*
X173818462Y-77298175D01*
X173934438Y-77275107D01*
X173934441Y-77275105D01*
X173934446Y-77275105D01*
X174098327Y-77207224D01*
X174245815Y-77108675D01*
X174371244Y-76983246D01*
X174469793Y-76835758D01*
X174537674Y-76671877D01*
X174572280Y-76497902D01*
X174572280Y-76444662D01*
X174591965Y-76377623D01*
X174608595Y-76356985D01*
X174902645Y-76062935D01*
X174902649Y-76062933D01*
X174989774Y-75975808D01*
X175035388Y-75907542D01*
X175058228Y-75873361D01*
X175072996Y-75837708D01*
X175097219Y-75779228D01*
X175141059Y-75724824D01*
X175207353Y-75702759D01*
X175275053Y-75720038D01*
X175322664Y-75771175D01*
X175335780Y-75826680D01*
X175335780Y-86164611D01*
X175359815Y-86285444D01*
X175359820Y-86285461D01*
X175406965Y-86399281D01*
X175406970Y-86399290D01*
X175434523Y-86440525D01*
X175434527Y-86440530D01*
X175438943Y-86447138D01*
X175475422Y-86501733D01*
X175562547Y-86588858D01*
X175562549Y-86588859D01*
X176975421Y-88001732D01*
X176975422Y-88001733D01*
X177022295Y-88048606D01*
X177062548Y-88088859D01*
X177164987Y-88157307D01*
X177164991Y-88157309D01*
X177164994Y-88157311D01*
X177278828Y-88204463D01*
X177339251Y-88216481D01*
X177399673Y-88228500D01*
X183022887Y-88228500D01*
X183083309Y-88216481D01*
X183143732Y-88204463D01*
X183177072Y-88190652D01*
X183257566Y-88157312D01*
X183308789Y-88123084D01*
X183360013Y-88088858D01*
X183447138Y-88001733D01*
X183447139Y-88001731D01*
X183454205Y-87994665D01*
X183454208Y-87994661D01*
X183860009Y-87588860D01*
X183860013Y-87588858D01*
X183947138Y-87501733D01*
X183998536Y-87424809D01*
X184015592Y-87399285D01*
X184062743Y-87285451D01*
X184066529Y-87266420D01*
X184078891Y-87204266D01*
X184086780Y-87164607D01*
X184086780Y-87041393D01*
X184086780Y-85302361D01*
X184106465Y-85235322D01*
X184123100Y-85214679D01*
X184160741Y-85177038D01*
X184160744Y-85177035D01*
X184259293Y-85029547D01*
X184327174Y-84865666D01*
X184361780Y-84691691D01*
X184361780Y-84627500D01*
X184381465Y-84560461D01*
X184434269Y-84514706D01*
X184485780Y-84503500D01*
X184549973Y-84503500D01*
X184549974Y-84503499D01*
X184607962Y-84491964D01*
X184723938Y-84468896D01*
X184723941Y-84468894D01*
X184723946Y-84468894D01*
X184887827Y-84401013D01*
X185035315Y-84302464D01*
X185160744Y-84177035D01*
X185259293Y-84029547D01*
X185327174Y-83865666D01*
X185336476Y-83818905D01*
X185361779Y-83691695D01*
X185361780Y-83691693D01*
X185361780Y-83638453D01*
X185368566Y-83615341D01*
X185371062Y-83591381D01*
X185379184Y-83579182D01*
X185381465Y-83571414D01*
X185388971Y-83560968D01*
X185393253Y-83555617D01*
X185447138Y-83501733D01*
X185498536Y-83424809D01*
X185515592Y-83399285D01*
X185543212Y-83332603D01*
X185562743Y-83285452D01*
X185586780Y-83164606D01*
X185586780Y-40913452D01*
X185606465Y-40846413D01*
X185623099Y-40825771D01*
X186909051Y-39539819D01*
X186970374Y-39506334D01*
X186996732Y-39503500D01*
X187049973Y-39503500D01*
X187049974Y-39503499D01*
X187107962Y-39491964D01*
X187223938Y-39468896D01*
X187223941Y-39468894D01*
X187223946Y-39468894D01*
X187387827Y-39401013D01*
X187535315Y-39302464D01*
X187660744Y-39177035D01*
X187759293Y-39029547D01*
X187827174Y-38865666D01*
X187839997Y-38801204D01*
X187861779Y-38691695D01*
X187861780Y-38691693D01*
X187861780Y-38514306D01*
X187861779Y-38514304D01*
X187827176Y-38340341D01*
X187827173Y-38340332D01*
X187759296Y-38176459D01*
X187759289Y-38176446D01*
X187660744Y-38028965D01*
X187660741Y-38028961D01*
X187535318Y-37903538D01*
X187535314Y-37903535D01*
X187387833Y-37804990D01*
X187387820Y-37804983D01*
X187223947Y-37737106D01*
X187223938Y-37737103D01*
X187049974Y-37702500D01*
X187049971Y-37702500D01*
X186872589Y-37702500D01*
X186872586Y-37702500D01*
X186698621Y-37737103D01*
X186698612Y-37737106D01*
X186534739Y-37804983D01*
X186534726Y-37804990D01*
X186387245Y-37903535D01*
X186387241Y-37903538D01*
X186261818Y-38028961D01*
X186261815Y-38028965D01*
X186163270Y-38176446D01*
X186163263Y-38176459D01*
X186095386Y-38340332D01*
X186095383Y-38340341D01*
X186060780Y-38514304D01*
X186060780Y-38567547D01*
X186041095Y-38634586D01*
X186024461Y-38655228D01*
X184564973Y-40114715D01*
X184564964Y-40114724D01*
X184562550Y-40117139D01*
X184562547Y-40117142D01*
X184475422Y-40204267D01*
X184452620Y-40238393D01*
X184447758Y-40245668D01*
X184447751Y-40245677D01*
X184406970Y-40306709D01*
X184406968Y-40306713D01*
X184406968Y-40306714D01*
X184384231Y-40361607D01*
X184359818Y-40420544D01*
X184359815Y-40420556D01*
X184335780Y-40541389D01*
X184335780Y-82608057D01*
X184316095Y-82675096D01*
X184263291Y-82720851D01*
X184235973Y-82729674D01*
X184198618Y-82737104D01*
X184198609Y-82737107D01*
X184034739Y-82804983D01*
X184034726Y-82804990D01*
X183887245Y-82903535D01*
X183887241Y-82903538D01*
X183761818Y-83028961D01*
X183761815Y-83028965D01*
X183663270Y-83176446D01*
X183663263Y-83176459D01*
X183595386Y-83340332D01*
X183595383Y-83340341D01*
X183560780Y-83514304D01*
X183560780Y-83578500D01*
X183541095Y-83645539D01*
X183488291Y-83691294D01*
X183436780Y-83702500D01*
X183372586Y-83702500D01*
X183198621Y-83737103D01*
X183198612Y-83737106D01*
X183034739Y-83804983D01*
X183034726Y-83804990D01*
X182887245Y-83903535D01*
X182887241Y-83903538D01*
X182761818Y-84028961D01*
X182761815Y-84028965D01*
X182663270Y-84176446D01*
X182663263Y-84176459D01*
X182595386Y-84340332D01*
X182595383Y-84340341D01*
X182560780Y-84514304D01*
X182560780Y-84578500D01*
X182541095Y-84645539D01*
X182488291Y-84691294D01*
X182436780Y-84702500D01*
X182372586Y-84702500D01*
X182198621Y-84737103D01*
X182198612Y-84737106D01*
X182034739Y-84804983D01*
X182034726Y-84804990D01*
X181887245Y-84903535D01*
X181887241Y-84903538D01*
X181761818Y-85028961D01*
X181761815Y-85028965D01*
X181663270Y-85176446D01*
X181663263Y-85176459D01*
X181595386Y-85340332D01*
X181595384Y-85340340D01*
X181582897Y-85403118D01*
X181550512Y-85465028D01*
X181489796Y-85499603D01*
X181420027Y-85495863D01*
X181363355Y-85454996D01*
X181339663Y-85403118D01*
X181327175Y-85340340D01*
X181327174Y-85340334D01*
X181275127Y-85214679D01*
X181259296Y-85176459D01*
X181259289Y-85176446D01*
X181160744Y-85028965D01*
X181160741Y-85028961D01*
X181035318Y-84903538D01*
X181035314Y-84903535D01*
X180887833Y-84804990D01*
X180887820Y-84804983D01*
X180723947Y-84737106D01*
X180723938Y-84737103D01*
X180549974Y-84702500D01*
X180549971Y-84702500D01*
X180496733Y-84702500D01*
X180429694Y-84682815D01*
X180409052Y-84666181D01*
X179623099Y-83880228D01*
X179589614Y-83818905D01*
X179586780Y-83792547D01*
X179586780Y-28802361D01*
X179606465Y-28735322D01*
X179623100Y-28714679D01*
X179660741Y-28677038D01*
X179660744Y-28677035D01*
X179759293Y-28529547D01*
X179827174Y-28365666D01*
X179836786Y-28317347D01*
X179851599Y-28242872D01*
X179861780Y-28191691D01*
X179861780Y-28014309D01*
X179861780Y-28014306D01*
X179861779Y-28014304D01*
X179827176Y-27840341D01*
X179827173Y-27840332D01*
X179759296Y-27676459D01*
X179759289Y-27676446D01*
X179660744Y-27528965D01*
X179660741Y-27528961D01*
X179535318Y-27403538D01*
X179535314Y-27403535D01*
X179387833Y-27304990D01*
X179387820Y-27304983D01*
X179223947Y-27237106D01*
X179223938Y-27237103D01*
X179049974Y-27202500D01*
X179049971Y-27202500D01*
X178872589Y-27202500D01*
X178872586Y-27202500D01*
X178698621Y-27237103D01*
X178698612Y-27237106D01*
X178534739Y-27304983D01*
X178534726Y-27304990D01*
X178387245Y-27403535D01*
X178387241Y-27403538D01*
X178261818Y-27528961D01*
X178261815Y-27528965D01*
X178163270Y-27676446D01*
X178163263Y-27676459D01*
X178095386Y-27840332D01*
X178095383Y-27840341D01*
X178060780Y-28014304D01*
X178060780Y-28191695D01*
X178095383Y-28365658D01*
X178095386Y-28365667D01*
X178163263Y-28529540D01*
X178163270Y-28529553D01*
X178261815Y-28677034D01*
X178261818Y-28677038D01*
X178299460Y-28714679D01*
X178332946Y-28776001D01*
X178335780Y-28802361D01*
X178335780Y-32404638D01*
X178316095Y-32471677D01*
X178263291Y-32517432D01*
X178194133Y-32527376D01*
X178130577Y-32498351D01*
X178124099Y-32492319D01*
X178035318Y-32403538D01*
X178035314Y-32403535D01*
X177887833Y-32304990D01*
X177887820Y-32304983D01*
X177723947Y-32237106D01*
X177723938Y-32237103D01*
X177549974Y-32202500D01*
X177549971Y-32202500D01*
X177372589Y-32202500D01*
X177372586Y-32202500D01*
X177198621Y-32237103D01*
X177198612Y-32237106D01*
X177034739Y-32304983D01*
X177034726Y-32304990D01*
X176887245Y-32403535D01*
X176887241Y-32403538D01*
X176761818Y-32528961D01*
X176761815Y-32528965D01*
X176663270Y-32676446D01*
X176663263Y-32676459D01*
X176595386Y-32840332D01*
X176595383Y-32840341D01*
X176560780Y-33014304D01*
X176560780Y-33191695D01*
X176595383Y-33365658D01*
X176595386Y-33365667D01*
X176663263Y-33529540D01*
X176663270Y-33529553D01*
X176761815Y-33677034D01*
X176761818Y-33677038D01*
X176799460Y-33714679D01*
X176832946Y-33776001D01*
X176835780Y-33802361D01*
X176835780Y-34904638D01*
X176816095Y-34971677D01*
X176763291Y-35017432D01*
X176694133Y-35027376D01*
X176630577Y-34998351D01*
X176624099Y-34992319D01*
X176535318Y-34903538D01*
X176535314Y-34903535D01*
X176387833Y-34804990D01*
X176387820Y-34804983D01*
X176223947Y-34737106D01*
X176223938Y-34737103D01*
X176049974Y-34702500D01*
X176049971Y-34702500D01*
X175872589Y-34702500D01*
X175872586Y-34702500D01*
X175698621Y-34737103D01*
X175698612Y-34737106D01*
X175534739Y-34804983D01*
X175534726Y-34804990D01*
X175387245Y-34903535D01*
X175387241Y-34903538D01*
X175261818Y-35028961D01*
X175261815Y-35028965D01*
X175163270Y-35176446D01*
X175163263Y-35176459D01*
X175095386Y-35340332D01*
X175095383Y-35340341D01*
X175060780Y-35514304D01*
X175060780Y-35691695D01*
X175095383Y-35865658D01*
X175095386Y-35865667D01*
X175163263Y-36029540D01*
X175163270Y-36029553D01*
X175261815Y-36177034D01*
X175261818Y-36177038D01*
X175299460Y-36214679D01*
X175332946Y-36276001D01*
X175335780Y-36302361D01*
X175335780Y-69795593D01*
X175316095Y-69862632D01*
X175263291Y-69908387D01*
X175194133Y-69918331D01*
X175130577Y-69889306D01*
X175108678Y-69864485D01*
X175070241Y-69806961D01*
X174944818Y-69681538D01*
X174944814Y-69681535D01*
X174797333Y-69582990D01*
X174797320Y-69582983D01*
X174633447Y-69515106D01*
X174633439Y-69515104D01*
X174534434Y-69495410D01*
X174472523Y-69463025D01*
X174437949Y-69402309D01*
X174441690Y-69332539D01*
X174455525Y-69304900D01*
X174469793Y-69283547D01*
X174537674Y-69119666D01*
X174572280Y-68945691D01*
X174572280Y-68768309D01*
X174572280Y-68768306D01*
X174572279Y-68768304D01*
X174537676Y-68594341D01*
X174537673Y-68594332D01*
X174469796Y-68430459D01*
X174469789Y-68430446D01*
X174371244Y-68282965D01*
X174371241Y-68282961D01*
X174245818Y-68157538D01*
X174245814Y-68157535D01*
X174098333Y-68058990D01*
X174098324Y-68058985D01*
X173977889Y-68009100D01*
X173923486Y-67965259D01*
X173901421Y-67898965D01*
X173903725Y-67870347D01*
X173923735Y-67769752D01*
X173923735Y-67592365D01*
X173923734Y-67592363D01*
X173889131Y-67418400D01*
X173889128Y-67418391D01*
X173821251Y-67254518D01*
X173821244Y-67254505D01*
X173722699Y-67107024D01*
X173722696Y-67107020D01*
X173597273Y-66981597D01*
X173597269Y-66981594D01*
X173449788Y-66883049D01*
X173449775Y-66883042D01*
X173285902Y-66815165D01*
X173285893Y-66815162D01*
X173111929Y-66780559D01*
X173111926Y-66780559D01*
X172934544Y-66780559D01*
X172934541Y-66780559D01*
X172760576Y-66815162D01*
X172760567Y-66815165D01*
X172596694Y-66883042D01*
X172596681Y-66883049D01*
X172449200Y-66981594D01*
X172449196Y-66981597D01*
X172323773Y-67107020D01*
X172323770Y-67107024D01*
X172225225Y-67254505D01*
X172225218Y-67254518D01*
X172157341Y-67418391D01*
X172157338Y-67418400D01*
X172122735Y-67592363D01*
X172122735Y-67769754D01*
X172157338Y-67943717D01*
X172157341Y-67943726D01*
X172225219Y-68107601D01*
X172225220Y-68107602D01*
X172225222Y-68107606D01*
X172258586Y-68157538D01*
X172300882Y-68220838D01*
X172321760Y-68287515D01*
X172321780Y-68289729D01*
X172321780Y-69614799D01*
X172302095Y-69681838D01*
X172249291Y-69727593D01*
X172197780Y-69738799D01*
X172100885Y-69738799D01*
X171926920Y-69773402D01*
X171926911Y-69773405D01*
X171763038Y-69841282D01*
X171763025Y-69841289D01*
X171615544Y-69939834D01*
X171615540Y-69939837D01*
X171490117Y-70065260D01*
X171490114Y-70065264D01*
X171391569Y-70212745D01*
X171391562Y-70212758D01*
X171323685Y-70376631D01*
X171323682Y-70376640D01*
X171289079Y-70550603D01*
X171289079Y-70631324D01*
X171269394Y-70698363D01*
X171216590Y-70744118D01*
X171189271Y-70752941D01*
X171116917Y-70767333D01*
X171116907Y-70767336D01*
X170953037Y-70835212D01*
X170953024Y-70835219D01*
X170805543Y-70933764D01*
X170805539Y-70933767D01*
X170680116Y-71059190D01*
X170680113Y-71059194D01*
X170581568Y-71206675D01*
X170581561Y-71206688D01*
X170513684Y-71370561D01*
X170513681Y-71370570D01*
X170477889Y-71550512D01*
X170476002Y-71550136D01*
X170453161Y-71606660D01*
X170443620Y-71617374D01*
X163996363Y-78064630D01*
X163935040Y-78098115D01*
X163932874Y-78098566D01*
X163857272Y-78113604D01*
X163857262Y-78113607D01*
X163693393Y-78181483D01*
X163693382Y-78181489D01*
X163649496Y-78210813D01*
X163582818Y-78231690D01*
X163515438Y-78213205D01*
X163511716Y-78210813D01*
X163467827Y-78181487D01*
X163467820Y-78181483D01*
X163303947Y-78113606D01*
X163303938Y-78113603D01*
X163129974Y-78079000D01*
X163129971Y-78079000D01*
X162952589Y-78079000D01*
X162952586Y-78079000D01*
X162778621Y-78113603D01*
X162778612Y-78113606D01*
X162614739Y-78181483D01*
X162614726Y-78181490D01*
X162467245Y-78280035D01*
X162467241Y-78280038D01*
X162341818Y-78405461D01*
X162341815Y-78405465D01*
X162243270Y-78552946D01*
X162243263Y-78552959D01*
X162175386Y-78716832D01*
X162175383Y-78716841D01*
X162140780Y-78890804D01*
X160872780Y-78890804D01*
X160872780Y-73485451D01*
X160892465Y-73418412D01*
X160909095Y-73397774D01*
X161110581Y-73196287D01*
X161171902Y-73162804D01*
X161217654Y-73161497D01*
X161415920Y-73192900D01*
X161415922Y-73192900D01*
X161618639Y-73192900D01*
X161618640Y-73192900D01*
X161818864Y-73161187D01*
X162011662Y-73098543D01*
X162192286Y-73006510D01*
X162298091Y-72929639D01*
X162356284Y-72887360D01*
X162356286Y-72887357D01*
X162356290Y-72887355D01*
X162499635Y-72744010D01*
X162499637Y-72744006D01*
X162499640Y-72744004D01*
X162551890Y-72672085D01*
X162618790Y-72580006D01*
X162710823Y-72399382D01*
X162773467Y-72206584D01*
X162805180Y-72006360D01*
X162805180Y-71803640D01*
X162773467Y-71603416D01*
X162710823Y-71410618D01*
X162618790Y-71229994D01*
X162596756Y-71199666D01*
X162499640Y-71065995D01*
X162356284Y-70922639D01*
X162192289Y-70803492D01*
X162192288Y-70803491D01*
X162192286Y-70803490D01*
X162011662Y-70711457D01*
X161818864Y-70648813D01*
X161818862Y-70648812D01*
X161818860Y-70648812D01*
X161679062Y-70626670D01*
X161618640Y-70617100D01*
X161415920Y-70617100D01*
X161369504Y-70624451D01*
X161215699Y-70648812D01*
X161022895Y-70711458D01*
X160842270Y-70803492D01*
X160678275Y-70922639D01*
X160534919Y-71065995D01*
X160415772Y-71229990D01*
X160357765Y-71343834D01*
X160309790Y-71394630D01*
X160241969Y-71411425D01*
X160175834Y-71388887D01*
X160136795Y-71343834D01*
X160122201Y-71315194D01*
X160078790Y-71229994D01*
X160056756Y-71199666D01*
X159959640Y-71065995D01*
X159816284Y-70922639D01*
X159652289Y-70803492D01*
X159652288Y-70803491D01*
X159652286Y-70803490D01*
X159471662Y-70711457D01*
X159278864Y-70648813D01*
X159278862Y-70648812D01*
X159278860Y-70648812D01*
X159139062Y-70626670D01*
X159078640Y-70617100D01*
X158875920Y-70617100D01*
X158829504Y-70624451D01*
X158675699Y-70648812D01*
X158482895Y-70711458D01*
X158302270Y-70803492D01*
X158138275Y-70922639D01*
X157994919Y-71065995D01*
X157875772Y-71229990D01*
X157817765Y-71343834D01*
X157769790Y-71394630D01*
X157701969Y-71411425D01*
X157635834Y-71388887D01*
X157596795Y-71343834D01*
X157582201Y-71315194D01*
X157538790Y-71229994D01*
X157516756Y-71199666D01*
X157419640Y-71065995D01*
X157276284Y-70922639D01*
X157112289Y-70803492D01*
X157112288Y-70803491D01*
X157112286Y-70803490D01*
X156931662Y-70711457D01*
X156738864Y-70648813D01*
X156738862Y-70648812D01*
X156738860Y-70648812D01*
X156599062Y-70626670D01*
X156538640Y-70617100D01*
X156335920Y-70617100D01*
X156289504Y-70624451D01*
X156135699Y-70648812D01*
X155942895Y-70711458D01*
X155762270Y-70803492D01*
X155598275Y-70922639D01*
X155454919Y-71065995D01*
X155335772Y-71229990D01*
X155243738Y-71410615D01*
X155181092Y-71603419D01*
X155149380Y-71803640D01*
X153402780Y-71803640D01*
X153402780Y-67595675D01*
X156133500Y-67595675D01*
X156133500Y-67804324D01*
X156166137Y-68010389D01*
X156230612Y-68208820D01*
X156325330Y-68394714D01*
X156447965Y-68563505D01*
X156595495Y-68711035D01*
X156764286Y-68833670D01*
X156777379Y-68840341D01*
X156950179Y-68928387D01*
X156950181Y-68928387D01*
X156950184Y-68928389D01*
X157056545Y-68962948D01*
X157148610Y-68992862D01*
X157354676Y-69025500D01*
X157354681Y-69025500D01*
X157563324Y-69025500D01*
X157769389Y-68992862D01*
X157967816Y-68928389D01*
X158153714Y-68833670D01*
X158322505Y-68711035D01*
X158470035Y-68563505D01*
X158592670Y-68394714D01*
X158687389Y-68208816D01*
X158751862Y-68010389D01*
X158754916Y-67991106D01*
X158784500Y-67804324D01*
X158784500Y-67595675D01*
X158751862Y-67389610D01*
X158721948Y-67297545D01*
X158687389Y-67191184D01*
X158687387Y-67191181D01*
X158687387Y-67191179D01*
X158637421Y-67093116D01*
X158592670Y-67005286D01*
X158470035Y-66836495D01*
X158322510Y-66688970D01*
X158289025Y-66627647D01*
X158294009Y-66557955D01*
X158335881Y-66502022D01*
X158384432Y-66482923D01*
X158383832Y-66480380D01*
X158391379Y-66478596D01*
X158526086Y-66428354D01*
X158526093Y-66428350D01*
X158641187Y-66342190D01*
X158641190Y-66342187D01*
X158727350Y-66227093D01*
X158727354Y-66227086D01*
X158777596Y-66092379D01*
X158777598Y-66092372D01*
X158783999Y-66032844D01*
X158784000Y-66032827D01*
X158784000Y-65410000D01*
X157949748Y-65410000D01*
X157971518Y-65372292D01*
X158009000Y-65232409D01*
X158009000Y-65087591D01*
X157971518Y-64947708D01*
X157949748Y-64910000D01*
X158784000Y-64910000D01*
X158784000Y-64287172D01*
X158783999Y-64287155D01*
X158777598Y-64227627D01*
X158777596Y-64227620D01*
X158727354Y-64092913D01*
X158727350Y-64092906D01*
X158641190Y-63977812D01*
X158641187Y-63977809D01*
X158526093Y-63891649D01*
X158526086Y-63891645D01*
X158391379Y-63841403D01*
X158391372Y-63841401D01*
X158331844Y-63835000D01*
X157709000Y-63835000D01*
X157709000Y-64669252D01*
X157671292Y-64647482D01*
X157531409Y-64610000D01*
X157386591Y-64610000D01*
X157246708Y-64647482D01*
X157209000Y-64669252D01*
X157209000Y-63835000D01*
X156586155Y-63835000D01*
X156526627Y-63841401D01*
X156526620Y-63841403D01*
X156391913Y-63891645D01*
X156391906Y-63891649D01*
X156276812Y-63977809D01*
X156276809Y-63977812D01*
X156190649Y-64092906D01*
X156190645Y-64092913D01*
X156140403Y-64227620D01*
X156140401Y-64227627D01*
X156134000Y-64287155D01*
X156134000Y-64910000D01*
X156968252Y-64910000D01*
X156946482Y-64947708D01*
X156909000Y-65087591D01*
X156909000Y-65232409D01*
X156946482Y-65372292D01*
X156968252Y-65410000D01*
X156134000Y-65410000D01*
X156134000Y-66032844D01*
X156140401Y-66092372D01*
X156140403Y-66092379D01*
X156190645Y-66227086D01*
X156190649Y-66227093D01*
X156276809Y-66342187D01*
X156276812Y-66342190D01*
X156391906Y-66428350D01*
X156391913Y-66428354D01*
X156526620Y-66478596D01*
X156534168Y-66480380D01*
X156533511Y-66483158D01*
X156585603Y-66504728D01*
X156625458Y-66562116D01*
X156627960Y-66631941D01*
X156595490Y-66688970D01*
X156447964Y-66836496D01*
X156325330Y-67005285D01*
X156230612Y-67191179D01*
X156166137Y-67389610D01*
X156133500Y-67595675D01*
X153402780Y-67595675D01*
X153402780Y-60398618D01*
X153402779Y-60398615D01*
X153372978Y-60248795D01*
X153314519Y-60107663D01*
X153314518Y-60107662D01*
X153314515Y-60107656D01*
X153229651Y-59980649D01*
X153229650Y-59980648D01*
X153121632Y-59872630D01*
X151147994Y-57898992D01*
X157449500Y-57898992D01*
X157449500Y-58101007D01*
X157488907Y-58299119D01*
X157488909Y-58299127D01*
X157566212Y-58485752D01*
X157566217Y-58485762D01*
X157678441Y-58653718D01*
X157821281Y-58796558D01*
X157989237Y-58908782D01*
X157989241Y-58908784D01*
X157989244Y-58908786D01*
X158175873Y-58986091D01*
X158373992Y-59025499D01*
X158373996Y-59025500D01*
X158373997Y-59025500D01*
X158576004Y-59025500D01*
X158576005Y-59025499D01*
X158774127Y-58986091D01*
X158960756Y-58908786D01*
X159128718Y-58796558D01*
X159271558Y-58653718D01*
X159383786Y-58485756D01*
X159461091Y-58299127D01*
X159500500Y-58101003D01*
X159500500Y-57898997D01*
X159461091Y-57700873D01*
X159383786Y-57514244D01*
X159383784Y-57514241D01*
X159383782Y-57514237D01*
X159271558Y-57346281D01*
X159128718Y-57203441D01*
X158960762Y-57091217D01*
X158960752Y-57091212D01*
X158774127Y-57013909D01*
X158774119Y-57013907D01*
X158576007Y-56974500D01*
X158576003Y-56974500D01*
X158373997Y-56974500D01*
X158373992Y-56974500D01*
X158175880Y-57013907D01*
X158175872Y-57013909D01*
X157989247Y-57091212D01*
X157989237Y-57091217D01*
X157821281Y-57203441D01*
X157678441Y-57346281D01*
X157566217Y-57514237D01*
X157566212Y-57514247D01*
X157488909Y-57700872D01*
X157488907Y-57700880D01*
X157449500Y-57898992D01*
X151147994Y-57898992D01*
X150011821Y-56762819D01*
X145229589Y-51980586D01*
X145147995Y-51898992D01*
X146749500Y-51898992D01*
X146749500Y-52101007D01*
X146788907Y-52299119D01*
X146788909Y-52299127D01*
X146866212Y-52485752D01*
X146866217Y-52485762D01*
X146978441Y-52653718D01*
X147121281Y-52796558D01*
X147289237Y-52908782D01*
X147289241Y-52908784D01*
X147289244Y-52908786D01*
X147475873Y-52986091D01*
X147673992Y-53025499D01*
X147673996Y-53025500D01*
X147673997Y-53025500D01*
X147876004Y-53025500D01*
X147876005Y-53025499D01*
X148074127Y-52986091D01*
X148260756Y-52908786D01*
X148428718Y-52796558D01*
X148571558Y-52653718D01*
X148683786Y-52485756D01*
X148761091Y-52299127D01*
X148800500Y-52101003D01*
X148800500Y-51898997D01*
X148800499Y-51898992D01*
X157449500Y-51898992D01*
X157449500Y-52101007D01*
X157488907Y-52299119D01*
X157488909Y-52299127D01*
X157566212Y-52485752D01*
X157566217Y-52485762D01*
X157678441Y-52653718D01*
X157821281Y-52796558D01*
X157989237Y-52908782D01*
X157989241Y-52908784D01*
X157989244Y-52908786D01*
X158175873Y-52986091D01*
X158373992Y-53025499D01*
X158373996Y-53025500D01*
X158373997Y-53025500D01*
X158576004Y-53025500D01*
X158576005Y-53025499D01*
X158774127Y-52986091D01*
X158960756Y-52908786D01*
X159128718Y-52796558D01*
X159271558Y-52653718D01*
X159383786Y-52485756D01*
X159461091Y-52299127D01*
X159500500Y-52101003D01*
X159500500Y-51898997D01*
X159461091Y-51700873D01*
X159383786Y-51514244D01*
X159383784Y-51514241D01*
X159383782Y-51514237D01*
X159271558Y-51346281D01*
X159128718Y-51203441D01*
X158960762Y-51091217D01*
X158960752Y-51091212D01*
X158774127Y-51013909D01*
X158774119Y-51013907D01*
X158576007Y-50974500D01*
X158576003Y-50974500D01*
X158373997Y-50974500D01*
X158373992Y-50974500D01*
X158175880Y-51013907D01*
X158175872Y-51013909D01*
X157989247Y-51091212D01*
X157989237Y-51091217D01*
X157821281Y-51203441D01*
X157678441Y-51346281D01*
X157566217Y-51514237D01*
X157566212Y-51514247D01*
X157488909Y-51700872D01*
X157488907Y-51700880D01*
X157449500Y-51898992D01*
X148800499Y-51898992D01*
X148761091Y-51700873D01*
X148683786Y-51514244D01*
X148683784Y-51514241D01*
X148683782Y-51514237D01*
X148571558Y-51346281D01*
X148428718Y-51203441D01*
X148260762Y-51091217D01*
X148260752Y-51091212D01*
X148074127Y-51013909D01*
X148074119Y-51013907D01*
X147876007Y-50974500D01*
X147876003Y-50974500D01*
X147673997Y-50974500D01*
X147673992Y-50974500D01*
X147475880Y-51013907D01*
X147475872Y-51013909D01*
X147289247Y-51091212D01*
X147289237Y-51091217D01*
X147121281Y-51203441D01*
X146978441Y-51346281D01*
X146866217Y-51514237D01*
X146866212Y-51514247D01*
X146788909Y-51700872D01*
X146788907Y-51700880D01*
X146749500Y-51898992D01*
X145147995Y-51898992D01*
X139913635Y-46664632D01*
X139913631Y-46664629D01*
X139786623Y-46579764D01*
X139786614Y-46579759D01*
X139645485Y-46521302D01*
X139645477Y-46521300D01*
X139495664Y-46491500D01*
X139495660Y-46491500D01*
X131281136Y-46491500D01*
X131214097Y-46471815D01*
X131212245Y-46470602D01*
X131209830Y-46468988D01*
X131209827Y-46468987D01*
X131045947Y-46401106D01*
X131045938Y-46401103D01*
X130871974Y-46366500D01*
X130871971Y-46366500D01*
X130694589Y-46366500D01*
X130694586Y-46366500D01*
X130520621Y-46401103D01*
X130520612Y-46401106D01*
X130356739Y-46468983D01*
X130356726Y-46468990D01*
X130209245Y-46567535D01*
X130209241Y-46567538D01*
X130083818Y-46692961D01*
X130083815Y-46692965D01*
X129985270Y-46840446D01*
X129985263Y-46840459D01*
X129917386Y-47004332D01*
X129917383Y-47004341D01*
X129882780Y-47178304D01*
X129882780Y-47242500D01*
X129863095Y-47309539D01*
X129810291Y-47355294D01*
X129758780Y-47366500D01*
X127458864Y-47366500D01*
X127391825Y-47346815D01*
X127371183Y-47330181D01*
X126959635Y-46918632D01*
X126959631Y-46918629D01*
X126832623Y-46833764D01*
X126832614Y-46833759D01*
X126691485Y-46775302D01*
X126691477Y-46775300D01*
X126541664Y-46745500D01*
X126541660Y-46745500D01*
X125947136Y-46745500D01*
X125880097Y-46725815D01*
X125878245Y-46724602D01*
X125875830Y-46722988D01*
X125875827Y-46722987D01*
X125711947Y-46655106D01*
X125711938Y-46655103D01*
X125537974Y-46620500D01*
X125537971Y-46620500D01*
X125360589Y-46620500D01*
X125360586Y-46620500D01*
X125186621Y-46655103D01*
X125186612Y-46655106D01*
X125022739Y-46722983D01*
X125022726Y-46722990D01*
X124875245Y-46821535D01*
X124875241Y-46821538D01*
X124749818Y-46946961D01*
X124749815Y-46946965D01*
X124651270Y-47094446D01*
X124651263Y-47094459D01*
X124583386Y-47258332D01*
X124583383Y-47258341D01*
X124548780Y-47432304D01*
X123788780Y-47432304D01*
X123788780Y-47069451D01*
X123808465Y-47002412D01*
X123825094Y-46981775D01*
X126864009Y-43942860D01*
X126864013Y-43942858D01*
X126951138Y-43855733D01*
X127019591Y-43753286D01*
X127066743Y-43639452D01*
X127076111Y-43592353D01*
X127088803Y-43528548D01*
X127088803Y-43528543D01*
X127090780Y-43518607D01*
X127090780Y-43395393D01*
X127090780Y-40205513D01*
X132802780Y-40205513D01*
X132802780Y-40394486D01*
X132832339Y-40581118D01*
X132890734Y-40760836D01*
X132974635Y-40925500D01*
X132976520Y-40929199D01*
X133087590Y-41082073D01*
X133221207Y-41215690D01*
X133374081Y-41326760D01*
X133453627Y-41367290D01*
X133542443Y-41412545D01*
X133542445Y-41412545D01*
X133542448Y-41412547D01*
X133632014Y-41441649D01*
X133664083Y-41452069D01*
X133721758Y-41491507D01*
X133748956Y-41555866D01*
X133737041Y-41624712D01*
X133689796Y-41676188D01*
X133664083Y-41687931D01*
X133542443Y-41727454D01*
X133374080Y-41813240D01*
X133286859Y-41876610D01*
X133221207Y-41924310D01*
X133221205Y-41924312D01*
X133221204Y-41924312D01*
X133087592Y-42057924D01*
X133087592Y-42057925D01*
X133087590Y-42057927D01*
X133079182Y-42069500D01*
X132976520Y-42210800D01*
X132890734Y-42379163D01*
X132832339Y-42558881D01*
X132802780Y-42745513D01*
X132802780Y-42934486D01*
X132832339Y-43121118D01*
X132890734Y-43300836D01*
X132935252Y-43388206D01*
X132976520Y-43469199D01*
X133087590Y-43622073D01*
X133221207Y-43755690D01*
X133374081Y-43866760D01*
X133453627Y-43907290D01*
X133542443Y-43952545D01*
X133542445Y-43952545D01*
X133542448Y-43952547D01*
X133638777Y-43983846D01*
X133722161Y-44010940D01*
X133908794Y-44040500D01*
X133908799Y-44040500D01*
X134097766Y-44040500D01*
X134284398Y-44010940D01*
X134464112Y-43952547D01*
X134632479Y-43866760D01*
X134785353Y-43755690D01*
X134918970Y-43622073D01*
X135030040Y-43469199D01*
X135071308Y-43388205D01*
X135119282Y-43337409D01*
X135181793Y-43320500D01*
X139108828Y-43320500D01*
X139175867Y-43340185D01*
X139196509Y-43356819D01*
X139949419Y-44109729D01*
X139949422Y-44109733D01*
X140036547Y-44196858D01*
X140087770Y-44231084D01*
X140138994Y-44265312D01*
X140138995Y-44265312D01*
X140138996Y-44265313D01*
X140212670Y-44295829D01*
X140212674Y-44295830D01*
X140219487Y-44298652D01*
X140252828Y-44312463D01*
X140313251Y-44324481D01*
X140373673Y-44336500D01*
X140373674Y-44336500D01*
X154467919Y-44336500D01*
X154534958Y-44356185D01*
X154555601Y-44372820D01*
X154593241Y-44410461D01*
X154593245Y-44410464D01*
X154740726Y-44509009D01*
X154740739Y-44509016D01*
X154863643Y-44559923D01*
X154904614Y-44576894D01*
X154904616Y-44576894D01*
X154904621Y-44576896D01*
X155078584Y-44611499D01*
X155078587Y-44611500D01*
X155078589Y-44611500D01*
X155255973Y-44611500D01*
X155255974Y-44611499D01*
X155313962Y-44599964D01*
X155429938Y-44576896D01*
X155429941Y-44576894D01*
X155429946Y-44576894D01*
X155593827Y-44509013D01*
X155741315Y-44410464D01*
X155866744Y-44285035D01*
X155965293Y-44137547D01*
X156033174Y-43973666D01*
X156037376Y-43952545D01*
X156067779Y-43799695D01*
X156067780Y-43799693D01*
X156067780Y-43622306D01*
X156067779Y-43622304D01*
X156033176Y-43448341D01*
X156033173Y-43448332D01*
X155965296Y-43284459D01*
X155965289Y-43284446D01*
X155866744Y-43136965D01*
X155866741Y-43136961D01*
X155741318Y-43011538D01*
X155741314Y-43011535D01*
X155593833Y-42912990D01*
X155593820Y-42912983D01*
X155429947Y-42845106D01*
X155429938Y-42845103D01*
X155255974Y-42810500D01*
X155255971Y-42810500D01*
X155078589Y-42810500D01*
X155078586Y-42810500D01*
X154904621Y-42845103D01*
X154904612Y-42845106D01*
X154740739Y-42912983D01*
X154740726Y-42912990D01*
X154593245Y-43011535D01*
X154593241Y-43011538D01*
X154555601Y-43049180D01*
X154494279Y-43082666D01*
X154467919Y-43085500D01*
X140745732Y-43085500D01*
X140678693Y-43065815D01*
X140658051Y-43049181D01*
X139912430Y-42303560D01*
X139905140Y-42296270D01*
X139905138Y-42296267D01*
X139818013Y-42209142D01*
X139766789Y-42174915D01*
X139715566Y-42140688D01*
X139715563Y-42140686D01*
X139715560Y-42140685D01*
X139641883Y-42110168D01*
X139641881Y-42110167D01*
X139635072Y-42107347D01*
X139601732Y-42093537D01*
X139541309Y-42081518D01*
X139536586Y-42080578D01*
X139536584Y-42080578D01*
X139480890Y-42069500D01*
X139480887Y-42069500D01*
X139480886Y-42069500D01*
X134981906Y-42069500D01*
X134914867Y-42049815D01*
X134894225Y-42033182D01*
X134785353Y-41924310D01*
X134632479Y-41813240D01*
X134464116Y-41727454D01*
X134389752Y-41703291D01*
X134342475Y-41687930D01*
X134284801Y-41648493D01*
X134257603Y-41584134D01*
X134269518Y-41515288D01*
X134316762Y-41463812D01*
X134342474Y-41452069D01*
X134464112Y-41412547D01*
X134632479Y-41326760D01*
X134785353Y-41215690D01*
X134918970Y-41082073D01*
X134995591Y-40976612D01*
X135050920Y-40933949D01*
X135095908Y-40925500D01*
X151101065Y-40925500D01*
X151168104Y-40945185D01*
X151213859Y-40997989D01*
X151222682Y-41025309D01*
X151253383Y-41179658D01*
X151253386Y-41179667D01*
X151321263Y-41343540D01*
X151321270Y-41343553D01*
X151419815Y-41491034D01*
X151419818Y-41491038D01*
X151545241Y-41616461D01*
X151545245Y-41616464D01*
X151692726Y-41715009D01*
X151692739Y-41715016D01*
X151815643Y-41765923D01*
X151856614Y-41782894D01*
X151856616Y-41782894D01*
X151856621Y-41782896D01*
X152030584Y-41817499D01*
X152030587Y-41817500D01*
X152030589Y-41817500D01*
X152207973Y-41817500D01*
X152207974Y-41817499D01*
X152265962Y-41805964D01*
X152381938Y-41782896D01*
X152381941Y-41782894D01*
X152381946Y-41782894D01*
X152545827Y-41715013D01*
X152693315Y-41616464D01*
X152818744Y-41491035D01*
X152917293Y-41343547D01*
X152985174Y-41179666D01*
X153019780Y-41005691D01*
X153019780Y-40828309D01*
X153019780Y-40828306D01*
X153019779Y-40828304D01*
X152985176Y-40654341D01*
X152985173Y-40654332D01*
X152917296Y-40490459D01*
X152917289Y-40490446D01*
X152818744Y-40342965D01*
X152818741Y-40342961D01*
X152693318Y-40217538D01*
X152693314Y-40217535D01*
X152545833Y-40118990D01*
X152545820Y-40118983D01*
X152381947Y-40051106D01*
X152381938Y-40051103D01*
X152207974Y-40016500D01*
X152207971Y-40016500D01*
X152154732Y-40016500D01*
X152125291Y-40007855D01*
X152095305Y-40001332D01*
X152090289Y-39997577D01*
X152087693Y-39996815D01*
X152067051Y-39980181D01*
X151992478Y-39905608D01*
X151992458Y-39905586D01*
X151901013Y-39814141D01*
X151855605Y-39783801D01*
X151855604Y-39783800D01*
X151849789Y-39779915D01*
X151798566Y-39745688D01*
X151718072Y-39712347D01*
X151702737Y-39705995D01*
X151684733Y-39698537D01*
X151674707Y-39696543D01*
X151624309Y-39686518D01*
X151563890Y-39674500D01*
X151563887Y-39674500D01*
X151563886Y-39674500D01*
X135095908Y-39674500D01*
X135028869Y-39654815D01*
X134995592Y-39623388D01*
X134918970Y-39517927D01*
X134785353Y-39384310D01*
X134632479Y-39273240D01*
X134464116Y-39187454D01*
X134284398Y-39129059D01*
X134097766Y-39099500D01*
X134097761Y-39099500D01*
X133908799Y-39099500D01*
X133908794Y-39099500D01*
X133722161Y-39129059D01*
X133542443Y-39187454D01*
X133374080Y-39273240D01*
X133286859Y-39336610D01*
X133221207Y-39384310D01*
X133221205Y-39384312D01*
X133221204Y-39384312D01*
X133087592Y-39517924D01*
X133087592Y-39517925D01*
X133087590Y-39517927D01*
X133043647Y-39578409D01*
X132976520Y-39670800D01*
X132890734Y-39839163D01*
X132832339Y-40018881D01*
X132802780Y-40205513D01*
X127090780Y-40205513D01*
X127090780Y-39561998D01*
X127110465Y-39494959D01*
X127163269Y-39449204D01*
X127232427Y-39439260D01*
X127283669Y-39458894D01*
X127360940Y-39510526D01*
X127360942Y-39510527D01*
X127360946Y-39510529D01*
X127431660Y-39539819D01*
X127524821Y-39578407D01*
X127524823Y-39578407D01*
X127524828Y-39578409D01*
X127698791Y-39613012D01*
X127698794Y-39613013D01*
X127698796Y-39613013D01*
X127876180Y-39613013D01*
X127876181Y-39613012D01*
X127934169Y-39601477D01*
X128050145Y-39578409D01*
X128050148Y-39578407D01*
X128050153Y-39578407D01*
X128196171Y-39517925D01*
X128214027Y-39510529D01*
X128214027Y-39510528D01*
X128214034Y-39510526D01*
X128361522Y-39411977D01*
X128486951Y-39286548D01*
X128585500Y-39139060D01*
X128653381Y-38975179D01*
X128687987Y-38801204D01*
X128687987Y-38747965D01*
X128707672Y-38680926D01*
X128724306Y-38660284D01*
X128947772Y-38436819D01*
X129009095Y-38403334D01*
X129035453Y-38400500D01*
X129088693Y-38400500D01*
X129088694Y-38400499D01*
X129146682Y-38388964D01*
X129262658Y-38365896D01*
X129262661Y-38365894D01*
X129262666Y-38365894D01*
X129426547Y-38298013D01*
X129574035Y-38199464D01*
X129699464Y-38074035D01*
X129798013Y-37926547D01*
X129851323Y-37797844D01*
X131250000Y-37797844D01*
X131256401Y-37857372D01*
X131256403Y-37857379D01*
X131306645Y-37992086D01*
X131306649Y-37992093D01*
X131392809Y-38107187D01*
X131392812Y-38107190D01*
X131507906Y-38193350D01*
X131507913Y-38193354D01*
X131642620Y-38243596D01*
X131642627Y-38243598D01*
X131702155Y-38249999D01*
X131702172Y-38250000D01*
X132250000Y-38250000D01*
X132750000Y-38250000D01*
X133297828Y-38250000D01*
X133297844Y-38249999D01*
X133357372Y-38243598D01*
X133357379Y-38243596D01*
X133492086Y-38193354D01*
X133492093Y-38193350D01*
X133607187Y-38107190D01*
X133607190Y-38107187D01*
X133693350Y-37992093D01*
X133693354Y-37992086D01*
X133743596Y-37857379D01*
X133743598Y-37857372D01*
X133749999Y-37797844D01*
X133750000Y-37797827D01*
X133750000Y-37250000D01*
X132750000Y-37250000D01*
X132750000Y-38250000D01*
X132250000Y-38250000D01*
X132250000Y-37250000D01*
X131250000Y-37250000D01*
X131250000Y-37797844D01*
X129851323Y-37797844D01*
X129865894Y-37762666D01*
X129870979Y-37737106D01*
X129900499Y-37588695D01*
X129900500Y-37588693D01*
X129900500Y-37411306D01*
X129900499Y-37411304D01*
X129865896Y-37237342D01*
X129865893Y-37237332D01*
X129798016Y-37073459D01*
X129798009Y-37073446D01*
X129718145Y-36953922D01*
X132150000Y-36953922D01*
X132150000Y-37046078D01*
X132173852Y-37135095D01*
X132219930Y-37214905D01*
X132285095Y-37280070D01*
X132364905Y-37326148D01*
X132453922Y-37350000D01*
X132546078Y-37350000D01*
X132635095Y-37326148D01*
X132714905Y-37280070D01*
X132780070Y-37214905D01*
X132826148Y-37135095D01*
X132850000Y-37046078D01*
X132850000Y-36953922D01*
X132826148Y-36864905D01*
X132780070Y-36785095D01*
X132744975Y-36750000D01*
X132750000Y-36750000D01*
X133750000Y-36750000D01*
X133750000Y-36202172D01*
X133749999Y-36202155D01*
X133743598Y-36142627D01*
X133743596Y-36142620D01*
X133693354Y-36007913D01*
X133693350Y-36007906D01*
X133607190Y-35892812D01*
X133607187Y-35892809D01*
X133492093Y-35806649D01*
X133492086Y-35806645D01*
X133357379Y-35756403D01*
X133357372Y-35756401D01*
X133297844Y-35750000D01*
X132750000Y-35750000D01*
X132750000Y-36750000D01*
X132744975Y-36750000D01*
X132714905Y-36719930D01*
X132635095Y-36673852D01*
X132546078Y-36650000D01*
X132453922Y-36650000D01*
X132364905Y-36673852D01*
X132285095Y-36719930D01*
X132219930Y-36785095D01*
X132173852Y-36864905D01*
X132150000Y-36953922D01*
X129718145Y-36953922D01*
X129699464Y-36925965D01*
X129699461Y-36925961D01*
X129574038Y-36800538D01*
X129574034Y-36800535D01*
X129426553Y-36701990D01*
X129426540Y-36701983D01*
X129262667Y-36634106D01*
X129262658Y-36634103D01*
X129088694Y-36599500D01*
X129088691Y-36599500D01*
X128911309Y-36599500D01*
X128911306Y-36599500D01*
X128737341Y-36634103D01*
X128737332Y-36634106D01*
X128573459Y-36701983D01*
X128573446Y-36701990D01*
X128425965Y-36800535D01*
X128425961Y-36800538D01*
X128300538Y-36925961D01*
X128300535Y-36925965D01*
X128201990Y-37073446D01*
X128201983Y-37073459D01*
X128134106Y-37237332D01*
X128134103Y-37237341D01*
X128099500Y-37411304D01*
X128099500Y-37464547D01*
X128079815Y-37531586D01*
X128063181Y-37552228D01*
X127839716Y-37775694D01*
X127778393Y-37809179D01*
X127752035Y-37812013D01*
X127698793Y-37812013D01*
X127524828Y-37846616D01*
X127524819Y-37846619D01*
X127360946Y-37914496D01*
X127360933Y-37914503D01*
X127283671Y-37966129D01*
X127216993Y-37987007D01*
X127149613Y-37968523D01*
X127102923Y-37916544D01*
X127090780Y-37863027D01*
X127090780Y-37423096D01*
X127110465Y-37356057D01*
X127141889Y-37322782D01*
X127227353Y-37260690D01*
X127360970Y-37127073D01*
X127472040Y-36974199D01*
X127557827Y-36805832D01*
X127616220Y-36626118D01*
X127625389Y-36568229D01*
X127645780Y-36439486D01*
X127645780Y-36250512D01*
X127640670Y-36218248D01*
X127638121Y-36202155D01*
X131250000Y-36202155D01*
X131250000Y-36750000D01*
X132250000Y-36750000D01*
X132250000Y-35750000D01*
X131702155Y-35750000D01*
X131642627Y-35756401D01*
X131642620Y-35756403D01*
X131507913Y-35806645D01*
X131507906Y-35806649D01*
X131392812Y-35892809D01*
X131392809Y-35892812D01*
X131306649Y-36007906D01*
X131306645Y-36007913D01*
X131256403Y-36142620D01*
X131256401Y-36142627D01*
X131250000Y-36202155D01*
X127638121Y-36202155D01*
X127616220Y-36063881D01*
X127589126Y-35980497D01*
X127557827Y-35884168D01*
X127557825Y-35884165D01*
X127557825Y-35884163D01*
X127512570Y-35795347D01*
X127472040Y-35715801D01*
X127360970Y-35562927D01*
X127227353Y-35429310D01*
X127074479Y-35318240D01*
X126906116Y-35232454D01*
X126726398Y-35174059D01*
X126539766Y-35144500D01*
X126539761Y-35144500D01*
X126350799Y-35144500D01*
X126350794Y-35144500D01*
X126164161Y-35174059D01*
X125984443Y-35232454D01*
X125816080Y-35318240D01*
X125737527Y-35375313D01*
X125663207Y-35429310D01*
X125663205Y-35429312D01*
X125663204Y-35429312D01*
X125529592Y-35562924D01*
X125529592Y-35562925D01*
X125529590Y-35562927D01*
X125488844Y-35619009D01*
X125418520Y-35715800D01*
X125332734Y-35884163D01*
X125293211Y-36005803D01*
X125253773Y-36063478D01*
X125189414Y-36090676D01*
X125120568Y-36078761D01*
X125069092Y-36031516D01*
X125057349Y-36005803D01*
X125046929Y-35973734D01*
X125017827Y-35884168D01*
X125017825Y-35884165D01*
X125017825Y-35884163D01*
X124972570Y-35795347D01*
X124932040Y-35715801D01*
X124820970Y-35562927D01*
X124687353Y-35429310D01*
X124534479Y-35318240D01*
X124366116Y-35232454D01*
X124186398Y-35174059D01*
X123999766Y-35144500D01*
X123999761Y-35144500D01*
X123810799Y-35144500D01*
X123810794Y-35144500D01*
X123624161Y-35174059D01*
X123444443Y-35232454D01*
X123276080Y-35318240D01*
X123197527Y-35375313D01*
X123123207Y-35429310D01*
X123123205Y-35429312D01*
X123123204Y-35429312D01*
X122989592Y-35562924D01*
X122989592Y-35562925D01*
X122989590Y-35562927D01*
X122948844Y-35619009D01*
X122878520Y-35715800D01*
X122792734Y-35884163D01*
X122734339Y-36063881D01*
X122704780Y-36250513D01*
X122704780Y-36439486D01*
X122725171Y-36568229D01*
X122716216Y-36637522D01*
X122690379Y-36675308D01*
X120266189Y-39099500D01*
X119462549Y-39903140D01*
X119462547Y-39903142D01*
X119418984Y-39946704D01*
X119375422Y-39990266D01*
X119357893Y-40016501D01*
X119306968Y-40092713D01*
X119306964Y-40092721D01*
X119296087Y-40118984D01*
X119296086Y-40118987D01*
X119259818Y-40206545D01*
X119259815Y-40206555D01*
X119235780Y-40327389D01*
X119235780Y-50377638D01*
X119216095Y-50444677D01*
X119199461Y-50465319D01*
X119161818Y-50502961D01*
X119161815Y-50502965D01*
X119063270Y-50650446D01*
X119063263Y-50650459D01*
X118995386Y-50814332D01*
X118995383Y-50814341D01*
X118960780Y-50988304D01*
X118086780Y-50988304D01*
X118086780Y-50541394D01*
X118062743Y-50420548D01*
X118015591Y-50306714D01*
X118015590Y-50306713D01*
X118015587Y-50306707D01*
X117947139Y-50204268D01*
X117934562Y-50191691D01*
X117860013Y-50117142D01*
X117860012Y-50117141D01*
X116447139Y-48704269D01*
X116447138Y-48704267D01*
X116360013Y-48617142D01*
X116308789Y-48582915D01*
X116257566Y-48548688D01*
X116257563Y-48548686D01*
X116257560Y-48548685D01*
X116183883Y-48518168D01*
X116183881Y-48518167D01*
X116177072Y-48515347D01*
X116143732Y-48501537D01*
X116083309Y-48489518D01*
X116078586Y-48488578D01*
X116078584Y-48488578D01*
X116022890Y-48477500D01*
X116022887Y-48477500D01*
X116022886Y-48477500D01*
X113022887Y-48477500D01*
X112899673Y-48477500D01*
X112899669Y-48477500D01*
X112848815Y-48487615D01*
X112848810Y-48487616D01*
X112839251Y-48489518D01*
X112778828Y-48501537D01*
X112731677Y-48521067D01*
X112664995Y-48548688D01*
X112664994Y-48548689D01*
X112642627Y-48563633D01*
X112642624Y-48563635D01*
X112562548Y-48617140D01*
X112518985Y-48660703D01*
X112475422Y-48704267D01*
X112064930Y-49114758D01*
X112064921Y-49114767D01*
X112062550Y-49117139D01*
X112062547Y-49117142D01*
X111975422Y-49204267D01*
X111953480Y-49237106D01*
X111948575Y-49244445D01*
X111948570Y-49244452D01*
X111906969Y-49306712D01*
X111906965Y-49306719D01*
X111877861Y-49376985D01*
X111877860Y-49376988D01*
X111861890Y-49415541D01*
X111835013Y-49455766D01*
X111761813Y-49528968D01*
X111663270Y-49676446D01*
X111663263Y-49676459D01*
X111595386Y-49840332D01*
X111595383Y-49840341D01*
X111560780Y-50014304D01*
X109500500Y-50014304D01*
X109500500Y-30196452D01*
X110540780Y-30196452D01*
X110540780Y-30509547D01*
X110575833Y-30820646D01*
X110575835Y-30820662D01*
X110645502Y-31125894D01*
X110645506Y-31125906D01*
X110748909Y-31421414D01*
X110884749Y-31703488D01*
X111051321Y-31968586D01*
X111187887Y-32139837D01*
X112087721Y-31240003D01*
X112165075Y-31346471D01*
X112334809Y-31516205D01*
X112441275Y-31593557D01*
X111541441Y-32493391D01*
X111712693Y-32629958D01*
X111977791Y-32796530D01*
X112259865Y-32932370D01*
X112555373Y-33035773D01*
X112555385Y-33035777D01*
X112860617Y-33105444D01*
X112860633Y-33105446D01*
X113171732Y-33140499D01*
X113171733Y-33140500D01*
X113484827Y-33140500D01*
X113484827Y-33140499D01*
X113795926Y-33105446D01*
X113795942Y-33105444D01*
X114101174Y-33035777D01*
X114101186Y-33035773D01*
X114396694Y-32932370D01*
X114678768Y-32796530D01*
X114943866Y-32629958D01*
X115115117Y-32493391D01*
X114215283Y-31593557D01*
X114321751Y-31516205D01*
X114491485Y-31346471D01*
X114568837Y-31240003D01*
X115468671Y-32139837D01*
X115605238Y-31968586D01*
X115771810Y-31703488D01*
X115785733Y-31674577D01*
X119032780Y-31674577D01*
X119032780Y-31871422D01*
X119063570Y-32065826D01*
X119124397Y-32253029D01*
X119168885Y-32340341D01*
X119213756Y-32428405D01*
X119329452Y-32587646D01*
X119468634Y-32726828D01*
X119627875Y-32842524D01*
X119673294Y-32865666D01*
X119803250Y-32931882D01*
X119803252Y-32931882D01*
X119803255Y-32931884D01*
X119903597Y-32964487D01*
X119990453Y-32992709D01*
X120184858Y-33023500D01*
X120184863Y-33023500D01*
X120381702Y-33023500D01*
X120576106Y-32992709D01*
X120579790Y-32991512D01*
X120763305Y-32931884D01*
X120938685Y-32842524D01*
X121097926Y-32726828D01*
X121237108Y-32587646D01*
X121352804Y-32428405D01*
X121442164Y-32253025D01*
X121502989Y-32065826D01*
X121512900Y-32003249D01*
X121533780Y-31871422D01*
X121533780Y-31674577D01*
X121802780Y-31674577D01*
X121802780Y-31871422D01*
X121833570Y-32065826D01*
X121894397Y-32253029D01*
X121938885Y-32340341D01*
X121983756Y-32428405D01*
X122099452Y-32587646D01*
X122238634Y-32726828D01*
X122397875Y-32842524D01*
X122443294Y-32865666D01*
X122573250Y-32931882D01*
X122573252Y-32931882D01*
X122573255Y-32931884D01*
X122673597Y-32964487D01*
X122760453Y-32992709D01*
X122954858Y-33023500D01*
X122954863Y-33023500D01*
X123151702Y-33023500D01*
X123346106Y-32992709D01*
X123349790Y-32991512D01*
X123533305Y-32931884D01*
X123708685Y-32842524D01*
X123867926Y-32726828D01*
X124007108Y-32587646D01*
X124122804Y-32428405D01*
X124212164Y-32253025D01*
X124272989Y-32065826D01*
X124282900Y-32003249D01*
X124303780Y-31871422D01*
X124303780Y-31674577D01*
X124572780Y-31674577D01*
X124572780Y-31871422D01*
X124603570Y-32065826D01*
X124664397Y-32253029D01*
X124708885Y-32340341D01*
X124753756Y-32428405D01*
X124869452Y-32587646D01*
X125008634Y-32726828D01*
X125167875Y-32842524D01*
X125213294Y-32865666D01*
X125343250Y-32931882D01*
X125343252Y-32931882D01*
X125343255Y-32931884D01*
X125443597Y-32964487D01*
X125530453Y-32992709D01*
X125724858Y-33023500D01*
X125724863Y-33023500D01*
X125921702Y-33023500D01*
X126116106Y-32992709D01*
X126119790Y-32991512D01*
X126303305Y-32931884D01*
X126478685Y-32842524D01*
X126637926Y-32726828D01*
X126777108Y-32587646D01*
X126892804Y-32428405D01*
X126982164Y-32253025D01*
X127042989Y-32065826D01*
X127052900Y-32003249D01*
X127073780Y-31871422D01*
X127073780Y-31674577D01*
X127342780Y-31674577D01*
X127342780Y-31871422D01*
X127373570Y-32065826D01*
X127434397Y-32253029D01*
X127478885Y-32340341D01*
X127523756Y-32428405D01*
X127639452Y-32587646D01*
X127778634Y-32726828D01*
X127937875Y-32842524D01*
X127983294Y-32865666D01*
X128113250Y-32931882D01*
X128113252Y-32931882D01*
X128113255Y-32931884D01*
X128213597Y-32964487D01*
X128300453Y-32992709D01*
X128494858Y-33023500D01*
X128494863Y-33023500D01*
X128691702Y-33023500D01*
X128886106Y-32992709D01*
X128889790Y-32991512D01*
X129073305Y-32931884D01*
X129248685Y-32842524D01*
X129407926Y-32726828D01*
X129547108Y-32587646D01*
X129662804Y-32428405D01*
X129752164Y-32253025D01*
X129812989Y-32065826D01*
X129822900Y-32003249D01*
X129843780Y-31871422D01*
X129843780Y-31674577D01*
X130112780Y-31674577D01*
X130112780Y-31871422D01*
X130143570Y-32065826D01*
X130204397Y-32253029D01*
X130248885Y-32340341D01*
X130293756Y-32428405D01*
X130409452Y-32587646D01*
X130548634Y-32726828D01*
X130707875Y-32842524D01*
X130753294Y-32865666D01*
X130883250Y-32931882D01*
X130883252Y-32931882D01*
X130883255Y-32931884D01*
X130983597Y-32964487D01*
X131070453Y-32992709D01*
X131264858Y-33023500D01*
X131264863Y-33023500D01*
X131461702Y-33023500D01*
X131656106Y-32992709D01*
X131659790Y-32991512D01*
X131843305Y-32931884D01*
X132018685Y-32842524D01*
X132177926Y-32726828D01*
X132317108Y-32587646D01*
X132432804Y-32428405D01*
X132522164Y-32253025D01*
X132582989Y-32065826D01*
X132592900Y-32003249D01*
X132613780Y-31871422D01*
X132613780Y-31674577D01*
X132882780Y-31674577D01*
X132882780Y-31871422D01*
X132913570Y-32065826D01*
X132974397Y-32253029D01*
X133018885Y-32340341D01*
X133063756Y-32428405D01*
X133179452Y-32587646D01*
X133318634Y-32726828D01*
X133477875Y-32842524D01*
X133523294Y-32865666D01*
X133653250Y-32931882D01*
X133653252Y-32931882D01*
X133653255Y-32931884D01*
X133753597Y-32964487D01*
X133840453Y-32992709D01*
X134034858Y-33023500D01*
X134034863Y-33023500D01*
X134231702Y-33023500D01*
X134426106Y-32992709D01*
X134429790Y-32991512D01*
X134613305Y-32931884D01*
X134788685Y-32842524D01*
X134947926Y-32726828D01*
X135087108Y-32587646D01*
X135202804Y-32428405D01*
X135292164Y-32253025D01*
X135352989Y-32065826D01*
X135362900Y-32003249D01*
X135383780Y-31871422D01*
X135383780Y-31674577D01*
X135652780Y-31674577D01*
X135652780Y-31871422D01*
X135683570Y-32065826D01*
X135744397Y-32253029D01*
X135788885Y-32340341D01*
X135833756Y-32428405D01*
X135949452Y-32587646D01*
X136088634Y-32726828D01*
X136247875Y-32842524D01*
X136293294Y-32865666D01*
X136423250Y-32931882D01*
X136423252Y-32931882D01*
X136423255Y-32931884D01*
X136523597Y-32964487D01*
X136610453Y-32992709D01*
X136804858Y-33023500D01*
X136804863Y-33023500D01*
X137001702Y-33023500D01*
X137170213Y-32996810D01*
X137239506Y-33005764D01*
X137277292Y-33031602D01*
X139465419Y-35219729D01*
X139465422Y-35219733D01*
X139552547Y-35306858D01*
X139629470Y-35358256D01*
X139635270Y-35362132D01*
X139635273Y-35362134D01*
X139654990Y-35375309D01*
X139654993Y-35375311D01*
X139654995Y-35375312D01*
X139711390Y-35398671D01*
X139711391Y-35398672D01*
X139711392Y-35398672D01*
X139768828Y-35422463D01*
X139829251Y-35434481D01*
X139889673Y-35446500D01*
X139889674Y-35446500D01*
X143291919Y-35446500D01*
X143358958Y-35466185D01*
X143379601Y-35482820D01*
X143417241Y-35520461D01*
X143417245Y-35520464D01*
X143564726Y-35619009D01*
X143564739Y-35619016D01*
X143687643Y-35669923D01*
X143728614Y-35686894D01*
X143728616Y-35686894D01*
X143728621Y-35686896D01*
X143902584Y-35721499D01*
X143902587Y-35721500D01*
X143902589Y-35721500D01*
X144079973Y-35721500D01*
X144079974Y-35721499D01*
X144137962Y-35709964D01*
X144253938Y-35686896D01*
X144253941Y-35686894D01*
X144253946Y-35686894D01*
X144417827Y-35619013D01*
X144565315Y-35520464D01*
X144690744Y-35395035D01*
X144789293Y-35247547D01*
X144857174Y-35083666D01*
X144891780Y-34909691D01*
X144891780Y-34732309D01*
X144891780Y-34732306D01*
X144891779Y-34732304D01*
X144857176Y-34558341D01*
X144857173Y-34558332D01*
X144789296Y-34394459D01*
X144789289Y-34394446D01*
X144690744Y-34246965D01*
X144690741Y-34246961D01*
X144565318Y-34121538D01*
X144565314Y-34121535D01*
X144417833Y-34022990D01*
X144417820Y-34022983D01*
X144253947Y-33955106D01*
X144253938Y-33955103D01*
X144079974Y-33920500D01*
X144079971Y-33920500D01*
X143902589Y-33920500D01*
X143902586Y-33920500D01*
X143728621Y-33955103D01*
X143728612Y-33955106D01*
X143564739Y-34022983D01*
X143564726Y-34022990D01*
X143417245Y-34121535D01*
X143417241Y-34121538D01*
X143379601Y-34159180D01*
X143318279Y-34192666D01*
X143291919Y-34195500D01*
X140261732Y-34195500D01*
X140194693Y-34175815D01*
X140174051Y-34159181D01*
X139193330Y-33178460D01*
X139159845Y-33117137D01*
X139164829Y-33047445D01*
X139206701Y-32991512D01*
X139272165Y-32967095D01*
X139319326Y-32972847D01*
X139380454Y-32992709D01*
X139406347Y-32996810D01*
X139574858Y-33023500D01*
X139574863Y-33023500D01*
X139771702Y-33023500D01*
X139966106Y-32992709D01*
X139969790Y-32991512D01*
X140153305Y-32931884D01*
X140328685Y-32842524D01*
X140487926Y-32726828D01*
X140627108Y-32587646D01*
X140742804Y-32428405D01*
X140832164Y-32253025D01*
X140892989Y-32065826D01*
X140902900Y-32003249D01*
X140923780Y-31871422D01*
X140923780Y-31674577D01*
X140892989Y-31480173D01*
X140832162Y-31292970D01*
X140785023Y-31200455D01*
X140742804Y-31117595D01*
X140627108Y-30958354D01*
X140487926Y-30819172D01*
X140328685Y-30703476D01*
X140153309Y-30614117D01*
X139966106Y-30553290D01*
X139771702Y-30522500D01*
X139771697Y-30522500D01*
X139574863Y-30522500D01*
X139574858Y-30522500D01*
X139380453Y-30553290D01*
X139193250Y-30614117D01*
X139017874Y-30703476D01*
X138966324Y-30740930D01*
X138858634Y-30819172D01*
X138858632Y-30819174D01*
X138858631Y-30819174D01*
X138719454Y-30958351D01*
X138719454Y-30958352D01*
X138719452Y-30958354D01*
X138693816Y-30993639D01*
X138603756Y-31117594D01*
X138514397Y-31292970D01*
X138453570Y-31480173D01*
X138422780Y-31674577D01*
X138422780Y-31871422D01*
X138453570Y-32065826D01*
X138473431Y-32126949D01*
X138475426Y-32196791D01*
X138439346Y-32256624D01*
X138376645Y-32287452D01*
X138307231Y-32279488D01*
X138267819Y-32252949D01*
X138161882Y-32147012D01*
X138128397Y-32085689D01*
X138127090Y-32039933D01*
X138153780Y-31871422D01*
X138153780Y-31674577D01*
X138122989Y-31480173D01*
X138062162Y-31292970D01*
X138015023Y-31200455D01*
X137972804Y-31117595D01*
X137857108Y-30958354D01*
X137717926Y-30819172D01*
X137558685Y-30703476D01*
X137383309Y-30614117D01*
X137196106Y-30553290D01*
X137001702Y-30522500D01*
X137001697Y-30522500D01*
X136804863Y-30522500D01*
X136804858Y-30522500D01*
X136610453Y-30553290D01*
X136423250Y-30614117D01*
X136247874Y-30703476D01*
X136196324Y-30740930D01*
X136088634Y-30819172D01*
X136088632Y-30819174D01*
X136088631Y-30819174D01*
X135949454Y-30958351D01*
X135949454Y-30958352D01*
X135949452Y-30958354D01*
X135923816Y-30993639D01*
X135833756Y-31117594D01*
X135744397Y-31292970D01*
X135683570Y-31480173D01*
X135652780Y-31674577D01*
X135383780Y-31674577D01*
X135352989Y-31480173D01*
X135292162Y-31292970D01*
X135245023Y-31200455D01*
X135202804Y-31117595D01*
X135087108Y-30958354D01*
X134947926Y-30819172D01*
X134788685Y-30703476D01*
X134613309Y-30614117D01*
X134426106Y-30553290D01*
X134231702Y-30522500D01*
X134231697Y-30522500D01*
X134034863Y-30522500D01*
X134034858Y-30522500D01*
X133840453Y-30553290D01*
X133653250Y-30614117D01*
X133477874Y-30703476D01*
X133426324Y-30740930D01*
X133318634Y-30819172D01*
X133318632Y-30819174D01*
X133318631Y-30819174D01*
X133179454Y-30958351D01*
X133179454Y-30958352D01*
X133179452Y-30958354D01*
X133153816Y-30993639D01*
X133063756Y-31117594D01*
X132974397Y-31292970D01*
X132913570Y-31480173D01*
X132882780Y-31674577D01*
X132613780Y-31674577D01*
X132582989Y-31480173D01*
X132522162Y-31292970D01*
X132475023Y-31200455D01*
X132432804Y-31117595D01*
X132317108Y-30958354D01*
X132177926Y-30819172D01*
X132018685Y-30703476D01*
X131843309Y-30614117D01*
X131656106Y-30553290D01*
X131461702Y-30522500D01*
X131461697Y-30522500D01*
X131264863Y-30522500D01*
X131264858Y-30522500D01*
X131070453Y-30553290D01*
X130883250Y-30614117D01*
X130707874Y-30703476D01*
X130656324Y-30740930D01*
X130548634Y-30819172D01*
X130548632Y-30819174D01*
X130548631Y-30819174D01*
X130409454Y-30958351D01*
X130409454Y-30958352D01*
X130409452Y-30958354D01*
X130383816Y-30993639D01*
X130293756Y-31117594D01*
X130204397Y-31292970D01*
X130143570Y-31480173D01*
X130112780Y-31674577D01*
X129843780Y-31674577D01*
X129812989Y-31480173D01*
X129752162Y-31292970D01*
X129705023Y-31200455D01*
X129662804Y-31117595D01*
X129547108Y-30958354D01*
X129407926Y-30819172D01*
X129248685Y-30703476D01*
X129073309Y-30614117D01*
X128886106Y-30553290D01*
X128691702Y-30522500D01*
X128691697Y-30522500D01*
X128494863Y-30522500D01*
X128494858Y-30522500D01*
X128300453Y-30553290D01*
X128113250Y-30614117D01*
X127937874Y-30703476D01*
X127886324Y-30740930D01*
X127778634Y-30819172D01*
X127778632Y-30819174D01*
X127778631Y-30819174D01*
X127639454Y-30958351D01*
X127639454Y-30958352D01*
X127639452Y-30958354D01*
X127613816Y-30993639D01*
X127523756Y-31117594D01*
X127434397Y-31292970D01*
X127373570Y-31480173D01*
X127342780Y-31674577D01*
X127073780Y-31674577D01*
X127042989Y-31480173D01*
X126982162Y-31292970D01*
X126935023Y-31200455D01*
X126892804Y-31117595D01*
X126777108Y-30958354D01*
X126637926Y-30819172D01*
X126478685Y-30703476D01*
X126303309Y-30614117D01*
X126116106Y-30553290D01*
X125921702Y-30522500D01*
X125921697Y-30522500D01*
X125724863Y-30522500D01*
X125724858Y-30522500D01*
X125530453Y-30553290D01*
X125343250Y-30614117D01*
X125167874Y-30703476D01*
X125116324Y-30740930D01*
X125008634Y-30819172D01*
X125008632Y-30819174D01*
X125008631Y-30819174D01*
X124869454Y-30958351D01*
X124869454Y-30958352D01*
X124869452Y-30958354D01*
X124843816Y-30993639D01*
X124753756Y-31117594D01*
X124664397Y-31292970D01*
X124603570Y-31480173D01*
X124572780Y-31674577D01*
X124303780Y-31674577D01*
X124272989Y-31480173D01*
X124212162Y-31292970D01*
X124165023Y-31200455D01*
X124122804Y-31117595D01*
X124007108Y-30958354D01*
X123867926Y-30819172D01*
X123708685Y-30703476D01*
X123533309Y-30614117D01*
X123346106Y-30553290D01*
X123151702Y-30522500D01*
X123151697Y-30522500D01*
X122954863Y-30522500D01*
X122954858Y-30522500D01*
X122760453Y-30553290D01*
X122573250Y-30614117D01*
X122397874Y-30703476D01*
X122346324Y-30740930D01*
X122238634Y-30819172D01*
X122238632Y-30819174D01*
X122238631Y-30819174D01*
X122099454Y-30958351D01*
X122099454Y-30958352D01*
X122099452Y-30958354D01*
X122073816Y-30993639D01*
X121983756Y-31117594D01*
X121894397Y-31292970D01*
X121833570Y-31480173D01*
X121802780Y-31674577D01*
X121533780Y-31674577D01*
X121502989Y-31480173D01*
X121442162Y-31292970D01*
X121395023Y-31200455D01*
X121352804Y-31117595D01*
X121237108Y-30958354D01*
X121097926Y-30819172D01*
X120938685Y-30703476D01*
X120763309Y-30614117D01*
X120576106Y-30553290D01*
X120381702Y-30522500D01*
X120381697Y-30522500D01*
X120184863Y-30522500D01*
X120184858Y-30522500D01*
X119990453Y-30553290D01*
X119803250Y-30614117D01*
X119627874Y-30703476D01*
X119576324Y-30740930D01*
X119468634Y-30819172D01*
X119468632Y-30819174D01*
X119468631Y-30819174D01*
X119329454Y-30958351D01*
X119329454Y-30958352D01*
X119329452Y-30958354D01*
X119303816Y-30993639D01*
X119213756Y-31117594D01*
X119124397Y-31292970D01*
X119063570Y-31480173D01*
X119032780Y-31674577D01*
X115785733Y-31674577D01*
X115813987Y-31615909D01*
X115907650Y-31421414D01*
X116011053Y-31125906D01*
X116011057Y-31125894D01*
X116080724Y-30820662D01*
X116080726Y-30820646D01*
X116115779Y-30509547D01*
X116115780Y-30509547D01*
X116115780Y-30196453D01*
X116115779Y-30196452D01*
X143840780Y-30196452D01*
X143840780Y-30509547D01*
X143875833Y-30820646D01*
X143875835Y-30820662D01*
X143945502Y-31125894D01*
X143945506Y-31125906D01*
X144048909Y-31421414D01*
X144184749Y-31703488D01*
X144351321Y-31968586D01*
X144487887Y-32139837D01*
X145387721Y-31240003D01*
X145465075Y-31346471D01*
X145634809Y-31516205D01*
X145741275Y-31593557D01*
X144841441Y-32493391D01*
X145012693Y-32629958D01*
X145277791Y-32796530D01*
X145559865Y-32932370D01*
X145855373Y-33035773D01*
X145855385Y-33035777D01*
X146160617Y-33105444D01*
X146160633Y-33105446D01*
X146471732Y-33140499D01*
X146471733Y-33140500D01*
X146784827Y-33140500D01*
X146784827Y-33140499D01*
X147095926Y-33105446D01*
X147095942Y-33105444D01*
X147401174Y-33035777D01*
X147401186Y-33035773D01*
X147696694Y-32932370D01*
X147978768Y-32796530D01*
X148243866Y-32629958D01*
X148415117Y-32493391D01*
X147515283Y-31593557D01*
X147621751Y-31516205D01*
X147791485Y-31346471D01*
X147868837Y-31240003D01*
X148768671Y-32139837D01*
X148905238Y-31968586D01*
X149071810Y-31703488D01*
X149207650Y-31421414D01*
X149311053Y-31125906D01*
X149311057Y-31125894D01*
X149380724Y-30820662D01*
X149380726Y-30820646D01*
X149415779Y-30509547D01*
X149415780Y-30509547D01*
X149415780Y-30485070D01*
X154956780Y-30485070D01*
X154956780Y-30740929D01*
X154996806Y-30993640D01*
X155075868Y-31236972D01*
X155075869Y-31236975D01*
X155192030Y-31464950D01*
X155342412Y-31671935D01*
X155342416Y-31671940D01*
X155523339Y-31852863D01*
X155523344Y-31852867D01*
X155682619Y-31968586D01*
X155730333Y-32003252D01*
X155853141Y-32065826D01*
X155958304Y-32119410D01*
X155958307Y-32119411D01*
X156021173Y-32139837D01*
X156201641Y-32198474D01*
X156454350Y-32238500D01*
X156454351Y-32238500D01*
X158964547Y-32238500D01*
X159031586Y-32258185D01*
X159077341Y-32310989D01*
X159087285Y-32380147D01*
X159086164Y-32386691D01*
X159060780Y-32514304D01*
X159060780Y-32691695D01*
X159095383Y-32865658D01*
X159095386Y-32865667D01*
X159163263Y-33029540D01*
X159163270Y-33029553D01*
X159261815Y-33177034D01*
X159261818Y-33177038D01*
X159387241Y-33302461D01*
X159387245Y-33302464D01*
X159534726Y-33401009D01*
X159534739Y-33401016D01*
X159657643Y-33451923D01*
X159698614Y-33468894D01*
X159698616Y-33468894D01*
X159698621Y-33468896D01*
X159872584Y-33503499D01*
X159872587Y-33503500D01*
X159872589Y-33503500D01*
X160049973Y-33503500D01*
X160049974Y-33503499D01*
X160107962Y-33491964D01*
X160223938Y-33468896D01*
X160223941Y-33468894D01*
X160223946Y-33468894D01*
X160387827Y-33401013D01*
X160535315Y-33302464D01*
X160660744Y-33177035D01*
X160759293Y-33029547D01*
X160827174Y-32865666D01*
X160831778Y-32842524D01*
X160861779Y-32691695D01*
X160861780Y-32691693D01*
X160861780Y-32514306D01*
X160861779Y-32514304D01*
X160827176Y-32340341D01*
X160827174Y-32340338D01*
X160827174Y-32340334D01*
X160770082Y-32202500D01*
X160765859Y-32192304D01*
X174332780Y-32192304D01*
X174332780Y-32369695D01*
X174367383Y-32543658D01*
X174367386Y-32543667D01*
X174435263Y-32707540D01*
X174435270Y-32707553D01*
X174533815Y-32855034D01*
X174533818Y-32855038D01*
X174659241Y-32980461D01*
X174659245Y-32980464D01*
X174806726Y-33079009D01*
X174806739Y-33079016D01*
X174898773Y-33117137D01*
X174970614Y-33146894D01*
X174970616Y-33146894D01*
X174970621Y-33146896D01*
X175144584Y-33181499D01*
X175144587Y-33181500D01*
X175144589Y-33181500D01*
X175321973Y-33181500D01*
X175321974Y-33181499D01*
X175379962Y-33169964D01*
X175495938Y-33146896D01*
X175495941Y-33146894D01*
X175495946Y-33146894D01*
X175659827Y-33079013D01*
X175807315Y-32980464D01*
X175932744Y-32855035D01*
X176031293Y-32707547D01*
X176099174Y-32543666D01*
X176102099Y-32528965D01*
X176122244Y-32427682D01*
X176133780Y-32369691D01*
X176133780Y-32192309D01*
X176133780Y-32192306D01*
X176133779Y-32192304D01*
X176099176Y-32018341D01*
X176099173Y-32018332D01*
X176031296Y-31854459D01*
X176031289Y-31854446D01*
X175932744Y-31706965D01*
X175932741Y-31706961D01*
X175807318Y-31581538D01*
X175807314Y-31581535D01*
X175659833Y-31482990D01*
X175659820Y-31482983D01*
X175495947Y-31415106D01*
X175495938Y-31415103D01*
X175321974Y-31380500D01*
X175321971Y-31380500D01*
X175144589Y-31380500D01*
X175144586Y-31380500D01*
X174970621Y-31415103D01*
X174970612Y-31415106D01*
X174806739Y-31482983D01*
X174806726Y-31482990D01*
X174659245Y-31581535D01*
X174659241Y-31581538D01*
X174533818Y-31706961D01*
X174533815Y-31706965D01*
X174435270Y-31854446D01*
X174435263Y-31854459D01*
X174367386Y-32018332D01*
X174367383Y-32018341D01*
X174332780Y-32192304D01*
X160765859Y-32192304D01*
X160759296Y-32176459D01*
X160759289Y-32176446D01*
X160660744Y-32028965D01*
X160660741Y-32028961D01*
X160535318Y-31903538D01*
X160535314Y-31903535D01*
X160387833Y-31804990D01*
X160387820Y-31804983D01*
X160218318Y-31734775D01*
X160219166Y-31732727D01*
X160169047Y-31699868D01*
X160140603Y-31636051D01*
X160151177Y-31566986D01*
X160163173Y-31546647D01*
X160222532Y-31464947D01*
X160338690Y-31236975D01*
X160417754Y-30993639D01*
X160457780Y-30740930D01*
X160457780Y-30485070D01*
X160417754Y-30232361D01*
X160342076Y-29999446D01*
X160338691Y-29989027D01*
X160338690Y-29989024D01*
X160263643Y-29841738D01*
X160222532Y-29761053D01*
X160122322Y-29623125D01*
X160072147Y-29554064D01*
X160072143Y-29554059D01*
X159891220Y-29373136D01*
X159891215Y-29373132D01*
X159684230Y-29222750D01*
X159684229Y-29222749D01*
X159684227Y-29222748D01*
X159611190Y-29185533D01*
X159456255Y-29106589D01*
X159456252Y-29106588D01*
X159212920Y-29027526D01*
X159031718Y-28998826D01*
X158960210Y-28987500D01*
X156454350Y-28987500D01*
X156382842Y-28998826D01*
X156201639Y-29027526D01*
X155958307Y-29106588D01*
X155958304Y-29106589D01*
X155730329Y-29222750D01*
X155523344Y-29373132D01*
X155523339Y-29373136D01*
X155342416Y-29554059D01*
X155342412Y-29554064D01*
X155192030Y-29761049D01*
X155075869Y-29989024D01*
X155075868Y-29989027D01*
X154996806Y-30232359D01*
X154956780Y-30485070D01*
X149415780Y-30485070D01*
X149415780Y-30196453D01*
X149415779Y-30196452D01*
X149380726Y-29885353D01*
X149380724Y-29885337D01*
X149311057Y-29580105D01*
X149311053Y-29580093D01*
X149207650Y-29284585D01*
X149071810Y-29002511D01*
X148905238Y-28737413D01*
X148768671Y-28566161D01*
X147868837Y-29465995D01*
X147791485Y-29359529D01*
X147621751Y-29189795D01*
X147515283Y-29112442D01*
X148415117Y-28212607D01*
X148243866Y-28076041D01*
X147978768Y-27909469D01*
X147696694Y-27773629D01*
X147401186Y-27670226D01*
X147401174Y-27670222D01*
X147095942Y-27600555D01*
X147095926Y-27600553D01*
X146784827Y-27565500D01*
X146471733Y-27565500D01*
X146160633Y-27600553D01*
X146160617Y-27600555D01*
X145855385Y-27670222D01*
X145855373Y-27670226D01*
X145559865Y-27773629D01*
X145277791Y-27909469D01*
X145012689Y-28076043D01*
X145012685Y-28076046D01*
X144841441Y-28212607D01*
X145741276Y-29112442D01*
X145634809Y-29189795D01*
X145465075Y-29359529D01*
X145387722Y-29465995D01*
X144487887Y-28566161D01*
X144351326Y-28737405D01*
X144351323Y-28737409D01*
X144184749Y-29002511D01*
X144048909Y-29284585D01*
X143945506Y-29580093D01*
X143945502Y-29580105D01*
X143875835Y-29885337D01*
X143875833Y-29885353D01*
X143840780Y-30196452D01*
X116115779Y-30196452D01*
X116080726Y-29885353D01*
X116080724Y-29885337D01*
X116011057Y-29580105D01*
X116011053Y-29580093D01*
X115907650Y-29284585D01*
X115771810Y-29002511D01*
X115704686Y-28895683D01*
X115666290Y-28834577D01*
X120417780Y-28834577D01*
X120417780Y-29031422D01*
X120448570Y-29225826D01*
X120509397Y-29413029D01*
X120581086Y-29553726D01*
X120598756Y-29588405D01*
X120714452Y-29747646D01*
X120853634Y-29886828D01*
X121012875Y-30002524D01*
X121095735Y-30044743D01*
X121188250Y-30091882D01*
X121188252Y-30091882D01*
X121188255Y-30091884D01*
X121288597Y-30124487D01*
X121375453Y-30152709D01*
X121569858Y-30183500D01*
X121569863Y-30183500D01*
X121766702Y-30183500D01*
X121961106Y-30152709D01*
X121962608Y-30152221D01*
X122148305Y-30091884D01*
X122323685Y-30002524D01*
X122482926Y-29886828D01*
X122622108Y-29747646D01*
X122737804Y-29588405D01*
X122827164Y-29413025D01*
X122887989Y-29225826D01*
X122906874Y-29106590D01*
X122918780Y-29031422D01*
X122918780Y-28834577D01*
X123187780Y-28834577D01*
X123187780Y-29031422D01*
X123218570Y-29225826D01*
X123279397Y-29413029D01*
X123351086Y-29553726D01*
X123368756Y-29588405D01*
X123484452Y-29747646D01*
X123623634Y-29886828D01*
X123782875Y-30002524D01*
X123865735Y-30044743D01*
X123958250Y-30091882D01*
X123958252Y-30091882D01*
X123958255Y-30091884D01*
X124058597Y-30124487D01*
X124145453Y-30152709D01*
X124339858Y-30183500D01*
X124339863Y-30183500D01*
X124536702Y-30183500D01*
X124731106Y-30152709D01*
X124732608Y-30152221D01*
X124918305Y-30091884D01*
X125093685Y-30002524D01*
X125252926Y-29886828D01*
X125392108Y-29747646D01*
X125507804Y-29588405D01*
X125597164Y-29413025D01*
X125657989Y-29225826D01*
X125676874Y-29106590D01*
X125688780Y-29031422D01*
X125688780Y-28834577D01*
X125957780Y-28834577D01*
X125957780Y-29031422D01*
X125988570Y-29225826D01*
X126049397Y-29413029D01*
X126121086Y-29553726D01*
X126138756Y-29588405D01*
X126254452Y-29747646D01*
X126393634Y-29886828D01*
X126552875Y-30002524D01*
X126635735Y-30044743D01*
X126728250Y-30091882D01*
X126728252Y-30091882D01*
X126728255Y-30091884D01*
X126828597Y-30124487D01*
X126915453Y-30152709D01*
X127109858Y-30183500D01*
X127109863Y-30183500D01*
X127306702Y-30183500D01*
X127501106Y-30152709D01*
X127502608Y-30152221D01*
X127688305Y-30091884D01*
X127863685Y-30002524D01*
X128022926Y-29886828D01*
X128162108Y-29747646D01*
X128277804Y-29588405D01*
X128367164Y-29413025D01*
X128427989Y-29225826D01*
X128446874Y-29106590D01*
X128458780Y-29031422D01*
X128458780Y-28834577D01*
X128727780Y-28834577D01*
X128727780Y-29031422D01*
X128758570Y-29225826D01*
X128819397Y-29413029D01*
X128891086Y-29553726D01*
X128908756Y-29588405D01*
X129024452Y-29747646D01*
X129163634Y-29886828D01*
X129322875Y-30002524D01*
X129405735Y-30044743D01*
X129498250Y-30091882D01*
X129498252Y-30091882D01*
X129498255Y-30091884D01*
X129598597Y-30124487D01*
X129685453Y-30152709D01*
X129879858Y-30183500D01*
X129879863Y-30183500D01*
X130076702Y-30183500D01*
X130271106Y-30152709D01*
X130272608Y-30152221D01*
X130458305Y-30091884D01*
X130633685Y-30002524D01*
X130792926Y-29886828D01*
X130932108Y-29747646D01*
X131047804Y-29588405D01*
X131137164Y-29413025D01*
X131197989Y-29225826D01*
X131216874Y-29106590D01*
X131228780Y-29031422D01*
X131228780Y-28834577D01*
X131497780Y-28834577D01*
X131497780Y-29031422D01*
X131528570Y-29225826D01*
X131589397Y-29413029D01*
X131661086Y-29553726D01*
X131678756Y-29588405D01*
X131794452Y-29747646D01*
X131933634Y-29886828D01*
X132092875Y-30002524D01*
X132175735Y-30044743D01*
X132268250Y-30091882D01*
X132268252Y-30091882D01*
X132268255Y-30091884D01*
X132368597Y-30124487D01*
X132455453Y-30152709D01*
X132649858Y-30183500D01*
X132649863Y-30183500D01*
X132846702Y-30183500D01*
X133041106Y-30152709D01*
X133042608Y-30152221D01*
X133228305Y-30091884D01*
X133403685Y-30002524D01*
X133562926Y-29886828D01*
X133702108Y-29747646D01*
X133817804Y-29588405D01*
X133907164Y-29413025D01*
X133967989Y-29225826D01*
X133986874Y-29106590D01*
X133998780Y-29031422D01*
X133998780Y-28834617D01*
X134268280Y-28834617D01*
X134268280Y-29031382D01*
X134299058Y-29225705D01*
X134359861Y-29412835D01*
X134449185Y-29588145D01*
X134474599Y-29623125D01*
X134474600Y-29623125D01*
X135035317Y-29062408D01*
X135052355Y-29125993D01*
X135118181Y-29240007D01*
X135211273Y-29333099D01*
X135325287Y-29398925D01*
X135388870Y-29415962D01*
X134828153Y-29976677D01*
X134828153Y-29976678D01*
X134863138Y-30002096D01*
X135038444Y-30091418D01*
X135225574Y-30152221D01*
X135419898Y-30183000D01*
X135616662Y-30183000D01*
X135810985Y-30152221D01*
X135998115Y-30091418D01*
X136173423Y-30002095D01*
X136208405Y-29976678D01*
X136208406Y-29976678D01*
X135647690Y-29415962D01*
X135711273Y-29398925D01*
X135825287Y-29333099D01*
X135918379Y-29240007D01*
X135984205Y-29125993D01*
X136001242Y-29062410D01*
X136561958Y-29623126D01*
X136561958Y-29623125D01*
X136587375Y-29588143D01*
X136676698Y-29412835D01*
X136737501Y-29225705D01*
X136768280Y-29031382D01*
X136768280Y-28834617D01*
X137038280Y-28834617D01*
X137038280Y-29031382D01*
X137069058Y-29225705D01*
X137129861Y-29412835D01*
X137219185Y-29588145D01*
X137244599Y-29623125D01*
X137244600Y-29623125D01*
X137805317Y-29062408D01*
X137822355Y-29125993D01*
X137888181Y-29240007D01*
X137981273Y-29333099D01*
X138095287Y-29398925D01*
X138158870Y-29415962D01*
X137598153Y-29976677D01*
X137598153Y-29976678D01*
X137633138Y-30002096D01*
X137808444Y-30091418D01*
X137995574Y-30152221D01*
X138189898Y-30183000D01*
X138386662Y-30183000D01*
X138580985Y-30152221D01*
X138768118Y-30091417D01*
X138785632Y-30082494D01*
X138785634Y-30082493D01*
X138943423Y-30002095D01*
X138978405Y-29976678D01*
X138978406Y-29976678D01*
X138417690Y-29415962D01*
X138481273Y-29398925D01*
X138595287Y-29333099D01*
X138688379Y-29240007D01*
X138754205Y-29125993D01*
X138771242Y-29062409D01*
X139331958Y-29623126D01*
X139331958Y-29623125D01*
X139357375Y-29588143D01*
X139446698Y-29412835D01*
X139507501Y-29225705D01*
X139538280Y-29031382D01*
X139538280Y-28834617D01*
X139507501Y-28640294D01*
X139446698Y-28453164D01*
X139377497Y-28317349D01*
X139377496Y-28317347D01*
X139357377Y-28277860D01*
X139331958Y-28242873D01*
X138771242Y-28803589D01*
X138754205Y-28740007D01*
X138688379Y-28625993D01*
X138595287Y-28532901D01*
X138481273Y-28467075D01*
X138417689Y-28450037D01*
X138978405Y-27889320D01*
X138978405Y-27889319D01*
X138943425Y-27863905D01*
X138768115Y-27774581D01*
X138580985Y-27713778D01*
X138386662Y-27683000D01*
X138189898Y-27683000D01*
X137995574Y-27713778D01*
X137808441Y-27774582D01*
X137633143Y-27863899D01*
X137633139Y-27863902D01*
X137598153Y-27889320D01*
X137598152Y-27889320D01*
X138158870Y-28450037D01*
X138095287Y-28467075D01*
X137981273Y-28532901D01*
X137888181Y-28625993D01*
X137822355Y-28740007D01*
X137805317Y-28803590D01*
X137244600Y-28242872D01*
X137244600Y-28242873D01*
X137219182Y-28277859D01*
X137219179Y-28277863D01*
X137129862Y-28453161D01*
X137069058Y-28640294D01*
X137038280Y-28834617D01*
X136768280Y-28834617D01*
X136737501Y-28640294D01*
X136676698Y-28453164D01*
X136587376Y-28277858D01*
X136561958Y-28242873D01*
X136561957Y-28242873D01*
X136001242Y-28803589D01*
X135984205Y-28740007D01*
X135918379Y-28625993D01*
X135825287Y-28532901D01*
X135711273Y-28467075D01*
X135647689Y-28450037D01*
X136208405Y-27889320D01*
X136208405Y-27889319D01*
X136173425Y-27863905D01*
X135998115Y-27774581D01*
X135810985Y-27713778D01*
X135616662Y-27683000D01*
X135419898Y-27683000D01*
X135225574Y-27713778D01*
X135038441Y-27774582D01*
X134863143Y-27863899D01*
X134863139Y-27863902D01*
X134828153Y-27889320D01*
X134828152Y-27889320D01*
X135388870Y-28450037D01*
X135325287Y-28467075D01*
X135211273Y-28532901D01*
X135118181Y-28625993D01*
X135052355Y-28740007D01*
X135035317Y-28803590D01*
X134474600Y-28242872D01*
X134474600Y-28242873D01*
X134449182Y-28277859D01*
X134449179Y-28277863D01*
X134359862Y-28453161D01*
X134299058Y-28640294D01*
X134268280Y-28834617D01*
X133998780Y-28834617D01*
X133998780Y-28834577D01*
X133967989Y-28640173D01*
X133907162Y-28452970D01*
X133860023Y-28360455D01*
X133817804Y-28277595D01*
X133702108Y-28118354D01*
X133562926Y-27979172D01*
X133403685Y-27863476D01*
X133358280Y-27840341D01*
X133228309Y-27774117D01*
X133041106Y-27713290D01*
X132846702Y-27682500D01*
X132846697Y-27682500D01*
X132649863Y-27682500D01*
X132649858Y-27682500D01*
X132455453Y-27713290D01*
X132268250Y-27774117D01*
X132092874Y-27863476D01*
X132029571Y-27909469D01*
X131933634Y-27979172D01*
X131933632Y-27979174D01*
X131933631Y-27979174D01*
X131794454Y-28118351D01*
X131794454Y-28118352D01*
X131794452Y-28118354D01*
X131744765Y-28186741D01*
X131678756Y-28277594D01*
X131589397Y-28452970D01*
X131528570Y-28640173D01*
X131497780Y-28834577D01*
X131228780Y-28834577D01*
X131197989Y-28640173D01*
X131137162Y-28452970D01*
X131090023Y-28360455D01*
X131047804Y-28277595D01*
X130932108Y-28118354D01*
X130792926Y-27979172D01*
X130633685Y-27863476D01*
X130588280Y-27840341D01*
X130458309Y-27774117D01*
X130271106Y-27713290D01*
X130076702Y-27682500D01*
X130076697Y-27682500D01*
X129879863Y-27682500D01*
X129879858Y-27682500D01*
X129685453Y-27713290D01*
X129498250Y-27774117D01*
X129322874Y-27863476D01*
X129259571Y-27909469D01*
X129163634Y-27979172D01*
X129163632Y-27979174D01*
X129163631Y-27979174D01*
X129024454Y-28118351D01*
X129024454Y-28118352D01*
X129024452Y-28118354D01*
X128974765Y-28186741D01*
X128908756Y-28277594D01*
X128819397Y-28452970D01*
X128758570Y-28640173D01*
X128727780Y-28834577D01*
X128458780Y-28834577D01*
X128427989Y-28640173D01*
X128367162Y-28452970D01*
X128320023Y-28360455D01*
X128277804Y-28277595D01*
X128162108Y-28118354D01*
X128022926Y-27979172D01*
X127863685Y-27863476D01*
X127818280Y-27840341D01*
X127688309Y-27774117D01*
X127501106Y-27713290D01*
X127306702Y-27682500D01*
X127306697Y-27682500D01*
X127109863Y-27682500D01*
X127109858Y-27682500D01*
X126915453Y-27713290D01*
X126728250Y-27774117D01*
X126552874Y-27863476D01*
X126489571Y-27909469D01*
X126393634Y-27979172D01*
X126393632Y-27979174D01*
X126393631Y-27979174D01*
X126254454Y-28118351D01*
X126254454Y-28118352D01*
X126254452Y-28118354D01*
X126204765Y-28186741D01*
X126138756Y-28277594D01*
X126049397Y-28452970D01*
X125988570Y-28640173D01*
X125957780Y-28834577D01*
X125688780Y-28834577D01*
X125657989Y-28640173D01*
X125597162Y-28452970D01*
X125550023Y-28360455D01*
X125507804Y-28277595D01*
X125392108Y-28118354D01*
X125252926Y-27979172D01*
X125093685Y-27863476D01*
X125048280Y-27840341D01*
X124918309Y-27774117D01*
X124731106Y-27713290D01*
X124536702Y-27682500D01*
X124536697Y-27682500D01*
X124339863Y-27682500D01*
X124339858Y-27682500D01*
X124145453Y-27713290D01*
X123958250Y-27774117D01*
X123782874Y-27863476D01*
X123719571Y-27909469D01*
X123623634Y-27979172D01*
X123623632Y-27979174D01*
X123623631Y-27979174D01*
X123484454Y-28118351D01*
X123484454Y-28118352D01*
X123484452Y-28118354D01*
X123434765Y-28186741D01*
X123368756Y-28277594D01*
X123279397Y-28452970D01*
X123218570Y-28640173D01*
X123187780Y-28834577D01*
X122918780Y-28834577D01*
X122887989Y-28640173D01*
X122827162Y-28452970D01*
X122780023Y-28360455D01*
X122737804Y-28277595D01*
X122622108Y-28118354D01*
X122482926Y-27979172D01*
X122323685Y-27863476D01*
X122278280Y-27840341D01*
X122148309Y-27774117D01*
X121961106Y-27713290D01*
X121766702Y-27682500D01*
X121766697Y-27682500D01*
X121569863Y-27682500D01*
X121569858Y-27682500D01*
X121375453Y-27713290D01*
X121188250Y-27774117D01*
X121012874Y-27863476D01*
X120949571Y-27909469D01*
X120853634Y-27979172D01*
X120853632Y-27979174D01*
X120853631Y-27979174D01*
X120714454Y-28118351D01*
X120714454Y-28118352D01*
X120714452Y-28118354D01*
X120664765Y-28186741D01*
X120598756Y-28277594D01*
X120509397Y-28452970D01*
X120448570Y-28640173D01*
X120417780Y-28834577D01*
X115666290Y-28834577D01*
X115605238Y-28737413D01*
X115468671Y-28566161D01*
X114568837Y-29465995D01*
X114491485Y-29359529D01*
X114321751Y-29189795D01*
X114215283Y-29112442D01*
X115115117Y-28212607D01*
X114943866Y-28076041D01*
X114678768Y-27909469D01*
X114396694Y-27773629D01*
X114101186Y-27670226D01*
X114101174Y-27670222D01*
X113795942Y-27600555D01*
X113795926Y-27600553D01*
X113484827Y-27565500D01*
X113171733Y-27565500D01*
X112860633Y-27600553D01*
X112860617Y-27600555D01*
X112555385Y-27670222D01*
X112555373Y-27670226D01*
X112259865Y-27773629D01*
X111977791Y-27909469D01*
X111712689Y-28076043D01*
X111712685Y-28076046D01*
X111541441Y-28212607D01*
X112441276Y-29112442D01*
X112334809Y-29189795D01*
X112165075Y-29359529D01*
X112087722Y-29465995D01*
X111187887Y-28566161D01*
X111051326Y-28737405D01*
X111051323Y-28737409D01*
X110884749Y-29002511D01*
X110748909Y-29284585D01*
X110645506Y-29580093D01*
X110645502Y-29580105D01*
X110575835Y-29885337D01*
X110575833Y-29885353D01*
X110540780Y-30196452D01*
X109500500Y-30196452D01*
X109500500Y-21124500D01*
X109520185Y-21057461D01*
X109572989Y-21011706D01*
X109624500Y-21000500D01*
X152551459Y-21000500D01*
X152618498Y-21020185D01*
G37*
%TD.AperFunction*%
%TD*%
M02*
